<svg width="59" height="41" fill="none" xmlns="http://www.w3.org/2000/svg"><g clip-path="url(#clip0)" fill="#204686"><path d="M6.764 23.688c-2.27-2.55-1.185-6.278 1.185-8.338 2.222-1.912 5.332-2.5 8.196-2.648 3.259-.196 7.16.49 8.196 4.07.889 3.041-.543 6.033-2.37 8.436-1.876 2.452-4.098 4.463-7.01 5.493-2.321.834-4.74 1.226-7.061 2.01-3.604 1.227-7.01 3.434-7.9 7.26-.098.49.247.882.692.93 5.381.491 10.565-1.618 15.947-.882 4.591.589 8.541.687 12.837-1.275.888-.392.098-1.667-.74-1.275-2.42 1.079-4.938 1.667-7.604 1.618-2.222-.049-4.394-.686-6.666-.735-4.64-.147-9.133 1.52-13.774 1.079.246.294.493.637.69.931 1.729-7.552 12.196-6.375 17.43-10.004 4.443-3.041 8.985-9.613 6.368-15.106-2.567-5.394-10.911-4.708-15.503-2.746-4.69 2.01-7.9 7.847-4.048 12.212.691.686 1.728-.344 1.135-1.03z"/><path d="M35.597 23.688c-2.27-2.55-1.185-6.278 1.185-8.338 2.222-1.912 5.332-2.5 8.196-2.648 3.259-.196 7.159.49 8.196 4.07.889 3.041-.543 6.033-2.37 8.436-1.876 2.452-4.098 4.463-7.01 5.493-2.321.834-4.74 1.226-7.061 2.01-3.555 1.227-6.962 3.434-7.801 7.26-.099.49.247.882.691.93 5.382.491 10.566-1.618 15.948-.882 4.591.589 8.54.687 12.836-1.275.889-.392.1-1.667-.74-1.275-2.42 1.079-4.938 1.667-7.604 1.618-2.221-.049-4.394-.686-6.665-.735-4.64-.147-9.134 1.52-13.775 1.079.247.294.494.637.691.931 1.728-7.552 12.195-6.375 17.429-10.004 4.443-3.041 8.986-9.613 6.369-15.106-2.567-5.394-10.911-4.708-15.503-2.746-4.69 2.01-7.9 7.847-4.049 12.212.642.686 1.68-.344 1.037-1.03zM51.002 4.315c-.297.883-.346 1.618-.149 2.501.05.245.297.49.494.49 2.123.393 4.641.54 6.32-1.03 1.234-1.176 1.827-3.285.79-4.756C57.32-.197 54.754-.197 52.927.146c-2.123.393-3.95 1.766-3.999 4.07-.05.933 1.432.933 1.481 0 .05-1.716 1.679-2.5 3.21-2.647 1.234-.148 3.307-.197 3.801 1.226.395 1.177-.494 2.5-1.53 2.991-1.284.638-2.815.442-4.197.196.148.148.345.344.494.49a2.705 2.705 0 01.148-1.765c.395-.882-1.037-1.275-1.333-.392z"/></g><defs><clipPath id="clip0"><path fill="#fff" d="M0 0h59v41H0z"/></clipPath></defs></svg>