<svg width="34" height="24" fill="none" xmlns="http://www.w3.org/2000/svg"><g clip-path="url(#clip0)" fill="#204686"><path d="M3.897 13.866c-1.308-1.493-.682-3.675.683-4.88 1.28-1.12 3.073-1.465 4.723-1.55 1.878-.115 4.126.286 4.723 2.382.512 1.78-.313 3.531-1.365 4.938-1.082 1.435-2.362 2.612-4.04 3.215-1.338.488-2.732.718-4.07 1.177-2.076.718-4.04 2.01-4.551 4.25a.451.451 0 00.398.544c3.101.288 6.089-.947 9.19-.516 2.646.344 4.922.402 7.397-.747.512-.23.057-.976-.427-.746-1.394.631-2.845.976-4.381.947-1.28-.028-2.532-.402-3.841-.43-2.675-.086-5.264.89-7.938.631.142.172.284.373.398.546.996-4.421 7.028-3.732 10.044-5.857 2.56-1.78 5.178-5.627 3.67-8.842C13.03 5.77 8.222 6.172 5.576 7.32c-2.703 1.178-4.552 4.594-2.333 7.149.398.402.996-.201.654-.603z"/><path d="M20.514 13.866c-1.309-1.493-.683-3.675.683-4.88 1.28-1.12 3.073-1.465 4.723-1.55 1.877-.115 4.125.286 4.723 2.382.512 1.78-.313 3.531-1.366 4.938-1.081 1.435-2.361 2.612-4.04 3.215-1.337.488-2.731.718-4.069 1.177-2.048.718-4.011 2.01-4.495 4.25a.451.451 0 00.398.544c3.101.288 6.089-.947 9.19-.516 2.646.344 4.922.402 7.398-.747.512-.23.056-.976-.427-.746-1.394.631-2.845.976-4.382.947-1.28-.028-2.532-.402-3.84-.43-2.675-.086-5.264.89-7.939.631.142.172.285.373.398.546.996-4.421 7.028-3.732 10.044-5.857 2.56-1.78 5.178-5.627 3.67-8.842-1.48-3.158-6.288-2.756-8.934-1.608-2.702 1.178-4.552 4.594-2.333 7.149.37.402.968-.201.598-.603zm8.877-11.341c-.17.517-.2.948-.085 1.464.028.144.17.288.284.288 1.224.23 2.675.315 3.642-.603.711-.69 1.053-1.924.455-2.785-.654-1.005-2.134-1.005-3.186-.804-1.224.23-2.277 1.034-2.305 2.383-.028.545.825.545.854 0 .028-1.005.967-1.464 1.849-1.55.711-.086 1.906-.115 2.19.717.228.69-.284 1.464-.881 1.752-.74.373-1.622.258-2.419.114l.285.287a1.607 1.607 0 01.085-1.033c.228-.517-.597-.746-.768-.23z"/></g><defs><clipPath id="clip0"><path fill="#fff" d="M0 0h34v24H0z"/></clipPath></defs></svg>