<svg width="137" height="109" fill="none" xmlns="http://www.w3.org/2000/svg"><g clip-path="url(#clip0)"><path fill-rule="evenodd" clip-rule="evenodd" d="M78.19 7.488l29.405 50.756L137 109H19.547l29.238-50.756L78.19 7.488zm11.695 60.907h8.688V82.54h-20.55v-2.33h11.862V68.395zm8.688 15.643v20.136h-8.688V92.358H78.023v-8.487h20.55v.167zm1.337-15.643h2.339V80.21h11.862v2.33H99.91V68.395zm14.201 15.643v8.487h-11.862v11.815h-2.34V84.038h14.202z" fill="#C20D19"/><path d="M61.65 3.994l-.501-.333V5.16s0 .166-.167.166V6.49c0 .333.334.666.668.832h.334c.334.167.501.167.835 0 .335 0 .502-.333.669-.666 0-.166.167-.166.167-.332V5.99c0-.333-.167-.666-.334-.999-.502-.166-1.003-.499-1.671-.998zm-3.676 1.165l-1.17 2.163c-.166-.166-.333-.166-.5-.333l-.502-.499c-.334-.5-.668-.998-.835-1.664-.167-.666.167-1.664.668-2.663.669-.998 1.17-1.664 1.838-1.83C58.31 0 58.81 0 59.478 0c.334 0 .501.166.835.333.167.166.502.166.669.333l4.01 2.33c.5.332 1.002.499 1.169.665h.835l-1.336 2.33-1.003-.333c.167.333.167.5.167.832v.666c0 .333-.167.665-.334.998-.167.333-.167.5-.334.5-.501.665-.835 1.164-1.337 1.33-.5.167-1.002.167-1.503.167-.167 0-.334-.166-.668-.166-.168 0-.335-.167-.502-.167-1.002-.665-1.503-1.331-1.503-1.997 0-.832.167-1.497.334-2.33 0 0 0-.166.167-.166V5.16c0-.167.167-.333.167-.5 0-.166.167-.332.167-.332.167-.5.167-.832.167-.999 0-.166-.167-.333-.501-.499 0 0-.167 0-.167-.166-.167 0-.167 0-.334-.167h-.669c-.167 0-.5.333-.668.666-.167.333-.334.665-.167.998 0 .333.167.5.334.666.167 0 .167.166.334.166 0 .167.167.167.167.167zM46.446 18.805l1.17-1.997 1.336.665c0-.166-.167-.166-.167-.332 0-.167-.167-.333-.167-.5-.167-.333-.167-.665-.167-.998 0-.333.167-.832.334-1.165.335-.5.669-.832 1.17-.999.501-.166.835-.166 1.337-.166h.334c-.502-.832-.669-1.498-.669-2.163 0-.5.167-.999.334-1.332.502-.665 1.003-1.165 1.504-1.165.668-.166 1.17 0 1.838.167.334.166.668.166 1.002.333.334.166.502.332.836.332l5.346 2.996-1.17 2.163-5.346-2.995c-.167 0-.334 0-.334-.167-.167 0-.334-.166-.501-.166-.334-.166-.668-.166-1.003-.166-.334 0-.5.166-.835.499v.333c-.167.333 0 .665.167.998.167.333.668.832 1.337 1.165l5.012 2.829-1.17 2.163-5.179-2.995c-.501-.333-1.002-.5-1.504-.5-.5-.166-.835.167-1.002.5v.333c0 .333 0 .665.167.998.167.333.668.832 1.17 1.165l5.012 2.83-1.17 2.163-9.022-4.826zm-.835.998l2.172 1.165-.334.333c0 .166-.167.166-.167.333-.334.665-.334 1.165-.167 1.664.167.499.5.998.835 1.331.334.166.501.5.835.666.335.166.502.332.669.332l3.508 1.997-1.17 2.164-8.854-4.993 1.17-1.997 1.503.833c-.501-.666-.668-1.332-.668-1.831 0-.666.167-1.165.5-1.664l.168-.333zm.334 11.815l-.501-.332v.831s0 .166-.167.332v1.001c0 .333-.167.666 0 .832 0 .333.334.5.668.832h.334c.334.166.502.166.836 0 .334 0 .5-.333.668-.666 0 0 .167-.166.167-.333v-.332c0-.333 0-.666-.334-.999-.668-.333-1.003-.832-1.67-1.165zm-3.843 1.165l-1.17 1.997c-.166-.166-.333-.166-.5-.333l-.502-.499c-.334-.5-.668-.998-.835-1.664-.167-.666.167-1.498.668-2.663.669-.998 1.17-1.664 1.838-1.997.669-.166 1.337-.332 1.838-.166.334 0 .501.166.668.333.167.166.502.166.669.333l4.01 2.33c.5.332 1.002.499 1.169.665.334.166.501 0 .835 0l-1.336 2.33-1.003-.333c.167.333.167.5.334.832v.666c0 .333-.167.665-.334.998-.167.333-.167.5-.334.666-.501.666-.835 1.165-1.336 1.331-.502.167-1.003.167-1.504.167-.167 0-.334-.167-.669-.167-.166 0-.334-.166-.5-.166-1.003-.5-1.504-1.331-1.504-1.997 0-.832.167-1.498.334-2.33v-.166s0-.167.167-.167c0-.166.167-.333.167-.499 0-.166.167-.333.167-.333.167-.5.167-.666.167-.998 0-.167-.167-.333-.501-.5 0 0-.167 0-.167-.166 0 0-.167 0-.334-.166h-.669c-.167 0-.5.332-.668.665-.167.333-.334.666-.167.999 0 .333.167.499.334.665.167.167.167.167.334.167s.334.166.334.166zM30.91 37.942l4.343 2.496c-.167-.166-.167-.5-.167-.666 0-.166-.167-.332-.167-.499 0-.499 0-.832.167-1.165.167-.332.167-.665.334-.665 0-.167.168-.333.335-.333.167-.166.167-.333.334-.333.334-.333.835-.5 1.504-.5.668 0 1.503.334 2.673.833l5.513 3.162-1.17 2.163-5.179-2.829c-.167 0-.167-.166-.334-.166s-.334-.167-.334-.167c-.334-.166-.668-.166-1.003-.166-.334 0-.668.166-.835.666-.334.499-.334.832 0 1.33.167.5.669.833 1.337 1.166l5.012 2.829-1.504 1.997-12.196-6.99 1.337-2.163zM27.9 48.759l3.175 1.83 1.002-1.83c.334-.5.334-.999.334-1.331 0-.5-.334-.833-1.002-1.165-.669-.333-1.17-.5-1.504-.333-.334.166-.668.499-1.002.998l-1.003 1.83zm-3.675.998l2.673-4.66c.835-1.33 1.838-2.163 2.84-2.163 1.002 0 2.172.167 3.174.832 1.17.666 2.005 1.498 2.34 2.164.334.832.334 1.498.334 2.163 0 .333-.168.666-.335.999-.167.332-.334.499-.334.832l-1.336 2.163 4.176 2.33-1.336 2.163-12.196-6.823zM20.884 63.07l1.003.666c0-.166-.168-.166-.168-.333 0-.166-.167-.333-.167-.5 0-.332-.167-.665 0-1.164 0-.5.168-.832.502-1.331 0-.167.167-.167.334-.333.167-.167.167-.333.334-.333.334-.333.835-.5 1.504-.5.668 0 1.67.167 2.84 1l5.513 3.161-1.17 2.163-5.178-2.829c-.168 0-.168-.166-.335-.166s-.334-.166-.334-.166c-.334-.167-.668-.167-1.002-.167-.334 0-.668.167-.836.666-.334.499-.334.998 0 1.331.168.5.669.832 1.337 1.331l5.012 2.83-1.17 2.163-8.854-4.993.835-2.496zm-1.503 10.983l1.837-3.328c-.668-.333-1.17-.499-1.503-.499-.334 0-.669.166-1.003.166l-.334.333c-.167.167-.167.167-.167.333-.334.5-.334.832-.167 1.331l.501.999.501.499s.167.166.335.166zm4.51-1.664l1.337-2.163.501.5.502.498c.334.5.5 1.165.5 1.831 0 .666-.166 1.664-.668 2.496-.668 1.331-1.67 1.997-3.007 2.163-1.17.167-2.506-.166-4.01-.998-1.503-.832-2.506-1.997-2.84-3.162-.334-1.165-.167-2.33.501-3.495.836-1.33 1.838-1.996 3.175-1.996 1.336 0 2.506.332 3.842 1.165l.334.166-3.34 5.491h.333c.501.333 1.17.5 1.838.5.668 0 1.17-.333 1.504-.832.167-.333.167-.666.167-.999-.167-.499-.334-.832-.668-1.165zm-8.854 11.15c.668.333 1.503.666 2.171.666.669.166 1.337-.167 1.671-.832.334-.666.334-1.165-.167-1.831-.334-.5-1.002-.999-1.838-1.498-1.002-.665-1.837-.832-2.506-.665-.668.166-1.002.332-1.336.665-.167.333-.167.832 0 1.498.334.832 1.002 1.331 2.005 1.997zm-5.514-.5l1.17-1.996 1.002.499c-.167-.166-.167-.5-.334-.666 0-.166-.167-.333-.167-.665v-.999c0-.333.167-.499.334-.832.668-.998 1.504-1.664 2.673-1.664 1.17 0 2.506.333 3.843 1.165 1.17.666 2.005 1.331 2.506 2.163a3.19 3.19 0 01.668 1.997c0 .5 0 .999-.167 1.332-.167.332-.167.499-.334.665 0 .167-.167.167-.167.333s-.167.166-.167.333c-.334.333-.501.499-.835.666-.335.166-.669.332-1.17.332l3.509 1.997-1.17 2.164L9.523 83.04zM4.01 85.038l1.17-2.164 12.029 6.99-1.17 2.163-12.03-6.99zm3.675 11.316L9.19 93.69l-5.347-1.33 3.842 3.994zM0 91.86l1.337-2.33 14.2 3.162-1.503 2.496-2.673-.666-1.838 3.661 1.838 1.997-1.337 2.33L0 91.86z" fill="#000"/></g><defs><clipPath id="clip0"><path fill="#fff" d="M0 0h137v109H0z"/></clipPath></defs></svg>