<svg width="29" height="54" fill="none" xmlns="http://www.w3.org/2000/svg"><g clip-path="url(#clip0)" fill="#204686"><path d="M28.894 41.742c-.128-1.204.042-2.43 0-3.656-.022-1.376-.384-2.774-.512-4.172-.235-2.387-.79-4.624-1.174-6.99-.192-1.117-.64-1.913-1.088-2.924-.363-.796-.705-1.398-1.196-1.979-.042-.085-.064-.172-.106-.258a.067.067 0 00-.128 0 .934.934 0 01-.128-.15c.235-.538.427-1.075.576-1.656.213-.774.661-1.936.448-2.839.534 0 1.11-.28 1.494-.58.768-.603.47-1.828.277-2.646-.192-.73-1.152-1.311-1.878-1.182-.49.086-1.024.322-1.28.71-.704-.99-1.067-2.237-1.963-3.076C21.084 9.27 20.123 8 18.693 7.247c-1.237-.645-2.219-1.053-3.606-1.204a6.958 6.958 0 00-1.494-.021c.064-.065.128-.108.193-.173.17-.129-.043-.408-.214-.3-.192.15-.363.322-.49.516-.107.021-.236.021-.342.043v-.043c0-.065-.021-.151-.021-.216.02-.043.02-.086.042-.107.128-.258.363-.473.512-.731.15-.237-.213-.43-.362-.215l-.192.258c.02-.237.085-.473.17-.71.043-.043.086-.064.128-.086.064-.043.043-.107 0-.129.256-.28.491-.56.683-.882.363-.623.49-1.634.192-2.322-.427-.925-.981-1.033-1.92-1.011-.128 0-.128.194 0 .194 2.219 0 1.814 2.322.917 3.397-.49.581-1.11 1.054-1.643 1.592-.427.43-.747.946-.854 1.484-.17.043-.34.107-.512.172.086-.366.342-.71.662-1.162.384-.58.854-.989 1.387-1.419.747-.602 1.13-1.355 1.195-2.301.107-1.656-1.707-2.108-2.497-.774-.064.129.107.215.192.107.3.022.598.043.897.086-.086.904-.47 1.656-1.473 1.764a5.068 5.068 0 00-.96.193c-.427.172-.747.538-1.003.904-.32.473-.32.946-.235 1.419l-.021.021c-.427.603-.342 1.42-.15 2.108l-.384.194c-.128-.28-.064-.646-.064-.947 0-.236-.341-.236-.341 0 0 .323-.043.624.043.925.021.065.042.129.064.172-.171.086-.342.194-.512.28a.98.98 0 01-.065-.344c-.02-.194-.32-.194-.32 0 .022.172.043.344.107.516-1.174.774-2.262 1.978-2.902 3.226-.683 1.483-1.28 2.903-1.43 4.408-.064.667.043 1.355.171 2.022.064.365.128.71.213 1.075 0 .043.022.086.043.129-.363-.28-.854-.409-1.28-.172-.833.43-1.345 1.14-1.174 2.107.17 1.054.747 1.57 1.707 1.914.619.237 1.323-.408 1.665-1.01.192.752.704 1.613 1.11 2.107.32.387.66.774 1.024 1.118-.427 1.033-.32 2.15-.278 3.248.021.559-.17 1.225-.17 1.806 0 .731.191 1.463.34 2.15.32 1.377.278 2.71.79 4.044.278.73.278 1.548.449 2.3.17.797.469 1.57.746 2.323.47 1.27 1.11 2.495 1.729 3.7.299.601.704 1.096 1.174 1.59.64.667.96 1.42 1.45 2.173 1.366 2 3.159 4.3 5.655 4.73a.314.314 0 00.278-.085c.619.215 1.387.28 1.92.43 1.451.344 2.881.129 4.247-.387 1.259-.473 2.006-1.097 2.817-2.194.661-.881 1.472-2.3 1.621-3.398v-.021c.662-1.957.811-4.022.577-6.086zm-1.771-11.72c.255 1.44.49 2.881.618 4.365.107 1.118.32 2.194.427 3.312.021.236.043.452.043.688-.043.022-.086.065-.086.108-.17.838-.725 1.548-1.259 2.193-.512.624-1.11 1.42-1.877 1.72.064-.171.128-.343.17-.516.875-2.645 1.43-5.419 1.729-8.193.17-1.204.234-2.452.234-3.677zm1.066 11.333c0 .409.022.839.043 1.247-.512 1.097-1.579 2.13-2.39 2.882a7.595 7.595 0 01-3.158 1.72c.939-1.419 1.664-2.903 2.262-4.494.896-.065 1.536-.775 2.155-1.441.363-.387.832-.925 1.152-1.484a9.56 9.56 0 00-.064 1.57zm-3.307-18.602c0 .021 0 .043.021.086-.341 1.355-1.707 2.28-2.774 3.053-1.174.86-2.667 1.27-4.054 1.613a15.434 15.434 0 01-4.78.409 20.128 20.128 0 002.902-.387c2.667-.56 5.27-2.022 7.148-3.979.449-.473.811-1.032 1.11-1.612.15.258.278.537.427.817zM11.716 5.548c-.171.28-.3.581-.342.882l-.256.065c.15-.344.363-.646.598-.947zm.64-.537a3.69 3.69 0 00-.043.838 2.294 2.294 0 00-.085.41c-.171.02-.342.064-.512.107.085-.473.341-.968.64-1.355zM11.16 3.269c.576-.516.81-1.097.875-1.85.17.022.362.022.533.043a1.89 1.89 0 01-.043 1.033c-.149.666-.704 1.096-1.216 1.484-.619.473-1.024 1.01-1.536 1.57a1.995 1.995 0 00-.32.43c.085-.345.213-.71.405-1.076.32-.602.875-.967 1.152-1.548.043-.022.086-.043.15-.086zm-2.09.881c.426-.517 1.088-.452 1.621-.646-.32.43-.81.775-1.152 1.183-.235.301-.384.667-.512 1.032a2.58 2.58 0 00-.17.968c-.172-.839-.449-1.72.213-2.537zm-.897 2c.15.43.342.881.427 1.29l-.384.193c-.107-.473-.192-1.01-.043-1.483zm-2.71 18.193c-.661-.667-1.707-1.828-1.899-2.796 0-.043-.021-.064-.064-.086-.128-.15-.384-.215-.534-.043-.234.258-.405.56-.64.818-.47.516-1.28-.065-1.515-.516-.277-.517-.32-1.248.107-1.678.512-.538 1.28-.645 1.771-.043v.043c-.021.086.064.13.128.108.085.064.235 0 .192-.108-.021-.043-.021-.064-.043-.107.171-.452-.085-1.14-.149-1.549-.277-1.914.064-3.462.875-5.204.64-1.42 1.43-2.43 2.56-3.506.449-.408.897-.623 1.388-.86.085.043.213-.021.213-.107.086-.043.192-.086.278-.13.17-.085.341-.171.49-.257a1.254 1.254 0 01-.277.559c-.064.064.043.172.107.107.277-.258.426-.537.49-.838.064-.043.128-.065.193-.108.064.172.149.366.234.516.128.258.512.022.384-.215-.021-.021-.021-.064-.042-.086.213.065.426-.172.32-.409-.043-.064-.064-.15-.086-.215.15-.064.3-.129.448-.172.043.215.107.43.235.646.128.236.512.086.448-.194a2.488 2.488 0 01-.085-.667c.15-.043.277-.086.427-.129.064.258.235.473.49.645.15.108.342-.129.193-.258a1.037 1.037 0 01-.342-.473l.64-.129c.064.022.15 0 .214-.043a7.454 7.454 0 012.176-.064c.683.086 1.366.172 2.049.344.619.15 1.28.666 1.835.968.64.322 1.152.881 1.686 1.354.619.517 1.302 1.14 1.707 1.85.555.946 1.088 2 1.75 2.86.107.15.256.15.384.108.064 0 .107-.043.128-.108a.516.516 0 00.107-.301c.277-.43 1.024-.58 1.45-.516.662.107.854.86.94 1.398.085.559.064 1.075-.448 1.376-.385.237-.811.172-1.238.194a.365.365 0 00-.341.408c-.064.108-.064.215 0 .344.426.753-.32 2.258-.513 3.033-.362 1.333-1.067 2.387-2.027 3.333-1.707 1.72-4.033 2.516-6.274 3.269-2.24.73-5.1.451-7.319-.194-1.28-.322-2.305-1.226-3.2-2.172zm.342 1.312c.554.516 1.152.968 1.856 1.312 1.003.494 2.155.774 3.329.903.107.021.213.065.32.086.811.172 1.643.28 2.476.323 1.77.086 3.456-.065 5.185-.517 1.622-.43 2.945-1.096 4.29-2.064.66-.495 1.408-1.183 1.792-2 .085.602.128 1.204.02 1.892-.063.452-.234.925-.426 1.398-.042 0-.085.022-.128.043-2.411 2.28-5.633 3.14-8.792 3.785-3.286.667-7.106-.107-9.88-2.021.022-.538-.085-1.097-.106-1.613-.043-.516.02-1.032.064-1.527zm.448 7.591c-.278-1.462-.62-2.71-.427-4.215 2.667 2.344 6.594 2.796 9.987 2.344 1.707-.236 3.457-.795 5.078-1.355 1.089-.387 2.305-1.032 3.201-1.892-.17.323-.341.645-.49.946-.235.495-.513.968-.79 1.441-.021-.086-.107-.129-.192-.064-1.046.838-2.027 1.699-3.18 2.387-1.237.73-2.902 1.376-4.268 1.85-2.582.86-6.273 1.978-8.685.107-.02-.022-.02-.022-.042 0-.043-.538-.086-1.032-.192-1.549zM9.219 43.59a30.996 30.996 0 01-1.26-2.881c-.49-1.27-.682-2.538-.96-3.871-.149-.667-.512-1.183-.554-1.893v-.021c2.134 2.086 5.57 1.333 8.087.58 3.073-.903 6.103-2.236 8.152-4.774-.982 1.635-2.155 3.14-3.393 4.624-1.494 1.785-3.265 3.355-4.95 4.968-.876.838-2.092 1.526-3.116 2.193-.598.366-1.494.56-2.006 1.075.021-.021 0-.021 0 0zm2.753 4.086c-.598-1.14-1.58-1.935-2.198-3.053-.107-.194-.192-.387-.3-.581a.194.194 0 00.172-.086c.192-.172.661-.323.896-.43.576-.28 1.11-.56 1.643-.925.982-.666 2.027-1.269 2.902-2.086 1.92-1.806 3.777-3.613 5.442-5.656a29.763 29.763 0 004.097-6.623c.448-1.011.896-1.914 1.024-3.011.021-.237.043-.452.021-.688.128.967.192 2.322.192 2.516-.042 1.355-.384 2.688-.746 4-.726 2.623-1.558 5.226-2.71 7.699-2.028 4.387-5.207 8.172-8.557 11.613a11.748 11.748 0 01-1.878-2.689zm5.228 5.011c-.043 0-.064.022-.086.043-1.045-.387-2.006-1.054-2.86-1.892 3.693-3.807 7.043-7.979 9.113-12.925 1.13-2.667 1.963-5.505 2.54-8.344a13.71 13.71 0 00.255-3.742c0-.107-.021-.215-.021-.344.192.516.341 1.054.448 1.613.021.086.021.172.043.258.042.366.085.753.106 1.118.064 1.312 0 2.602-.106 3.893a40.308 40.308 0 01-1.558 8.107c-.726 2.452-1.707 4.796-3.222 6.86a76.919 76.919 0 01-2.625 3.29c-.299.366-.598.732-.918 1.055-.128.236-.875.946-1.11 1.01zm9.026-2.15c-.661 1.183-1.728 1.785-2.923 2.258-1.28.494-2.582.494-3.927.3-.426-.064-1.045 0-1.579-.042 0 0 0-.022-.021-.022.555-.322 1.046-.903 1.408-1.333.214-.258.427-.495.64-.753.683.516 2.839.344 3.244.258 1.024-.193 2.091-.73 2.987-1.269.427-.236.747-.559 1.025-.903-.256.516-.555 1.011-.854 1.506zm2.006-6c-.064 1.032-.299 1.978-.576 2.946-.405.408-.704.925-1.131 1.312-.64.58-1.302.946-2.07 1.29-.832.366-1.515.58-2.433.645-.234.022-1.387.022-1.963-.107l1.729-2.194c.234-.3.47-.623.683-.946 1.195.021 2.453-.688 3.35-1.42.661-.537 1.28-1.096 1.77-1.806l.641-.968c.043.409.021.818 0 1.248z"/><path d="M15.13 5.42c-.085.064-.17.085-.256.064a.169.169 0 00-.17.172c0 .107.085.172.17.172.213.021.363-.065.49-.215.065-.108-.127-.28-.234-.194zM9.667 16.968c-.363-.43-.96-.667-1.494-.43-.598.258-.598.924-.192 1.354.107.108.213.173.341.237.214.13.512.172.768.108.577-.13 1.003-.753.577-1.27zm9.048-2.323c.043-.408-.192-.817-.64-.903a.605.605 0 00-.342.021.41.41 0 00-.213.065c-.021 0-.064 0-.085.022l-.043.043c-.32.236-.448.73-.278 1.075a.908.908 0 00.363.387c.427.409 1.11.172 1.216-.409.022-.107.022-.193.022-.3zm-4.205 1.549c-.17-.022-.32.064-.469.129a1.67 1.67 0 01-.64.172c-.47.043-.32-.495-.106-.71.192-.194.405-.172.661-.15.085 0 .107-.13.021-.151-.341-.086-.554-.13-.853.086a.86.86 0 00-.342.946c.086.344.427.43.726.43.192 0 .405-.021.576-.107.17-.086.32-.237.512-.301.128-.086.107-.323-.085-.345zm5.357 1.333a1.402 1.402 0 01-.555-.301c-.235-.194-.256-.495-.363-.774-.021-.043-.042-.065-.085-.065h-.085c-.107 0-.107.13-.022.15h.022c.02.237 0 .474.064.689-1.345.86-2.646 1.785-4.204 2.236-.875.259-1.771.495-2.689.56-.683.043-1.408.387-2.049.064a2.3 2.3 0 00-.256-.903c-.042-.108-.213-.022-.17.086.213.623-.022 1.075-.342 1.591-.15.237.171.452.363.28.235-.215.363-.495.384-.796.939.645 2.774.15 3.734-.064 1.964-.43 4.012-1.27 5.463-2.689.192.194.427.345.726.345.256.043.32-.366.064-.41zm-4.545 2.903c-.192.237-.534.301-.833.387-.085.022-.064.172.022.15.363-.042.747-.064 1.024-.322.15-.129-.085-.365-.213-.215zm-12.719.538a.467.467 0 00-.149-.194c-.043-.043-.064-.086-.107-.129a.532.532 0 00-.405-.107c-.256.021-.555.15-.619.408a.163.163 0 00.192.194.235.235 0 000 .236c.043.043.064.086.107.13.192.171.49-.022.405-.259.022-.021.022-.043.043-.064l.064-.065a.567.567 0 00.128.108c.235.193.427-.086.341-.258zm23.324-6.516h-.192c.022-.022.043-.043.022-.086-.15-.366-.427-.172-.534.107-.128.323-.256.774-.192 1.14.021.129.15.172.256.15.214-.021.299-.215.278-.408 0-.086-.043-.172.021-.258.064-.086.192-.086.299-.065.15.022.277-.15.277-.28.043-.193-.085-.279-.235-.3zM6.423 25.742c-.427.301-.683.925-.875 1.398-.043.086.107.129.15.043l.32-.71c.128-.236.298-.451.426-.688.043-.021 0-.065-.021-.043zm.427.43c-.448.516-1.089 1.183-1.067 1.914 0 .108.15.108.17 0 .064-.71.577-1.29 1.003-1.806.064-.065-.042-.172-.106-.108zm.342.237c-.726.602-.875 1.634-1.174 2.473-.043.107.128.15.17.043.32-.817.428-1.807 1.132-2.409.064-.064-.043-.172-.128-.107zm.597.064a.075.075 0 00-.15 0c-.085.968-1.066 1.656-.917 2.688 0 .043.043.065.064.065-.256.495-.363 1.054-.47 1.591-.149.71-.362 1.42-.277 2.172 0 .108.17.108.17 0 .022-.73.15-1.398.3-2.107.128-.58.192-1.162.49-1.678.043-.064-.042-.129-.085-.107.021-.56.235-1.054.512-1.527.128-.387.342-.71.363-1.097z"/><path d="M8.258 26.817c0-.107-.17-.107-.17 0 0 .43-.3.774-.512 1.14-.086.172-.15.366-.214.538-.064.215-.213.537-.17.795-.022 0-.022.022-.022.043-.619 1.484-.576 3.119-.939 4.667-.021.13.17.194.214.065.362-1.506.298-3.076.853-4.517 0 0 0 .022.021.022.064.064.171-.022.128-.108-.17-.344.129-.924.257-1.247.149-.495.554-.882.554-1.398zm.406.215c-.107.387-.363.71-.512 1.076a5.16 5.16 0 00-.32 1.376c0 .107.17.129.17.021.064-.473.15-.924.299-1.354.128-.388.384-.689.49-1.076.065-.107-.106-.15-.127-.043zm.491.538c-.598.623-.747 1.677-.726 2.494 0 .108.17.108.17 0 0-.774.086-1.784.662-2.387.064-.064-.042-.172-.106-.107zm.448.473c-.214.344-.342.71-.448 1.097-.129.408-.32.817-.257 1.269.022.107.15.107.171 0 0-.387.107-.732.214-1.097.128-.409.234-.817.469-1.183.043-.086-.107-.172-.15-.086zm.704.172c0-.086-.15-.086-.128 0 0 .409-.214.839-.363 1.204a2.657 2.657 0 00-.213.99c0 .107.17.107.17 0 .043-.753.576-1.463.534-2.194zm.491 1.097c-.406.064-.512.796-.512 1.097 0 .086.149.086.149 0 0-.258.085-.925.405-.99.086 0 .043-.129-.042-.107zm.256 1.613c-.022-.022-.043-.065-.064-.086-.043-.043-.129.021-.086.064 0 .022.021.022.021.043-.042.022-.02.108.022.108.043 0 .064 0 .085-.022.043-.021.043-.064.022-.107zm-4.567-2.258c-.043.516-.299.989-.405 1.505-.128.516-.214 1.01-.406 1.505-.021.087.107.13.128.065.214-.495.32-.99.427-1.527.107-.516.341-1.01.384-1.548 0-.086-.107-.065-.128 0z"/><path d="M7.66 29.72c0-.086-.148-.086-.148 0 .02.86-.32 1.764-.491 2.624-.15.774-.256 1.591-.214 2.387 0 .108.171.13.192 0a17.17 17.17 0 01.3-2.753c.149-.752.405-1.505.362-2.258zm-.383 6.044c0-.022-.021-.022-.021-.022.042 0 .085-.021.085-.086.043-1.806.768-3.527.661-5.333 0-.086-.128-.086-.128 0 .064 1.828-.81 3.526-.725 5.333 0 .065.043.086.085.086-.021 0-.021.022-.021.022-.021.71.064 1.397.085 2.085.043.753.064 1.484.235 2.216.021.064.128.043.107-.022-.15-.731-.192-1.44-.235-2.194-.043-.688-.128-1.397-.128-2.085zm1.387-5.377c-.128.796-.342 1.57-.427 2.366-.128 1.032-.299 2.064-.384 3.118 0 .107.15.129.17.021.129-.903.235-1.806.364-2.71.064-.494.106-.988.17-1.462.064-.43.214-.838.278-1.268 0-.13-.15-.172-.171-.065zm2.006 15.57c-.363-.925-.64-1.892-1.046-2.796 0-.021-.021-.021-.021-.021-.064-.344-.17-.688-.256-1.032-.17-.753-.235-1.527-.342-2.28-.17-1.312-.256-2.624-.384-3.957.064 0 .107-.022.107-.086 0-1.548.213-3.226.555-4.731.021-.108-.128-.13-.15-.043-.192.796-.277 1.613-.384 2.43-.106.71-.213 1.44-.213 2.172-.043-.022-.107 0-.107.064.128 1.377.214 2.775.384 4.151.086.645.171 1.269.256 1.914.086.624.278 1.226.384 1.85.022.086.129.086.15.02.299.818.512 1.657.896 2.431.064.065.192 0 .17-.086z"/><path d="M11.716 47.01c-.235-.687-.513-1.376-.769-2.064a18.63 18.63 0 01-.341-1.01c-.107-.345-.32-.71-.405-1.076v-.043c0-.021 0-.043-.022-.064v-.022c-.277-1.118-.427-2.236-.533-3.376-.107-1.097-.342-2.194-.384-3.29.02-.022.02-.043.02-.065 0-.968.236-1.914.321-2.882.021-.344.213-.903 0-1.226-.064-.085-.192 0-.128.087.213.3-.021.989-.064 1.354-.085.904-.32 1.764-.299 2.689 0 .021.022.043.043.064.021 1.161.256 2.344.341 3.505.107 1.119.171 2.258.534 3.312 0 .022.021.043.043.043.085.56.405 1.119.554 1.656.256.839.598 1.656.896 2.473.065.065.214.022.193-.064z"/><path d="M10.05 32.495c0 1.053-.255 2.086-.234 3.14 0 .107.17.129.192 0 .022-1.054.235-2.087.214-3.14-.022-.108-.171-.108-.171 0zm.555.945c0 .582-.106 1.14-.234 1.721-.021.13.17.172.192.043.128-.58.235-1.161.235-1.763 0-.13-.193-.13-.193 0zm.855 1.786l-.108-.108c-.063-.064-.17.043-.106.108l.106.107c.064.086.171-.021.107-.107zm-3.564 3.527a29.458 29.458 0 01-.128-1.936c-.022-.494.106-1.053-.043-1.505 0-.022-.043-.043-.064-.022-.021.043-.064.065-.085.108-.022.021.021.064.042.043.022-.022.043.731.043.731v.86c.021.58.064 1.162.107 1.72.106 1.248.298 2.495.448 3.743 0 .086.15.107.15 0-.065-1.248-.32-2.495-.47-3.742zm.682.473c-.085-.645-.128-1.29-.192-1.957-.043-.58-.17-1.183-.15-1.764 0-.086-.149-.086-.149 0-.021.517.064 1.033.107 1.549.043.645.107 1.29.17 1.957.129 1.312.32 2.623.406 3.935 0 .13.192.13.192 0-.042-1.247-.234-2.473-.384-3.72z"/><path d="M12.974 49.183c-.512-1.205-.853-2.495-1.238-3.742-.234-.753-.426-1.57-.725-2.323.085.065.17-.043.107-.107-.384-.43-.406-1.312-.513-1.85-.128-.71-.255-1.44-.362-2.15-.192-1.248-.128-2.688-.62-3.871-.042-.086-.17-.022-.127.064.277.667.32 1.441.384 2.13.085.709.15 1.44.256 2.15.107.731.235 1.44.363 2.15.042.237.064.517.128.775-.064-.022-.15.043-.107.107.576 1.01.811 2.258 1.152 3.355.342 1.14.64 2.301 1.153 3.376.043.13.192.043.15-.064z"/><path d="M11.48 41.764a40.002 40.002 0 01-.64-3.183c-.15-.947-.192-1.957-.512-2.86-.043-.086-.17-.043-.15.043.3.903.342 1.935.491 2.881.171 1.054.3 2.15.662 3.161.021.108.17.065.15-.042zm.684.128c-.278-.989-.449-2-.598-3.032-.17-1.118-.47-2.215-.555-3.355 0-.086-.15-.086-.15 0 .086 1.076.364 2.13.513 3.183.17 1.075.256 2.194.619 3.226.043.108.192.086.17-.022zm.682-.709c-.363-1.549-.619-3.14-1.152-4.645-.021-.086-.17-.043-.15.043.534 1.505.769 3.096 1.153 4.645.021.107.192.064.15-.043zm.576-1.506c-.128-.666-.17-1.376-.469-2-.043-.086-.17-.021-.128.087.299.602.299 1.311.47 1.956.02.087.149.065.127-.043zm.577 10.215c-.534-1.075-.811-2.215-1.152-3.354-.171-.56-.363-1.119-.555-1.7-.214-.623-.512-1.333-.598-1.978 0-.107-.17-.107-.15 0 .043.538.278 1.075.449 1.613.213.71.448 1.42.683 2.13.363 1.16.619 2.322 1.195 3.397.043.065.192-.022.128-.108zm.469-.559c-.448-1.161-.768-2.365-1.13-3.548-.193-.624-.385-1.269-.598-1.892-.17-.538-.448-1.076-.576-1.635-.022-.086-.15-.043-.128.043.128.56.384 1.097.554 1.634.214.624.385 1.27.577 1.893.341 1.161.597 2.495 1.152 3.57.043.064.192.021.15-.065zm.47-.365c-.448-1.355-.811-2.731-1.217-4.086-.298-.968-.469-2.108-1.11-2.925-.063-.086-.191.043-.127.129.64.817.81 2.065 1.11 3.054.383 1.29.66 2.623 1.194 3.87.022.108.171.065.15-.042zm.342-1.377c-.364-1.785-.897-3.57-1.857-5.118-.043-.064-.171 0-.107.065.96 1.57 1.387 3.333 1.835 5.096 0 .086.15.043.128-.043zm.554-.709c-.32-.86-.555-1.764-.854-2.645-.213-.646-.448-1.29-.896-1.807-.064-.064-.17.043-.107.108 1.024 1.16 1.11 3.01 1.729 4.387.042.086.17.043.128-.043zm.363-1.291c-.384-.86-.64-1.763-1.153-2.559-.042-.086-.17 0-.128.065.512.795.768 1.699 1.153 2.559.021.108.17.021.128-.065zm.533-1.462c0-.021-.021-.043-.043-.043a.342.342 0 00-.192.065c-.128.064-.234.064-.256-.087-.021-.15-.043-.279-.192-.322-.043-.022-.085.065-.043.086.171.086.086.301.214.43.15.15.299-.021.448-.064 0 .021 0 .043.021.064.022.065.107.043.086-.021-.043-.043-.043-.087-.043-.108zm-.79 8.215c-.277-.215-.49-.559-.682-.839-.32-.516-.64-1.053-1.067-1.483-.043-.065-.128.021-.086.086.384.473.683.989 1.003 1.484.128.193.235.365.384.559.128.15.342.322.449.494.042.065.128.022.106-.043 0-.107-.021-.193-.106-.258zm.811.43c-.448-.43-.704-.968-1.024-1.484-.341-.559-.683-1.118-1.067-1.613-.021-.043-.085.022-.064.043.363.603.747 1.183 1.088 1.785.3.495.513 1.011.96 1.377.065.043.171-.043.107-.108zm.811 0c-.47-.494-.81-1.075-1.173-1.656-.406-.645-.94-1.183-1.345-1.806-.042-.065-.17 0-.128.064.406.646.918 1.183 1.323 1.828.384.58.683 1.226 1.217 1.678.064.064.17-.043.106-.108zm.683-.236c-.875-1.119-1.515-2.366-2.54-3.377-.063-.064-.191.043-.106.108a13.29 13.29 0 011.473 1.806c.362.516.64 1.097 1.067 1.549.064.107.17 0 .106-.086zm.342-.818c-.534-.516-.982-1.096-1.409-1.698-.17-.258-.341-.538-.512-.796-.107-.15-.192-.323-.299-.473-.042-.043-.064-.108-.106-.15-.022-.108-.064-.151-.128-.151.021-.022.021-.043 0-.065-.022-.021-.043-.064-.064-.086-.043-.043-.107.022-.086.065.768 1.204 1.409 2.516 2.497 3.483.085.065.192-.042.107-.128zm.128-.666c-.598-1.097-1.6-1.914-2.177-3.032-.042-.108-.192-.022-.15.086.577 1.118 1.495 1.978 2.199 3.01.064.086.192.022.128-.064zm.575-.581c-.255-.344-.447-.71-.704-1.032-.298-.387-.64-.753-.896-1.183-.043-.086-.192 0-.128.086.213.344.47.667.726.968.32.387.576.86.896 1.247.043.065.17-.021.107-.086zm.236-.559c-.235-.58-.683-1.01-1.025-1.527-.064-.086-.213 0-.149.086.341.516.747.968 1.046 1.505.042.065.17 0 .128-.064zm.213-.839a5.335 5.335 0 00-.342-.365c-.064-.065-.17.043-.106.107.106.108.235.237.363.344.064.043.128-.021.085-.086zm-1.259 4.28c-.256-.258-.427-.56-.683-.817-.085-.086-.192.043-.128.129.256.258.427.602.726.817.064.043.128-.065.085-.13zm.704-.215c-.17-.301-.448-.56-.597-.882-.086-.172-.15-.387-.363-.43-.085-.022-.107.107-.043.129.214.043.278.366.363.538.15.258.341.473.512.71.043.085.17.02.128-.065zm-.49-1.527c-.064-.065-.15.021-.086.086.299.344.768.753.79 1.226 0 .086.128.086.128 0 0-.516-.512-.925-.832-1.312zm1.92 1.849c-.32-.021-.512-.537-.64-.774-.235-.408-.491-.839-.811-1.183-.064-.064-.15.022-.086.086.342.43.62.904.875 1.398.128.258.32.624.662.602.085 0 .085-.129 0-.129zm.384-.215c-.278-.322-.406-.73-.64-1.075-.257-.365-.598-.667-.875-1.01-.022-.044-.107.02-.064.042.277.387.618.71.896 1.119.213.322.32.71.597.989.064.086.15 0 .086-.065zm.811-.107c-.49-.645-1.195-1.205-1.536-1.936-.107-.236-.256-.73-.576-.73-.065 0-.065.107 0 .107.256 0 .576.881.725 1.096.384.56.854 1.054 1.302 1.57.064.043.149-.043.085-.107zm.704-.366c-.854-.731-1.345-1.742-2.07-2.559-.064-.064-.17.043-.107.108.726.838 1.195 1.892 2.091 2.559.064.064.15-.043.086-.108zm.704-.236c-.982-.796-1.43-2-2.305-2.904-.085-.086-.192.044-.128.13.854.903 1.26 2.214 2.326 2.903.085.043.17-.065.107-.13zm.448-.56c-.256-.386-.618-.666-.874-1.032-.257-.344-.47-.73-.726-1.075-.064-.086-.192.043-.128.13.299.365.512.773.79 1.16.256.344.576.602.832.925.064.043.17-.043.106-.108zm1.067-2.344c-.042-.043-.064-.107-.106-.15a.638.638 0 01.17-.086c.043-.022 0-.086-.042-.065-.064.022-.107.065-.17.086-.15-.258-.3-.494-.598-.602-.086-.021-.128.108-.043.13.256.107.384.322.512.537l-.64.387c-.128-.15-.256-.323-.384-.473-.064-.086-.192.043-.107.107.128.13.235.28.341.43a3.27 3.27 0 01-.405.172c-.107-.215-.213-.43-.384-.623-.085-.086-.192.043-.128.129.15.15.256.344.341.538a1.234 1.234 0 01-.405.064c-.043 0-.043.065 0 .065.15 0 .299-.043.427-.065.085.172.17.323.298.473.278.366.598.71.96 1.01.086.065.171-.042.107-.107-.341-.387-.704-.71-1.003-1.14-.064-.085-.128-.193-.192-.3.15-.044.278-.108.427-.173.32.43.619.882 1.003 1.248.064.064.17-.043.107-.108-.32-.408-.619-.817-.96-1.226.213-.107.426-.258.618-.365a.392.392 0 00.107.15c.192.28.405.581.448.925.021.086.128.086.128 0 .022-.344-.235-.688-.427-.968zm.108-.795c-.065-.086-.193 0-.15.086.277.408.47.839.704 1.269.043.064.15.021.128-.043-.15-.474-.427-.904-.683-1.312zm.788.236c-.128-.172-.192-.344-.341-.494-.085-.065-.192.043-.107.107.15.13.214.323.363.452.043.064.128 0 .085-.065zm.257-.774v.108c0 .021.042.021.042 0V48.3c.022-.043-.042-.043-.042 0zm.682-.925c0-.107-.149-.107-.17 0 0 .15-.021.301-.021.474 0 .128.213.128.213 0 0-.173 0-.323-.021-.474zM11.566 29.892c-.15-.128-.15-.365-.214-.537-.042-.086-.17-.043-.128.043.086.193.064.473.235.623.064.043.17-.064.107-.129zm12.953-.989c-.213.58-.47 1.162-.726 1.742-.213.495-.597.86-.853 1.334-.278.494-.427.967-.79 1.419-.341.43-.64.882-.917 1.355-.598 1.01-1.515 1.935-2.284 2.838a31.789 31.789 0 01-2.518 2.581c-.042.043.022.086.043.043a35.344 35.344 0 002.667-2.71c.747-.86 1.6-1.699 2.177-2.688.299-.537.662-1.032 1.024-1.527.342-.43.47-.946.747-1.419.235-.43.555-.731.747-1.183.235-.58.49-1.161.704-1.763.022-.043-.021-.043-.021-.022zm1.601 1.828c-.129.15-.15.301-.171.495-.064.451-.214.882-.363 1.333-.32.968-.619 1.957-.982 2.925-.384.99-.79 1.957-1.216 2.925-.363.817-.683 1.634-1.302 2.322-.021.022.022.065.043.043.534-.58.875-1.29 1.174-2 .363-.817.747-1.613 1.067-2.43.384-.968.725-1.935 1.045-2.925.15-.451.278-.903.427-1.376.107-.344.107-1.01.32-1.269.043-.021 0-.064-.043-.043zm-5.122 11.527c.213.022.213 0 0 0zm6.872-3.505c-.556.602-1.025 1.247-1.58 1.85a45.126 45.126 0 01-1.771 1.741c-.043.043.021.086.064.065.619-.56 1.216-1.14 1.793-1.72.576-.603 1.024-1.227 1.536-1.893 0-.022-.043-.065-.043-.043zm-.385 4.623a19.51 19.51 0 01-3.563 2.796c-.043.022 0 .108.042.086 1.323-.774 2.54-1.677 3.585-2.796.064-.043 0-.129-.064-.086zm-4.353-14.602c-.363.344-.704.688-1.11.968-.384.28-.832.451-1.259.645-.981.43-1.984.688-3.03.925-1.024.236-2.027.408-3.073.344-1.045-.043-2.09-.022-3.158-.022-.064 0-.064.108 0 .108 1.046 0 2.091-.022 3.158.043 1.046.064 2.07-.13 3.095-.344 1.067-.237 2.07-.516 3.051-.946.96-.43 1.643-.904 2.347-1.678.043-.043 0-.064-.021-.043zm1.259-3.505c-1.195 1.097-2.625 1.763-4.161 2.236-1.75.56-3.521.86-5.378.904-.042 0-.042.064 0 .064 1.857.022 3.628-.28 5.4-.817 1.557-.473 3.008-1.183 4.203-2.301.043-.065-.021-.13-.064-.086zm-.448-1.721l-.235.237c-.021.021 0 .043.021.021l.235-.236c.021-.022 0-.043-.021-.022zm-17.136-.021c-.042-.022-.085.021-.042.043.32.28-.15.731.085 1.054.043.064.128 0 .107-.065-.214-.3.213-.753-.15-1.032zm.619.387c-.042.344-.128.688-.128 1.054 0 .086.128.086.128 0 0-.344.064-.688.107-1.054 0-.065-.107-.065-.107 0zm.427.538a.047.047 0 00-.064.064c.15.15.085.366.085.56 0 .064.107.064.107 0 0-.216.064-.474-.128-.624zm.811.623c0-.043-.064-.043-.064 0 0 .15-.022.301 0 .473 0 .043.085.043.085 0 0-.172-.021-.322-.021-.473zm1.494.861c-.086-.044-.15-.065-.235-.108-.064-.021-.128.064-.064.108.085.043.15.085.235.128.085.022.15-.085.064-.128zM13.422 3.57c-.02-.108-.17-.065-.149.043.043.28.213.516.256.817.043.344-.341.645-.576.86l-.704.581c-.214.194-.854.753-.448 1.032.064.043.128-.064.064-.107-.342-.258 1.003-1.248 1.173-1.398.256-.215.491-.452.598-.774.15-.387-.15-.753-.213-1.054z"/><path d="M14.447 3.957c.106-.495.064-.903-.384-.903-.065 0-.065.107 0 .107.32.022.362.301.277.71a1.003 1.003 0 00-.405-.13c-.086 0-.086.13 0 .151.17.022.277.065.362.151 0 .022 0 .022-.021.043a.499.499 0 00-.213-.108c-.086-.021-.129.108-.043.13.085.021.15.064.213.107-.213.645-.619 1.376-.704 1.527-.043.086.085.15.128.086.085-.15.448-.774.662-1.398.042.409-.342 1.054-.47 1.226-.299.387-.725.688-1.11 1.01-.064.065.022.173.086.13.555-.409 1.195-.882 1.472-1.549.107-.236.214-.71.086-1.01 0-.022.02-.043.02-.043.236.451-.127 1.354-.298 1.741-.256.56-.64 1.076-1.13 1.441-.086.065.042.194.127.13.79-.603 1.28-1.506 1.473-2.495.064-.43.064-.817-.128-1.054zm-4.78.021c-.555-.064-.747.84-.833 1.226-.128.516-.192.99-.149 1.527.021.495.341.882.576 1.29.064.087.192 0 .128-.086-.234-.387-.512-.752-.555-1.225-.064-.452 0-.925.107-1.377.085-.365.235-1.311.726-1.268.085.043.064-.065 0-.087zm-.875 4.538c-.555-.3-.917-.71-1.088-1.333-.128-.473-.17-1.183.17-1.57.065-.065-.042-.172-.106-.108-.406.409-.342 1.076-.256 1.613.106.71.555 1.248 1.195 1.527.085.043.17-.086.085-.129z"/><path d="M8.216 8.731c-.47-.215-.79-.537-1.024-1.01-.214-.41-.406-1.054-.107-1.441.064-.065-.064-.172-.128-.108-.32.409-.17.968-.021 1.42.213.602.618 1.01 1.173 1.268.107.065.192-.086.107-.129zm-1.024.709c-.363-.45-1.324-1.375-.811-1.956.064-.086-.043-.194-.128-.13-.62.71.384 1.678.81 2.216.086.086.193-.043.129-.13zm6.209 16.861c-.149-.15-.106-.344-.106-.537 0-.065-.107-.065-.107 0 0 .215-.064.473.128.623.064.043.15-.021.085-.086zm.896-.129c-.106-.043-.128-.129-.192-.193-.042-.065-.149 0-.106.064.085.108.128.215.277.258.064.022.085-.107.021-.129z"/></g><defs><clipPath id="clip0"><path fill="#fff" d="M0 0h29v54H0z"/></clipPath></defs></svg>