<svg width="50" height="93" fill="none" xmlns="http://www.w3.org/2000/svg"><g clip-path="url(#clip0)" fill="#204686"><path d="M49.77 71.889c-.216-2.074.073-4.185 0-6.296-.035-2.37-.648-4.778-.865-7.186-.396-4.11-1.334-7.963-1.983-12.037-.324-1.926-1.081-3.296-1.838-5.037-.614-1.37-1.19-2.407-2.02-3.407-.072-.148-.108-.296-.18-.445a.112.112 0 00-.216 0 1.602 1.602 0 01-.217-.259 18.9 18.9 0 00.974-2.852c.36-1.333 1.118-3.333.757-4.888.901 0 1.875-.482 2.524-1 1.298-1.038.793-3.149.469-4.556-.325-1.26-1.947-2.26-3.173-2.037-.83.148-1.73.555-2.164 1.222-1.19-1.704-1.802-3.852-3.317-5.296-1.947-1.852-3.57-4.037-5.985-5.334-2.091-1.11-3.75-1.814-6.094-2.074a11.541 11.541 0 00-2.523-.037c.108-.11.216-.185.324-.296.289-.222-.072-.704-.36-.518a3.829 3.829 0 00-.83.888c-.18.037-.396.037-.577.074v-.074c0-.11-.036-.259-.036-.37.036-.074.036-.148.072-.185.217-.445.613-.815.866-1.26.252-.407-.36-.74-.613-.37l-.325.445c.036-.408.145-.815.289-1.223.072-.074.144-.11.216-.148.108-.074.072-.185 0-.222.433-.481.83-.963 1.154-1.518.613-1.075.83-2.815.324-4C23.703 0 22.765-.185 21.178-.148c-.216 0-.216.333 0 .333 3.75 0 3.065 4 1.55 5.852-.829 1-1.874 1.815-2.776 2.74-.72.741-1.262 1.63-1.442 2.556a7.972 7.972 0 00-.865.297c.144-.63.577-1.223 1.118-2 .649-1 1.442-1.704 2.343-2.445 1.262-1.037 1.911-2.333 2.02-3.963.18-2.852-2.885-3.63-4.22-1.333-.107.222.181.37.325.185.505.037 1.01.074 1.515.148-.144 1.556-.793 2.852-2.488 3.037-.577.074-1.046.148-1.623.334-.72.296-1.262.925-1.694 1.555-.541.815-.541 1.63-.397 2.445l-.036.037c-.721 1.037-.577 2.444-.252 3.63-.217.11-.433.222-.65.333-.216-.482-.107-1.111-.107-1.63 0-.407-.577-.407-.577 0 0 .556-.072 1.074.072 1.593.036.11.072.222.108.296-.289.148-.577.333-.866.481a1.718 1.718 0 01-.108-.592c-.036-.334-.54-.334-.54 0 .036.296.072.592.18.889-1.983 1.333-3.822 3.407-4.904 5.555-1.154 2.556-2.163 5-2.416 7.593-.108 1.148.073 2.333.289 3.481.108.63.216 1.222.36 1.852 0 .074.036.148.073.222-.613-.481-1.443-.703-2.164-.296C1.6 33.777.735 35 1.023 36.667c.289 1.814 1.262 2.703 2.885 3.296 1.045.407 2.235-.704 2.812-1.74.324 1.296 1.19 2.777 1.875 3.629.54.667 1.118 1.333 1.73 1.926-.72 1.778-.54 3.703-.468 5.592.036.963-.289 2.111-.289 3.111 0 1.26.325 2.519.577 3.704.541 2.37.469 4.667 1.334 6.963.47 1.26.47 2.667.758 3.963.288 1.37.793 2.704 1.261 4 .794 2.185 1.875 4.296 2.921 6.37.505 1.038 1.19 1.89 1.983 2.741 1.082 1.148 1.623 2.445 2.452 3.74 2.308 3.445 5.336 7.408 9.555 8.15.18.036.36-.038.468-.15 1.046.371 2.344.482 3.246.742 2.451.592 4.867.222 7.175-.667 2.127-.815 3.389-1.889 4.759-3.778 1.118-1.518 2.488-3.963 2.74-5.852v-.037c1.118-3.37 1.37-6.926.974-10.481zm-2.992-20.185c.433 2.481.83 4.963 1.046 7.518.18 1.926.54 3.778.72 5.704.037.407.073.778.073 1.185-.072.037-.144.111-.144.185-.289 1.445-1.226 2.667-2.128 3.778-.865 1.074-1.874 2.445-3.172 2.963.108-.296.216-.593.288-.889 1.478-4.555 2.416-9.333 2.92-14.111.289-2.074.397-4.222.397-6.333zm1.803 19.518c0 .704.036 1.445.072 2.148-.865 1.89-2.668 3.667-4.038 4.963a12.764 12.764 0 01-5.337 2.963c1.587-2.444 2.813-5 3.822-7.74 1.515-.112 2.596-1.334 3.642-2.482.613-.667 1.406-1.593 1.947-2.555-.108.888-.144 1.777-.108 2.703zm-5.589-32.037c0 .037 0 .074.036.148-.577 2.334-2.884 3.926-4.687 5.26-1.983 1.481-4.507 2.185-6.85 2.777-2.597.667-5.337.89-8.077.704 1.694-.111 3.39-.333 4.903-.667 4.507-.963 8.906-3.481 12.08-6.851.756-.815 1.37-1.778 1.874-2.778.252.444.469.926.721 1.407zM20.746 9.555c-.289.482-.505 1-.577 1.519l-.433.111c.252-.592.613-1.111 1.01-1.63zm1.081-.925a6.48 6.48 0 00-.072 1.444 4.035 4.035 0 00-.144.704c-.288.037-.577.11-.865.185.144-.815.577-1.667 1.081-2.333zm-2.019-3c.974-.89 1.37-1.89 1.479-3.186.288.037.613.037.9.074a3.3 3.3 0 01-.071 1.778c-.253 1.148-1.19 1.89-2.055 2.556-1.046.815-1.731 1.74-2.596 2.704a3.515 3.515 0 00-.541.74c.144-.592.36-1.222.685-1.852.54-1.037 1.478-1.666 1.947-2.666.072-.037.144-.074.252-.148zm-3.533 1.518c.72-.889 1.839-.778 2.74-1.111-.54.74-1.37 1.333-1.947 2.037-.397.519-.649 1.148-.865 1.778-.217.555-.289 1.11-.289 1.666-.288-1.444-.757-2.962.36-4.37zm-1.515 3.445c.253.74.577 1.518.722 2.222-.217.11-.433.222-.65.333-.18-.815-.324-1.74-.072-2.555zm-4.579 31.333c-1.117-1.148-2.884-3.148-3.209-4.815 0-.074-.036-.111-.108-.148-.216-.26-.649-.37-.901-.074-.397.444-.685.963-1.082 1.407-.793.89-2.163-.11-2.56-.889-.469-.888-.54-2.148.18-2.888.866-.926 2.164-1.112 2.993-.075v.075c-.036.148.108.222.216.185.145.11.397 0 .325-.185-.036-.075-.036-.112-.072-.186.288-.777-.144-1.963-.253-2.666-.468-3.297.109-5.963 1.479-8.963 1.081-2.445 2.415-4.186 4.326-6.037.758-.704 1.515-1.074 2.344-1.482.144.074.36-.037.36-.185.145-.074.325-.148.47-.222.288-.148.576-.296.829-.445a2.176 2.176 0 01-.47.963c-.107.111.073.297.181.186.469-.445.721-.926.83-1.445.108-.074.216-.111.324-.185.108.296.252.63.397.889.216.444.865.037.649-.37-.037-.038-.037-.112-.072-.149.36.111.72-.296.54-.704-.072-.11-.108-.259-.144-.37.253-.111.505-.222.757-.296.072.37.18.74.397 1.11.216.408.865.15.757-.332a4.363 4.363 0 01-.144-1.149c.252-.074.468-.148.72-.222.11.445.398.815.83 1.111.253.186.577-.222.325-.444a1.783 1.783 0 01-.577-.815l1.081-.222c.109.037.253 0 .361-.074 1.262-.222 2.524-.26 3.678-.111 1.154.148 2.307.296 3.461.592 1.046.26 2.163 1.148 3.1 1.667 1.083.556 1.948 1.519 2.85 2.333 1.045.89 2.199 1.963 2.884 3.186.937 1.63 1.839 3.444 2.956 4.925.18.26.433.26.65.186.108 0 .18-.075.216-.186a.9.9 0 00.18-.518c.469-.74 1.73-1 2.452-.889 1.118.185 1.442 1.482 1.586 2.407.144.963.108 1.852-.757 2.37-.649.408-1.37.297-2.091.334a.626.626 0 00-.577.704c-.108.185-.108.37 0 .592.721 1.297-.54 3.89-.865 5.223-.613 2.296-1.803 4.11-3.426 5.74-2.884 2.963-6.814 4.334-10.6 5.63-3.786 1.26-8.617.778-12.367-.333-2.164-.556-3.894-2.111-5.409-3.741zm.577 2.26c.938.888 1.947 1.666 3.137 2.258 1.695.852 3.642 1.334 5.625 1.556.18.037.36.111.54.148 1.37.296 2.777.482 4.183.556 2.993.148 5.841-.111 8.762-.89 2.74-.74 4.975-1.888 7.247-3.555 1.118-.852 2.38-2.037 3.029-3.444.144 1.037.216 2.074.036 3.259-.108.778-.397 1.593-.721 2.407-.072 0-.145.038-.217.075-4.074 3.925-9.518 5.407-14.855 6.518-5.552 1.148-12.006-.185-16.694-3.481.036-.926-.144-1.89-.18-2.778-.072-.89.036-1.778.108-2.63zm.757 13.073c-.468-2.518-1.045-4.666-.72-7.259 4.506 4.037 11.14 4.815 16.873 4.037 2.885-.407 5.842-1.37 8.582-2.333 1.839-.667 3.894-1.778 5.408-3.26-.288.556-.577 1.111-.83 1.63-.396.852-.864 1.667-1.333 2.482-.036-.149-.18-.223-.325-.112-1.767 1.445-3.425 2.926-5.372 4.111-2.091 1.26-4.904 2.37-7.211 3.186-4.363 1.481-10.6 3.407-14.675.185-.036-.037-.036-.037-.072 0-.072-.926-.144-1.778-.325-2.667zm5.012 17.815a53.91 53.91 0 01-2.127-4.963c-.83-2.185-1.154-4.37-1.623-6.667-.252-1.148-.865-2.037-.937-3.259v-.037c3.605 3.593 9.41 2.296 13.665 1 5.192-1.555 10.312-3.852 13.774-8.222-1.66 2.815-3.642 5.407-5.733 7.963-2.524 3.074-5.517 5.778-8.365 8.555-1.479 1.445-3.534 2.63-5.265 3.778-1.01.63-2.524.963-3.389 1.852.036-.037 0-.037 0 0zm4.651 7.037c-1.01-1.963-2.668-3.333-3.713-5.26-.18-.332-.325-.666-.505-1a.325.325 0 00.288-.147c.325-.297 1.118-.556 1.515-.741.973-.481 1.874-.963 2.776-1.593 1.659-1.148 3.425-2.185 4.903-3.592 3.246-3.111 6.382-6.223 9.195-9.741a51.425 51.425 0 006.922-11.407c.758-1.741 1.515-3.297 1.731-5.186.036-.407.072-.777.036-1.185.217 1.667.325 4 .325 4.334-.072 2.333-.65 4.63-1.262 6.888-1.226 4.519-2.632 9-4.58 13.26-3.425 7.555-8.797 14.074-14.458 20a20.242 20.242 0 01-3.173-4.63zm8.834 8.63c-.072 0-.108.037-.144.074-1.767-.667-3.39-1.815-4.832-3.26C31.274 81 36.935 73.816 40.432 65.296c1.911-4.592 3.317-9.481 4.29-14.37a24.06 24.06 0 00.434-6.445c0-.185-.036-.37-.036-.592.324.889.576 1.815.757 2.778.036.148.036.296.072.444.072.63.144 1.296.18 1.926.108 2.26 0 4.482-.18 6.704-.397 4.74-1.298 9.407-2.632 13.963-1.226 4.222-2.885 8.259-5.445 11.815-1.406 1.925-2.92 3.814-4.435 5.666-.504.63-1.01 1.26-1.55 1.815-.216.407-1.478 1.63-1.875 1.74zm15.252-3.704c-1.118 2.037-2.92 3.074-4.94 3.889-2.163.852-4.363.852-6.634.518-.721-.11-1.767 0-2.668-.074 0 0 0-.037-.036-.037.937-.555 1.766-1.555 2.38-2.296.36-.444.72-.852 1.081-1.296 1.154.889 4.795.592 5.48.444 1.731-.333 3.534-1.26 5.048-2.185.721-.407 1.262-.963 1.731-1.556-.433.89-.938 1.741-1.442 2.593zm3.389-10.333c-.108 1.778-.505 3.407-.974 5.074-.685.703-1.19 1.592-1.91 2.259-1.082 1-2.2 1.63-3.498 2.222-1.406.63-2.56 1-4.11 1.111-.397.037-2.344.037-3.317-.185l2.92-3.778a26.19 26.19 0 001.154-1.63c2.019.038 4.146-1.184 5.66-2.444 1.118-.926 2.164-1.889 2.993-3.11l1.082-1.668c.072.704.036 1.408 0 2.149z"/><path d="M26.515 9.333c-.145.111-.289.148-.433.111-.18 0-.288.149-.288.297 0 .185.144.296.288.296.36.037.613-.111.83-.37.107-.186-.217-.482-.397-.334zm-9.231 19.889c-.613-.74-1.622-1.148-2.524-.74-1.01.444-1.01 1.592-.324 2.333.18.185.36.296.576.407.361.222.866.296 1.299.185.973-.222 1.694-1.296.973-2.185zm15.288-4c.072-.704-.325-1.407-1.082-1.555-.216-.037-.397-.037-.577.037a.682.682 0 00-.36.11c-.037 0-.109 0-.145.038l-.072.074c-.54.407-.757 1.26-.469 1.852.145.296.361.518.613.666.721.704 1.875.297 2.056-.703.036-.186.036-.334.036-.519zm-7.103 2.667c-.289-.037-.541.11-.793.222-.36.185-.685.26-1.082.296-.793.074-.54-.852-.18-1.222.324-.333.685-.296 1.117-.26.145 0 .18-.221.036-.258-.576-.149-.937-.223-1.442.148-.505.37-.757 1-.577 1.63.145.592.721.74 1.226.74.325 0 .685-.037.974-.185.288-.148.54-.407.865-.519.216-.148.18-.555-.144-.592zm9.05 2.296c-.325-.074-.685-.296-.938-.518-.397-.334-.433-.852-.613-1.334-.036-.074-.072-.11-.144-.11h-.144c-.18 0-.18.221-.036.258h.036c.036.408 0 .815.108 1.186-2.272 1.481-4.471 3.074-7.103 3.852-1.478.444-2.993.851-4.543.962-1.154.075-2.38.667-3.462.111a4.02 4.02 0 00-.432-1.555c-.072-.185-.36-.037-.289.148.36 1.074-.036 1.852-.576 2.74-.253.408.288.779.612.482.397-.37.613-.851.65-1.37 1.586 1.111 4.687.26 6.31-.111 3.316-.74 6.778-2.185 9.23-4.63.324.334.72.593 1.225.593.433.074.541-.63.109-.704zm-7.68 5c-.325.408-.902.519-1.406.667-.145.037-.108.296.036.26.613-.075 1.262-.112 1.73-.556.253-.223-.144-.63-.36-.37zm-21.489.926c-.072-.148-.145-.26-.253-.333-.072-.074-.108-.148-.18-.222a.887.887 0 00-.685-.186c-.433.037-.938.26-1.046.704-.036.222.145.37.325.333a.41.41 0 000 .408c.072.074.108.148.18.222.325.296.83-.037.685-.444.036-.038.036-.075.072-.112l.108-.11a.96.96 0 00.217.184c.396.334.72-.148.577-.444zm39.408-11.222h-.324c.036-.037.072-.074.036-.148-.252-.63-.721-.297-.901.185-.217.555-.433 1.333-.325 1.963.036.222.252.296.433.26.36-.038.505-.371.468-.705 0-.148-.072-.296.037-.444.108-.148.324-.148.504-.111.253.037.47-.26.47-.482.071-.333-.145-.481-.398-.518zM11.804 44.333c-.722.519-1.154 1.593-1.479 2.408-.072.148.18.222.253.074l.54-1.222c.217-.408.505-.778.722-1.186.072-.037 0-.11-.036-.074zm.72.741c-.757.889-1.838 2.037-1.802 3.296 0 .186.252.186.288 0 .108-1.222.973-2.222 1.695-3.11.108-.112-.072-.297-.18-.186zm.577.407c-1.225 1.038-1.478 2.815-1.983 4.26-.072.185.217.259.289.074.54-1.408.721-3.111 1.91-4.148.109-.111-.071-.297-.216-.186zm1.01.112a.127.127 0 00-.252 0c-.145 1.666-1.803 2.851-1.55 4.63 0 .073.072.11.107.11-.432.852-.612 1.815-.793 2.741-.252 1.222-.613 2.445-.468 3.74 0 .186.288.186.288 0 .036-1.258.252-2.407.505-3.629.216-1 .324-2 .83-2.889.071-.11-.073-.222-.145-.185.036-.963.397-1.815.865-2.63.216-.666.577-1.222.613-1.888z"/><path d="M14.904 46.185c0-.185-.288-.185-.288 0 0 .74-.505 1.334-.866 1.963-.144.296-.252.63-.36.926-.108.37-.36.926-.289 1.37-.036 0-.036.037-.036.075-1.045 2.555-.973 5.37-1.586 8.037-.036.222.288.333.36.11.613-2.592.505-5.296 1.443-7.777 0 0 0 .037.036.037.108.111.288-.037.216-.185-.288-.593.216-1.593.433-2.148.252-.852.937-1.519.937-2.408zm.686.371c-.181.666-.614 1.222-.866 1.851a9.032 9.032 0 00-.54 2.37c0 .186.288.223.288.038.108-.815.252-1.593.504-2.334.217-.666.65-1.185.83-1.851.108-.186-.18-.26-.217-.075zm.829.925c-1.01 1.075-1.262 2.89-1.226 4.297 0 .185.288.185.288 0 0-1.334.144-3.074 1.118-4.111.108-.111-.072-.297-.18-.186zm.757.815c-.36.593-.577 1.223-.757 1.89-.217.703-.541 1.407-.433 2.184.036.186.252.186.288 0 0-.666.18-1.259.36-1.889.217-.703.398-1.407.794-2.037.072-.148-.18-.296-.252-.148zm1.19.297c0-.149-.253-.149-.217 0 0 .703-.36 1.444-.613 2.074-.216.555-.36 1.11-.36 1.703 0 .186.288.186.288 0 .072-1.296.974-2.518.902-3.777zm.829 1.888c-.685.112-.865 1.37-.865 1.89 0 .148.252.148.252 0 0-.445.144-1.593.685-1.704.144 0 .072-.223-.072-.186zm.433 2.779c-.037-.038-.073-.112-.109-.149-.072-.074-.216.037-.144.111 0 .037.036.037.036.074-.072.037-.036.185.036.185s.108 0 .145-.037c.072-.037.072-.11.036-.185zm-7.716-3.89c-.072.89-.505 1.704-.685 2.593-.217.889-.36 1.74-.685 2.593-.036.148.18.222.216.11.36-.851.54-1.703.721-2.629.18-.889.577-1.74.65-2.667 0-.148-.181-.11-.217 0z"/><path d="M13.895 51.185c0-.148-.253-.148-.253 0 .036 1.482-.54 3.037-.829 4.519-.252 1.333-.433 2.74-.36 4.11 0 .186.288.223.324 0 .036-1.592.216-3.147.505-4.74.252-1.296.685-2.593.613-3.889zm-.649 10.408c0-.038-.036-.038-.036-.038.072 0 .144-.036.144-.148.072-3.11 1.298-6.074 1.118-9.185 0-.148-.217-.148-.217 0 .108 3.148-1.37 6.074-1.226 9.185 0 .112.073.149.145.149-.036 0-.036.037-.036.037-.036 1.222.108 2.407.144 3.592.072 1.296.108 2.556.396 3.815.036.111.217.074.18-.037-.252-1.26-.324-2.482-.396-3.778-.072-1.185-.216-2.407-.216-3.592zm2.344-9.26c-.217 1.37-.578 2.704-.722 4.074-.216 1.778-.505 3.556-.649 5.37 0 .186.253.223.289.038.216-1.556.396-3.111.613-4.667.108-.852.18-1.704.288-2.518.108-.741.36-1.445.469-2.186 0-.222-.253-.296-.289-.11zm3.389 26.815c-.613-1.593-1.082-3.26-1.767-4.815 0-.037-.036-.037-.036-.037-.108-.592-.288-1.185-.433-1.778-.288-1.296-.396-2.63-.577-3.925-.288-2.26-.432-4.519-.649-6.815.109 0 .18-.037.18-.148 0-2.667.361-5.556.938-8.149.036-.185-.216-.222-.252-.074-.325 1.37-.469 2.778-.65 4.186-.18 1.222-.36 2.481-.36 3.74-.072-.037-.18 0-.18.111.216 2.37.36 4.778.649 7.149.144 1.11.288 2.185.432 3.296.145 1.074.47 2.111.65 3.185.036.148.216.148.252.037.505 1.407.865 2.852 1.514 4.185.108.111.325 0 .289-.148z"/><path d="M20.745 80.963c-.396-1.185-.865-2.37-1.298-3.556a32.628 32.628 0 01-.576-1.74c-.18-.593-.541-1.222-.686-1.852v-.074c0-.037 0-.074-.036-.111v-.037c-.468-1.926-.72-3.852-.901-5.815-.18-1.89-.577-3.778-.65-5.667.037-.037.037-.074.037-.111 0-1.667.397-3.296.54-4.963.037-.593.361-1.556 0-2.111-.107-.148-.324 0-.216.148.361.519-.036 1.704-.108 2.333-.144 1.556-.54 3.037-.505 4.63 0 .037.037.074.073.111.036 2 .432 4.037.577 6.037.18 1.926.288 3.89.9 5.704 0 .037.037.074.073.074.144.963.685 1.926.938 2.852.432 1.444 1.01 2.852 1.514 4.26.108.11.36.036.324-.112z"/><path d="M17.933 55.963c0 1.815-.433 3.593-.397 5.407 0 .186.289.223.325 0 .036-1.814.396-3.592.36-5.407-.036-.185-.288-.185-.288 0zm.937 1.63c0 1-.18 1.962-.396 2.962-.036.223.288.297.325.075.216-1 .396-2 .396-3.037 0-.223-.324-.223-.324 0zm1.443 3.074l-.18-.186c-.109-.11-.289.075-.18.186l.18.185c.108.148.288-.037.18-.185zm-6.022 6.073a51.635 51.635 0 01-.216-3.333c-.036-.851.18-1.814-.072-2.592 0-.037-.072-.074-.108-.037-.036.074-.108.11-.144.185-.037.037.036.111.072.074.036-.037.072 1.26.072 1.26v1.48c.036 1 .108 2 .18 2.964.18 2.148.505 4.296.757 6.444 0 .148.253.185.253 0-.109-2.148-.541-4.296-.794-6.444zm1.154.815c-.144-1.11-.216-2.222-.325-3.37-.072-1-.288-2.037-.252-3.037 0-.148-.252-.148-.252 0-.037.889.108 1.778.18 2.667.072 1.11.18 2.222.288 3.37.217 2.26.541 4.519.685 6.778 0 .222.325.222.325 0-.072-2.148-.397-4.26-.65-6.407z"/><path d="M22.873 84.704c-.866-2.074-1.443-4.297-2.092-6.445-.396-1.296-.72-2.704-1.226-4 .145.111.289-.074.18-.185-.648-.74-.684-2.26-.865-3.185a131.908 131.908 0 01-.613-3.704c-.324-2.148-.216-4.63-1.045-6.666-.072-.149-.289-.038-.216.11.468 1.149.54 2.482.649 3.667.144 1.222.252 2.482.432 3.704.18 1.26.397 2.481.613 3.704.072.407.108.889.216 1.333-.108-.037-.252.074-.18.185.974 1.74 1.37 3.89 1.947 5.778.577 1.963 1.082 3.963 1.947 5.815.072.222.325.074.253-.111z"/><path d="M20.348 71.926a70.026 70.026 0 01-1.081-5.482c-.253-1.63-.325-3.37-.866-4.925-.072-.149-.288-.075-.252.074.505 1.555.577 3.333.83 4.962.288 1.815.504 3.704 1.117 5.445.036.185.288.111.252-.074zm1.155.222c-.47-1.704-.758-3.444-1.01-5.222-.288-1.926-.793-3.815-.937-5.778 0-.148-.253-.148-.253 0 .144 1.852.613 3.667.866 5.482.288 1.851.432 3.777 1.045 5.555.072.185.325.148.289-.037zm1.153-1.222c-.613-2.667-1.046-5.408-1.947-8-.036-.148-.288-.074-.252.074.901 2.593 1.298 5.333 1.947 8 .036.185.324.111.252-.074zm.974-2.593c-.216-1.148-.288-2.37-.793-3.444-.072-.148-.289-.037-.216.148.504 1.037.504 2.26.793 3.37.036.148.252.112.216-.074zm.973 17.593c-.901-1.852-1.37-3.815-1.947-5.778-.288-.963-.613-1.926-.937-2.926-.36-1.074-.866-2.296-1.01-3.407 0-.185-.288-.185-.252 0 .072.926.468 1.852.757 2.778.36 1.222.757 2.444 1.154 3.666.613 2 1.045 4 2.019 5.852.072.111.324-.037.216-.185zm.794-.963c-.757-2-1.298-4.074-1.911-6.111-.325-1.074-.65-2.185-1.01-3.26-.288-.925-.757-1.851-.973-2.814-.037-.148-.253-.074-.217.074.217.963.65 1.889.938 2.815.36 1.074.649 2.185.973 3.259.577 2 1.01 4.296 1.947 6.148.072.111.325.037.253-.111zm.793-.63c-.757-2.333-1.37-4.703-2.055-7.037-.505-1.666-.793-3.63-1.875-5.037-.108-.148-.325.074-.216.222 1.081 1.408 1.37 3.556 1.875 5.26.649 2.222 1.117 4.518 2.019 6.666.036.186.288.111.252-.074zm.577-2.37c-.613-3.074-1.514-6.148-3.137-8.815-.072-.111-.288 0-.18.111 1.622 2.704 2.343 5.741 3.1 8.778 0 .148.253.074.217-.074zm.937-1.223c-.54-1.48-.937-3.036-1.442-4.555-.36-1.11-.757-2.222-1.514-3.11-.108-.112-.289.073-.18.184 1.73 2 1.874 5.185 2.92 7.556.072.148.288.074.216-.074zm.613-2.221c-.649-1.482-1.082-3.038-1.947-4.408-.072-.148-.288 0-.216.111.865 1.37 1.298 2.926 1.947 4.408.036.185.288.037.216-.111zM29.219 76c0-.037-.036-.074-.073-.074a.571.571 0 00-.324.111c-.216.111-.397.111-.433-.148-.036-.26-.072-.482-.324-.556-.072-.037-.144.111-.072.148.288.149.144.519.36.741.253.26.505-.037.757-.11 0 .036 0 .073.037.11.036.111.18.074.144-.037-.072-.074-.072-.148-.072-.185zm-1.334 14.148c-.47-.37-.83-.963-1.154-1.444-.541-.89-1.082-1.815-1.803-2.556-.072-.111-.216.037-.144.148.649.815 1.154 1.704 1.694 2.556.217.333.397.63.65.963.216.259.576.555.757.852.072.11.216.037.18-.074 0-.186-.036-.334-.18-.445zm1.369.741c-.757-.74-1.19-1.667-1.73-2.556-.577-.963-1.154-1.926-1.803-2.777-.036-.075-.144.037-.108.074.613 1.037 1.262 2.037 1.839 3.074.504.852.865 1.74 1.622 2.37.108.074.288-.074.18-.185zm1.371 0c-.794-.852-1.37-1.852-1.983-2.852-.686-1.111-1.587-2.037-2.272-3.111-.072-.111-.288 0-.216.111.685 1.111 1.55 2.037 2.235 3.148.65 1 1.154 2.111 2.055 2.889.108.111.289-.074.18-.185zm1.153-.408c-1.478-1.925-2.56-4.074-4.29-5.814-.109-.112-.325.074-.18.185.937.963 1.73 2 2.487 3.11.613.89 1.082 1.89 1.803 2.668.108.185.288 0 .18-.149zm.578-1.407c-.902-.889-1.659-1.889-2.38-2.926-.288-.444-.577-.926-.865-1.37-.18-.26-.325-.556-.505-.815-.072-.074-.108-.185-.18-.26-.036-.184-.109-.259-.217-.259.036-.037.036-.074 0-.11-.036-.038-.072-.112-.108-.149-.072-.074-.18.037-.144.111 1.298 2.074 2.38 4.334 4.218 6 .145.111.325-.074.18-.222zm.216-1.148c-1.01-1.889-2.704-3.296-3.678-5.222-.072-.186-.324-.037-.252.148.973 1.926 2.524 3.407 3.713 5.185.109.148.325.037.217-.111zm.973-1c-.432-.593-.757-1.222-1.19-1.778-.504-.666-1.081-1.296-1.514-2.037-.072-.148-.325 0-.216.148.36.593.793 1.148 1.226 1.667.54.667.973 1.481 1.514 2.148.072.111.288-.037.18-.148zm.397-.963c-.397-1-1.154-1.74-1.731-2.63-.108-.148-.36 0-.252.148.576.89 1.262 1.667 1.766 2.593.072.111.289 0 .217-.111zm.36-1.444a8.702 8.702 0 00-.577-.63c-.108-.111-.288.074-.18.185.18.185.397.407.613.593.108.074.216-.037.144-.148zm-2.127 7.37c-.433-.445-.721-.963-1.154-1.407-.144-.149-.324.073-.216.222.433.444.721 1.037 1.226 1.407.108.074.216-.111.144-.222zm1.19-.37c-.288-.519-.757-.964-1.01-1.519-.144-.296-.252-.667-.613-.74-.144-.038-.18.184-.072.221.36.075.469.63.613.926.253.445.577.815.866 1.223.072.148.288.037.216-.111zm-.829-2.63c-.109-.111-.253.037-.145.148.505.593 1.298 1.296 1.334 2.111 0 .148.217.148.217 0 0-.889-.866-1.593-1.406-2.26zm3.244 3.185c-.54-.037-.864-.926-1.08-1.333-.398-.704-.83-1.445-1.371-2.037-.108-.111-.252.037-.144.148.577.74 1.045 1.555 1.478 2.407.216.445.54 1.074 1.118 1.037.144 0 .144-.222 0-.222zm.65-.37c-.469-.556-.685-1.26-1.082-1.852-.433-.63-1.01-1.148-1.478-1.74-.036-.075-.18.036-.108.073.468.667 1.045 1.222 1.514 1.926.36.556.54 1.222 1.01 1.704.108.148.252 0 .144-.111zm1.37-.185c-.83-1.112-2.02-2.075-2.596-3.334-.18-.407-.433-1.26-.974-1.26-.108 0-.108.186 0 .186.433 0 .974 1.519 1.226 1.889.65.963 1.443 1.815 2.2 2.704.108.074.252-.074.144-.185zm1.19-.63c-1.443-1.26-2.272-3-3.498-4.407-.108-.112-.288.073-.18.185 1.226 1.444 2.019 3.259 3.533 4.407.108.111.252-.074.144-.185zm1.19-.408c-1.66-1.37-2.416-3.444-3.895-5-.144-.148-.324.075-.216.223 1.442 1.555 2.127 3.815 3.93 5 .144.074.289-.111.18-.222zm.757-.962c-.433-.667-1.046-1.149-1.478-1.778-.433-.593-.794-1.26-1.226-1.852-.108-.148-.325.074-.217.222.505.63.866 1.333 1.334 2 .433.593.974 1.037 1.407 1.593.108.074.288-.074.18-.185zm1.803-4.038c-.073-.074-.109-.185-.18-.259a1.07 1.07 0 01.288-.148c.072-.037 0-.148-.072-.111-.109.037-.18.111-.289.148-.252-.444-.505-.852-1.01-1.037-.144-.037-.216.185-.071.222.432.185.648.556.865.926l-1.082.667c-.216-.26-.432-.556-.649-.815-.108-.148-.324.074-.18.185.216.222.397.482.577.741a5.458 5.458 0 01-.685.296c-.18-.37-.36-.74-.65-1.074-.143-.148-.324.074-.216.222.253.26.433.593.577.926a2.048 2.048 0 01-.685.111c-.072 0-.072.112 0 .112.253 0 .505-.075.721-.112.145.297.289.556.505.815.469.63 1.01 1.222 1.623 1.741.144.111.288-.074.18-.185-.577-.667-1.19-1.222-1.695-1.963a6.304 6.304 0 01-.324-.519c.252-.074.469-.185.72-.296.542.74 1.046 1.519 1.695 2.148.109.111.289-.074.18-.185-.54-.704-1.045-1.407-1.622-2.111.36-.185.721-.445 1.046-.63.036.111.108.185.18.26.325.481.685 1 .757 1.592.036.148.217.148.217 0 .036-.593-.397-1.185-.721-1.667zm.18-1.37c-.108-.148-.324 0-.252.148.468.704.793 1.445 1.19 2.185.072.112.252.037.216-.074-.252-.814-.721-1.555-1.154-2.259zm1.334.408c-.217-.297-.325-.593-.577-.852-.145-.112-.325.074-.18.185.252.222.36.555.612.778.072.11.217 0 .145-.111zm.433-1.334v.185c0 .037.072.037.072 0v-.185c.036-.074-.072-.074-.072 0zm1.153-1.592c0-.186-.252-.186-.288 0 0 .259-.036.518-.036.814 0 .223.36.223.36 0 0-.296 0-.555-.036-.814zM20.493 51.481c-.252-.222-.252-.63-.36-.925-.072-.149-.289-.075-.217.074.145.333.108.814.397 1.074.108.074.288-.111.18-.223zm21.886-1.703c-.36 1-.793 2-1.226 3-.36.852-1.01 1.481-1.442 2.296-.469.852-.721 1.667-1.334 2.445a19.975 19.975 0 00-1.55 2.333c-1.01 1.74-2.56 3.333-3.859 4.889a54.28 54.28 0 01-4.254 4.444c-.072.074.036.148.072.074a60.368 60.368 0 004.507-4.666c1.262-1.482 2.704-2.926 3.678-4.63.504-.926 1.117-1.778 1.73-2.63.577-.74.793-1.63 1.262-2.444.397-.74.938-1.26 1.262-2.037.397-1 .83-2 1.19-3.037.036-.074-.036-.074-.036-.037zm2.704 3.148c-.216.26-.252.518-.288.852-.108.778-.36 1.518-.613 2.296-.541 1.667-1.046 3.37-1.659 5.037a122.21 122.21 0 01-2.055 5.037c-.613 1.408-1.154 2.815-2.2 4-.035.037.037.111.073.074.901-1 1.478-2.222 1.983-3.444.613-1.408 1.262-2.778 1.803-4.185a83.08 83.08 0 001.766-5.037c.253-.778.47-1.556.721-2.37.18-.593.18-1.742.541-2.186.072-.037 0-.111-.072-.074zM36.43 72.778c.36.037.36 0 0 0zm11.61-6.038c-.938 1.038-1.731 2.149-2.669 3.186a76.855 76.855 0 01-2.992 3c-.072.074.036.148.108.111a77.79 77.79 0 003.029-2.963c.973-1.037 1.73-2.111 2.596-3.26 0-.036-.073-.11-.073-.073zm-.65 7.964a33.073 33.073 0 01-6.02 4.815c-.073.036 0 .185.071.148 2.236-1.334 4.291-2.89 6.058-4.815.108-.074 0-.222-.108-.148zm-7.355-25.148c-.613.592-1.19 1.185-1.875 1.666-.649.482-1.406.778-2.127 1.111-1.659.741-3.353 1.186-5.12 1.593-1.73.407-3.425.704-5.192.593-1.767-.075-3.533-.038-5.336-.038-.108 0-.108.186 0 .186 1.767 0 3.533-.037 5.336.074 1.767.11 3.497-.222 5.228-.593 1.803-.407 3.498-.889 5.156-1.63 1.623-.74 2.777-1.555 3.966-2.888.073-.075 0-.111-.036-.075zm2.128-6.037c-2.02 1.888-4.435 3.037-7.031 3.851a31.418 31.418 0 01-9.086 1.556c-.072 0-.072.111 0 .111 3.137.037 6.13-.481 9.122-1.407 2.632-.815 5.084-2.037 7.103-3.963.072-.111-.036-.223-.108-.148zm-.758-2.963l-.396.407c-.037.037 0 .074.036.037l.396-.407c.036-.038 0-.075-.036-.038zm-28.952-.037c-.072-.038-.145.037-.072.074.54.481-.253 1.259.144 1.814.072.112.216 0 .18-.11-.36-.52.36-1.297-.252-1.778zm1.045.666c-.072.593-.216 1.185-.216 1.815 0 .148.216.148.216 0 0-.593.108-1.185.18-1.815 0-.11-.18-.11-.18 0zm.722.926c-.073-.037-.145.037-.109.111.252.26.144.63.144.963 0 .111.18.111.18 0 0-.37.109-.815-.216-1.074zm1.37 1.074c0-.074-.109-.074-.109 0 0 .26-.036.519 0 .815 0 .074.145.074.145 0 0-.296-.037-.556-.037-.815zm2.523 1.482c-.144-.075-.252-.111-.397-.186-.108-.037-.216.111-.108.186.145.074.253.148.397.222.144.037.252-.148.108-.222zM23.63 6.148c-.036-.185-.289-.11-.253.074.073.482.361.89.433 1.408.072.592-.577 1.11-.973 1.481l-1.19 1c-.36.333-1.442 1.296-.757 1.778.108.074.216-.111.108-.185-.577-.445 1.694-2.148 1.983-2.408.432-.37.83-.777 1.01-1.333.252-.667-.253-1.296-.361-1.815z"/><path d="M25.36 6.815c.18-.852.108-1.556-.649-1.556-.108 0-.108.185 0 .185.541.037.613.519.469 1.223a1.673 1.673 0 00-.685-.223c-.144 0-.144.223 0 .26.288.037.469.11.613.259 0 .037 0 .037-.036.074a.837.837 0 00-.36-.185c-.145-.037-.217.185-.073.222.144.037.253.111.36.185-.36 1.111-1.045 2.37-1.19 2.63-.071.148.145.26.217.148.144-.26.757-1.333 1.118-2.407.072.703-.577 1.814-.793 2.11-.505.667-1.226 1.186-1.875 1.741-.108.112.036.297.144.223.938-.704 2.02-1.519 2.488-2.667.18-.407.36-1.222.144-1.74 0-.038.036-.075.036-.075.397.778-.216 2.334-.505 3-.432.963-1.081 1.852-1.91 2.482-.145.11.072.333.216.222 1.334-1.037 2.163-2.593 2.488-4.296.108-.741.108-1.408-.217-1.815zm-8.076.037c-.938-.111-1.262 1.444-1.406 2.111-.217.889-.325 1.704-.253 2.63.036.851.577 1.518.974 2.222.108.148.324 0 .216-.148-.396-.667-.865-1.297-.937-2.111-.108-.778 0-1.593.18-2.37.144-.63.397-2.26 1.226-2.186.144.074.108-.111 0-.148zm-1.478 7.815c-.938-.519-1.55-1.223-1.839-2.297-.216-.814-.288-2.037.288-2.703.109-.111-.072-.297-.18-.186-.685.704-.577 1.852-.432 2.778.18 1.223.937 2.148 2.019 2.63.144.074.288-.148.144-.222z"/><path d="M14.832 15.037c-.793-.37-1.334-.926-1.73-1.74-.36-.704-.685-1.816-.18-2.482.108-.111-.109-.296-.217-.185-.54.703-.288 1.666-.036 2.444.36 1.037 1.046 1.74 1.983 2.185.18.111.325-.148.18-.222zm-1.731 1.223c-.613-.779-2.235-2.371-1.37-3.371.108-.148-.072-.333-.216-.222-1.046 1.222.649 2.889 1.37 3.815.144.148.325-.075.216-.223zm10.493 29.036c-.253-.259-.18-.592-.18-.926 0-.11-.18-.11-.18 0 0 .37-.109.815.215 1.074.109.075.253-.037.145-.148zm1.514-.222c-.18-.074-.216-.222-.325-.333-.072-.111-.252 0-.18.11.144.186.216.371.469.445.108.037.144-.185.036-.222z"/></g><defs><clipPath id="clip0"><path fill="#fff" transform="translate(.95)" d="M0 0h49v93H0z"/></clipPath></defs></svg>