<svg width="51" height="52" fill="none" xmlns="http://www.w3.org/2000/svg"><g clip-path="url(#clip0)" fill="#204686"><path d="M49.145 18.38a46.106 46.106 0 00-2.227-4.974v-.053c.053-.104-.053-.21-.16-.21C44.639 9.06 41.723 5.29 37.64 3.09 35.15 1.728 31.915.524 29 .366c-3.711-.157-6.998.629-10.603 1.31-2.174.47-4.453 1.99-6.415 3.037-1.484.785-2.703 2.042-3.764 3.351-2.28 1.886-4.347 4.818-5.672 7.332-3.022 5.865-3.552 13.3-.742 19.323 2.968 6.284 6.68 12.149 13.36 15.03 2.968 1.308 5.354 2.198 8.694 2.198 3.287 0 7.263-.366 10.285-1.728 3.021-1.361 5.672-2.67 8.217-4.87 2.703-2.356 4.135-5.236 6.043-8.169 3.711-5.708 3.022-12.725.743-18.8zM23.592 2.2c3.976-.524 7.952 0 11.45 1.518-1.325.367-2.65.785-3.975 1.152-.743.21-3.128 1.362-3.658 1.1-.477-.21-5.991-2.304-7.634-2.933 1.219-.366 2.491-.68 3.817-.838zM2.704 19.113c.954-3.352 2.863-5.865 5.036-8.484.265.995.318 2.357.53 2.985.53 1.938 1.326 3.247.318 5.132-.689 1.31-1.06 2.985-1.537 4.399-1.007 3.037-2.227 3.875-5.46 3.927-.16-2.67.37-5.446 1.113-7.96zm4.082 21.313h.159c.901-.21 2.492-1.047 3.234-.157 1.007 1.204 2.598 2.042 3.87 2.932 1.75 1.205 3.923 1.833 4.453 4.137.212.943.318 1.78.848 2.566-5.142-1.309-9.595-5.184-12.564-9.478zm34.46 3.875c-2.863 2.618-6.362 4.242-10.073 5.184.265-.68.477-1.152.583-1.937.212-1.362 2.438-2.147 3.446-2.776.848-.523 2.173-1.78 3.234-1.833 1.219-.052 2.438.158 3.658.472-.265.314-.584.576-.849.89zm1.908-1.938c-1.538-.523-3.075-.68-4.665-.733-1.485-.052-2.757 1.31-3.923 2.043-1.008.628-2.704 1.204-3.287 2.304-.584 1.1-.69 2.461-.849 3.718a32.618 32.618 0 01-7.475.733c-.795 0-1.59-.053-2.332-.21.053-.052.106-.104.106-.157.053-.104.159-.261.212-.366.318-.524-.16-1.048-.69-1.048-.53-1.152-.477-2.723-1.166-3.822-.795-1.31-3.18-1.938-4.4-2.776-1.59-1.047-2.916-2.356-4.453-3.351-.69-.471-3.075 1.047-3.446 1.204-.106.053-.16.157-.16.21a4.772 4.772 0 01-.423-.681c-1.697-2.723-3.234-5.708-4.082-8.798-.212-.68-.318-1.361-.424-2.042 1.59-.052 4.188-.157 5.248-1.257 1.378-1.414 1.537-3.823 2.174-5.603.53-1.623 1.855-3.142 1.59-4.87-.371-2.252-2.12-4.294-2.65-6.598.052-.105.158-.157.211-.262 2.12-2.042 3.87-3.875 6.68-5.132a42.284 42.284 0 013.976-1.623c2.068 2.199 5.62 2.618 8.165 4.084.9.524 1.802-.262 2.65-.576 1.962-.68 4.03-1.1 5.99-1.833.372-.104.478-.419.478-.733a18.66 18.66 0 015.513 4.242c1.538 1.728 2.97 3.77 4.189 5.917-2.12 2.41-1.22 4.87-1.114 8.222.053 1.361.106 3.037.849 4.19.848 1.308 2.81 2.46 3.233 3.874.053.21.213.367.372.42-.955 4.136-3.34 8.168-6.097 11.31zm5.938-13.615c-1.697-1.466-2.757-3.09-3.075-5.289-.212-1.518-.318-3.037-.583-4.556-.319-1.57.159-2.67.742-3.822 2.014 3.822 3.34 8.064 3.446 12.148 0 .681 0 1.31-.053 1.99-.16-.209-.318-.314-.477-.47z"/><path d="M36.633 22.727c-.742-1.31-2.438-2.147-3.605-3.037-1.537-1.152-3.287-2.566-5.036-3.352-.265-.104-.53-.104-.742 0 .053-.157.159-.314.212-.471.106-.21-.212-.314-.371-.157-1.909 2.828-4.188 5.446-6.627 7.855-1.802 1.78 0 3.77.636 5.76.477 1.519.954 4.66 3.022 4.923 3.764.471 7.369.419 11.027-.524.212-.052.477-.262.477-.471.318-2.095.424-4.242.636-6.337.106-1.1.053-2.199.371-3.246.053-.315.106-.681 0-.943zm-1.59 1.938c-.16 1.937-.265 3.822-.424 5.76-.16 2.356-1.114 2.356-3.287 2.566-1.272.105-2.492.262-3.764.157-1.007-.052-1.962-.157-2.916-.157-1.378-.053-1.75-2.357-2.068-3.3-.37-1.151-2.12-4.24-1.272-5.288 1.909-2.357 4.082-4.504 5.567-7.174.053.419.477.68.848.628 1.378.733 2.65 1.833 3.976 2.618.848.524 1.59 1.466 2.492 1.938 1.06.576.954 1.152.848 2.252z"/><path d="M22.107 22.884c0-.157-.265-.157-.265 0 0 .733-.318 1.466-.477 2.2-.212.837-.371 1.675-.53 2.46-.053.158.106.315.265.262.053 0 .106 0 .159-.052.159-.052.159-.262.053-.314.159-.786.265-1.519.424-2.304.159-.733.477-1.467.371-2.252zm-.053 6.126c-.477-.052 1.22-7.069 1.113-7.959 0-.104-.159-.052-.212 0-.053 2.723-1.484 5.342-1.431 8.117 0 .157.159.262.265.21l.212-.053c.212 0 .212-.314.053-.314z"/><path d="M23.91 19.219c-.265 2.304-.477 4.608-1.007 6.912-.371 1.623-1.008 3.456-.955 5.132 0 .314.478.314.478 0-.053-1.99.742-4.032 1.06-5.97.37-1.99.53-4.032.742-6.074.106-.21-.265-.21-.318 0zm1.06-1.572c0 2.828-.477 5.604-.9 8.379-.16 1.152-.319 2.252-.478 3.404-.106 1.047-.424 2.147-.265 3.194.053.262.424.157.424-.052.371-4.975 1.59-9.898 1.537-14.925.053-.21-.318-.21-.318 0zm1.326.21c-.743 2.356-.637 4.975-.955 7.384-.212 1.675-.477 3.299-.689 4.974-.159.995-.424 1.938-.265 2.933.053.262.424.157.424-.053.106-2.46.636-4.922.954-7.33.318-2.567.212-5.29.902-7.803.053-.21-.266-.315-.372-.105zM27.62 16.6c-.211 2.828-.635 5.656-1.06 8.431-.37 2.619-1.06 5.394-1.113 8.065 0 .21.371.314.424.052.637-2.775.796-5.656 1.22-8.483.37-2.671.742-5.342.901-8.065.053-.262-.371-.262-.371 0zm1.22.786c0-.262-.424-.262-.424 0 .053 2.775-.53 5.55-.901 8.326-.319 2.723-1.167 5.446-1.273 8.17 0 .261.371.314.424.052a94.59 94.59 0 001.273-7.75c.424-2.933.954-5.866.9-8.798zm.955.418c-.106-.157-.372 0-.265.157.318.577-.107 1.99-.213 2.671-.052.524-.159.995-.212 1.519a858.4 858.4 0 00-.477 3.98c-.159 1.361-.265 2.723-.424 4.084-.159 1.205-.477 2.461-.318 3.666.053.262.424.262.424 0 .106-2.88.636-5.813.902-8.693.159-1.466.318-2.985.477-4.451.106-.995.636-1.99.106-2.933zm1.007.629c-.16 2.252-.743 4.45-1.06 6.703-.319 2.566-.53 5.131-.902 7.698-.212 0-.265.314-.106.418l.16.157c.158.105.37 0 .423-.157.371-2.356.53-4.765.796-7.121.265-2.566.954-5.08 1.113-7.698 0-.262-.424-.262-.424 0zm.53 1.309c.053 2.409-.265 4.922-.583 7.331-.318 2.147-.901 4.451-1.06 6.546 0 0 .424.262.477-.052.583-4.556 1.696-9.112 1.59-13.773-.053-.262-.424-.314-.424-.052zm1.06 1.781c-.265 1.833-.424 3.613-.636 5.446-.212 1.99-.318 4.137-.954 6.074-.107.262.37.42.424.105.583-1.519.636-3.142.795-4.713.265-2.252.424-4.556.742-6.807.053-.262-.318-.367-.371-.105zm2.491 1.885c-.318 1.728-.795 3.456-1.113 5.236a10.37 10.37 0 00-.212 1.257c.16-1.309.265-2.618.424-3.927.212-1.571.795-3.404.371-4.975-.053-.262-.477-.157-.424.105.318 1.518-.212 3.246-.477 4.817.212-1.57.371-3.142-.159-4.66-.106-.262-.477-.157-.371.104.636 1.886.159 3.876-.106 5.813-.265 2.042-.795 4.085-1.007 6.18 0 .209.37.261.424.052.265-1.205.477-2.41.689-3.614-.053.472-.053.943-.053 1.467 0 .21.318.314.424.157v.104c-.106.786-.424 1.572-.371 2.357 0 .21.371.21.371 0 .212-3.509 1.22-6.965 1.75-10.473.053-.105-.16-.157-.16 0zm.531 1.78c-.053-.261-.424-.157-.371.105.37 2.514-.371 5.027-.849 7.488-.053.315.425.472.478.157.477-2.565 1.219-5.131.742-7.75zm11.398-9.949c-.053-.053-.159-.053-.265 0l-.265.21c.159-.577.265-1.1.212-1.677 0-.21-.318-.21-.318 0 0 1.048-.371 2.043-.69 3.038-.264.995-.582 1.99-.953 2.932-.107.21.265.367.37.157.478-.942.743-1.937.955-2.985.106-.419.212-.838.371-1.257.053.053.106.053.159.053.318-.21.053 1.1.053 1.204-.106.472-.265.943-.424 1.414-.371 1.152-.795 2.304-1.007 3.456-.053.315.424.42.477.105.212-1.361.689-2.723 1.06-4.032.318-.733.742-1.885.265-2.618zm.795 1.099c0-.21-.318-.21-.318 0-.106 2.357-.901 4.451-1.538 6.703-.053.105.053.262.16.262.053 0 .105 0 .158.052.213.053.319-.21.16-.314-.106-.052.848-3.09.954-3.404.212-1.1.37-2.2.424-3.299zm.796.786c0-.21-.372-.21-.319 0 .106 1.518-.583 2.985-1.007 4.399-.212.68-.477 1.361-.636 2.042-.106.524-.16 1.1-.477 1.571-.106.21.159.419.318.262.69-.838.795-2.252 1.06-3.3.477-1.57 1.166-3.298 1.06-4.974zm.317 2.147h-.264c-.212 0-.212.367 0 .367.106 0-.637 2.88-.69 3.09-.318 1.256-.848 2.46-1.06 3.77-.053.209.265.366.318.157.53-1.205.849-2.514 1.166-3.77.266-1.1.69-2.253.69-3.405.053-.104-.053-.209-.16-.209zm.424 3.561c-.053-.053-.053-.053-.106-.053.212-.576.583-1.256.16-1.833-.107-.157-.425 0-.266.157.371.577-.477 2.147-.636 2.724-.371 1.309-.848 2.618-1.272 3.98-.106.261.318.418.424.157.689-1.572 1.113-3.247 1.537-4.923v-.052c.212.576-.212 1.675-.37 2.2-.16.575-.213 1.151-.266 1.78 0 .052.053.157.106.157.901.471.424 1.99.16 2.775-.107.262.317.367.37.105.371-.995.424-1.938.212-2.985 0-.052-.106-.105-.159-.105-.583 0 .16-2.513.212-2.88.053-.576.16-.68-.106-1.204zM21.895 1.623c-.318.367-.371.89-.583 1.31-.16.419-.584.628-.584 1.1 0 .209.319.209.319.052.106-.42.37-.681.53-1.048.159-.419.212-.89.477-1.309.106-.105-.053-.21-.16-.105zm1.855-.68c.054-.21-.264-.262-.317-.105-.106.524-.477.995-.69 1.466-.318.524-.53 1.1-.795 1.676-.159.262.212.471.318.21.106-.158.106-.21.106-.315.212-.576.477-1.1.743-1.623.265-.42.53-.838.636-1.31zm.478-.105c-.266.733-.53 1.519-.955 2.2-.265.366-.742.785-.689 1.256 0 .21.265.21.318.052.212-.523.583-.942.848-1.466.319-.628.53-1.309.743-1.937.106-.21-.212-.262-.265-.105zm1.113-.315h-.159c-.159 0-.265.262-.053.262-.212.681-.477 1.31-.742 1.99-.212.524-.318.943-.69 1.362-.105.104-.052.262.107.262.477 0 .636-.576.795-.943.318-.89.69-1.78.848-2.775.053-.053 0-.158-.106-.158zm1.007-.419a.107.107 0 00-.212 0c.053 1.047-.53 1.99-1.06 2.828-.265.471-.637.995-.584 1.57 0 .158.212.158.319.106.052-.053.159-.157.212-.21.106-.105 0-.262-.107-.262.16-.576.53-1.152.796-1.675.424-.733.689-1.519.636-2.357zm.265.472c-.106.733-.477 1.361-.689 2.094-.212.786-.371 1.624-.901 2.252-.212.21.159.524.318.314.477-.576.69-1.256.848-1.99.212-.89.583-1.728.742-2.618 0-.157-.318-.262-.318-.052z"/><path d="M27.356 1.1c-.265 1.728-1.75 3.037-1.909 4.765 0 .262.424.262.424 0 .16-1.676 1.644-3.037 1.803-4.713.106-.21-.265-.262-.318-.052zm1.166-.053h-.159c-.159 0-.106.21 0 .21-.265-.053-1.113 2.461-1.219 2.775-.265.786-.265 1.571-.795 2.252-.106.157.106.367.265.262.583-.367.636-1.152.742-1.78.212-1.257.69-2.41 1.272-3.562 0-.052 0-.157-.106-.157zm1.537.053c-.106.837-.742 1.361-1.06 2.147-.318.837-.477 1.623-.955 2.356.107-.785.425-1.571.69-2.304.318-.786.795-1.519.795-2.409 0-.21-.318-.21-.318 0 0 .89-.583 1.728-.954 2.566-.319.785-.69 1.571-.637 2.409 0 .21.212.21.318.105.053.052.16.104.213.052.689-.524.848-1.414 1.06-2.2.265-.942 1.06-1.675 1.113-2.67 0-.157-.212-.157-.265-.053zm.531.576c-.107.942-.425 1.78-.902 2.618-.318.524-.636.995-.689 1.571 0 .21.265.21.318.052.212-.733.636-1.361 1.007-2.042.318-.68.53-1.414.583-2.2 0-.209-.317-.209-.317 0zm1.113 0c0-.21-.372-.21-.318 0 .053.68-.266 1.309-.425 1.937-.159.681-.37 1.31-.9 1.833-.213.21.105.524.317.314.53-.523.742-1.152.902-1.833.159-.733.477-1.466.424-2.251z"/><path d="M32.498 1.937c0-.21-.371-.21-.371 0 .053.734-.212 1.362-.53 1.99-.212.42-.265.995-.69 1.257-.158.105-.052.419.16.314.53-.157.636-.68.848-1.152.265-.785.69-1.466.583-2.409zm1.591 1.1c-.371.105-.69.367-1.008.576.16-.576.69-1.1.955-1.623.053-.157-.16-.262-.212-.105-.318.629-1.167 1.362-1.114 2.095 0 .157.16.21.265.105.319-.262.584-.576.955-.733-.16.419-.318.785-.636 1.1-.16.156.106.366.212.209.424-.42.583-.943.689-1.519 0-.052-.053-.157-.106-.105zM6.31 11.05c-2.386 4.555-3.288 9.635-5.09 14.348-.053.21.212.314.318.21.106-.053.265-.158.371-.21.212-.053.106-.42-.106-.367H1.75c.742-2.042 1.22-4.242 1.908-6.336.849-2.566 1.59-5.185 2.757-7.646 0 0-.106-.052-.106 0zm.423.261c-.583.786-.583 1.938-.901 2.828a106.252 106.252 0 01-1.22 3.823 98.97 98.97 0 00-1.219 3.665c-.318 1.048-.477 2.147-.848 3.195-.106 0-.16.105-.106.21 0 .052 0 .104.053.156 0 .105.106.157.212.157-.16.367-.318.838-.424 1.152-.053.158.159.315.265.158.106-.367.265-.681.424-.995.16-.367.371-.89.795-1.048.212-.052.106-.366-.106-.314-.212.053-.424.21-.583.367.265-.681.371-1.414.53-2.147.265-1.205.742-2.41 1.114-3.614.424-1.256.795-2.513 1.166-3.77.212-.68.37-1.31.583-1.99.159-.524.212-1.361.53-1.78.106-.053-.159-.21-.265-.053z"/><path d="M8.058 11.05c-.742 2.199-1.325 4.45-1.961 6.702.477-2.147 1.272-4.241 1.431-6.389 0-.209-.265-.209-.318 0-.212 2.148-1.007 4.19-1.537 6.284-.424 1.938-.902 3.823-1.644 5.708-.053.21.265.315.371.157.265-.523.424-1.047.637-1.57-.053.157-.053.261-.106.418-.266.89-.584 1.729-.743 2.619-.159.262-.37.471-.583.68-.159.158.053.42.212.262a.89.89 0 00.265-.21v.315c0 .262.424.262.424 0l.16-.942a4.203 4.203 0 00.636-1.938c0-.105-.053-.157-.106-.21.37-1.413.848-2.827 1.166-4.189.583-2.566 1.325-5.08 2.067-7.593 0-.21-.318-.314-.37-.105zm.583 1.884c0-.209-.318-.209-.318 0 .16 1.938-.954 4.033-1.537 5.865-.69 2.095-1.325 4.242-1.432 6.442 0 .261.425.261.425 0 .159-2.357.848-4.556 1.484-6.756.53-1.78 1.537-3.665 1.378-5.55zm.69 2.043c-.424 2.566-1.272 4.975-2.12 7.383.159-.628.265-1.309.424-1.937.477-2.095 1.431-4.242 1.484-6.441 0-.21-.265-.21-.318 0-.16 1.99-1.007 3.875-1.431 5.813-.265 1.152-.53 2.356-.849 3.508-.159.733-.212 1.466-.689 2.095-.106.157.053.314.212.314-.106.262.371.419.424.105 1.06-3.561 2.598-7.018 3.128-10.736.16-.261-.212-.366-.265-.104zM3.34 26.288c-.053.21-.106.419-.212.576-.106.262-.265.419-.37.68-.054.105.052.21.158.105.16-.157.265-.418.318-.576.053-.261.16-.523.212-.785.106-.052-.053-.105-.106 0zm4.453 12.725c-.16-.157-.424.105-.265.262.795.628.053 2.199.265 3.037a.166.166 0 00.318 0c.159-.576.159-1.204.159-1.78 0-.524-.053-1.205-.477-1.52zm1.06 1.676c0-.471-.053-.943-.371-1.31-.053-.052-.106 0-.106.053.318.524.212 1.1.265 1.623 0 .576.212 1.152.212 1.728 0 .157.265.157.265 0 .106-.733-.212-1.413-.265-2.094zm1.061-.157c0-.786-.053-1.623-.583-2.252-.106-.105-.265.053-.212.157.583.786.477 1.78.477 2.67 0 1.1.318 2.2.265 3.3 0 .21.318.21.318 0 .16-1.361-.212-2.618-.265-3.875zm.795-1.414c0-.053-.053-.105-.106-.105l-.212-.052c-.212-.053-.265.261-.106.314.424.157.265 2.513.265 2.932.053.995.106 2.042.371 2.985.053.21.371.105.371-.105-.318-1.99-.318-3.98-.583-5.97zm1.326 5.393c-.212-1.204-.796-2.304-.902-3.56 0-.105-.106-.105-.106 0 .053.837.265 1.57.53 2.408.372 1.205.478 2.619.478 3.876 0 .21.265.21.318 0a11.6 11.6 0 00-.318-2.724zm1.59 2.566c-.636-.785-.424-1.937-.53-2.828-.159-1.152-.265-2.304-.795-3.35-.106-.158-.318 0-.265.156.53 1.257.689 2.67.742 4.032.053.838.053 1.676.583 2.304.16.21.477-.104.265-.314zm.053-5.393c-.053-.21-.424-.105-.318.105.636 2.042.689 4.084.795 6.231 0 .262.371.262.371 0 .106-2.094-.212-4.346-.848-6.336zm1.855 4.503c-.106-.47-.106-.994-.212-1.518-.106-.629-.424-1.1-.583-1.676-.053-.21-.371-.105-.318.105.265.995.636 1.78.69 2.88.052.89.264 1.728.317 2.618 0 .21.318.262.371.053.16-.838-.106-1.676-.265-2.462zm.849-.262c-.053-.785-.106-1.57-.583-2.2-.16-.209-.53 0-.371.21.53.733.477 1.728.53 2.566.053.995.318 1.938.53 2.88.053.21.424.158.424-.052-.16-1.152-.477-2.2-.53-3.404z"/><path d="M17.124 46.292c0-.733-.106-1.466-.583-2.042-.16-.157-.424.052-.318.261.53.681.477 1.52.477 2.305 0 .89.318 1.675.265 2.566 0 .261.424.261.424 0 .159-1.048-.212-2.095-.265-3.09zm1.272 2.671c-.212-.471-.212-1.466-.265-1.728-.106-.629-.159-1.362-.424-1.99-.106-.262-.477-.052-.37.21.37.785.37 1.885.476 2.722.053.42.106 1.414.69 1.414.106 0 .212-.105.212-.21v-.418c.053-.105-.265-.157-.319 0zm13.307-2.776a34.245 34.245 0 01-.318 3.351c-.053.262.318.262.318.053.106-1.152.212-2.252.212-3.404 0-.105-.212-.105-.212 0zm1.59-1.518c0-.21-.265-.157-.265 0-.053.21-.159.419-.212.68-.106.105.053.315.159.158v1.57c0 .891-.212 1.729-.265 2.567 0 .21.318.262.318.052.318-1.728.265-3.351.265-5.027zm.477-.158c-.106-.104-.318.053-.212.21.477.576.265 1.466.212 2.147-.053.733-.053 1.466-.053 2.2 0 .261.424.261.371 0 0-.943-.053-1.886 0-2.88.106-.577.053-1.205-.318-1.677zm1.113-.209c-.053-.21-.371-.105-.318.105.424 1.31.265 2.514-.053 3.823-.053.262.318.366.424.104a6.966 6.966 0 00-.053-4.032z"/><path d="M35.679 44.092c0-.261-.371-.261-.371 0-.053 1.414-.053 2.776-.053 4.19 0 .314.477.314.477 0 0-1.414 0-2.776-.053-4.19zm.689-.785c0-.105-.106-.105-.106 0-.16 1.362-.16 2.828-.106 4.19 0 .209.318.209.318 0 0-1.362 0-2.828-.106-4.19zm.848-.837c-.053-.158-.265-.105-.212.052.318 1.78-.106 3.456-.053 5.184 0 .21.318.21.318 0 .053-1.676.318-3.509-.053-5.237zm1.591.052c-.053-.053-.106-.053-.16 0 0 .052-.052.104-.052.157 0-.157-.053-.315-.106-.472 0-.052-.053-.105-.16-.105h-.211c-.212 0-.16.262 0 .262.636.053-.106 2.2-.212 2.566-.16.576-.319 1.205-.212 1.833.052.21.318.157.318-.052 0-1.31.742-2.566.583-3.875.053 0 .106 0 .106-.053-.053.157 0 .838-.053 1.1-.053.262-.106.576-.16.838a22.6 22.6 0 00-.264 1.99c0 .157.212.21.265.052.265-.89.212-1.885.37-2.775.16-.576.266-.995-.052-1.466zm.795.208c-.053-.209-.318-.104-.318.106.212.942-.212 1.937 0 2.88.053.157.265.157.265 0 .265-.943.318-2.043.053-2.985zm1.538 1.1c0-.104-.16-.104-.16 0 0 .42-.053.89-.106 1.31 0 .21.371.21.318 0 0-.42 0-.89-.053-1.31zM12.353 6.808c-1.114 1.204-2.121 2.513-3.128 3.822l-1.432 1.886c-.318.419-.9 1.937-1.484 2.094-.212.053-.106.315.106.262.265-.052.53-.052.583-.366.318-.943 1.06-1.833 1.644-2.619 1.272-1.676 2.491-3.404 3.923-4.975.053-.052-.106-.209-.212-.104zm.264 2.147c-1.219 1.57-2.332 3.246-3.552 4.87-1.219 1.623-2.544 3.142-3.658 4.817-.106.157.16.314.265.157 1.06-1.518 2.227-2.984 3.393-4.45 1.326-1.729 2.44-3.562 3.764-5.29.053-.104-.159-.21-.212-.104zm-.741 2.095c-3.34 4.24-5.832 9.111-8.27 13.876-.106.158.159.315.265.158.636-1.048 1.113-2.2 1.643-3.3.69-1.361 1.485-2.67 2.28-3.98 1.325-2.251 2.65-4.555 4.24-6.65 0-.105-.105-.21-.158-.105zm-.636 3.665c-.584 1.518-1.75 2.985-2.598 4.346-.901 1.466-1.803 2.985-2.704 4.451a46.65 46.65 0 00-2.333 4.19c-.37.785-.848 1.623-.636 2.513.053.157.371.157.318-.052-.106-1.204.637-2.357 1.22-3.404a74.249 74.249 0 012.544-4.451c.796-1.362 1.59-2.723 2.386-4.032.69-1.152 1.59-2.304 2.015-3.561.106-.053-.16-.105-.212 0zm-1.326 4.137c-1.325 2.618-2.757 5.237-4.029 7.907-1.06 2.252-2.545 4.818-2.65 7.384 0 .262.37.262.423 0 .16-2.618 1.697-5.237 2.81-7.593 1.167-2.514 2.545-4.975 3.764-7.489.053-.21-.212-.366-.318-.21zm2.386 9.635c-.372-.21-.69-.419-1.061-.628 0-.052.053-.105.053-.21.053-.209-.265-.261-.318-.104 0 .052 0 .052-.053.104-.265-.157-.53-.314-.742-.418l-.318-.158c.265-.89.424-1.78.318-2.67 0-.157-.265-.105-.265.052.106.786-.053 1.676-.318 2.514-.372-.157-.796-.314-1.114-.472a60.705 60.705 0 012.227-4.555c.106-.21-.212-.367-.318-.157-.848 1.466-1.59 2.984-2.28 4.503-.053-.052-.106-.052-.106-.105-.159-.157-.371.105-.212.21.053.052.16.104.212.157-1.431 3.194-2.545 6.493-3.499 9.897-.053.262.318.367.424.105.955-3.3 2.068-6.598 3.393-9.74.371.21.742.366 1.113.576-.37 1.204-.954 2.356-1.272 3.351-.954 2.776-2.014 5.499-2.598 8.379-.053.262.319.366.372.104.636-3.037 1.696-5.917 2.65-8.85.318-.89.742-1.832 1.06-2.827.372.21.69.419 1.06.628-1.537 4.451-3.445 9.217-3.604 13.93 0 .261.424.261.424 0 .212-4.66 1.962-9.322 3.446-13.773.318.21.636.42 1.007.576.318.053.53-.314.318-.419z"/><path d="M11.133 36.761c0-.157-.16-.21-.265-.261.053-.21.106-.42.159-.681.53-2.147 1.59-4.451 1.325-6.703 0-.157-.318-.157-.265 0 .212 2.2-.848 4.503-1.378 6.598-.636 2.461-.954 5.027-1.59 7.489-.054.261.318.366.424.104.318-1.152.53-2.304.742-3.508.159.104.424 0 .424-.21-.212-.942.477-1.833.424-2.828zM13.36 31c-.212 4.19-2.014 8.118-2.173 12.307 0 .262.424.262.424 0 .265-4.19 1.908-8.17 2.067-12.306 0-.21-.318-.21-.318 0zm1.59 1.52c-.052-.21-.318-.105-.265.052.478 1.938-.265 4.19-.742 6.075-.424 1.885-.901 3.718-.901 5.655 0 .262.371.262.371 0 .106-2.356.742-4.608 1.166-6.965.371-1.518.796-3.194.371-4.817zm1.538 2.042c-.106-.105-.265.052-.16.157 1.114 1.361-.158 4.242-.53 5.76-.53 2.304-1.59 4.66-.9 7.07.053.262.424.157.37-.105-.689-2.566.478-5.446 1.114-7.96.318-1.361 1.113-3.665.106-4.922zm1.908 2.461c-.212 1.99-.795 3.928-1.113 5.865-.318 1.833-.37 3.77-.795 5.604-.053.261.371.366.424.104.424-1.99.477-4.032.795-6.074.318-1.833.796-3.666 1.008-5.499 0-.21-.319-.21-.319 0zm4.241 5.289c-.212.105-.424.262-.636.367.318-1.414.636-2.88.69-4.346 0-.21-.266-.21-.319 0-.053 1.57-.477 3.142-.901 4.66-.424.21-.848.471-1.272.628-.16.053-.372.158-.53.21.159-.576.264-1.205.424-1.833.318-1.623.954-3.299.742-4.975 0-.21-.318-.21-.318 0 .212 1.78-.53 3.614-.902 5.342-.106.523-.265 1.047-.37 1.57a3.848 3.848 0 00-1.061.472c-.265.157 0 .576.265.419.212-.157.424-.262.69-.314-.372 1.518-.69 3.037-.743 4.556 0 .262.371.262.371 0 .106-1.624.424-3.142.795-4.713.319-.105.637-.157.902-.315.265-.104.583-.261.848-.419-.477 1.676-.954 3.404-1.113 5.132 0 .21.37.262.37.053.266-1.833.796-3.666 1.22-5.446l1.113-.629c.318-.157.053-.628-.265-.419z"/><path d="M23.963 39.118c0-.157-.318-.21-.265 0 .212 3.613-1.432 6.912-2.174 10.42-.053.262.371.367.424.105.742-3.508 2.28-6.86 2.015-10.525zm2.12.209c-.053-.157-.371-.105-.318.105.583 1.57-.477 3.77-.849 5.394-.318 1.623-.689 3.194-1.325 4.713-.106.21.265.366.371.157.742-1.676 1.06-3.456 1.432-5.237.37-1.623 1.325-3.456.689-5.132zm7.687-5.079c-1.643 1.78-3.128 3.98-4.294 6.074-.159.262.265.472.424.21a1.08 1.08 0 01.212-.314c.424 1.78-.424 3.56-.901 5.289-.053.104-.053.21-.106.314-.477-.471-.795-.995-.69-1.728.054-.262-.317-.314-.423-.105.37-1.257.636-2.461.636-3.823 0-.21-.318-.21-.318 0 0 3.3-1.909 6.075-2.492 9.27-.053.261.371.418.424.104 0-.052 0-.105.053-.157.371-1.78 1.113-3.456 1.644-5.184-.106.89.37 1.623 1.007 2.199-.371 1.047-.742 2.147-.954 3.194-.053.21.265.315.318.105l.954-2.985a8.1 8.1 0 00.848.576c.16.105.371 0 .371-.157 0 .105-.053.157-.053.262-.053.262.318.366.371.105.69-1.833 1.22-3.718 1.75-5.604.265-1.047.636-2.199.159-3.246-.053-.157-.318-.053-.212.104.477 1.153-.053 2.462-.371 3.614-.371 1.361-.848 2.723-1.326 4.084-.053 0-.159 0-.159.105-.053.21-.053.367-.106.576 0-.105 0-.21-.106-.262-.318-.21-.689-.419-.954-.628.16-.471.318-.943.424-1.466.477-1.52.954-2.933.53-4.504 0-.105-.106-.105-.159-.105 1.167-1.885 2.439-3.822 3.87-5.446.106-.366-.212-.68-.37-.471zM32.71 46.03c.583-1.938 1.166-3.875 1.325-5.865 0-.21-.318-.21-.318 0-.265 2.095-1.007 4.084-1.59 6.074-.053.262.212.367.371.21l.16-.157c.211-.053.158-.157.052-.262zm2.386-3.142l-.053.053c.583-1.519 1.325-2.985 1.431-4.609 0-.21-.318-.21-.318 0-.212 1.938-1.22 3.561-1.855 5.342-.107.262.212.366.37.21.319-.263.53-.472.743-.786.159-.157-.16-.367-.318-.21zm7.899-6.127v.262c0 .262.424.262.424 0v-.262c0-.262-.424-.262-.424 0zM17.601 21.104c-1.802-1.152-3.499-2.41-4.983-3.928-.106-.104-.212-.104-.265-.052.106-.157.159-.367.265-.524.106-.157-.16-.366-.265-.157-.902 1.728-1.485 3.561-2.386 5.237-.106.157.159.314.265.157.795-1.414 1.325-2.985 2.015-4.504 0 .053 0 .105.053.105 1.484 1.571 3.233 2.88 5.089 3.928.212.261.424-.105.212-.262z"/><path d="M13.148 20.528c-.053-.21-.371-.21-.318 0 .106.733-.318 1.414-.53 2.042-.053.21.212.262.318.105.212-.681.636-1.414.53-2.147zm-1.114 6.441c-.212-.314-.212-.576-.053-.89.107-.157-.159-.262-.211-.157-.266.366-.266.785-.054 1.204.16.21.478.052.319-.157zM26.03 8.221c0 2.619-.212 5.237-.318 7.855 0 .314.53.314.53 0 .106-2.618.212-5.236.212-7.855 0-.262-.424-.262-.424 0zm-5.937 15.763c-.743.21-1.273 1.1-1.697 1.675-1.325 1.728-2.81 3.352-4.241 4.923-.212.21.106.523.318.314 1.166-1.204 2.28-2.566 3.34-3.875.53-.68 1.537-2.357 2.386-2.619.265-.104.159-.47-.107-.418zm4.558 14.296c-.53-1.414-.636-2.88-.795-4.399-.053-.314-.53-.314-.53 0 .16 1.519.212 3.09.795 4.504.106.366.637.21.53-.105zm17.284-3.3c-.106 0-.265-.052-.424-.052a1.592 1.592 0 00-.265-.366c-.16-.157-.424.105-.265.262 0 0 0 .052.053.052-.742-.105-1.644-.262-2.386-.576.053-.314.053-.576.053-.89 0-.314-.424-.314-.477 0 0 .21 0 .471-.053.68-.477-.314-.795-.68-.795-1.204 0-.314-.477-.314-.477 0 0 .785.53 1.362 1.219 1.728-.53 3.666-2.492 7.122-2.545 10.84 0 .262.371.314.424.052.318-2.094.849-4.084 1.379-6.127.424-1.518.901-2.984 1.113-4.555l.477.157v.104c.477.943-.212 2.88-.477 4.033-.053-.105-.159-.157-.212 0-.212.471-.477.995-.053 1.414-.265 1.466-.477 2.932-.318 4.398 0 .262.424.262.424 0 .106-1.518.265-3.037.477-4.556.636-.314 1.166-.733 1.697-1.152 0 .21-.053.367-.053.576l-.053.053c-.107.105-.054.21 0 .262-.213 1.675-.425 3.404-.372 5.08 0 .261.478.261.478 0 0-1.781.212-3.614.424-5.395.318-.419.583-.89.848-1.361.106-.157-.16-.314-.265-.157-.16.21-.318.471-.424.68v-.157c.159-1.1.265-2.199.477-3.351V35.4h.371c.159 0 .212-.367 0-.42zm-1.166 2.305l-.16 1.257c-.424.47-.954.89-1.484 1.256a1.156 1.156 0 01-.265.157c.106-.68.212-1.361.371-2.042.16-.89.583-1.885.318-2.775.53.157 1.114.21 1.59.262 0 .576-.317 1.466-.37 1.885zm0-10.892c-.584-.786-1.379-1.362-2.121-1.938-.901-.733-1.485-1.675-2.227-2.513-.212-.21-.477.104-.318.314.69.785 1.22 1.676 1.962 2.356.742.734 1.59 1.257 2.226 2.095.212.262.742 0 .478-.314zm4.293-4.713c-.636.995-1.166 2.042-1.802 3.037-.371.576-.795 1.152-.901 1.833-.053.314.424.314.477 0 .053-.576.583-1.205.901-1.676.636-.942 1.113-1.938 1.75-2.932.264-.262-.213-.524-.425-.262zM42.2 14.82c-1.008 1.152-2.97-.68-4.136.052-.795.472-1.484 1.466-2.067 2.147-.53.681-1.22 2.514-2.174 2.723-.318.053-.16.524.106.472.69-.157 1.007-.629 1.325-1.205.743-1.257 1.697-2.461 2.704-3.508 1.166-1.152 3.34 1.152 4.56-.262.317-.262-.107-.68-.319-.42zm-6.998-3.3c-.477-.785-1.007-1.518-1.431-2.304-.371-.68-.636-1.414-1.273-1.885-.212-.157-.53.105-.318.314.583.524.795 1.205 1.114 1.886.424.785.954 1.57 1.484 2.304.159.157.583-.053.424-.315zm1.961-2.827c-.053-.105-.159.052-.106.105.424.523.584 1.204.743 1.78.053.105.212.053.159-.052-.16-.629-.318-1.31-.796-1.833zM21.896 5.865c0-.21-.372-.21-.372 0 .16 2.566-2.491 3.928-4.453 5.027-.265.157-.053.524.265.42 2.12-1.048 4.772-2.724 4.56-5.447zm-10.233 6.336v.471c.53-.052.53-.47 0-.47zm31.173 19.743c-.16-.262-.53 0-.371.21.689 1.204 0 3.403-.16 4.712-.212 1.624-.212 3.247-.105 4.87 0 .262.37.262.37 0 .16-1.78.054-3.56.266-5.341.159-1.466.795-3.142 0-4.451zm1.219-.105c-.265-.052-.424.367-.106.419.583.21-.106 4.66.053 5.341.053.315.53.157.477-.104-.159-1.152.106-2.514.106-3.666 0-.524.16-1.833-.53-1.99zm2.174.942c0-.157-.212-.104-.212.053 0 .68-.16 1.361-.319 2.042-.053.262.319.367.372.105.106-.733.265-1.467.159-2.2zM15.268 4.503c-2.12 2.985-4.4 5.865-6.414 8.85-.16.21.212.42.318.21 2.014-3.038 4.24-5.97 6.308-8.955.053-.105-.159-.21-.212-.105zm-.106.734c-.795 1.623-1.75 3.142-2.65 4.713-.16.261.211.471.37.21.902-1.572 1.856-3.09 2.651-4.714.106-.21-.212-.419-.37-.21zm1.061 3.246c.053-.104-.16-.157-.16-.052-.211.733-1.908 1.676-1.06 2.461.106.105.319-.052.213-.21-.637-.523.848-1.57 1.007-2.199zm.901 1.833c0-.21-.318-.21-.318 0v.314a.166.166 0 00.318 0v-.314z"/></g><defs><clipPath id="clip0"><path fill="#fff" d="M0 0h51v52H0z"/></clipPath></defs></svg>