<svg width="40" height="40" fill="none" xmlns="http://www.w3.org/2000/svg"><path d="M37.611 14.15a35.554 35.554 0 00-1.703-3.827v-.04c.04-.081-.04-.162-.121-.162-1.622-3.142-3.852-6.042-6.973-7.734C26.908 1.34 24.435.413 22.206.292c-2.838-.12-5.352.484-8.108 1.008-1.663.362-3.406 1.53-4.906 2.336-1.135.604-2.067 1.57-2.878 2.578-1.744 1.45-3.325 3.706-4.338 5.64-2.31 4.511-2.716 10.231-.568 14.863 2.27 4.834 5.108 9.346 10.216 11.561 2.27 1.007 4.095 1.692 6.65 1.692 2.513 0 5.553-.282 7.864-1.33 2.31-1.046 4.338-2.053 6.284-3.745 2.067-1.813 3.162-4.029 4.622-6.284 2.837-4.391 2.31-9.789.567-14.462zM18.071 1.701c3.04-.402 6.08 0 8.756 1.169-1.013.281-2.027.604-3.04.886-.568.16-2.392 1.047-2.798.846-.364-.161-4.58-1.773-5.837-2.256.932-.282 1.905-.524 2.918-.645zM2.096 14.713c.73-2.578 2.19-4.511 3.852-6.525.203.765.243 1.812.405 2.296.406 1.49 1.014 2.497.244 3.947-.528 1.008-.811 2.296-1.176 3.384-.77 2.336-1.703 2.981-4.176 3.021-.121-2.054.284-4.19.852-6.123zM5.22 31.108h.122c.689-.161 1.905-.806 2.473-.12.77.926 1.986 1.57 2.96 2.255 1.337.927 3 1.41 3.405 3.182.162.726.243 1.37.648 1.974-3.932-1.007-7.338-3.988-9.608-7.29zm26.35 2.982c-2.189 2.014-4.864 3.263-7.702 3.988.203-.524.365-.886.446-1.49.162-1.048 1.865-1.652 2.635-2.135.648-.403 1.662-1.37 2.473-1.41.932-.04 1.865.12 2.797.362-.203.242-.446.443-.649.685zm1.46-1.49c-1.176-.403-2.351-.524-3.568-.564-1.135-.04-2.108 1.007-3 1.57-.77.484-2.067.927-2.513 1.773-.446.846-.527 1.893-.649 2.86a24.8 24.8 0 01-5.716.564c-.608 0-1.216-.04-1.784-.161.04-.04.081-.08.081-.12.04-.081.122-.202.162-.283.244-.403-.121-.806-.527-.806-.405-.886-.364-2.094-.892-2.94-.608-1.007-2.432-1.49-3.364-2.135-1.217-.806-2.23-1.813-3.406-2.578-.527-.363-2.351.805-2.635.926-.081.04-.122.121-.122.162a3.68 3.68 0 01-.324-.524c-1.297-2.095-2.473-4.39-3.121-6.768-.163-.523-.244-1.047-.325-1.57 1.216-.04 3.203-.121 4.014-.967 1.054-1.088 1.175-2.94 1.662-4.31.405-1.25 1.419-2.417 1.216-3.747-.284-1.732-1.621-3.303-2.027-5.075.04-.08.122-.121.162-.202 1.622-1.57 2.96-2.98 5.108-3.947a32.235 32.235 0 013.04-1.249C16.085 4.2 18.8 4.522 20.747 5.65c.69.403 1.379-.201 2.027-.443 1.5-.524 3.081-.846 4.581-1.41.284-.08.365-.322.365-.564 1.581.806 3 1.893 4.216 3.263 1.176 1.33 2.27 2.9 3.203 4.552-1.622 1.853-.932 3.746-.851 6.324.04 1.047.08 2.336.648 3.223.649 1.007 2.149 1.893 2.473 2.98.04.162.163.282.284.323-.73 3.182-2.554 6.284-4.662 8.7zm4.54-10.474c-1.297-1.128-2.108-2.376-2.35-4.068-.163-1.168-.244-2.336-.447-3.505-.243-1.208.122-2.054.568-2.94 1.54 2.94 2.554 6.203 2.635 9.345 0 .524 0 1.007-.04 1.53-.122-.16-.244-.24-.365-.362z" fill="#204686"/><path d="M28.044 17.493c-.567-1.007-1.864-1.652-2.756-2.336-1.176-.887-2.514-1.974-3.852-2.579-.203-.08-.405-.08-.567 0 .04-.12.121-.241.162-.362.08-.161-.162-.242-.284-.12-1.46 2.174-3.203 4.188-5.067 6.041-1.379 1.37 0 2.9.486 4.431.365 1.168.73 3.585 2.31 3.787 2.88.362 5.636.322 8.433-.403.162-.04.365-.201.365-.363.243-1.61.324-3.262.487-4.874.08-.846.04-1.692.283-2.497.04-.242.081-.524 0-.725zm-1.216 1.49c-.122 1.49-.203 2.94-.324 4.431-.122 1.813-.852 1.813-2.514 1.974-.973.08-1.905.201-2.878.12-.77-.04-1.5-.12-2.23-.12-1.054-.04-1.338-1.813-1.58-2.538-.285-.886-1.622-3.263-.974-4.068 1.46-1.813 3.122-3.464 4.257-5.519.04.322.365.524.648.484 1.055.564 2.028 1.41 3.041 2.014.649.402 1.216 1.128 1.905 1.49.811.443.73.886.65 1.732z" fill="#204686"/><path d="M16.936 17.614c0-.121-.203-.121-.203 0 0 .564-.243 1.128-.365 1.692-.162.644-.283 1.289-.405 1.893-.04.12.081.241.203.201.04 0 .08 0 .121-.04.122-.04.122-.201.04-.242.122-.604.204-1.168.325-1.772.122-.564.365-1.128.284-1.732zm-.04 4.713c-.365-.04.932-5.438.851-6.123 0-.08-.122-.04-.162 0-.04 2.095-1.135 4.109-1.095 6.244 0 .12.122.201.203.16l.162-.04c.162 0 .162-.241.04-.241z" fill="#204686"/><path d="M18.314 14.794c-.202 1.773-.364 3.545-.77 5.317-.284 1.249-.77 2.659-.73 3.948 0 .242.365.242.365 0-.04-1.53.568-3.102.811-4.592.284-1.53.405-3.102.568-4.673.08-.161-.203-.161-.244 0zm.812-1.208c0 2.175-.365 4.31-.69 6.445-.121.886-.243 1.732-.364 2.618-.081.806-.325 1.652-.203 2.457.04.202.324.121.324-.04.284-3.827 1.216-7.613 1.176-11.48.04-.162-.243-.162-.243 0zm1.013.161c-.568 1.812-.487 3.826-.73 5.68-.162 1.288-.365 2.537-.527 3.826-.122.765-.325 1.49-.203 2.256.04.201.324.12.324-.04.081-1.894.487-3.787.73-5.64.243-1.974.162-4.068.69-6.002.04-.16-.203-.242-.284-.08zm1.013-.967c-.162 2.175-.486 4.35-.81 6.485-.284 2.014-.811 4.15-.852 6.204 0 .16.284.241.325.04.486-2.135.608-4.35.932-6.526.284-2.054.568-4.109.69-6.203.04-.202-.285-.202-.285 0zm.933.604c0-.201-.325-.201-.325 0 .04 2.135-.405 4.27-.689 6.405-.243 2.095-.892 4.19-.973 6.284 0 .201.284.242.325.04a72.66 72.66 0 00.972-5.962c.325-2.255.73-4.511.69-6.767zm.729.322c-.08-.12-.283 0-.202.121.243.443-.081 1.53-.162 2.055-.041.402-.122.765-.163 1.168a652.256 652.256 0 00-.364 3.061c-.122 1.047-.203 2.095-.325 3.142-.121.927-.365 1.893-.243 2.82.04.201.324.201.324 0 .081-2.216.487-4.471.69-6.687.121-1.128.243-2.296.364-3.424.081-.765.487-1.53.081-2.256zm.77.484c-.121 1.732-.567 3.424-.81 5.156-.244 1.974-.406 3.947-.69 5.921-.162 0-.202.242-.08.322l.121.121c.122.08.284 0 .324-.12.284-1.813.406-3.666.608-5.479.203-1.974.73-3.907.852-5.921 0-.202-.325-.202-.325 0zm.406 1.007c.04 1.853-.202 3.786-.446 5.64-.243 1.65-.689 3.423-.81 5.035 0 0 .324.2.364-.04.446-3.505 1.298-7.01 1.216-10.595-.04-.201-.324-.242-.324-.04zm.811 1.369c-.202 1.41-.324 2.78-.486 4.19-.163 1.53-.244 3.182-.73 4.672-.081.202.284.323.324.081.446-1.168.487-2.417.608-3.625.203-1.733.325-3.505.568-5.237.04-.201-.243-.282-.284-.08zm1.905 1.451c-.243 1.329-.608 2.658-.851 4.028a7.916 7.916 0 00-.162.966c.121-1.007.202-2.014.324-3.02.162-1.21.608-2.619.284-3.828-.04-.2-.365-.12-.324.081.243 1.168-.163 2.498-.365 3.706.162-1.208.284-2.417-.122-3.585-.081-.201-.365-.12-.284.08.487 1.45.122 2.981-.08 4.472-.204 1.57-.609 3.142-.771 4.753 0 .161.284.201.324.04.203-.926.365-1.853.527-2.78-.04.364-.04.726-.04 1.129 0 .16.243.241.324.12v.081c-.081.604-.324 1.209-.284 1.813 0 .161.284.161.284 0 .162-2.699.933-5.358 1.338-8.056.04-.081-.122-.121-.122 0zm.406 1.369c-.04-.201-.324-.12-.284.08.284 1.934-.284 3.868-.649 5.761-.04.242.325.363.365.12.365-1.973.933-3.947.568-5.96zm8.716-7.654c-.04-.04-.122-.04-.203 0l-.202.162c.121-.444.202-.846.162-1.29 0-.16-.243-.16-.243 0 0 .806-.284 1.572-.527 2.337-.203.765-.447 1.53-.73 2.256-.081.16.202.282.283.12.365-.725.568-1.49.73-2.296.081-.322.162-.644.284-.966.04.04.081.04.122.04.243-.161.04.846.04.926a11.06 11.06 0 01-.324 1.088c-.284.886-.608 1.773-.77 2.659-.04.241.324.322.364.08.163-1.047.528-2.094.811-3.101.243-.564.568-1.45.203-2.014zm.608.847c0-.162-.243-.162-.243 0-.081 1.812-.69 3.424-1.176 5.156-.04.08.04.201.122.201.04 0 .08 0 .121.04.163.04.244-.16.122-.241-.081-.04.649-2.377.73-2.619a18.11 18.11 0 00.324-2.537zm.609.604c0-.161-.284-.161-.244 0 .081 1.168-.446 2.296-.77 3.383-.162.524-.365 1.048-.486 1.571-.081.403-.122.846-.365 1.209-.081.161.121.322.243.201.527-.644.608-1.732.81-2.538.366-1.208.893-2.537.812-3.826zm.242 1.651h-.202c-.163 0-.163.282 0 .282.08 0-.487 2.216-.528 2.377-.243.967-.648 1.893-.81 2.9-.04.161.202.282.243.121.405-.927.649-1.933.892-2.9.203-.846.527-1.732.527-2.619.04-.08-.04-.16-.122-.16zm.325 2.739c-.041-.04-.041-.04-.081-.04.162-.443.445-.967.121-1.41-.081-.12-.324 0-.203.121.284.443-.364 1.652-.486 2.095-.284 1.007-.649 2.014-.973 3.061-.081.202.243.322.324.121.527-1.209.852-2.498 1.176-3.787v-.04c.162.443-.162 1.29-.284 1.692-.121.443-.162.886-.203 1.37 0 .04.041.12.082.12.689.363.324 1.531.121 2.135-.08.202.243.282.284.081.284-.765.324-1.49.162-2.296 0-.04-.081-.08-.121-.08-.446 0 .121-1.934.162-2.216.04-.443.121-.524-.081-.927zM16.774 1.26c-.244.281-.284.684-.446 1.006-.122.323-.446.484-.446.846 0 .161.243.161.243.04.081-.322.284-.523.405-.805.122-.322.163-.685.365-1.007.081-.08-.04-.161-.121-.08zm1.419-.524c.04-.162-.203-.202-.243-.081-.081.403-.365.765-.527 1.128-.244.403-.406.846-.608 1.289-.122.201.162.362.243.161.08-.12.08-.161.08-.242.163-.443.366-.846.568-1.248.203-.323.406-.645.487-1.007zm.365-.081c-.203.564-.406 1.168-.73 1.692-.203.282-.568.604-.527.967 0 .16.203.16.243.04.162-.403.446-.725.649-1.128.243-.483.405-1.007.567-1.49.081-.162-.162-.202-.202-.081zm.851-.242h-.122c-.121 0-.203.202-.04.202-.163.523-.365 1.007-.568 1.53-.162.403-.243.726-.527 1.048-.081.08-.04.201.081.201.365 0 .487-.443.608-.725.243-.685.527-1.37.649-2.135.04-.04 0-.12-.081-.12zM20.18.09c0-.12-.163-.12-.163 0 .04.806-.405 1.531-.81 2.176-.204.362-.487.765-.447 1.208 0 .121.162.121.243.08l.163-.16c.08-.08 0-.202-.081-.202.121-.443.405-.886.608-1.289.324-.564.527-1.168.486-1.812zm.202.364c-.08.564-.365 1.047-.527 1.61-.162.605-.284 1.25-.689 1.733-.162.161.122.403.243.242.365-.443.527-.967.649-1.531.162-.685.446-1.33.567-2.014 0-.12-.243-.201-.243-.04z" fill="#204686"/><path d="M20.95.856c-.203 1.33-1.338 2.337-1.46 3.666 0 .201.325.201.325 0 .121-1.289 1.256-2.336 1.378-3.625.081-.161-.203-.202-.243-.04zm.892-.04h-.122c-.121 0-.081.161 0 .161-.203-.04-.851 1.894-.932 2.135-.203.604-.203 1.209-.608 1.732-.081.121.08.282.202.202.446-.282.487-.886.568-1.37.162-.967.527-1.853.973-2.739 0-.04 0-.12-.081-.12zm1.175.04c-.08.645-.567 1.048-.81 1.652-.244.645-.366 1.249-.73 1.813.08-.605.324-1.209.527-1.773.243-.604.608-1.168.608-1.853 0-.16-.243-.16-.243 0 0 .685-.446 1.33-.73 1.974-.243.604-.527 1.209-.487 1.853 0 .161.162.161.244.08.04.04.121.081.162.04.527-.402.648-1.087.81-1.69.203-.726.811-1.29.852-2.055 0-.121-.162-.121-.203-.04zm.406.444c-.081.725-.325 1.37-.69 2.014-.243.402-.486.765-.527 1.208 0 .161.203.161.244.04.162-.564.486-1.047.77-1.57a4.752 4.752 0 00.446-1.692c0-.162-.243-.162-.243 0zm.851 0c0-.162-.284-.162-.243 0 .04.523-.203 1.007-.325 1.49-.121.524-.283 1.007-.689 1.41-.162.161.081.403.244.242.405-.403.567-.887.689-1.41.121-.564.365-1.128.324-1.732z" fill="#204686"/><path d="M24.882 1.501c0-.161-.284-.161-.284 0 .041.564-.162 1.047-.405 1.53-.162.323-.203.766-.527.967-.122.081-.04.323.122.242.405-.12.486-.524.648-.886.203-.604.527-1.128.446-1.853zm1.216.846c-.283.08-.527.282-.77.443.122-.443.527-.846.73-1.249.04-.12-.122-.201-.162-.08-.244.483-.892 1.047-.852 1.61 0 .122.122.162.203.081.243-.2.446-.443.73-.563-.122.322-.244.604-.487.845-.121.121.081.282.162.162.325-.323.446-.725.527-1.169 0-.04-.04-.12-.08-.08zM4.855 8.51C3.031 12.015 2.342 15.922.963 19.547c-.04.161.162.242.244.161.08-.04.202-.12.283-.16.163-.041.081-.323-.08-.283h-.041c.567-1.57.932-3.263 1.46-4.874.648-1.974 1.215-3.988 2.107-5.881 0 0-.08-.04-.08 0zm.325.201c-.447.605-.447 1.49-.69 2.176a82.074 82.074 0 01-.932 2.94 76.39 76.39 0 00-.933 2.82c-.243.806-.365 1.652-.648 2.457-.081 0-.122.08-.081.161 0 .04 0 .08.04.121 0 .08.081.121.162.121-.121.282-.243.644-.324.886-.04.121.122.242.203.121.08-.282.202-.524.324-.765.122-.282.284-.685.608-.806.162-.04.081-.282-.081-.242-.162.04-.324.161-.446.282.203-.523.284-1.087.405-1.651.203-.927.568-1.853.852-2.78.324-.966.608-1.933.892-2.9.162-.524.284-1.007.446-1.53.121-.404.162-1.048.405-1.37.081-.04-.122-.161-.203-.04z" fill="#204686"/><path d="M6.193 8.51c-.567 1.692-1.013 3.424-1.5 5.156.365-1.651.973-3.263 1.095-4.914 0-.161-.203-.161-.244 0-.162 1.651-.77 3.222-1.175 4.834-.325 1.49-.69 2.94-1.257 4.39-.04.162.203.242.284.121.203-.403.324-.806.486-1.208-.04.12-.04.201-.08.322-.203.685-.447 1.33-.568 2.014-.122.201-.284.363-.446.524-.122.12.04.322.162.201.08-.04.121-.08.203-.161v.242c0 .201.324.201.324 0l.122-.725c.283-.444.445-.967.486-1.49 0-.081-.04-.122-.081-.162.284-1.087.649-2.175.892-3.223.446-1.973 1.013-3.907 1.58-5.84 0-.161-.242-.242-.283-.08zm.446 1.45c0-.16-.243-.16-.243 0 .121 1.49-.73 3.102-1.176 4.512-.527 1.611-1.013 3.263-1.095 4.955 0 .2.325.2.325 0 .121-1.813.648-3.505 1.135-5.197.405-1.37 1.176-2.82 1.054-4.27zm.527 1.571c-.325 1.974-.973 3.827-1.622 5.68.122-.483.203-1.007.325-1.49.364-1.612 1.094-3.263 1.135-4.955 0-.161-.203-.161-.244 0-.121 1.53-.77 2.98-1.094 4.471-.203.886-.406 1.813-.649 2.699-.121.564-.162 1.128-.527 1.611-.081.121.04.242.162.242-.08.201.284.322.325.08.81-2.739 1.986-5.397 2.391-8.257.122-.202-.162-.282-.202-.08zm-4.581 8.701c-.04.161-.081.322-.163.443-.08.202-.202.322-.283.524-.04.08.04.161.121.08.122-.12.203-.322.244-.443.04-.201.121-.402.162-.604.08-.04-.04-.08-.081 0zM5.99 30.02c-.121-.12-.324.081-.203.202.609.483.041 1.692.203 2.336.04.121.203.121.243 0 .122-.443.122-.926.122-1.37 0-.402-.04-.926-.365-1.168zm.81 1.29c0-.363-.04-.726-.283-1.007-.04-.04-.081 0-.081.04.243.403.162.846.203 1.249 0 .443.162.886.162 1.329 0 .12.203.12.203 0 .08-.564-.163-1.088-.203-1.611zm.812-.121c0-.605-.04-1.249-.446-1.732-.081-.08-.203.04-.162.12.446.605.365 1.37.365 2.055 0 .846.243 1.692.202 2.538 0 .16.243.16.243 0 .122-1.048-.162-2.014-.202-2.981zm.608-1.088c0-.04-.04-.08-.081-.08l-.162-.04c-.163-.041-.203.2-.082.24.325.122.203 1.934.203 2.257.04.765.081 1.57.284 2.296.04.16.284.08.284-.08-.244-1.532-.244-3.062-.446-4.593zm1.013 4.149c-.162-.926-.608-1.772-.689-2.739 0-.08-.081-.08-.081 0 .04.645.203 1.208.405 1.853.284.926.365 2.014.365 2.98 0 .162.203.162.243 0 0-.724-.08-1.409-.243-2.094zm1.217 1.974c-.487-.604-.325-1.49-.406-2.175-.121-.887-.202-1.773-.608-2.578-.08-.121-.243 0-.203.12.406.967.527 2.055.568 3.102.04.645.04 1.29.446 1.773.122.16.365-.081.203-.242zm.04-4.149c-.04-.161-.324-.08-.243.08.486 1.572.527 3.143.608 4.794 0 .202.284.202.284 0 .08-1.611-.162-3.343-.649-4.874zm1.42 3.465c-.082-.363-.082-.766-.163-1.169-.081-.483-.324-.846-.446-1.289-.04-.161-.284-.08-.243.08.203.766.486 1.37.527 2.216.04.685.202 1.33.243 2.014 0 .161.243.202.284.04.121-.644-.081-1.289-.203-1.893zm.648-.202c-.04-.605-.081-1.209-.446-1.692-.122-.161-.406 0-.284.161.405.564.365 1.33.405 1.974.041.765.244 1.49.406 2.215.04.161.324.121.324-.04-.121-.886-.365-1.692-.405-2.618z" fill="#204686"/><path d="M13.125 35.62c0-.564-.08-1.128-.446-1.571-.121-.121-.324.04-.243.201.405.524.365 1.168.365 1.773 0 .684.243 1.288.203 1.973 0 .202.324.202.324 0 .122-.805-.162-1.611-.203-2.376zm.973 2.054c-.162-.362-.162-1.128-.203-1.33-.08-.483-.121-1.047-.324-1.53-.08-.201-.365-.04-.284.161.284.605.284 1.45.365 2.095.04.322.081 1.087.527 1.087.081 0 .162-.08.162-.16v-.323c.041-.08-.202-.12-.243 0zm10.176-2.134c-.04.885-.122 1.731-.243 2.577-.04.202.243.202.243.04.081-.886.162-1.732.162-2.618 0-.08-.162-.08-.162 0zm1.216-1.169c0-.161-.202-.12-.202 0-.04.161-.122.322-.163.524-.08.08.041.241.122.12v1.209c0 .685-.162 1.33-.203 1.974 0 .161.244.201.244.04.243-1.33.202-2.578.202-3.867zm.365-.121c-.08-.08-.243.04-.162.161.365.443.203 1.128.162 1.652-.04.564-.04 1.128-.04 1.692 0 .201.324.201.283 0 0-.726-.04-1.45 0-2.216.082-.443.04-.926-.243-1.289zm.851-.161c-.04-.161-.284-.08-.243.08.324 1.008.203 1.934-.04 2.941-.041.202.243.282.324.08a5.39 5.39 0 00-.04-3.101z" fill="#204686"/><path d="M27.315 33.928a.142.142 0 00-.284 0c-.04 1.087-.04 2.135-.04 3.222 0 .242.364.242.364 0 0-1.087 0-2.135-.04-3.222zm.527-.604c0-.081-.081-.081-.081 0-.122 1.047-.122 2.175-.081 3.222 0 .161.243.161.243 0 0-1.047 0-2.175-.081-3.222zm.648-.644c-.04-.122-.202-.081-.162.04.244 1.369-.08 2.658-.04 3.987 0 .161.243.161.243 0 .04-1.289.243-2.699-.04-4.028zm1.216.04c-.04-.04-.08-.04-.121 0 0 .04-.04.08-.04.12 0-.12-.042-.241-.082-.362 0-.04-.04-.08-.122-.08h-.162c-.162 0-.121.2 0 .2.487.04-.08 1.693-.162 1.974-.122.444-.243.927-.162 1.41.04.161.243.121.243-.04 0-1.007.568-1.974.446-2.98.04 0 .081 0 .081-.041-.04.12 0 .644-.04.846-.04.201-.082.443-.122.644a17.46 17.46 0 00-.203 1.531c0 .12.162.161.203.04.203-.684.162-1.45.284-2.135.121-.443.203-.765-.04-1.128zm.608.16c-.04-.16-.243-.08-.243.081.162.725-.162 1.49 0 2.216.04.12.203.12.203 0 .203-.725.243-1.571.04-2.296zm1.176.846c0-.08-.121-.08-.121 0 0 .323-.04.685-.081 1.008 0 .16.283.16.243 0 0-.323 0-.685-.04-1.008zM9.477 5.247c-.852.927-1.622 1.934-2.392 2.94L5.99 9.638c-.243.323-.69 1.491-1.135 1.612-.162.04-.081.242.081.201.203-.04.405-.04.446-.281.243-.726.81-1.41 1.257-2.015.973-1.289 1.905-2.618 3-3.826.04-.04-.081-.161-.162-.08zm.203 1.652c-.933 1.208-1.785 2.497-2.717 3.746-.932 1.249-1.946 2.417-2.797 3.706-.081.12.121.242.202.12.811-1.167 1.703-2.295 2.595-3.423 1.014-1.33 1.865-2.74 2.878-4.069.041-.08-.121-.16-.162-.08zM9.112 8.51c-2.554 3.263-4.46 7.009-6.325 10.675-.08.12.122.241.203.12.487-.805.851-1.691 1.257-2.537.527-1.048 1.135-2.055 1.743-3.062 1.014-1.732 2.027-3.504 3.243-5.115 0-.081-.08-.162-.121-.081zm-.486 2.82c-.446 1.168-1.338 2.296-1.987 3.343-.69 1.128-1.378 2.296-2.067 3.424a35.935 35.935 0 00-1.784 3.223c-.284.604-.649 1.248-.487 1.933.04.121.284.121.243-.04-.08-.927.487-1.813.933-2.618a57.207 57.207 0 011.946-3.424 207.696 207.696 0 011.824-3.102c.527-.886 1.216-1.773 1.54-2.74.082-.04-.12-.08-.161 0zm-1.014 3.182c-1.014 2.014-2.109 4.028-3.082 6.083-.81 1.732-1.946 3.706-2.027 5.68 0 .2.284.2.325 0 .121-2.015 1.297-4.029 2.148-5.842.892-1.933 1.946-3.826 2.879-5.76.04-.161-.162-.282-.243-.161zm1.824 7.412c-.284-.161-.527-.322-.81-.484 0-.04.04-.08.04-.16.04-.162-.203-.202-.243-.081 0 .04 0 .04-.041.08-.203-.12-.405-.241-.568-.322l-.243-.12c.203-.686.325-1.37.243-2.055 0-.121-.202-.08-.202.04.08.604-.04 1.29-.244 1.934-.283-.121-.608-.242-.85-.363A46.822 46.822 0 018.22 16.89c.08-.162-.162-.282-.243-.121a39.575 39.575 0 00-1.744 3.464c-.04-.04-.08-.04-.08-.08-.122-.121-.285.08-.163.16.04.04.122.081.162.121-1.094 2.458-1.946 4.995-2.675 7.614-.04.201.243.282.324.08.73-2.537 1.581-5.075 2.595-7.492.283.16.567.282.85.443-.283.926-.729 1.813-.972 2.578-.73 2.135-1.54 4.23-1.987 6.445-.04.201.244.282.284.08.487-2.336 1.297-4.551 2.027-6.807.243-.685.568-1.41.811-2.175.284.16.527.322.81.483-1.175 3.424-2.634 7.09-2.756 10.715 0 .202.324.202.324 0 .163-3.585 1.5-7.17 2.636-10.594.243.161.486.322.77.443.243.04.405-.242.243-.322z" fill="#204686"/><path d="M8.544 28.288c0-.12-.121-.16-.202-.201.04-.161.08-.322.121-.524.406-1.651 1.217-3.424 1.014-5.156 0-.12-.243-.12-.203 0 .162 1.692-.648 3.465-1.054 5.076-.486 1.893-.73 3.867-1.216 5.76-.04.201.243.282.324.08.244-.886.406-1.772.568-2.698.121.08.324 0 .324-.161-.162-.725.365-1.41.324-2.175zm1.703-4.431c-.162 3.223-1.54 6.244-1.662 9.467 0 .201.324.201.324 0 .203-3.223 1.46-6.284 1.581-9.467 0-.16-.243-.16-.243 0zm1.216 1.169c-.04-.162-.243-.081-.203.04.365 1.49-.203 3.222-.567 4.672-.325 1.45-.69 2.86-.69 4.351 0 .201.284.201.284 0 .081-1.813.568-3.545.892-5.357.284-1.169.608-2.458.284-3.706zm1.176 1.571c-.081-.08-.203.04-.122.12.851 1.048-.121 3.263-.405 4.431-.406 1.773-1.216 3.586-.69 5.439.041.201.325.12.284-.081-.527-1.974.365-4.19.852-6.123.243-1.047.851-2.82.08-3.786zm1.459 1.893c-.162 1.53-.608 3.021-.851 4.511-.243 1.41-.284 2.9-.608 4.31-.04.202.284.283.324.081.324-1.53.365-3.102.608-4.673.243-1.41.608-2.82.77-4.23 0-.16-.243-.16-.243 0zm3.243 4.068c-.162.08-.324.202-.486.282.243-1.087.486-2.215.527-3.343 0-.161-.203-.161-.243 0-.04 1.208-.365 2.417-.69 3.585-.324.161-.648.362-.972.483-.122.04-.284.121-.406.162.122-.444.203-.927.325-1.41.243-1.25.73-2.538.567-3.827 0-.161-.243-.161-.243 0 .162 1.37-.406 2.78-.69 4.109-.08.402-.202.805-.283 1.208a2.89 2.89 0 00-.811.363c-.203.12 0 .443.203.322a1.26 1.26 0 01.527-.242c-.284 1.168-.527 2.337-.568 3.505 0 .201.284.201.284 0 .081-1.249.324-2.417.608-3.626.243-.08.487-.12.69-.241a4.85 4.85 0 00.648-.323c-.365 1.29-.73 2.619-.851 3.948 0 .161.283.201.283.04.203-1.41.608-2.82.933-4.189l.851-.483c.243-.121.04-.484-.203-.323z" fill="#204686"/><path d="M18.355 30.101c0-.12-.243-.161-.203 0 .163 2.78-1.094 5.317-1.662 8.016-.04.202.284.282.325.08.567-2.698 1.743-5.276 1.54-8.096zm1.622.161c-.041-.12-.284-.08-.244.08.446 1.21-.365 2.901-.648 4.15-.244 1.248-.527 2.457-1.014 3.625-.081.161.203.282.284.121.567-1.289.81-2.659 1.094-4.028.284-1.249 1.014-2.659.527-3.948zm5.878-3.907c-1.257 1.37-2.392 3.061-3.284 4.673-.121.201.203.362.325.16.04-.08.08-.16.162-.24.324 1.369-.325 2.738-.69 4.068-.04.08-.04.16-.08.241-.365-.362-.609-.765-.527-1.329.04-.201-.244-.242-.325-.08.284-.967.487-1.894.487-2.941 0-.161-.244-.161-.244 0 0 2.538-1.459 4.673-1.905 7.13-.04.201.284.322.324.08 0-.04 0-.08.04-.12.285-1.37.852-2.66 1.258-3.989-.082.685.283 1.25.77 1.692-.284.806-.568 1.652-.73 2.458-.04.16.203.241.243.08l.73-2.296c.203.161.446.322.649.443.121.08.284 0 .284-.12 0 .08-.041.12-.041.2-.04.202.243.283.284.081.527-1.41.932-2.86 1.338-4.31.202-.805.486-1.692.121-2.497-.04-.121-.243-.04-.162.08.365.886-.04 1.893-.284 2.78-.284 1.047-.648 2.094-1.013 3.142-.04 0-.122 0-.122.08-.04.161-.04.282-.08.443 0-.08 0-.16-.082-.201-.243-.161-.527-.322-.73-.483.122-.363.243-.726.325-1.128.364-1.169.73-2.256.405-3.465 0-.08-.081-.08-.122-.08.892-1.45 1.865-2.94 2.96-4.19.081-.281-.162-.523-.284-.362zm-.811 9.063c.446-1.49.892-2.98 1.014-4.511 0-.161-.244-.161-.244 0-.202 1.611-.77 3.142-1.216 4.672-.04.202.162.282.284.162l.121-.121c.163-.04.122-.121.041-.202zm1.825-2.416l-.041.04c.446-1.168 1.013-2.296 1.095-3.545 0-.161-.244-.161-.244 0-.162 1.49-.932 2.74-1.419 4.109-.08.201.162.282.284.16.243-.2.405-.362.568-.603.121-.121-.122-.282-.243-.161zm6.041-4.714v.202c0 .201.324.201.324 0v-.202c0-.201-.325-.201-.325 0zM13.49 16.244c-1.379-.886-2.676-1.853-3.81-3.021-.082-.08-.163-.08-.204-.04.081-.121.122-.282.203-.403.081-.121-.122-.282-.203-.121-.689 1.33-1.135 2.74-1.824 4.028-.081.121.122.242.203.121.608-1.088 1.013-2.296 1.54-3.464 0 .04 0 .08.04.08 1.136 1.209 2.474 2.216 3.893 3.021.162.202.324-.08.162-.2z" fill="#204686"/><path d="M10.085 15.801c-.04-.161-.284-.161-.244 0 .081.564-.243 1.088-.405 1.571-.04.161.162.201.243.08.162-.523.487-1.087.406-1.651zm-.852 4.955c-.162-.242-.162-.443-.04-.685.08-.121-.122-.202-.162-.121-.203.282-.203.604-.041.927.122.16.365.04.243-.121zM19.936 6.335c0 2.014-.162 4.028-.243 6.042 0 .242.405.242.405 0 .081-2.014.162-4.028.162-6.042 0-.202-.324-.202-.324 0zm-4.54 12.125c-.568.16-.973.845-1.298 1.289-1.013 1.329-2.148 2.578-3.243 3.786-.162.161.081.403.243.242.892-.927 1.744-1.974 2.554-2.981.406-.524 1.176-1.813 1.825-2.014.203-.08.121-.363-.081-.322zm3.486 10.997c-.405-1.088-.486-2.216-.608-3.384-.04-.242-.405-.242-.405 0 .121 1.168.162 2.377.608 3.464.08.282.486.161.405-.08zm13.216-2.538c-.08 0-.202-.04-.324-.04a1.223 1.223 0 00-.203-.283c-.121-.12-.324.081-.203.202 0 0 0 .04.041.04-.567-.08-1.257-.201-1.824-.443.04-.242.04-.443.04-.685 0-.241-.324-.241-.365 0 0 .161 0 .363-.04.524-.365-.242-.608-.524-.608-.927 0-.241-.365-.241-.365 0 0 .605.405 1.048.932 1.33-.405 2.82-1.905 5.478-1.946 8.338 0 .202.284.242.325.04.243-1.61.648-3.142 1.054-4.713.324-1.168.689-2.296.851-3.504l.365.12V27c.365.725-.162 2.216-.365 3.102-.04-.08-.122-.12-.162 0-.162.363-.365.765-.04 1.088-.203 1.128-.365 2.255-.244 3.383 0 .202.325.202.325 0 .08-1.168.202-2.336.364-3.504.487-.242.892-.564 1.298-.886 0 .16-.04.282-.04.443l-.041.04c-.081.08-.041.161 0 .201-.163 1.29-.325 2.619-.284 3.908 0 .201.365.201.365 0 0-1.37.162-2.78.324-4.15.243-.322.446-.684.649-1.047.08-.12-.122-.241-.203-.12a3.683 3.683 0 00-.324.523v-.12c.121-.847.202-1.692.364-2.579v-.04h.284c.122 0 .162-.282 0-.322zm-.892 1.772l-.121.967c-.325.362-.73.685-1.135.967a.886.886 0 01-.203.12c.081-.523.162-1.047.284-1.57.121-.685.446-1.45.243-2.135.405.12.851.16 1.216.201 0 .443-.243 1.128-.284 1.45zm0-8.378c-.446-.605-1.054-1.048-1.621-1.49-.69-.565-1.136-1.29-1.703-1.934-.162-.162-.365.08-.243.241.527.605.932 1.29 1.5 1.813.567.564 1.216.967 1.702 1.611.162.202.568 0 .365-.241zm3.284-3.626c-.486.766-.892 1.571-1.378 2.337-.284.443-.608.886-.69 1.41-.04.241.325.241.365 0 .041-.444.446-.927.69-1.29.486-.725.851-1.49 1.338-2.255.202-.202-.163-.403-.325-.202zm-2.189-5.277c-.77.886-2.27-.523-3.162.04-.608.363-1.135 1.129-1.581 1.652-.406.524-.933 1.934-1.662 2.095-.244.04-.122.403.08.362.528-.12.771-.483 1.014-.926a14.928 14.928 0 012.068-2.699c.892-.886 2.554.886 3.486-.201.244-.202-.08-.524-.243-.323zM26.95 8.872c-.365-.604-.77-1.168-1.095-1.772-.284-.524-.486-1.088-.973-1.45-.162-.121-.405.08-.243.242.446.402.608.926.851 1.45.325.604.73 1.208 1.135 1.772.122.121.446-.04.325-.242zm1.5-2.175c-.041-.08-.122.04-.081.08.324.404.445.927.567 1.37.04.081.162.04.122-.04-.122-.483-.244-1.007-.608-1.41zM16.774 4.522c0-.161-.284-.161-.284 0 .122 1.974-1.905 3.021-3.405 3.867-.203.121-.04.403.203.322 1.621-.805 3.648-2.094 3.486-4.189zM8.95 9.396v.363c.405-.04.405-.363 0-.363zm23.837 15.186c-.121-.2-.405 0-.283.162.527.926 0 2.618-.122 3.625-.162 1.249-.162 2.497-.081 3.746 0 .202.284.202.284 0 .121-1.37.04-2.739.202-4.109.122-1.127.608-2.416 0-3.424zm.933-.08c-.203-.04-.324.282-.081.322.446.161-.081 3.585.04 4.109.04.242.406.12.365-.08-.121-.887.081-1.934.081-2.82 0-.403.122-1.41-.405-1.531zm1.662.725c0-.12-.162-.08-.162.04 0 .524-.122 1.048-.243 1.571-.04.202.243.282.283.08.082-.563.203-1.127.122-1.691zM11.706 3.475c-1.621 2.296-3.365 4.511-4.905 6.807-.122.162.162.323.243.162 1.54-2.337 3.243-4.593 4.824-6.889.041-.08-.121-.16-.162-.08zm-.08.564c-.609 1.248-1.338 2.417-2.027 3.625-.122.201.162.363.283.161.69-1.208 1.42-2.376 2.027-3.625.081-.161-.162-.322-.284-.161zm.81 2.497c.04-.08-.122-.12-.122-.04-.162.564-1.46 1.289-.81 1.893.08.08.243-.04.162-.161-.487-.403.648-1.209.77-1.692zm.69 1.41c0-.161-.244-.161-.244 0v.242c.04.12.203.12.244 0v-.242z" fill="#204686"/></svg>