<svg width="52" height="72" fill="none" xmlns="http://www.w3.org/2000/svg"><g clip-path="url(#clip0)" fill="#204686"><path d="M43.234 56.016c-.147-3.08-.566-6.107-.604-9.188-.058-3.253-.454-6.539-.73-9.792-.256-3.08-.41-6.95-1.862-9.923a9.467 9.467 0 00-.63-2.13c-.172-.41-.463-.854-.842-1.125.032-.01.065-.021.054-.054l.066-.13.034-.226c.204-1.47-.68-3.049-2.057-3.709-2.604-1.19-5.581-1.646-7.855-3.486-.464-.745-.645-1.513-.27-2.572.333-1.08 1.056-2.074 1.431-3.133.53-1.47.364-2.961-.303-4.324-1.496-2.995-5.352-3.808-8.391-2.913-3.235.96-4.656 4.342-4.955 7.39-.138 1.447.203 2.81.936 4.042.41.692 1.026 1.244 1.578 1.817.378.379.823.736 1.267 1.093.151.13.4.443.593.81-.013.4-.178.779-.494 1.027l-.263.194c-.588.302-1.22.583-1.451.983-.306.172-.6.378-.938.561-1.385.745-2.65 1.198-3.602 2.483-.405.53-1.139 1.383-.86 2.118.161.379.66.682 1.268.877-.48.41-.864.896-1.01 1.663-.411 1.827-.289 3.297-.298 5.134 0 4.172.748 8.528 1.237 12.646a269.23 269.23 0 001.89 12.863c.537 3.167 2.467 6.379 5.595 7.18 3.543 2.392 9.412.958 12.973-.001 5.108-1.326 8.715-4.782 8.493-10.175zm-22.462-35.78c.033-.01.022-.043.055-.054 0 0 .043.022.076.01.043.023.108.001.152.023.076.01.13-.043.185-.098.319-.572.398-1.102.346-1.588-.042-.346-.149-.67-.343-.93-.56-.93-1.633-1.763-2.357-2.639-2.626-3.125-1.194-8.56 2.382-10.352 1.897-.95 4.32-.527 6.01.642 2.168 1.515 2.035 3.968 1.077 6.118-.55 1.297-1.209 2.377-1.14 3.793.047 1.35.6 1.816 1.519 2.735.27.27.608.087.73-.204.422.4.866.757 1.31 1.006-.172 1.675-3.677 2.256-5.016 2.59-1.775.442-3.645.268-5.46.256-.544 0-.729-.12-.793-.314a10.18 10.18 0 001.267-.994zm-3.809 2.516a22.053 22.053 0 001.833-1.037c.746.725 2.335.596 3.193.673 2.272.185 4.33-.17 6.53-.86 1.372-.453 2.713-1.004 3.188-2.42l.39.196c1.617.725 4.399 1.138 5.107 2.954a.49.49 0 01.14.205.78.78 0 01.02.497c-.001.109.03.206.008.357a1.95 1.95 0 00-.35.26c.077.01.153.021.197.043a3.998 3.998 0 01-.939.561c-.185.097-.414.173-.6.27l-.01-.033-.021-.064c-2.672 1.349-5.818 1.92-8.822 2.48-3.614.688-7.779.588-11.273-.776-.033-.097-.13-.173-.217-.108-.217-.108-.423-.184-.64-.293-1.324-.606 1.71-2.614 2.266-2.905zm18.994 41.743c-2.3.938-4.792 1.401-7.283 1.54-2.491.139-5.352.256-7.322-1.54-.205-.184-.423-.184-.608-.087-.574-.421-1.126-.886-1.623-1.514-1.134-1.46-1.613-3.567-1.897-5.308-.535-3.6-1.18-7.199-1.607-10.798-.416-3.567-.679-7.22-1.258-10.733-.263-1.676-.558-3.557-.505-5.264.04-1.524.46-2.67 1.162-3.836.597.162 1.14.27 1.499.368 3.942 1.073 7.814.946 11.798.17 2.613-.538 5.302-1.066 7.69-2.285.305-.065.566-.151.85-.28a4.846 4.846 0 001.025-.627c.41.476.655 1.546.827 1.957.311.832.209 1.73.541 2.518.054.163.227.25.38.271l.032.097c.574 2.4.855 4.897 1.059 7.383.226 2.55.386 5.123.579 7.685.193 2.561-.006 5.144.296 7.706.26 2.324.476 4.626.126 6.971-.482 2.713-3.428 4.656-5.76 5.606z"/><path d="M19.51 10.259c-.01-.14-.195-.152-.195-.043-.024.367-.254.659-.397.994-.143.335-.167.702-.234 1.048-.067.346.498.41.533.076.013-.4-.007-.79.05-1.167.034-.335.242-.584.243-.908zm.298 1.341c-.177.453-.364.875-.388 1.35-.023.26.357.314.413.044.111-.432.233-.832.344-1.264.044-.195-.26-.347-.37-.13zm.559 1.146a.201.201 0 00-.317.248c.151.238.04.562-.026.8-.078.313.455.39.5.087.046-.41.102-.79-.157-1.135zm13.014 10.666c-2.572 1.1-5.305 1.822-8.059 2.264-1.578.269-3.232.31-4.83.299-1.61-.045-2.944-.683-4.486-1.073-.12-.033-.196.172-.066.237 1.302.542 2.331 1.245 3.766 1.31 1.653.067 3.34-.094 5.005-.32 2.916-.387 6.074-1.25 8.745-2.49.11-.108.045-.303-.075-.227zm-8.416 40.826c-.203-.508-.222-1.113-.677-1.503-.195-.151-.435.108-.306.281.217.216.237.497.257.778.031.314.128.498.344.714.195.151.48-.086.383-.27zm1.069-.388c-.173-.303-.171-.627-.398-.876-.119-.14-.326 0-.23.184.152.238.107.54.192.8.086.26.204.508.246.746.02.28.455.281.511.01-.009-.356-.182-.55-.321-.864zm1.239.023c-.043-.13-.086-.26-.063-.411.066-.238-.335-.357-.402-.12-.11.325.008.574.082.909.043.237.369.238.403.01.033-.118-.01-.248-.02-.388zm1.609.044c-.054-.054-.119-.14-.173-.195-.205-.292-.674.043-.437.324l.173.195c.205.291.675-.043.437-.324zm.935.195c-.153-.022-.187.206-.034.228.153.022.187-.206.034-.228z"/><path d="M40.695 57.213a34.99 34.99 0 00.031-3.858c-.046-1.46-.028-2.94-.14-4.378-.1-1.513-.397-2.961-.498-4.474-.11-1.87-.35-3.697-.362-5.6-.008-.356-.17-.734-.222-1.113-.02-.389.026-.8-.004-1.221-.02-.281-.019-.605-.115-.897-.097-.292-.378-.595-.409-.908-.02-.173-.173-.195-.303-.152a25.08 25.08 0 00-.231-1.578c.033-.119.088-.28.121-.4.001-.108-.14-.097-.152-.022.011.033-.022.044-.01.076a2.617 2.617 0 00-.096-.508 2.976 2.976 0 00-.117-.573c.078-.205.09-.389-.018-.605-.01-.032-.054-.054-.12-.033-.158-.81-.371-1.675-.76-2.302-.301-.476-.777-1.038-1.342-1.212-.564-.173-1.047.562-1.374.886-.055.054-.066.13-.034.227-.12.183-.209.356-.286.561-.231.508-.549.973-.693 1.524-.012.076.108.108.163.054.099-.248.23-.508.33-.756-.223.972-.272 2.031-.223 3.058-.348-.065-.717-.087-1.098-.141a1.687 1.687 0 00-.402-.011c-.084-.476-.158-.919-.275-1.384-.246-.854-.424-2.162-1.346-2.54-.38-.163-.816-.055-1.252.16-.01-.032-.086-.043-.108 0l-.044.087c-.306.173-.6.378-.873.54-.327.108-.6.27-.851.496-.35.26-.536.573-.669.94-.373.735-.52 1.61-.578 2.42-.011.076 0 .109-.012.184-.36.12-.719.238-1.078.356l-.752.248c-.179-1.091-.5-2.172-1.18-2.918.076-.098-.065-.195-.109-.109a3.256 3.256 0 00-1.268-.768c-.934-.303-1.881.01-2.71.463-.24.043-.425.14-.643.248l-.033.01c.044-.086.12-.183.165-.27.066-.129-.086-.259-.152-.129-.165.27-.362.55-.526.821-.11.108-.208.248-.274.378-.296.313-.493.702-.626 1.07-1.152 1.89-2.217 3.824-3.043 5.823-.088.173.205.292.26.13a46.6 46.6 0 012.638-5.186c-.057.378-.07.778-.094 1.254-.022.043.032.097.043.13l-.198.388a33.36 33.36 0 00-.692 1.416c-.535.356-.93.81-.747 1.253-.032.01-.098.032-.087.065.02.173-.002.324.02.497-.265.627-.54 1.22-.805 1.847-.055.163.162.27.25.098.21-.465.429-.897.605-1.35.01.14.031.313.074.443a7.471 7.471 0 00-.421 1.47c-.022.15.206.183.26.02.09-.28.167-.593.266-.842.053.27.096.508.116.79-.297.637-.562 1.263-.728 1.966-.056.162.216.216.26.021.145-.55.31-1.037.542-1.545l.094.616c-.296.53-.56 1.048-.813 1.6-.088.172.205.291.293.118.187-.42.374-.842.605-1.242.031.205.04.454.072.66-.362.658-.724 1.317-1.12 1.987-.065.13.108.216.185.12.372-.52.658-1.081.987-1.621.02.28.051.594.104.864-.383.595-.713 1.243-.858 1.902-.023.151.206.184.26.022.123-.508.408-.962.671-1.372.01.248.052.486.062.735-.242.475-.495.918-.693 1.415-.066.13.151.238.217.108.187-.313.362-.659.516-.961 0 .108.032.205.031.313 0 .216.03.422.062.627-.198.39-.406.746-.615 1.102-.066.13.151.238.185.12.164-.271.296-.53.46-.8.085.475.159.919.243 1.394a18.66 18.66 0 00-.89 1.804c-.066.13.15.238.217.109.242-.476.483-.951.758-1.437.02.173.052.378.073.55.03.314.138.639.202.941-.275.595-.54 1.221-.771 1.837-.034.12.14.206.206.076.188-.53.419-1.037.672-1.588.053.162.107.324.127.497.085.367.138.746.19 1.124-.242.475-.44.972-.638 1.47-.066.13.15.237.217.108l.495-1.135c.042.238.074.444.116.681.032.206.074.444.105.649a28.938 28.938 0 00-.836 1.858c-.066.13.14.206.206.076l.693-1.523c.084.583.2 1.156.285 1.74-.143.335-.265.627-.408.961-.033.12.14.206.174.087.11-.216.187-.421.297-.637.096.4.17.843.298 1.232-.242.475-.44.972-.639 1.47-.044.086.13.172.163.054.177-.454.364-.876.55-1.297.129.497.322.973.504 1.416-.165.378-.308.713-.473 1.092-.066.13.14.205.206.075.132-.259.286-.562.407-.853.118.248.237.497.377.703.01.032.054.054.065.086l-.43 1.005c-.066.13.151.238.217.108.121-.292.286-.562.407-.853.194.26.433.432.682.638-.165.378-.32.788-.507 1.21-.055.162.151.238.217.108.165-.378.33-.756.463-1.124.27.163.542.325.845.477-.11.324-.188.637-.222.972-.023.151.195.151.228.033.045-.303.123-.616.211-.897a.474.474 0 00.163.054l.359.097c-.122.292-.275.595-.419.93-.055.162.162.27.25.097.154-.302.297-.637.408-.962.195.044.423.076.651.109a4.733 4.733 0 00-.42 1.253c-.022.152.195.152.229.033.078-.422.232-.832.42-1.254.076.011.162.055.239.066.206.075.369.13.553.14-.132.368-.265.735-.31 1.146-.023.151.205.184.26.022.09-.39.222-.757.355-1.124a3.6 3.6 0 00.772.033h.326a7.08 7.08 0 00-.64 1.794c-.034.119.172.194.206.076.22-.649.496-1.243.793-1.88.391-.022.761 0 1.163.011-.395.778-.889 1.48-1.078 2.334-.055.162.216.216.261.022.19-.854.64-1.578 1.046-2.323l.021-.044c.218 0 .435 0 .686-.01-.012.076-.066.13-.078.206-.241.475-.277 1.026-.638 1.469-.11.108.053.27.173.195.316-.249.406-.638.495-1.027a5.29 5.29 0 01.309-.821c.25-.01.51.011.793-.01l.033-.011a3.683 3.683 0 00-.331.972c-.034.12.173.195.239.066a8.97 8.97 0 01.451-1.049c.316-.032.598-.053.914-.085-.055.162-.143.334-.155.518-.023.151.216.217.272.054.066-.237.143-.443.264-.626l1.437-.259a1.84 1.84 0 00-.09.498c0 .108.152.13.185.01a2.15 2.15 0 01.112-.54c.446-.075.881-.183 1.328-.258 2.111-.41 4.79-1.186 6.17-2.936.701-.95.773-2.16.855-3.23zm-2.414-22.58c.103 1.081.173 2.173.2 3.243-.167.703-1.029 1.275-1.564 1.631-.12.076.01.249.13.173.48-.302 1.146-.81 1.465-1.382.037 1.102.064 2.172.135 3.264.01.248.051.486.06.735-.403.313-.678.799-.973 1.22-.077.097.075.227.151.13.263-.41.494-.81.855-1.145.111 1.438.213 2.843.292 4.291-.066.13-.1.249-.252.335-.087.065-.001.216.119.14l.164-.162c.06.844.122 1.687.139 2.508.08 1.34.182 2.637.294 3.967.073.66.102 1.297.066 1.956-.036.551.078 1.665-.51 1.967-.47.227-1.164-.012-1.587-.196-.89-.39-.864-1.297-.979-2.086-.146-1.211-.51-2.422-.698-3.654-.421-2.594-.494-5.231-.752-7.88-.206-2.161-.51-4.29-.684-6.463.262-.087.534-.14.828-.238.425-.14 1.21-.399 1.81-.776.01.032.086.043.119.032.405-.53 1.05-.994 1.172-1.61zm-1.613.713c.175-.238.394-.454.612-.67a.306.306 0 01.087.151c.376.811-1.28 1.394-1.792 1.599a8.352 8.352 0 01-1.242.41c-.031-.314-.019-.606-.05-.92-.017-.82-.121-1.685-.16-2.572a7.806 7.806 0 011.65.39c.413.152 1.01.423 1.378.769a6.5 6.5 0 00-.635.713c-.076.097.075.227.152.13zm1.488-1.642c.052.27.073.551.093.832l-.033.011c-.067.346-.319.68-.592.95.055-.161.11-.324.09-.496-.032-.206-.096-.4-.215-.541.24-.26.46-.475.657-.756zm-3.443-4.942l.044-.086c.086.043.162.054.206-.032.361-.335.82-.919 1.319-.507.152.13.303.26.422.4-.135.8-.834 1.426-1.305 2.085-.066.13.085.26.151.13.395-.67 1.062-1.286 1.24-2.064.065.087.14.206.172.303-.299 1.07-1.01 1.988-1.234 3.068-.033.12.163.163.196.044.288-.994.847-1.934 1.135-2.928.087.151.14.313.194.475.246.746.427 1.514.575 2.292-.066.13-.176.238-.209.356a8.68 8.68 0 01-.931 1.35c-.099.141.085.26.195.152a16.79 16.79 0 00.998-1.588c.063.411.115.79.21 1.19-.186.313-.459.583-.732.853-.163-.163-.39-.303-.65-.433-.868-.433-1.682-.704-2.563-.845-.068-1.416-.017-2.907.567-4.215zm-1.231 4.506l.456.066c.03.637.07 1.307.088 1.913.007.572.037 1.102.078 1.664-.36.119-.73.205-1.133.302-.062-.519-.114-1.005-.21-1.513-.105-.649-.155-1.352-.239-2.043l.783.065c.044.022.055-.054.011-.075-.26-.022-.532-.076-.782-.066 0-.108-.042-.238-.042-.346.326 0 .653 0 .99.033zm-2.267 9.056c.537-.68 1.019-1.415 1.664-1.988-.001.108.042.238.041.346.031.314.062.627.071.984-.273.27-.449.616-.668.94-.318.464-.755.788-1.127 1.199-.076.097.064.194.141.097.317-.357.678-.691.985-1.08.262-.303.384-.702.647-1.005.04.454.071.876.112 1.33-.372.518-.832.993-1.237 1.523-.022.043-.044.086.01.14.054.054.076.12.13.173.065.087.25-.01.185-.097-.021-.065-.064-.087-.075-.119.318-.464.69-.875 1.018-1.307.114 1.113.206 2.27.32 3.383-.121.184-.394.346-.515.53-.197.28-.35.583-.591.842-.077.097.031.205.108.108.273-.27.438-.648.657-.972.099-.14.252-.227.361-.335.082.908.175 1.848.257 2.756.112 1.438.322 2.843.532 4.248.211 1.297.474 2.865.065 4.15-.298.962-1.312 1.297-2.225 1.274-.88-.033-1.433-.39-1.832-1.157-.624-1.233-1.107-2.368-1.415-3.74-.616-2.855-.796-5.816-1.129-8.691-.27-2.357-.703-4.66-.908-7.037a48.671 48.671 0 004.887-.894 3.967 3.967 0 01-1.04 1.35c-.142.12.042.346.184.228.513-.421.897-1.016 1.128-1.632.207-.032.403-.096.61-.129.126.822.187 1.665.28 2.497-.731.53-1.225 1.34-1.804 1.998-.055.054.096.184.173.087zm.712-4.982c-.022.043-.012.075-.034.119-.511.097-.98.215-1.491.312.22-.432.57-.8.92-1.167.382-.378.613-.885.92-1.274.105.648.188 1.34.294 1.989-.131.043-.305.064-.436.108l-.01-.033c.098-.14-.13-.173-.163-.054zm.337-2.161c-.372.41-.635.929-1.018 1.307-.383.378-.83.777-1.018 1.307-1.132.193-2.264.387-3.385.505a18.981 18.981 0 01-.09-1.372c-.02-.606-.08-1.449-.075-2.313l.065-.022.296-.421c.305-.065.61-.13.925-.162-.186.314-.362.66-.516.962-.066.13.14.205.206.076.209-.357.406-.746.615-1.102.141-.011.24-.043.38-.054.175-.022.316-.032.49-.054-.251.335-.47.66-.712 1.026-.066.13.086.26.195.152.263-.41.526-.821.8-1.2.381-.053.773-.074 1.154-.128-.022.043-.077.097-.099.14-.449.616-.811 1.275-1.206 1.945-.066.13.15.238.216.108.407-.745.846-1.502 1.339-2.204.359-.01.707-.053 1.066-.064-.176.454-.559.832-.833 1.21a45.743 45.743 0 00-1.107 1.588c-.098.14.097.292.195.151.417-.604.8-1.199 1.217-1.804.241-.367.536-.68.69-1.09.063.518.115 1.005.21 1.513zM28.38 33.73c.022-.044.054-.054.044-.087.337-.075.642-.14.99-.183-.054.054-.098.14-.153.194a32.62 32.62 0 01-.881.075zm1.164-.097c.044-.086.099-.14.175-.238.381-.053.795-.118 1.186-.14l-.23.292c-.358.01-.707.054-1.066.065l-.065.021zm2.438-.409c.021.065.01.14.042.238-.032.01-.065.021-.087.065l-.022.043h-.979c.077-.098.154-.195.22-.325.25-.01.532-.032.826-.02zm-.136-1.07a4.8 4.8 0 01.084.692 2.58 2.58 0 00-.5.021c.142-.227.252-.443.308-.713.033-.119-.152-.13-.152-.022-.056.27-.188.53-.33.757-.392.02-.784.042-1.165.096.022-.043.044-.087.077-.097.449-.616.866-1.329 1.413-1.87.074.336.202.725.265 1.136zm-.512-1.773l.128.39c-.535.464-.865 1.112-1.303 1.652-.153.194-.274.378-.438.54-.348.043-.718.13-1.055.205.131-.26.274-.486.439-.757.515-.853 1.204-1.62 1.557-2.528.066-.13-.14-.205-.206-.075-.353.907-1.075 1.685-1.568 2.495l-.56.94c-.272.054-.534.14-.806.194l1.02-1.523c.526-.821 1.02-1.74 1.688-2.463.5-.021.922.27 1.104.93zm-4.525 2.213c.087.043.26.021.316-.14.145-.66.204-1.579.913-1.956l.556-.292c-.054.054-.131.152-.186.206-.328.432-.668.831-1.04 1.242-.076.097.075.227.152.13.394-.454.777-.94 1.16-1.426.1-.14.208-.249.318-.357.087-.065.207-.14.294-.205.24-.151.524-.28.753-.356-.438.54-.79 1.123-1.173 1.717-.537.79-1.041 1.567-1.611 2.366-.164.054-.36.119-.534.14a7.73 7.73 0 01.082-1.07zm-.379 1.707a38.703 38.703 0 00.033 4.053c-.457.043-.903.118-1.393.172l-.125-1.038c-.105-.756-.143-1.643-.226-2.55a11.001 11.001 0 011.711-.637zm-.19 25.56c-.088.174-.143.336-.231.509a1.13 1.13 0 01-.458.15c-.522.065-1.13-.022-1.652-.173.275-.595.616-1.21.62-1.859 0-.108-.174-.087-.186-.01-.003.648-.354 1.231-.63 1.825-.075-.01-.151-.021-.205-.076-.087-.043-.163-.054-.283-.086.078-.206.122-.4.189-.638.033-.119-.152-.13-.185-.01-.045.194-.09.388-.166.594a4.363 4.363 0 01-.987-.574c.188-.53.343-1.048.53-1.578.166-.486.417-.605.202-1.037-.076-.119-.229-.033-.197.065.194.367-.343 1.264-.454 1.588-.099.249-.188.53-.287.778a2.105 2.105 0 01-.518-.692c.352-.8.715-1.566 1.154-2.323.066-.13-.14-.205-.206-.076-.395.67-.736 1.394-1.088 2.086-.15-.346-.235-.714-.309-1.157.473-.983.946-1.967 1.288-3.015.034-.119-.13-.173-.162-.054-.343.94-.771 1.837-1.2 2.734-.074-.551-.212-1.081-.361-1.643l1.088-2.302c.022-.043-.054-.054-.076-.01-.34.723-.649 1.436-1.022 2.171-.128-.497-.169-1.06-.319-1.513.526-.605.583-1.2.89-1.804.32-.573.702-1.06.793-1.664.033-.12-.152-.13-.185-.011-.102.68-.67 1.372-.99 1.945l-.659 1.296c-.106-.432-.212-.865-.308-1.265l.022-.043c.428-.789.824-1.567 1.263-2.323.329-.54.593-1.059.715-1.675.001-.108-.151-.13-.152-.021-.113.756-.55 1.404-.957 2.042-.361.55-.636 1.145-.955 1.718a142.98 142.98 0 00-.264-1.46c.384-.702.725-1.426 1.153-2.107.307-.496.647-1.004.813-1.598.034-.12-.13-.173-.163-.055-.177.67-.615 1.21-.966 1.794-.33.54-.626 1.07-.911 1.631-.053-.378-.105-.756-.2-1.156-.022-.173-.043-.346-.085-.476.373-.627.735-1.286 1.152-1.89.317-.465.646-.897.79-1.448.034-.12-.151-.13-.185-.011-.221.756-.812 1.383-1.217 2.02-.22.324-.395.67-.615.994-.084-.476-.136-.962-.22-1.438.494-.918.912-1.847 1.243-2.82.056-.162-.15-.238-.216-.108a16.663 16.663 0 01-1.112 2.453 22.513 22.513 0 01-.242-1.61c.506-.887 1.087-1.762 1.299-2.767.022-.151-.206-.184-.229-.032-.19.853-.65 1.653-1.122 2.42-.041-.346-.127-.714-.168-1.06.417-.713.845-1.393 1.229-2.095.066-.13-.14-.206-.206-.076a62.746 62.746 0 00-1.076 1.901c-.021-.173-.064-.302-.085-.475.636-.93 1.457-1.848 1.745-2.842.478.022.978.001 1.468-.053l2.317-.225c-.208.357-.427.68-.766.972-.11.108.02.281.13.173.404-.313.667-.724.876-1.188.283-.021.566-.043.838-.097.041.346.116.681.157 1.027.507 2.962.774 5.967 1.04 8.971.267 3.005.784 6 .866 8.993.03.638.014 1.47-.358 1.989-.011-.033.021-.043.01-.076.186-.097-.02-.173-.086-.043zm-8.063-19.6c.187-.313.46-.583.636-.929.26.022.554.033.804.022-.243.8-.932 1.567-1.37 2.215-.077.097-.121.184-.198.28l-.157-1.134c.066-.13.165-.27.285-.454zm-.349.151a2.973 2.973 0 01-.106-.54c-.021-.065-.01-.14-.031-.206l.176-.345c.228.032.478.022.706.054-.219.324-.536.68-.745 1.037zm6.818-1.854a3.675 3.675 0 01-.599.054c.078-.206.133-.368.22-.54.034-.12-.129-.174-.162-.055-.11.216-.187.422-.297.638-.38.054-.773.075-1.153.129.614-.994 1.239-1.956 1.636-3.058.136.962.23 1.903.355 2.832zm-.375-3.221c-.43 1.221-1.121 2.312-1.823 3.37-.022.044-.011.076 0 .109-.283.021-.588.086-.87.107-1.154.13-2.34.053-3.492-.034.297-.53.593-1.06 1.041-1.459.077-.097-.01-.248-.13-.173-.502.454-.853 1.037-1.171 1.61-.076-.011-.11 0-.185-.011l-.033.01c-.01-.14-.03-.313-.04-.453.307-.605.625-1.178.933-1.783.751-.14 1.49-.204 2.166-.355.174-.022.337-.076.468-.119.61-.129 1.198-.323 1.808-.56-.33.648-.67 1.264-1.13 1.847-.076.097.086.26.185.119.514-.637.855-1.361 1.196-2.085.349-.151.676-.26 1.024-.41.043.13.065.194.053.27zm-6.73 1.681c.023-.043.078-.097.089-.172.229-.076.468-.119.675-.151-.253.443-.505.886-.747 1.361-.009-.357-.007-.68-.016-1.038zm-.203 1.47l-.175.346c-.196-.044-.424-.076-.587-.13l-.043-.022c.252-.443.515-.853.811-1.275a7.16 7.16 0 00-.006 1.081zm1.796-2.247c.533-.14 1.089-.323 1.655-.366.174-.022.348-.043.511-.097-.022.043-.054.054-.044.087-.74.172-1.426.29-2.122.376zm2.395-.43c.021-.044.054-.054.043-.087a17.61 17.61 0 001.296-.355 7.92 7.92 0 01-1.209.398l-.13.044zm2.66-1.274l-.589.194c.176-.345.385-.702.441-1.08.064.302.084.583.148.886zm-.308-1.373l-.022.044c.204.508-.213 1.113-.487 1.599l-1.471.485c.624-.853 1.238-1.74 1.732-2.657.13.173.183.335.248.53zm-1.589-1.957c-.198.497-.56.94-.812 1.383-.395.67-.79 1.34-1.152 1.998-.066.13.14.206.206.076.461-.8.911-1.631 1.383-2.398.22-.324.406-.637.538-1.005.217.108.38.27.585.454-.745 1.037-1.327 2.129-2.159 3.122-.11.108.086.26.195.152.81-.95 1.381-2.074 2.094-3.1.054.054.064.086.119.14.118.14.215.324.312.508l-.065.022c-.571 1.015-1.283 1.934-1.962 2.841l-.196.065c-.642.14-1.328.15-1.97.29-.403.097-.828.237-1.23.334.416-.605.822-1.242 1.195-1.869.032-.01.032-.01.055-.054.712-1.026 1.197-2.193 1.952-3.197.304.043.62.119.912.238zm-4.336 1.467c.307-.389.754-.68 1.18-.929.447-.291.883-.507 1.352-.626l.554.033c-.668.94-1.152 1.999-1.788 2.928-.033.01-.022.043-.011.076-.428.68-.932 1.35-1.425 2.052-.065.022-.141.01-.207.032l.038-.875.069-.778c.296-.53.647-1.005 1.073-1.361-.153.194-.263.41-.384.594-.044.086.054.162.098.075.557-.615.986-1.404 1.479-2.106.044-.086-.064-.195-.141-.097-.35.475-.658.972-1.008 1.447.011-.075-.086-.151-.141-.097-.371.302-.645.68-.908 1.09.033-.226.067-.453.068-.67-.009-.356.025-.583.102-.788zM16.63 36.78c.187-.421.385-.918.616-1.426.033-.011.076.01.098-.033-.002.325-.047.627-.048.952-.022.043-.012.075.01.14.01.032 0 .108.01.14-.196.065-.49.162-.741.281 0 0 .033-.01.055-.054zm-.32.68c.12-.075.208-.14.273-.161.186-.097.371-.194.567-.26-.34.508-.69.984-.954 1.502l-.217-.108c-.043-.022-.043-.022-.054-.054.121-.292.265-.627.386-.918zm-.641 2.119c-.01-.14-.064-.303-.074-.444.066-.13.132-.259.187-.421.043.022.054.054.098.076l.13.065a8.342 8.342 0 00-.341.724zm.084.583c.165-.378.362-.767.56-1.156.206.076.402.12.63.152a9.104 9.104 0 00-.384.702c-.209.357-.44.757-.637 1.145-.053-.27-.106-.54-.17-.843zm.337 1.903c-.031-.206-.063-.411-.083-.584l-.022-.065c.275-.594.626-1.177.945-1.75.098-.14.154-.303.252-.443l.228.033.03.421a8.76 8.76 0 01-.11.216 81.76 81.76 0 01-1.24 2.172zm.074.443c.352-.692.714-1.35 1.077-2.01l.197-.389c.01.249.052.487.105.757l-.581.983c-.253.443-.473.875-.725 1.318a5.544 5.544 0 00-.073-.66zm.294 1.989c-.03-.314-.084-.584-.115-.897.253-.443.462-.908.682-1.34.175-.346.384-.702.56-1.048.053.27.062.519.115.789.032.097.032.205.064.303-.241.367-.45.724-.648 1.112-.175.346-.417.714-.658 1.08zm.114 1.113c-.032-.205-.03-.421-.062-.627.395-.67.78-1.372 1.131-2.063.044-.087.088-.173.165-.27l.062.518c-.418.822-.879 1.621-1.296 2.442zm.062.519c.308-.605.605-1.243.913-1.848.121-.291.285-.561.45-.831.042.345.127.713.168 1.059-.11.216-.263.41-.373.626a68.84 68.84 0 00-1.043 2 5.073 5.073 0 01-.115-1.006zm.322 2.95a20.782 20.782 0 01-.22-1.437c.427-.789.823-1.567 1.251-2.355.066-.13.11-.216.187-.313.073.55.179 1.091.252 1.643-.46.799-.987 1.62-1.47 2.463zm.15.563l-.055-.162c.45-.832.977-1.653 1.427-2.485.085.476.137.962.221 1.438-.066.13-.142.226-.208.356-.395.67-.78 1.372-1.12 2.096-.096-.4-.17-.843-.266-1.243zm.667 3.232l-.318-1.622a36.49 36.49 0 011.319-2.484c.073.55.179 1.091.252 1.643a52.58 52.58 0 00-1.253 2.463zm.096.4c.374-.843.792-1.664 1.21-2.485.02.065.01.14.02.173.063.41.159.81.222 1.221a99.642 99.642 0 00-1.252 2.356c-.053-.379-.127-.822-.2-1.265zm.306 1.697l1.253-2.463.32 1.297-.045.086a60.19 60.19 0 00-1.21 2.701l-.318-1.621zm.465 2.508c-.02-.173-.074-.335-.095-.508.408-.962.815-1.923 1.266-2.863.053.27.15.562.202.832.075.227.107.432.149.67-.462.908-.923 1.815-1.374 2.755a7.914 7.914 0 00-.148-.886zm.638 2.702a13.118 13.118 0 01-.415-1.589l1.352-2.82c.117.573.168 1.168.295 1.773l-.11.216a49.15 49.15 0 00-1.122 2.42zm.592 1.136c-.161-.27-.312-.509-.441-.79.352-.8.672-1.588 1.035-2.355l.131-.26c.043.238.107.433.182.66.043.13.096.292.172.41a22.76 22.76 0 00-1.079 2.334zm.822.951a5.538 5.538 0 01-.606-.627c-.01-.033-.01-.033-.054-.054l1.035-2.356c.15.238.357.422.606.628-.066.13-.089.28-.155.41-.253.66-.54 1.33-.826 2zm1.051.66a3.113 3.113 0 01-.813-.487c.32-.788.661-1.62.98-2.41.293.228.63.369.999.499-.385.81-.857 1.577-1.166 2.398zm.728.228c-.196-.044-.359-.098-.554-.141.309-.821.78-1.589 1.122-2.42.163.054.282.086.445.14l-.044.087a97.24 97.24 0 00-.97 2.334zm.934.195c-.239-.065-.434-.108-.673-.173.352-.8.66-1.621.97-2.442.314.075.662.14 1 .173-.321.897-.869 1.653-1.297 2.442zm.999.282c-.272-.055-.543-.109-.782-.174.417-.821.955-1.61 1.253-2.463.26.021.521.043.728.011.033-.01.066-.021.109 0-.45.832-.923 1.707-1.308 2.626zm15.552-4.27c-.475 1.416-1.882 2.096-3.157 2.625-1.406.571-2.821.895-4.28 1.196l.044-.086c.044-.087-.13-.173-.163-.054l-.11.216-.098.032c-.403.097-.816.162-1.23.226.263-.41.526-.82.779-1.264.066-.13-.13-.173-.206-.075-.285.453-.647.896-.921 1.382-.316.032-.62.097-.936.13.318-.573.637-1.146.901-1.773.044-.086-.086-.151-.13-.065-.308.605-.757 1.221-1.097 1.837l-.849.064c.22-.432.45-.832.67-1.264.066-.13-.14-.205-.206-.076-.253.443-.505.886-.747 1.362-.076-.011-.141.01-.217 0-.142.01-.326 0-.5.02.308-.712.53-1.469.924-2.139.044-.086-.064-.194-.14-.097-.461.691-.705 1.491-1.035 2.247-.391.022-.794.01-1.153.021.517-1.07 1.067-2.15 1.377-3.295.034-.12-.151-.13-.185-.011-.3 1.178-.968 2.226-1.518 3.306l-1.109-.066c.386-.918.88-1.836 1.309-2.733 1.905-.485 1.175-4.236 1.051-5.49l-.93-9.08c-.248-2.507-.659-4.96-.994-7.403.457-.043.903-.119 1.36-.162.06.952.153 1.892.279 2.822.397 2.961.719 5.912 1.073 8.852.28 2.389.418 5.22 1.723 7.308.453.713.677 1.502 1.545 1.827.944.336 2 .24 2.818-.247 1.724-1.036.947-4.268.738-5.781-.81-5.308-.988-10.68-1.655-15.997.37-.086.73-.205 1.1-.291.129 2.259.4 4.507.605 6.777.289 2.961.338 5.966.91 8.906.138.638.276 1.276.381 1.924.095.508.06 1.06.22 1.546.257.778.918 1.243 1.733 1.406.662.141 1.348.13 1.753-.507.198-.28.167-.702.18-.994.014-.616.06-1.243.075-1.859-.003-1.437-.257-2.864-.369-4.302-.122-1.578-.179-3.177-.3-4.755-.235-3.016-.371-6.064-.496-9.08a9.096 9.096 0 00-.06-.95c.096.183.193.367.235.605.117.573.07 1.2.089 1.805.007.68.21 1.297.196 2.021-.004.649.123 1.362.163 2.032.256 2.864.72 5.696.802 8.582.047 1.46.083 2.886.086 4.324.008.68-.061 1.35-.054 2.031.105.757.002 1.654-.274 2.465zM16.66 26.556c-.806.41-1.462 1.058-2.15 1.609-.491.378-1.049.885-1.052 1.534.01.032.065.086.108.108.076.01.109 0 .185.01.109 0 .164-.161.044-.194-.401-.119.932-1.35 1.107-1.48.6-.486 1.147-1.026 1.856-1.404.087-.064.023-.259-.097-.183zm.968.184c-.895.691-1.704 1.534-2.589 2.257-.623.53-1.354 1.167-1.392 2.042-.011.076.043.13.12.14.075.012.119.033.184.012.152.021.186-.206.034-.227-.467-.098 1.413-1.977 1.555-2.096.765-.648 1.432-1.372 2.143-2.074.022-.043-.022-.064-.055-.054zm.498.411c-.798.66-1.422 1.512-2.144 2.29-.776.832-1.542 1.588-2.09 2.56-.066.13.15.238.216.108.56-.94 1.314-1.728 2.026-2.538.689-.767 1.28-1.61 2.067-2.3.088-.066.012-.184-.075-.12zm.084.584c-.735 1.177-1.644 2.268-2.563 3.327-.733.853-1.455 1.739-1.657 2.884-.012.184.249.206.26.022.268-1.275 1.187-2.225 1.986-3.208.777-.94 1.51-1.901 2.114-2.928.088-.065-.064-.194-.14-.097zm-3.627 7.347c-.348-.173 3.377-5.359 3.554-5.92a.076.076 0 00-.13-.066c-.22.54-.723 1.102-1.074 1.578-.34.507-.657.972-.997 1.48-.669.94-1.304 1.869-1.712 2.938-.044.087.02.173.097.184.043.022.076.011.119.033.206.075.24-.151.143-.227zm3.473-4.851c-.907.659-1.358 1.707-1.885 2.636-.406.746-.889 1.48-1.262 2.215-.352.691-.356 1.448-.751 2.118-.066.13.086.26.184.119.285-.346.407-.746.518-1.178.178-.778.573-1.448.957-2.15.659-1.188 1.31-2.842 2.423-3.64.022-.044-.064-.195-.184-.12z"/><path d="M32.331 38.898c-.362.551-.81 1.06-1.193 1.545-.11.108.085.26.195.152.405-.53.82-1.027 1.183-1.578.033-.118-.108-.216-.185-.119zm-.308 6.864c-.076-.011-.109.108-.033.118.087.044.11-.108.033-.118zm-7.48-6.522c-.197.388-.384.81-.626 1.177-.164.27-.383.486-.46.8-.012.075.107.108.119.032.154-.303.35-.584.515-.854.209-.356.363-.767.54-1.112.087-.065-.044-.13-.088-.044zm-.538 2.982l-.01.075c.38.055.392-.02.01-.075zm.412 2.453c-.153-.022-.209.25-.023.26.152.022.186-.206.023-.26zm11.581-16.409c-.373.735-.92 1.383-1.131 2.172-.033.119.162.162.195.043.211-.789.726-1.426 1.023-2.172.011-.075-.075-.118-.087-.043zm1.14 2.464c-.21.79-.605 1.46-1.077 2.119-.076.097.086.259.185.119.493-.703.877-1.405 1.077-2.226.011-.076-.14-.098-.185-.011zm1.005 5.352c-.147.875-1.138 1.274-1.328 2.128-.022.151.195.151.229.032.156-.842 1.137-1.274 1.218-2.128.033-.119-.075-.119-.12-.032zm-.185 4.161a4.639 4.639 0 01-.656.648c-.12.076.01.248.13.173.251-.227.47-.443.678-.691.066-.13-.075-.227-.152-.13zm.53.507c-.156.628-.68 1.016-1.16 1.319-.088.064.01.14.075.119.502-.346 1.038-.81 1.16-1.426.023-.044-.053-.054-.075-.011zm-.793 5.945c-.12-.032-.164.163-.012.184.12.033.132-.151.012-.184zm-4.56-1.3c-.167.594-.723.993-.836 1.642-.022.151.206.184.229.032.09-.605.636-1.037.802-1.631.033-.119-.162-.162-.195-.043zm.061 2.712c-.186.206-.307.497-.493.703-.054.054.043.13.098.075.186-.205.274-.486.45-.724.054-.053-.033-.097-.055-.054zm.022 1.935c-.021-.065-.086-.043-.108 0-.002.216-.09.39-.275.486-.054.054.01.14.076.12.24-.152.317-.357.307-.606zm-.52 1.827l-.022.043c.392.087.403.011.022-.043zM20.21 5.46c-1.331.908-2.253 2.399-2.533 3.966-.033.119.162.162.195.043.335-1.513 1.169-2.939 2.468-3.835.12-.076-.01-.249-.13-.173z"/><path d="M19.592 7.103c-1.279 1.177-1.908 2.895-2.221 4.581-.034.12.162.163.195.044.368-1.632.877-3.275 2.155-4.452.044-.086-.042-.238-.13-.173zm.072.876c-.212.897-.867 1.545-1.285 2.366-.396.778-.748 1.686-.786 2.561 0 .108.195.151.196.043.114-.972.434-1.87.873-2.733.374-.735.975-1.33 1.165-2.183-.01-.14-.163-.162-.163-.054zm.005 1.113c-.255.875-.716 1.675-1.047 2.539-.265.735-.367 1.524-.436 2.302-.023.151.195.151.228.032.146-.875.27-1.707.535-2.55.255-.767.682-1.448.893-2.237.034-.118-.14-.205-.173-.086zm.317 1.621c-.16 1.384-.819 2.68-.968 4.096-.022.151.206.184.229.033.124-.833.27-1.6.513-2.4.177-.561.364-1.09.422-1.685.055-.162-.173-.195-.196-.044zm1.202 1.114c0-.108-.163-.162-.185-.01-.127 1.372-.819 2.571-1.141 3.9-.033.12.162.162.196.044.398-1.319 1.046-2.54 1.13-3.934zm.439 1.223c.033-.12-.162-.163-.185-.012-.135.908-.411 1.719-.72 2.54-.154.41-.31.929-.007 1.297.108.108.25-.011.175-.13-.335-.465.104-1.221.27-1.707.264-.627.366-1.308.467-1.989zm.385 1.166c-.032-.097-.229-.032-.164.054.119.249-.103 1.005-.191 1.286-.057.379-.157.735-.213 1.113-.023.152.206.184.228.033.057-.486.18-.994.226-1.513.132-.367.307-.605.114-.973zm.842 1.125c.033-.118-.14-.205-.173-.086-.233.832-.662 1.62-.557 2.485l.021.065c-.265.735-1.019 1.415-1.511 2.01-.252.334-.788.907-.497 1.35.065.087.185.011.12-.075-.27-.487.583-1.308.857-1.686.383-.486.908-.983 1.107-1.588.033-.01.098-.032.11-.108-.083-.8.28-1.567.523-2.366zm.549 1.222c-.022-.065-.13-.065-.109 0 .053.27.095.508.072.767-.011.076.098.076.109 0a1.85 1.85 0 00-.072-.767zm.341 1.362c-.077-.01-.12-.033-.186-.011-.043-.022-.055.054-.011.076.076.01.12.033.196.043.022-.043.033-.119 0-.108z"/><path d="M22.768 17.384c-.887 1.156-1.786 2.495-1.946 3.987-.022-.065-.141-.098-.142.01-.026.908-.672 1.589-1.078 2.334-.384.703-.715 1.459-.751 2.226.01.14.195.152.228.033.136-1.016.554-1.945 1.102-2.81.307-.497.593-.95.672-1.48.064.087.206.076.206-.032.14-1.556 1.049-2.864 1.904-4.117.033-.119-.119-.248-.195-.151zm.049.811c-.428.896-.933 1.782-1.189 2.766-.022.15.195.151.229.032.233-.94.738-1.826 1.134-2.712.099-.14-.107-.216-.174-.086zm.547 1.438c-.01-.033-.087-.044-.076-.011a2.005 2.005 0 01-.572 1.232c-.088.064.02.172.097.075.296-.313.56-.832.551-1.296zm.056 1.923c-.033.011-.055.055-.023.044.077.01.055-.054.022-.044zm-4.229-.402c-.83.561-1.68 1.058-2.445 1.706-.852.712-1.574 1.49-2.415 2.235-.088.065-.001.216.119.14.775-.615 1.442-1.338 2.164-2.008.797-.767 1.78-1.307 2.631-2.02.033-.01-.021-.064-.054-.053zm.577-.119c-1.474 1.134-2.646 2.635-4.055 3.855-.11.108.02.282.14.206 1.07-.929 1.98-2.02 2.996-3.003-.94.994-2.089 2.128-2.28 3.414-.023.151.195.151.228.033.4-1.535 1.907-2.787 2.892-3.976.055-.054.022-.151-.021-.173.087-.064.142-.118.23-.183.033-.119-.043-.238-.13-.173zm.532.075c-.629 1.827-2.223 3.145-2.68 5.057-.022.151.206.184.229.033.466-1.88 2.029-3.187 2.625-5.002.034-.12-.14-.206-.173-.087zm1.028.92c-.399 1.427-1.515 2.766-1.61 4.236-.022.151.238.173.228.033.128-1.481 1.179-2.799 1.545-4.214.034-.12-.13-.173-.163-.055zm.314.4c-.065-.086-.218 0-.153.087.259.454-.037.875-.181 1.318-.166.594-.246 1.232-.325 1.87-.023.151.249.205.26.022.103-.79.183-1.535.448-2.27.089-.389.134-.692-.05-1.027zm.798 1.32c-.08.53-.288.994-.378 1.49-.033.12.162.163.196.044.165-.486.364-.983.41-1.502-.01-.14-.238-.173-.228-.032zm.666 1.578c-.054-.054-.13.043-.077.097.12.14.15.346.096.508-.044.087.13.173.163.054a.617.617 0 00-.182-.66zM25.623 5.94c-.345-.497-.822-.735-1.465-.595-.5.13-1.058.637-1.06 1.177-.013.184.247.422.355.53.53.508.67.93.655 1.654-.004.649-.062 1.46.512 1.881.39.303 1.11-.15 1.372-.453.372-.41.528-1.037.64-1.577.254-.876.285-2.54-1.009-2.617zm-.37 4.366c-.971.465-.771-2.335-.943-2.745-.075-.227-.314-.4-.476-.563-.433-.432-.409-.8.04-1.2.567-.475 1.197-.215 1.607.261-.011.076.043.13.12.14 1.596.337.741 3.568-.349 4.107zm.834 2.53c-.087.065-.131.152-.208.249-.186.205-.272-.055-.216-.217.01-.075-.065-.086-.087-.043-.12.184-.133.476.15.562.238.065.403-.205.567-.367.12-.183-.075-.335-.206-.184zm.015 3.124c.012-.184-.216-.217-.26-.022-.012.076-.034.119-.045.194-.044.195.293.228.304.044-.032-.097-.01-.14.002-.216z"/></g><defs><clipPath id="clip0"><path fill="#fff" transform="rotate(-18.263 32.139 5.166)" d="M0 0h32.97v64.001H0z"/></clipPath></defs></svg>