<svg width="44" height="61" fill="none" xmlns="http://www.w3.org/2000/svg"><g clip-path="url(#clip0)" fill="#204686"><path d="M36.542 47.345c-.124-2.603-.478-5.161-.51-7.765-.05-2.75-.384-5.527-.618-8.277-.216-2.603-.346-5.874-1.573-8.387a8.007 8.007 0 00-.533-1.8c-.145-.347-.391-.722-.712-.95.028-.01.055-.019.046-.046l.056-.11.029-.191c.172-1.243-.575-2.577-1.74-3.135-2.2-1.006-4.716-1.392-6.638-2.946-.392-.63-.545-1.28-.228-2.174.28-.914.892-1.754 1.21-2.649.447-1.242.306-2.503-.257-3.654-1.264-2.531-4.524-3.219-7.092-2.462-2.734.81-3.935 3.67-4.188 6.245-.117 1.224.171 2.375.79 3.417.347.585.868 1.051 1.335 1.536.32.32.695.622 1.07.923.128.11.338.375.502.686a1.13 1.13 0 01-.418.867l-.222.165c-.497.255-1.032.492-1.227.83-.258.146-.507.32-.793.475-1.17.63-2.239 1.012-3.044 2.098-.343.448-.962 1.17-.727 1.79.137.32.558.576 1.072.741-.406.347-.73.758-.853 1.406-.348 1.544-.245 2.786-.253 4.34 0 3.526.633 7.207 1.046 10.688.44 3.655.982 7.245 1.597 10.872.454 2.677 2.085 5.391 4.729 6.07 2.995 2.02 7.956.809 10.966-.002 4.316-1.12 7.365-4.042 7.178-8.6zM17.556 17.104c.028-.01.02-.037.047-.046 0 0 .036.019.064.01.037.018.092 0 .129.018.064.01.11-.037.156-.082.27-.484.336-.932.292-1.343a1.626 1.626 0 00-.29-.786c-.473-.786-1.38-1.49-1.992-2.23-2.22-2.642-1.009-7.236 2.014-8.75 1.604-.803 3.651-.445 5.08.542 1.831 1.28 1.72 3.354.91 5.172-.465 1.095-1.022 2.009-.964 3.205.04 1.142.507 1.535 1.284 2.312.229.229.514.074.617-.173.357.338.732.64 1.108.85-.146 1.416-3.108 1.908-4.24 2.19-1.5.374-3.08.226-4.616.216-.46 0-.615-.1-.67-.265a8.64 8.64 0 001.072-.84zm-3.219 2.126a18.67 18.67 0 001.55-.876c.63.613 1.973.504 2.698.569 1.92.156 3.66-.144 5.52-.727 1.16-.383 2.293-.848 2.694-2.045l.33.165c1.366.613 3.718.962 4.316 2.497a.416.416 0 01.119.174.66.66 0 01.016.42c0 .091.027.173.007.301-.101.064-.203.128-.295.22a.6.6 0 01.165.036c-.24.2-.525.356-.793.474-.156.082-.35.146-.506.228l-.01-.027-.017-.055c-2.259 1.14-4.917 1.623-7.457 2.096-3.055.582-6.575.498-9.528-.655-.027-.082-.11-.146-.183-.092-.184-.091-.358-.155-.541-.247-1.12-.512 1.445-2.21 1.915-2.456zm16.055 35.282c-1.944.794-4.051 1.185-6.157 1.302-2.105.117-4.523.216-6.188-1.301-.174-.156-.358-.156-.514-.074-.486-.356-.952-.75-1.372-1.28-.959-1.233-1.363-3.015-1.603-4.486-.453-3.042-.997-6.085-1.358-9.127-.352-3.015-.574-6.103-1.064-9.072-.222-1.416-.471-3.006-.427-4.449.035-1.288.389-2.256.982-3.242.505.137.964.229 1.267.311 3.332.907 6.605.8 9.972.144 2.209-.455 4.482-.901 6.5-1.932a3.31 3.31 0 00.718-.237c.295-.128.6-.32.867-.53.347.403.554 1.307.699 1.655.263.703.176 1.462.457 2.129.046.137.192.21.32.228l.028.082c.486 2.029.723 4.14.895 6.24.191 2.156.327 4.33.49 6.496.163 2.165-.005 4.348.25 6.513.22 1.964.402 3.91.107 5.893-.408 2.292-2.898 3.935-4.87 4.737z"/><path d="M16.49 8.671c-.008-.118-.165-.128-.165-.036-.02.31-.214.557-.335.84-.121.283-.142.594-.198.886-.057.292.42.347.45.064.01-.338-.006-.667.042-.986.029-.284.205-.494.206-.768zm.251 1.133c-.149.384-.307.74-.327 1.142-.02.22.301.265.349.037.093-.366.196-.704.29-1.069.038-.164-.219-.292-.312-.11zm.473.969a.17.17 0 00-.267.21c.127.2.034.475-.022.676-.066.265.384.329.422.073.039-.347.086-.667-.133-.96zm11.001 9.015c-2.174.93-4.485 1.54-6.812 1.913-1.334.228-2.731.264-4.082.253-1.36-.037-2.488-.577-3.792-.907-.1-.027-.166.146-.056.201 1.1.458 1.97 1.052 3.184 1.108 1.396.056 2.822-.08 4.23-.271 2.464-.327 5.134-1.056 7.391-2.105.093-.092.038-.256-.063-.192zm-7.114 34.507c-.172-.43-.188-.94-.572-1.27-.165-.128-.368.091-.259.238.183.182.2.42.217.657.027.265.108.42.291.603.165.128.405-.072.323-.228zm.903-.328c-.146-.256-.145-.53-.337-.74-.1-.119-.275 0-.193.155.127.201.089.457.161.676.073.22.173.43.208.63.018.238.385.239.432.01-.007-.301-.153-.466-.271-.73zm1.047.019a.726.726 0 01-.053-.347c.056-.2-.283-.302-.34-.1-.093.273.007.483.07.767.035.2.311.2.34.01.028-.101-.008-.211-.017-.33zm1.361.038c-.046-.046-.1-.12-.146-.165-.174-.247-.571.036-.37.274l.146.165c.174.247.571-.036.37-.274zm.79.165c-.13-.019-.158.174-.029.192.13.019.158-.174.029-.192z"/><path d="M34.396 48.358a29.71 29.71 0 00.026-3.262c-.04-1.233-.023-2.484-.118-3.7-.085-1.278-.336-2.503-.421-3.782-.093-1.58-.296-3.124-.306-4.732-.007-.301-.144-.621-.188-.94-.017-.33.022-.677-.004-1.033-.017-.238-.015-.512-.097-.758-.081-.247-.319-.503-.345-.768-.017-.146-.146-.165-.256-.128a21.094 21.094 0 00-.196-1.334c.029-.1.075-.237.103-.338 0-.091-.119-.082-.128-.018.009.027-.019.036-.01.064-.018-.146-.035-.293-.08-.43a2.53 2.53 0 00-.099-.484.59.59 0 00-.016-.512c-.009-.027-.045-.045-.1-.027-.135-.685-.315-1.416-.643-1.946-.255-.402-.657-.878-1.134-1.024-.477-.147-.885.474-1.162.748-.046.046-.056.11-.029.192a2.317 2.317 0 00-.241.475c-.196.429-.464.822-.586 1.287-.01.064.091.092.137.046.084-.21.196-.429.28-.64-.189.823-.23 1.718-.189 2.586-.294-.055-.606-.073-.928-.12a1.425 1.425 0 00-.34-.009c-.07-.402-.133-.776-.232-1.17-.208-.721-.358-1.826-1.138-2.147-.32-.137-.689-.046-1.058.136-.009-.027-.073-.036-.091 0l-.038.073c-.258.146-.507.32-.737.457a1.963 1.963 0 00-.72.42c-.295.219-.453.483-.565.794-.315.62-.439 1.36-.488 2.046-.01.064 0 .091-.01.155l-.912.3c-.22.074-.414.138-.635.21-.152-.922-.423-1.836-.998-2.467.064-.082-.055-.164-.092-.091a2.752 2.752 0 00-1.072-.65c-.789-.256-1.59.009-2.29.392-.203.036-.36.118-.544.21l-.027.009c.037-.073.101-.156.139-.229.055-.11-.073-.219-.128-.11-.14.229-.306.466-.445.695-.093.09-.176.21-.232.32a2.59 2.59 0 00-.529.903c-.973 1.598-1.873 3.233-2.572 4.922-.074.146.173.247.22.11a39.362 39.362 0 012.23-4.383c-.048.32-.06.657-.08 1.06-.018.036.027.082.037.109l-.168.329c-.204.402-.408.803-.585 1.196-.452.301-.785.685-.63 1.06-.028.008-.084.027-.075.054.018.146-.001.274.017.42-.224.53-.456 1.032-.68 1.562-.046.137.137.228.211.082.177-.392.363-.758.512-1.141.008.119.026.265.062.374-.168.42-.28.822-.356 1.242-.019.128.174.156.22.019.076-.238.141-.503.225-.713.045.229.08.43.098.667-.251.54-.475 1.069-.616 1.662-.046.137.183.183.22.019.123-.466.263-.877.458-1.306l.08.52c-.25.448-.473.887-.687 1.352-.075.146.173.247.247.1.159-.355.317-.711.511-1.05.027.174.035.384.062.558a62.072 62.072 0 01-.947 1.68c-.055.11.091.183.156.1.315-.438.556-.912.835-1.369.017.238.043.503.088.731-.325.502-.603 1.05-.726 1.607-.019.128.174.156.22.019.104-.43.345-.813.568-1.16.008.21.043.411.051.621-.204.402-.417.776-.585 1.196-.056.11.128.201.183.092.158-.265.307-.557.437-.813 0 .092.026.174.026.265-.001.183.026.356.052.53-.167.329-.343.63-.52.931-.055.11.128.202.156.101.14-.228.25-.447.39-.676.071.402.134.777.205 1.179-.27.484-.53.995-.753 1.525-.055.11.128.201.184.091.204-.401.408-.803.64-1.214.018.146.045.32.062.466.026.265.117.539.17.795a23.129 23.129 0 00-.651 1.552c-.028.1.119.174.174.064.159-.447.354-.877.568-1.342.045.137.09.274.108.42.072.31.116.63.16.95a14.9 14.9 0 00-.54 1.242c-.055.11.128.201.184.092l.419-.96c.036.202.062.375.098.576.027.174.062.375.089.549-.26.511-.483 1.04-.707 1.57-.056.11.119.174.174.064L15 47.038c.071.493.17.977.24 1.47-.12.284-.223.53-.344.813-.028.1.119.174.147.074.093-.183.158-.357.25-.54.082.339.144.714.253 1.042-.205.402-.372.822-.54 1.242-.037.073.11.147.138.046.149-.383.307-.74.465-1.096.108.42.271.823.426 1.197-.14.32-.26.603-.4.923-.056.11.118.173.174.064.111-.22.241-.475.344-.722.1.21.2.42.318.594.01.028.046.046.055.073l-.363.85c-.056.11.128.2.184.091.102-.246.241-.475.343-.721.165.22.366.365.577.54-.14.319-.27.666-.429 1.022-.046.137.128.201.184.092.14-.32.279-.64.39-.95.23.137.459.274.716.402a3.68 3.68 0 00-.189.822c-.019.128.165.128.193.028.038-.256.104-.52.179-.758.037.018.073.036.138.045l.302.083c-.102.246-.232.502-.353.785-.047.137.137.229.211.083a6.34 6.34 0 00.344-.813c.166.036.359.064.551.091a4.006 4.006 0 00-.355 1.06c-.018.128.165.128.193.028.067-.357.197-.704.355-1.06.065.01.138.046.202.055.175.064.312.11.468.12-.112.31-.224.62-.262.967-.02.128.174.156.22.019.076-.33.188-.64.3-.95.192.027.413.046.652.028h.276a5.984 5.984 0 00-.541 1.516c-.028.1.146.164.174.064.187-.548.42-1.05.67-1.59.331-.017.643.001.984.01-.335.658-.752 1.252-.912 1.973-.046.137.183.183.22.019.16-.722.541-1.334.884-1.964l.019-.036c.184 0 .368 0 .58-.009-.01.064-.057.11-.066.174-.204.401-.235.867-.54 1.242-.092.09.045.228.146.164.268-.21.343-.539.419-.867.074-.238.15-.475.26-.694.212-.01.433.009.672-.01l.027-.008c-.13.255-.223.53-.28.822-.028.1.146.164.202.055.112-.31.233-.594.382-.886.266-.028.505-.046.772-.073-.046.137-.12.283-.13.439-.02.127.182.182.229.045.056-.2.121-.374.223-.53l1.214-.218a1.554 1.554 0 00-.075.42c0 .092.128.11.156.01.01-.155.048-.32.094-.457.377-.064.746-.155 1.123-.218 1.785-.346 4.05-1.002 5.215-2.481.593-.804.654-1.827.723-2.731zm-2.04-19.085c.087.913.146 1.836.169 2.74-.141.594-.87 1.078-1.322 1.38-.101.063.008.21.11.145.405-.255.968-.684 1.237-1.168.032.932.055 1.836.114 2.759.008.21.044.41.052.621-.341.265-.573.676-.823 1.032-.065.082.063.192.128.11.222-.348.417-.686.722-.968.095 1.215.18 2.402.247 3.626-.056.11-.084.21-.213.283-.074.055 0 .183.1.12l.14-.138c.05.713.102 1.425.117 2.12.067 1.133.154 2.229.249 3.352a9.95 9.95 0 01.055 1.654c-.03.466.066 1.407-.431 1.662-.397.192-.984-.01-1.342-.165-.752-.33-.73-1.097-.827-1.764-.123-1.023-.43-2.046-.59-3.088-.356-2.192-.418-4.422-.636-6.66-.174-1.827-.43-3.627-.577-5.463.22-.073.45-.118.7-.2.359-.119 1.022-.338 1.529-.657.009.027.073.036.1.027.343-.447.888-.84.991-1.36zm-1.364.602c.148-.201.333-.384.518-.566a.262.262 0 01.072.128c.319.685-1.081 1.177-1.514 1.35-.35.147-.682.256-1.05.347-.026-.265-.015-.511-.042-.776-.014-.695-.102-1.425-.135-2.175.478.055.946.175 1.395.33.349.128.853.357 1.164.65a5.497 5.497 0 00-.536.602c-.065.082.063.192.128.11zm1.257-1.388c.045.229.062.466.08.704l-.028.009c-.057.292-.27.575-.5.803.046-.137.093-.274.075-.42a.923.923 0 00-.181-.457c.203-.219.388-.401.554-.639zm-2.91-4.177l.038-.073c.073.037.137.046.174-.027.305-.283.694-.776 1.115-.428.128.11.256.219.357.338-.114.676-.706 1.205-1.104 1.762-.055.11.073.22.128.11.334-.566.898-1.087 1.048-1.744a.994.994 0 01.146.256c-.253.904-.854 1.68-1.043 2.593-.028.1.137.137.165.037.244-.84.716-1.635.96-2.475.073.128.118.265.163.402.208.63.361 1.28.486 1.937-.055.11-.148.2-.176.301a7.41 7.41 0 01-.787 1.142c-.084.118.072.219.165.128.314-.439.593-.895.843-1.343.053.348.098.667.179 1.005-.158.265-.39.493-.62.722a2.114 2.114 0 00-.55-.366 7.334 7.334 0 00-2.165-.714c-.058-1.197-.015-2.457.478-3.563zm-1.04 3.81l.386.054c.024.54.058 1.105.074 1.617.006.484.032.932.066 1.407-.304.1-.617.173-.957.255-.053-.438-.097-.85-.177-1.279-.09-.548-.132-1.142-.203-1.727l.662.056c.037.018.046-.046.01-.064-.221-.019-.45-.065-.662-.056 0-.09-.036-.2-.035-.292.275 0 .551 0 .836.028zm-1.916 7.653c.454-.575.861-1.196 1.406-1.68 0 .091.036.201.035.292.027.265.053.53.06.832-.23.228-.38.52-.564.794-.27.393-.638.666-.953 1.014-.064.082.055.164.12.082.268-.301.572-.584.832-.913.221-.256.324-.594.546-.85.035.384.06.74.095 1.124-.314.439-.703.84-1.045 1.288-.019.036-.037.073.009.118.045.046.063.1.109.147.055.073.211-.01.157-.083-.018-.054-.055-.073-.064-.1.269-.393.583-.74.86-1.105.097.941.174 1.919.27 2.86-.102.155-.332.292-.434.447-.167.238-.297.493-.5.712-.065.082.027.174.091.092.231-.229.37-.548.556-.822.083-.119.213-.192.305-.283.07.767.148 1.562.217 2.33.095 1.215.273 2.402.45 3.59.178 1.096.4 2.421.055 3.508-.252.813-1.109 1.095-1.88 1.076-.745-.027-1.212-.33-1.549-.978-.528-1.042-.936-2.001-1.197-3.162-.52-2.412-.672-4.915-.953-7.345-.229-1.992-.595-3.938-.768-5.947a41.134 41.134 0 004.13-.756c-.195.43-.518.84-.878 1.142-.12.1.035.292.155.191.434-.355.758-.858.954-1.378.175-.028.34-.082.515-.11.107.695.158 1.407.237 2.11-.618.448-1.035 1.133-1.526 1.69-.046.045.082.155.147.073zm.602-4.21c-.019.036-.01.063-.029.1-.432.081-.828.182-1.26.264.186-.366.481-.676.777-.986.324-.32.519-.75.778-1.078.089.548.16 1.133.248 1.681-.11.037-.257.055-.368.091l-.009-.027c.084-.119-.11-.146-.137-.046zm.285-1.828c-.314.347-.537.785-.86 1.105-.324.32-.703.657-.861 1.105-.957.163-1.914.327-2.861.427a16.02 16.02 0 01-.077-1.16c-.015-.512-.067-1.224-.063-1.955l.055-.018.25-.356c.258-.055.516-.11.782-.137-.157.265-.306.557-.436.813-.056.11.119.174.174.064.177-.301.344-.63.52-.931.12-.01.203-.037.322-.046.147-.018.267-.027.414-.045-.213.283-.398.557-.602.867-.056.11.072.22.165.128.222-.347.445-.694.676-1.013.322-.046.653-.064.975-.11-.019.037-.065.083-.084.12-.38.52-.685 1.077-1.02 1.643-.055.11.128.201.184.091.344-.63.715-1.269 1.131-1.862.304-.01.598-.046.901-.055-.149.384-.472.703-.704 1.023-.314.438-.63.877-.935 1.342-.083.119.081.247.165.128.352-.511.676-1.013 1.028-1.524.204-.311.453-.576.584-.923.053.439.097.85.177 1.28zm-3.284-1.226c.019-.037.046-.046.037-.073.285-.064.543-.119.837-.155-.046.046-.083.119-.13.164a27.28 27.28 0 01-.744.064zm.984-.082c.037-.073.083-.118.148-.2.322-.046.672-.1 1.003-.119l-.195.247c-.303.009-.598.045-.9.054l-.056.018zm2.06-.345c.019.055.01.118.036.2-.027.01-.055.019-.073.055l-.019.037h-.827a1.59 1.59 0 00.185-.275c.212-.009.45-.027.699-.017zm-.114-.905c.036.201.062.375.07.585-.156-.01-.275 0-.422.018.12-.192.213-.375.26-.603.028-.1-.128-.11-.129-.018a1.995 1.995 0 01-.279.639c-.33.018-.662.036-.984.082.019-.037.038-.073.065-.083.38-.52.732-1.123 1.194-1.58.063.284.172.613.225.96zm-.433-1.498l.108.329c-.452.392-.73.94-1.1 1.397-.13.164-.232.32-.371.456-.294.036-.607.11-.893.173.112-.22.232-.41.372-.64.435-.72 1.018-1.369 1.316-2.136.056-.11-.118-.174-.174-.064-.298.767-.909 1.425-1.326 2.11l-.473.794c-.23.045-.45.118-.68.164l.86-1.288c.446-.694.863-1.47 1.427-2.082.423-.017.78.23.934.787zm-3.825 1.87c.074.036.22.018.267-.119.123-.557.173-1.333.772-1.653l.47-.246c-.046.046-.11.128-.157.173-.278.366-.564.703-.879 1.05-.064.082.064.192.128.11.333-.383.657-.794.981-1.205.084-.119.176-.21.268-.301.074-.055.175-.119.25-.174a3 3 0 01.635-.3c-.37.456-.667.949-.991 1.451-.454.666-.88 1.324-1.362 2-.138.045-.304.1-.45.118 0-.274.02-.585.068-.904zm-.32 1.443a32.74 32.74 0 00.028 3.426c-.386.036-.764.1-1.177.145l-.106-.877c-.089-.64-.121-1.389-.19-2.156.478-.22.966-.41 1.445-.538zm-.16 21.604c-.075.146-.122.283-.196.43a.966.966 0 01-.387.127c-.441.055-.955-.019-1.396-.147.232-.502.52-1.023.523-1.57 0-.092-.147-.074-.156-.01-.003.548-.3 1.041-.532 1.543-.064-.009-.129-.018-.174-.064-.074-.036-.138-.046-.24-.073.066-.174.104-.338.16-.539.028-.1-.128-.11-.156-.009a3.76 3.76 0 01-.14.502 3.685 3.685 0 01-.835-.485c.159-.447.29-.885.449-1.333.14-.41.352-.511.17-.877-.064-.1-.193-.027-.166.055.164.31-.29 1.069-.384 1.343-.084.21-.159.447-.242.657a1.778 1.778 0 01-.438-.585 19.37 19.37 0 01.975-1.963c.056-.11-.119-.174-.174-.064-.334.566-.622 1.178-.92 1.762-.127-.292-.199-.603-.261-.977.4-.832.8-1.663 1.089-2.548.028-.1-.11-.147-.138-.046-.289.794-.651 1.552-1.014 2.31-.062-.466-.179-.913-.305-1.388l.92-1.946c.019-.036-.045-.045-.064-.009-.288.612-.549 1.215-.864 1.836-.109-.42-.143-.896-.27-1.28.444-.51.493-1.013.753-1.524.27-.484.593-.895.67-1.407.027-.1-.129-.11-.157-.009-.085.575-.567 1.16-.836 1.644l-.557 1.096c-.09-.366-.18-.731-.26-1.07l.018-.036c.362-.666.696-1.324 1.067-1.963.278-.457.501-.895.605-1.416 0-.091-.128-.11-.129-.018-.095.64-.465 1.187-.808 1.726-.306.466-.539.968-.808 1.452a135.15 135.15 0 00-.223-1.234c.325-.593.613-1.205.975-1.78.26-.42.546-.85.687-1.352.028-.1-.11-.146-.138-.046-.15.567-.52 1.023-.817 1.516-.278.457-.528.904-.77 1.38a9.564 9.564 0 00-.17-.978 2.245 2.245 0 00-.07-.402c.315-.53.621-1.087.973-1.598.269-.393.546-.758.668-1.224.028-.1-.128-.11-.156-.01-.187.64-.686 1.17-1.03 1.708-.185.274-.333.566-.518.84-.072-.402-.116-.813-.187-1.215a15.64 15.64 0 001.051-2.383c.047-.137-.127-.201-.183-.092a14.072 14.072 0 01-.94 2.073c-.089-.457-.15-.922-.204-1.361.427-.749.918-1.488 1.097-2.338.02-.128-.173-.155-.192-.027-.16.721-.55 1.397-.949 2.045-.035-.292-.107-.603-.142-.895.352-.603.714-1.178 1.039-1.772.055-.11-.119-.173-.175-.064a52.99 52.99 0 00-.909 1.607c-.018-.146-.054-.255-.071-.402.537-.785 1.23-1.56 1.474-2.401.404.019.827 0 1.241-.045l1.959-.19c-.176.301-.362.575-.648.821-.092.092.017.238.11.147.341-.265.564-.612.74-1.005.24-.018.478-.036.708-.081.036.292.098.575.134.867.428 2.504.653 5.044.879 7.583.225 2.54.662 5.07.731 7.601.025.54.012 1.243-.303 1.68-.009-.027.019-.036.01-.063.156-.082-.018-.146-.074-.037zM15.361 34.03c.158-.265.39-.493.538-.786.22.019.468.028.68.02-.206.675-.788 1.323-1.159 1.871-.065.082-.102.155-.167.237l-.133-.959c.056-.11.14-.228.242-.383zm-.294.127a2.512 2.512 0 01-.09-.456c-.018-.055-.008-.12-.026-.174l.148-.292c.193.027.405.018.597.046-.185.274-.453.575-.63.876zm5.762-1.567a3.076 3.076 0 01-.506.045c.066-.173.112-.31.186-.456.029-.1-.11-.147-.137-.046-.093.183-.158.356-.251.539-.322.045-.653.063-.975.109.52-.84 1.047-1.653 1.383-2.585.115.814.194 1.608.3 2.394zm-.316-2.722c-.364 1.032-.948 1.954-1.541 2.849-.019.036-.01.064 0 .091-.24.018-.498.073-.737.09-.975.11-1.976.045-2.95-.029.25-.447.501-.895.88-1.232.064-.082-.008-.21-.11-.146-.425.383-.721.876-.99 1.36-.065-.01-.093 0-.157-.01l-.027.01c-.009-.119-.027-.265-.035-.384.26-.511.53-.995.79-1.507.634-.118 1.26-.172 1.83-.3.147-.018.285-.064.396-.1a9.818 9.818 0 001.528-.474c-.279.548-.566 1.068-.955 1.562-.065.082.072.219.156.1.435-.539.723-1.15 1.01-1.762.296-.128.572-.22.867-.347.036.11.054.165.044.229zm-5.688 1.42c.018-.036.064-.082.074-.145.193-.064.396-.1.57-.128-.213.375-.426.749-.63 1.15-.008-.3-.007-.575-.014-.876zm-.173 1.243l-.148.292c-.165-.037-.358-.064-.496-.11l-.037-.018c.214-.374.436-.721.686-1.078a6.155 6.155 0 00-.005.914zm1.518-1.9c.451-.118.92-.273 1.399-.309a2.27 2.27 0 00.432-.082c-.018.037-.046.046-.037.073a16.93 16.93 0 01-1.794.319zm2.024-.363c.019-.037.046-.046.037-.073.368-.091.737-.182 1.096-.3a6.698 6.698 0 01-1.022.336l-.11.037zm2.249-1.076l-.498.164c.149-.293.325-.594.373-.914.054.256.07.494.125.75zm-.26-1.16l-.02.036c.173.43-.179.94-.411 1.351l-1.243.41c.528-.72 1.046-1.47 1.464-2.246.11.147.155.284.21.448zm-1.343-1.655c-.168.42-.473.794-.687 1.169a65.457 65.457 0 00-.974 1.689c-.055.11.119.174.175.064.39-.676.77-1.379 1.168-2.027.186-.274.343-.539.455-.85.184.092.32.23.495.385-.63.876-1.122 1.798-1.825 2.638-.092.092.072.22.165.128.684-.803 1.167-1.753 1.77-2.62.045.046.054.073.1.119.1.119.182.274.264.43l-.055.017c-.483.859-1.084 1.635-1.658 2.402l-.166.055c-.543.118-1.122.127-1.665.245-.34.082-.7.2-1.04.282.352-.51.695-1.05 1.01-1.58.028-.008.028-.008.046-.045.602-.867 1.012-1.854 1.65-2.703.258.037.524.101.772.202zm-3.665 1.24c.26-.33.637-.576.997-.785.378-.247.747-.43 1.142-.53.157.01.313.02.469.028-.565.795-.974 1.69-1.511 2.475-.028.009-.019.037-.01.064-.361.575-.787 1.141-1.204 1.735-.055.018-.12.009-.175.027l.032-.74.058-.658c.25-.447.547-.849.907-1.15-.13.164-.222.347-.324.502-.037.073.045.137.082.064.472-.52.834-1.187 1.25-1.78.038-.073-.054-.165-.119-.083-.296.402-.555.822-.852 1.224.01-.064-.072-.128-.119-.082-.313.255-.545.575-.768.922.03-.192.058-.384.059-.567-.008-.301.02-.493.086-.666zm-1.121 3.47c.158-.356.325-.776.52-1.205.028-.01.065.009.084-.028-.002.274-.04.53-.042.804-.018.037-.009.064.01.119.008.027-.001.091.008.119a5.674 5.674 0 00-.627.237s.028-.01.047-.046zm-.27.576c.101-.064.175-.12.23-.137.157-.082.314-.165.48-.22-.288.43-.584.832-.807 1.27l-.183-.092c-.037-.018-.037-.018-.046-.045l.326-.776zm-.543 1.79c-.008-.12-.054-.256-.062-.375.056-.11.111-.22.158-.356.037.018.046.046.083.064l.11.055a6.972 6.972 0 00-.289.612zm.071.493c.14-.32.307-.648.474-.977.174.064.34.1.533.128a7.89 7.89 0 00-.325.594c-.176.301-.371.639-.538.968-.045-.229-.09-.457-.144-.713zm.286 1.608a16.788 16.788 0 01-.071-.493l-.018-.055c.232-.502.529-.996.798-1.48.084-.118.13-.255.213-.374l.193.028.026.356-.093.182c-.343.63-.696 1.233-1.048 1.836zm.062.374c.297-.584.604-1.141.91-1.698l.167-.329c.008.21.044.411.089.64-.158.265-.334.566-.492.83-.213.375-.4.74-.613 1.115a4.78 4.78 0 00-.06-.557zm.249 1.681c-.027-.264-.071-.493-.098-.758.214-.374.39-.767.576-1.132.149-.292.325-.594.474-.886.045.229.053.439.098.667.027.082.026.174.053.256-.204.31-.38.612-.547.94a10.09 10.09 0 01-.556.913zm.096.941c-.027-.173-.026-.356-.053-.53.334-.566.66-1.159.956-1.744.037-.073.075-.146.14-.228l.052.439c-.353.694-.742 1.37-1.095 2.063zm.053.44c.26-.512.51-1.051.77-1.563.103-.246.242-.474.381-.703.035.293.107.603.143.896-.093.182-.223.347-.316.53-.306.556-.603 1.14-.882 1.689a4.293 4.293 0 01-.096-.85zm.271 2.493c-.071-.402-.143-.804-.186-1.215.362-.667.696-1.324 1.058-1.99.056-.11.093-.183.158-.265.062.465.151.922.213 1.388-.39.676-.835 1.37-1.243 2.082zm.126.475l-.045-.137c.38-.703.826-1.397 1.206-2.1.072.402.115.813.187 1.215-.056.11-.12.192-.177.301a21.93 21.93 0 00-.946 1.772c-.081-.338-.144-.713-.225-1.05zm.565 2.732l-.269-1.37a30.84 30.84 0 011.115-2.1c.061.465.151.922.213 1.388-.38.703-.734 1.397-1.06 2.082zm.08.338a44.41 44.41 0 011.023-2.1c.018.055.009.119.018.146.053.347.134.685.187 1.032a83.944 83.944 0 00-1.058 1.991c-.044-.32-.107-.694-.17-1.069zm.26 1.434l1.059-2.082.27 1.097-.038.073a50.926 50.926 0 00-1.023 2.283l-.268-1.37zm.393 2.12c-.018-.146-.063-.283-.08-.43.344-.812.688-1.625 1.07-2.42.044.23.126.476.17.704.064.192.09.366.126.567-.39.767-.78 1.534-1.161 2.328a6.697 6.697 0 00-.125-.749zm.54 2.284a11.086 11.086 0 01-.352-1.343l1.143-2.383c.099.484.142.986.25 1.498l-.093.183a41.44 41.44 0 00-.949 2.045zm.5.96c-.137-.229-.265-.43-.373-.667.297-.676.567-1.343.874-1.991l.111-.22c.036.202.09.366.154.558.036.11.081.247.145.347-.343.63-.641 1.306-.911 1.973zm.694.804a4.68 4.68 0 01-.512-.53c-.009-.027-.009-.027-.046-.046.298-.675.577-1.315.875-1.99.128.2.302.356.512.53-.056.11-.075.237-.13.347-.215.557-.457 1.123-.699 1.69zm.889.558a2.63 2.63 0 01-.688-.412c.27-.666.56-1.37.83-2.036.247.192.53.31.843.42-.326.686-.724 1.334-.985 2.028zm.614.192c-.165-.036-.302-.082-.468-.119.261-.694.66-1.342.949-2.045.137.045.238.073.376.119l-.037.073c-.28.639-.55 1.306-.82 1.972zm.79.165c-.202-.055-.367-.091-.569-.146.298-.676.559-1.37.82-2.064.266.064.56.119.845.146-.27.759-.734 1.398-1.096 2.064zm.845.238a9.693 9.693 0 01-.662-.146c.353-.694.807-1.36 1.06-2.082.22.018.44.037.615.01.028-.01.055-.019.092 0-.38.703-.78 1.442-1.106 2.218zm13.144-3.608c-.401 1.197-1.59 1.771-2.668 2.218-1.188.483-2.384.757-3.618 1.011l.038-.073c.037-.073-.11-.146-.138-.045l-.093.182-.083.028c-.34.082-.69.136-1.04.19.223-.346.445-.693.659-1.068.055-.11-.11-.146-.175-.064-.24.384-.546.758-.778 1.17-.266.026-.524.081-.79.108.268-.484.537-.968.76-1.497.038-.074-.072-.128-.11-.055-.26.511-.639 1.032-.927 1.552l-.717.054c.186-.365.38-.703.567-1.068.055-.11-.119-.174-.175-.064-.213.374-.427.749-.63 1.15-.065-.009-.12.01-.185 0-.12.01-.276 0-.423.018.26-.602.448-1.242.782-1.808.037-.073-.054-.164-.119-.082-.39.584-.595 1.26-.874 1.9-.331.017-.671.008-.975.017.437-.904.902-1.817 1.164-2.786.028-.1-.128-.11-.156-.009-.253.996-.819 1.881-1.283 2.795l-.938-.056c.326-.776.744-1.552 1.107-2.31 1.61-.41.993-3.58.888-4.64l-.786-7.674c-.21-2.12-.557-4.194-.84-6.258.386-.037.763-.1 1.15-.137.05.804.129 1.6.235 2.385.336 2.503.608 4.997.907 7.482.237 2.02.353 4.413 1.456 6.176.383.604.573 1.27 1.306 1.545.799.284 1.69.202 2.382-.208 1.457-.876.8-3.608.623-4.887-.683-4.486-.834-9.026-1.398-13.521.313-.073.616-.173.93-.246.109 1.91.338 3.81.511 5.728.244 2.503.286 5.043.77 7.528.116.539.232 1.078.321 1.626.08.43.05.895.186 1.307.218.657.776 1.05 1.465 1.188.56.12 1.139.11 1.482-.428.167-.237.141-.594.151-.84.012-.521.052-1.051.064-1.572-.003-1.215-.217-2.42-.312-3.636-.103-1.334-.15-2.685-.254-4.02-.198-2.548-.313-5.124-.419-7.673.002-.274-.025-.54-.05-.804.081.155.163.31.199.512.098.484.059 1.014.074 1.525.006.576.178 1.097.166 1.709-.003.548.104 1.15.138 1.717.217 2.421.609 4.815.678 7.254.04 1.233.07 2.44.073 3.654.006.576-.052 1.142-.046 1.717.088.64.002 1.398-.232 2.083zm-19.687-27.73c-.682.347-1.236.895-1.817 1.36-.416.32-.887.749-.89 1.297a.218.218 0 00.092.091c.064.01.092 0 .156.01.092 0 .139-.137.038-.165-.34-.1.787-1.141.935-1.25.507-.412.97-.868 1.568-1.187.074-.055.02-.22-.082-.156zm.818.156c-.757.584-1.441 1.297-2.189 1.908-.526.447-1.145.986-1.176 1.726-.01.064.036.11.1.119.064.009.101.027.156.009.129.018.157-.174.029-.192-.395-.082 1.194-1.67 1.314-1.771.647-.548 1.21-1.16 1.811-1.753.019-.037-.018-.055-.045-.046zm.42.348c-.673.556-1.201 1.278-1.811 1.935-.657.703-1.303 1.342-1.767 2.164-.056.11.127.2.183.091.473-.794 1.11-1.46 1.712-2.145.582-.648 1.082-1.36 1.747-1.945.074-.055.01-.155-.064-.1zm.072.493c-.622.995-1.39 1.917-2.166 2.812-.62.721-1.23 1.47-1.401 2.438-.01.155.21.174.22.019.227-1.078 1.003-1.882 1.678-2.712.657-.795 1.277-1.607 1.788-2.475.073-.055-.055-.164-.12-.082zm-3.067 6.21c-.293-.146 2.855-4.53 3.005-5.004a.064.064 0 00-.11-.055c-.186.457-.612.931-.908 1.333-.287.43-.556.822-.843 1.251-.565.794-1.102 1.58-1.447 2.484-.037.073.018.146.082.155.037.018.064.01.1.028.175.064.204-.128.121-.192zm2.935-4.1c-.765.557-1.147 1.443-1.592 2.228-.344.63-.752 1.251-1.067 1.872-.298.584-.301 1.224-.635 1.79-.056.11.072.22.156.1.24-.292.343-.63.437-.995.15-.657.485-1.224.81-1.817.556-1.005 1.106-2.402 2.047-3.077.019-.037-.054-.165-.156-.1z"/><path d="M27.327 32.878c-.306.465-.685.895-1.009 1.306-.092.09.072.219.165.128.342-.448.694-.868 1-1.334.028-.1-.091-.182-.156-.1zm-.26 5.8c-.065-.009-.093.092-.029.102.074.036.093-.092.029-.102zm-6.323-5.512c-.167.328-.325.684-.529.995-.139.228-.324.41-.39.676-.01.064.092.091.101.027.13-.255.297-.493.436-.721.177-.302.307-.649.456-.94.073-.056-.037-.11-.074-.037zm-.454 2.521l-.01.064c.323.046.333-.018.01-.064zm.348 2.073c-.13-.018-.177.211-.02.22.13.019.158-.174.02-.22zm9.789-13.869c-.316.621-.779 1.169-.957 1.836-.028.1.137.137.165.036.179-.667.613-1.205.865-1.835.01-.064-.064-.1-.073-.037zm.963 2.084c-.178.666-.512 1.232-.91 1.79-.065.082.072.219.155.1.417-.593.742-1.187.911-1.881.01-.064-.119-.083-.156-.01zm.849 4.522c-.124.74-.962 1.077-1.122 1.799-.019.128.165.128.193.027.132-.712.962-1.077 1.03-1.799.028-.1-.064-.1-.101-.027zm-.156 3.517c-.176.21-.36.393-.555.548-.101.064.008.21.11.147a5.75 5.75 0 00.574-.585c.055-.11-.064-.193-.129-.11zm.447.43c-.131.53-.574.858-.98 1.113-.074.055.009.12.064.1.424-.291.877-.684.98-1.204.02-.037-.045-.046-.063-.01zm-.67 5.024c-.1-.028-.138.137-.01.155.102.028.112-.128.01-.155zm-3.854-1.099c-.14.502-.611.84-.706 1.388-.02.128.174.155.193.027.076-.511.537-.877.678-1.379.028-.1-.137-.137-.165-.036zm.052 2.292c-.157.174-.26.42-.417.594-.046.046.036.11.083.064.157-.173.232-.41.38-.612.047-.046-.027-.082-.046-.046zm.019 1.636c-.018-.055-.073-.037-.092 0 0 .183-.075.329-.232.411-.046.046.009.119.064.1.203-.127.268-.301.26-.511zm-.44 1.543l-.019.037c.332.073.341.01.019-.037zM17.081 4.616c-1.125.766-1.904 2.026-2.14 3.35-.029.101.137.138.165.037.282-1.278.987-2.484 2.085-3.241.102-.064-.008-.21-.11-.146z"/><path d="M16.56 6.004c-1.081.995-1.613 2.447-1.878 3.872-.028.1.137.137.165.037.311-1.38.741-2.768 1.822-3.763.037-.073-.036-.2-.11-.146zm.06.74c-.179.758-.733 1.306-1.086 2-.335.657-.633 1.424-.664 2.164 0 .092.165.128.165.037.096-.822.367-1.58.738-2.31.316-.622.825-1.124.985-1.845-.009-.119-.138-.137-.138-.046zm.004.941c-.215.74-.605 1.415-.884 2.146-.224.621-.31 1.288-.37 1.946-.018.128.165.128.194.027.123-.74.228-1.443.452-2.155.215-.649.577-1.224.755-1.89.028-.101-.119-.175-.147-.074zm.268 1.37c-.135 1.17-.692 2.265-.818 3.462-.019.128.174.155.193.027a13.73 13.73 0 01.434-2.027c.15-.475.308-.923.357-1.425.046-.137-.147-.165-.166-.037zm1.016.942c0-.091-.137-.137-.156-.01-.108 1.16-.692 2.174-.965 3.298-.028.1.137.137.166.036.336-1.114.884-2.146.955-3.324zm.372 1.033c.027-.1-.138-.138-.157-.01-.114.768-.348 1.453-.609 2.147-.13.347-.261.785-.006 1.096.092.091.212-.01.148-.11-.283-.393.088-1.032.228-1.443.224-.53.31-1.105.395-1.68zm.325.986c-.027-.082-.193-.027-.139.046.1.21-.087.85-.162 1.087-.047.32-.131.62-.18.94-.018.128.175.156.194.028.048-.41.151-.84.19-1.279.112-.31.26-.511.097-.822zm.712.951c.028-.1-.119-.174-.147-.073-.197.703-.559 1.37-.47 2.1l.017.055c-.223.621-.86 1.196-1.277 1.698-.213.284-.666.767-.42 1.142.055.073.156.01.102-.064-.228-.411.493-1.105.724-1.424.324-.411.767-.831.936-1.343.027-.009.082-.027.092-.09-.07-.677.237-1.325.443-2.001zM19.78 14c-.018-.056-.11-.056-.092 0 .045.228.08.43.061.649-.01.064.083.064.092 0 .02-.22.012-.43-.06-.65zm.289 1.15c-.065-.008-.102-.027-.157-.009-.037-.018-.047.046-.01.065.065.009.102.027.166.036.019-.036.028-.1 0-.091z"/><path d="M19.243 14.693c-.75.977-1.51 2.11-1.644 3.37-.019-.055-.12-.082-.12.01-.023.767-.568 1.342-.911 1.972-.325.593-.604 1.233-.635 1.881.008.119.165.128.193.028.114-.859.468-1.644.931-2.375.26-.42.501-.803.568-1.25.055.072.174.063.174-.028.118-1.316.887-2.42 1.61-3.48.027-.1-.1-.21-.166-.128zm.042.686c-.362.757-.789 1.506-1.005 2.337-.019.128.165.128.193.028.198-.795.624-1.543.96-2.292.082-.12-.092-.183-.148-.073zm.462 1.215c-.009-.028-.073-.037-.064-.01a1.7 1.7 0 01-.483 1.042c-.074.054.017.146.082.064.25-.265.473-.703.465-1.096zm.048 1.626c-.028.009-.047.046-.019.037.065.009.047-.046.019-.037zm-3.575-.34c-.7.474-1.42.894-2.066 1.441-.72.603-1.33 1.26-2.041 1.89-.074.055-.001.183.1.119.656-.52 1.22-1.132 1.83-1.698.674-.648 1.503-1.105 2.223-1.707.028-.01-.018-.055-.045-.046zm.488-.1c-1.246.957-2.236 2.227-3.427 3.258-.093.091.017.238.118.174.905-.785 1.673-1.707 2.532-2.538-.795.84-1.765 1.798-1.927 2.885-.019.128.165.128.193.028.338-1.297 1.612-2.356 2.445-3.36.046-.046.018-.128-.018-.146.074-.055.12-.1.194-.156.028-.1-.036-.2-.11-.146zm.45.063c-.532 1.544-1.88 2.657-2.265 4.274-.02.128.174.155.193.028.394-1.59 1.714-2.694 2.219-4.228.028-.1-.119-.174-.147-.074zm.869.777c-.337 1.206-1.28 2.338-1.36 3.58-.02.128.2.147.192.028.108-1.251.996-2.365 1.306-3.562.028-.1-.11-.146-.138-.045zm.265.339c-.055-.073-.184 0-.129.073.219.384-.032.74-.153 1.114-.14.502-.208 1.041-.275 1.58-.019.128.21.174.22.019.087-.667.155-1.297.378-1.918.076-.33.114-.585-.04-.868zm.674 1.115c-.066.447-.243.84-.319 1.26-.028.1.137.137.165.037.14-.411.308-.831.347-1.27-.008-.119-.201-.146-.193-.027zm.564 1.334c-.046-.046-.111.036-.065.082.1.119.127.293.08.43-.037.073.11.146.138.046a.52.52 0 00-.154-.558zM21.657 5.02c-.292-.42-.695-.62-1.238-.502-.423.109-.895.538-.897.995-.01.155.21.356.301.448.448.43.566.786.553 1.398-.003.548-.052 1.233.433 1.59.33.255.938-.128 1.16-.383.315-.347.446-.877.54-1.334.216-.74.242-2.146-.852-2.211zm-.314 3.691c-.82.393-.65-1.973-.796-2.32-.063-.192-.265-.339-.402-.476-.366-.366-.346-.676.033-1.014.48-.401 1.012-.182 1.36.22-.01.064.035.11.1.12 1.35.283.627 3.014-.295 3.47zm.707 2.139c-.075.054-.112.127-.177.21-.157.173-.23-.046-.183-.183.01-.064-.055-.074-.073-.037-.102.155-.113.402.126.476.202.055.341-.174.48-.311.102-.155-.063-.284-.174-.155zm.012 2.64c.01-.156-.183-.183-.22-.019-.01.064-.028.1-.038.164-.038.165.247.192.257.037-.027-.082-.008-.119.001-.183z"/></g><defs><clipPath id="clip0"><path fill="#fff" transform="rotate(-18.263 27.165 4.366)" d="M0 0h27.867v54.094H0z"/></clipPath></defs></svg>