<svg width="65" height="71" fill="none" xmlns="http://www.w3.org/2000/svg"><g clip-path="url(#clip0)" fill="#75BB43"><path d="M41.404 15.02c-1.44-.825-2.952-1.674-4.605-2.004-1.654-.33-3.236 0-4.795.519-2.693.872-5.763 1.863-7.558 4.22-.945 1.227-1.512 2.783-2.031 4.222-.567 1.627-1.016 3.277-1.134 4.999-.26 3.513 1.016 6.98 2.504 10.092 1.322 2.806 3.212 5.47 5.952 7.05 2.834 1.627 6.755 1.863 9.943 1.415 3.212-.448 6.425-2.287 8.952-4.268 2.48-1.957 3-5.47 2.787-8.465-.283-3.914-1.913-7.593-3.708-11.012-1.535-2.924-3.496-5.754-6.566-7.216-.402-.188-.78.425-.355.614 2.504 1.202 4.228 3.348 5.598 5.706 1.488 2.547 2.81 5.33 3.637 8.159.898 3.112 1.276 7.074-.401 10.021-.732 1.297-1.984 2.052-3.212 2.806-1.394.873-2.787 1.745-4.323 2.311-2.952 1.085-6.613 1.038-9.636.26-2.905-.731-5.173-2.9-6.755-5.377-1.606-2.57-2.882-5.588-3.472-8.56-.638-3.23.07-6.342 1.252-9.337.66-1.721 1.464-3.278 2.975-4.41 1.252-.92 2.74-1.509 4.205-2.027 1.677-.59 3.425-1.274 5.22-1.132 1.865.141 3.566 1.108 5.148 2.028.426.212.78-.401.378-.614z"/><path d="M44.593 20.986c-1.842-1.815-3.968-3.254-6.377-4.22-1.157-.472-2.315-.85-3.567-.66-1.228.188-2.361.825-3.377 1.508-3.992 2.736-6.188 7.499-6.117 12.286.023 2.593.637 5.258 1.818 7.569 1.158 2.24 3.826 3.23 6.141 3.867 2.504.684 5.196.755 7.7-.047 2.055-.684 4.606-1.84 5.692-3.82.59-1.061.614-2.287.638-3.49 0-1.721 0-3.443-.094-5.164-.166-2.783-.638-5.612-2.315-7.9-.26-.353-.874 0-.614.354 2.669 3.632 2.409 8.796 2.338 13.087-.024 1.297-.189 2.523-1.087 3.514-.755.825-1.77 1.391-2.763 1.91-2.197 1.108-4.535 1.58-6.991 1.32-2.291-.26-5.102-1.06-6.897-2.546-1.819-1.51-2.48-4.787-2.716-7.027-.496-4.386.874-8.89 4.11-12.003a11.49 11.49 0 012.763-2.004c1.512-.778 2.882-.896 4.464-.33 2.575.896 4.866 2.405 6.802 4.315.26.283.78-.212.45-.519zm-2.22 23.769c2.267 3.985 4.393 8.065 6.306 12.238a145.63 145.63 0 012.952 6.838c.45 1.109.874 2.194 1.3 3.302.236.613.543 1.273.566 1.933.118.755-.283 1.061-1.204.967-.166-.189-.33-.4-.473-.613-5.314-7.215-9.424-15.54-12.565-23.91-.165-.425-.85-.236-.685.188 2.882 7.711 6.613 15.115 11.172 21.977.638.967 1.63 3.278 3.023 3.349 1.134.047 1.512-1.25 1.417-2.146-.212-1.887-1.322-3.868-2.031-5.636a178.83 178.83 0 00-2.504-5.8 157.703 157.703 0 00-6.684-13.04c-.212-.401-.827-.048-.59.353z"/><path d="M39.42 45.58c.59.142 1.205.213 1.795.236.119 0 .119-.165 0-.188-.59 0-1.18-.095-1.747-.213-.118-.023-.166.142-.048.165zm-.803.52c.85.023 1.677.754 2.504.235.094-.07 0-.212-.095-.142-.755.472-1.63-.235-2.409-.259-.118-.023-.118.165 0 .165z"/><path d="M38.854 46.359c.803.424 1.63.707 2.55.802.119.023.119-.165 0-.189a6.51 6.51 0 01-2.456-.778c-.118-.047-.189.118-.094.165z"/><path d="M39.468 46.901a9.34 9.34 0 002.409.802c.118.023.165-.142.047-.165a8.418 8.418 0 01-2.362-.778c-.118-.048-.212.094-.094.141zm.283.779c.827.211 1.653.423 2.48.636.118.023.165-.142.047-.165l-2.48-.637c-.118-.024-.165.142-.047.165zm.213.518c.803.283 1.63.495 2.48.636.118.024.165-.141.047-.165a14.712 14.712 0 01-2.48-.636c-.118-.047-.165.118-.047.165zm.59.66c.638.212 1.276.377 1.937.495.118.024.165-.141.047-.165a13.738 13.738 0 01-1.936-.495c-.119-.047-.166.118-.048.165zm.024.519c.756.26 1.511.472 2.314.637.119.023.166-.142.048-.165-.78-.165-1.56-.354-2.315-.637-.094-.047-.142.118-.047.165zm.165.424c.756.52 1.606.802 2.527.896.119 0 .119-.165 0-.188a5.061 5.061 0 01-2.432-.873c-.095-.07-.19.095-.095.165zm0 .637a9.16 9.16 0 002.339.683c.118.024.118-.165 0-.188-.78-.094-1.536-.33-2.268-.66-.07-.024-.165.117-.07.165zm.425.66a7.547 7.547 0 002.338.66c.118.024.118-.165 0-.188a7.412 7.412 0 01-2.243-.637c-.119-.023-.213.118-.095.165zm.236.614c.78.471 1.63.66 2.528.589.118 0 .118-.189 0-.189a3.97 3.97 0 01-2.433-.566c-.095-.047-.19.118-.095.166zm.236.872a6 6 0 002.693.683c.118 0 .118-.165 0-.188a5.52 5.52 0 01-2.598-.66c-.118-.024-.189.117-.094.165zm.378.873a6.462 6.462 0 002.315.495c.118 0 .118-.165 0-.189a6.32 6.32 0 01-2.267-.495c-.095-.024-.142.141-.048.189zm.709.565a8.067 8.067 0 002.575.731c.118.024.118-.165 0-.188a7.658 7.658 0 01-2.48-.708c-.119-.023-.213.118-.095.165zm.354.92a8.77 8.77 0 002.457.637c.118.023.118-.166 0-.19a10.67 10.67 0 01-2.41-.636c-.094-.023-.141.142-.047.189zm.473.919c.874.33 1.748.684 2.621 1.014.119.047.142-.141.048-.165-.874-.33-1.748-.684-2.622-1.014-.118-.047-.165.118-.047.165zm.283.732a6.108 6.108 0 002.433.99c.118.023.165-.142.047-.165-.874-.165-1.653-.472-2.386-.99-.094-.048-.188.094-.094.165zm.378 1.037a7.616 7.616 0 002.55.872c.119.024.166-.165.048-.165a6.971 6.971 0 01-2.527-.848c-.071-.071-.165.094-.071.141zm.827.896a9.66 9.66 0 002.385.872c.118.024.166-.141.047-.165-.826-.188-1.606-.448-2.338-.848-.118-.071-.213.07-.094.141zm.638.873a5.79 5.79 0 002.22.683c.118.024.118-.165 0-.188a6.042 6.042 0 01-2.126-.66c-.095-.048-.19.094-.095.165zm.023.636a5.367 5.367 0 002.315.755c.118 0 .118-.165 0-.189-.803-.07-1.536-.33-2.22-.73-.119-.048-.19.094-.095.164zm.497.708a4.355 4.355 0 002.03.542c.118 0 .118-.165 0-.188a3.967 3.967 0 01-1.936-.52c-.119-.023-.19.119-.095.166zm1.062.683c.496.166.992.354 1.464.52.118.046.166-.142.047-.166-.496-.165-.992-.354-1.464-.519-.118-.047-.165.142-.047.165zm-.402.401c.638.448 1.37.684 2.15.779.118.023.118-.166 0-.19a4.265 4.265 0 01-2.055-.754c-.118-.07-.19.095-.095.165zm.426.566c.661.354 1.346.613 2.078.731.118.024.166-.141.047-.165a6.315 6.315 0 01-2.03-.707c-.119-.071-.213.07-.095.141zm.779.731c.472.236.992.401 1.512.495.118.024.165-.141.047-.165a6.251 6.251 0 01-1.465-.471c-.094-.071-.188.094-.094.141zm-.378.401c.59.307 1.204.519 1.866.66.118.024.165-.141.047-.165a7.915 7.915 0 01-1.819-.636c-.118-.071-.189.07-.094.141zm.827.778a3.23 3.23 0 001.842.59c.118 0 .118-.189 0-.189a2.92 2.92 0 01-1.748-.566c-.094-.047-.189.095-.094.165zm.33.543c.496.306 1.04.471 1.63.519.118 0 .118-.165 0-.189-.567-.024-1.063-.212-1.535-.495-.095-.047-.19.094-.095.165zm.024.542c.543.26 1.11.495 1.677.707.118.047.166-.141.047-.165a12.477 12.477 0 01-1.63-.684c-.094-.07-.188.095-.094.142zm.496.613a3.389 3.389 0 001.63.707c.118.024.165-.141.047-.165a3.53 3.53 0 01-1.583-.683c-.094-.071-.189.07-.094.141zm.566.66a4.853 4.853 0 001.583.637c.118.023.166-.142.047-.165a5.106 5.106 0 01-1.535-.613c-.094-.07-.189.094-.094.141zm.568.896c.118 0 .118-.188 0-.188-.118.023-.118.188 0 .188zM22.391 23.014a24.489 24.489 0 003.803 1.604c.118.023.165-.142.047-.165a23.859 23.859 0 01-3.755-1.58c-.095-.07-.19.094-.095.141zm-.024 1.038c.638.33 1.276.66 1.96.92.473.188 1.182.613 1.678.542.047 0 .07-.094.047-.142l-.023-.023c-.024-.047-.071-.047-.119-.024 0 0-.023 0-.023.024-.095.047 0 .212.094.141.024-.023-.945-.424-1.015-.448l-.709-.283a24.92 24.92 0 01-1.795-.849c-.118-.07-.189.095-.095.142zm.048-1.839a46.06 46.06 0 013.59 1.768c.07.047.141-.024.141-.094a2.932 2.932 0 01-.07-.236c-.024-.118-.213-.07-.166.047.024.07.047.142.071.236.047-.024.095-.07.142-.094a56.123 56.123 0 00-3.59-1.769c-.119-.07-.213.094-.119.142zm.495-.85c1.11.566 2.22 1.061 3.378 1.51.118.047.142-.142.047-.166a29.905 29.905 0 01-3.33-1.485c-.094-.07-.189.07-.094.141zm.331-1.226a46.565 46.565 0 003.78 2.217c.07.047.165-.047.117-.118-.047-.094-.094-.165-.141-.26-.047-.094-.213 0-.142.095.047.094.095.165.142.26l.118-.119a54.59 54.59 0 01-3.78-2.216c-.094-.07-.188.07-.094.141zm.472-.943a21.88 21.88 0 013.59 2.264c.095.07.213-.047.119-.118a24.081 24.081 0 00-3.614-2.311c-.118-.047-.213.118-.095.165zm.686-1.344a359.48 359.48 0 003.424 2.806c.071.071.19-.023.142-.118-.047-.07-.07-.117-.118-.188-.047-.095-.213 0-.142.094.048.07.071.118.118.189.048-.047.095-.071.142-.118a359.48 359.48 0 00-3.425-2.806c-.118-.071-.236.07-.141.141zm1.535 8.112a109.651 109.651 0 00-3.992-.99c-.118-.024-.165.141-.047.165 1.346.306 2.669.636 3.992.99.094.024.141-.142.047-.165zm-.449.636a118.069 118.069 0 00-4.039-.495c-.07 0-.118.094-.07.141.165.142.26.166.495.166.119 0 .119-.19 0-.19-.425.048.544.166.497.142.306.024.614.071.92.118l2.126.283c.142.024.19-.141.071-.165zm-.165 1.014a49.617 49.617 0 01-3.732-.283c-.118-.023-.118.165 0 .189 1.228.141 2.48.236 3.732.283.118 0 .118-.189 0-.189zm-.047.614a20.533 20.533 0 01-3.402.141c-.094 0-.118.142-.023.165.189.07.165.07.33-.023.095-.048.024-.213-.094-.142h-.189c0 .047-.024.118-.024.165 1.134.047 2.268 0 3.402-.141a.083.083 0 000-.165zm-.071.872c-1.063.095-2.15.189-3.213.283-.118 0-.118.189 0 .189.071 0 .166-.024.237-.024.118 0 .118-.188 0-.188-.071 0-.166.023-.236.023v.189c1.062-.095 2.149-.189 3.212-.283.118-.024.118-.189 0-.189zm.094.825c-1.04.142-2.078.26-3.118.401-.118.024-.118.165 0 .189.142 0 .284.023.426.023.118 0 .118-.165 0-.188-.142 0-.284-.024-.426-.024v.189c1.04-.142 2.079-.26 3.118-.401.118-.024.118-.189 0-.189zm.047.778c-.59.19-1.18.354-1.771.448-.307.048-.945-.047-1.181.213-.024.047-.024.094 0 .118 0 .023.023.023.023.047.024.023.048.023.095.023h.047c.024 0 .071-.047.071-.094v-.023c0-.118-.189-.118-.189 0 .024.212 2.763-.496 2.952-.543.119-.047.071-.212-.047-.189z"/><path d="M25.556 31.833c-.567.26-1.134.26-1.724.283-.237 0-.969-.023-1.158.142-.094.07.047.212.118.118.85-.802-.92-1.226-.708-.307.142.59.85.283 1.204.236.803-.094 1.583 0 2.362-.33.095-.024 0-.189-.094-.142zm0 .59a13.65 13.65 0 01-2.74.637c0 .047.024.117.024.165.07-.024.118-.047.189-.071.118-.047.07-.212-.047-.165-.071.023-.119.047-.19.07-.094.024-.07.19.024.166.945-.118 1.89-.33 2.787-.637.095-.047.047-.212-.047-.165zm-.118.754a7.75 7.75 0 01-1.016.425c-.095.023-1.063.33-1.063.33.047.094.213 0 .142-.094 0 0 0-.024-.024-.024a.18.18 0 00-.094-.047c-.071.023-.095.047-.118.094-.024.047 0 .07.047.095.236.141.685-.071.921-.142.449-.141.874-.306 1.276-.495.118-.024.023-.189-.071-.142zm.496.967a6.2 6.2 0 01-2.22.85c-.119.023-.071.188.047.164a6.843 6.843 0 002.244-.872c.118-.047.023-.189-.071-.142zm.283 1.226c-.661.283-1.322.543-1.984.826-.094.047-.047.212.047.165.662-.283 1.323-.543 1.984-.826.119-.023.071-.212-.047-.165zm.567.66c-.449.26-.874.52-1.323.779-.236.14-.708.282-.755.565a.13.13 0 00.07.118c.024 0 .024 0 .048.024.023.023.07 0 .094-.024.024 0 .024-.023.047-.023.024-.024.024-.071.024-.118 0 0 0-.024-.024-.024-.07-.094-.212 0-.141.095 0-.024.023-.048.023-.095.024.047.047.071.071.118.024-.165.473-.354.614-.424.142-.071.284-.165.425-.236.331-.189.638-.377.969-.566.047-.094-.047-.26-.142-.189zm.662 1.698c-.59.354-1.205.708-1.795 1.061-.071.047-.048.165.047.165h.33c.119 0 .119-.188 0-.188h-.33c.023.047.023.118.047.165.59-.354 1.205-.708 1.795-1.061.071-.047 0-.189-.094-.142zm.826.967a31.85 31.85 0 01-1.653 1.462c-.07.071.024.189.118.142.095-.07.213-.142.307-.189.095-.07 0-.212-.094-.141a2.15 2.15 0 01-.307.188c.047.048.07.095.118.142a33.185 33.185 0 001.653-1.462c.047-.094-.07-.212-.142-.142zm.968.873a12.827 12.827 0 00-1.747 2.004c-.07.094.095.188.142.094a13.65 13.65 0 011.724-1.98c.07-.071-.047-.213-.118-.118zm1.063.566a11.132 11.132 0 01-.756 2.098c-.141.283-.59.731-.495 1.062 0 .047.047.07.094.07.07 0 .095-.023.142-.07.023-.024.023-.071-.024-.118l-.023-.024c-.095-.07-.213.047-.119.118.048.047.78-1.32.827-1.439.236-.518.402-1.084.543-1.627.024-.141-.165-.188-.189-.07zm1.394.778c-.142.542-.284 1.06-.425 1.603-.047.212-.402 1.887-.756 1.698-.094-.047-.189.094-.094.141.377.19.543-.117.66-.448.355-.943.544-1.98.804-2.97 0-.072-.165-.119-.19-.024zM25.91 17.497c.52.424 1.087.849 1.63 1.273.284.212.567.425.85.613.119.095.213.189.355.189.047 0 .07-.024.094-.07 0-.024.024-.048.024-.048.023-.047 0-.07-.047-.094-.024 0-.024-.024-.048-.024-.094-.07-.189.094-.094.142.023-.118-.024-.166-.142-.213-.094-.07-.212-.141-.307-.236-.236-.165-.472-.33-.685-.518a36.375 36.375 0 01-1.511-1.18c-.071-.023-.213.095-.119.166zm1.157-1.157a288.24 288.24 0 002.716 2.689c.071.07.19-.024.142-.118-.07-.165-.165-.306-.236-.472-.047-.094-.213-.023-.142.095.071.165.166.306.236.471.048-.047.095-.07.142-.118A293.245 293.245 0 0027.21 16.2c-.095-.047-.236.071-.142.142zm2.032-1.485c.567.967 1.252 1.84 2.031 2.665.071.094.213-.047.118-.118a16.734 16.734 0 01-2.007-2.618c-.048-.117-.19-.023-.142.071zm2.693-.872c.567.943 1.133 1.863 1.677 2.806.047-.024.094-.07.141-.095-.047-.094-.094-.165-.141-.259-.047-.094-.213 0-.142.094.047.095.095.166.142.26.047.094.212 0 .141-.095-.566-.943-1.133-1.862-1.677-2.806-.047-.094-.189-.023-.141.095zm2.905-.683c.189 1.178.354 2.357.543 3.56.023.118.189.07.165-.047-.189-1.18-.354-2.358-.543-3.56-.024-.095-.189-.048-.165.046zm2.22.282a18.16 18.16 0 010 3.914c-.024.118.165.118.188 0 .142-1.32.142-2.617 0-3.914-.023-.118-.188-.118-.188 0zM.047 7.97c3.307 6.862 4.205 14.596 7.606 21.41 1.724 3.49 3.307 6.839 4.251 10.635.898 3.608 1.418 7.263 2.008 10.942.33 2.098.685 4.22 1.157 6.295.496 2.217 1.7 4.858 1.134 7.122-.118.448.567.636.685.188.472-1.815-.142-3.537-.614-5.282-.473-1.862-.85-3.749-1.205-5.635-.685-3.867-1.18-7.758-1.984-11.602-.78-3.655-1.866-7.215-3.566-10.54-1.89-3.726-3.401-7.428-4.582-11.436C3.685 15.822 2.55 11.577.662 7.593c-.213-.401-.827-.048-.615.377z"/><path d="M.732 8.23C14.432 6.295 28.06 3.795 41.546.683c-.142-.047-.26-.118-.401-.165 7.652 16.034 15.328 32.069 22.981 48.08.189.4.803.047.614-.354C57.088 32.211 49.411 16.176 41.76.165c-.071-.141-.26-.189-.402-.165A468.81 468.81 0 01.543 7.546c-.449.07-.26.754.19.683zm15.896 56.239a475.529 475.529 0 0126.878-6.674c.45-.094.26-.778-.189-.684a480.788 480.788 0 00-26.878 6.674c-.449.118-.26.801.189.684zm32.099-8.937a922.207 922.207 0 0016.013-5.73c.284-.095.378-.496.095-.637-.709-.401-1.417-.401-2.102.07-.378.26-.024.873.354.614.401-.354.874-.378 1.37-.071a5.92 5.92 0 01.094-.637 919.957 919.957 0 01-16.014 5.73c-.425.142-.236.826.19.66zM15.069 33.319c.189-.59 1.606-.613 2.15-.85.472-.188.07-.306.519-.211.142.023.26.212.425.259.496.141.85-.142 1.157-.519.425-.542.284-.636 1.229-.73.33-.024.33.117.684.023.45-.118.26-.802-.189-.684-.66.165-.992-.519-1.653.024-.401.33-.354.66-.92.825-.591.189-.402-.07-.875-.118-.165 0-.307.07-.449.142-.377.188-.566.471-.992.589-.141.047-.33.024-.496.07-.614.119-1.086.378-1.275.991-.142.425.543.613.685.189z"/><path d="M26.288 30.041c.85.448 1.418-.283 1.418-1.108 0-.401-.355-1.25.448-1.108.213.023.52.424.685.542.355.26.638.4 1.087.448.189.023.354-.165.354-.354 0-1.06-.024-2.146-.024-3.207-.189.095-.354.212-.543.307 1.3.73 2.386 1.674 3.33 2.853.142.165.473.118.567-.07.803-1.699-.59-3.255-.189-4.976-.188.047-.401.094-.59.165 1.44 1.698 2.905 3.395 4.346 5.117.212.26.59.023.614-.26.189-2.051-2.197-3.089-2.197-5.046-.189.095-.354.212-.543.307 1.063.778 2.102 1.58 3.165 2.358.614.448 1.535 1.532 2.362 1.556.496.024.732-.33.827-.778.212-.967-.213-2.429-.307-3.42-.213.095-.402.166-.614.26a21.887 21.887 0 013.212 3.23c.212.26.59.024.614-.259.047-.92.07-1.839.118-2.735-.213.094-.402.165-.614.26.26.212.496.4.756.612.141.118.354.142.496 0 .118-.094.236-.212.33-.306.331-.307-.165-.802-.496-.495-.118.094-.236.212-.33.306h.496c-.26-.212-.496-.4-.756-.613-.236-.188-.59-.07-.614.26-.047.92-.071 1.839-.118 2.735.212-.094.401-.165.614-.26a19.803 19.803 0 00-3.212-3.23c-.213-.165-.638-.094-.614.26.07.73.141 1.438.236 2.169.047.377.307 1.108-.355 1.132-.212 0-.755-.566-.92-.684-1.3-.967-2.599-1.957-3.922-2.924-.212-.165-.543.07-.543.306 0 1.981 2.362 3.09 2.197 5.047.212-.095.401-.165.614-.26-1.44-1.698-2.905-3.395-4.346-5.117-.165-.212-.543-.094-.59.165-.378 1.604.944 3.325.26 4.81l.566-.07c-.968-1.226-2.126-2.193-3.472-2.971a.358.358 0 00-.543.306c0 1.062.024 2.146.024 3.207l.354-.353c-.827-.071-1.3-1.297-2.22-1.062-.284.071-.473.26-.614.52-.142.259-.19 2.004-.426 1.886-.425-.283-.803.33-.378.542zm21.21-7.074c.33-.094.685-.188 1.016-.306.26-.071.685-.283.945-.236-.095-.024-.166-.071-.26-.095.023.024.047.024.047.048-.024-.118-.07-.236-.095-.354v.047l.237-.236h.094c.071.142.166.283.236.425v-.024c.118-.448-.567-.637-.685-.189v.024a.357.357 0 00.237.424.576.576 0 00.283 0 .303.303 0 00.236-.235c.095-.425-.307-.59-.661-.52-.638.142-1.252.378-1.89.543-.378.142-.189.826.26.684zm-29.5 18.935c.732-.047.945-.825 1.7-.802.355 0 .567.213.922.095.307-.095.377-.401.637-.543.402-.235.945.071 1.441-.188.496-.26.78-.354 1.346-.377.355-.024.59-.071.898-.26.378-.26.023-.872-.354-.613-.52.354-1.394.118-2.008.377-.307.118-.307.236-.709.236-.33 0-.33-.141-.685-.023-.236.094-.33.33-.52.471-.66.448-.731.024-1.322.024-.685 0-.85.896-1.346.92-.449 0-.473.707 0 .683zM29.5 37.54c.048-.755.614-1.062 1.677-.92.024.354.473.472.662.189.567-.85.732-1.722.543-2.736l-.425.425c1.488.377 2.055 2.193 3.33 2.947.189.118.449 0 .52-.212.378-1.203.543-2.429.566-3.678-.212.07-.448.117-.66.188a8.413 8.413 0 002.597 2.641c.26.165.614-.118.52-.4-.307-1.062-.614-2.123-.898-3.184-.165.141-.354.26-.52.4.922.52 1.843 1.062 2.788 1.533.472.26 1.04.543 1.606.425.378-.094.756-.377.874-.778.047-.142 0-.307.047-.448-.283-.59.118-.896 1.205-.92.26.165.472.354.685.59.212.212.59.047.614-.26.023-1.131.85-.872 1.559-.896.118 0 .26.047.354 0 .283-.141.401-.353.378-.66-.024-.165-.095-.283-.26-.33-.402-.142-.709.047-.803.448-.095.448.59.637.685.189-.024.023-.047.023-.071.047-.095-.118-.165-.236-.26-.33-.047-.472-1.204-.095-1.464.07-.543.33-.827.85-.85 1.486.212-.094.401-.165.614-.26-.78-.754-2.079-1.556-2.976-.471-.567.707.236 1.863-1.276 1.65-.472-.07-1.11-.589-1.511-.825-.544-.283-1.063-.59-1.607-.872-.26-.142-.614.094-.52.4.308 1.062.615 2.123.898 3.184.166-.142.355-.26.52-.4a7.661 7.661 0 01-2.362-2.406.355.355 0 00-.661.188 11.59 11.59 0 01-.544 3.49c.166-.07.355-.141.52-.212-1.37-.825-1.866-2.594-3.496-3.018-.283-.07-.472.165-.425.424.142.826-.023 1.51-.472 2.193.212.071.449.118.661.189-.023-.731-.543-1.297-1.322-1.25-1.063.047-1.536 1.085-1.748 1.98-.071.449.614.638.708.19zm21.754-6.58c.756-.164 1.488-.33 2.244-.494.448-.095.26-.779-.19-.684-.755.165-1.487.33-2.243.495-.45.118-.26.802.189.684zM10.227 16.53c.567.801 1.252 1.39 2.173 1.768.26.118.52-.023.543-.306.047-.731.118-1.486.165-2.217-.189.095-.354.212-.543.307.425.212.85.33 1.347.235.543-.094.755-.565 1.18-.73.898-.307 1.347 1.131 2.339.353.472-.377.496-.778 1.11-1.014.614-.212 1.157.118 1.771-.118.425-.165.732-.495 1.063-.778.402-.33.732-.448 1.252-.377.26.047.52.212.803.212.378 0 .638-.165.874-.424.118-.142.189-.354.33-.472.473-.377.686-.047 1.087.094 1.016.354 1.087-.613 1.465-1.25.684-1.06 2.196.142 3.188-.495.33-.212.378-.424.827-.518.378-.071.59.07.968.094.402.047.732-.024 1.04-.283.377-.33.283-.448.873-.66.544-.189.685-.047 1.158-.094.496-.048.566-.33.92-.614.71-.566 1.725-.094 2.646-.188.921-.095 1.819-.377 2.693-.684.425-.142.236-.825-.19-.684-1.204.425-2.503.873-3.802.59-.52-.118-.945-.401-1.44-.048-.26.19-.355.614-.615.755-.472.283-.897-.047-1.37 0-.496.047-.614.283-.968.566-.213.4-.59.59-1.11.59l-.567-.142c-.26-.024-.472-.024-.709.07-.236.095-.354.33-.567.472-.614.401-.968.236-1.582.118-.472-.094-1.016-.188-1.464.071-.496.283-.45.778-.732 1.179-.52.731-.874-.094-1.488-.024-.591.071-.638.543-1.016.873-.662.613-1.394-.142-2.173.118-.543.188-.85.707-1.323.967-.826.471-1.464-.19-2.244.165-.496.212-.566.73-.968 1.037-.803.637-1.228-.542-1.984-.424-.898.141-1.086 1.367-2.291.754-.26-.118-.52.024-.543.307-.048.73-.118 1.485-.166 2.216.19-.094.355-.212.544-.306-.78-.33-1.418-.802-1.914-1.51-.236-.282-.85.071-.59.449zm5.55 7.475c.19-1.109.922-1.392 1.937-1.297.33.023.544.141.898.07.732-.188.874-1.155 1.535-1.32.236-.07.52.07.803 0 .284-.07.473-.283.732-.425.473-.283.331-.212.898-.188.401.023.732.023 1.11-.047.236-.047.33-.33.212-.52a2.15 2.15 0 01-.189-.306c-.236-.377-.85-.023-.614.354.071.094.142.212.19.307.07-.165.141-.354.212-.52-.543.095-.992.024-1.488-.164-.118-.047-.26 0-.354.094a4.382 4.382 0 01-.685.637 1.14 1.14 0 01-.921.023c-.26.071-.26-.023-.544.213-.118.094-.212.235-.307.353-.141.236-.307.448-.472.66-.402.166-.803.19-1.181.048-1.228-.047-2.244.59-2.457 1.863-.07.424.615.613.685.165zm25.698-9.88c.048-.047.118-.07.166-.118.023.236.07.472.094.684.685-.142 1.346-.33 1.984-.566.425-.165.236-.849-.189-.684a9.55 9.55 0 01-1.984.566c-.378.07-.307.73.095.684.33-.024.59-.236.543-.59-.047-.424-.756-.424-.709.024z"/></g><defs><clipPath id="clip0"><path fill="#fff" d="M0 0h65v71H0z"/></clipPath></defs></svg>