<svg width="41" height="45" fill="none" xmlns="http://www.w3.org/2000/svg"><g clip-path="url(#clip0)" fill="#75BB43"><path d="M26.116 9.368c-.908-.515-1.862-1.044-2.905-1.25-1.042-.206-2.04 0-3.024.323-1.698.544-3.635 1.162-4.767 2.633-.596.764-.954 1.735-1.282 2.632-.357 1.015-.64 2.044-.715 3.118-.164 2.19.64 4.353 1.58 6.294.834 1.75 2.026 3.412 3.754 4.397 1.788 1.015 4.26 1.162 6.272.882 2.026-.279 4.052-1.426 5.646-2.661 1.565-1.221 1.892-3.412 1.758-5.28-.178-2.441-1.206-4.735-2.339-6.868-.968-1.823-2.205-3.588-4.141-4.5-.254-.117-.492.265-.224.383 1.58.75 2.667 2.088 3.531 3.559.939 1.588 1.773 3.323 2.294 5.088.567 1.941.805 4.412-.253 6.25-.462.809-1.251 1.28-2.026 1.75-.88.544-1.758 1.088-2.726 1.441-1.863.677-4.172.647-6.079.162-1.832-.456-3.263-1.809-4.26-3.353-1.014-1.603-1.818-3.485-2.19-5.338-.403-2.015.044-3.956.789-5.824.417-1.073.923-2.044 1.877-2.75.79-.574 1.728-.941 2.652-1.265 1.058-.367 2.16-.794 3.292-.706 1.177.089 2.25.692 3.248 1.265.268.132.492-.25.238-.382z"/><path d="M28.128 13.088a12.179 12.179 0 00-4.023-2.632c-.73-.294-1.46-.53-2.25-.412-.774.118-1.49.515-2.13.941-2.518 1.706-3.903 4.677-3.859 7.662.015 1.618.402 3.28 1.147 4.72.73 1.398 2.414 2.016 3.874 2.413 1.58.426 3.278.47 4.857-.03 1.296-.426 2.905-1.147 3.59-2.382.373-.662.388-1.427.403-2.177 0-1.073 0-2.147-.06-3.22-.104-1.736-.402-3.5-1.46-4.927-.164-.22-.551 0-.387.22 1.683 2.266 1.52 5.486 1.475 8.163-.015.808-.12 1.573-.686 2.19-.477.516-1.117.869-1.743 1.192-1.385.691-2.86.985-4.41.824-1.445-.162-3.218-.662-4.35-1.589-1.147-.94-1.564-2.985-1.713-4.382-.313-2.735.55-5.544 2.592-7.485a7.249 7.249 0 011.743-1.25c.954-.486 1.818-.56 2.816-.206 1.624.559 3.069 1.5 4.29 2.69.164.177.492-.131.284-.323zm-1.4 14.824a97.804 97.804 0 013.978 7.633 90.156 90.156 0 011.862 4.264c.283.692.551 1.368.82 2.06.148.382.342.793.357 1.205.074.47-.179.662-.76.603a3.771 3.771 0 01-.298-.382c-3.352-4.5-5.944-9.692-7.926-14.912-.104-.265-.536-.147-.432.117a67.16 67.16 0 007.047 13.706c.402.603 1.028 2.045 1.907 2.089.715.03.953-.78.894-1.339-.134-1.176-.834-2.411-1.281-3.514a97.95 97.95 0 00-5.795-11.75c-.135-.25-.522-.03-.373.22z"/><path d="M24.865 28.427c.372.088.76.132 1.132.147.075 0 .075-.103 0-.118-.372 0-.745-.059-1.102-.132-.075-.015-.105.088-.03.103zm-.506.323c.536.015 1.057.47 1.579.147.06-.044 0-.132-.06-.088-.477.294-1.028-.147-1.52-.162-.074-.014-.074.103 0 .103z"/><path d="M24.508 28.912a4.367 4.367 0 001.609.5c.074.015.074-.103 0-.117a4.139 4.139 0 01-1.55-.486c-.074-.03-.119.074-.06.103z"/><path d="M24.895 29.25c.477.236.983.398 1.52.5.074.015.104-.088.03-.102a5.355 5.355 0 01-1.49-.486c-.075-.03-.134.059-.06.088zm.179.486l1.564.397c.075.014.104-.088.03-.103l-1.564-.397c-.075-.015-.105.088-.03.103zm.134.324a9.371 9.371 0 001.564.396c.075.015.104-.088.03-.103a9.361 9.361 0 01-1.564-.397c-.075-.03-.105.074-.03.103zm.372.411c.403.132.805.235 1.222.309.074.015.104-.088.03-.103a8.736 8.736 0 01-1.222-.309c-.074-.03-.104.074-.03.103zm.015.323c.477.162.954.295 1.46.398.075.014.104-.089.03-.103a10.21 10.21 0 01-1.46-.397c-.06-.03-.09.073-.03.102zm.105.266c.476.323 1.013.5 1.594.558.074 0 .074-.103 0-.118a3.215 3.215 0 01-1.535-.544c-.06-.044-.12.06-.06.103zm0 .396c.476.206.968.353 1.474.427.075.014.075-.103 0-.118a4.966 4.966 0 01-1.43-.412c-.045-.014-.104.074-.045.103zm.268.412c.477.22.968.353 1.475.412.074.014.074-.103 0-.118a4.715 4.715 0 01-1.416-.397c-.074-.015-.134.074-.06.103zm.148.382a2.64 2.64 0 001.595.368c.074 0 .074-.118 0-.118a2.527 2.527 0 01-1.535-.352c-.06-.03-.12.073-.06.102zm.149.544a3.82 3.82 0 001.699.427c.074 0 .074-.103 0-.118a3.514 3.514 0 01-1.639-.412c-.075-.014-.12.074-.06.103zm.239.545c.462.19.954.294 1.46.309.075 0 .075-.103 0-.118a4.024 4.024 0 01-1.43-.309c-.06-.015-.09.088-.03.118zm.446.353a5.135 5.135 0 001.625.456c.074.014.074-.103 0-.118a4.873 4.873 0 01-1.565-.441c-.074-.015-.134.073-.06.103zm.225.573a5.58 5.58 0 001.549.397c.075.015.075-.103 0-.117a6.796 6.796 0 01-1.52-.398c-.06-.014-.089.089-.03.118zm.297.574c.552.206 1.103.426 1.654.632.075.03.09-.088.03-.103-.551-.206-1.103-.426-1.654-.632-.074-.03-.104.073-.03.103zm.179.456c.462.308.983.529 1.535.617.074.015.104-.088.03-.103a3.752 3.752 0 01-1.505-.617c-.06-.03-.12.058-.06.103zm.239.646c.506.28 1.042.456 1.608.545.075.014.105-.103.03-.103a4.432 4.432 0 01-1.594-.53c-.045-.044-.104.06-.045.088zm.521.559c.477.25.983.427 1.505.545.074.014.104-.089.03-.103a5.685 5.685 0 01-1.475-.53c-.075-.044-.134.044-.06.089zm.402.545c.447.235.91.382 1.4.426.075.015.075-.103 0-.118a3.84 3.84 0 01-1.34-.411c-.06-.03-.12.058-.06.103zm.015.397c.447.264.939.426 1.46.47.075 0 .075-.103 0-.117a3.346 3.346 0 01-1.4-.456c-.075-.03-.12.059-.06.103zm.312.441c.403.22.82.323 1.282.338.075 0 .075-.103 0-.117-.432 0-.85-.118-1.221-.324-.075-.015-.12.074-.06.103zm.671.427c.313.102.626.22.924.323.074.03.104-.088.03-.103-.313-.103-.626-.22-.924-.324-.075-.029-.104.089-.03.103zm-.253.25c.402.279.864.426 1.356.485.074.014.074-.103 0-.118a2.709 2.709 0 01-1.297-.47c-.074-.045-.119.058-.06.102zm.268.352c.417.22.85.383 1.311.456.075.015.105-.088.03-.103a4.015 4.015 0 01-1.281-.441c-.075-.044-.134.044-.06.088zm.492.456c.298.147.626.25.954.309.074.015.104-.088.03-.103a3.978 3.978 0 01-.924-.294c-.06-.044-.12.059-.06.088zm-.238.25c.372.191.76.324 1.176.412.075.015.105-.088.03-.103a5.032 5.032 0 01-1.147-.397c-.075-.044-.12.044-.06.088zm.52.485c.343.236.746.368 1.163.368.074 0 .074-.117 0-.117a1.86 1.86 0 01-1.103-.353c-.06-.03-.119.058-.06.102zm.21.339a2.28 2.28 0 001.028.323c.074 0 .074-.103 0-.117a2.032 2.032 0 01-.969-.31c-.06-.029-.119.06-.06.104zm.015.338c.342.162.7.309 1.057.441.075.03.105-.088.03-.103a7.92 7.92 0 01-1.028-.426c-.06-.044-.12.058-.06.088zm.312.382c.298.236.641.383 1.029.441.074.015.104-.088.03-.102a2.239 2.239 0 01-.999-.427c-.06-.044-.12.044-.06.088zm.358.412c.313.191.64.324.998.397.075.015.104-.088.03-.103a3.243 3.243 0 01-.969-.382c-.06-.044-.119.059-.06.088zm.358.559c.074 0 .074-.118 0-.118-.075.015-.075.118 0 .118zm-17.73-27.78c.775.397 1.565.736 2.399 1 .074.015.104-.088.03-.103a15.144 15.144 0 01-2.37-.985c-.059-.044-.118.059-.059.088zm-.014.647c.402.206.804.412 1.236.574.298.117.745.382 1.058.338.03 0 .045-.059.03-.088l-.015-.015c-.015-.03-.045-.03-.075-.015 0 0-.015 0-.015.015-.06.03 0 .132.06.088.015-.014-.596-.264-.64-.28l-.447-.176a15.77 15.77 0 01-1.133-.529c-.074-.044-.119.059-.06.088zm.03-1.147a29.25 29.25 0 012.264 1.103c.045.03.09-.015.09-.059a1.832 1.832 0 01-.045-.147c-.015-.073-.134-.044-.105.03.015.044.03.088.045.147.03-.015.06-.044.09-.06a35.62 35.62 0 00-2.265-1.102c-.074-.044-.134.059-.074.088zm.312-.529c.7.353 1.4.661 2.13.94.075.03.09-.087.03-.102a18.957 18.957 0 01-2.1-.927c-.06-.044-.12.045-.06.089zm.209-.765c.775.5 1.564.956 2.384 1.382.044.03.104-.029.074-.073-.03-.059-.06-.103-.09-.162-.029-.059-.133 0-.089.059.03.059.06.103.09.162l.074-.074a34.398 34.398 0 01-2.384-1.382c-.06-.044-.119.044-.06.088zm.298-.589c.804.398 1.549.868 2.264 1.412.06.045.134-.029.075-.073a15.22 15.22 0 00-2.28-1.441c-.074-.03-.134.073-.06.103zm.432-.837c.715.588 1.445 1.176 2.16 1.75.045.044.12-.015.09-.074-.03-.044-.045-.073-.075-.117-.03-.06-.134 0-.09.058.03.044.045.074.075.118.03-.03.06-.044.09-.074a226.812 226.812 0 00-2.16-1.75c-.075-.044-.15.044-.09.089zm.968 5.058a69.578 69.578 0 00-2.518-.617c-.074-.015-.104.088-.03.103.85.19 1.684.397 2.518.617.06.015.09-.088.03-.103zm-.282.397a76.59 76.59 0 00-2.548-.308c-.045 0-.075.058-.045.088.104.088.164.103.313.103.075 0 .075-.118 0-.118-.268.03.343.103.313.088.194.015.387.044.58.074l1.342.176c.09.015.119-.088.045-.103zm-.106.632a31.029 31.029 0 01-2.353-.176c-.075-.014-.075.103 0 .118.775.088 1.564.147 2.354.176.074 0 .074-.117 0-.117zm-.029.383a13.1 13.1 0 01-2.145.088c-.06 0-.074.089-.015.103.12.044.104.044.209-.014.06-.03.015-.133-.06-.089h-.12c0 .03-.014.074-.014.103.715.03 1.43 0 2.145-.088a.052.052 0 000-.103zm-.045.544c-.67.06-1.355.118-2.026.177-.074 0-.074.117 0 .117.045 0 .105-.014.15-.014.074 0 .074-.118 0-.118-.045 0-.105.015-.15.015v.117l2.027-.176c.074-.015.074-.118 0-.118zm.06.515c-.655.088-1.311.162-1.966.25-.075.015-.075.103 0 .118.089 0 .178.014.268.014.074 0 .074-.102 0-.117-.09 0-.18-.015-.268-.015v.118c.655-.088 1.31-.162 1.966-.25.075-.015.075-.118 0-.118zm.03.485a7.88 7.88 0 01-1.118.28c-.193.03-.595-.03-.745.132-.014.03-.014.059 0 .073 0 .015.015.015.015.03.015.015.03.015.06.015h.03c.015 0 .045-.03.045-.06v-.014c0-.073-.12-.073-.12 0 .015.132 1.743-.309 1.863-.338.074-.03.044-.133-.03-.118z"/><path d="M16.12 19.853c-.358.162-.715.162-1.088.177-.149 0-.61-.015-.73.088-.06.044.03.132.075.074.536-.5-.581-.765-.447-.192.09.368.536.177.76.147.506-.058.998 0 1.49-.205.059-.015 0-.118-.06-.089zm0 .367a8.664 8.664 0 01-1.728.398c0 .03.015.074.015.103.044-.015.074-.03.119-.044.074-.03.044-.133-.03-.103-.045.014-.075.03-.12.044-.059.015-.044.118.016.103a8.95 8.95 0 001.758-.397c.06-.03.03-.133-.03-.103zm-.075.472a4.86 4.86 0 01-.64.264c-.06.015-.67.206-.67.206.03.059.133 0 .089-.059 0 0 0-.014-.015-.014a.114.114 0 00-.06-.03c-.044.015-.06.03-.074.059-.015.03 0 .044.03.059.149.088.432-.044.58-.088.284-.089.552-.192.805-.31.075-.014.015-.117-.045-.087zm.313.602a3.939 3.939 0 01-1.4.53c-.075.014-.045.117.03.103.506-.103.983-.28 1.415-.544.074-.03.015-.118-.045-.089zm.179.766c-.417.176-.834.337-1.251.514-.06.03-.03.132.03.103.417-.177.834-.338 1.251-.515.075-.015.045-.132-.03-.103zm.358.41c-.284.163-.552.324-.835.486-.149.088-.447.177-.476.353 0 .03.014.059.044.074.015 0 .015 0 .03.014.015.015.045 0 .06-.014.014 0 .014-.015.03-.015.014-.015.014-.044.014-.074 0 0 0-.014-.015-.014-.044-.06-.134 0-.089.058 0-.014.015-.029.015-.058.015.03.03.044.045.073.014-.103.297-.22.387-.265.09-.044.179-.103.268-.147.209-.117.402-.235.61-.352.03-.06-.029-.162-.088-.118zm.417 1.06c-.373.22-.76.44-1.133.661-.044.03-.03.103.03.103h.209c.074 0 .074-.117 0-.117h-.209c.015.03.015.073.03.103.372-.22.76-.442 1.132-.662.045-.03 0-.118-.06-.088zm.521.603c-.342.323-.685.617-1.042.912-.045.044.014.117.074.088.06-.044.134-.088.194-.118.06-.044 0-.132-.06-.088-.06.044-.134.088-.194.117.03.03.045.06.075.089a20.62 20.62 0 001.043-.912c.03-.059-.045-.132-.09-.088zm.611.544a8.028 8.028 0 00-1.102 1.25c-.045.059.06.117.089.059a8.542 8.542 0 011.087-1.236c.045-.044-.03-.132-.074-.073zm.67.353a6.865 6.865 0 01-.477 1.309c-.089.176-.372.456-.312.661 0 .03.03.044.06.044.044 0 .059-.014.089-.044.014-.014.014-.044-.015-.073l-.015-.015c-.06-.044-.134.03-.075.074.03.03.492-.824.522-.897.149-.324.253-.677.342-1.015.015-.088-.104-.118-.119-.044zm.88.485c-.09.338-.179.662-.268 1-.03.132-.254 1.177-.477 1.059-.06-.03-.12.059-.06.088.239.118.343-.073.417-.28.224-.588.343-1.235.507-1.852 0-.044-.104-.074-.12-.015zm-3.65-14.603c.327.265.685.53 1.028.794.178.132.357.265.536.382.074.06.134.118.223.118.03 0 .045-.015.06-.044 0-.015.015-.03.015-.03.015-.029 0-.044-.03-.058-.015 0-.015-.015-.03-.015-.06-.044-.119.059-.06.088.016-.073-.014-.103-.089-.132-.06-.044-.134-.088-.193-.147a4.681 4.681 0 01-.432-.324 22.985 22.985 0 01-.954-.735c-.045-.015-.134.059-.074.103zm.729-.721c.567.559 1.133 1.118 1.714 1.677.044.044.119-.015.09-.074-.046-.103-.105-.191-.15-.294-.03-.059-.134-.015-.09.059.045.103.105.191.15.294.03-.03.06-.044.09-.074-.567-.558-1.133-1.117-1.714-1.676-.06-.03-.15.044-.09.088zm1.282-.926c.357.603.79 1.147 1.28 1.662.046.058.135-.03.075-.074-.476-.5-.893-1.044-1.266-1.632-.03-.074-.12-.015-.09.044zm1.698-.545c.357.589.715 1.162 1.058 1.75.03-.014.06-.043.089-.058-.03-.059-.06-.103-.09-.162-.03-.059-.133 0-.089.059.03.059.06.103.09.162.03.059.134 0 .089-.06-.357-.587-.715-1.161-1.058-1.75-.03-.058-.119-.014-.09.06zm1.833-.426c.119.736.223 1.47.342 2.22.015.074.12.045.105-.028-.12-.736-.224-1.471-.343-2.221-.015-.059-.12-.03-.104.03zm1.4.176c.09.824.09 1.633 0 2.442-.015.073.104.073.12 0 .088-.824.088-1.633 0-2.441-.016-.074-.12-.074-.12 0zM.03 4.97c2.086 4.28 2.652 9.104 4.797 13.354 1.088 2.176 2.086 4.264 2.682 6.632.566 2.25.894 4.53 1.266 6.824.209 1.309.432 2.632.73 3.926.313 1.383 1.073 3.03.715 4.442-.074.279.358.397.432.117.298-1.132-.09-2.206-.387-3.294a56.746 56.746 0 01-.76-3.515c-.432-2.412-.745-4.838-1.251-7.235-.492-2.28-1.177-4.5-2.25-6.574-1.192-2.323-2.145-4.632-2.89-7.132-.79-2.647-1.505-5.294-2.697-7.78-.134-.25-.521-.03-.387.236z"/><path d="M.462 5.132A305.59 305.59 0 0026.206.426c-.09-.029-.164-.073-.253-.103 4.827 10 9.669 20 14.496 29.986.119.25.506.03.387-.22-4.827-10-9.669-20-14.496-29.986-.045-.088-.164-.118-.253-.103A298.743 298.743 0 01.343 4.706c-.284.044-.164.47.119.426zm10.027 35.074a302.765 302.765 0 0116.954-4.161c.283-.06.164-.486-.12-.427A306.024 306.024 0 0010.37 39.78c-.283.073-.163.5.12.426zm20.246-5.573a585.382 585.382 0 0010.101-3.574c.179-.059.239-.309.06-.397-.447-.25-.894-.25-1.326.044-.239.162-.015.544.223.383.254-.22.552-.236.864-.044.015-.133.03-.265.06-.398a584.536 584.536 0 01-10.101 3.574c-.268.088-.149.515.12.412zM9.505 20.78c.12-.368 1.013-.383 1.356-.53.298-.117.045-.19.328-.132.09.015.164.132.268.162.313.088.536-.088.73-.324.268-.338.179-.397.775-.456.208-.014.208.074.432.015.283-.073.163-.5-.12-.427-.417.104-.625-.323-1.042.015-.254.206-.224.412-.582.515-.372.118-.253-.044-.55-.074-.105 0-.194.045-.284.089-.238.117-.357.294-.626.367-.089.03-.208.015-.312.044-.388.074-.686.236-.805.618-.09.265.343.383.432.118z"/><path d="M16.582 18.736c.536.279.894-.177.894-.692 0-.25-.224-.779.283-.69.134.014.328.264.432.338.223.161.402.25.685.279.12.015.224-.103.224-.22 0-.663-.015-1.339-.015-2-.12.058-.224.132-.343.19a7.13 7.13 0 012.1 1.78c.09.103.299.073.358-.044.507-1.06-.372-2.03-.119-3.103-.119.03-.253.059-.372.103.909 1.059 1.832 2.117 2.741 3.19.134.163.373.016.387-.16.12-1.28-1.385-1.927-1.385-3.148-.12.059-.224.132-.343.191.67.486 1.326.986 1.996 1.47.388.28.969.957 1.49.972.313.014.462-.206.522-.486.134-.603-.134-1.515-.194-2.132-.134.059-.253.103-.387.162a13.727 13.727 0 012.026 2.014c.134.162.372.015.387-.162.03-.573.045-1.147.075-1.705-.134.058-.254.103-.388.161.164.133.313.25.477.383.09.073.224.088.313 0 .075-.06.149-.133.209-.191.208-.192-.105-.5-.313-.31a2.66 2.66 0 00-.209.192h.313c-.164-.133-.313-.25-.477-.383-.149-.117-.372-.044-.387.162-.03.574-.045 1.147-.075 1.706.135-.059.254-.103.388-.162a12.423 12.423 0 00-2.026-2.014c-.134-.103-.403-.06-.388.162.045.455.09.896.15 1.352.03.236.193.692-.224.706-.134 0-.477-.353-.581-.426-.82-.603-1.64-1.22-2.473-1.824-.134-.103-.343.044-.343.191 0 1.236 1.49 1.927 1.386 3.148.134-.06.253-.103.387-.162-.909-1.059-1.833-2.118-2.741-3.191-.105-.133-.343-.06-.373.103-.238 1 .596 2.073.164 3l.358-.044a7.537 7.537 0 00-2.19-1.854.226.226 0 00-.343.192c0 .661.015 1.338.015 2l.223-.22c-.521-.045-.82-.81-1.4-.663-.179.045-.298.162-.387.324-.09.162-.12 1.25-.269 1.176-.268-.176-.506.206-.238.339zm13.378-4.412c.209-.06.432-.118.641-.191.164-.045.432-.177.596-.147-.06-.015-.104-.045-.164-.06.015.015.03.015.03.03-.015-.073-.045-.147-.06-.22v.029l.15-.147h.059c.044.088.104.176.149.264v-.014c.074-.28-.358-.397-.432-.118v.015a.222.222 0 00.149.265c.06.014.119.014.178 0a.19.19 0 00.15-.147c.06-.265-.194-.368-.418-.324-.402.088-.79.235-1.191.338-.239.088-.12.515.163.427zM11.353 26.133c.462-.03.596-.515 1.072-.5.224 0 .358.132.581.059.194-.06.239-.25.403-.339.253-.147.596.044.908-.117.313-.162.492-.22.85-.236.223-.014.372-.044.566-.161.238-.162.015-.544-.224-.383-.328.22-.879.074-1.266.236-.194.073-.194.147-.447.147-.209 0-.209-.089-.432-.015-.149.059-.209.206-.328.294-.417.28-.462.015-.834.015-.432 0-.536.559-.85.573-.282 0-.297.442 0 .427zm7.255-2.721c.03-.47.387-.662 1.058-.574.015.221.298.295.417.118.357-.53.462-1.073.343-1.706l-.269.265c.939.235 1.296 1.368 2.101 1.838.12.074.283 0 .328-.132.238-.75.342-1.515.357-2.294-.134.044-.283.073-.417.117a5.27 5.27 0 001.639 1.647c.164.103.387-.073.328-.25a99.337 99.337 0 01-.566-1.985c-.105.088-.224.162-.328.25.58.324 1.162.662 1.758.956.298.162.655.338 1.013.265.238-.06.477-.236.551-.486.03-.088 0-.19.03-.279-.179-.368.074-.559.76-.574.164.103.298.221.432.368.134.132.372.03.387-.162.015-.706.537-.544.983-.559.075 0 .164.03.224 0 .179-.088.253-.22.238-.411-.015-.103-.06-.177-.164-.206-.253-.088-.447.03-.506.28-.06.279.372.396.432.117-.015.015-.03.015-.045.03-.06-.074-.104-.148-.164-.207-.03-.294-.76-.058-.923.044a1.08 1.08 0 00-.537.927c.134-.059.254-.103.388-.162-.492-.47-1.311-.97-1.878-.294-.357.441.15 1.162-.804 1.03-.298-.045-.7-.368-.954-.515-.342-.177-.67-.368-1.013-.544-.163-.089-.387.058-.327.25.193.661.387 1.323.566 1.985.104-.088.223-.162.328-.25a4.803 4.803 0 01-1.49-1.5c-.12-.191-.418-.118-.418.118 0 .75-.119 1.47-.342 2.176.104-.044.223-.088.328-.132-.865-.515-1.177-1.618-2.205-1.883-.18-.044-.298.103-.268.265.089.515-.015.941-.298 1.368.134.044.283.073.417.117-.015-.455-.343-.808-.835-.779-.67.03-.968.676-1.102 1.235-.045.28.387.397.447.118zm13.721-4.102c.477-.104.938-.207 1.415-.31.283-.059.164-.485-.119-.426-.477.103-.938.206-1.415.309-.283.073-.164.5.119.426zM6.45 10.309c.358.5.79.868 1.371 1.103.164.073.328-.015.343-.191.03-.456.075-.927.104-1.383-.119.06-.223.133-.342.192.268.132.536.206.849.147.343-.06.477-.353.745-.456.566-.191.849.706 1.475.22.298-.235.313-.485.7-.632.387-.132.73.074 1.117-.074.269-.102.462-.308.67-.485.254-.206.463-.28.79-.235.164.03.328.132.507.132.238 0 .402-.103.551-.264.075-.089.12-.221.209-.295.298-.235.432-.029.685.06.64.22.685-.383.924-.78.432-.662 1.385.088 2.011-.309.209-.132.238-.265.521-.324.239-.044.373.045.611.06.253.029.462-.015.656-.177.238-.206.179-.28.551-.412.343-.118.432-.03.73-.059.313-.03.358-.206.581-.382.447-.353 1.088-.059 1.669-.118.58-.059 1.147-.235 1.698-.426.268-.089.15-.515-.12-.427-.759.265-1.578.544-2.398.368-.328-.074-.596-.25-.909-.03-.163.118-.223.383-.387.471-.298.177-.566-.03-.864 0-.313.03-.387.177-.61.353-.135.25-.373.368-.701.368l-.358-.089a.915.915 0 00-.447.045c-.149.058-.223.205-.357.294-.387.25-.61.147-.998.073-.298-.059-.64-.117-.924.044-.313.177-.283.486-.462.736-.328.456-.551-.06-.938-.015-.373.044-.403.338-.641.544-.417.382-.879-.088-1.37.074-.343.117-.537.44-.835.603-.521.294-.924-.118-1.415.102-.313.133-.358.456-.611.648-.507.397-.775-.339-1.252-.265-.566.088-.685.853-1.445.47-.164-.073-.327.015-.342.192-.03.456-.075.926-.105 1.382.12-.059.224-.132.343-.191-.492-.206-.894-.5-1.207-.941-.149-.177-.536.044-.372.279zm3.502 4.661c.12-.69.58-.867 1.222-.808.208.015.342.088.566.044.461-.118.55-.72.968-.823.149-.045.328.044.507 0 .178-.045.298-.177.462-.265.297-.177.208-.133.566-.118.253.015.461.015.7-.03.149-.029.208-.205.134-.323a1.34 1.34 0 01-.12-.191c-.148-.235-.536-.015-.387.22.045.06.09.133.12.192.044-.103.089-.22.134-.324a1.697 1.697 0 01-.939-.103c-.075-.03-.164 0-.223.06a2.809 2.809 0 01-.433.396.727.727 0 01-.58.015c-.164.044-.164-.015-.343.132-.075.06-.134.147-.194.22-.09.148-.194.28-.298.413a1.008 1.008 0 01-.745.029c-.775-.03-1.415.368-1.55 1.162-.044.264.388.382.433.103zm16.209-6.161c.03-.03.075-.044.104-.074.015.148.045.295.06.427.432-.088.85-.206 1.252-.353.268-.103.149-.53-.12-.426a6.081 6.081 0 01-1.251.352c-.238.045-.194.456.06.427.208-.015.372-.147.342-.368-.03-.264-.477-.264-.447.015z"/></g><defs><clipPath id="clip0"><path fill="#fff" d="M0 0h41v44.28H0z"/></clipPath></defs></svg>