<svg width="50" height="65" fill="none" xmlns="http://www.w3.org/2000/svg"><path d="M34.207 11.421c.997 3.579-1.679 7.316-.315 10.79.525 1.368 1.627 2.157 2.886 2.842 2.151 1.157 4.092 2.21 5.666 4.105 3.41 4.105 4.617 9.42 5.247 14.631.63 5.369 1.417 11.158-.262 16.422-.315.947 1.206 1.368 1.521.42 1.627-5 .997-10.263.472-15.42-.472-4.737-1.259-9.527-3.567-13.79-.945-1.737-2.151-3.421-3.62-4.79-1.522-1.42-3.253-2.052-4.985-3.157-4.302-2.685-.367-8.421-1.521-12.474-.263-.947-1.784-.526-1.522.421z" fill="#FF9103"/><path d="M22.246 10.947c4.354-.105 8.71-.157 13.064-.263 2.36-.052 4.827.158 6.243-2.052 1.102-1.737 1.574-5.421.42-7.158C40.66-.58 36.307.21 34.26.158 30.22 0 26.128 0 22.088.316c-2.098.158-7.24-.158-8.29 2.263-.786 1.79-.576 4.79.683 6.368 1.679 2.106 5.141 1.58 7.45 1.685.997.052.997-1.527 0-1.58-2.623-.105-6.506.527-6.926-3.052-.157-1.158.263-2.632 1.26-3.421.944-.737 3.567-.526 4.826-.632 4.408-.368 8.762-.368 13.17-.263 2.203.053 5.98-.684 6.61 2.105.787 3.369-1.521 5.264-4.564 5.316-4.67.106-9.392.158-14.061.263-1.05 0-1.05 1.58 0 1.58z" fill="#FF9103"/><path d="M21.04 1.316c-1.89 2.21-3.621 6.526-.998 8.842.735.684 1.889-.421 1.102-1.105-1.941-1.737-.367-5.053.997-6.632.682-.737-.42-1.842-1.102-1.105z" fill="#FF9103"/><path d="M15.897 8.895c-1.26 1.105-.053 3.42-.105 4.79-.21 3.526-2.676 5.683-5.194 7.736-.945.79-2.78 1.947-1.836 3.421.944 1.421 3.41.79 4.721.526 4.88-1.157 7.765-4.105 8.71-9.105.262-1.526 1.259-4.631.105-5.895-.735-.842-1.732-.579-2.309.211-.577.842.787 1.632 1.364.79-.84 1.157-.524 3.947-.84 5.315-.419 1.79-1.153 3.58-2.518 4.895-1.206 1.158-2.885 1.737-4.46 2.105-.576.158-2.99 1-3.042-.105 0-.263 1.364-1.105 1.574-1.263 1.836-1.526 3.672-3.105 4.617-5.369.42-1 .682-2.105.734-3.21 0-.421-.472-3.526-.314-3.684.682-.685-.42-1.79-1.207-1.158zm10.231 1.526c.104 2.421.262 4.947-.368 7.263-.682 2.526-2.203 4-3.935 5.842-2.623 2.737-4.354 6.053-5.404 9.685-2.675 9.21-.734 18.947-2.203 28.368-.053.474.105.79.524.947 6.611 2.474 13.851 2.527 20.83 2.421 2.885-.052 5.928-.263 8.604-1.368 1.574-.684 3.935-1.79 3.987-3.79 0-.263-.157-.578-.367-.684l-.315-.158c-.892-.473-1.679.895-.787 1.369-.105-.053-3.62 2-3.987 2.105-1.05.368-2.151.579-3.306.684-2.57.316-5.141.263-7.712.21-5.614-.052-11.228-.42-16.527-2.368.157.316.367.632.525.948 1.469-9.632-.577-19.737 2.413-29.158.787-2.474 1.941-4.895 3.62-6.948 1.155-1.368 2.519-2.473 3.62-3.894 2.571-3.316 2.519-7.58 2.309-11.58 0-.894-1.574-.894-1.521.106z" fill="#FF9103"/><path d="M26.128 32.474c-5.561 3.631-9.916 11.42-4.197 16.947 5.036 4.947 15.95 5.526 21.406 1.053 5.823-4.79 4.144-12.632-1.574-16.685-3.148-2.21-7.083-2.842-10.808-2.526-2.046.158-6.454.21-6.034 3.21.157 1 1.68.58 1.522-.42-.21-1.264 6.61-1.316 7.502-1.264C36.883 33 39.77 34 41.973 36c4.721 4.263 4.617 11.158-1.207 14.316-4.67 2.526-12.277 1.895-16.632-1.105-6.348-4.422-2.36-12.053 2.78-15.422.893-.526.106-1.894-.786-1.315z" fill="#FF9103"/><path d="M29.17 37.105a34.834 34.834 0 014.722-3.579c.21-.158 0-.473-.21-.316-1.73 1.053-3.305 2.264-4.826 3.632-.158.158.105.421.314.263zm-.26 1.369c2.413-1.737 4.826-3.421 7.344-5 .21-.158 0-.474-.21-.316a120.158 120.158 0 00-7.345 5c-.21.158 0 .474.21.316zm.156 1.736c3.148-2.263 6.348-4.526 9.496-6.789.21-.158 0-.474-.21-.316-3.148 2.263-6.348 4.527-9.496 6.79-.158.158 0 .473.21.316zm-.682 2c4.25-2.736 8.552-5.526 12.801-8.263.21-.158 0-.473-.21-.316-4.25 2.737-8.551 5.474-12.801 8.211-.21.158 0 .474.21.369zm.996 1.474c3.936-2.473 7.87-4.895 11.806-7.368.21-.158 0-.474-.21-.316-3.935 2.474-7.87 4.895-11.805 7.368-.21.106 0 .421.21.316zm1.628.684a160.61 160.61 0 0011.91-6.315c.21-.106 0-.474-.21-.316a135.975 135.975 0 01-11.91 6.316c-.21.105 0 .42.21.316zm.262 2.948c4.197-1.737 8.342-3.421 12.539-5.158.21-.105.105-.474-.105-.369-4.197 1.737-8.342 3.422-12.54 5.158-.262.106-.157.474.106.369zM.892 2.526c2.361.737 4.722 1.369 7.136 1.948.262.052.367-.316.104-.369C5.72 3.58 3.358 2.895.997 2.158c-.262-.053-.367.316-.105.368zM.21 8.737a27.793 27.793 0 006.61-.474c.262-.052.158-.42-.105-.368a26.923 26.923 0 01-6.506.473c-.262-.052-.262.369 0 .369zm.84 4.473l7.083-2.052c.262-.053.157-.474-.105-.368L.945 12.841c-.262.053-.157.421.105.369zm32.896-9.315c.315 2.105.577 4.947-1.837 5.947-.21.105-.104.474.105.369 2.624-1.053 2.466-4.106 2.1-6.421 0-.264-.368-.158-.368.105zm2.465.737c-.052 1.526-.524 2.947-1.416 4.157-.158.211.21.422.315.211.944-1.316 1.416-2.79 1.469-4.368.052-.264-.368-.264-.368 0z" fill="#FF9103"/><path d="M36.935 4.684c.735 1.948.368 4-.892 5.684-.157.211.21.421.315.211 1.312-1.737 1.68-3.947.892-6-.052-.21-.42-.105-.315.105zm1.313 0a8.892 8.892 0 01-.315 4.684c-.053.264.315.369.367.106.525-1.58.63-3.21.315-4.895-.053-.263-.42-.158-.367.105zm-.788 5.632c.263 0 .263-.421 0-.421-.262.052-.262.42 0 .42z" fill="#FF9103"/><path d="M39.297 3.947c.892 1.948 0 4.316-1.941 5.264-.21.105-.052.473.21.315 2.151-1 3.043-3.631 2.098-5.79-.104-.21-.472 0-.367.211zM19.412 59.368v2.106c0 .263.42.263.42 0v-2.106c-.053-.263-.42-.263-.42 0zM31.532 17c-.052 1.79-.157 3.526-.21 5.316-.052.842-.21 2 .053 2.842.21.684.63 1 1.207 1.42 2.098 1.633 3.41 3.159 3.357 6 0 .264.368.264.42 0 .053-2.157-.682-4.157-2.413-5.578-1.522-1.21-2.309-2.158-2.204-4.158.053-1.947.157-3.842.21-5.79 0-.315-.367-.315-.42-.052zm6.034 35.737c.367 3 .525 6.052.472 9.105h.42v-1.158c0-.263-.42-.263-.42 0v1.158c0 .263.368.263.42 0a66.204 66.204 0 00-.472-9.105c-.053-.21-.472-.21-.42 0zm1.835-1.421c.735.21.63 4.21.683 4.895.104 1.473.21 2.947.314 4.368 0 .263.42.263.42 0 0-.526 0-1-.052-1.526 0-.264-.42-.264-.42 0 0 .526 0 1 .052 1.526h.42c-.157-2.421-.367-4.895-.525-7.316-.052-.737.158-2.105-.787-2.368-.21-.053-.314.368-.105.42zm3.464-1.948a32.66 32.66 0 01.21 9.316c.104 0 .262-.052.367-.052-.105-.421-.21-.79-.367-1.21-.053-.264-.473-.159-.368.104.105.421.21.79.367 1.21.053.211.368.159.368-.052a33.322 33.322 0 00-.263-9.42c0-.211-.367-.106-.314.104zm-6.296-22.052c2.938 1.368 3.043 4.737 3.043 7.526 0 .263.367.263.42 0 0-2.947-.21-6.473-3.253-7.895-.263-.052-.473.264-.21.369z" fill="#FF9103"/></svg>