<svg width="30" height="37" fill="none" xmlns="http://www.w3.org/2000/svg"><path d="M20.524 6.501c.598 2.037-1.007 4.164-.189 6.142.315.779.976 1.228 1.732 1.618 1.29.659 2.455 1.258 3.4 2.337 2.046 2.336 2.77 5.362 3.148 8.328.377 3.056.85 6.352-.158 9.348-.189.539.724.779.913.24.976-2.847.598-5.843.283-8.779-.283-2.696-.755-5.422-2.14-7.85-.567-.988-1.29-1.947-2.172-2.726-.913-.808-1.952-1.168-2.99-1.797-2.582-1.528-.221-4.794-.914-7.1-.157-.54-1.07-.3-.913.24z" fill="#FF9103"/><path d="M13.347 6.232c2.613-.06 5.226-.09 7.839-.15 1.416-.03 2.896.09 3.746-1.168.66-.989.944-3.086.252-4.075-.787-1.168-3.4-.719-4.628-.749-2.424-.09-4.88-.09-7.303.09-1.26.09-4.344-.09-4.974 1.289-.472 1.018-.346 2.726.41 3.625 1.007 1.198 3.084.898 4.47.958.598.03.598-.868 0-.898-1.575-.06-3.904.3-4.156-1.738-.094-.66.158-1.498.756-1.947.566-.42 2.14-.3 2.896-.36C15.299.9 17.912.9 20.556.96c1.322.03 3.589-.39 3.967 1.199.472 1.917-.913 2.996-2.74 3.026-2.8.06-5.634.09-8.436.15-.63 0-.63.898 0 .898z" fill="#FF9103"/><path d="M12.623.749c-1.133 1.258-2.172 3.715-.598 5.033.441.39 1.134-.24.661-.629-1.164-.989-.22-2.876.598-3.775.41-.42-.251-1.048-.66-.629z" fill="#FF9103"/><path d="M9.538 5.063c-.755.63-.031 1.948-.063 2.726-.126 2.008-1.605 3.236-3.116 4.405-.567.449-1.669 1.108-1.102 1.947.567.809 2.046.45 2.833.3 2.928-.66 4.66-2.337 5.226-5.184.157-.868.755-2.636.063-3.355-.44-.48-1.039-.33-1.385.12-.347.48.472.929.818.45-.503.658-.315 2.246-.503 3.025-.252 1.019-.693 2.037-1.511 2.786-.725.66-1.732.989-2.676 1.199-.347.09-1.795.569-1.826-.06 0-.15.818-.63.944-.72 1.102-.868 2.204-1.767 2.77-3.055.252-.57.41-1.198.441-1.828 0-.24-.283-2.007-.189-2.097.41-.39-.252-1.018-.724-.659zm6.139.869c.063 1.378.157 2.816-.22 4.134-.41 1.438-1.323 2.277-2.362 3.326-1.574 1.558-2.613 3.445-3.242 5.512-1.606 5.243-.44 10.786-1.322 16.149-.032.27.063.45.315.539 3.966 1.408 8.31 1.438 12.497 1.378 1.731-.03 3.557-.15 5.163-.779.944-.39 2.36-1.019 2.392-2.157 0-.15-.094-.33-.22-.39l-.19-.09c-.534-.269-1.007.51-.471.78-.063-.03-2.172 1.138-2.393 1.198-.63.21-1.29.33-1.983.39-1.543.18-3.085.15-4.628.12-3.368-.03-6.736-.24-9.916-1.349.095.18.22.36.315.54.882-5.483-.346-11.235 1.448-16.598.472-1.408 1.165-2.786 2.172-3.955.693-.779 1.511-1.408 2.172-2.217 1.543-1.887 1.511-4.314 1.386-6.59 0-.51-.945-.51-.913.059z" fill="#FF9103"/><path d="M15.677 18.485c-3.337 2.067-5.95 6.501-2.518 9.647 3.022 2.816 9.57 3.146 12.843.6 3.494-2.727 2.487-7.191-.944-9.498-1.889-1.258-4.25-1.618-6.485-1.438-1.228.09-3.872.12-3.62 1.828.094.569 1.007.329.913-.24-.126-.72 3.966-.75 4.501-.72 1.763.12 3.495.69 4.817 1.828 2.833 2.427 2.77 6.352-.724 8.15-2.802 1.437-7.367 1.078-9.98-.63-3.808-2.516-1.416-6.86 1.67-8.778.534-.3.062-1.079-.473-.749z" fill="#FF9103"/><path d="M17.502 21.122a20.83 20.83 0 012.834-2.038c.125-.09 0-.27-.126-.18a19.276 19.276 0 00-2.896 2.068c-.095.09.062.24.188.15zm-.156.778c1.448-.988 2.896-1.947 4.407-2.846.126-.09 0-.27-.126-.18a72.463 72.463 0 00-4.407 2.847c-.126.09 0 .27.126.18zm.094.99c1.888-1.29 3.809-2.577 5.697-3.866.126-.09 0-.27-.125-.18-1.89 1.289-3.81 2.577-5.698 3.865-.095.09 0 .27.126.18zm-.41 1.137c2.55-1.557 5.132-3.145 7.682-4.703.125-.09 0-.27-.126-.18-2.55 1.558-5.131 3.116-7.681 4.674-.126.09 0 .27.126.21zm.599.839c2.36-1.408 4.722-2.786 7.083-4.194.126-.09 0-.27-.126-.18-2.361 1.408-4.722 2.787-7.083 4.195-.126.06 0 .24.126.18zm.975.39a98.242 98.242 0 007.146-3.595c.126-.06 0-.27-.126-.18a83.173 83.173 0 01-7.146 3.595c-.126.06 0 .24.126.18zm.158 1.678c2.518-.989 5.005-1.948 7.524-2.936.126-.06.063-.27-.063-.21-2.519.988-5.006 1.947-7.524 2.936-.157.06-.094.27.063.21zM.535 1.438c1.417.42 2.833.779 4.281 1.109.158.03.22-.18.063-.21-1.448-.3-2.864-.69-4.281-1.109-.157-.03-.22.18-.063.21zM.126 4.973c1.353.06 2.644-.03 3.966-.27.158-.03.095-.24-.063-.21-1.29.24-2.581.33-3.903.27-.158-.03-.158.21 0 .21zM.63 7.52l4.25-1.17c.157-.03.094-.27-.064-.21L.566 7.31c-.156.03-.093.24.064.21zm19.737-5.303c.19 1.198.346 2.816-1.102 3.385-.125.06-.063.27.063.21 1.574-.6 1.48-2.337 1.26-3.655 0-.15-.22-.09-.22.06zm1.48.419a4.042 4.042 0 01-.85 2.367c-.095.12.126.24.189.12a4.29 4.29 0 00.881-2.487c.032-.15-.22-.15-.22 0z" fill="#FF9103"/><path d="M22.161 2.666c.441 1.109.22 2.277-.535 3.236-.094.12.126.24.19.12.786-.989 1.006-2.247.534-3.416-.031-.12-.252-.06-.189.06zm.788 0a4.815 4.815 0 01-.19 2.667c-.03.15.19.21.221.06a5.226 5.226 0 00.19-2.787c-.032-.15-.253-.09-.221.06zm-.473 3.206c.158 0 .158-.24 0-.24-.157.03-.157.24 0 .24z" fill="#FF9103"/><path d="M23.578 2.247c.535 1.108 0 2.457-1.165 2.996-.126.06-.031.27.126.18a2.475 2.475 0 001.26-3.296c-.064-.12-.284 0-.22.12zm-11.93 31.547v1.199c0 .15.251.15.251 0v-1.199c-.031-.15-.251-.15-.251 0zM18.92 9.677c-.032 1.019-.095 2.007-.127 3.026-.031.48-.126 1.138.032 1.618.126.39.378.569.724.809 1.259.928 2.046 1.797 2.014 3.415 0 .15.22.15.252 0 .032-1.228-.409-2.367-1.448-3.176-.913-.689-1.385-1.228-1.322-2.367.031-1.108.095-2.187.126-3.295 0-.18-.22-.18-.252-.03zm3.62 20.343c.22 1.707.314 3.445.283 5.182h.252v-.659c0-.15-.252-.15-.252 0v.66c0 .15.22.15.252 0a35.77 35.77 0 00-.284-5.184c-.031-.12-.283-.12-.252 0zm1.1-.81c.442.12.379 2.397.41 2.787.063.839.126 1.678.189 2.486 0 .15.252.15.252 0 0-.3 0-.569-.032-.868 0-.15-.252-.15-.252 0 0 .3 0 .569.032.868h.252c-.095-1.378-.22-2.786-.315-4.164-.031-.42.095-1.198-.472-1.348-.126-.03-.189.21-.063.24zm2.079-1.108a17.67 17.67 0 01.126 5.303c.063 0 .157-.03.22-.03a5.812 5.812 0 00-.22-.69c-.032-.149-.284-.089-.22.06.062.24.125.45.22.69.031.12.22.09.22-.03.22-1.798.157-3.595-.157-5.363 0-.12-.22-.06-.19.06zm-3.778-12.553c1.763.779 1.826 2.696 1.826 4.284 0 .15.22.15.252 0 0-1.677-.126-3.685-1.952-4.494-.157-.03-.283.15-.126.21z" fill="#FF9103"/></svg>