<svg width="58" height="62" fill="none" xmlns="http://www.w3.org/2000/svg"><path d="M36.14 3.099c-.456-.586-1.244.167-.954.711.664 1.297-.87 3.724-1.617 4.56-1.202 1.34-3.524 2.636-5.265 2.762-3.44.293-5.887-2.218-8.54-3.85-.125-.083-.29.084-.207.21 2.114 3.096 7.42 6.234 11.193 4.35 2.115-1.045 4.146-2.3 5.141-4.56.58-1.255 1.16-2.97.249-4.183z" fill="#FFC501"/><path d="M55.085 33.599s0-.042 0 0c1.41-2.343 1.078-2.762-.29-4.895-.747-1.172-1.285-2.385-2.073-3.515-.83-1.171-1.866-2.175-2.778-3.263-.705-.837-1.41-2.218-2.28-3.18 1.368-.125 2.82-.627 4.146-.837 1.741-.293 4.353-.878 5.68-2.05.912-.795.248-4.434.248-5.522 0-2.762-.87-5.523-.746-8.242C57.075.965 55.541.839 54.836.88c-2.487.084-5.058.168-7.545-.125C44.596.42 41.86-.04 39.124.003c-1.12 0-2.24.293-3.276.627-.166.042-.29.126-.414.21-.207-.084-.498-.084-.705.125-2.695 2.385-6.343 3.221-9.784 3.807-2.82.46-5.97-.293-8.375 1.548-2.736 2.092-5.39 4.226-8.25 6.192-1.534 1.046-3.11 2.05-4.56 3.18-1.161.879-2.612 1.422-3.566 2.51a.776.776 0 00-.124.837c1.16 2.301 2.82 4.267 4.27 6.485 1.493 2.217 3.192 4.184 5.017 6.108 1.41 1.506 2.529.67 4.187-.083 2.239-1.005 4.933-2.803 6.343-4.895.166 1.84.539 5.146.539 5.439.166 2.803-.207 5.564.249 8.325.165 1.088.373 3.556 1.534 4.142.622.293 1.243.335 1.824.293.083 1.925 1.16 4.017 1.907 5.69.953 2.05 2.446 3.807 4.229 5.188 2.031 1.548 4.518 2.134 6.84 3.054.954.377 2.363.795 3.358.377.912 1.38 2.24 2.133 4.478 1.799 1.865-.042 3.69-.879 5.348-1.674 2.197-1.087 3.773-1.715 5.265-3.765.912-1.297 1.41-2.761.995-4.268 2.612-5.731 1.16-12.216-1.368-17.655zm.622 15.856c-.415-.67-.87-1.255-1.368-1.924-1.037-1.423-1.576-3.222-1.99-4.895-.83-3.013.87-5.941 2.404-8.493 1.327 4.937 2.612 10.46.954 15.312zM35.64 56.652c-2.114-.754-4.021-1.465-5.721-2.93-2.446-2.091-4.27-5.815-5.182-8.994.912-.168 1.782-.544 2.694-.628 6.26-.795 9.909 5.48 11.36 10.794.29 1.046.58 2.05.953 2.97-1.202.168-3.109-.878-4.104-1.212zm15.962.376c-2.073 1.046-4.52 2.468-6.924 2.51-.124 0-.249.042-.373.084-1.327.042-2.363-.21-3.068-1.966-.415-1.005-.705-2.092-1.036-3.138-.664-2.134-1.659-4.1-2.695-6.067-1.617-3.096-4.934-5.48-8.375-5.732-1.12-.083-5.68 1.172-6.219-.125-.995-2.385-1.036-5.146-1.036-7.657 0-2.51-.415-5.104-.954-7.53-.165-.837-.124-1.841-.912-2.385-.041-.042-.165-.042-.207.042-.041.083-.083.125-.166.209-.083.125 0 .25.166.21v.04c-.29-.125-.663-.083-.87.252-1.617 2.134-4.52 3.89-6.883 4.979-2.404 1.087-5.555-4.184-6.633-5.732-.705-1.004-4.726-5.69-3.317-6.569 2.364-1.464 4.602-3.18 6.882-4.811 2.032-1.423 4.022-2.845 5.929-4.393 1.368-1.088 2.612-2.761 4.519-2.887.497-.042.995-.042 1.451-.042 2.322 1.088 4.933.042 7.214-.67.041 0 .083-.041.166-.041 1.077-.293 2.155-.628 3.15-1.046 1.534-.586 3.027-1.38 4.23-2.552a.666.666 0 00.206-.502c.788-.251 1.659-.251 2.488-.293 1.948-.084 3.814.377 5.721.628 3.607.418 7.214.836 10.862.627 1.824-.084 1.41 9.665 1.41 11.17 0 .754.124 1.382-.705 1.549-1.16.25-2.239.795-3.358 1.13-1.783.502-4.229 1.171-6.053 1.13-.746 0-.87 1.087-.166 1.296.249.084.498.126.788.126.912 1.171 1.658 2.97 2.321 3.932 1.286 1.8 2.737 3.348 3.732 5.314.414.753.746 1.59 1.285 2.301.912 1.171-.042 2.176-.58 3.18-1.037 1.84-1.99 3.765-2.488 5.815-.83 3.724 1.285 7.698 3.358 10.585 1.824 2.594-.332 5.774-2.86 7.029z" fill="#FFC501"/><path d="M19.64 23.097c.165-1.38.414-2.72.704-4.058.166-.795.498-1.464.456-2.301 0-.125-.207-.125-.165 0 .041 1.004-.498 2.134-.705 3.138-.249 1.046-.456 2.092-.54 3.138-.123-.544-.29-1.13-.414-1.632-.248-1.004-.414-2.05-.704-3.054.041 0 .124-.042.124-.126.207-1.59 1.078-3.012.953-4.644 0-.125-.207-.125-.207 0 .083 1.59-.829 2.929-.953 4.477-.125-.377-.25-.795-.373-1.172-.332-.836-.622-1.673-.954-2.51.041 0 .041-.042.041-.083.083-.544.083-1.172.457-1.632.082-.084-.042-.21-.125-.126-.373.46-.415 1.046-.497 1.632-.166-.377-.332-.711-.498-1.088 0-.042-.041-.083-.041-.083.248-.419.456-.837.497-1.34 0-.167-.249-.167-.29 0-.041.377-.207.712-.373 1.047-.58-1.13-1.327-2.343-1.576-3.515 0-.083-.207-.083-.165.042.041.67.165 1.255.456 1.841h-.166v.251c.414 0 .207-.042.248-.084.166.335.374.628.498.963.124.334.29.67.456 1.004-.041.042-.041.083-.041.125-.042.126.124.251.207.126.373.92.788 1.883 1.12 2.845.87 2.761 1.616 5.732 2.03 8.619l-.04.041c-.084-.418-.125-.836-.374-1.171-.124-.168-.331-.084-.331.084-.166-.586-.374-1.172-.58-1.758-.54-1.715-1.245-3.347-1.784-5.062-.497-1.464-1.16-2.803-1.907-4.142-.414-.711-.787-1.925-1.575-2.301-.083-.042-.166.084-.083.125.954.712 1.451 2.51 1.99 3.557.788 1.631 1.244 3.347 1.866 5.02.58 1.506.995 3.096 1.492 4.644.249.795.456 1.632.58 2.469.042.334.208.502.498.669.332.167.663-.335.29-.502-.414-.21-.497-1.464-.58-1.883-.042-.209-.125-.418-.166-.627.332.627.207 1.38.746 1.924.083.084.207.042.249-.083.166.041.373-.042.373-.252 0-.753-.166-1.59-.373-2.342.083-.042.249-.084.249-.21zm27.61-4.393c-.414-.334-.746-1.087-1.077-1.548a20.758 20.758 0 01-1.244-2.05c-.788-1.506-1.285-3.137-1.783-4.727-.953-3.055-1.907-6.485-1.99-9.707 0-.167-.248-.167-.248 0-.042 3.43.912 7.029 1.907 10.25.497 1.674 1.078 3.306 1.865 4.854.373.711.788 1.38 1.244 2.008.332.502.539 1.088 1.036 1.422.29.168.54-.292.29-.502z" fill="#FFC501"/><path d="M47.375 17.659c-1.036-2.636-2.031-5.272-2.819-7.992-.456-1.464-.829-2.97-1.202-4.476-.373-1.548-.912-3.222-.995-4.812 0-.083-.125-.083-.125 0-.124 1.297.374 2.72.622 3.975.332 1.673.747 3.347 1.161 4.979.788 2.886 1.617 5.815 2.86 8.535.125.25.581.042.498-.21zm7.255 22.425c.373-.837.829-1.674.829-2.594 0-.168-.249-.168-.249 0 0 .711-.29 1.506-.663 2.259 0-.042-.042-.126-.042-.167-.124-.502-.29-1.004-.456-1.548.083-.335.166-.67.208-1.005.041-.167-.208-.25-.25-.083-.04.167-.082.376-.123.544a6.72 6.72 0 01-.208-.879c0-.125.042-.25.042-.376 0-.084-.083-.084-.125-.042-.041-.251-.041-.46-.041-.712 0-.167-.249-.167-.29 0-.042.544.041 1.047.165 1.59-.414 1.632-1.45 3.055-1.617 4.77 0 .167.25.167.25.042.207-1.59 1.036-2.97 1.409-4.477.083.251.124.544.207.795a24.82 24.82 0 01-.87 2.468c-.415.92-.83 1.841-.83 2.887 0 .21.29.21.332 0 .083-1.673.912-3.263 1.492-4.895.125.586.29 1.172.415 1.757a9.006 9.006 0 00-.497 1.172c-.456 1.255-1.078 2.343-1.203 3.682 0 .167.25.167.29 0 .208-1.548.995-2.97 1.493-4.435.083.376.166.711.249 1.088v.041c-.042 0-.083.042-.083.084-.166.92-.54 1.757-.83 2.678-.29.92.042 1.84.084 2.761 0 .167.29.167.29 0-.042-.92-.29-1.757-.083-2.678.166-.794.539-1.464.746-2.259.208 1.255.124 2.427-.083 3.682-.166 1.088-.124 2.217-.29 3.347-.083.418.539.628.622.167.207-1.046.249-1.966.249-3.012 0-1.213.331-2.385.166-3.64-.125-.962-.415-2.008-.705-3.012zm-14.8 16.191c-.58-.042-1.037-.125-1.493-.293 0-.334-.207-.585-.248-.92-.042-.21-.374-.126-.332.083.041.252.166.46.207.67-.166-.042-.29-.126-.456-.21-.539-.25-1.036-.585-1.575-.836 0-1.548 0-3.096-.042-4.644a61.18 61.18 0 00-.207-2.845c-.041-.544.041-.879-.332-1.297-.124-.126-.29.042-.207.21.456.501.249 1.924.29 2.551l.125 2.343c.041 1.172 0 2.385 0 3.556a4.17 4.17 0 01-.622-.293c-.042-1.13-.166-2.259-.208-3.43-.082-1.757 0-3.556 0-5.314 0-.209-.331-.209-.331 0 0 2.845.041 5.69.207 8.535-.29-.167-.622-.334-.912-.544-.083-1.38-.124-2.76-.166-4.183-.041-1.716.083-3.431-.497-5.105-.083-.209-.415-.125-.332.084.622 1.757.415 3.64.456 5.439.041 1.171.041 2.301.083 3.472a8.397 8.397 0 01-.746-.543c-.125-1.256-.083-2.594-.166-3.766-.083-1.883-.083-3.723-.083-5.606 0-.21-.29-.21-.29 0 0 1.883-.042 3.723 0 5.606.041 1.13 0 2.343.083 3.473-.166-.126-.29-.21-.456-.335-.125-.084-.29-.21-.415-.293-.083-1.339-.166-2.677-.166-4.058 0-1.464.373-3.389-.29-4.728-.083-.167-.29 0-.249.126.415.837.207 1.84.207 2.72 0 .92-.04 1.882-.04 2.802 0 .92 0 1.841.082 2.762-.332-.335-.663-.67-.912-1.004 0-2.594-.041-5.23-.041-7.824 0-.168-.25-.168-.25 0 0 2.468-.04 4.937-.04 7.405a27.442 27.442 0 01-.871-1.171v-1.8c0-1.296.414-2.468 0-3.723-.042-.167-.332-.084-.29.084.414 1.339 0 2.761-.042 4.1v.837a9.645 9.645 0 01-.58-.795c0-1.34-.042-2.636-.042-3.975 0-.167-.29-.167-.29 0 0 1.13-.042 2.26-.042 3.389a13.61 13.61 0 01-.704-1.339c.124-.92.082-1.883.041-2.803 0-.167-.249-.167-.249 0 0 .753 0 1.464-.083 2.217l-.373-1.004c.042-.376 0-.753-.331-1.046-.125-.083-.29.042-.166.168.456.46.166 1.548.083 2.05-.083.586-.208 1.171-.125 1.757 0 .167.25.167.25 0 0-.795.123-1.59.206-2.343.083.377.208.753.332 1.088a6.539 6.539 0 01-.166.878c-.124.712-.331 1.507.042 2.176.124.167.373.042.29-.167-.332-.712-.125-1.548.041-2.301.25.585.54 1.087.83 1.631v2.469c0 .25.373.25.373 0v-1.883c.207.293.373.586.58.879 0 .753 0 1.506.041 2.217 0 .251.374.251.374 0v-1.673c.29.418.58.794.87 1.171v.544c0 .209.332.209.332 0v-.168c.249.252.497.503.788.712.082.042.124.125.207.167l.124 1.255c.042.21.332.21.332 0 0-.293-.042-.627-.042-.92.29.25.622.46.913.711.041.335.124.67.207 1.004.083.251.456.126.373-.125-.041-.168-.083-.377-.124-.544.207.167.456.293.663.46l.124 1.13c0 .125.25.209.332.083.041-.083.124-.125.166-.209.083-.125 0-.335-.166-.293 0-.167-.041-.293-.041-.46.29.167.58.293.87.46 0 .293.042.586.042.92 0 .168.248.168.29 0 0-.25.041-.501.041-.752.083.041.125.041.208.083.165.042.29.21.414.251 0 .084.042-.125.042.293h.165v-.209c1.244.67 2.488 1.548 4.022 1.339.414-.042.497-.586.083-.586zm3.316-14.936a1.398 1.398 0 00-1.037.293c0-.042-.082-.084-.124-.042-.166.209-.456.376-.539.627-.083.252-.083.502-.083.754 0 .209.042.418.083.585 0 .753.415 1.59 1.244 1.632.995.042 2.239-.795 2.363-1.84.083-1.005-.953-1.925-1.907-2.01zm.456 1.046a.61.61 0 01.249.376c.248.628-.166 1.34-.746 1.506-.871.293-1.12-.753-.995-1.422.248-.753.953-.879 1.492-.46zM41.28 40.46c-.165-.25-.414-.544-.704-.627-.166-.042-.25.209-.083.25.248.084.414.377.539.586.124.21.29.503.29.754 0 .209.332.209.332 0 0-.335-.166-.67-.374-.963zm2.323-1.087c-.125-.21-.415 0-.29.167.124.209.207.418.207.627 0 .21.373.251.373 0a2.063 2.063 0 00-.29-.794z" fill="#FFC501"/><path d="M55.5 52.133c-1.077-.502-2.155-1.883-2.818-2.845-.871-1.297-1.7-2.343-1.866-3.933 0-.041 0-.125-.041-.167.041-.042.083-.084.124-.084.249-.209-.041-.627-.332-.502-.166-.795-.331-1.548-.373-2.385-.041-1.84-.124-3.807.166-5.606a8.835 8.835 0 011.534-3.765c.249-.335 1.7-2.469 2.239-1.925.248.21.58-.042.414-.335-.829-1.631-3.192 1.883-3.607 2.553-.995 1.673-1.285 3.514-1.326 5.438 0 1.214.041 2.427.041 3.682 0 .419.083.837.166 1.255.083.377.29.837.373 1.256-.041.041-.083.083-.083.167-1.41.879-3.233 1.255-4.684 1.966-1.452.753-3.069 1.674-4.685 2.134-.042-.042-.042-.042-.083 0-.042.042-.083.042-.125.084h-.041c0-.042 0-.084-.041-.084-.747-1.548-2.115-2.887-3.151-4.184-1.244-1.59-3.151-2.636-4.934-3.514-1.824-.92-4.146-.837-6.136-.837.042-.335.042-.67.042-1.004.124-.084.124-.293 0-.335v-.293c0-.167-.249-.167-.249 0v.293c-.29 0-.663 0-.995-.042 0-.125.041-.292.041-.418.125-.753.29-1.59-.041-2.301-.083-.167-.29 0-.207.126.331.794.041 1.715-.083 2.552a1.787 1.787 0 01-.498-.21c-.083-.041-.165-.041-.207.042l-.124.126c.083-.753.166-1.548.29-2.301.166-.963.497-1.883.663-2.887.042-.168-.249-.251-.29-.084-.249 1.59-.705 3.138-.912 4.77-.083.795-.249 1.59-.332 2.384-.331.084-.58.21-.829.377.29-3.18 2.114-6.234 1.866-9.455 0-.168-.29-.168-.25 0 .25 3.305-1.782 6.485-1.989 9.79 0 .209.332.25.373 0 .207-.168.498-.251.83-.335-.042.67-.042 1.38-.415 1.966-.125.168.166.377.29.168.414-.628.497-1.423.539-2.218l.87-.125a16.25 16.25 0 000 2.008c0 .21.29.21.29 0 .042-.67.042-1.339.042-2.008h.995a16.5 16.5 0 00-.124 2.05c0 .167.29.167.29 0 0-.67.083-1.339.124-2.008.29 0 .54 0 .747.041h.373c.124.502.207.963.166 1.507 0 .167.29.167.29 0 0-.502-.083-1.005-.208-1.465 1.825.126 3.566.293 5.183 1.172 1.534.837 2.943 1.757 4.104 3.096 1.16 1.339 2.488 2.803 3.234 4.435-.042.334.083.67.332 1.004-.042.042-.083.084 0 .125.456.46.704 1.13.953 1.883-.083.586-.207 1.13-.29 1.715-.042.168.207.251.249.084.083-.377.124-.753.207-1.13.166.628.29 1.297.456 1.841 0 .795 0 1.632.083 2.427 0 .21.29.21.29 0 0-.293.041-.628.041-.92.083.418.166.878.25 1.296.082.628.248 1.381.206 2.009 0 .418.664.46.664 0 0-.712-.208-1.381-.332-2.092-.041-.293-.124-.586-.166-.879-.041-2.008.083-4.016.083-6.025v-.041c.373-.21.788-.293 1.203-.46.87-.419 1.616-.921 2.529-1.214.995-.335 1.99-.586 2.984-1.004.664-.293.954-.628 1.078-1.004.29.711.664 1.38 1.12 2.05.787 1.213 1.782 2.887 3.11 3.472.372-.167.745-.753.33-.92zM24.698 40.46l-.87.126c0-.293.041-.586.083-.837.041-.21.041-.46.083-.67.041.042.124.084.207.042.041-.041.083-.041.083-.083.166.083.331.167.539.25-.042.42-.083.796-.125 1.172zm1.327-.042c-.29 0-.622 0-.995.042 0-.376.041-.711.083-1.088.332.084.705.084.995.084 0 .293-.041.628-.083.962zM41.53 51.966c-.124-.251-.207-.46-.373-.712.125.084.29.126.415.168 0 .167 0 .376-.042.544zm.58 1.422v.21c-.124-.377-.206-.754-.33-1.13.04-.335.082-.712.123-1.046.083 0 .166 0 .25-.042h.04c.042.67-.04 1.38-.082 2.008zm.332 1.423s0-.042 0 0v-1.716c.042-.627.083-1.255.042-1.84.124-.042.207-.126.332-.168 0 1.506-.083 2.97-.125 4.477l-.248-.753zm7.09-7.155c-1.12.544-2.405.795-3.566 1.214-.87.334-1.617.962-2.529 1.255a6.71 6.71 0 00-.953.46c-.041.042-.083.042-.124.042a2.569 2.569 0 00-.208-.502c-.083-.167-.373-.042-.29.167.083.126.124.293.166.419-.622.083-1.202-.21-1.368-.712.124-.041.207-.209.166-.334-.042-.126-.083-.21-.125-.335v-.042c.498-.042.912-.293 1.368-.502.912-.46 1.99-.628 2.902-1.088 1.12-.544 2.24-1.046 3.441-1.464.622-.21 1.244-.377 1.783-.67 0 .168.042.335.042.503.207.878.083 1.171-.705 1.59z" fill="#FFC501"/><path d="M29.797 39.54c-.332-.419-1.12-.628-1.659-.502-.207.042-.166.376.042.335.248-.042.456.041.663.125.207.084.456.167.622.335.249.209.497-.084.332-.293zm3.565.209l-1.244-.377c-.124-.041-.166.126-.083.21.373.25.788.544 1.286.585.207.042.248-.376.041-.418zm2.736 1.757c-.207-.209-.331-.502-.497-.711-.125-.126-.332.042-.249.21.166.25.249.501.456.752.166.251.498-.042.29-.25zm2.695 2.678c-.415-.418-.663-.962-.995-1.423-.124-.167-.373.042-.29.21.331.502.539 1.087.953 1.548.208.209.54-.126.332-.335zm.373 1.632v.292c.042.168.332.168.373 0 0-.083.042-.209 0-.292 0-.252-.373-.252-.373 0zM10.145 29.582c-.622-.67-.953-1.673-1.036-2.552-.042-.544-.083-1.13-.415-1.548-.083-.125-.248.042-.166.168.457.585.29 1.506.498 2.175.207.753.415 1.423.953 2.008.083.126.29-.125.166-.25zm1.245.544c-.25-.67-.415-1.339-.581-2.05-.207-.92-.54-1.84-.663-2.803 0-.125-.25-.125-.208 0 .083.753.29 1.464.498 2.176.248.92.373 1.84.704 2.76.042.21.332.126.25-.083zm.165-3.514c-.041-.711.042-1.59-.456-2.176-.083-.125-.29.042-.166.168.54.627.25 1.715.373 2.468.166.962.622 1.883.788 2.845.042.167.29.125.29-.042-.124-1.088-.746-2.092-.829-3.263zm1.535.083c-.29-1.13-.415-2.259-.747-3.388-.041-.168-.29-.084-.248.083.248.963.455 1.967.621 2.97.208 1.089.622 2.093.788 3.139.042.209.332.125.332-.084-.125-.962-.498-1.8-.747-2.72zm1.947 1.925c-.705-1.674-1.036-3.43-1.7-5.104-.041-.126-.29-.084-.248.084.663 1.673.912 3.514 1.658 5.187.083.21.373.042.29-.167zm1.453-.711c-.54-1.255-.789-2.594-1.203-3.891-.042-.21-.373-.126-.29.084.373 1.338.621 2.677 1.202 3.932.083.21.373.042.29-.125zm1.242-.502c-.539-1.13-.705-2.385-.953-3.598-.042-.251-.415-.126-.373.083.248 1.256.456 2.553.995 3.724.082.21.414 0 .331-.21zM34.44 3.977c.207-.25-.124-.585-.373-.376-.332.293-.58.67-.87 1.004-.042.084-.125.125-.208.21V4.73c-.041-.25-.415-.125-.373.084 0 .084.041.168.041.251-.414.293-.953.544-1.326.753-.166.084-.29.168-.456.251-.042-.167-.042-.376-.083-.544-.042-.25-.415-.25-.373 0 .041.251 0 .502.041.754-.29.125-.498.25-.912.376V6.53c0-.21-.332-.21-.332 0v.25c-.331.126-.663.21-1.036.335-.042 0-.083.042-.125.042-.082-.084-.248-.042-.248.084-.29.083-.58.167-.912.293 0-.042-.042-.042-.042-.084-.083-.167-.332 0-.249.167v.042c-.082.042-.165.042-.248.084-.042-.168-.125-.377-.29-.502-.125-.126-.332.083-.208.209.083.125.166.251.207.377-.124.041-.29.083-.414.083v-.083c0-.21-.29-.21-.29 0v.167c-.25.042-.456.084-.705.084a.772.772 0 00-.29-.377c-.166-.126-.332.21-.166.335a.597.597 0 01.083.167c-.208 0-.415-.084-.664-.125 0-.126.042-.251.042-.377 0-.084-.042-.126-.083-.167l-.207-.084c-.166-.042-.208.21-.083.251.083.042.124.126.083.251-.208-.042-.456-.084-.664-.125v-.46c0-.126-.207-.126-.207 0v.418c-.29-.084-.58-.126-.87-.21-.042-.125-.083-.25-.166-.334-.125-.126-.29.042-.166.167 0 .042.041.042.041.084a6.72 6.72 0 00-.912-.084c-.166 0-.166.251 0 .251.332.042.622.084.954.126 0 .125-.042.293-.042.376-.041.293-.083.544-.083.837 0 .167.249.21.29.042.042-.335.083-.67.125-1.046v-.126c.29.042.539.126.829.21 0 .376-.041.794-.041 1.171 0 .21.331.21.331 0 0-.377-.041-.753-.041-1.13l.622.126c-.042.125-.125.293-.125.418-.041.502.208.963.208 1.506 0 .21.29.252.331.042.042-.376-.083-.711-.166-1.088-.082-.292-.041-.585.042-.878.249.042.456.084.705.125h.041c-.041.251-.166.502-.166.67-.083.544-.041 1.088-.041 1.632 0 .25.373.25.373 0 0-.754-.041-1.465.166-2.218.207 0 .456 0 .663-.042-.083.753-.29 1.506-.249 2.26.042.209.29.209.332 0 .083-.754.207-1.549.249-2.302.166-.041.331-.083.456-.083 0 .334-.083.711-.083 1.004 0 .711-.042 1.422-.042 2.134 0 .25.373.25.373 0 0-.92-.04-1.883 0-2.804v-.418c.125-.042.25-.084.332-.084.332 1.256-.166 3.013.788 3.933.166.168.415-.083.249-.25-.54-.545-.456-1.59-.54-2.302-.04-.502-.082-1.004-.207-1.464.29-.084.58-.168.83-.251.331 1.213.414 2.468.58 3.723.042.168.332.126.29-.042a14.595 14.595 0 00-.622-3.765c.042 0 .042 0 .083-.042.332-.084.622-.209.912-.293 0 .67-.041 1.34 0 2.05 0 .628.083 1.255.54 1.716.165.167.455-.084.29-.293-.457-.46-.415-1.213-.457-1.841V7.241l.995-.377c.166 1.297.29 2.552.332 3.85 0 .292.415.292.415 0 .041-1.34-.166-2.72-.373-4.059a2.68 2.68 0 00.58-.335c.249.544.083 1.172.124 1.758.042.71.208 1.422.25 2.133 0 .168.29.251.33.042.125-.837-.165-1.632-.248-2.426-.041-.586.083-1.13-.166-1.632.29-.168.622-.335.912-.544.125.67.208 1.339.249 2.008.041.753.083 1.423.373 2.134.083.21.373.125.332-.084-.332-1.38-.415-2.845-.622-4.225.041-.042.124-.084.166-.126.622-.418.912-.962 1.285-1.38zm.912-1.547c-.083.083-.124.167-.207.25-.125.126.083.335.207.21l.249-.251c.166-.084-.124-.377-.249-.21z" fill="#FFC501"/><path d="M34.44 5.484c-.041-.251-.373-.251-.373 0 .083.878-.332 1.673.041 2.552.083.209.415.042.332-.126-.29-.837.083-1.59 0-2.426zm.995-1.004c-.083-.252-.456-.126-.373.083a7.34 7.34 0 01.248 1.883c0 .25.374.25.374 0 0-.67-.083-1.339-.25-1.967zm-15.38 11.045c0-.126-.208-.126-.208 0 .083 1.548-.912 2.845-.787 4.393 0 .167.29.167.29 0 0-1.506.87-2.887.705-4.393zm1.575 2.385l-.166-.042c-.125-.042-.208.167-.042.209.207.083-1.41 6.568-1.575 7.196-.042.21.249.293.29.084.705-2.385.995-4.854 1.575-7.28 0-.084-.041-.168-.082-.168zm.663 2.886c-.705.837-.788 1.967-.995 3.055-.332 1.631-.912 3.263-1.451 4.853-.083.167.207.293.29.125.539-1.213.912-2.468 1.244-3.765.331-1.255.29-2.97 1.16-4.017.084-.209-.124-.418-.248-.25zm.456 2.301c0-.125-.249-.125-.207 0 .124 1.465-.664 3.096-.995 4.519-.373 1.464-.87 2.97-.995 4.519 0 .209.29.209.331 0 .125-1.8.747-3.599 1.161-5.356.249-1.213.83-2.426.705-3.682zm.787 3.557c-.539.627-.622 1.422-.829 2.175a68.16 68.16 0 01-1.41 4.979c-.04.167.208.251.29.084.457-1.172.747-2.385 1.079-3.598.248-1.046.373-2.594 1.078-3.431.041-.126-.125-.335-.208-.21zm.415 1.087c0-.125-.249-.125-.207 0 .124 1.883-.746 3.933-1.244 5.732-.539 1.841-1.078 3.598-1.202 5.523 0 .21.29.21.332 0 .207-2.176.87-4.184 1.41-6.276.414-1.59 1.077-3.305.911-4.979zm12.687 23.681c0-.251-.373-.251-.373 0 0 1.171.041 2.3.248 3.472.042.251.373.126.373-.083-.207-1.13-.248-2.26-.248-3.39zm7.502.753c-.04-.21-.372-.21-.33 0 .206 2.134.082 4.226.248 6.36 0 .209.29.209.29 0 .166-2.093 0-4.268-.207-6.36zm.955.92c-.041-.209-.331-.125-.331.084.29 1.966.083 3.933.456 5.857.041.21.373.126.331-.083-.29-1.925-.166-3.891-.456-5.858zm1.699 5.858c-.497-1.59-.497-3.222-.497-4.854 0-.209-.332-.209-.332 0-.041 1.674 0 3.306.498 4.937.041.251.373.168.331-.083zm1.161-.963c-.29-1.13-.207-2.259-.248-3.389a.145.145 0 00-.29 0c0 1.172-.125 2.343.248 3.473.083.167.373.126.29-.084zm1.535-1.547c-.166.041-.125.292.04.292.415-.041.498.837.581 1.13.042.21.332.125.29-.084-.083-.502-.248-1.464-.912-1.338zm3.482-21.923c-.041-.085-.207 0-.124.083.207.293-.25 1.088-.332 1.339-.249.67-.456 1.339-.622 2.008-.29 1.13-.705 2.26-.788 3.472 0 .168.25.168.25.042.248-1.422.621-2.845.994-4.267.166-.67.415-1.339.663-1.967.166-.502.208-.334-.04-.71zm-5.804-20.041c-.29-1.004-.746-2.092-.705-3.138 0-.126-.207-.126-.207 0-.041.837.249 1.59.497 2.385.29 1.087.58 2.133.747 3.263 0 .126.207.084.207-.042-.083-.837-.332-1.631-.539-2.468zm1.368.418c-.58-1.088-.829-2.343-.829-3.556 0-.167-.249-.167-.249 0-.041 1.088.166 2.05.54 3.054.331.879.953 1.674 1.119 2.594.041.21.29.126.29-.084-.083-.71-.498-1.338-.87-2.008zm2.28 2.218c-1.202-1.381-1.492-3.766-1.7-5.523 0-.126-.207-.126-.165 0 .083 1.13.331 2.217.58 3.347.208.879.456 1.757 1.12 2.385.124.125.29-.084.165-.21zm1.286-.67c-.54-1.422-1.078-2.845-1.7-4.184-.083-.209-.415-.041-.29.168.621 1.38 1.078 2.803 1.7 4.142.082.167.373.041.29-.126zm.538-2.134c-.248-.585-.414-1.255-.787-1.799-.125-.167-.415 0-.29.168.29.418.414.962.621 1.422.25.544.457 1.088.58 1.716.042.167.291.125.291-.042-.041-.544-.207-1.004-.414-1.465zm1.327-.836c-.083-.126-.29 0-.208.125.125.21.208.46.25.711 0 .126.206.084.206-.041 0-.251-.082-.544-.248-.795zm1.575 1.045a.982.982 0 01-.373.335c0-.042 0-.042-.041-.083 0-.042-.083-.042-.083.041 0 .042.041.126.041.168 0 .042.042.042.083.042a1.47 1.47 0 00.456-.419c.042-.083-.041-.167-.083-.083zm.58-.292c-.083-.042-.207.042-.124.125.124.126.207.251.207.419 0 .125.208.125.208 0a1.002 1.002 0 00-.29-.544zM18.644 12.22c-.373.418-.456.962-.58 1.506-.207.67-.373 1.338-.415 2.05 0 .167.29.209.332.042.083-.502.166-1.005.29-1.506.125-.586.208-1.381.622-1.883.083-.126-.083-.335-.249-.21zm21.642 22.508c-2.073.628-5.1 1.507-6.924-.167-.083-.084-.166.042-.083.084 1.866 1.757 4.975.92 7.09.293.124-.042.041-.251-.083-.21zm3.15-5.606c-1.16.837-2.487 2.26-4.063 1.966-.124-.041-.165.168-.041.168 1.617.335 2.985-1.088 4.187-1.966.083-.084 0-.252-.083-.168z" fill="#FFC501"/></svg>