<svg width="35" height="36" fill="none" xmlns="http://www.w3.org/2000/svg"><path d="M21.495 1.801c-.265-.34-.723.098-.554.414.386.754-.506 2.164-.94 2.65-.699.779-2.048 1.533-3.06 1.606-2 .17-3.422-1.29-4.965-2.238-.072-.048-.169.049-.12.122 1.229 1.8 4.313 3.623 6.506 2.53 1.23-.609 2.41-1.338 2.989-2.652.337-.73.674-1.726.144-2.432z" fill="#FFC501"/><path d="M32.507 19.53s0-.024 0 0c.82-1.362.627-1.605-.168-2.845-.434-.681-.747-1.386-1.205-2.043-.482-.681-1.085-1.265-1.615-1.897-.41-.486-.82-1.289-1.325-1.848.795-.073 1.638-.365 2.41-.487 1.012-.17 2.53-.51 3.301-1.191.53-.462.145-2.578.145-3.21 0-1.606-.506-3.21-.434-4.791.048-.657-.844-.73-1.253-.706-1.446.049-2.94.098-4.386-.073C26.41.245 24.82-.023 23.229.002c-.65 0-1.301.17-1.903.364a.739.739 0 00-.241.122.375.375 0 00-.41.073c-1.567 1.386-3.687 1.872-5.687 2.213-1.64.267-3.47-.17-4.868.9-1.59 1.216-3.133 2.456-4.796 3.6-.892.607-1.807 1.19-2.65 1.847-.676.511-1.519.827-2.073 1.46a.451.451 0 00-.073.486c.675 1.338 1.64 2.48 2.483 3.77.867 1.288 1.855 2.431 2.916 3.55.819.876 1.47.39 2.434-.049 1.3-.583 2.867-1.629 3.687-2.845.096 1.07.313 2.991.313 3.162.096 1.629-.12 3.234.144 4.84.097.631.217 2.066.892 2.407.362.17.723.194 1.06.17.049 1.119.675 2.335 1.109 3.308.554 1.191 1.422 2.213 2.458 3.015 1.18.9 2.627 1.24 3.976 1.775.555.22 1.374.462 1.952.22.53.802 1.302 1.24 2.603 1.045 1.084-.024 2.145-.51 3.109-.973 1.277-.632 2.193-.997 3.06-2.189.53-.753.82-1.605.579-2.48 1.518-3.332.674-7.101-.796-10.263zm.362 9.217c-.241-.389-.506-.73-.795-1.119-.603-.826-.916-1.872-1.157-2.845-.482-1.75.506-3.453 1.398-4.937.77 2.87 1.518 6.08.554 8.901zM21.205 32.93c-1.229-.438-2.337-.851-3.325-1.702-1.422-1.216-2.483-3.38-3.013-5.229.53-.097 1.036-.316 1.567-.365 3.639-.462 5.76 3.186 6.603 6.275.168.608.337 1.191.554 1.726-.699.098-1.808-.51-2.386-.705zm9.278.219c-1.205.608-2.627 1.435-4.024 1.46a.673.673 0 00-.217.048c-.771.024-1.374-.122-1.784-1.143-.24-.584-.41-1.216-.602-1.824-.386-1.24-.964-2.384-1.567-3.527-.94-1.8-2.867-3.185-4.867-3.331-.651-.049-3.302.68-3.615-.073-.579-1.386-.603-2.992-.603-4.45 0-1.46-.24-2.968-.554-4.378-.096-.487-.072-1.07-.53-1.386-.024-.025-.096-.025-.12.024-.025.049-.049.073-.097.121-.048.074 0 .146.096.122v.024c-.168-.072-.385-.048-.506.146-.94 1.24-2.626 2.262-4 2.894-1.398.633-3.23-2.432-3.856-3.331-.41-.584-2.747-3.308-1.928-3.819 1.374-.85 2.675-1.848 4-2.796 1.182-.827 2.338-1.654 3.447-2.554.795-.632 1.518-1.605 2.627-1.678.289-.024.578-.024.843-.024 1.35.632 2.868.024 4.193-.39.024 0 .048-.024.097-.024.626-.17 1.253-.364 1.831-.608.892-.34 1.76-.802 2.458-1.483a.387.387 0 00.12-.292c.459-.146.965-.146 1.447-.17 1.132-.049 2.217.219 3.325.365 2.097.243 4.193.486 6.314.364 1.06-.048.82 5.618.82 6.494 0 .437.072.802-.41.9-.675.145-1.302.462-1.952.656-1.037.292-2.458.681-3.519.657-.434 0-.506.632-.096.754.144.048.289.073.458.073.53.68.964 1.726 1.35 2.286.746 1.045 1.59 1.945 2.168 3.088.241.438.434.924.747 1.338.53.68-.024 1.264-.337 1.848-.603 1.07-1.157 2.189-1.446 3.38-.482 2.165.747 4.475 1.952 6.153 1.06 1.508-.193 3.356-1.663 4.086z" fill="#FFC501"/><path d="M11.904 13.426c.096-.803.241-1.58.41-2.36.096-.461.289-.85.265-1.337 0-.073-.12-.073-.097 0 .025.584-.289 1.24-.41 1.824a12.033 12.033 0 00-.313 1.824c-.072-.316-.168-.656-.24-.948-.145-.584-.242-1.192-.41-1.776.024 0 .072-.024.072-.072.12-.925.627-1.752.554-2.7 0-.073-.12-.073-.12 0 .048.924-.482 1.702-.554 2.602-.073-.219-.145-.462-.217-.68-.193-.487-.362-.974-.555-1.46.024 0 .024-.024.024-.049.049-.316.049-.68.266-.948.048-.049-.024-.122-.073-.073-.217.268-.24.608-.289.949-.096-.22-.193-.414-.289-.633 0-.024-.024-.048-.024-.048.144-.244.265-.487.289-.779 0-.097-.145-.097-.169 0-.024.22-.12.414-.217.608-.337-.656-.77-1.362-.915-2.043 0-.048-.12-.048-.097.025a2.7 2.7 0 00.265 1.07h-.096v.146c.241 0 .12-.025.145-.049.096.195.216.365.289.56.072.194.168.389.265.583-.024.024-.024.049-.024.073-.024.073.072.146.12.073.217.535.458 1.094.65 1.654.507 1.605.94 3.332 1.182 5.01l-.024.024c-.049-.243-.073-.487-.217-.681-.072-.097-.193-.049-.193.049-.096-.34-.217-.681-.337-1.022-.314-.997-.723-1.945-1.037-2.942-.289-.852-.674-1.63-1.108-2.408-.241-.414-.458-1.119-.916-1.338-.048-.024-.096.049-.048.073.554.414.843 1.46 1.157 2.067.457.949.723 1.946 1.084 2.919.337.875.578 1.8.868 2.7.144.461.265.948.337 1.434.024.195.12.292.29.39.192.097.385-.195.168-.293-.241-.121-.29-.85-.338-1.094-.024-.122-.072-.243-.096-.365.193.365.12.803.434 1.119.048.049.12.024.144-.049.097.025.217-.024.217-.146 0-.437-.096-.924-.217-1.362.049-.024.145-.048.145-.121zm16.049-2.554c-.24-.194-.433-.632-.626-.9a12.108 12.108 0 01-.723-1.191c-.458-.876-.747-1.824-1.036-2.748-.555-1.775-1.109-3.77-1.157-5.642 0-.098-.145-.098-.145 0-.024 1.994.53 4.085 1.109 5.958.29.973.627 1.921 1.084 2.821.217.413.458.803.723 1.167.193.292.314.633.603.827.168.098.313-.17.168-.292z" fill="#FFC501"/><path d="M28.026 10.264c-.602-1.532-1.18-3.064-1.639-4.645-.265-.85-.482-1.726-.699-2.602-.216-.9-.53-1.872-.578-2.796 0-.05-.072-.05-.072 0-.073.753.217 1.58.361 2.31.193.973.434 1.945.675 2.894.458 1.678.94 3.38 1.663 4.961.072.146.337.024.289-.121zM32.243 23.3c.217-.487.482-.973.482-1.508 0-.097-.145-.097-.145 0 0 .413-.169.875-.386 1.313 0-.024-.024-.073-.024-.097-.072-.292-.168-.584-.265-.9.048-.195.097-.389.12-.584.025-.097-.12-.146-.144-.048-.024.097-.048.219-.072.316a3.913 3.913 0 01-.12-.51c0-.074.023-.147.023-.22 0-.048-.048-.048-.072-.024-.024-.146-.024-.268-.024-.413 0-.098-.144-.098-.168 0-.025.316.024.608.096.924-.241.948-.844 1.775-.94 2.772 0 .097.145.097.145.024.12-.924.602-1.726.819-2.602.048.146.072.316.12.462-.144.487-.313.973-.506 1.435-.24.535-.482 1.07-.482 1.678 0 .122.17.122.193 0 .048-.973.53-1.897.868-2.845.072.34.168.68.24 1.021-.12.244-.216.462-.288.681-.265.73-.627 1.362-.7 2.14 0 .098.145.098.17 0 .12-.9.578-1.726.867-2.578.048.22.096.414.145.633v.024a.052.052 0 00-.049.049c-.096.535-.313 1.021-.482 1.556-.168.535.024 1.07.048 1.605 0 .098.17.098.17 0-.025-.535-.17-1.021-.049-1.556.096-.462.313-.851.434-1.313.12.73.072 1.41-.048 2.14-.097.632-.073 1.289-.17 1.945-.047.244.314.365.362.098.12-.608.145-1.143.145-1.752 0-.705.193-1.386.096-2.115-.072-.56-.24-1.168-.41-1.751zm-8.603 9.411a3.053 3.053 0 01-.867-.17c0-.194-.121-.34-.145-.535-.024-.122-.217-.073-.193.049.024.146.097.267.12.389-.096-.025-.168-.073-.264-.122-.314-.146-.603-.34-.916-.486 0-.9 0-1.8-.024-2.7a35.528 35.528 0 00-.12-1.653c-.025-.317.023-.511-.194-.754-.072-.073-.168.024-.12.121.265.292.144 1.119.169 1.484l.072 1.362c.024.68 0 1.386 0 2.067-.12-.049-.241-.097-.362-.17-.024-.657-.096-1.314-.12-1.995-.048-1.021 0-2.067 0-3.088 0-.122-.193-.122-.193 0a85.2 85.2 0 00.12 4.961c-.168-.097-.36-.195-.53-.316a78.849 78.849 0 01-.096-2.432c-.024-.997.048-1.994-.29-2.967-.047-.122-.24-.073-.192.049.361 1.021.241 2.115.265 3.161.024.681.024 1.338.048 2.019a4.856 4.856 0 01-.433-.316c-.073-.73-.049-1.508-.097-2.19-.048-1.094-.048-2.164-.048-3.258a.085.085 0 00-.169 0c0 1.094-.024 2.164 0 3.259.024.656 0 1.362.049 2.018-.097-.073-.17-.121-.266-.194-.072-.049-.168-.122-.24-.17a37.806 37.806 0 01-.097-2.36c0-.85.217-1.97-.169-2.748-.048-.097-.168 0-.144.073.24.487.12 1.07.12 1.581 0 .535-.024 1.095-.024 1.63 0 .535 0 1.07.048 1.605a5.946 5.946 0 01-.53-.584c0-1.508-.024-3.04-.024-4.548 0-.097-.144-.097-.144 0 0 1.435-.025 2.87-.025 4.305-.168-.22-.337-.438-.506-.681V27.36c0-.754.241-1.435 0-2.164-.024-.098-.193-.049-.168.048.24.778 0 1.605-.024 2.383v.487a5.607 5.607 0 01-.338-.462c0-.778-.024-1.532-.024-2.31 0-.098-.169-.098-.169 0 0 .656-.024 1.313-.024 1.97a7.903 7.903 0 01-.41-.779c.073-.535.049-1.094.025-1.63 0-.096-.145-.096-.145 0 0 .439 0 .852-.048 1.29l-.217-.584c.024-.219 0-.438-.193-.608-.072-.049-.168.024-.096.097.265.268.096.9.048 1.192-.048.34-.12.68-.072 1.021 0 .098.144.098.144 0 0-.462.073-.924.12-1.361.049.218.121.437.194.632-.024.17-.049.34-.097.51-.072.414-.193.876.024 1.265.073.097.217.024.169-.097-.193-.414-.072-.9.024-1.338.145.34.313.633.482.949v1.435c0 .146.217.146.217 0v-1.095c.12.17.217.34.337.51 0 .439 0 .876.024 1.29 0 .146.217.146.217 0v-.973c.169.243.338.462.506.681v.316c0 .122.193.122.193 0v-.097c.145.146.29.292.458.413.048.025.072.073.12.098l.073.73c.024.12.193.12.193 0 0-.171-.024-.366-.024-.536.168.146.361.268.53.414.024.194.072.389.12.583.048.146.265.073.217-.073-.024-.097-.048-.219-.072-.316.12.097.265.17.385.268l.073.656c0 .073.144.122.192.049.024-.049.073-.073.097-.122.048-.073 0-.194-.097-.17 0-.097-.024-.17-.024-.267.169.097.338.17.506.267 0 .17.024.34.024.535 0 .097.145.097.17 0 0-.146.023-.292.023-.438.049.025.073.025.12.049.097.024.17.122.242.146 0 .049.024-.073.024.17h.096v-.121c.723.389 1.446.9 2.338.778.24-.024.289-.34.048-.34zm1.928-8.681a.813.813 0 00-.603.17c0-.025-.048-.05-.072-.025-.096.122-.265.219-.313.365-.048.146-.048.292-.048.438 0 .121.024.243.048.34 0 .438.24.924.723.949.578.024 1.301-.462 1.373-1.07.049-.584-.554-1.12-1.108-1.168zm.265.607c.072.049.12.122.145.22.144.364-.097.777-.434.875-.506.17-.65-.438-.579-.827.145-.438.555-.511.868-.268zm-1.35-1.118c-.096-.146-.24-.316-.41-.365-.096-.024-.144.121-.048.146.145.048.241.219.314.34.072.122.168.292.168.438 0 .122.193.122.193 0 0-.195-.096-.39-.217-.56zm1.35-.633c-.072-.121-.241 0-.169.098.072.121.12.243.12.364 0 .122.218.146.218 0a1.199 1.199 0 00-.17-.462z" fill="#FFC501"/><path d="M32.749 30.304c-.627-.292-1.253-1.095-1.639-1.654-.506-.754-.988-1.362-1.084-2.286 0-.024 0-.073-.024-.097.024-.025.048-.049.072-.049.145-.122-.024-.365-.193-.292-.096-.462-.192-.9-.217-1.386-.024-1.07-.072-2.213.097-3.259.12-.778.434-1.556.891-2.189.145-.194.988-1.434 1.302-1.118.144.121.337-.025.24-.195-.481-.948-1.855 1.095-2.096 1.484-.578.972-.747 2.042-.771 3.161 0 .706.024 1.41.024 2.14 0 .244.048.487.097.73.048.219.168.486.216.73-.024.024-.048.048-.048.097-.82.51-1.88.73-2.723 1.143-.843.438-1.783.973-2.723 1.24-.024-.024-.024-.024-.048 0s-.049.024-.073.049h-.024c0-.025 0-.049-.024-.049-.434-.9-1.229-1.678-1.831-2.432-.723-.924-1.832-1.532-2.868-2.043-1.06-.535-2.41-.486-3.567-.486.024-.195.024-.39.024-.584.073-.048.073-.17 0-.194v-.17c0-.098-.144-.098-.144 0v.17c-.169 0-.386 0-.579-.025 0-.073.025-.17.025-.243.072-.438.168-.924-.024-1.337-.049-.098-.17 0-.121.073.193.462.024.997-.048 1.483a1.042 1.042 0 01-.29-.122c-.048-.024-.096-.024-.12.025l-.072.073c.048-.438.096-.9.169-1.338.096-.56.289-1.094.385-1.678.024-.097-.144-.146-.169-.048-.144.924-.41 1.823-.53 2.772-.048.462-.144.924-.192 1.386a1.464 1.464 0 00-.482.219c.168-1.848 1.229-3.624 1.084-5.496 0-.098-.169-.098-.145 0 .145 1.921-1.036 3.77-1.156 5.69 0 .122.192.146.216 0 .121-.097.29-.145.482-.194-.024.39-.024.803-.24 1.143-.073.097.096.219.168.097.241-.364.29-.827.313-1.289l.507-.073c-.025.39-.025.779 0 1.168 0 .121.168.121.168 0 .024-.39.024-.778.024-1.168h.579c-.049.39-.073.779-.073 1.192 0 .097.17.097.17 0 0-.39.047-.778.071-1.167.17 0 .314 0 .434.024h.217c.072.292.12.56.096.876 0 .097.17.097.17 0a3.3 3.3 0 00-.121-.852c1.06.073 2.072.17 3.012.681.892.487 1.711 1.022 2.386 1.8s1.446 1.63 1.88 2.578c-.025.194.048.389.192.584-.024.024-.048.048 0 .072.265.268.41.657.554 1.095-.048.34-.12.656-.168.997-.024.097.12.146.144.048.049-.218.073-.437.12-.656.097.365.17.754.266 1.07 0 .462 0 .948.048 1.41 0 .122.169.122.169 0 0-.17.024-.364.024-.535.048.244.096.511.144.754.049.365.145.803.121 1.168 0 .243.386.267.386 0 0-.414-.12-.803-.193-1.216-.024-.17-.072-.34-.097-.511-.024-1.167.049-2.335.049-3.502v-.024c.216-.122.457-.17.698-.268.507-.243.94-.535 1.47-.705.579-.195 1.157-.34 1.736-.584.385-.17.554-.364.626-.583a6.4 6.4 0 00.65 1.191c.459.706 1.037 1.678 1.808 2.019.217-.098.434-.438.193-.535zm-17.905-6.785l-.506.073c0-.17.024-.34.048-.487.024-.121.024-.267.048-.389.024.024.072.049.12.024.025-.024.049-.024.049-.048.096.048.193.097.313.146-.024.243-.048.462-.072.68zm.77-.025c-.168 0-.36 0-.578.025 0-.22.025-.414.049-.633.192.049.41.049.578.049 0 .17-.024.365-.048.56zm9.014 6.712c-.073-.145-.12-.267-.217-.413.072.049.169.073.24.097 0 .098 0 .22-.023.316zm.337.827v.122c-.072-.219-.12-.438-.193-.657.025-.194.049-.413.073-.608.048 0 .096 0 .144-.024h.024c.024.39-.024.803-.048 1.167zm.193.827s0-.024 0 0v-.997c.024-.365.048-.73.024-1.07.072-.024.12-.073.193-.097 0 .875-.048 1.726-.073 2.602l-.144-.438zm4.12-4.159c-.65.317-1.397.463-2.072.706-.506.194-.94.56-1.47.73-.192.072-.385.17-.554.267-.024.024-.048.024-.072.024-.024-.097-.073-.194-.12-.292-.049-.097-.218-.024-.17.098.049.073.073.17.097.243-.362.049-.699-.122-.795-.414.072-.024.12-.121.096-.194-.024-.073-.048-.122-.072-.195v-.024c.289-.024.53-.17.795-.292.53-.267 1.157-.365 1.687-.632a18.32 18.32 0 012-.851c.362-.122.723-.22 1.036-.39 0 .098.024.195.024.292.121.511.049.681-.41.924z" fill="#FFC501"/><path d="M17.808 22.983c-.193-.243-.65-.364-.964-.291-.12.024-.097.219.024.194.145-.024.265.025.386.073.12.049.265.098.361.195.145.121.29-.049.193-.17zm2.072.122l-.722-.219c-.073-.024-.097.073-.049.122.217.146.458.316.748.34.12.025.144-.218.024-.243zm1.59 1.022c-.12-.122-.192-.292-.288-.414-.073-.073-.193.024-.145.122.096.146.145.292.265.438.096.146.29-.025.169-.146zm1.567 1.556c-.241-.243-.386-.56-.578-.827-.073-.097-.217.024-.17.122.194.291.314.632.555.9.12.121.313-.073.193-.195zm.217.948v.17c.024.098.193.098.217 0 0-.048.024-.12 0-.17 0-.146-.217-.146-.217 0zM6.386 17.195c-.362-.389-.555-.972-.603-1.483-.024-.316-.048-.657-.24-.9-.05-.073-.145.024-.097.098.265.34.168.875.289 1.264.12.438.24.827.554 1.167.048.073.169-.073.097-.146zm.722.317a9.656 9.656 0 01-.337-1.192c-.121-.535-.314-1.07-.386-1.63 0-.072-.145-.072-.12 0 .048.438.168.852.289 1.265.144.535.216 1.07.41 1.605.023.122.192.073.144-.048zm.096-2.043c-.024-.414.024-.924-.265-1.265-.048-.073-.168.024-.096.098.313.364.144.997.217 1.434.096.56.361 1.095.458 1.654.024.097.168.073.168-.024-.072-.633-.433-1.216-.482-1.897zm.892.048c-.168-.656-.24-1.313-.434-1.97-.024-.097-.168-.048-.144.05.144.559.265 1.142.361 1.726.12.632.362 1.216.458 1.824.024.121.193.073.193-.049-.072-.56-.29-1.046-.434-1.58zm1.134 1.119c-.41-.973-.603-1.994-.989-2.967-.024-.073-.169-.049-.145.049.386.973.53 2.043.964 3.015.049.122.217.025.17-.097zm.842-.413c-.313-.73-.457-1.508-.698-2.262-.024-.122-.217-.073-.169.049.217.778.361 1.556.699 2.286.048.121.217.024.168-.073zm.723-.293c-.313-.656-.41-1.385-.554-2.09-.024-.146-.241-.074-.217.048.144.73.265 1.483.578 2.164.048.122.241 0 .193-.121zm9.712-13.618c.12-.146-.073-.34-.217-.219-.193.17-.338.39-.506.584-.024.048-.073.073-.12.121V2.75c-.025-.146-.242-.073-.218.048 0 .05.024.098.024.146-.24.17-.554.317-.77.438-.097.049-.17.097-.266.146-.024-.097-.024-.219-.048-.316-.024-.146-.241-.146-.217 0 .024.146 0 .292.024.438-.169.073-.289.146-.53.218v-.072c0-.122-.193-.122-.193 0v.145c-.192.073-.385.122-.602.195-.024 0-.048.024-.072.024-.049-.048-.145-.024-.145.049a6.54 6.54 0 00-.53.17c0-.024-.024-.024-.024-.048-.049-.098-.193 0-.145.097v.024c-.048.024-.096.024-.145.049a.52.52 0 00-.168-.292c-.072-.073-.193.049-.12.122.047.073.096.145.12.218a.85.85 0 01-.241.05v-.05a.085.085 0 00-.169 0v.098c-.144.024-.265.048-.41.048a.45.45 0 00-.168-.219c-.097-.072-.193.122-.097.195a.348.348 0 01.048.097c-.12 0-.24-.048-.385-.073 0-.073.024-.146.024-.219 0-.048-.024-.072-.048-.097l-.12-.048c-.097-.025-.121.121-.049.145.048.025.073.073.048.146-.12-.024-.265-.048-.385-.073v-.267c0-.073-.12-.073-.12 0v.243c-.17-.049-.338-.073-.507-.121-.024-.073-.048-.146-.096-.195-.072-.073-.169.024-.097.097 0 .025.024.025.024.049a3.906 3.906 0 00-.53-.049c-.096 0-.096.146 0 .146.193.024.362.049.555.073 0 .073-.024.17-.024.219-.025.17-.049.316-.049.486 0 .098.145.122.169.025.024-.195.048-.39.072-.608v-.073c.169.024.314.073.482.121 0 .22-.024.462-.024.681 0 .122.193.122.193 0 0-.219-.024-.437-.024-.656l.361.073c-.024.073-.072.17-.072.243-.024.292.12.56.12.875 0 .122.17.146.193.025.024-.22-.048-.414-.096-.633-.048-.17-.024-.34.024-.51.145.024.265.048.41.073h.024c-.024.146-.097.291-.097.389-.048.316-.024.632-.024.948 0 .146.217.146.217 0 0-.438-.024-.851.097-1.289.12 0 .265 0 .385-.024-.048.438-.168.875-.144 1.313.024.122.168.122.192 0 .049-.438.12-.9.145-1.337.096-.025.193-.049.265-.049 0 .194-.048.413-.048.584 0 .413-.024.826-.024 1.24 0 .146.217.146.217 0 0-.535-.024-1.094 0-1.63v-.243c.072-.024.144-.048.193-.048.192.73-.097 1.75.457 2.286.097.097.241-.049.145-.146-.313-.316-.265-.924-.313-1.338a4.943 4.943 0 00-.12-.851c.168-.049.337-.097.481-.146.193.705.241 1.435.337 2.165.025.097.193.073.17-.025a8.484 8.484 0 00-.362-2.189c.024 0 .024 0 .048-.024.193-.048.361-.121.53-.17 0 .389-.024.778 0 1.192 0 .364.048.73.313.997.097.097.265-.049.169-.17-.265-.268-.24-.706-.265-1.07V4.208l.578-.219c.097.754.169 1.484.193 2.237 0 .17.241.17.241 0 .024-.778-.096-1.58-.217-2.359.12-.048.241-.121.338-.194.144.316.048.68.072 1.021.024.414.12.827.144 1.24 0 .098.17.147.193.025.073-.486-.096-.949-.144-1.41-.024-.341.048-.657-.097-.949.169-.097.362-.195.53-.316.073.389.121.778.145 1.167.024.438.048.827.217 1.24.048.122.217.073.193-.048-.193-.803-.241-1.654-.362-2.456.024-.025.072-.05.097-.073.361-.244.53-.56.747-.803zm.53-.9c-.048.049-.072.097-.12.146-.073.073.047.195.12.122l.144-.146c.097-.049-.072-.22-.144-.122z" fill="#FFC501"/><path d="M20.507 3.187c-.024-.145-.217-.145-.217 0 .048.511-.193.973.024 1.484.048.122.241.024.193-.073-.169-.486.048-.924 0-1.41zm.578-.583c-.048-.146-.265-.073-.217.048.097.365.145.73.145 1.095 0 .146.217.146.217 0 0-.39-.049-.778-.145-1.143zm-8.94 6.42c0-.073-.12-.073-.12 0 .047.9-.531 1.654-.459 2.554 0 .097.169.097.169 0 0-.876.506-1.678.41-2.554zm.915 1.386l-.096-.024c-.072-.024-.12.097-.024.122.12.048-.82 3.818-.916 4.183-.024.121.145.17.169.048.41-1.386.578-2.82.916-4.231 0-.049-.024-.098-.048-.098zm.386 1.678c-.41.487-.458 1.144-.578 1.776-.193.948-.53 1.897-.844 2.82-.048.098.12.171.169.074.313-.706.53-1.435.723-2.189.193-.73.168-1.727.675-2.335.048-.121-.073-.243-.145-.146zm.265 1.338c0-.073-.144-.073-.12 0 .072.851-.386 1.8-.579 2.626-.216.852-.506 1.727-.578 2.627 0 .122.169.122.193 0 .072-1.046.434-2.091.675-3.113.144-.705.482-1.41.41-2.14zm.459 2.067c-.314.365-.362.827-.483 1.265a39.582 39.582 0 01-.82 2.894c-.023.097.121.146.17.049.265-.681.433-1.387.626-2.092.145-.608.217-1.508.627-1.994.024-.073-.073-.195-.12-.122zm.24.632c0-.073-.145-.073-.12 0 .072 1.095-.434 2.286-.723 3.332-.314 1.07-.627 2.092-.7 3.21 0 .122.17.122.193 0 .121-1.264.506-2.432.82-3.648.24-.924.626-1.92.53-2.894zm7.374 13.765c0-.146-.217-.146-.217 0 0 .681.024 1.338.145 2.019.024.146.217.073.217-.049-.12-.656-.145-1.313-.145-1.97zm4.362.438c-.024-.122-.217-.122-.193 0 .12 1.24.048 2.456.145 3.697 0 .121.169.121.169 0 .096-1.216 0-2.481-.121-3.697zm.554.535c-.023-.122-.192-.073-.192.049.169 1.143.048 2.286.265 3.404.024.122.217.073.193-.048-.169-1.119-.097-2.262-.265-3.405zm.988 3.405c-.289-.924-.289-1.873-.289-2.821 0-.122-.193-.122-.193 0-.024.972 0 1.92.29 2.87.024.145.216.097.192-.05zm.675-.56c-.168-.656-.12-1.313-.144-1.97a.085.085 0 00-.169 0c0 .681-.072 1.362.145 2.019.048.097.217.073.168-.049zm.892-.899c-.097.024-.073.17.024.17.24-.024.289.486.337.657.024.121.193.072.169-.05-.048-.291-.145-.85-.53-.777zm2.025-12.744c-.025-.048-.121 0-.073.049.12.17-.145.632-.193.778-.144.39-.265.778-.361 1.167-.169.657-.41 1.314-.458 2.019 0 .097.144.097.144.024.145-.827.362-1.654.579-2.48.096-.39.24-.779.385-1.143.097-.292.12-.195-.024-.414zM27.905 8.416c-.168-.584-.433-1.216-.41-1.824 0-.073-.12-.073-.12 0-.024.487.145.924.29 1.386.168.633.337 1.24.433 1.897 0 .073.12.049.12-.024-.047-.486-.192-.948-.313-1.435zm.795.244c-.337-.633-.482-1.363-.482-2.068 0-.097-.144-.097-.144 0-.024.632.096 1.192.313 1.775.193.511.554.973.65 1.508.025.122.17.073.17-.048-.049-.414-.29-.779-.507-1.168zm1.326 1.288c-.7-.802-.868-2.189-.988-3.21 0-.073-.12-.073-.097 0 .048.657.193 1.289.338 1.946.12.51.265 1.021.65 1.386.073.073.169-.049.097-.122zm.747-.388c-.313-.828-.626-1.654-.988-2.433-.048-.121-.24-.024-.168.098.361.802.626 1.629.988 2.407.048.097.217.025.168-.073zm.314-1.241c-.145-.34-.241-.73-.458-1.046-.073-.097-.241 0-.169.097.169.244.241.56.361.827a4.4 4.4 0 01.338.997c.024.098.169.073.169-.024a2.48 2.48 0 00-.241-.851zm.77-.487c-.048-.072-.168 0-.12.073.072.122.12.268.144.414 0 .073.12.048.12-.024a.865.865 0 00-.144-.463zm.916.608a.57.57 0 01-.217.195c0-.024 0-.024-.024-.049 0-.024-.048-.024-.048.025 0 .024.024.073.024.097 0 .024.024.024.048.024a.862.862 0 00.265-.243c.024-.049-.024-.097-.048-.049zm.337-.17c-.048-.024-.12.024-.072.073.072.073.12.146.12.243 0 .073.12.073.12 0a.583.583 0 00-.168-.316zM11.325 7.103c-.216.243-.265.56-.337.875a4.98 4.98 0 00-.24 1.192c0 .097.168.122.192.024a11.2 11.2 0 01.169-.875c.072-.34.12-.803.361-1.094.048-.073-.048-.195-.145-.122zm12.58 13.084c-1.205.365-2.965.875-4.025-.097-.048-.049-.096.024-.048.048 1.084 1.022 2.892.535 4.12.17.073-.024.025-.145-.047-.121zm1.831-3.259c-.674.486-1.445 1.313-2.361 1.143-.072-.024-.096.097-.024.097.94.195 1.735-.632 2.434-1.143.048-.048 0-.146-.049-.097z" fill="#FFC501"/></svg>