<svg width="1000" height="92" fill="none" xmlns="http://www.w3.org/2000/svg"><path d="M11.637 15.199h1.502v61.814h-1.502V24.114l-10.123 52.9H0V15.198h1.514v52.856L11.637 15.2zm6.809 0l6.557 54.555 6.582-54.555h2.002v61.814h-1.502V50.097l.123-27.596-6.619 54.512h-1.16l-6.594-54.3.122 27.214v27.086h-1.502V15.2h1.99zM46.66 47.38h-8.315v25.218h9.56v4.415H36.844V15.2h11.002v4.458h-9.5v23.308h8.315v4.415zm22.11 2.08c0 5.69-.285 10.685-.855 14.987-.562 4.302-1.368 7.613-2.418 9.934-1.05 2.321-2.263 3.481-3.639 3.481-2.076 0-3.753-2.575-5.03-7.726-1.279-5.18-1.918-12.157-1.918-20.93v-1.317h-3.272v29.124h-1.502V15.2h1.502v28.4h3.272c0-6.17.285-11.42.855-15.75.578-4.33 1.392-7.657 2.442-9.977 1.05-2.35 2.259-3.524 3.627-3.524 1.367 0 2.572 1.146 3.614 3.439 1.05 2.292 1.86 5.533 2.43 9.722.57 4.189.867 9.043.891 14.562v7.387zm-1.503-6.708c0-7.444-.484-13.274-1.453-17.491-.968-4.217-2.295-6.326-3.98-6.326-1.653 0-2.972 2.123-3.957 6.368-.977 4.217-1.465 10.119-1.465 17.704v6.453c0 7.33.488 13.147 1.465 17.45.977 4.273 2.304 6.41 3.981 6.41 1.701 0 3.028-2.109 3.98-6.326.953-4.245 1.43-10.147 1.43-17.704v-6.538zm15.772-23.095h-6.093v57.356h-1.502V19.657h-6.081v-4.458h13.676v4.458zm13.879 38.082c-.204 6.51-.875 11.491-2.015 14.944-1.131 3.453-2.642 5.18-4.53 5.18-1.319 0-2.487-1.147-3.505-3.44-1.01-2.292-1.79-5.533-2.344-9.722-.554-4.217-.835-9.028-.843-14.434v-8.024c0-5.491.277-10.36.83-14.605.554-4.245 1.348-7.514 2.382-9.807 1.042-2.32 2.239-3.481 3.59-3.481 1.905 0 3.407 1.797 4.506 5.392 1.107 3.566 1.75 8.505 1.929 14.816h-1.514c-.375-10.5-2.015-15.75-4.921-15.75-1.612 0-2.898 2.094-3.859 6.283-.952 4.189-1.428 9.977-1.428 17.364v7.557c0 7.132.463 12.821 1.392 17.067.936 4.245 2.198 6.368 3.785 6.368 1.571 0 2.755-1.302 3.553-3.906.798-2.632 1.29-6.566 1.478-11.802h1.514zm11.901 19.274V51.838h-5.117l-3.883 25.175h-1.624l4.189-26.619c-1.148-1.387-2.023-3.481-2.626-6.283-.602-2.802-.903-6.227-.903-10.274 0-5.83.529-10.388 1.587-13.67 1.066-3.312 2.564-4.968 4.494-4.968h5.397v61.814h-1.514zm-8.462-43.219c0 4.076.366 7.36 1.099 9.85.74 2.49 1.758 3.736 3.052 3.736h4.311V19.657h-3.932c-1.449 0-2.569 1.23-3.358 3.693-.782 2.434-1.172 5.916-1.172 10.444zm30.957 43.219h-1.502V19.657H119.75v57.356h-1.502V15.2h13.066v61.814zm4.83-25.175v25.175h-1.502V15.2h6.057c1.848 0 3.305 1.641 4.371 4.925 1.075 3.283 1.612 7.797 1.612 13.543 0 5.802-.517 10.288-1.55 13.458-1.026 3.142-2.516 4.713-4.47 4.713h-4.518zm0-4.416h4.555c1.457 0 2.568-1.203 3.334-3.608.765-2.406 1.147-5.76 1.147-10.062 0-4.274-.382-7.67-1.147-10.19-.758-2.547-1.836-3.849-3.236-3.905h-4.653v27.765zm25.797 2.038c0 5.69-.285 10.685-.855 14.987-.561 4.302-1.367 7.613-2.417 9.934-1.051 2.321-2.264 3.481-3.639 3.481-2.076 0-3.753-2.575-5.031-7.726-1.278-5.18-1.917-12.157-1.917-20.93v-6.369c0-5.632.285-10.614.854-14.944.578-4.359 1.392-7.699 2.443-10.02 1.05-2.349 2.259-3.523 3.626-3.523 1.368 0 2.573 1.146 3.615 3.439 1.05 2.292 1.86 5.533 2.43 9.722.569 4.189.867 9.043.891 14.562v7.387zm-1.502-6.708c0-7.444-.484-13.274-1.453-17.491-.969-4.217-2.296-6.326-3.981-6.326-1.652 0-2.971 2.123-3.956 6.368-.977 4.217-1.465 10.119-1.465 17.704v6.453c0 7.33.488 13.147 1.465 17.45.977 4.273 2.304 6.41 3.981 6.41 1.701 0 3.028-2.109 3.98-6.326.953-4.245 1.429-10.147 1.429-17.704v-6.538zm15.76-23.095h-6.094v57.356h-1.502V19.657h-6.081v-4.458h13.677v4.458zm13.317-4.458h1.502v61.814h-1.502V24.114l-10.123 52.9h-1.514V15.198h1.514v52.856L189.516 15.2zm4.818 61.814V15.2h5.251c1.905 0 3.35 1.373 4.335 4.118.985 2.717 1.477 6.736 1.477 12.057 0 3.198-.252 5.986-.757 8.364-.496 2.35-1.18 4.033-2.051 5.052 1.034.793 1.864 2.562 2.491 5.307.635 2.745.952 5.915.952 9.51 0 5.462-.509 9.736-1.526 12.821-1.01 3.057-2.418 4.585-4.225 4.585h-5.947zm1.502-29.718v25.303h4.506c1.286 0 2.304-1.132 3.053-3.396.757-2.293 1.135-5.463 1.135-9.51 0-3.821-.362-6.836-1.087-9.043-.716-2.236-1.709-3.354-2.979-3.354h-4.628zm0-4.373h4.103c1.254-.085 2.222-1.104 2.906-3.057.692-1.981 1.038-4.854 1.038-8.618 0-3.963-.358-6.878-1.074-8.746-.709-1.896-1.783-2.844-3.224-2.844h-3.749v23.265zm25.724 6.538c0 5.69-.285 10.685-.855 14.987-.562 4.302-1.368 7.613-2.418 9.934-1.05 2.321-2.263 3.481-3.639 3.481-2.076 0-3.753-2.575-5.031-7.726-1.278-5.18-1.917-12.157-1.917-20.93v-6.369c0-5.632.285-10.614.855-14.944.578-4.359 1.392-7.699 2.442-10.02 1.05-2.349 2.259-3.523 3.627-3.523 1.367 0 2.572 1.146 3.614 3.439 1.05 2.292 1.86 5.533 2.43 9.722.57 4.189.867 9.043.892 14.562v7.387zm-1.502-6.708c0-7.444-.485-13.274-1.453-17.491-.969-4.217-2.296-6.326-3.981-6.326-1.653 0-2.972 2.123-3.957 6.368-.976 4.217-1.465 10.119-1.465 17.704v6.453c0 7.33.489 13.147 1.465 17.45.977 4.273 2.304 6.41 3.981 6.41 1.702 0 3.028-2.109 3.981-6.326.952-4.245 1.429-10.147 1.429-17.704v-6.538zm17.163 34.261h-1.502V19.657h-10.061v57.356h-1.502V15.2h13.065v61.814zm16.468-27.553c0 5.69-.285 10.685-.855 14.987-.562 4.302-1.367 7.613-2.418 9.934-1.05 2.321-2.263 3.481-3.638 3.481-2.076 0-3.753-2.575-5.031-7.726-1.278-5.18-1.917-12.157-1.917-20.93v-6.369c0-5.632.284-10.614.854-14.944.578-4.359 1.392-7.699 2.442-10.02 1.051-2.349 2.259-3.523 3.627-3.523 1.368 0 2.573 1.146 3.615 3.439 1.05 2.292 1.86 5.533 2.43 9.722.569 4.189.866 9.043.891 14.562v7.387zm-1.502-6.708c0-7.444-.484-13.274-1.453-17.491-.969-4.217-2.296-6.326-3.981-6.326-1.652 0-2.971 2.123-3.956 6.368-.977 4.217-1.466 10.119-1.466 17.704v6.453c0 7.33.489 13.147 1.466 17.45.977 4.273 2.304 6.41 3.981 6.41 1.701 0 3.028-2.109 3.98-6.326.953-4.245 1.429-10.147 1.429-17.704v-6.538zm8.042 5.265h-2.442v28.996h-1.502V15.2h1.502v28.36h2.369l6.875-28.36h1.892l-7.302 30.398 7.84 31.416h-1.869l-7.363-28.996z" fill="#204686" fill-opacity=".3"/><path d="M280.543 59.692h-8.071l-1.832 17.321h-1.575l6.728-61.814h1.429l6.728 61.814h-1.563l-1.844-17.321zm-7.607-4.458h7.131l-3.566-33.667-3.565 33.667zm22.097-23.902c0-3.878-.403-6.934-1.209-9.17-.806-2.236-1.954-3.354-3.444-3.354-1.286 0-2.348 1.188-3.187 3.566-.838 2.377-1.258 5.392-1.258 9.043h-1.501c0-3.284.256-6.213.769-8.789.513-2.603 1.229-4.627 2.149-6.07.928-1.472 1.937-2.208 3.028-2.208 1.921 0 3.427 1.486 4.518 4.458 1.091 2.971 1.637 7.189 1.637 12.651 0 3.142-.289 5.944-.867 8.406-.578 2.463-1.356 4.288-2.333 5.477 2.312 2.151 3.468 7.118 3.468 14.902 0 5.349-.582 9.623-1.746 12.821-1.156 3.198-2.715 4.797-4.677 4.797-1.188 0-2.271-.778-3.248-2.334-.977-1.586-1.713-3.708-2.21-6.369-.497-2.689-.745-5.788-.745-9.297h1.502c0 3.962.444 7.231 1.331 9.807.887 2.547 2.011 3.82 3.37 3.82 1.539 0 2.744-1.174 3.615-3.523.871-2.378 1.306-5.562 1.306-9.552 0-4.218-.386-7.36-1.16-9.425-.773-2.095-1.966-3.17-3.578-3.227h-2.271v-4.5h2.198c1.482-.029 2.609-1.033 3.383-3.015.773-2.01 1.16-4.981 1.16-8.915zm13.512 28.36h-8.071l-1.832 17.321h-1.575l6.728-61.814h1.429l6.728 61.814h-1.563l-1.844-17.321zm-7.607-4.458h7.131l-3.566-33.667-3.565 33.667zm25.565 21.779h-1.515V47.38h-10.159v29.633h-1.502V15.2h1.502v27.766h10.159V15.199h1.515v61.814zm14.965-61.814h1.502v61.814h-1.502V24.114l-10.123 52.9h-1.514V15.198h1.514v52.856L341.468 15.2zm14.319 61.814V51.838h-5.117l-3.883 25.175h-1.624l4.189-26.619c-1.148-1.387-2.023-3.481-2.626-6.283-.602-2.802-.903-6.227-.903-10.274 0-5.83.529-10.388 1.587-13.67 1.066-3.312 2.564-4.968 4.494-4.968h5.397v61.814h-1.514zm-8.462-43.219c0 4.076.366 7.36 1.099 9.85.74 2.49 1.758 3.736 3.052 3.736h4.311V19.657h-3.932c-1.449 0-2.569 1.23-3.358 3.693-.782 2.434-1.172 5.916-1.172 10.444zm12.523 40.163c0-.991.09-1.826.269-2.505.187-.708.443-1.062.769-1.062s.582.354.769 1.062c.188.68.281 1.514.281 2.505 0 .99-.093 1.811-.281 2.462-.187.623-.443.934-.769.934s-.582-.311-.769-.934c-.179-.651-.269-1.472-.269-2.462zm23.167 3.056h-1.502V19.657h-10.062v57.356h-1.502V15.2h13.066v61.814zm13.146-29.633h-8.316v25.218h9.561v4.415h-11.063V15.2h11.002v4.458h-9.5v23.308h8.316v4.415zm4.672 4.458v25.175h-1.502V15.2h6.056c1.848 0 3.306 1.641 4.372 4.925 1.074 3.283 1.612 7.797 1.612 13.543 0 5.802-.517 10.288-1.551 13.458-1.026 3.142-2.515 4.713-4.469 4.713h-4.518zm0-4.416h4.554c1.458 0 2.569-1.203 3.334-3.608.765-2.406 1.148-5.76 1.148-10.062 0-4.274-.383-7.67-1.148-10.19-.757-2.547-1.836-3.849-3.236-3.905h-4.652v27.765zm22.475-.042h-8.315v25.218h9.561v4.415h-11.063V15.2h11.002v4.458h-9.5v23.308h8.315v4.415zm16.321 25.218h1.893L441.51 92h-1.502V77.013H426.6V92h-1.502V72.598h1.185c.903-3.283 1.632-8.066 2.186-14.35.561-6.311.899-13.217 1.013-20.718l.317-22.331h9.83v57.4zm-11.6 0h10.098V19.657h-6.887l-.244 17.703c-.106 7.36-.419 14.138-.94 20.336-.513 6.199-1.189 11.166-2.027 14.902zm33.253 4.415h-1.502V19.657h-10.062v57.356h-1.502V15.2h13.066v61.814zm4.83-25.175v25.175h-1.502V15.2h6.057c1.848 0 3.305 1.641 4.371 4.925 1.075 3.283 1.612 7.797 1.612 13.543 0 5.802-.517 10.288-1.55 13.458-1.026 3.142-2.516 4.713-4.47 4.713h-4.518zm0-4.416h4.555c1.457 0 2.568-1.203 3.334-3.608.765-2.406 1.147-5.76 1.147-10.062 0-4.274-.382-7.67-1.147-10.19-.758-2.547-1.836-3.849-3.236-3.905h-4.653v27.765zm24.344-32.223h1.502v61.814h-1.502V24.114l-10.123 52.9h-1.514V15.198h1.514v52.856L490.456 15.2zm6.809 0l6.557 54.555 6.582-54.555h2.002v61.814h-1.502V50.097l.122-27.596-6.618 54.512h-1.16l-6.594-54.3.122 27.214v27.086h-1.502V15.2h1.991zm28.214 32.181h-8.315v25.218h9.561v4.415h-11.063V15.2h11.002v4.458h-9.5v23.308h8.315v4.415zm16.346 29.633h-1.514V47.38h-10.16v29.633h-1.502V15.2h1.502v27.766h10.16V15.199h1.514v61.814zm13.097-29.633h-8.315v25.218h9.561v4.415h-11.063V15.2h11.002v4.458h-9.5v23.308h8.315v4.415zm16.346 29.633h-1.514V47.38h-10.16v29.633h-1.502V15.2h1.502v27.766h10.16V15.199h1.514v61.814zm14.965-61.814h1.502v61.814h-1.502V24.114l-10.122 52.9h-1.515V15.198h1.515v52.856L586.233 15.2zm14.636 32.181h-8.315v25.218h9.561v4.415h-11.063V15.2h11.002v4.458h-9.5v23.308h8.315v4.415zm5.161-32.181l6.557 54.555 6.582-54.555h2.002v61.814h-1.502V50.097l.122-27.596-6.618 54.512h-1.16l-6.594-54.3.122 27.214v27.086h-1.502V15.2h1.991zm36.366 34.261c0 5.69-.285 10.685-.854 14.987-.562 4.302-1.368 7.613-2.418 9.934-1.05 2.321-2.263 3.481-3.639 3.481-2.076 0-3.753-2.575-5.031-7.726-1.278-5.18-1.917-12.157-1.917-20.93v-6.369c0-5.632.285-10.614.855-14.944.578-4.359 1.392-7.699 2.442-10.02 1.05-2.349 2.259-3.523 3.626-3.523 1.368 0 2.573 1.146 3.615 3.439 1.05 2.292 1.86 5.533 2.43 9.722.57 4.189.867 9.043.891 14.562v7.387zm-1.502-6.708c0-7.444-.484-13.274-1.453-17.491-.969-4.217-2.295-6.326-3.981-6.326-1.652 0-2.971 2.123-3.956 6.368-.977 4.217-1.465 10.119-1.465 17.704v6.453c0 7.33.488 13.147 1.465 17.45.977 4.273 2.304 6.41 3.981 6.41 1.701 0 3.028-2.109 3.981-6.326.952-4.245 1.428-10.147 1.428-17.704v-6.538zm13.745-11.42c0-3.878-.403-6.934-1.209-9.17-.806-2.236-1.954-3.354-3.443-3.354-1.287 0-2.349 1.188-3.188 3.566-.838 2.377-1.257 5.392-1.257 9.043h-1.502c0-3.284.256-6.213.769-8.789.513-2.603 1.229-4.627 2.149-6.07.928-1.472 1.938-2.208 3.029-2.208 1.921 0 3.427 1.486 4.518 4.458 1.09 2.971 1.636 7.189 1.636 12.651 0 3.142-.289 5.944-.867 8.406-.578 2.463-1.356 4.288-2.332 5.477 2.312 2.151 3.467 7.118 3.467 14.902 0 5.349-.582 9.623-1.746 12.821-1.156 3.198-2.715 4.797-4.676 4.797-1.189 0-2.272-.778-3.249-2.334-.976-1.586-1.713-3.708-2.21-6.369-.496-2.689-.745-5.788-.745-9.297h1.502c0 3.962.444 7.231 1.331 9.807.888 2.547 2.011 3.82 3.371 3.82 1.538 0 2.743-1.174 3.614-3.523.871-2.378 1.307-5.562 1.307-9.552 0-4.218-.387-7.36-1.161-9.425-.773-2.095-1.965-3.17-3.577-3.227h-2.272v-4.5h2.198c1.482-.029 2.61-1.033 3.383-3.015.773-2.01 1.16-4.981 1.16-8.915zm17.09 45.681h-1.514V47.38h-10.159v29.633h-1.502V15.2h1.502v27.766h10.159V15.199h1.514v61.814zm13.098-17.321h-8.072l-1.831 17.321h-1.576l6.729-61.814h1.428l6.729 61.814h-1.563l-1.844-17.321zm-7.608-4.458h7.131l-3.565-33.667-3.566 33.667zm16.395-7.217h-2.442v28.996h-1.502V15.2h1.502v28.36h2.368l6.875-28.36h1.893l-7.302 30.398 7.839 31.416h-1.868l-7.363-28.996zm23.464 1.443c0 5.69-.285 10.685-.855 14.987-.561 4.302-1.367 7.613-2.417 9.934-1.051 2.321-2.263 3.481-3.639 3.481-2.076 0-3.753-2.575-5.031-7.726-1.278-5.18-1.917-12.157-1.917-20.93v-6.369c0-5.632.285-10.614.855-14.944.578-4.359 1.392-7.699 2.442-10.02 1.05-2.349 2.259-3.523 3.626-3.523 1.368 0 2.573 1.146 3.615 3.439 1.05 2.292 1.86 5.533 2.43 9.722.57 4.189.867 9.043.891 14.562v7.387zm-1.502-6.708c0-7.444-.484-13.274-1.453-17.491-.969-4.217-2.296-6.326-3.981-6.326-1.652 0-2.971 2.123-3.956 6.368-.977 4.217-1.465 10.119-1.465 17.704v6.453c0 7.33.488 13.147 1.465 17.45.977 4.273 2.304 6.41 3.981 6.41 1.701 0 3.028-2.109 3.981-6.326.952-4.245 1.428-10.147 1.428-17.704v-6.538zm6.028-27.553l6.557 54.555 6.581-54.555h2.003v61.814h-1.502V50.097l.122-27.596-6.618 54.512h-1.16l-6.594-54.3.122 27.214v27.086h-1.502V15.2h1.991zm19.825 26.831h4.408c1.213 0 2.263.708 3.151 2.123.887 1.387 1.563 3.397 2.027 6.029.472 2.604.708 5.689.708 9.255 0 5.463-.525 9.765-1.575 12.906-1.05 3.114-2.503 4.67-4.36 4.67h-5.861V15.2h1.502v26.83zm0 4.458v26.11h4.396c1.376 0 2.45-1.174 3.224-3.524.773-2.377 1.16-5.618 1.16-9.722 0-3.906-.375-7.005-1.124-9.297-.749-2.321-1.799-3.51-3.15-3.567h-4.506zm21.425-26.831h-6.093v57.356h-1.502V19.657h-6.081v-4.458h13.676v4.458zm11.449 27.723h-8.315v25.218h9.561v4.415h-11.063V15.2h11.002v4.458h-9.5v23.308h8.315v4.415zm15.76 10.359c-.204 6.51-.875 11.491-2.015 14.944-1.132 3.453-2.642 5.18-4.53 5.18-1.319 0-2.487-1.147-3.505-3.44-1.009-2.292-1.791-5.533-2.344-9.722-.554-4.217-.835-9.028-.843-14.434v-8.024c0-5.491.277-10.36.83-14.605.554-4.245 1.348-7.514 2.382-9.807 1.042-2.32 2.238-3.481 3.59-3.481 1.904 0 3.406 1.797 4.505 5.392 1.108 3.566 1.751 8.505 1.93 14.816h-1.514c-.375-10.5-2.015-15.75-4.921-15.75-1.612 0-2.899 2.094-3.859 6.283-.953 4.189-1.429 9.977-1.429 17.364v7.557c0 7.132.464 12.821 1.392 17.067.936 4.245 2.198 6.368 3.786 6.368 1.571 0 2.755-1.302 3.553-3.906.798-2.632 1.29-6.566 1.478-11.802h1.514zm3.829-15.709h4.408c1.213 0 2.263.708 3.151 2.123.887 1.387 1.563 3.397 2.027 6.029.472 2.604.708 5.689.708 9.255 0 5.463-.525 9.765-1.575 12.906-1.05 3.114-2.504 4.67-4.36 4.67h-5.861V15.2h1.502v26.83zm0 4.458v26.11h4.396c1.376 0 2.45-1.174 3.224-3.524.773-2.377 1.16-5.618 1.16-9.722 0-3.906-.375-7.005-1.124-9.297-.749-2.321-1.799-3.51-3.15-3.567h-4.506zm30.054 11.251c-.204 6.51-.876 11.491-2.015 14.944-1.132 3.453-2.642 5.18-4.53 5.18-1.319 0-2.487-1.147-3.505-3.44-1.009-2.292-1.791-5.533-2.344-9.722-.554-4.217-.835-9.028-.843-14.434v-8.024c0-5.491.277-10.36.83-14.605.554-4.245 1.348-7.514 2.381-9.807 1.042-2.32 2.239-3.481 3.59-3.481 1.905 0 3.407 1.797 4.506 5.392 1.107 3.566 1.75 8.505 1.93 14.816h-1.515c-.374-10.5-2.014-15.75-4.921-15.75-1.611 0-2.898 2.094-3.858 6.283-.953 4.189-1.429 9.977-1.429 17.364v7.557c0 7.132.464 12.821 1.392 17.067.936 4.245 2.198 6.368 3.786 6.368 1.571 0 2.755-1.302 3.553-3.906.798-2.632 1.29-6.566 1.477-11.802h1.515zm18.917-42.54h1.502v61.814h-1.502V24.114l-10.123 52.9h-1.514V15.198h1.514v52.856L842.863 15.2zm17.994 61.814h-1.514V47.38h-10.16v29.633h-1.502V15.2h1.502v27.766h10.16V15.199h1.514v61.814zm15.869-19.274c-.203 6.51-.875 11.491-2.015 14.944-1.131 3.453-2.641 5.18-4.53 5.18-1.319 0-2.487-1.147-3.505-3.44-1.009-2.292-1.791-5.533-2.344-9.722-.554-4.217-.835-9.028-.843-14.434v-8.024c0-5.491.277-10.36.831-14.605.553-4.245 1.347-7.514 2.381-9.807 1.042-2.32 2.239-3.481 3.59-3.481 1.905 0 3.407 1.797 4.506 5.392 1.107 3.566 1.75 8.505 1.929 14.816h-1.514c-.375-10.5-2.015-15.75-4.921-15.75-1.612 0-2.898 2.094-3.859 6.283-.952 4.189-1.428 9.977-1.428 17.364v7.557c0 7.132.464 12.821 1.392 17.067.936 4.245 2.198 6.368 3.785 6.368 1.571 0 2.756-1.302 3.553-3.906.798-2.632 1.291-6.566 1.478-11.802h1.514zm14.099-38.082h-6.094v57.356h-1.502V19.657h-6.081v-4.458h13.677v4.458zm3.133 32.181v25.175h-1.502V15.2h6.057c1.848 0 3.305 1.641 4.371 4.925 1.075 3.283 1.612 7.797 1.612 13.543 0 5.802-.517 10.288-1.551 13.458-1.025 3.142-2.515 4.713-4.469 4.713h-4.518zm0-4.416h4.555c1.457 0 2.568-1.203 3.333-3.608.765-2.406 1.148-5.76 1.148-10.062 0-4.274-.383-7.67-1.148-10.19-.757-2.547-1.835-3.849-3.236-3.905h-4.652v27.765zm18.592 7.388l5.056-39.611h1.77l-6.874 51.752-.44 2.93c-.863 5.35-2.133 8.024-3.81 8.024-.497 0-.879-.156-1.148-.467l.135-4.246c.171.199.512.298 1.025.298 1.01 0 1.82-1.798 2.43-5.392l.306-1.91.769-5.52-6.728-45.47h1.721l5.788 39.611zm12.524-6.793h-2.442v28.996h-1.502V15.2h1.502v28.36h2.369l6.874-28.36h1.893l-7.302 30.398 7.839 31.416h-1.868l-7.363-28.996zm10.655-32.818h1.514v57.4h10.062v-57.4h1.502v57.314h1.746l-.11 19.402h-1.392V77.013h-13.322V15.2zm28.349 0h1.502v61.814h-1.502V24.114l-10.123 52.9h-1.514V15.198h1.514v52.856L964.078 15.2zm14.636 32.181h-8.316v25.218h9.561v4.415h-11.063V15.2h11.002v4.458h-9.5v23.308h8.316v4.415zm14.856-32.181h1.502v61.814h-1.502V24.114l-10.123 52.9h-1.514V15.198h1.514v52.856L993.57 15.2zM992.129 0c0 3.255-.322 5.887-.965 7.897-.635 2.01-1.49 3.014-2.564 3.014-1.058 0-1.913-.99-2.564-2.972-.644-2.01-.965-4.656-.965-7.939h1.245c0 2.35.2 4.146.599 5.392.407 1.245.968 1.868 1.685 1.868.716 0 1.274-.651 1.673-1.953.407-1.302.61-3.071.61-5.307h1.246zm5.783 73.957c0-.991.089-1.826.269-2.505.187-.708.443-1.062.769-1.062.325 0 .582.354.769 1.062.187.68.281 1.514.281 2.505 0 .99-.094 1.811-.281 2.462-.187.623-.444.934-.769.934-.326 0-.582-.311-.769-.934-.18-.651-.269-1.472-.269-2.462z" fill="#204686" fill-opacity=".3"/></svg>