<svg width="32" height="34" fill="none" xmlns="http://www.w3.org/2000/svg"><g clip-path="url(#clip0)" fill="#FFC501"><path d="M30.17 23.124c-.355-.715.944-1.74 1.298-2.269.532-.777.709-2.144.266-3.014-.62-1.181-1.505-1.43-2.716-1.337-1.535.125-2.922.995-4.34 1.492-1.12.373-2.154.56-3.305.249-.768-.187-1.565-1.244-1.654-2.176.355-.342.68-.715.975-1.119.826-1.243 1.358-2.859 1.446-4.35.148-3.233-.915-6.652-3.188-8.92C17.004-.278 13.372-.34 11.04.592c-.974.404-3.63 2.144-3.63 3.636-.03-.03-.09 0-.09.062v.031c-.235.218-.53.436-.855.56-1.122.497-2.864.59-4.074.217C1.299 4.788-.236 4.632.029 6.28c.384 2.393 2.362 5.066 4.31 6.247 1.21.715 2.48.684 2.746 2.3.147.87.767 1.243 1.505 1.336-.856.715-2.214 1.896-2.509 2.145-.945.901-1.594 2.113-2.007 3.356-.974 2.984.295 5.439 2.155 7.584 1.889 2.175 4.487 3.636 7.232 4.257 1.506.342 3.13.342 4.664.249l1.86-.093c.089.186.295.31.532.248 2.981-.715 6.11-1.336 7.734-4.382.767-1.43 1.86-2.673 2.096-4.382.118-.653.147-1.367-.177-2.02zm-22.406-9.79c-.443-.59-1.093-.901-1.742-1.18-1.24-.56-2.214-1.088-3.13-2.145-.088-.093-.826-1.274-1.357-2.331.708 1.15 1.89 2.082 2.863 2.735 1.978 1.336 5.314 2.237 7.469.932.06.311.148.59.354.901.236.373.709-.03.443-.341-.443-.56-.59-1.088-.502-1.834 0-.093-.088-.124-.147-.031a2.13 2.13 0 00-.178.839c-.029 0-.088 0-.147.031-2.126 1.181-5.048 0-6.996-1.026-1.329-.714-3.07-2.361-3.543-3.978.502.032 1.033.28 1.535.373.974.156 1.978-.03 2.952-.155.65-.093 1.122-.342 1.476-.684-.059.187-.088.373-.059.56.03.497.414.963.65 1.336.708 1.057 1.83 1.585 3.01 1.647 1.181.062 2.097.653 2.923 1.46.03.032 1.152 1.462.68 1.586-.385.124-.473.186-.827.373-.68.373-1.181 1.119-1.772 1.585-.944.715-1.8 1.15-2.981.932-.177-.03-.325.124-.325.28-.443-.56-.206-1.243-.65-1.865zm1.564 2.3s-.118.093-.295.249a.319.319 0 00-.148-.342c.148.03.266.062.414.062l.03.031zm16 15.57c-1.299.933-2.893 1.212-4.428 1.585-1.919.094-3.896-.062-5.756-.217-2.569-.249-5.55-1.368-7.41-3.263-2.155-2.207-3.572-4.476-2.627-7.739.384-1.305 1.18-2.393 2.096-3.325.826-.84 1.771-1.43 2.302-2.58v-.062c2.067-.062 3.366-2.548 5.344-3.108a.296.296 0 00.206-.28c-.059-1.616-1.564-2.766-2.804-3.45-.974-.559-2.155-.248-3.159-.776-.945-.498-1.8-1.71-1.653-2.86.502-.621.827-1.46 1.328-2.175.355-.342.68-.59.886-.777.856-.808 2.332-1.243 3.454-1.399 1.18-.155 2.568.28 3.69.653 1.564.528 2.273 1.896 3.1 3.263 1.446 2.393 1.623 5.936.442 8.454-.767 1.647-2.45 2.921-2.981 4.662-.118.341.325.497.531.248.384-.56.856-.994 1.329-1.46.147 1.056 1.003 2.144 1.8 2.61 2.864 1.616 5.904-1.43 8.561-2.02 2.244-.497 1.86 2.58 1.033 3.512-.383.435-.974.777-1.298 1.274-.178.249-.384.59-.266.963.413 1.12.502 1.927.177 3.14-.62 1.957-2.303 3.977-3.897 5.127z"/><path d="M15.882 8.33c-.177-.902-.265-1.741-1.298-1.835-.355-.186-.65-.124-.945.032a2.091 2.091 0 00-.413.124c-.414.186-.443.435-.443.777-.03.093 0 .186.03.28.117.28.472.466.737.155.207-.249.473-.653.797-.373.325.28.561.653.68 1.088.147.59.973.342.855-.249zm7.616 19.392c-1.15.56-2.184 1.181-3.454 1.492-1.741.435-3.63-.155-5.136-1.057-2.982-1.771-4.428-4.972-3.631-8.453.03-.156-.207-.249-.236-.062-1.092 3.698.177 6.62 3.04 8.95 2.864 2.3 7.056 2.02 9.713-.404.265-.248-.03-.59-.296-.466z"/><path d="M25.978 24.739c-.738.404-1.506.621-2.303.777a5.687 5.687 0 01-1.623.03c-.384-.03-1.181.125-1.476-.248-.089-.093-.266.031-.177.155.472.684 1.682.56 2.42.653.68.093 1.506 0 2.273-.28 0 .063.06.063.06 0v-.062c.354-.155.796-.31 1.092-.528.295-.187.059-.653-.266-.497zm.767-2.642c-.649.373-1.15.839-1.889 1.088-.708.248-1.919.56-2.657.341-.118-.03-.147.125-.059.156.768.28 1.742.031 2.51-.093.915-.156 1.505-.715 2.273-1.12.295-.092.088-.496-.177-.372zM6.849 24.645c.03-.186-.207-.248-.266-.093a7.824 7.824 0 00-.384 1.181c-.059.28.325.404.414.124.088-.373.177-.808.236-1.212zm.679.87c.03-.186-.207-.248-.266-.062-.147.498-.325.995-.472 1.461-.06.249.295.373.384.124.147-.528.236-1.025.354-1.523zm.502 1.617c-.177-.28.118-.684.088-.995 0-.093-.03-.124-.118-.155-.03 0-.088-.031-.118-.031-.148-.063-.266.217-.118.28h.03c-.03.186-.119.341-.178.497-.088.217-.03.435.089.621.148.218.443-.03.325-.217zm.974.838c-.06-.061 0-.155.03-.248.117-.248-.296-.435-.414-.186-.118.248-.148.497 0 .746.177.341.62 0 .384-.311zM5.875 12.027c-.06-.03-.119.063-.06.094.207.124.266.435.237.683 0 .063.118.094.118.031.059-.31-.03-.683-.295-.808zm.708-.093c0-.124-.147-.124-.177 0-.03.342.06.653.03.995 0 .124.177.124.177 0 .059-.342-.03-.653-.03-.995zm1.004 1.896c-.059-.342-.089-.715-.148-1.057-.059-.248-.147-.56-.354-.714-.03-.032-.059.03-.03.062.266.186.266.652.296.963.03.249.03.529.088.777.03.124.178.093.148-.031zm.501 1.088c-.147-.373-.088-.808-.059-1.212.03-.435-.03-.902 0-1.337 0-.093-.147-.093-.147 0-.03.498 0 .995-.03 1.461-.03.373-.088.808.06 1.15.029.186.236.093.176-.062z"/><path d="M8.414 15.384c-.148-.466 0-.932.059-1.399.088-.497.059-1.025.118-1.553.03-.094-.148-.156-.148-.063-.089.622-.059 1.212-.207 1.834-.088.404-.206.87 0 1.243.06.093.207.031.178-.062zm.856-1.958a1.98 1.98 0 00-.148-1.243c-.03-.093-.177 0-.118.062.472.963-.148 2.269-.177 3.325 0 .125.177.125.206 0 .03-.714.118-1.43.236-2.144z"/><path d="M9.476 15.384c-.236-.84.738-1.74.207-2.517-.06-.063-.178 0-.119.062.502.808-.826 1.802-.236 2.548.06.062.177 0 .148-.093zm.797-.466h-.177c.06-.622.531-1.12.472-1.772 0-.124-.206-.155-.206 0 .059.684-.502 1.212-.502 1.927 0 .062.059.124.148.124a.825.825 0 01.265-.062c.118-.03.118-.217 0-.217zm.737-.808c0-.031-.058-.031-.058 0-.03.155.03.341 0 .497 0 .062.088.062.088 0 .03-.186-.03-.342-.03-.497zm1.95 0c-.739 0-1.565.715-2.185 1.056-1.004.56-1.978 1.212-2.834 1.99-.089.093.03.217.118.124.797-.684 1.683-1.274 2.598-1.803l1.151-.652c.384-.218.709-.529 1.152-.56.118.031.118-.155 0-.155zm-.798 1.119c-.826.559-1.683 1.025-2.509 1.553-.945.56-1.83 1.244-2.745 1.865-.089.062 0 .187.059.125.944-.591 1.83-1.244 2.745-1.834.827-.528 1.712-.995 2.48-1.616.088-.031.03-.124-.03-.093zm-1.476 1.367c-.206.746-1.623 1.243-2.214 1.647a37.17 37.17 0 00-3.158 2.642c-.089.093.03.248.147.155 1.181-1.025 2.303-2.144 3.602-3.014.531-.342 1.594-.684 1.741-1.43.03-.031-.088-.093-.118 0zm-.502 1.244c-.383.248-.678.62-1.033.9-.502.436-1.062.84-1.594 1.244-1.033.808-2.037 1.647-2.893 2.672-.088.125.06.311.177.187.797-.933 1.742-1.74 2.687-2.486.472-.373.944-.715 1.387-1.088.472-.373.856-.87 1.358-1.212.118-.125.03-.311-.088-.218zm-.501 1.304c-.886.684-1.653 1.492-2.42 2.3-.65.684-1.447 1.368-1.802 2.3-.03.124.118.186.177.093.502-.932 1.21-1.616 1.89-2.393.708-.777 1.417-1.523 2.243-2.144.118-.093 0-.218-.088-.156zm0 1.15c-.413.311-.709.746-1.033 1.15-.355.404-.738.808-1.093 1.243-.708.902-1.298 1.896-1.948 2.86-.088.124.089.217.177.124.62-.84 1.122-1.772 1.742-2.61.384-.529.826-.995 1.24-1.461.324-.373.65-.84 1.033-1.15.059-.093-.03-.218-.118-.156z"/><path d="M8.915 21.382c-.383.963-.974 1.865-1.417 2.797a19.206 19.206 0 00-.974 2.455c-.03.125.148.187.207.063.325-.995.708-1.99 1.18-2.953.385-.777.857-1.523 1.152-2.33.03-.063-.118-.094-.148-.032zm.473.653c.029-.125-.148-.187-.178-.062-.738 2.082-1.712 4.102-2.066 6.34-.03.155.177.217.207.062.383-2.238 1.299-4.258 2.037-6.34zm-1.24 7.303c-.325-.932.324-2.3.56-3.2.178-.623.296-1.244.502-1.835.118-.373.355-.621.266-1.025-.03-.124-.207-.062-.177.03.118.405-.384 1.275-.502 1.68-.177.62-.325 1.242-.502 1.895-.206.746-.708 1.771-.354 2.517.06.156.236.063.207-.062zm.679 1.523c-.06-1.336.265-2.58.56-3.854.119-.56.207-1.088.325-1.647.089-.373.207-.56.03-.901-.06-.125-.236-.031-.177.093.147.373-.177 1.15-.237 1.523-.118.56-.236 1.119-.354 1.647-.265 1.026-.443 2.02-.384 3.108 0 .186.237.218.237.031zm1.24.529c-.207-1.12-.118-2.207.059-3.326.147-.901.236-1.865.531-2.735.06-.155-.177-.218-.207-.062-.354 1.026-.442 2.175-.62 3.263-.147.964-.177 1.958 0 2.921.03.156.266.094.237-.062zm.855-.405c-.265-1.491-.177-2.952.119-4.413.03-.124-.148-.186-.178-.062-.354 1.492-.472 3.046-.177 4.538.03.186.266.124.236-.063zm1.388 1.057c-.383-.932-.472-1.896-.56-2.921-.06-.777-.266-1.585.029-2.331.059-.124-.148-.187-.207-.062-.324.839-.118 1.771-.03 2.641.09.964.207 1.896.562 2.766.059.156.236.031.206-.093zm1.093.311c-.473-.466-.443-1.337-.502-1.958-.06-.84-.177-1.678-.207-2.549 0-.155-.236-.155-.236 0 .059 1.026.148 2.02.236 3.046.03.56.089 1.274.561 1.647.118.063.236-.093.148-.186zm.915.155c-.709-1.212-.738-2.673-.709-4.04 0-.155-.207-.155-.207 0-.03 1.398-.03 2.953.738 4.165.06.093.266 0 .178-.125zm.915.125c-.148-1.337-.65-2.611-.443-3.979.03-.124-.177-.155-.207-.03-.206 1.398.266 2.703.413 4.07.03.156.266.094.237-.062zm1.269-.125c-.207.031-.531-1.274-.59-1.492-.119-.497-.148-.994-.296-1.491-.03-.125-.236-.093-.206.062.177.56.177 1.119.324 1.678.118.497.325.995.532 1.43.03.03.088.062.118.062.059-.031.088-.031.147-.062.119-.031.089-.218-.03-.187zm.945.311c-.207-.466-.295-.84-.354-1.367-.06-.498-.207-.964-.089-1.461.03-.124-.148-.187-.177-.062-.148.56.03 1.119.088 1.678.03.466.089.932.384 1.305.06.093.207 0 .148-.093zm.973-.218c-.383-.9-.413-1.864-.413-2.828 0-.124-.206-.124-.206 0 .03.933-.06 2.114.443 2.922.088.124.236.03.177-.094zm.68-.093c-.089-.621-.177-1.274-.089-1.896.03-.124-.177-.186-.206-.062-.119.684-.03 1.337.058 2.02.06.156.266.094.237-.062zm1.18-.435c-.058.031-.088.093-.147.124-.177-.217-.088-.652-.088-.9.03-.28.088-.591.088-.871 0-.124-.206-.155-.206 0 0 .528-.443 1.678.147 1.989.03.031.089.031.118 0l.207-.218c.088-.093-.03-.217-.118-.124zm1.653 1.15a2.102 2.102 0 01-.324-.746c-.03-.28-.06-.56-.118-.839 0-.062-.03-.062-.06-.062-.058-.466-.147-.933-.324-1.368-.06-.124-.236-.03-.177.094.265.715.265 1.491.472 2.206 0 .125.03.218.03.342 0 .093.088.124.147.124a2.6 2.6 0 00.236.373c.06.031.178-.062.118-.124zM13.461 17.84c-.443.061-.65.652-.826 1.025-.502 1.025-1.004 1.958-1.3 3.108-.029.124.178.186.207.062a13 13 0 01.975-2.518c.177-.341.56-1.46 1.003-1.491.06-.032.03-.187-.059-.187z"/><path d="M13.137 19.393c-.915 1.181-1.683 2.704-1.653 4.289 0 .155.206.155.206 0 .03-1.554.68-2.952 1.595-4.133.059-.125-.09-.25-.148-.156zm-.414 5.066c-.148-1.585.502-2.921.886-4.382.03-.125-.177-.187-.207-.062-.384 1.491-1.092 2.859-.915 4.444 0 .155.266.155.236 0zm.65 1.43c-.531-1.244-.03-2.642.325-3.854.03-.156-.177-.218-.207-.062-.384 1.274-.885 2.735-.295 4.04.03.155.236.03.177-.125zm.885 1.274a9.488 9.488 0 010-2.89c.089-.591.266-1.12.177-1.741-.03-.124-.206-.062-.177.062.118.777-.206 1.585-.295 2.362-.089.777-.089 1.523.089 2.269.059.124.206.062.206-.062zm.562.839c-.03-.777 0-1.523.029-2.3.03-.684 0-1.367.059-2.02 0-.124-.177-.124-.207 0-.059.684-.03 1.336-.088 2.02-.06.777-.09 1.523-.03 2.3.03.155.236.155.236 0zm1.24.498a26.868 26.868 0 01-.326-2.643c-.03-.528.089-1.025-.088-1.522-.06-.156-.266-.094-.207.062.207.59.06 1.367.089 1.989.059.715.147 1.46.295 2.175.03.156.236.093.236-.062zm1.21.527c-.325-.497-.325-1.087-.385-1.647-.059-.683-.206-1.336-.118-2.02.03-.155-.206-.155-.236 0-.088.777.089 1.585.148 2.362.03.528.118 1.026.413 1.46.089.094.266-.061.177-.155zm.826-.062c-.206-.901-.413-1.771-.502-2.704 0-.155-.236-.155-.206 0 .059.933.265 1.865.472 2.766.03.156.266.094.236-.062zm.974.125c-.443-.964-.679-1.927-.856-2.984-.03-.124-.207-.093-.207.062.148 1.026.266 2.207.886 3.046.118.093.236-.031.177-.124zm.531-.125c-.059-.56-.147-1.087-.206-1.647-.03-.373 0-.715-.118-1.088-.06-.124-.266-.093-.207.063.118.372.089.745.118 1.118.06.529.118 1.057.207 1.554.03.156.236.156.206 0zm.945-1.15c.03-.248-.03-.497-.148-.746-.059-.124-.236-.03-.177.094.089.217.118.404.118.621 0 .156.207.156.207.031zm2.45 4.413c-.65-.963-.826-2.175-.59-3.325.03-.155-.207-.248-.236-.062-.266 1.212-.118 2.548.65 3.543.088.062.265-.062.176-.156zm.797-.093c-.177-.373-.147-.808-.177-1.243l-.088-1.554c0-.155-.236-.155-.236 0 .029.59.058 1.181.088 1.74.03.405.03.778.236 1.15.06.125.236.032.177-.093zm.975-2.89c0-.155-.236-.155-.236 0 0 .466 0 .963-.06 1.43-.029.124.178.155.207.03.089-.465.089-.963.089-1.46zm1.446 1.398a.992.992 0 00-.148-.31c-.118-.125-.206-.093-.354-.031-.088.03-.059.186.03.155.059-.031.118-.062.177 0a.29.29 0 01.088.218c.03.124.236.093.207-.032zM2.716 10.877c-.177-.373-.266-.777-.472-1.118-.06-.063-.148 0-.119.062.207.342.296.746.443 1.119.03.124.177.03.148-.063zm16.207-6.029c-.06-.621-.532-1.025-1.004-1.367-.118-.062-.207.093-.088.186.885.653 1.092 1.492.797 2.58-.089.31-.473.746-.768.404-.118-.125-.177-.28-.266-.435a4.698 4.698 0 01-.295-.684c-.206-.466-.65-.777-.944-1.15-.355-.435-.62-1.18.088-1.46.384-.156.886.28 1.18.497.06.062.119-.063.06-.094-.473-.404-1.742-1.025-1.86.156-.088.994 1.092 1.647 1.447 2.486.265.653.797 1.616 1.387.746.325-.528.325-1.305.266-1.865zm.118 5.315c-.06-.125-.266-.031-.177.124.088.186.059.373-.089.497-.413-.31-.236-1.025-.088-1.43.059-.124-.148-.186-.207-.062-.207.529-.325 1.399.236 1.74.06.032.089.032.118 0 .296-.248.384-.559.207-.87zm-1.328 2.082c0 .062-.03.093-.03.155-.03.094.118.125.148.031.03-.062.03-.093.059-.155 0-.062-.148-.124-.177-.031zm-.119.684c-.118-.031-.147.124-.059.155.119.062.177-.124.06-.155zm4.9 7.334c-.088-.03-.147.124-.029.156.03.341.059.683.059 1.025-.148.062-.325.125-.472.187-.325.093-.62.124-.945.155-.65.031-1.27-.186-1.83-.435-.207-.093-1.565-.808-.915-1.243.679-.497 1.653-.466 2.361-.031.089.062.177-.094.089-.156-.768-.466-2.067-.528-2.775.156-.561.56.856 1.305 1.122 1.43.974.528 2.273.683 3.276.155.65-.28.798-1.088.06-1.399zm3.926-.435l-.059.031c-.03-.093-.147-.093-.147.031v.094c0 .062.059.093.088.093.06-.031.089-.031.148-.062.118-.063.06-.218-.03-.187zm1.506-.839c-.088-.031-.147.124-.03.155.09.032.119-.124.03-.155z"/></g><defs><clipPath id="clip0"><path fill="#fff" d="M0 0h32v34H0z"/></clipPath></defs></svg>