<svg width="57" height="58" fill="none" xmlns="http://www.w3.org/2000/svg"><g clip-path="url(#clip0)" fill="#FFC501"><path d="M53.748 39.446c-.62-1.22 1.653-2.97 2.273-3.87.93-1.326 1.24-3.659.465-5.143-1.085-2.015-2.635-2.439-4.753-2.28-2.686.212-5.114 1.697-7.594 2.545-1.963.636-3.771.954-5.786.424-1.343-.318-2.738-2.12-2.893-3.711a14.84 14.84 0 001.705-1.909c1.446-2.12 2.376-4.877 2.531-7.422.258-5.514-1.601-11.345-5.58-15.216-3.409-3.34-9.763-3.446-13.844-1.855-1.705.689-6.354 3.658-6.354 6.203-.052-.053-.155 0-.155.106v.053c-.414.37-.93.742-1.499.954-1.963.848-5.01 1.007-7.129.371-1.911-.53-4.598-.795-4.133 2.015.672 4.082 4.133 8.641 7.543 10.656 2.118 1.22 4.34 1.166 4.804 3.923.258 1.485 1.343 2.121 2.635 2.28-1.498 1.22-3.875 3.234-4.391 3.658-1.653 1.538-2.79 3.605-3.513 5.726-1.705 5.09.516 9.278 3.771 12.936 3.306 3.711 7.852 6.203 12.657 7.263 2.635.583 5.476.583 8.162.424l3.255-.159c.155.318.517.53.93.424 5.218-1.219 10.694-2.28 13.535-7.475 1.343-2.439 3.254-4.56 3.668-7.475.206-1.114.258-2.333-.31-3.446zm-39.21-16.7c-.776-1.008-1.912-1.538-3.049-2.015-2.17-.954-3.874-1.856-5.476-3.658-.155-.16-1.446-2.174-2.376-3.976 1.24 1.961 3.306 3.552 5.011 4.665 3.461 2.28 9.299 3.817 13.07 1.59.104.53.259 1.008.62 1.538.413.636 1.24-.053.775-.583-.775-.954-1.033-1.856-.878-3.128 0-.16-.155-.212-.258-.053-.207.477-.31.954-.31 1.431-.052 0-.155 0-.259.053-3.72 2.015-8.834 0-12.243-1.75-2.325-1.219-5.373-4.028-6.2-6.785.879.053 1.809.477 2.687.636 1.705.265 3.461-.053 5.166-.265 1.136-.16 1.963-.583 2.583-1.167-.103.318-.155.637-.103.955.051.848.723 1.643 1.136 2.28 1.24 1.802 3.203 2.703 5.27 2.81 2.066.105 3.667 1.113 5.114 2.491.051.053 2.015 2.492 1.188 2.704-.672.212-.826.318-1.446.636-1.189.636-2.067 1.909-3.1 2.704-1.653 1.22-3.151 1.961-5.218 1.59a.497.497 0 00-.568.477c-.775-.954-.362-2.12-1.137-3.18zm2.737 3.923s-.206.159-.516.424a.538.538 0 00-.259-.583c.259.053.465.106.724.106l.051.053zm28 26.561c-2.273 1.59-5.062 2.068-7.749 2.704-3.358.159-6.819-.106-10.074-.371-4.494-.424-9.712-2.333-12.966-5.567-3.772-3.764-6.251-7.634-4.598-13.201.672-2.227 2.066-4.082 3.668-5.673 1.446-1.431 3.1-2.439 4.03-4.4v-.106c3.616-.106 5.889-4.348 9.35-5.302a.507.507 0 00.362-.477c-.104-2.757-2.738-4.718-4.908-5.885-1.705-.954-3.771-.424-5.528-1.325-1.653-.849-3.151-2.916-2.893-4.878.878-1.06 1.447-2.492 2.325-3.711.62-.583 1.188-1.007 1.55-1.325 1.498-1.379 4.08-2.121 6.044-2.386 2.066-.265 4.494.477 6.457 1.113 2.739.902 3.978 3.234 5.425 5.567 2.531 4.082 2.841 10.126.775 14.42-1.343 2.81-4.288 4.984-5.218 7.953-.207.583.568.848.93.424.672-.954 1.498-1.696 2.325-2.492.258 1.803 1.756 3.658 3.151 4.454 5.011 2.757 10.332-2.44 14.982-3.446 3.926-.849 3.254 4.4 1.808 5.99-.672.743-1.705 1.326-2.273 2.174-.31.424-.672 1.007-.465 1.644.723 1.908.878 3.287.31 5.354-1.085 3.34-4.03 6.786-6.82 8.748z"/><path d="M28.745 14.208c-.31-1.537-.465-2.969-2.274-3.128-.62-.318-1.136-.212-1.653.053a3.732 3.732 0 00-.723.213c-.723.318-.775.742-.775 1.325-.051.159 0 .318.052.477.206.477.826.795 1.291.265.362-.424.827-1.113 1.395-.636a3.7 3.7 0 011.188 1.856c.259 1.007 1.705.583 1.499-.425zM42.073 47.29c-2.015.955-3.823 2.015-6.045 2.545-3.048.743-6.354-.265-8.988-1.802-5.218-3.022-7.75-8.483-6.355-14.42.052-.266-.361-.425-.413-.107-1.912 6.31.31 11.293 5.321 15.27 5.011 3.922 12.347 3.445 16.996-.69.465-.424-.051-1.007-.516-.795z"/><path d="M46.412 42.201c-1.291.69-2.635 1.06-4.03 1.325-.981.16-1.86.16-2.84.053-.672-.053-2.067.212-2.584-.424-.155-.159-.465.053-.31.265.827 1.167 2.945.955 4.236 1.114 1.189.159 2.635 0 3.978-.477 0 .106.103.106.103 0v-.106c.62-.266 1.395-.53 1.912-.902.517-.318.103-1.113-.465-.848zm1.343-4.506c-1.136.636-2.015 1.431-3.306 1.855-1.24.424-3.358.955-4.65.584-.206-.054-.258.212-.103.264 1.343.478 3.048.054 4.391-.159 1.602-.265 2.635-1.219 3.978-1.908.517-.16.155-.848-.31-.636zm-34.819 4.347c.052-.318-.361-.424-.465-.159-.258.636-.516 1.325-.671 2.015-.104.477.568.689.723.212.155-.636.31-1.379.413-2.068zm1.188 1.484c.052-.318-.361-.424-.465-.106-.258.849-.568 1.697-.826 2.492-.104.424.516.636.671.212.259-.901.414-1.75.62-2.598zm.878 2.757c-.31-.477.207-1.166.155-1.696 0-.16-.051-.212-.206-.265-.052 0-.155-.053-.207-.053-.258-.106-.465.37-.207.477h.052c-.052.318-.207.583-.31.848-.155.371-.051.742.155 1.06.259.371.775-.053.569-.37zm1.705 1.432c-.103-.106 0-.265.052-.424.207-.424-.517-.743-.723-.318-.207.424-.259.848 0 1.272.31.583 1.085 0 .671-.53zm-5.475-27.198c-.104-.053-.207.106-.104.16.362.211.465.742.413 1.166 0 .106.207.159.207.053.104-.53-.051-1.167-.516-1.379zm1.239-.159c0-.212-.258-.212-.31 0-.052.584.103 1.114.052 1.697 0 .212.31.212.31 0 .103-.583-.052-1.113-.052-1.697zm1.757 3.234c-.104-.583-.155-1.22-.259-1.802-.103-.424-.258-.955-.62-1.22-.051-.053-.103.053-.051.106.465.319.465 1.114.516 1.644.052.424.052.901.155 1.325.052.212.31.16.259-.053zm.878 1.856c-.258-.636-.155-1.378-.104-2.068.052-.742-.051-1.537 0-2.28 0-.159-.258-.159-.258 0-.051.849 0 1.697-.051 2.492-.052.637-.155 1.379.103 1.962.052.318.413.159.31-.106z"/><path d="M15.675 26.243c-.259-.795 0-1.59.103-2.386.155-.848.103-1.75.206-2.65.052-.16-.258-.265-.258-.107-.155 1.06-.103 2.068-.362 3.128-.155.69-.361 1.485 0 2.121.104.16.362.053.31-.106zm1.497-3.34c.155-.795.052-1.431-.258-2.12-.052-.16-.31 0-.207.105.827 1.644-.258 3.87-.31 5.673 0 .212.31.212.362 0 .052-1.22.207-2.439.413-3.658z"/><path d="M17.534 26.243c-.413-1.431 1.292-2.969.362-4.294-.104-.106-.31 0-.207.106.878 1.378-1.447 3.075-.413 4.347.103.106.31 0 .258-.159zm1.395-.795h-.31c.103-1.06.93-1.909.826-3.022 0-.212-.361-.265-.361 0 .103 1.166-.878 2.068-.878 3.287 0 .106.103.212.258.212.155-.053.31-.106.465-.106.207-.053.207-.371 0-.371zm1.291-1.378c0-.054-.103-.054-.103 0-.052.264.052.583 0 .848 0 .106.155.106.155 0 .052-.318-.052-.584-.052-.849zm3.41 0c-1.291 0-2.738 1.219-3.823 1.802-1.756.954-3.461 2.068-4.96 3.393-.154.16.053.371.208.212 1.394-1.166 2.944-2.174 4.546-3.075l2.014-1.113c.672-.371 1.24-.901 2.015-.955.207.054.207-.264 0-.264zm-1.395 1.908c-1.446.954-2.944 1.75-4.39 2.65-1.654.955-3.204 2.122-4.805 3.182-.155.106 0 .318.103.212 1.653-1.007 3.203-2.12 4.804-3.128 1.447-.901 2.997-1.697 4.34-2.757.155-.053.052-.212-.052-.159zm-2.583 2.332c-.361 1.273-2.841 2.121-3.874 2.81a64.553 64.553 0 00-5.528 4.507c-.155.16.052.424.258.265 2.067-1.75 4.03-3.658 6.303-5.143.93-.583 2.79-1.166 3.048-2.438.051-.053-.155-.16-.207 0zm-.878 2.121c-.672.424-1.189 1.06-1.808 1.538-.879.742-1.86 1.431-2.79 2.12-1.808 1.379-3.565 2.81-5.063 4.56-.155.212.104.53.31.318 1.395-1.59 3.048-2.969 4.701-4.241.827-.636 1.653-1.22 2.428-1.856.827-.636 1.498-1.484 2.377-2.067.206-.213.051-.53-.155-.372zm-.878 2.227c-1.55 1.166-2.893 2.545-4.237 3.923-1.136 1.167-2.53 2.333-3.15 3.924-.052.212.206.318.31.159.877-1.59 2.117-2.757 3.305-4.083 1.24-1.325 2.48-2.598 3.927-3.658.206-.159 0-.37-.155-.265zm-.001 1.962c-.723.53-1.24 1.272-1.808 1.961-.62.69-1.291 1.379-1.911 2.121-1.24 1.538-2.273 3.234-3.41 4.878-.155.212.155.37.31.212 1.085-1.432 1.963-3.022 3.048-4.454.672-.901 1.447-1.696 2.17-2.492.568-.636 1.137-1.431 1.808-1.961.104-.16-.052-.371-.207-.265z"/><path d="M16.553 36.475c-.672 1.644-1.705 3.181-2.48 4.772a32.271 32.271 0 00-1.705 4.188c-.052.212.258.318.362.106.568-1.696 1.24-3.393 2.066-5.036.672-1.326 1.498-2.598 2.015-3.977.052-.106-.207-.159-.258-.053zm.826 1.114c.052-.212-.258-.319-.31-.106-1.291 3.552-2.996 6.998-3.616 10.815-.052.265.31.371.361.106.672-3.817 2.273-7.263 3.565-10.815zm-2.17 12.458c-.568-1.59.568-3.923.982-5.46.31-1.06.516-2.12.878-3.128.206-.636.62-1.06.465-1.75-.052-.212-.362-.106-.31.053.206.69-.672 2.174-.878 2.863-.31 1.06-.569 2.12-.879 3.234-.361 1.273-1.24 3.022-.62 4.295.104.265.414.106.362-.107zm1.189 2.598c-.104-2.28.465-4.4.981-6.574.207-.954.362-1.855.568-2.81.155-.636.362-.954.052-1.537-.103-.212-.413-.053-.31.159.258.636-.31 1.962-.413 2.598-.207.954-.413 1.908-.62 2.81-.465 1.75-.775 3.446-.672 5.301 0 .318.414.371.414.053zm2.169.902c-.361-1.909-.206-3.765.104-5.673.258-1.538.413-3.181.93-4.666.103-.265-.31-.37-.362-.106-.62 1.75-.775 3.712-1.085 5.567-.258 1.644-.31 3.34 0 4.984.052.265.465.159.413-.106zm1.499-.69c-.465-2.544-.31-5.036.206-7.528.052-.212-.258-.318-.31-.106-.62 2.545-.826 5.196-.31 7.74.052.319.465.212.413-.106zm2.427 1.803c-.671-1.59-.826-3.234-.981-4.984-.103-1.325-.465-2.704.052-3.976.103-.212-.259-.318-.362-.106-.568 1.432-.207 3.022-.052 4.506.155 1.644.362 3.234.982 4.719.103.265.413.053.361-.16zm1.912.53c-.827-.795-.775-2.28-.878-3.34-.104-1.431-.31-2.863-.362-4.347 0-.265-.413-.265-.413 0 .103 1.75.258 3.446.413 5.195.052.955.155 2.174.982 2.81.206.106.413-.159.258-.318zm1.601.265c-1.24-2.067-1.291-4.56-1.24-6.892a.182.182 0 00-.361 0c-.052 2.386-.052 5.037 1.291 7.104.103.16.465 0 .31-.212zm1.602.212c-.258-2.28-1.137-4.453-.775-6.786.052-.212-.31-.265-.362-.053-.361 2.386.465 4.612.724 6.945.051.265.465.16.413-.106zm2.222-.212c-.363.053-.93-2.173-1.034-2.545-.207-.848-.258-1.696-.517-2.544-.051-.212-.413-.16-.361.106.31.954.31 1.908.568 2.862.206.849.568 1.697.93 2.44a.388.388 0 00.206.105c.104-.053.155-.053.259-.106.206-.053.155-.37-.052-.318zm1.652.53c-.361-.795-.517-1.431-.62-2.332-.103-.849-.361-1.644-.155-2.492.052-.212-.258-.318-.31-.106-.258.954.052 1.908.155 2.863.052.795.155 1.59.672 2.226.103.16.361 0 .258-.159zm1.705-.371c-.672-1.537-.723-3.18-.723-4.824 0-.212-.362-.212-.362 0 .052 1.59-.103 3.605.775 4.983.155.212.413.053.31-.159zm1.189-.159c-.155-1.06-.31-2.173-.155-3.234.051-.212-.31-.318-.362-.106-.207 1.166-.052 2.28.103 3.446.103.265.465.16.413-.106zm2.066-.742c-.103.053-.155.159-.258.212-.31-.371-.155-1.113-.155-1.537.051-.478.155-1.008.155-1.485 0-.212-.362-.265-.362 0 0 .901-.775 2.863.258 3.393a.154.154 0 00.207 0l.361-.37c.155-.16-.051-.372-.206-.213zm2.893 1.962a3.538 3.538 0 01-.568-1.273c-.052-.477-.104-.954-.207-1.431 0-.106-.052-.106-.103-.106-.104-.796-.259-1.59-.569-2.333-.103-.212-.413-.053-.31.159.465 1.22.465 2.545.827 3.764 0 .212.052.371.052.583 0 .16.155.212.258.212.103.212.258.425.413.637.103.053.31-.106.207-.212zM24.508 30.431c-.775.107-1.136 1.114-1.446 1.75-.878 1.75-1.757 3.34-2.273 5.302-.052.212.31.318.361.106a21.813 21.813 0 011.705-4.295c.31-.583.982-2.491 1.757-2.544.103-.053.051-.319-.104-.319z"/><path d="M23.94 33.082c-1.602 2.015-2.945 4.613-2.893 7.316 0 .266.361.266.361 0 .052-2.65 1.189-5.036 2.79-7.05.104-.213-.155-.425-.258-.266zm-.724 8.642c-.258-2.704.879-4.984 1.55-7.475.052-.213-.31-.319-.361-.106-.672 2.544-1.912 4.877-1.602 7.58 0 .266.465.266.413 0zm1.137 2.439c-.93-2.12-.051-4.507.569-6.574.051-.265-.31-.371-.362-.106-.672 2.173-1.55 4.665-.517 6.892.052.265.414.053.31-.212zm1.55 2.173a15.783 15.783 0 010-4.93c.155-1.008.465-1.909.31-2.97-.052-.211-.362-.105-.31.107.207 1.325-.362 2.704-.516 4.03-.155 1.325-.155 2.597.154 3.87.104.211.362.105.362-.107zm.982 1.432c-.052-1.326 0-2.598.051-3.923.052-1.167 0-2.333.104-3.446 0-.212-.31-.212-.362 0-.103 1.166-.052 2.28-.155 3.446-.103 1.325-.155 2.597-.052 3.923.052.265.414.265.414 0zm2.169.848a44.78 44.78 0 01-.568-4.506c-.052-.902.155-1.75-.155-2.598-.103-.265-.465-.16-.361.106.361 1.007.103 2.333.155 3.393.103 1.22.258 2.492.516 3.711.052.265.413.16.413-.106zm2.118.901c-.568-.848-.568-1.855-.671-2.81-.103-1.166-.362-2.28-.207-3.446.052-.265-.361-.265-.413 0-.155 1.326.155 2.704.258 4.03.052.901.207 1.75.724 2.492.154.158.465-.107.31-.266zm1.447-.106c-.362-1.537-.723-3.022-.878-4.612 0-.265-.414-.265-.362 0 .103 1.59.465 3.18.826 4.718.052.265.465.16.414-.106zm1.705.212c-.775-1.643-1.188-3.287-1.498-5.09-.052-.211-.362-.158-.362.107.258 1.75.465 3.764 1.55 5.196.206.159.413-.054.31-.213zm.929-.212c-.103-.954-.258-1.855-.361-2.81-.052-.636 0-1.219-.207-1.855-.103-.212-.465-.16-.361.106.206.636.154 1.272.206 1.909.103.9.207 1.802.362 2.65.051.265.413.265.361 0zm1.654-1.961c.052-.424-.052-.849-.258-1.273-.104-.212-.414-.053-.31.16.155.37.206.689.206 1.06 0 .265.362.265.362.053zm4.288 7.528c-1.137-1.644-1.447-3.711-1.034-5.673.052-.265-.361-.424-.413-.106-.465 2.068-.207 4.348 1.137 6.044.155.106.465-.106.31-.265zm1.395-.159c-.31-.636-.26-1.378-.31-2.12-.053-.902-.104-1.75-.156-2.651 0-.266-.413-.266-.413 0 .052 1.007.103 2.014.155 2.968.052.69.052 1.326.413 1.962.103.212.413.053.31-.159zm1.704-4.931c0-.265-.413-.265-.413 0 0 .796 0 1.644-.103 2.44-.052.211.31.264.361.052.155-.795.155-1.643.155-2.492zm2.531 2.386c-.051-.212-.155-.37-.258-.53-.207-.212-.362-.159-.62-.053-.155.053-.103.318.052.265.103-.053.206-.106.31 0a.488.488 0 01.155.371c.051.212.413.16.361-.053zM5.704 18.556c-.31-.637-.465-1.326-.827-1.909-.103-.106-.258 0-.207.106.362.583.517 1.273.775 1.909.052.212.31.053.259-.106zM34.065 8.27c-.103-1.06-.93-1.749-1.756-2.332-.207-.106-.362.159-.155.318 1.55 1.113 1.911 2.545 1.395 4.4-.155.53-.827 1.273-1.343.69-.207-.213-.31-.478-.465-.743a7.912 7.912 0 01-.517-1.166c-.361-.795-1.136-1.325-1.653-1.962-.62-.742-1.085-2.014.155-2.491.672-.266 1.55.477 2.066.848.104.106.207-.106.104-.16-.827-.688-3.048-1.749-3.255.266-.155 1.696 1.912 2.81 2.531 4.241.465 1.114 1.395 2.757 2.428 1.272.569-.9.569-2.226.465-3.18zm.207 9.066c-.103-.212-.465-.053-.31.213.155.317.103.636-.155.848-.723-.53-.413-1.75-.155-2.439.103-.212-.258-.318-.362-.106-.361.901-.568 2.386.414 2.969.103.053.155.053.206 0 .517-.424.672-.954.362-1.485zm-2.325 3.553c0 .105-.052.159-.052.265-.051.159.207.212.259.053.051-.107.051-.16.103-.265 0-.107-.258-.213-.31-.053zm-.207 1.166c-.206-.053-.257.212-.102.265.206.106.31-.212.103-.265zm8.576 12.512c-.155-.053-.258.212-.052.265.052.583.104 1.166.104 1.75-.259.105-.569.211-.827.317-.568.16-1.085.212-1.653.265-1.136.053-2.221-.318-3.203-.742-.361-.159-2.738-1.378-1.601-2.12 1.188-.849 2.893-.796 4.133-.053.154.106.31-.16.154-.266-1.343-.795-3.616-.9-4.856.266-.981.954 1.499 2.226 1.963 2.438 1.705.902 3.978 1.167 5.735.266 1.136-.478 1.395-1.856.103-2.386zm6.871-.742l-.103.052c-.052-.159-.258-.159-.258.053v.16c0 .106.103.159.155.159.103-.053.155-.053.258-.106.207-.107.103-.372-.052-.319zm2.635-1.432c-.155-.053-.259.212-.052.265.155.053.207-.212.052-.265z"/></g><defs><clipPath id="clip0"><path fill="#fff" transform="translate(.95)" d="M0 0h56v58H0z"/></clipPath></defs></svg>