<svg width="40" height="40" fill="none" xmlns="http://www.w3.org/2000/svg"><path d="M.234 10.928c0-5.523 4.478-10 10-10h18.97c5.523 0 10 4.477 10 10v18.763c0 5.523-4.477 10-10 10h-18.97c-5.522 0-10-4.477-10-10V10.928z" fill="#4064B4"/><g clip-path="url(#clip0)"><path fill-rule="evenodd" clip-rule="evenodd" d="M17.197 20.351h-2.154V16.49h2.142c0-.96-.012-1.873 0-2.785a4.55 4.55 0 01.682-2.33c.777-1.263 1.977-1.813 3.401-1.883 1.26-.07 2.53-.012 3.825-.012v3.745h-1.46c-.34 0-.682-.012-1.012 0-.458.023-.811.28-.835.69-.035.843-.012 1.685-.012 2.575h3.413c-.13 1.299-.26 2.562-.389 3.838h-3.036v10.836h-4.554c-.011-3.58-.011-7.173-.011-10.813z" fill="#fff"/></g><defs><clipPath id="clip0"><path fill="#fff" transform="translate(15.043 9.456)" d="M0 0h10.132v21.707H0z"/></clipPath></defs></svg>