<svg width="45" height="28" fill="none" xmlns="http://www.w3.org/2000/svg"><g clip-path="url(#clip0)" fill="#F25384"><path d="M23.278 9.28c1.797.168 3.64.24 5.245-.747.383-.241.024-.867-.36-.626-1.484.915-3.208.795-4.885.65-.455-.048-.455.675 0 .723z"/><path d="M24.26 7.063c2.754-.41 5.796-1.325 8.287.338 1.053.698 1.94 1.638 2.778 2.602 1.125 1.3 1.413 2.553 1.413 4.24 0 1.301-.072 2.65-.527 3.879-.48 1.373-1.39 2.506-2.3 3.614-.885 1.084-1.867 2.048-3.208 2.53-1.294.457-2.707.41-4.072.41-.455 0-.455.722 0 .722 1.557.024 3.162.024 4.622-.554 1.365-.554 2.371-1.59 3.281-2.723.886-1.108 1.797-2.24 2.3-3.59.55-1.47.622-3.107.598-4.673-.024-1.422-.24-2.579-1.125-3.735-.887-1.132-1.94-2.24-3.114-3.108-2.778-2.024-6.01-1.108-9.148-.65-.431.072-.24.746.215.698z"/><path d="M24.548 6.34c-5.197-.41-7.975 5.18-7.904 9.758.072 5.59 5.365 7.541 9.772 9.204.43.168.622-.53.191-.7-3.904-1.493-8.933-3.131-9.244-8.118-.264-4.265 2.275-9.806 7.185-9.42.479.047.479-.675 0-.724z"/><path d="M26.44 3.859c.143 1.807.263 3.782-1.174 5.107-.335.314.168.82.503.506 1.58-1.47 1.533-3.613 1.39-5.637-.025-.458-.743-.458-.72.024z"/><path d="M27.805 6.413c2.874-.506 6.01-2.843 7.783-5.132.216-.265.024-.699-.36-.602-2.202.53-4.693.506-6.657 1.783-1.46.94-2.323 2.53-1.988 4.288.096.458.79.265.695-.193-.838-4.385 5.412-4.505 8.142-5.18-.12-.192-.239-.41-.359-.602-1.7 2.192-4.694 4.433-7.448 4.94-.455.095-.263.794.192.698zM.168 9.16c-.144 2.047 1.15 3.999 2.347 5.565 1.34 1.759 3.017 3.228 4.885 4.433 4.143 2.698 9.029 3.855 13.89 4.457.456.048.456-.674 0-.723-4.478-.554-9.004-1.614-12.908-3.975-1.676-1.012-3.209-2.24-4.526-3.71C2.443 13.64.742 11.4.886 9.159c.024-.457-.694-.457-.718 0z"/><path d="M.599 9.28c.455 0 .455-.723 0-.723s-.455.723 0 .723z"/><path d="M.695 8.87c1.34-1.445 1.365-2.867 1.15-4.698a3.224 3.224 0 01-.12-.458l1.005-.578c.216.048.48.843.551 1.036.216.53.36 1.084.48 1.638.167.795.334 1.301 1.029 1.783 3.808 2.65 8.813 3.686 13.363 3.421.455-.024.455-.746 0-.722-2.658.144-5.316-.145-7.879-.94A23.44 23.44 0 016.347 7.69c-.6-.338-1.318-.65-1.653-1.253-.311-.554-.335-1.301-.527-1.904-.311-.963-1.532-3.469-2.874-2.072-.479.482-.311 1.205-.167 1.783.383 1.494.191 2.916-.934 4.12-.312.337.191.843.503.506zm36.091 3.542c1.628-.073 3.233-.386 4.741-1.012.288-.12.863-.506 1.15-.554.67-.097 1.197.578 1.365 1.108.431 1.325-.91 2.265-1.676 3.06a62.635 62.635 0 01-3.952 3.638c-.647.554-1.317 1.108-1.988 1.662-.335.265-.67.554-1.006.82-.215.192-1.053 1.06-1.34 1.035.12.145.239.314.335.458 0-.024 0-.072.024-.096-.144.072-.288.169-.431.24h.071c.455.073.647-.626.192-.698h-.072c-.168-.024-.407.048-.431.241 0 .024 0 .072-.024.096-.048.241.096.434.335.458.647.072 1.413-.891 1.844-1.253a129.71 129.71 0 002.826-2.337c1.964-1.662 3.856-3.42 5.604-5.348.6-.675.863-1.012.527-1.928-.24-.626-.718-1.783-1.437-2.048-.718-.265-1.604.458-2.227.723-1.413.602-2.898.892-4.407.94-.502.072-.502.795-.023.795z"/><path d="M41.958 11.834a2.905 2.905 0 001.342 1.951c.407.241.766-.385.359-.626a2.206 2.206 0 01-1.03-1.518c-.048-.458-.742-.265-.67.193zM.455 9.593a5.68 5.68 0 002.203-.891c.384-.265.024-.892-.359-.627a5.578 5.578 0 01-2.035.82c-.455.072-.264.77.191.698zm12.789 2.168l1.796-.867c.096-.048.024-.217-.096-.145l-1.796.868c-.096.048 0 .192.096.144zm-.216.603c.934-.41 1.844-.868 2.73-1.325.096-.049 0-.217-.096-.145a35.69 35.69 0 01-2.73 1.325c-.096.048 0 .193.096.145zm-.096.554c1.15-.675 2.323-1.253 3.545-1.807.096-.048.024-.193-.096-.145a32.703 32.703 0 00-3.544 1.807c-.096.049 0 .217.095.145zm-.455.988a76.166 76.166 0 015.173-2.747c.096-.048.024-.217-.096-.145a106.368 106.368 0 00-5.172 2.747c-.096.048 0 .217.095.145zm-.407.722c1.772-.963 3.545-1.903 5.317-2.867.096-.048 0-.216-.096-.144-1.772.94-3.545 1.903-5.34 2.843-.072.048.023.217.12.168zm.551.314l4.383-2.096c.096-.049.024-.217-.096-.145l-4.383 2.096c-.095.024 0 .193.096.145zm.407.65c1.03-.53 2.06-1.06 3.113-1.542.096-.048.024-.193-.095-.144-1.054.481-2.084 1.011-3.114 1.541-.096.049 0 .193.096.145zm.647.313a36.408 36.408 0 012.61-1.204c.096-.049.048-.217-.048-.169-.91.361-1.796.771-2.658 1.229-.096.048-.024.193.096.144zm.311.651c.838-.361 1.652-.747 2.49-1.108.097-.049.025-.193-.095-.145-.838.361-1.652.747-2.49 1.108-.097.048 0 .193.095.145zm-.311 1.132c1.221-.554 2.443-1.132 3.664-1.686.096-.048.024-.193-.096-.145-1.221.554-2.442 1.133-3.664 1.687-.096.024-.024.192.096.144zm.455.554c.934-.506 1.868-.94 2.85-1.349.095-.048.047-.217-.048-.169-.982.41-1.964.844-2.898 1.374-.096.024 0 .193.096.144zm.479.386a10.573 10.573 0 002.37-1.084c.097-.073 0-.217-.095-.145a9.213 9.213 0 01-2.323 1.06c-.12.024-.072.217.048.169zm.143.578c.503-.193 1.006-.41 1.51-.602.095-.049.071-.217-.049-.169-.503.193-1.006.41-1.508.602-.096.049-.048.217.047.17zm.168.651c.503-.193 1.006-.362 1.51-.555.095-.048.071-.216-.049-.168-.503.193-1.005.361-1.508.554-.096.024-.072.193.048.169zm.024.553l1.509-.722c.096-.048.024-.217-.096-.145l-1.509.723c-.096.024 0 .193.096.145zm.623.17a62.07 62.07 0 001.916-.748c.096-.048.072-.216-.048-.168-.647.24-1.27.482-1.916.747-.12.024-.072.216.048.168zm.551.409a22.474 22.474 0 002.131-.771c.096-.048.048-.217-.048-.169a22.54 22.54 0 01-2.131.771c-.096.024-.048.217.048.169zm.646.313a4.751 4.751 0 001.605-.578c.096-.048 0-.217-.096-.145a5.375 5.375 0 01-1.58.555c-.096.024-.048.192.071.168zm1.006.41c.12 0 .12-.193 0-.193s-.12.193 0 .193z"/><path d="M5.245 12.195A29.328 29.328 0 0010.8 15.88a29.054 29.054 0 004.335 1.759c.575.193 1.46.24 1.988.554.095.048.191-.096.095-.145-.646-.385-1.676-.457-2.395-.698a30.01 30.01 0 01-3.52-1.446 29.583 29.583 0 01-5.892-3.855c-.12-.048-.239.073-.167.145zm4.047 0a53.886 53.886 0 007.257 1.735c.12.024.167-.145.047-.169-2.466-.385-4.885-.988-7.256-1.735-.12-.024-.168.145-.048.169zm27.853 2.096c1.03-.361 2.083-.699 3.113-1.06.12-.048.072-.217-.048-.168-1.03.36-2.084.698-3.113 1.06-.12.048-.072.216.048.168zm-.455 3.469c.79-.024 1.389-.36 2.06-.746.933-.555 1.867-1.084 2.777-1.639.096-.048 0-.216-.095-.144-.719.41-1.413.843-2.132 1.253-.814.481-1.628 1.084-2.634 1.108-.096-.024-.096.169.024.169zm-18.37-5.734c-.981 3.133-.047 6.385 2.468 8.481.095.072.215-.048.12-.12-2.468-2.048-3.378-5.229-2.396-8.312.024-.097-.143-.145-.191-.049z"/><path d="M19.758 13.592c-.312 2.434.527 4.77 2.299 6.457.072.073.215-.048.12-.12-1.725-1.663-2.54-3.927-2.228-6.312 0-.145-.167-.145-.191-.025z"/><path d="M20.357 15.279c.55 2.457 2.347 4.144 4.167 5.734.096.072.215-.048.12-.12-1.796-1.59-3.569-3.253-4.12-5.662-.024-.12-.191-.073-.167.048zm14.273-.819c.024 2.963-1.796 5.252-3.808 7.204-.071.072.048.216.12.12 2.036-2 3.88-4.337 3.856-7.348 0-.097-.168-.097-.168.024zM17.938 24.507a29.666 29.666 0 003.855-.53c.12-.025.072-.193-.048-.17a34.22 34.22 0 01-3.808.507c-.12.024-.12.217 0 .193z"/><path d="M18.082 24.434l3.113-.144c.12 0 .12-.193 0-.193l-3.113.144c-.096.025-.096.217 0 .193z"/><path d="M16.812 24.675c1.557.024 3.113-.12 4.646-.41.12-.024.072-.192-.048-.168-1.533.29-3.041.434-4.598.41-.12-.025-.12.168 0 .168zm.408-.65c1.436.072 2.873.024 4.31-.12.12-.025.12-.194 0-.194a25.778 25.778 0 01-4.31.12c-.12 0-.12.194 0 .194zm-.575 1.518a96.87 96.87 0 008.334-.94c.12-.024.072-.193-.048-.169a95.82 95.82 0 01-8.286.94c-.096-.024-.12.169 0 .169zm1.675.409a72.725 72.725 0 008.24-.77c.119-.025.071-.194-.049-.17-2.706.434-5.46.7-8.19.771-.096-.024-.096.17 0 .17zm-.382.964c5.508-.41 10.992-.94 16.452-1.614.12-.024.12-.193 0-.193a342.449 342.449 0 01-16.453 1.614c-.12.024-.12.193 0 .193zM16.573 28a189.019 189.019 0 0019.11-2.048c.12-.024.073-.193-.047-.169a187.353 187.353 0 01-19.063 2.048c-.12 0-.12.169 0 .169zm16.285-4.674a30.819 30.819 0 006.49-.747c.12-.024.072-.193-.048-.169a29.02 29.02 0 01-6.442.723c-.12 0-.12.193 0 .193zm-2.395 1.06a60.613 60.613 0 007.52-.988c.12-.024.072-.193-.048-.168a59.893 59.893 0 01-7.472.987c-.12 0-.12.193 0 .169zm-1.341 1.012l7.257-1.157c.12-.024.072-.192-.048-.168l-7.257 1.156c-.096.024-.048.193.048.169z"/><path d="M27.924 25.808l8.383-1.157c.12-.024.071-.193-.049-.168-2.802.385-5.58.77-8.382 1.156-.095.024-.048.193.048.169z"/></g><defs><clipPath id="clip0"><path fill="#fff" transform="translate(0 .679)" d="M0 0h45v27.321H0z"/></clipPath></defs></svg>