<svg width="42" height="42" fill="none" xmlns="http://www.w3.org/2000/svg"><path d="M5.013 20.229c-2.285 1.426-4 2.919-4.603 5.738-.634 2.92-.634 5.374.73 8.061 1.302 2.587 3.016 2.786 5.65 2.72 3.714-.1 7.428-.398 11.11-.896.603-.066.603-1.094 0-.995-2.571.365-5.11.63-7.713.763-2.286.133-6.285 1.029-7.777-1.26-1.523-2.322-1.714-4.644-1.238-7.331.508-2.92 1.968-4.478 4.317-5.938.54-.331.063-1.16-.476-.862z" fill="#C20D19"/><path d="M5.68 20.627c4.538-.697 9.077-1.194 13.68-1.426-.032-.332-.095-.664-.127-.962-4.063 1.559-5.206 6.369-5.682 10.415-.254 2.19.635 3.848 2.032 5.374 1.174 1.294 2.222 2.455 3.904 1.56 3.428-1.792 7.586-5.673 7.396-10.052-.096-2.189-1.365-3.649-2.825-5.075-1.397-1.36-2.952-2.488-4.92-2.421-.286 0-.445.232-.477.497-.031.166-.031.332-.063.498-.063.63.889.63.952 0 .032-.166.032-.332.064-.498l-.476.498c2.952-.133 6.76 3.682 6.792 6.767.032 3.615-3.142 6.302-5.745 8.16-.825.597-1.65 1.194-2.603.63-.54-.299-1.047-.995-1.46-1.46-1.492-1.691-1.777-3.283-1.396-5.572.54-3.284 1.492-7.132 4.792-8.392.477-.166.445-.996-.126-.962-4.666.265-9.3.762-13.935 1.459-.635.1-.38 1.062.222.962z" fill="#C20D19"/><path d="M16.662 30.512v-.398c0-.465-.699-.73-.889-.266-.254.598-.508 1.99.476 1.957.35 0 .635-.265.889-.497.285-.232.508-.53.571-.929.127-.663-.285-1.426-.984-1.36-.857.067-1.079.962-1.11 1.692 0 .298.317.597.602.464.19-.066.35-.166.445-.398.095-.232.063-.53-.159-.696-.19-.133-.54-.067-.667.166.032-.034.096-.034.127-.067.19.166.413.332.604.465 0-.166 0-.564.158-.664.095-.066.095 0 .064.133-.032.199-.286.365-.445.497-.063.034-.095.067-.158.1.222.199.317.199.285 0 .064-.133.032-.299.096-.464-.286-.1-.604-.166-.89-.266v.398c.033.763.985.763.985.133zm-.476-5.54c-.286.531-.73 1.692-.064 2.123.603.398 1.302-.265 1.65-.73.413-.497.763-1.293.191-1.824a.857.857 0 00-.92-.166c-.286.133-.445.398-.699.531-.54.332-.063 1.194.477.862.127-.066.54-.331.57-.464-.03-.033-.063-.033-.094-.066v.132c-.096.1-.159.266-.254.398-.095.1-.19.233-.286.332-.032.033-.095.066-.159.1-.158.033-.127.132.16.265.03-.033.063-.431.063-.498a1.19 1.19 0 01.19-.464c.286-.564-.54-1.061-.825-.53zm2.825-3.383c-.285.298-.54.697-.476 1.16a.826.826 0 00.794.698c.412.033.761-.233 1.11-.465.35-.265.826-.497 1.016-.962a.895.895 0 00-.222-1.028c-.317-.266-.794-.2-1.174-.067-.826.299-1.334 1.062-1.778 1.792-.349.53.476 1.028.825.497.318-.53.73-1.194 1.333-1.393.064-.033.128-.033.191-.033 0-.2-.063-.232-.19-.066-.16.066-.318.232-.477.331-.127.1-.317.166-.412.266-.127 0-.159.066-.064.132.064-.1.096-.166.19-.265.413-.365-.253-1.061-.666-.597zm-.953 8.525c-.158.53-.317 1.028-.444 1.56-.095.43.063.861.508.961.349.1.825-.033 1.143-.133.38-.132.761-.364 1.015-.73.413-.63.35-1.625-.38-1.99-.794-.398-1.62.133-2 .863-.318.564.508 1.061.825.497.127-.232.444-.663.762-.497.285.166 0 .564-.159.696-.159.1-.35.166-.508.2-.095.033-.19.033-.285.066-.032 0-.096 0-.128.033.064.066.128.166.16.232.094-.066.158-.63.19-.73.063-.265.158-.53.222-.796.19-.597-.73-.862-.92-.232zm3.428-4.445c-.444.497-1.555 1.924-.508 2.421.794.398 1.873-.398 2.318-1.061.38-.564.888-2.123-.16-2.256-.507-.066-.856.365-1.174.73-.476.53-.952 1.095-1.428 1.625-.412.465.254 1.162.667.697l1.238-1.393c.063-.1.603-.564.57-.63-.063-.034-.126-.067-.19-.133 0 .066-.031.133-.031.232a1.02 1.02 0 01-.127.332c-.19.398-.54.73-.92.862-.064.034-.128.034-.191.067-.064 0-.095.033-.032.066-.032.166.19-.232.19-.232.128-.232.318-.465.477-.664.412-.43-.286-1.128-.699-.663zM32.31 31.44c-2.285.034-4.57.332-6.76.963-1.746.497-4.095 1.128-5.46 2.454-.92.863-1.047 2.156-.064 3.052 1.175 1.095 3.302 1.16 4.793 1.227 3.524.166 8.73-.73 11.046-3.88.857-1.162 1.048-2.555-.222-3.45-1.619-1.128-3.809-.564-5.491-.034-.571.2-.35 1.161.254.962.666-.232 1.365-.43 2.063-.497.984-.133 3.777-.2 2.889 2.123-.413 1.094-2 1.824-2.952 2.288a16.395 16.395 0 01-8.126 1.493c-.699-.066-5.206-.332-3.492-2.554.762-.962 2.635-1.393 3.682-1.758 2.54-.896 5.174-1.327 7.872-1.36.571-.033.571-1.028-.032-1.028z" fill="#C20D19"/><path d="M22.439 39.004c0 .73.317 1.127.952 1.393 1.365.564 3.269.464 4.697.597 3.302.298 6.666.365 9.935-.398 1.683-.398 4-1.26 3.841-3.483-.222-2.853-3.714-3.45-5.84-3.616-.603-.033-.603.962 0 .995 1.047.067 2.126.233 3.11.664 1.492.663 2.603 2.587.73 3.781-1.555.962-3.745 1.095-5.49 1.228-1.207.1-10.983.265-10.983-1.128 0-.697-.952-.697-.952-.033zm.031-3.484c-.19.332-.222.664-.127 1.062.032.166.19.299.318.332.603.133 1.238.1 1.81-.166.475-.232 1.11-.697.888-1.36-.19-.53-.92-.597-1.397-.564-.508.033-1.047.2-1.365.63-.38.498.286 1.195.667.697.159-.199.286-.299.54-.332a.74.74 0 01.38 0c.064 0 .286.067.318.033.032-.265 0-.331-.095-.232-.064.033-.096.1-.159.133a1.897 1.897 0 01-.38.166c-.318.1-.636.1-.953.033l.317.332c-.031-.1-.031-.2.032-.266.35-.564-.476-1.061-.793-.497zm6.476-.73c.222-.133.444-.265.635-.398.222-.132.286-.464.159-.696-.127-.232-.445-.298-.667-.165a11.37 11.37 0 00-.635.397c-.222.133-.285.464-.158.696.158.232.444.299.666.166z" fill="#C20D19"/><path d="M32.564 33.995a1.67 1.67 0 00-1.079 1.061c-.127.332.19.63.444.63.857.034 1.65-.596 1.841-1.459.095-.365-.222-.73-.571-.597-.38.133-.793.265-1.174.398-.572.2-.318 1.161.254.962.38-.133.793-.265 1.174-.398l-.571-.597c-.096.464-.476.73-.92.73.158.199.317.43.444.63.063-.2.253-.299.412-.365.603-.199.35-1.16-.254-.995zm-5.301 2.985c.095.73.73.796 1.302.697.634-.1 1.11-.63.983-1.327-.031-.232-.253-.365-.444-.365-.508 0-1.047.2-1.365.63-.158.2-.19.498 0 .697.159.166.508.199.667 0 .19-.232.413-.365.698-.332-.159-.132-.317-.232-.444-.365-.032-.1 0 0-.032 0-.095.034-.159.067-.222.067-.064 0-.159 0-.222.033-.127.066-.064-.066 0 .066.031.1.031.166.063.266v-.067c-.032-.265-.19-.497-.476-.497-.254 0-.54.232-.508.497zm6.666 2.29c.476.099 1.047.032 1.396-.333.381-.398.191-.995-.317-1.094-.92-.2-1.904.431-2.254 1.293-.253.597.572 1.095.826.498a1.37 1.37 0 01.54-.663c.126-.067.253-.133.38-.133.064 0 .127-.033.19-.033.128 0 .191.066.064-.067-.032-.132-.095-.232-.127-.364v.099c.032-.133.095-.232.127-.365-.127.166-.349.2-.54.166-.634-.1-.888.862-.285.995zm-8.316-27.4c.667 1.592.571 3.317.698 5.009.127 2.023-1.047 3.018-2.539 4.047l.667.696c.095-.232.19-.431.254-.663.253-.597-.572-1.095-.826-.498-.095.233-.19.431-.254.664-.158.398.223.995.667.696 1.396-.962 2.888-2.09 3.047-3.98.095-1.095-.095-2.455-.159-3.55-.063-1.028-.317-1.957-.698-2.885-.286-.597-1.08-.1-.857.464zm1.999-.763c.603 3.682 2.92 6.866 6.222 8.392 2.475 1.128 4.92 1.56 5.808 4.644.825 2.952-.222 7.065-3.777 6.999-.603 0-.603.995 0 .995 5.206.133 6.285-7.132 3.523-10.648-1.523-1.957-4.03-2.156-6.03-3.284-2.603-1.525-4.317-4.245-4.825-7.297-.095-.697-1.016-.431-.92.199zm-1.999 18.708c.286 2.455 2.857 2.588 4.634 1.858.572-.232.318-1.194-.254-.962-1.047.431-3.205.862-3.428-.896-.095-.63-1.047-.63-.952 0z" fill="#C20D19"/><path d="M27.2 11.273c.032.597.286 1.194.73 1.592.19.166.476.199.667 0 .158-.166.19-.53 0-.697a1.34 1.34 0 01-.445-.895c-.032-.63-.984-.664-.952 0zm6.792 13.865c1.143 1.625 1.873 4.578-.19 5.805l.666.697c.127-.233.16-.365.127-.598-.063-.63-1.015-.63-.952 0v.1c-.222.431.222.929.667.697 2.539-1.46 2.031-5.076.54-7.165-.382-.564-1.207-.067-.858.464zm-3.65.962c.254.763.445 1.493.572 2.289.095.663.412 2.09-.127 2.488-.73.53-1.397-.664-1.778-1.161a29.317 29.317 0 00-1.301-1.526v.697c.095-.034.19-.1.286-.133.57-.2.349-1.161-.254-.962-.318.1-.445.166-.699.398-.19.166-.158.53 0 .697.984 1.061 2.413 3.98 4.222 2.985.73-.398.793-1.26.762-2.057a15.428 15.428 0 00-.73-3.98c-.223-.597-1.143-.332-.953.265zm-3.841-13.832c.603 0 .603-.995 0-.995s-.603.995 0 .995z" fill="#C20D19"/><path d="M25.898 11.504c.953.166 1.873.232 2.826.133.603-.066.603-1.06 0-.995-.858.1-1.715.067-2.572-.099-.603-.1-.857.829-.254.961z" fill="#C20D19"/><path d="M25.898 10.974c.445-2.952-2.095-4.544-2.951-7.065-.254.166-.54.331-.794.497 1.81 1.692 4.095 3.35 3.714 6.237-.096.63.825.895.92.265.476-3.35-1.777-5.142-3.936-7.198-.317-.299-.952 0-.793.497.762 2.19 3.364 4.047 2.952 6.535-.127.597.793.862.888.232z" fill="#C20D19"/><path d="M27.676 10.344c.064-1.493-.317-2.853-.603-4.312-.38-1.858-.127-3.682-.222-5.573-.286.1-.603.166-.889.265 2.159 3.185 1.746 6.834 1.841 10.549 0 .63.952.63.952 0-.063-3.881.318-7.696-1.968-11.046-.254-.365-.92-.299-.888.265.095 1.659-.127 3.284.095 4.91.254 1.658.825 3.25.73 4.942-.032.63.92.63.952 0zM1.648 29.915c0 2.421 1.206 4.61 3.238 5.805.127.066.253-.133.127-.2-1.968-1.16-3.143-3.25-3.111-5.605-.032-.166-.254-.166-.254 0z" fill="#C20D19"/><path d="M2.125 30.014c.19 2.256 1.618 4.379 3.46 5.474.126.066.253-.133.126-.2-1.777-1.06-3.174-3.117-3.333-5.274-.031-.165-.253-.165-.253 0z" fill="#C20D19"/><path d="M3.076 30.512c.635 1.26 1.206 2.554 2 3.715.286.398.571.763.92 1.095.445.398 1.08.663 1.429 1.127.095.133.286 0 .19-.132-.19-.266-.38-.365-.666-.564a7.53 7.53 0 01-1.714-1.659c-.826-1.127-1.397-2.421-2-3.681-.032-.166-.222-.034-.159.099z" fill="#C20D19"/><path d="M3.933 30.346c.032 2.587 2.825 5.108 5.11 5.573.16.033.223-.2.064-.232-2.158-.465-4.888-2.886-4.92-5.34-.031-.167-.285-.167-.254 0z" fill="#C20D19"/><path d="M5.14 30.81c1.016 2.256 2.793 3.948 5.015 4.843.159.067.19-.199.064-.232-2.159-.862-3.873-2.554-4.857-4.743-.095-.133-.285 0-.222.132z" fill="#C20D19"/><path d="M6.124 30.711c1.048 2.554 3.206 4.379 5.84 4.81.16.033.223-.2.064-.232-2.54-.432-4.666-2.157-5.682-4.644-.063-.133-.285-.067-.222.066z" fill="#C20D19"/><path d="M7.901 30.976c1.175 1.692 3.08 4.379 5.27 4.445.158 0 .158-.232 0-.265-2.064-.066-3.968-2.753-5.08-4.312-.063-.1-.285.033-.19.132z" fill="#C20D19"/><path d="M9.457 30.446c.349 2.488 3.047 4.046 5.173 4.577.159.033.222-.199.064-.232-2.032-.497-4.666-2.023-5.015-4.412 0-.166-.222-.1-.222.067z" fill="#C20D19"/><path d="M10.631 31.076c1.492 1.791 3.396 4.047 5.682 4.71.159.033.222-.199.063-.232-2.222-.663-4.094-2.886-5.555-4.644-.126-.133-.285.066-.19.166zm1.999 0a25.172 25.172 0 004.222 3.682c.127.1.254-.133.127-.2a24.754 24.754 0 01-4.19-3.648c-.127-.1-.285.066-.158.166zm13.015-9.288c.127-.233.285-.431.508-.53.127-.067 0-.3-.127-.2a1.416 1.416 0 00-.604.63c-.031.1.16.232.223.1zm.19 1.128a3.289 3.289 0 01.667-1.526c.095-.133-.064-.299-.159-.166-.38.498-.635 1.028-.73 1.659-.032.1.19.166.222.033zm.222.696c.286-.564.603-1.061.953-1.559.095-.132-.128-.265-.191-.132a15.21 15.21 0 00-.952 1.559c-.096.132.095.265.19.132zm.476 1.128c.286-.564.603-1.128.984-1.659.096-.132-.127-.265-.19-.132-.35.53-.667 1.095-.984 1.659-.095.165.095.298.19.132zm.477 1.924c.444-.896.825-1.824 1.206-2.753.063-.133-.159-.2-.222-.067-.35.93-.762 1.825-1.175 2.72-.095.133.127.233.19.1zm-1.175 1.426c-.127 1.327.444 3.284 1.904 3.55.16.033.223-.2.064-.233-1.333-.265-1.841-2.09-1.714-3.317 0-.165-.222-.165-.254 0z" fill="#C20D19"/><path d="M25.803 28.754a3.817 3.817 0 003.08 2.289c.158 0 .158-.233 0-.266-1.27-.133-2.35-.929-2.857-2.156-.064-.133-.286 0-.223.133z" fill="#C20D19"/><path d="M26.026 28.223a6.39 6.39 0 002.221 2.753c.127.1.254-.132.127-.199a6.2 6.2 0 01-2.158-2.654c-.064-.165-.254-.033-.19.1zm1.015-1.426c.445 1.36 1.111 2.587 2.064 3.648.095.132.285-.067.158-.166-.92-1.028-1.555-2.222-2-3.549-.031-.132-.285-.099-.222.067zm-1.555 3.914c.571.73 1.364 1.227 2.253 1.36.159.033.223-.232.064-.232a3.252 3.252 0 01-2.159-1.294c-.063-.132-.254.033-.158.166z" fill="#C20D19"/><path d="M24.343 30.313c.286.498.762.697 1.301.862.857.299 1.715.498 2.603.664.159.033.222-.2.064-.232-.603-.1-1.238-.266-1.841-.432-.635-.199-1.556-.331-1.905-.995-.095-.132-.317 0-.222.133zm-.349 9.353c.508-.2.952-.43 1.365-.762.127-.1 0-.298-.127-.199-.413.298-.857.563-1.302.729-.126.066-.063.298.064.232z" fill="#C20D19"/><path d="M24.343 39.799c.54-.332 1.08-.63 1.619-.961.127-.067 0-.299-.127-.2-.54.332-1.08.63-1.619.962-.127.066 0 .265.127.199zm.73.101a31.98 31.98 0 002.317-1.294c.127-.1 0-.299-.127-.2-.762.465-1.524.896-2.317 1.294-.159.033-.032.266.127.2zm1.27-.067c.73-.398 1.428-.83 2.158-1.227.127-.067 0-.299-.127-.2-.73.399-1.428.83-2.158 1.228-.127.066-.032.265.127.2zm.539.166a24.309 24.309 0 012.857-1.592c.127-.067.032-.299-.127-.2-.984.465-1.936 1.029-2.857 1.593-.127.066 0 .265.127.199zm.668.199c1.65-.83 3.268-1.659 4.887-2.554.127-.067 0-.299-.127-.2A137.728 137.728 0 0127.422 40c-.127.033-.032.265.127.199zm1.554-.133a99.691 99.691 0 015.968-3.615c.127-.067 0-.299-.127-.2-2.032 1.128-4 2.356-5.968 3.616-.127.066 0 .299.127.2z" fill="#C20D19"/><path d="M30.247 39.932c1.08-.829 2.19-1.592 3.333-2.355.984-.663 2.285-1.26 3.015-2.09-.095.1.064.3.16.166.094-.1.19-.199.253-.298.095-.1-.032-.265-.159-.2a83.995 83.995 0 00-6.76 4.545c-.096.1.031.332.158.232z" fill="#C20D19"/><path d="M31.39 39.468a127.005 127.005 0 005.586-3.715c.127-.1 0-.298-.127-.199a127.214 127.214 0 01-5.586 3.715c-.127.067 0 .299.127.2z" fill="#C20D19"/><path d="M32.215 39.236c1.65-.929 3.333-1.858 4.983-2.82l-.158-.166c-.064.067-.096.166-.159.233-.095.132.127.265.19.132.064-.066.096-.166.16-.232.063-.1-.064-.232-.16-.166-1.65.929-3.332 1.858-4.983 2.82-.127.066-.032.265.127.199zm1.715 0c1.142-.697 2.253-1.426 3.396-2.123.127-.066.031-.265-.096-.232-.158.066-.158.033-.285.199-.096.133.063.298.158.166.064-.034.127-.067.16-.133-.033-.066-.064-.166-.096-.232-1.143.696-2.254 1.426-3.396 2.123-.096.1.031.298.158.232z" fill="#C20D19"/><path d="M33.866 39.7c1.333-.597 2.507-1.426 3.555-2.454.095-.1-.064-.299-.159-.166a11.734 11.734 0 01-3.492 2.42c-.158.067-.063.266.096.2z" fill="#C20D19"/></svg>