<svg width="56" height="53" fill="none" xmlns="http://www.w3.org/2000/svg"><g clip-path="url(#clip0)" fill="#C20D19"><path d="M6.703 26.096c-3.055 1.83-5.345 3.746-6.151 7.364-.849 3.746-.849 6.897.975 10.345 1.74 3.32 4.03 3.576 7.552 3.49 4.963-.127 9.927-.51 14.848-1.149.806-.085.806-1.404 0-1.277-3.436.468-6.83.809-10.309.98-3.054.17-8.4 1.319-10.394-1.618-2.036-2.98-2.29-5.96-1.654-9.408.678-3.747 2.63-5.747 5.77-7.62.72-.426.084-1.49-.637-1.107z"/><path d="M7.594 26.607c6.067-.894 12.133-1.533 18.285-1.831-.043-.426-.127-.851-.17-1.235-5.43 2.001-6.957 8.174-7.594 13.367-.34 2.81.849 4.939 2.715 6.897 1.57 1.66 2.97 3.15 5.219 2 4.581-2.298 10.139-7.279 9.884-12.898-.127-2.81-1.824-4.683-3.775-6.513-1.867-1.746-3.946-3.193-6.576-3.108-.382 0-.594.298-.637.639-.042.212-.042.425-.084.638-.085.809 1.188.809 1.272 0 .043-.213.043-.425.085-.638l-.636.638c3.945-.17 9.036 4.726 9.079 8.685.042 4.64-4.2 8.088-7.68 10.472-1.102.766-2.205 1.532-3.478.809-.721-.384-1.4-1.278-1.951-1.873-1.994-2.172-2.376-4.215-1.867-7.152.721-4.215 1.994-9.153 6.406-10.77.636-.213.594-1.278-.17-1.235-6.236.34-12.43.979-18.624 1.873-.848.128-.509 1.362.297 1.235z"/><path d="M22.273 39.292v-.51c0-.596-.934-.937-1.188-.341-.34.766-.679 2.554.636 2.512.467 0 .849-.34 1.188-.639.382-.298.679-.681.764-1.192.17-.851-.382-1.83-1.315-1.745-1.146.085-1.443 1.234-1.485 2.17 0 .384.424.767.806.597.254-.085.466-.213.594-.511.127-.298.085-.681-.212-.894-.255-.17-.722-.085-.891.213.042-.043.127-.043.17-.085.254.213.55.425.805.596 0-.213 0-.724.213-.852.127-.085.127 0 .084.17-.042.256-.381.469-.594.64-.084.042-.127.084-.212.127.297.255.425.255.382 0 .085-.17.043-.383.127-.596-.381-.128-.806-.213-1.188-.34v.51c.043.98 1.316.98 1.316.17zm-.637-7.109c-.381.681-.975 2.171-.084 2.725.806.51 1.739-.34 2.206-.937.551-.638 1.018-1.66.254-2.341a1.181 1.181 0 00-1.23-.213c-.382.17-.594.51-.933.681-.722.426-.085 1.532.636 1.107.17-.085.721-.426.764-.596-.043-.043-.085-.043-.128-.085v.17c-.127.128-.212.34-.34.51-.127.129-.254.299-.381.426a.924.924 0 01-.212.128c-.212.043-.17.17.212.34.042-.042.085-.553.085-.638.042-.213.127-.425.254-.596.382-.723-.72-1.362-1.103-.68zm3.777-4.342c-.382.383-.721.894-.637 1.49.085.51.552.894 1.061.894.552.042 1.018-.298 1.485-.596.466-.34 1.103-.639 1.357-1.235.213-.468.085-.979-.297-1.32-.424-.34-1.06-.255-1.57-.084-1.102.383-1.781 1.362-2.375 2.298-.467.681.636 1.32 1.103.639.424-.681.976-1.533 1.782-1.788.085-.043.17-.043.254-.043 0-.255-.085-.298-.254-.085-.212.085-.424.298-.636.426-.17.128-.425.213-.552.34-.17 0-.212.086-.085.17.085-.127.127-.212.255-.34.551-.468-.34-1.362-.891-.766zM24.14 38.782c-.213.68-.425 1.32-.595 2-.127.554.085 1.107.68 1.235.466.128 1.102-.043 1.526-.17.51-.17 1.018-.468 1.358-.937.551-.809.467-2.086-.51-2.554-1.06-.51-2.163.17-2.672 1.107-.424.724.679 1.362 1.103.638.17-.298.594-.851 1.018-.638.382.213 0 .724-.212.894a2.214 2.214 0 01-.679.255c-.127.043-.254.043-.381.085-.043 0-.128 0-.17.043.085.085.17.213.212.298.127-.085.212-.809.255-.937.084-.34.212-.68.296-1.021.255-.767-.975-1.107-1.23-.298zm4.582-5.705c-.594.639-2.08 2.47-.68 3.108 1.061.51 2.504-.511 3.098-1.363.509-.723 1.188-2.724-.212-2.894-.68-.085-1.146.468-1.57.936-.636.681-1.273 1.405-1.91 2.086-.55.596.34 1.49.892.894l1.654-1.788c.085-.127.806-.723.764-.809a.879.879 0 01-.255-.17c0 .085-.042.17-.042.298a1.28 1.28 0 01-.17.426c-.254.51-.72.936-1.23 1.107-.085.042-.17.042-.255.085-.084 0-.127.042-.042.085-.042.213.255-.298.255-.298.17-.298.424-.596.636-.852.551-.553-.382-1.447-.933-.85zm14.466 7.407c-3.054.043-6.109.426-9.036 1.235-2.334.639-5.473 1.447-7.297 3.15-1.23 1.107-1.4 2.767-.085 3.917 1.57 1.404 4.412 1.49 6.406 1.575 4.71.213 11.667-.937 14.764-4.981 1.145-1.49 1.4-3.278-.297-4.427-2.164-1.448-5.091-.724-7.34-.043-.763.256-.466 1.49.34 1.235.89-.298 1.824-.554 2.757-.639 1.315-.17 5.049-.255 3.86 2.725-.55 1.404-2.672 2.34-3.945 2.937-3.393 1.532-7.17 2.171-10.86 1.916-.933-.086-6.958-.426-4.667-3.278 1.018-1.235 3.521-1.788 4.921-2.256 3.394-1.15 6.915-1.703 10.522-1.746.763-.043.763-1.32-.043-1.32z"/><path d="M29.994 50.19c0 .937.424 1.448 1.273 1.788 1.824.724 4.37.596 6.279.767 4.412.383 8.909.468 13.278-.511 2.249-.511 5.346-1.618 5.134-4.47-.297-3.661-4.964-4.428-7.806-4.64-.806-.043-.806 1.234 0 1.277 1.4.085 2.842.298 4.157.851 1.994.851 3.48 3.32.976 4.853-2.079 1.235-5.006 1.405-7.34 1.575-1.611.128-14.678.34-14.678-1.447 0-.894-1.273-.894-1.273-.043zm.042-4.47c-.255.426-.297.852-.17 1.363.043.213.255.383.425.425.806.17 1.654.128 2.418-.212.636-.298 1.485-.894 1.188-1.746-.255-.68-1.23-.766-1.867-.723-.679.042-1.4.255-1.824.808-.51.639.382 1.533.89.894.213-.255.383-.383.722-.425.17-.043.34-.043.509 0 .085 0 .382.085.424.042.043-.34 0-.425-.127-.298-.085.043-.127.128-.212.17-.17.086-.34.17-.51.213a2.581 2.581 0 01-1.272.043l.424.426c-.042-.128-.042-.256.043-.341.466-.724-.637-1.362-1.06-.639zm8.655-.936c.297-.17.594-.34.849-.51.297-.171.382-.597.212-.895-.17-.298-.594-.383-.891-.213-.297.17-.594.34-.848.511-.297.17-.382.596-.213.894a.677.677 0 00.891.213z"/><path d="M43.527 43.762a2.196 2.196 0 00-1.443 1.363c-.17.425.255.808.594.808 1.146.043 2.207-.766 2.461-1.873.127-.468-.297-.936-.764-.766-.509.17-1.06.34-1.57.51-.763.256-.423 1.49.34 1.235.51-.17 1.06-.34 1.57-.51l-.764-.767c-.127.596-.636.937-1.23.937.212.255.424.553.594.809.085-.256.34-.383.551-.469.806-.255.467-1.49-.339-1.277zm-7.084 3.831c.127.937.976 1.022 1.74.894.848-.127 1.484-.808 1.314-1.702-.042-.298-.34-.469-.594-.469-.678 0-1.4.256-1.824.81-.212.255-.255.638 0 .893.212.213.679.256.891 0 .255-.298.552-.468.933-.425-.212-.17-.424-.299-.594-.469-.042-.127 0 0-.042 0-.127.043-.212.085-.297.085-.085 0-.212 0-.297.043-.17.085-.085-.085 0 .085.042.128.042.213.085.34v-.084c-.043-.341-.255-.639-.637-.639-.339 0-.72.298-.678.639zm14.084-2.511c-.933-.34-1.994.255-2.248 1.192a.644.644 0 00.424.766c.466.17.976.17 1.442 0 .424-.128.976-.425 1.146-.894.17-.51-.17-.979-.679-1.107-.51-.127-1.018.085-1.443.298-.296.128-.381.596-.212.894.17.298.552.383.891.213l.382-.128c.34-.085.085.043-.042-.17-.043-.127-.043-.213-.085-.34.085-.17.085-.213 0-.128-.043 0-.085.043-.085.043a2.93 2.93 0 01-.34.127c-.211.043-.381 0-.593-.042.127.255.297.51.424.766.085-.298.424-.383.679-.298.763.34 1.103-.894.34-1.192zm-5.175 5.449c.636.128 1.4.043 1.866-.426.51-.51.255-1.277-.424-1.404-1.23-.256-2.545.553-3.012 1.66-.34.766.764 1.405 1.103.638.17-.383.382-.638.721-.851.17-.085.34-.17.51-.17.084 0 .169-.043.254-.043.17 0 .254.085.085-.085-.043-.17-.128-.298-.17-.468v.127c.042-.17.127-.298.17-.468-.17.213-.467.256-.722.213-.848-.128-1.188 1.107-.381 1.277zm7.254-2.426c-.467.042-.806.212-1.06.595-.128.213-.085.511.042.724.17.213.424.298.679.213.424-.085.763-.383.975-.724.213-.34 0-.851-.381-.936-.594-.128-1.23-.043-1.74.34-.297.213-.424.554-.212.894.17.298.594.426.891.213.255-.17.509-.255.764-.213-.128-.298-.255-.638-.382-.936-.043.085-.043.085-.043.042-.042.043-.085.043-.042.043-.085.042-.085.042-.043.042-.042 0-.084.043-.127.043.255.298.467.639.721.937-.042.042-.042 0 0 0h-.042c.34-.043.636-.256.636-.639 0-.298-.297-.639-.636-.639zm-18.37-32.737c.891 2.043.764 4.257.934 6.428.17 2.597-1.4 3.874-3.394 5.194l.89.894c.128-.299.255-.554.34-.852.34-.766-.764-1.405-1.103-.639-.127.299-.255.554-.34.852-.211.51.298 1.277.892.894 1.866-1.235 3.86-2.682 4.072-5.108.128-1.405-.127-3.15-.212-4.555-.085-1.32-.424-2.512-.933-3.704-.382-.766-1.443-.128-1.146.596zm2.674-.979c.806 4.725 3.903 8.812 8.315 10.77 3.309 1.447 6.575 2 7.763 5.96 1.103 3.788-.297 9.067-5.048 8.982-.806 0-.806 1.277 0 1.277 6.958.17 8.4-9.153 4.709-13.665-2.036-2.512-5.388-2.767-8.06-4.214-3.48-1.959-5.77-5.45-6.45-9.366-.126-.894-1.357-.553-1.23.256zm-2.674 24.009c.382 3.15 3.819 3.32 6.194 2.384.764-.298.425-1.532-.339-1.234-1.4.553-4.285 1.107-4.582-1.15-.127-.809-1.4-.809-1.273 0z"/><path d="M36.358 14.602c.042.766.381 1.532.975 2.043.255.213.637.256.891 0 .212-.213.255-.681 0-.894a1.696 1.696 0 01-.594-1.15c-.042-.808-1.315-.85-1.273 0zm9.078 17.794c1.528 2.086 2.503 5.874-.254 7.45l.89.894c.17-.298.213-.469.17-.767-.084-.809-1.357-.809-1.272 0v.128c-.297.553.297 1.192.89.894 3.395-1.873 2.716-6.513.722-9.195-.51-.724-1.612-.085-1.146.596zm-4.879 1.234c.34.98.594 1.916.764 2.938.127.851.551 2.682-.17 3.193-.976.68-1.867-.852-2.376-1.49-.551-.681-1.145-1.32-1.739-1.958v.894c.127-.043.255-.128.382-.17.763-.256.467-1.49-.34-1.235-.424.127-.594.213-.933.51-.255.213-.212.682 0 .895 1.315 1.362 3.224 5.108 5.642 3.83.976-.51 1.061-1.617 1.019-2.639a19.098 19.098 0 00-.976-5.108c-.297-.766-1.527-.426-1.273.34zm-5.133-17.751c.806 0 .806-1.277 0-1.277s-.806 1.277 0 1.277z"/><path d="M34.618 14.9c1.273.213 2.503.298 3.776.17.806-.085.806-1.362 0-1.277a11.627 11.627 0 01-3.436-.128c-.806-.128-1.146 1.064-.34 1.235z"/><path d="M34.618 14.218c.594-3.788-2.8-5.832-3.946-9.067-.339.213-.72.426-1.06.639 2.418 2.17 5.473 4.3 4.964 8.003-.128.809 1.103 1.15 1.23.34.636-4.3-2.376-6.598-5.26-9.237-.425-.384-1.273 0-1.061.638 1.018 2.81 4.497 5.194 3.945 8.386-.17.767 1.06 1.107 1.188.298z"/><path d="M36.994 13.41c.085-1.916-.424-3.661-.806-5.534-.509-2.384-.17-4.726-.297-7.152-.382.127-.806.213-1.188.34 2.885 4.087 2.334 8.77 2.46 13.538 0 .809 1.274.809 1.274 0-.085-4.981.424-9.877-2.63-14.176-.34-.468-1.231-.383-1.189.34.128 2.129-.17 4.215.128 6.3.34 2.13 1.103 4.173.975 6.344-.042.809 1.23.809 1.273 0zM2.206 38.526c0 3.108 1.612 5.917 4.327 7.45.17.085.34-.17.17-.255-2.63-1.49-4.2-4.172-4.158-7.195-.042-.213-.339-.213-.339 0z"/><path d="M2.843 38.654c.254 2.895 2.163 5.62 4.624 7.024.17.085.34-.17.17-.255-2.376-1.363-4.243-4.002-4.455-6.77-.042-.212-.34-.212-.34 0z"/><path d="M4.115 39.292c.848 1.618 1.612 3.278 2.673 4.768.381.511.763.98 1.23 1.405.594.511 1.442.852 1.909 1.448.127.17.382 0 .255-.17-.255-.341-.51-.469-.891-.724A9.895 9.895 0 017 43.89c-1.103-1.447-1.867-3.108-2.673-4.725-.042-.213-.297-.043-.212.127z"/><path d="M5.26 39.08c.043 3.32 3.776 6.555 6.83 7.151.213.043.298-.255.086-.298C9.29 45.337 5.642 42.23 5.6 39.08c-.043-.213-.382-.213-.34 0z"/><path d="M6.872 39.676c1.358 2.894 3.734 5.066 6.704 6.215.212.085.254-.255.084-.298-2.885-1.107-5.175-3.278-6.49-6.088-.128-.17-.382 0-.298.17z"/><path d="M8.188 39.548c1.4 3.278 4.285 5.62 7.806 6.172.212.043.297-.255.085-.297a9.943 9.943 0 01-7.594-5.96c-.085-.17-.382-.085-.297.085z"/><path d="M10.563 39.888c1.57 2.171 4.116 5.62 7.043 5.705.212 0 .212-.298 0-.34-2.758-.086-5.303-3.534-6.788-5.535-.085-.128-.382.043-.255.17z"/><path d="M12.643 39.207c.466 3.193 4.072 5.194 6.915 5.875.212.042.297-.255.085-.298-2.716-.639-6.237-2.597-6.704-5.662 0-.213-.296-.128-.296.085z"/><path d="M14.212 40.016c1.994 2.299 4.54 5.194 7.594 6.045.212.043.297-.255.084-.298-2.97-.851-5.472-3.703-7.424-5.96-.17-.17-.382.085-.254.213zm2.673 0a33.266 33.266 0 005.642 4.725c.17.128.34-.17.17-.255-2.037-1.362-3.903-2.895-5.6-4.683-.17-.127-.382.085-.212.213zm17.395-11.92c.169-.298.381-.553.678-.68.17-.086 0-.384-.17-.256-.34.17-.636.468-.806.809-.042.127.212.298.297.127zm.253 1.448a4.138 4.138 0 01.891-1.959c.128-.17-.084-.383-.212-.212-.509.638-.848 1.32-.975 2.128-.043.128.254.213.296.043zm.297.894c.382-.724.806-1.363 1.273-2.001.127-.17-.17-.34-.255-.17a19.87 19.87 0 00-1.272 2c-.128.17.127.34.254.17zm.637 1.447a15.99 15.99 0 011.315-2.128c.127-.17-.17-.34-.254-.17-.467.68-.891 1.404-1.316 2.128-.127.213.128.383.255.17zm.636 2.469c.594-1.15 1.103-2.341 1.612-3.533.085-.17-.212-.256-.297-.085-.466 1.192-1.018 2.341-1.57 3.49-.127.17.17.298.255.128zm-1.569 1.831c-.17 1.703.594 4.214 2.545 4.555.212.042.297-.256.085-.298-1.782-.34-2.46-2.682-2.29-4.257 0-.213-.298-.213-.34 0z"/><path d="M34.49 37.036c.764 1.66 2.292 2.725 4.116 2.938.212 0 .212-.298 0-.341-1.697-.17-3.14-1.192-3.818-2.767-.085-.17-.382 0-.297.17z"/><path d="M34.788 36.355c.636 1.447 1.654 2.64 2.97 3.533.169.128.339-.17.169-.255a8.032 8.032 0 01-2.885-3.406c-.085-.213-.34-.042-.254.128zm1.357-1.831c.594 1.746 1.485 3.32 2.758 4.683.127.17.382-.085.212-.213-1.23-1.32-2.079-2.852-2.673-4.555-.042-.17-.382-.127-.297.085zm-2.079 5.024c.764.936 1.825 1.575 3.012 1.745.212.043.297-.298.085-.298-1.145-.17-2.163-.723-2.885-1.66-.084-.17-.339.043-.212.213z"/><path d="M32.54 39.037c.382.639 1.018.894 1.74 1.107 1.145.383 2.29.638 3.478.851.212.043.297-.255.085-.298-.806-.128-1.655-.34-2.46-.553-.85-.256-2.08-.426-2.546-1.277-.128-.17-.424 0-.297.17zm14.38-6.897c1.231 1.874 1.4 4.172.468 6.216-.085.17.17.34.254.17.976-2.17.806-4.555-.467-6.513-.084-.213-.381-.043-.254.128z"/><path d="M49.127 32.268c.891 2.384-.042 4.64-1.484 6.556-.128.17.17.34.254.17 1.485-2 2.46-4.342 1.527-6.81-.084-.214-.381-.129-.297.084z"/><path d="M51.248 30.991c.255 3.065-.933 5.917-3.224 7.96-.17.129.085.341.212.214 2.376-2.044 3.607-5.024 3.352-8.174-.043-.213-.34-.213-.34 0z"/><path d="M52.351 32.396c.382 2.256-1.357 6.002-3.606 6.854-.17.085-.127.383.085.298 2.46-.937 4.243-4.726 3.818-7.237 0-.213-.339-.128-.297.085z"/><path d="M53.624 34.014c-.806 3.107-3.097 5.534-6.152 6.47-.212.043-.127.383.085.298a9.414 9.414 0 006.364-6.726c.042-.17-.255-.255-.297-.042z"/><path d="M47.897 39.675a7.473 7.473 0 00-1.909.767c-.127.085-.085.298.085.298 1.4-.17 2.758-.469 4.073-.98.17-.085.127-.34-.085-.297-.976.212-1.91.425-2.885.723-.17.043-.127.298.042.298.552.043 1.019-.085 1.528-.34.084-.043.127-.213 0-.256-.382-.17-.68-.127-1.019.128-.084.085 0 .255.128.255.382 0 .72-.085 1.103-.212.17-.086.085-.298-.085-.298-.636 0-1.188.085-1.782.255-.212.043-.127.34.085.298a44.02 44.02 0 002.29-.553c.213-.043.128-.384-.084-.298-.764.212-1.527.383-2.29.553.041.085.041.213.084.298.551-.17 1.103-.213 1.697-.213-.042-.085-.042-.213-.085-.298-.297.128-.594.213-.933.17l.127.256c.212-.043.424-.043.636-.085v-.256c-.466.256-.848.34-1.357.298 0 .085.042.213.042.298.934-.298 1.91-.553 2.885-.723-.042-.086-.042-.213-.085-.298-1.273.51-2.588.851-3.988.979.043.085.043.212.085.298a7.556 7.556 0 011.824-.767c.17-.042.085-.34-.127-.298zM32.073 51.042c.679-.256 1.273-.554 1.824-.98.17-.127 0-.382-.17-.255-.551.383-1.145.724-1.739.937-.17.085-.085.383.085.298z"/><path d="M32.54 51.212c.721-.426 1.442-.809 2.163-1.235.17-.085 0-.383-.17-.255-.72.426-1.442.809-2.163 1.235-.17.085 0 .34.17.255zm.975.128a43.287 43.287 0 003.097-1.66c.17-.128 0-.384-.17-.256a43.287 43.287 0 01-3.096 1.66c-.213.043-.043.34.17.256zm1.697-.085c.976-.511 1.91-1.065 2.885-1.575.17-.086 0-.383-.17-.256-.975.511-1.909 1.064-2.885 1.575-.17.085-.042.34.17.256zm.721.212a32.91 32.91 0 013.819-2.043c.17-.085.042-.383-.17-.255-1.315.596-2.588 1.32-3.818 2.043-.17.085 0 .34.17.255zm.892.256c2.206-1.064 4.37-2.129 6.533-3.278.17-.085 0-.383-.17-.255-2.163 1.149-4.327 2.213-6.533 3.278-.17.042-.043.34.17.255zm2.078-.17a134.409 134.409 0 017.976-4.64c.17-.086 0-.384-.17-.256-2.715 1.448-5.345 3.023-7.976 4.64-.17.085 0 .383.17.256z"/><path d="M40.43 51.382c1.443-1.064 2.928-2.043 4.455-3.022 1.315-.852 3.055-1.618 4.03-2.682-.127.128.085.383.212.213.128-.128.255-.256.34-.383.127-.128-.043-.34-.212-.256a112.696 112.696 0 00-9.037 5.832c-.127.128.043.426.212.298z"/><path d="M41.958 50.786a170.812 170.812 0 007.466-4.767c.17-.128 0-.384-.17-.256a170.812 170.812 0 01-7.466 4.768c-.17.085 0 .383.17.255z"/><path d="M43.06 50.488c2.207-1.192 4.455-2.384 6.661-3.618l-.212-.213c-.084.085-.127.213-.212.298-.127.17.17.34.255.17.085-.085.127-.212.212-.298.085-.127-.085-.298-.212-.212-2.206 1.191-4.455 2.383-6.66 3.618-.17.085-.043.34.169.255zm2.291 0c1.528-.894 3.012-1.83 4.54-2.724.17-.085.042-.34-.128-.298-.212.085-.212.042-.381.255-.128.17.084.384.212.213.085-.042.17-.085.212-.17-.043-.085-.085-.213-.127-.298-1.528.894-3.013 1.83-4.54 2.724-.127.128.043.384.212.298z"/><path d="M45.267 51.084c1.781-.766 3.351-1.83 4.751-3.15.127-.128-.085-.383-.212-.213-1.358 1.32-2.927 2.342-4.667 3.108-.212.085-.085.34.128.255zm3.649-5.619c.551-.213 1.06-.51 1.485-.936.127-.128-.085-.384-.213-.213a3.498 3.498 0 01-1.357.851c-.17.043-.085.383.085.298z"/><path d="M48.873 45.21a7.98 7.98 0 01-1.443.383c.043.085.085.213.127.298a11.37 11.37 0 002.206-1.277c.17-.128 0-.383-.17-.256-.678.511-1.4.937-2.205 1.277-.17.086-.043.298.127.298.51-.085.976-.17 1.442-.383.17-.127.085-.425-.084-.34z"/></g><defs><clipPath id="clip0"><path fill="#fff" d="M0 0h56v53H0z"/></clipPath></defs></svg>