<svg width="23" height="49" fill="none" xmlns="http://www.w3.org/2000/svg"><g clip-path="url(#clip0)" fill="#FF9103"><path d="M7.652 35.852c1.755.227 3.645-.137 5.356-.546 1.215-.319 2.7-.683 3.6-1.684 1.036-1.183.136-1.82-1.125-1.956-2.835-.273-5.626.273-8.191 1.365-.81.318-.45 1.638.36 1.32 1.8-.774 3.69-1.275 5.626-1.366.36 0 2.16-.136 2.25-.09-.045-.046-.63.318-.945.454-2.025.865-4.68 1.41-6.886 1.092-.9-.045-.9 1.32-.045 1.41z"/><path d="M15.573 33.395c.225 5.277 1.486 11.328 6.437 14.104.765.41 1.44-.774.675-1.183-4.501-2.503-5.536-8.144-5.761-12.921-.045-.91-1.396-.91-1.35 0zm-9.452.455c.225 5.277 1.486 11.328 6.437 14.103.765.41 1.44-.773.675-1.182-4.501-2.503-5.536-8.144-5.761-12.921-.046-.91-1.396-.91-1.35 0zm.18-6.961c-.765 1.183.36 2.32 1.53 2.502 1.126.182 2.566-.318 2.926-1.547.36-1.365-.765-2.502-2.025-2.639-.945-.09-2.97.455-2.296 1.82.18.41.765.046.585-.364-.27-.455.63-.682.9-.728.45-.09.99-.045 1.396.182.72.41 1.035 1.32.495 2.002-.36.455-.99.637-1.53.637-.766 0-2.07-.546-1.44-1.547.27-.364-.316-.682-.54-.318zm7.292-6.37c-1.17.91-2.386 2.684-1.35 4.14.945 1.365 3.06 1.82 4.546 1.229 1.395-.546 2.34-2.139 1.71-3.595-.765-1.91-3.06-2.092-4.771-2.092-.18 0-.315.136-.36.363v.319c0 .455.675.455.675 0v-.319l-.36.364c1.08 0 2.25 0 3.196.592 1.485.91 1.395 2.866-.135 3.685-1.036.546-3.061.364-3.826-.637-.945-1.274.045-2.639 1.125-3.503.36-.319-.09-.819-.45-.546zM.945 10.92c-1.395 2.456-1.44 5.823 1.17 7.506 2.296 1.502 6.437 1.456 8.057-1.046 1.53-2.411-.18-5.141-2.475-6.188-1.35-.637-2.88-.773-4.366-.773-.9 0-2.07-.228-2.43.773-.136.41.494.592.63.182.36-.955 4.68-.045 5.4.228 2.251.819 4.231 3.275 2.476 5.641-1.395 1.866-4.771 1.866-6.706.728-2.476-1.41-2.43-4.504-1.17-6.733.18-.364-.36-.728-.586-.319zm13.728.59c.63 1.184 2.07 1.82 3.286 1.184.945-.5 1.89-2.002 1.08-3.003-.72-.865-2.746-.956-3.646-.364-.9.591-1.26 2.457-.315 3.14.36.272.675-.32.36-.592-.315-.228-.225-.82-.135-1.138.18-.637.495-.955 1.125-1 .585-.046 1.666-.092 2.116.409.72.773-.495 1.956-1.215 2.138-.856.182-1.666-.318-2.026-1.046-.225-.455-.81-.137-.63.273zM4.68 5.642c-1.08 4.185 6.977 3.275 5.987-.5-.54-1.912-2.97-1.912-4.456-1.32-1.305.5-2.52 2.275-1.08 3.458.315.272.81-.228.495-.501-1.17-.955.18-2.138 1.125-2.411 1.08-.364 2.88-.41 3.241 1 .72 2.73-5.401 3.458-4.636.501.045-.455-.585-.637-.675-.227zm6.888-3.913c.045.591-.136 1.274.27 1.729.45.546 1.395.637 2.025.682 1.305 0 3.15-.637 3.286-2.184C17.284.455 15.753.046 14.583 0c-.81-.046-1.665 0-2.34.5-.72.546-1.17 1.502-1.666 2.184-.27.364.315.683.585.364.54-.773 1.08-1.956 2.026-2.275.585-.182 1.845-.182 2.385.046 1.126.5.81 1.774.045 2.23-.45.272-1.035.409-1.575.409-.63 0-1.575-.046-1.8-.774-.09-.273.045-.682 0-.955 0-.41-.675-.41-.675 0z"/><path d="M7.517 38.581a7.002 7.002 0 002.745 1.32c.225.045.315-.273.09-.319a6.909 6.909 0 01-2.61-1.228c-.135-.137-.36.09-.225.227zm.225-1.365c.81 1.001 1.89 1.547 3.15 1.684.226 0 .226-.319 0-.364-1.17-.091-2.16-.683-2.925-1.547-.135-.182-.36.09-.225.227zm.135-.91a4.479 4.479 0 002.835 1.32c.225 0 .225-.319 0-.364-.99-.091-1.89-.5-2.565-1.229-.18-.09-.45.137-.27.273zm.09-1.136c.81.773 1.8 1.227 2.926 1.227.225 0 .225-.318 0-.364-1.036 0-1.936-.409-2.656-1.137-.18-.136-.405.137-.27.273zm.405 5.14c.945.5 1.89.91 2.925 1.137.225.046.315-.273.09-.318a12.769 12.769 0 01-2.835-1.137c-.225-.091-.36.182-.18.318z"/><path d="M8.012 40.492a3.955 3.955 0 004.006 1.32c.225-.046.135-.364-.09-.319-1.35.364-2.746-.136-3.646-1.228-.18-.182-.405.09-.27.227z"/><path d="M8.777 41.766a7.094 7.094 0 002.97 1.501c.225.046.316-.273.09-.318-1.08-.227-2.025-.682-2.835-1.41-.135-.137-.405.09-.225.227zm.135 1.41c.9.592 1.935.956 3.016.956.225 0 .225-.319 0-.364a5.66 5.66 0 01-2.836-.91c-.18-.091-.36.182-.18.318z"/><path d="M9.362 44.086a9.022 9.022 0 004.366.956c.225 0 .225-.364 0-.364-1.485.045-2.88-.228-4.186-.91-.18-.091-.36.182-.18.318zm1.171 1.593a4.031 4.031 0 003.42.773c.225-.045.135-.364-.09-.318-1.08.227-2.205 0-3.105-.683-.135-.136-.405.091-.225.228zm1.034 1.501c.226 0 .226-.364 0-.364-.18 0-.225.364 0 .364zm.811.91c.225 0 .225-.364 0-.364s-.225.364 0 .364zm.765.91c.225 0 .225-.364 0-.364-.225.046-.225.364 0 .364zM2.295 13.058c-.36 1.091-.675 2.502.225 3.412.9.91 2.476.91 3.691 1.046.225.046.225-.318 0-.364-.99-.136-2.25-.136-3.106-.682-1.17-.774-.81-2.23-.45-3.321.045-.182-.27-.273-.36-.091zm3.466-7.917c-.405.728-.54 1.502-.36 2.32.045.228.36.137.315-.09-.135-.728 0-1.41.36-2.048.045-.182-.225-.364-.315-.182zm6.662-3.231c.18.592.495 1.047.945 1.457.18.136.405-.091.225-.228a2.47 2.47 0 01-.855-1.274c-.045-.273-.36-.182-.315.046zm3.105 8.69c-.225.183-.36.456-.405.774-.045.228.315.319.315.091.045-.227.135-.455.315-.591.135-.182-.09-.41-.225-.273zm-1.665 11.102c-.27.637-.675 1.32-.495 2.047.09.5.405.91.9 1.047.225.045.315-.273.09-.319-1.305-.273-.45-1.956-.18-2.684.09-.182-.225-.273-.315-.091zm-6.886 5.414c.09.819.9 1.41 1.71 1.274.225-.046.135-.364-.09-.319-.585.091-1.215-.364-1.26-.955-.045-.227-.36-.227-.36 0z"/></g><defs><clipPath id="clip0"><path fill="#fff" d="M0 0h23v49H0z"/></clipPath></defs></svg>