<svg width="31" height="66" fill="none" xmlns="http://www.w3.org/2000/svg"><g clip-path="url(#clip0)" fill="#FF9103"><path d="M10.313 48.29c2.366.306 4.914-.184 7.219-.736 1.638-.429 3.64-.919 4.853-2.267 1.395-1.593.182-2.451-1.517-2.635-3.821-.368-7.583.367-11.04 1.838-1.093.43-.607 2.206.485 1.777 2.426-1.041 4.974-1.716 7.583-1.838.485 0 2.912-.184 3.033-.123-.06-.06-.85.43-1.274.613-2.73 1.165-6.309 1.9-9.282 1.471-1.213-.061-1.213 1.777-.06 1.9z"/><path d="M20.99 44.98c.303 7.11 2.002 15.26 8.675 18.998 1.031.551 1.941-1.042.91-1.594-6.067-3.37-7.462-10.969-7.765-17.404-.06-1.225-1.88-1.225-1.82 0zm-12.74.613c.304 7.109 2.002 15.26 8.676 18.998 1.031.551 1.94-1.042.91-1.594-6.067-3.37-7.462-10.97-7.765-17.404-.061-1.225-1.881-1.225-1.82 0zm.243-9.376c-1.032 1.593.485 3.126 2.062 3.37 1.517.246 3.458-.428 3.944-2.083.485-1.838-1.032-3.37-2.73-3.554-1.274-.123-4.004.613-3.094 2.451.242.552 1.031.061.788-.49-.364-.613.85-.92 1.214-.98.606-.123 1.334-.062 1.88.244.971.552 1.396 1.778.668 2.697-.486.613-1.335.858-2.063.858-1.031 0-2.79-.736-1.941-2.084.364-.49-.425-.919-.728-.429zm9.827-8.579c-1.577 1.226-3.215 3.616-1.82 5.577 1.274 1.838 4.126 2.45 6.128 1.654 1.88-.735 3.154-2.88 2.305-4.841-1.031-2.574-4.125-2.819-6.43-2.819-.243 0-.425.184-.486.49v.43c0 .612.91.612.91 0v-.43l-.485.49c1.456 0 3.033 0 4.307.797 2.002 1.226 1.88 3.86-.182 4.964-1.395.735-4.125.49-5.157-.858-1.273-1.716.061-3.554 1.517-4.719.485-.429-.121-1.103-.607-.735zM1.274 14.708c-1.88 3.309-1.942 7.844 1.577 10.111 3.094 2.022 8.675 1.961 10.86-1.41 2.062-3.247-.244-6.924-3.338-8.334-1.82-.858-3.882-1.041-5.884-1.041-1.213 0-2.79-.307-3.276 1.041-.182.552.667.797.85.245.485-1.286 6.309-.06 7.28.307 3.033 1.103 5.702 4.412 3.336 7.599-1.88 2.512-6.43 2.512-9.04.98-3.336-1.9-3.275-6.067-1.577-9.07.243-.49-.485-.98-.788-.428zm18.503.796c.85 1.594 2.79 2.452 4.429 1.594 1.274-.675 2.548-2.697 1.456-4.045-.971-1.164-3.7-1.287-4.914-.49-1.213.796-1.699 3.309-.425 4.228.485.368.91-.429.485-.796-.424-.307-.303-1.104-.181-1.533.242-.857.667-1.287 1.516-1.348.789-.061 2.245-.122 2.851.552.971 1.042-.667 2.635-1.638 2.88-1.152.245-2.244-.429-2.73-1.41-.303-.612-1.091-.183-.849.368zM6.309 7.599c-1.456 5.638 9.403 4.412 8.068-.674-.728-2.574-4.004-2.574-6.006-1.777-1.759.674-3.397 3.064-1.456 4.657.425.368 1.092-.306.668-.674-1.577-1.287.242-2.88 1.516-3.248 1.456-.49 3.883-.551 4.368 1.348.971 3.677-7.28 4.658-6.248.674.06-.612-.789-.858-.91-.306zm9.281-5.27c.061.796-.181 1.716.364 2.328.607.736 1.881.858 2.73.92 1.76 0 4.247-.858 4.429-2.942C23.295.613 21.233.061 19.655 0 18.563-.061 17.41 0 16.5.674c-.97.735-1.577 2.022-2.244 2.942-.364.49.425.919.788.49.729-1.042 1.456-2.635 2.73-3.064.79-.245 2.488-.245 3.216.061 1.516.674 1.092 2.39.06 3.003-.606.368-1.395.551-2.123.551-.85 0-2.123-.06-2.427-1.041-.12-.368.061-.92 0-1.287 0-.552-.91-.552-.91 0z"/><path d="M10.131 51.967a9.442 9.442 0 003.7 1.777c.304.061.426-.368.122-.43-1.274-.306-2.487-.857-3.518-1.654-.182-.184-.486.123-.304.307zm.303-1.839c1.092 1.349 2.548 2.084 4.247 2.268.303 0 .303-.43 0-.49-1.578-.123-2.912-.92-3.944-2.084-.182-.245-.485.122-.303.306zm.182-1.226a6.038 6.038 0 003.822 1.778c.303 0 .303-.43 0-.49-1.335-.123-2.548-.675-3.458-1.655-.242-.123-.607.184-.364.367zm.122-1.532c1.092 1.042 2.427 1.655 3.943 1.655.304 0 .304-.429 0-.49-1.395 0-2.608-.552-3.579-1.532-.242-.184-.546.184-.364.367zm.545 6.925c1.274.674 2.548 1.226 3.944 1.532.303.062.424-.367.12-.429-1.334-.367-2.608-.858-3.821-1.532-.303-.122-.485.245-.243.43z"/><path d="M10.799 54.54a5.333 5.333 0 005.399 1.778c.303-.062.182-.49-.121-.43-1.82.49-3.701-.183-4.914-1.654-.243-.245-.546.122-.364.306z"/><path d="M11.83 56.256a9.564 9.564 0 004.004 2.022c.303.062.424-.367.121-.428-1.456-.307-2.73-.92-3.822-1.9-.182-.184-.546.122-.303.306zm.182 1.9c1.213.797 2.608 1.287 4.064 1.287.304 0 .304-.429 0-.49a7.637 7.637 0 01-3.822-1.226c-.242-.122-.485.245-.242.43z"/><path d="M12.618 59.382c1.82.919 3.822 1.348 5.885 1.287.303 0 .303-.49 0-.49-2.002.06-3.883-.307-5.642-1.226-.243-.123-.486.245-.243.429zm1.578 2.144a5.436 5.436 0 004.61 1.042c.304-.061.183-.49-.12-.429a5.136 5.136 0 01-4.187-.919c-.182-.184-.546.123-.303.306zm1.395 2.023c.303 0 .303-.49 0-.49-.242 0-.303.49 0 .49zm1.092 1.225c.303 0 .303-.49 0-.49-.304 0-.304.49 0 .49zM17.714 66c.303 0 .303-.49 0-.49-.303.061-.303.49 0 .49zM3.094 17.588c-.486 1.47-.91 3.37.303 4.596 1.213 1.225 3.336 1.225 4.974 1.41.304.06.304-.43 0-.491-1.334-.184-3.033-.184-4.185-.92-1.578-1.041-1.092-3.002-.607-4.473.06-.245-.364-.367-.485-.122zM7.766 6.925c-.546.98-.728 2.022-.486 3.125.06.306.486.184.425-.122-.182-.98 0-1.9.485-2.758.06-.245-.303-.49-.424-.245zm8.978-4.351c.243.797.668 1.41 1.274 1.96.243.185.546-.122.303-.305a3.327 3.327 0 01-1.152-1.716c-.06-.368-.486-.245-.425.06zm4.186 11.704c-.304.246-.486.613-.547 1.042-.06.307.425.43.425.123.06-.307.182-.613.425-.797.181-.245-.122-.551-.304-.368zm-2.244 14.953c-.364.858-.91 1.777-.668 2.758.122.674.546 1.226 1.213 1.41.304.06.425-.368.122-.43-1.76-.367-.607-2.635-.243-3.615.122-.245-.303-.368-.424-.123zm-9.283 7.293c.122 1.103 1.214 1.9 2.306 1.716.303-.062.182-.49-.122-.43-.788.123-1.638-.49-1.698-1.286-.061-.307-.486-.307-.486 0z"/></g><defs><clipPath id="clip0"><path fill="#fff" d="M0 0h31v66H0z"/></clipPath></defs></svg>