<svg width="46" height="27" fill="none" xmlns="http://www.w3.org/2000/svg"><g clip-path="url(#clip0)" fill="#0AB6E2"><path d="M12.41 14.952c-.037-.055-.075-.13-.131-.185a.277.277 0 00-.394-.093c-.132.074-.188.26-.094.39.037.055.075.13.131.185.075.13.244.186.394.093.132-.093.188-.26.094-.39z"/><path d="M12.373 15.286c.169-.13.32-.26.488-.39.225-.185-.019-.537-.282-.463-1.389.352-3.041.835-3.604 2.3-.263.686-.075 1.336-.057 2.04.057 1.355-1.37 1.856-2.46 2.245-.92.334-1.877.538-2.816.724-.788.148-1.633.204-2.365.5-1.202.483-1.634 1.707-.902 2.802.845 1.243 2.667 1.391 4.018 1.503a14.887 14.887 0 005.577-.613c.807-.26 1.633-.575 2.365-1.001.338-.204 1.014-.538 1.052-1.002.131-1.91-3.924.742-2.723-2.245.17-.408.263-.834.3-1.261.057-.798.038-1.206.827-1.763.676-.5 1.408-.853 1.802-1.65.432-.872.207-2.969-1.239-2.468-.338.111-.188.65.15.538.132.093.245.204.376.297.338.111.45.315.375.612.038.297-.037.52-.169.76-.206.39-.507.687-.863.965-.47.353-1.108.575-1.484 1.04-.281.333-.319.704-.319 1.13-.018.891-.319 1.504-.582 2.338-.263.798.263 1.373 1.052 1.521.206.038.413.019.62.019.187 0 .45-.074.638-.037.094.056.187.093.3.148.357.075.394.167.094.297-.47.557-1.558.854-2.216 1.095-1.464.52-3.022.779-4.58.797-1.428.019-3.7.038-4.732-1.113-.864-.983-.17-1.985.901-2.263.676-.185 1.39-.26 2.084-.39 1.333-.26 2.685-.593 3.905-1.205 1.164-.594 1.728-1.225 1.596-2.542-.112-.983-.094-1.78.733-2.486.713-.612 1.67-.835 2.553-1.057-.094-.148-.188-.315-.282-.464-.169.13-.319.26-.488.39-.319.185.075.575.357.352z"/><path d="M9.744 15.62c-.356-2.152.977-4.081 3.098-4.563.357-.075.207-.613-.15-.539-.056.02-.113.02-.169.038-.357.074-.207.612.15.538.057-.019.113-.019.17-.037-.057-.186-.095-.353-.151-.539-2.44.576-3.905 2.82-3.492 5.25.056.353.6.205.544-.148zM11.396.798c-1.07 2.263-2.008 5.157-.319 7.402 1.108 1.484 4.394 2.578 5.595.575.601-1.002.582-2.542.47-3.655-.113-1.206-.507-2.374-1.296-3.32-.938-1.15-4.224-2.876-4.919-.557-.112.352.432.482.545.148.356-1.187 2.159-.612 2.854-.185a4.315 4.315 0 011.652 1.818c.47.946.638 2.003.638 3.06 0 .873 0 2.227-.788 2.783-1.765 1.318-4.3-.352-4.882-2.096-.639-1.948.094-3.933.939-5.676.15-.334-.338-.613-.489-.297z"/><path d="M12.58 9.591c.15.334.206.686.225 1.039 0 .352.563.352.563 0 0-.464-.113-.89-.3-1.317-.15-.334-.639-.037-.488.278zm2.271.037c.17.241.282.482.338.78.019.148.207.222.338.185.17-.037.226-.186.188-.334a1.986 1.986 0 00-.394-.91c-.094-.11-.244-.185-.395-.092-.094.056-.169.241-.075.371zm-.563 1.632c1.352.279 1.727 1.596 1.934 2.783.206 1.243.413 2.56.15 3.822-.563 2.616-3.586 3.784-5.614 1.836-.262-.24-.657.149-.394.39 2.103 2.022 5.464 1.206 6.402-1.54.526-1.54.263-3.246-.018-4.804-.244-1.336-.826-2.727-2.31-3.024-.356-.075-.507.463-.15.538z"/><path d="M14.607 11c.77-.073 1.502.075 2.272.186.3.037.6.075.901.13.3.037.676.223.789-.056-.132.335.338.613.488.279.282-.65-.507-.687-.976-.742-1.127-.149-2.329-.446-3.474-.334-.357.018-.375.575 0 .538z"/><path d="M13.368 21.76c1.634-.204 3.38.353 4.938-.26 1.24-.482 1.765-1.613 2.14-2.782.47-1.447.77-2.82.057-4.23-.413-.816-.901-1.595-1.37-2.393-.226-.39-.433-1.076-.92-1.187-.114-.018-.264.019-.32.13-.075.148-.094.26.019.408.094.13.244.167.394.093.019 0 .038-.019.038-.019.338-.148.037-.612-.282-.482-.019 0-.038.018-.038.018.132.038.263.075.395.093 0 .056 0 .112-.02.149-.112.037-.206.092-.318.13.319.074.882 1.428 1.032 1.706.32.538.639 1.058.92 1.614.639 1.299.263 2.616-.169 3.933-.45 1.391-1.22 2.337-2.76 2.505-1.257.13-2.497-.168-3.755 0-.338.055-.338.612.02.575z"/><path d="M16.016 10.778c1.577-1.428 3.905-1.039 5.426.242 1.483 1.261 2.647 3.302 2.61 5.268-.02 2.004-1.052 3.914-2.31 5.436-1.708 2.077-4.28 1.41-6.158-.093-.282-.223-.676.167-.394.39 1.708 1.372 4.243 2.374 6.214.834 1.84-1.447 3.192-4.285 3.211-6.585.038-4.008-5.088-9.462-9.012-5.9-.263.26.131.65.413.408z"/><path d="M19.226 9.85c7.078 1.17 14.12 2.672 21.16 4.063 1.577.316 3.436.464 4.469 1.855 1.258 1.707.131 3.6-1.559 4.471-1.596.817-3.53 1.113-5.313 1.355-1.84.26-3.68.426-5.539.612-4.056.408-8.13.742-12.204 1.02-.357.019-.357.538 0 .557.075 0 .169 0 .244.018.357.019.357-.538 0-.556-.075 0-.169 0-.244-.019v.557c4.13-.297 8.261-.631 12.392-1.04 1.896-.185 3.792-.352 5.67-.63 1.802-.26 3.774-.575 5.407-1.465 1.164-.631 2.178-1.726 2.272-3.08.075-1.262-.695-2.449-1.746-3.098-1.465-.928-3.492-1.039-5.145-1.354-2.046-.408-4.074-.798-6.12-1.206-4.525-.89-9.05-1.818-13.594-2.579-.338-.092-.507.446-.15.52zM.657 23.579c2.497-1.206 5.276-1.225 7.999-1.206-.02-.186-.057-.371-.075-.538-.094.018-.188.018-.282.037-.357-.019-.357.538 0 .556.207.019.225.019.432-.055.3-.093.263-.538-.075-.538-2.835-.019-5.69.037-8.28 1.28-.338.13-.057.612.281.464zm3.436 1.447c2.328.593 4.694.39 7.06.166v-.556a2.333 2.333 0 01-.357.037c-.357.037-.357.594 0 .557.113-.019.244-.038.357-.038.356-.037.356-.593 0-.556-2.31.223-4.638.427-6.91-.148-.356-.075-.507.445-.15.538zm8.055-20.351c-.245.612-.02 1.336.563 1.67.544.315 1.295.222 1.558-.39.226-.538.019-1.187-.45-1.54a1.372 1.372 0 00-.883-.26c-.15 0-.319.038-.47.093-.225.093-.187.167-.28.371-.151.334.337.612.487.279a.91.91 0 00.094-.297l-.188.185c.582-.222 1.427.149 1.202.89-.131.409-.62.335-.882.112-.3-.241-.338-.63-.188-.965.112-.334-.432-.463-.563-.148z"/><path d="M11.997.575c1.07.13 2.235-.204 3.286.093 1.39.371 1.446 1.744 1.859 2.894.394 1.094.788 2.133.732 3.32-.075 1.466-1.483 2.171-2.666 2.783-.32.167-.038.65.282.483.995-.52 2.553-1.28 2.853-2.468.376-1.465-.187-2.912-.675-4.266-.395-1.114-.489-2.486-1.69-3.08-1.24-.612-2.685-.148-4-.315-.356-.037-.337.52.02.556zm12.712 17.55c-.188 2.318-1.765 3.821-3.23 5.472-.056.056.019.148.094.111.056-.037.094-.055.15-.092.075-.056 0-.167-.075-.112.507-.296.901-.89 1.296-1.335.338-.39.694-.76.976-1.188.563-.853.864-1.818.957-2.838-.018-.111-.15-.111-.168-.018z"/><path d="M25.403 18.032c.376 1.966-1.258 4.155-2.553 5.472-.056.056.037.167.094.093a6.18 6.18 0 00.6-.612c.057-.074-.037-.167-.093-.093-.094.111-.601.687-.17.371.207-.148.358-.408.508-.594.394-.5.732-1.02 1.032-1.576.507-.965.94-2.004.733-3.098-.02-.093-.17-.056-.15.037z"/><path d="M26.023 17.995c.132 1.002-.206 1.985-.62 2.894a8.543 8.543 0 01-.581 1.076l-.338.5a3.97 3.97 0 00-.564.817c.094-.019.094-.149 0-.149h-.037c-.038 0-.075.038-.075.075v.037c0 .055.056.092.112.055.714-.315 1.296-1.706 1.577-2.356.432-.927.77-1.929.639-2.968.019-.074-.113-.074-.113.019z"/><path d="M26.924 17.995c.113 1.131-.432 2.189-.995 3.116-.263.427-.563.835-.883 1.225-.131.148-.281.297-.394.463-.075.093-.225.427-.019.056.038-.074-.075-.148-.112-.074-.057.111-.113.241-.188.352-.038.075.056.149.113.093 1.295-1.299 2.835-3.284 2.647-5.213-.038-.111-.188-.111-.17-.018z"/><path d="M27.788 18.106A9.623 9.623 0 0126.642 21a8.27 8.27 0 01-.976 1.317c-.131.148-.3.278-.413.427-.019.018-.432.612-.075.185.056-.074-.038-.167-.094-.092-.094.11-.188.204-.263.315-.056.074.038.167.094.093 1.54-1.373 2.572-3.117 3.004-5.102.019-.093-.113-.13-.131-.037z"/><path d="M28.032 18.236c.019.983-.357 1.8-.863 2.616-.395.612-.864 1.484-1.352 1.966.075-.056-.038-.167-.094-.093-.132.112-.113.112-.132.279 0 .055.075.092.113.055 1.202-1.224 2.516-3.024 2.478-4.805 0-.092-.15-.092-.15-.018z"/><path d="M28.576 18.366c-.037 1.65-.77 3.135-2.027 4.21-.057.056.018.15.093.112.038-.018.057-.037.094-.037.075-.037.019-.167-.075-.111 1.39-.65 2.01-2.727 2.065-4.156 0-.111-.15-.111-.15-.018z"/><path d="M29.534 18.291c-.263.854-.563 1.707-.995 2.505a8.382 8.382 0 01-.639 1.02c.038-.055-.957 1.058-.938.89 0-.092-.132-.092-.15 0-.02.186-.02.13.075.297.018.038.075.038.112.019 1.39-1.261 2.122-2.931 2.666-4.675.038-.093-.093-.13-.131-.056z"/><path d="M30.041 18.495c.056 1.188-.544 2.078-1.314 2.913-.244.278-.507.538-.751.816-.057.075-.77.742-.77.724-.019-.093-.15-.093-.15 0 .018.074.018.167.037.24 0 .057.075.094.113.057 1.239-1.336 3.08-2.765 2.985-4.75-.019-.092-.15-.092-.15 0z"/><path d="M30.66 18.644a6.64 6.64 0 01-.77 2.19c-.112.203-1.276 1.984-1.633 1.743-.075-.056-.15.074-.075.111.413.278 1.145-.816 1.352-1.076a6.63 6.63 0 001.277-2.93c0-.075-.132-.112-.15-.038z"/><path d="M31.299 18.774c-.45 1.595-1.146 2.912-2.573 3.877-.075.056 0 .167.076.111 1.445-.983 2.159-2.319 2.628-3.951.038-.093-.113-.111-.131-.037z"/><path d="M32.237 18.681c.188 1.503-1.164 3.135-2.497 3.729-.075.037-.018.148.076.111 1.389-.612 2.76-2.282 2.572-3.858-.02-.075-.17-.075-.15.018z"/><path d="M32.688 18.774a6.828 6.828 0 01-.657 2.096 4.85 4.85 0 01-.526.835c-.056.074-.713.705-.732.816.019-.093-.113-.13-.131-.037-.02.13-.02.13.037.223.019.037.075.037.113.018 1.108-1.076 1.802-2.412 2.028-3.914.018-.074-.132-.111-.132-.037zm.957-.186c-.262 1.41-.844 3.043-2.084 3.896-.075.056 0 .167.076.111 1.276-.871 1.877-2.523 2.159-3.97 0-.074-.132-.11-.15-.037zm.658-.037c0 .668-.112 1.317-.338 1.948a4.897 4.897 0 01-.432.89c-.094.149-.169.279-.281.427a2.698 2.698 0 00-.47.668c.094-.019.057-.167-.037-.13-.019 0-.019 0-.038.019a.102.102 0 00-.056.092v.038c.019.055.056.055.112.037.564-.241.996-1.225 1.22-1.726a6.12 6.12 0 00.452-2.226c0-.13-.132-.13-.132-.037z"/><path d="M35.58 18.718a9.268 9.268 0 01-.808 1.818c-.169.297-.939 1.633-1.37 1.484-.094-.037-.132.111-.038.13.47.167.92-.668 1.164-.983a7.867 7.867 0 001.202-2.412c.018-.074-.113-.111-.15-.037zm.9-.167c-.018.798-.262 1.503-.675 2.19a5.911 5.911 0 01-.563.778c-.132.167-.808.724-.827.872.02-.092-.131-.13-.131-.037 0 .019 0 .056-.019.074 0 .037 0 .056.038.075.019.018.056.037.075.055a.058.058 0 00.075 0c.6-.352 1.126-1.168 1.483-1.744.432-.704.676-1.447.695-2.263-.019-.093-.15-.093-.15 0zm.714.186c-.188 1.373-.845 2.578-1.878 3.506-.075.056.038.167.094.093a5.744 5.744 0 001.916-3.6c.018-.092-.132-.092-.132 0zm.958-.186c-.131 1.317-1.183 2.653-2.065 3.6-.057.073.037.166.094.092.92-1.002 1.971-2.3 2.102-3.692.02-.093-.131-.093-.131 0zm.732.186c-.094 1.206-1.22 2.356-2.009 3.209-.056.074.038.167.094.093.826-.89 1.953-2.04 2.047-3.302.019-.093-.113-.093-.132 0zm.507.055a6.304 6.304 0 01-1.633 3.024c-.057.074.037.167.093.093.827-.872 1.409-1.91 1.672-3.08.018-.092-.113-.13-.132-.037zm.751-.074c-.206.928-.62 2.338-1.52 2.82-.076.037 0 .167.075.111.938-.52 1.37-1.93 1.595-2.912 0-.074-.131-.112-.15-.019z"/><path d="M40.705 18.477a5.248 5.248 0 01-1.764 3.228c-.076.056.037.148.093.093a5.293 5.293 0 001.803-3.284c.019-.093-.113-.13-.132-.037zm.789.185a5.296 5.296 0 01-.47 1.392c-.206.39-.563 1.131-1.032 1.224-.094.019-.056.149.037.13.413-.074.733-.65.94-.983a5.226 5.226 0 00.656-1.726c.02-.092-.112-.13-.131-.037z"/><path d="M42 18.607c-.187.909-.713 2.3-1.633 2.708-.075.037-.018.149.075.112.958-.427 1.502-1.855 1.709-2.783 0-.093-.131-.13-.15-.037z"/><path d="M42.752 18.477a5.568 5.568 0 01-.695 1.373c-.282.408-.77 1.113-1.296 1.243-.094.018-.056.148.038.13.507-.112.882-.631 1.183-1.02.394-.52.694-1.077.92-1.689.019-.074-.113-.111-.15-.037zm.281.353a8.188 8.188 0 01-1.97 2.615c-.076.056.037.167.093.093a8.318 8.318 0 001.99-2.634c.056-.075-.075-.149-.113-.075z"/><path d="M43.296 18.551c-.15.427-.338.854-.582 1.243-.244.408-.544.983-1.014 1.113-.094.019-.056.167.038.13.432-.13.695-.538.92-.909a7.06 7.06 0 00.77-1.558c.037-.075-.094-.112-.132-.019z"/><path d="M43.728 18.885a6.354 6.354 0 01-1.615 2.04c-.075.056.038.15.094.093a6.232 6.232 0 001.634-2.059c.037-.074-.075-.148-.113-.074zm.395.019a84.508 84.508 0 01-1.146 1.595c-.056.074.075.149.113.074.375-.538.75-1.057 1.145-1.595.056-.074-.075-.149-.112-.074zM16.316 12.43c.976 1.28 1.784 2.67 1.577 4.34-.019.093.132.093.15 0 .207-1.688-.6-3.098-1.596-4.396-.056-.093-.187-.019-.131.055z"/><path d="M16.597 12.67a10.273 10.273 0 011.559 4.045c.018.092.15.055.131-.038a10.08 10.08 0 00-1.577-4.08c-.038-.075-.15-.02-.113.073zm.583-.11c1.013 1.186 1.915 2.56 1.426 4.173-.018.093.113.13.132.037.507-1.65-.413-3.08-1.465-4.304-.056-.074-.15.019-.093.093z"/><path d="M17.499 12.689a4.763 4.763 0 011.67 4.007c0 .093.132.093.151 0a4.895 4.895 0 00-1.727-4.118c-.075-.056-.17.037-.094.111z"/><path d="M17.874 12.466c1.333.928 2.085 2.375 2.066 3.989 0 .093.131.093.15 0 .019-1.651-.77-3.154-2.14-4.1-.076-.056-.15.056-.076.111zm-1.352.761c.526 1.243.92 2.523 1.296 3.822.019.092.169.055.131-.037-.375-1.3-.77-2.58-1.295-3.822-.038-.074-.17-.037-.132.037zM10.57 14.97c.376-1.13 1.184-2.262 2.517-2.3 1.708-.037 2.046 1.781 2.159 3.098.094 1.02.45 2.375-.207 3.247-.788 1.057-3.323 1.484-3.924.111-.037-.074-.15-.018-.112.075.582 1.317 2.403 1.02 3.454.463 1.596-.853 1.052-2.745.92-4.23-.112-1.224-.526-2.745-2.009-2.893-1.502-.149-2.497 1.113-2.929 2.393-.037.074.094.111.132.037z"/><path d="M12.73 11.372c0 .427-.132.835-.357 1.206-.056.074.075.148.113.074a2.54 2.54 0 00.375-1.28c.02-.074-.131-.074-.131 0zm.544-.112a6.135 6.135 0 01-.526 1.819c-.037.074.075.148.113.074.282-.613.47-1.243.544-1.893.038-.092-.112-.092-.131 0zm.47-.018c-.132.482-.263.946-.376 1.428-.019.093.113.13.131.038.132-.483.263-.947.376-1.429.037-.093-.113-.13-.131-.037zm.3.074a3.323 3.323 0 01-.281 1.707c-.038.074.093.148.112.074.244-.556.357-1.15.3-1.762 0-.112-.15-.112-.13-.019zm.376.371a6.07 6.07 0 01-.113 1.651c-.019.093.113.13.131.037.132-.556.17-1.113.132-1.688-.019-.092-.17-.092-.15 0zm.582.241l-.17 1.911c0 .093.132.093.15 0l.17-1.91c0-.075-.15-.075-.15 0zm.582.482a37.69 37.69 0 01-.45 2.097c-.02.093.112.13.13.037.17-.705.32-1.391.451-2.096.019-.074-.112-.112-.131-.037zm.394 1.132c.019.427-.037.872-.188 1.28-.056.167-.169.316-.225.483-.019.037 0 .055.037.074.02.019.057.019.094-.019a.234.234 0 00.057-.074c.056-.074-.075-.148-.113-.074.056.093.075.111.094.056.019-.019.019-.056.037-.075.038-.037.076-.13.094-.166a.906.906 0 00.113-.316 3.72 3.72 0 00.15-1.206c0-.055-.15-.055-.15.037zm.206 1.113a2.8 2.8 0 01-.375 1.503c-.038.074.075.148.113.074.281-.482.431-1.02.394-1.577 0-.092-.15-.092-.132 0zM12.298 1.039l.188-.186c.056-.055-.038-.167-.094-.092l-.188.185c-.075.074.019.167.094.093zm-.338.816c.488-.37.976-.723 1.465-1.094.075-.056 0-.167-.075-.112-.489.371-.977.724-1.465 1.095-.075.037 0 .167.075.111zm.638-.075a5.4 5.4 0 01.976-.741c.076-.037 0-.167-.075-.111a5.762 5.762 0 00-1.013.76c-.057.056.056.167.112.093zm-.112.632c.47-.427.976-.798 1.52-1.132.076-.037 0-.167-.075-.111a10.51 10.51 0 00-1.558 1.15c-.056.055.038.148.113.093zm.188.296c.263-.24.544-.482.826-.704l.394-.279c.056-.037.432-.222.45-.297-.018.093.132.13.132.038v-.038a.102.102 0 00-.056-.092c-.263-.112-.657.296-.864.426-.357.26-.695.538-1.014.835-.037.074.057.186.132.111zm.431.26a20.983 20.983 0 011.69-1.168c.075-.056 0-.167-.075-.112-.6.371-1.164.76-1.727 1.187-.057.056.037.149.112.093zm-.075.668a18.866 18.866 0 012.31-1.503c-.038-.037-.057-.074-.094-.11-.057.073-.132.148-.188.222-.056.074.037.167.094.092.056-.074.131-.148.188-.222.056-.056-.02-.149-.094-.111-.789.445-1.578.964-2.31 1.52-.075.056.02.168.094.112zm.939-.223c.45-.333.939-.63 1.427-.871a82.633 82.633 0 00-.094-.093.649.649 0 01-.226.278c-.075.056 0 .167.076.111a.82.82 0 00.281-.334c.02-.055-.037-.13-.094-.092a8.61 8.61 0 00-1.427.872c-.093.055-.018.167.057.13z"/><path d="M13.988 3.488c.018.074.037.167.056.24.019.038.056.056.113.038a35.962 35.962 0 001.652-.89c.075-.038 0-.167-.075-.112-.545.297-1.09.594-1.652.89.037.02.075.02.112.038-.019-.074-.037-.167-.056-.241-.038-.093-.17-.056-.15.037z"/><path d="M12.955 4.193a4.413 4.413 0 011.352-.427c.094-.019.094-.149 0-.149-.507.075-.976.205-1.427.446-.075.055 0 .167.075.13zm.864 2.114c.563-.13 1.107-.296 1.652-.5.075-.038.056-.167-.038-.13a13.01 13.01 0 01-1.652.5c-.094 0-.056.149.037.13z"/><path d="M13.838 3.896a.393.393 0 01-.113-.074c-.019.037-.038.092-.056.13 1.145.185 1.633 1.465.863 2.337-.056.074.038.167.094.093.826-.946.338-2.375-.92-2.579-.075-.019-.131.074-.056.13a.393.393 0 01.112.074c.075.056.15-.074.075-.111z"/></g><defs><clipPath id="clip0"><path fill="#fff" d="M0 0h46v26.602H0z"/></clipPath></defs></svg>