<svg width="98" height="57" fill="none" xmlns="http://www.w3.org/2000/svg"><path d="M26.44 32.038c-.08-.12-.16-.278-.28-.398a.59.59 0 00-.84-.198c-.28.159-.4.556-.2.834.08.12.16.278.28.398a.59.59 0 00.84.198c.28-.198.4-.556.2-.834z" fill="#0AB6E2"/><path d="M26.36 32.753c.36-.278.68-.556 1.04-.835.48-.397-.04-1.152-.6-.994-2.96.756-6.48 1.79-7.68 4.93-.56 1.47-.16 2.861-.12 4.372.12 2.901-2.92 3.975-5.24 4.81-1.96.715-4 1.152-6 1.55-1.68.318-3.48.437-5.04 1.073C.16 48.692-.76 51.316.8 53.66c1.8 2.663 5.68 2.981 8.56 3.22 4 .318 8.08-.12 11.88-1.312 1.72-.557 3.48-1.232 5.04-2.147.72-.437 2.16-1.152 2.24-2.146.28-4.094-8.36 1.59-5.8-4.81.36-.874.56-1.788.64-2.703.12-1.709.08-2.583 1.76-3.776 1.44-1.073 3-1.828 3.84-3.537.92-1.869.44-6.36-2.64-5.287-.72.238-.4 1.391.32 1.153.28.198.52.437.8.636.72.238.96.675.8 1.311.08.636-.08 1.113-.36 1.63-.44.835-1.08 1.47-1.84 2.067-1 .755-2.36 1.232-3.16 2.226-.6.715-.68 1.51-.68 2.425-.04 1.908-.68 3.22-1.24 5.008-.56 1.71.56 2.941 2.24 3.26.44.079.88.04 1.32.04.4 0 .96-.16 1.36-.08.2.119.4.199.64.318.76.159.84.358.2.636-1 1.192-3.32 1.828-4.72 2.345-3.12 1.113-6.44 1.67-9.76 1.71-3.04.039-7.88.079-10.08-2.386-1.84-2.107-.36-4.253 1.92-4.85 1.44-.397 2.96-.556 4.44-.834 2.84-.556 5.72-1.272 8.32-2.584 2.48-1.272 3.68-2.623 3.4-5.445-.24-2.107-.2-3.816 1.56-5.327 1.52-1.311 3.56-1.788 5.44-2.265-.2-.318-.4-.676-.6-.994-.36.278-.68.556-1.04.835-.68.397.16 1.232.76.755z" fill="#0AB6E2"/><path d="M20.76 33.469c-.76-4.611 2.08-8.745 6.6-9.778.76-.16.44-1.312-.32-1.153-.12.04-.24.04-.36.08-.76.159-.44 1.311.32 1.152.12-.04.24-.04.36-.08-.12-.397-.2-.755-.32-1.152-5.2 1.232-8.32 6.042-7.44 11.249.12.755 1.28.437 1.16-.318zm3.52-31.76C22 6.559 20 12.759 23.6 17.569c2.36 3.18 9.36 5.525 11.92 1.232 1.28-2.146 1.24-5.446 1-7.83-.24-2.584-1.08-5.088-2.76-7.116-2-2.464-9-6.16-10.48-1.192-.24.755.92 1.033 1.16.318.76-2.544 4.6-1.312 6.08-.398a9.226 9.226 0 013.52 3.896c1 2.027 1.36 4.293 1.36 6.558 0 1.869 0 4.77-1.68 5.963-3.76 2.822-9.16-.756-10.4-4.492-1.36-4.173.2-8.427 2-12.163.32-.716-.72-1.312-1.04-.636z" fill="#0AB6E2"/><path d="M26.8 20.55c.32.716.44 1.471.48 2.226 0 .755 1.2.755 1.2 0 0-.994-.24-1.908-.64-2.822-.32-.716-1.36-.08-1.04.596zm4.84.08c.36.516.6 1.033.72 1.67.04.317.44.476.72.397.36-.08.48-.398.4-.716a4.27 4.27 0 00-.84-1.948c-.2-.238-.52-.397-.84-.198-.2.119-.36.516-.16.795zm-1.2 3.498c2.88.596 3.68 3.418 4.12 5.962.44 2.663.88 5.485.32 8.188-1.2 5.605-7.64 8.11-11.96 3.936-.56-.517-1.4.318-.84.834 4.48 4.333 11.64 2.584 13.64-3.299 1.12-3.3.56-6.956-.04-10.295-.52-2.862-1.76-5.843-4.92-6.479-.76-.159-1.08.994-.32 1.153z" fill="#0AB6E2"/><path d="M31.12 23.571c1.64-.159 3.2.16 4.84.398.64.08 1.28.159 1.92.278.64.08 1.44.477 1.68-.12-.28.716.72 1.313 1.04.597.6-1.391-1.08-1.47-2.08-1.59-2.4-.318-4.96-.954-7.4-.715-.76.04-.8 1.232 0 1.152z" fill="#0AB6E2"/><path d="M28.48 46.626c3.48-.438 7.2.755 10.52-.557 2.64-1.033 3.76-3.458 4.56-5.962 1-3.1 1.64-6.042.12-9.063-.88-1.749-1.92-3.418-2.92-5.128-.48-.834-.92-2.305-1.96-2.543-.24-.04-.56.04-.68.278-.16.318-.2.556.04.874.2.279.52.358.84.199.04 0 .08-.04.08-.04.72-.318.08-1.311-.6-1.033-.04 0-.08.04-.08.04.28.079.56.159.84.198 0 .12 0 .239-.04.318-.24.08-.44.199-.68.278.68.16 1.88 3.061 2.2 3.657.68 1.153 1.36 2.266 1.96 3.459 1.36 2.782.56 5.604-.36 8.426-.96 2.981-2.6 5.009-5.88 5.367-2.68.278-5.32-.358-8 0-.72.119-.72 1.311.04 1.232z" fill="#0AB6E2"/><path d="M34.12 23.094c3.36-3.06 8.32-2.226 11.56.517 3.16 2.703 5.64 7.075 5.56 11.289-.04 4.293-2.24 8.387-4.92 11.646-3.64 4.452-9.12 3.021-13.12-.199-.6-.477-1.44.358-.84.835C36 50.123 41.4 52.27 45.6 48.971c3.92-3.1 6.8-9.182 6.84-14.111.08-8.586-10.84-20.272-19.2-12.64-.56.556.28 1.391.88.874z" fill="#0AB6E2"/><path d="M40.96 21.107c15.08 2.504 30.08 5.724 45.08 8.705 3.36.675 7.32.993 9.52 3.974 2.68 3.657.28 7.712-3.32 9.58-3.4 1.749-7.52 2.385-11.32 2.902-3.92.556-7.84.914-11.8 1.311-8.64.875-17.32 1.59-26 2.187-.76.04-.76 1.152 0 1.192.16 0 .36 0 .52.04.76.04.76-1.153 0-1.193-.16 0-.36 0-.52-.04v1.193c8.8-.636 17.6-1.351 26.4-2.226 4.04-.397 8.08-.755 12.08-1.351 3.84-.557 8.04-1.233 11.52-3.14 2.48-1.352 4.64-3.697 4.84-6.599.16-2.703-1.48-5.247-3.72-6.638-3.12-1.987-7.44-2.226-10.96-2.902-4.36-.874-8.68-1.709-13.04-2.583-9.64-1.908-19.28-3.896-28.96-5.525-.72-.2-1.08.954-.32 1.113zM1.4 50.521c5.32-2.584 11.24-2.623 17.04-2.584-.04-.397-.12-.795-.16-1.152-.2.04-.4.04-.6.08-.76-.04-.76 1.152 0 1.191.44.04.48.04.92-.119.64-.198.56-1.152-.16-1.152-6.04-.04-12.12.08-17.64 2.742-.72.279-.12 1.312.6.994zm7.32 3.1c4.96 1.272 10 .835 15.04.358v-1.192a4.9 4.9 0 01-.76.08c-.76.079-.76 1.271 0 1.192.24-.04.52-.08.76-.08.76-.08.76-1.272 0-1.192-4.92.477-9.88.914-14.72-.318-.76-.16-1.08.954-.32 1.152zm17.16-43.604c-.52 1.312-.04 2.862 1.2 3.577 1.16.676 2.76.477 3.32-.834.48-1.153.04-2.544-.96-3.3a2.912 2.912 0 00-1.88-.556c-.32 0-.68.08-1 .199-.48.198-.4.357-.6.795-.32.715.72 1.311 1.04.596.12-.239.16-.398.2-.636l-.4.397c1.24-.477 3.04.318 2.56 1.908-.28.875-1.32.716-1.88.239-.64-.517-.72-1.352-.4-2.067.24-.716-.92-.994-1.2-.318z" fill="#0AB6E2"/><path d="M25.56 1.232c2.28.278 4.76-.437 7 .199 2.96.795 3.08 3.736 3.96 6.2.84 2.346 1.68 4.572 1.56 7.116-.16 3.14-3.16 4.65-5.68 5.962-.68.358-.08 1.391.6 1.034 2.12-1.113 5.44-2.743 6.08-5.287.8-3.14-.4-6.24-1.44-9.142-.84-2.385-1.04-5.327-3.6-6.599C31.4-.596 28.32.397 25.52.04c-.76-.08-.72 1.113.04 1.192zm27.08 37.603c-.4 4.968-3.76 8.188-6.88 11.726-.12.119.04.318.2.238.12-.08.2-.119.32-.198.16-.12 0-.358-.16-.239 1.08-.636 1.92-1.908 2.76-2.862.72-.835 1.48-1.63 2.08-2.544 1.2-1.828 1.84-3.895 2.04-6.081-.04-.239-.32-.239-.36-.04z" fill="#0AB6E2"/><path d="M54.12 38.636c.8 4.213-2.68 8.904-5.44 11.726-.12.12.08.358.2.199.48-.438.88-.835 1.28-1.312.12-.159-.08-.358-.2-.199-.2.239-1.28 1.471-.36.795.44-.318.76-.874 1.08-1.272a23.335 23.335 0 002.2-3.378c1.08-2.067 2-4.293 1.56-6.639-.04-.198-.36-.119-.32.08z" fill="#0AB6E2"/><path d="M55.44 38.557c.28 2.146-.44 4.253-1.32 6.2-.36.796-.76 1.55-1.24 2.306l-.72 1.073c-.48.557-.88 1.113-1.2 1.75.2-.04.2-.319 0-.319h-.08c-.08 0-.16.08-.16.16v.079c0 .119.12.199.24.119 1.52-.676 2.76-3.657 3.36-5.048.92-1.988 1.64-4.134 1.36-6.36.04-.159-.24-.159-.24.04z" fill="#0AB6E2"/><path d="M57.36 38.556c.24 2.425-.92 4.69-2.12 6.678-.56.915-1.2 1.79-1.88 2.624-.28.318-.6.636-.84.994-.16.198-.48.914-.04.119.08-.16-.16-.318-.24-.16-.12.24-.24.517-.4.756-.08.159.12.318.24.199 2.76-2.783 6.04-7.036 5.64-11.17-.08-.238-.4-.238-.36-.04z" fill="#0AB6E2"/><path d="M59.2 38.795a20.689 20.689 0 01-2.44 6.2 17.72 17.72 0 01-2.08 2.823c-.28.318-.64.596-.88.914-.04.04-.92 1.312-.16.398.12-.16-.08-.358-.2-.2-.2.24-.4.438-.56.676-.12.16.08.358.2.2 3.28-2.942 5.48-6.679 6.4-10.932.04-.198-.24-.278-.28-.08z" fill="#0AB6E2"/><path d="M59.72 39.073c.04 2.107-.76 3.856-1.84 5.605-.84 1.312-1.84 3.18-2.88 4.213.16-.12-.08-.358-.2-.199-.28.239-.24.239-.28.597 0 .119.16.198.24.119 2.56-2.623 5.36-6.48 5.28-10.295 0-.199-.32-.199-.32-.04z" fill="#0AB6E2"/><path d="M60.88 39.352c-.08 3.537-1.64 6.717-4.32 9.023-.12.119.04.318.2.238.08-.04.12-.08.2-.08.16-.079.04-.357-.16-.238 2.96-1.391 4.28-5.843 4.4-8.904 0-.238-.32-.238-.32-.04z" fill="#0AB6E2"/><path d="M62.92 39.193c-.56 1.828-1.2 3.656-2.12 5.366-.4.755-.84 1.47-1.36 2.186.08-.12-2.04 2.266-2 1.908 0-.199-.28-.199-.32 0-.04.397-.04.278.16.636.04.08.16.08.24.04 2.96-2.703 4.52-6.28 5.68-10.017.08-.199-.2-.279-.28-.12z" fill="#0AB6E2"/><path d="M64 39.63c.12 2.543-1.16 4.451-2.8 6.24-.52.596-1.08 1.153-1.6 1.75-.12.158-1.64 1.589-1.64 1.55-.04-.2-.32-.2-.32 0 .04.158.04.357.08.516 0 .12.16.199.24.12 2.64-2.863 6.56-5.923 6.36-10.176-.04-.2-.32-.2-.32 0z" fill="#0AB6E2"/><path d="M65.32 39.948c-.28 1.63-.8 3.22-1.64 4.69-.24.438-2.72 4.254-3.48 3.737-.16-.12-.32.159-.16.238.88.596 2.44-1.749 2.88-2.305 1.44-1.868 2.32-4.015 2.72-6.28 0-.16-.28-.239-.32-.08z" fill="#0AB6E2"/><path d="M66.68 40.226c-.96 3.418-2.44 6.24-5.48 8.308-.16.119 0 .357.16.238 3.08-2.107 4.6-4.969 5.6-8.466.08-.2-.24-.239-.28-.08z" fill="#0AB6E2"/><path d="M68.68 40.027c.4 3.22-2.48 6.718-5.32 7.99-.16.079-.04.317.16.238 2.96-1.312 5.88-4.89 5.48-8.268-.04-.159-.36-.159-.32.04z" fill="#0AB6E2"/><path d="M69.64 40.226c-.24 1.59-.68 3.06-1.4 4.492-.32.635-.68 1.232-1.12 1.788-.12.16-1.52 1.51-1.56 1.75.04-.2-.24-.28-.28-.08-.04.278-.04.278.08.477.04.08.16.08.24.04 2.36-2.306 3.84-5.168 4.32-8.388.04-.159-.28-.238-.28-.08zm2.04-.398c-.56 3.021-1.8 6.52-4.44 8.348-.16.119 0 .357.16.238 2.72-1.868 4-5.406 4.6-8.506 0-.16-.28-.239-.32-.08zm1.4-.079c0 1.43-.24 2.822-.72 4.173a10.51 10.51 0 01-.92 1.908c-.2.318-.36.597-.6.915-.4.437-.76.914-1 1.43.2-.04.12-.357-.08-.278-.04 0-.04 0-.08.04a.22.22 0 00-.12.199v.08c.04.118.12.118.24.079 1.2-.517 2.12-2.624 2.6-3.697.64-1.55.92-3.14.96-4.77 0-.278-.28-.278-.28-.08z" fill="#0AB6E2"/><path d="M75.8 40.107c-.44 1.351-1 2.663-1.72 3.895-.36.636-2 3.498-2.92 3.18-.2-.08-.28.238-.08.278 1 .358 1.96-1.43 2.48-2.106 1.16-1.59 2-3.3 2.56-5.168.04-.159-.24-.238-.32-.08zm1.92-.357c-.04 1.708-.56 3.219-1.44 4.69-.36.596-.76 1.152-1.2 1.669-.28.358-1.72 1.55-1.76 1.868.04-.199-.28-.278-.28-.08 0 .04 0 .12-.04.16 0 .08 0 .119.08.159.04.04.12.08.16.119.04.04.12.04.16 0 1.28-.755 2.4-2.504 3.16-3.736.92-1.51 1.44-3.1 1.48-4.85-.04-.199-.32-.199-.32 0zm1.52.397c-.4 2.941-1.8 5.525-4 7.512-.16.12.08.358.2.199 2.28-2.027 3.68-4.69 4.08-7.711.04-.2-.28-.2-.28 0zm2.04-.397c-.28 2.821-2.52 5.683-4.4 7.71-.12.16.08.358.2.2 1.96-2.147 4.2-4.93 4.48-7.91.04-.2-.28-.2-.28 0zm1.56.397c-.2 2.583-2.6 5.048-4.28 6.876-.12.16.08.358.2.199 1.76-1.908 4.16-4.373 4.36-7.075.04-.2-.24-.2-.28 0zm1.08.119c-.56 2.464-1.72 4.65-3.48 6.479-.12.159.08.357.2.198 1.76-1.868 3-4.094 3.56-6.598.04-.199-.24-.278-.28-.08zm1.6-.159c-.44 1.987-1.32 5.008-3.24 6.041-.16.08 0 .358.16.239 2-1.113 2.92-4.134 3.4-6.24 0-.16-.28-.24-.32-.04z" fill="#0AB6E2"/><path d="M86.72 39.59a11.264 11.264 0 01-3.76 6.916c-.16.12.08.318.2.199 2.12-1.829 3.44-4.293 3.84-7.036.04-.198-.24-.278-.28-.08zm1.68.397a11.39 11.39 0 01-1 2.981c-.44.835-1.2 2.425-2.2 2.624-.2.04-.12.318.08.278.88-.159 1.56-1.391 2-2.107a11.221 11.221 0 001.4-3.696c.04-.2-.24-.279-.28-.08z" fill="#0AB6E2"/><path d="M89.48 39.868c-.4 1.948-1.52 4.929-3.48 5.803-.16.08-.04.318.16.239 2.04-.914 3.2-3.975 3.64-5.962 0-.2-.28-.279-.32-.08z" fill="#0AB6E2"/><path d="M91.08 39.59a11.955 11.955 0 01-1.48 2.941c-.6.875-1.64 2.385-2.76 2.664-.2.04-.12.318.08.278 1.08-.239 1.88-1.352 2.52-2.186a13.796 13.796 0 001.96-3.617c.04-.16-.24-.239-.32-.08zm.6.755c-1 2.147-2.44 4.015-4.2 5.605-.16.119.08.357.2.198 1.8-1.59 3.2-3.497 4.24-5.644.12-.159-.16-.318-.24-.159z" fill="#0AB6E2"/><path d="M92.24 39.749c-.32.914-.72 1.828-1.24 2.663-.52.874-1.16 2.107-2.16 2.385-.2.04-.12.358.08.278.92-.278 1.48-1.153 1.96-1.948a15.236 15.236 0 001.64-3.339c.08-.158-.2-.238-.28-.04z" fill="#0AB6E2"/><path d="M93.16 40.464c-.84 1.71-2 3.14-3.44 4.373-.16.119.08.318.2.198a13.341 13.341 0 003.48-4.412c.08-.159-.16-.318-.24-.159zm.84.04c-.8 1.153-1.6 2.266-2.44 3.419-.12.159.16.318.24.159.8-1.153 1.6-2.266 2.44-3.419.12-.159-.16-.318-.24-.159zM34.76 26.632c2.08 2.743 3.8 5.724 3.36 9.301-.04.199.28.199.32 0 .44-3.617-1.28-6.638-3.4-9.42-.12-.2-.4-.04-.28.119z" fill="#0AB6E2"/><path d="M35.36 27.148c1.72 2.663 2.84 5.565 3.32 8.665.04.2.32.12.28-.079-.48-3.14-1.6-6.082-3.36-8.745-.08-.159-.32-.04-.24.16zm1.24-.238c2.16 2.544 4.08 5.485 3.04 8.943-.04.2.24.279.28.08 1.08-3.538-.88-6.598-3.12-9.222-.12-.159-.32.04-.2.199z" fill="#0AB6E2"/><path d="M37.28 27.188c2.52 2.187 3.8 5.287 3.56 8.586 0 .199.28.199.32 0 .24-3.378-1.08-6.598-3.68-8.824-.16-.12-.36.08-.2.238z" fill="#0AB6E2"/><path d="M38.08 26.711c2.84 1.988 4.44 5.088 4.4 8.547 0 .198.28.198.32 0 .04-3.538-1.64-6.758-4.56-8.785-.16-.12-.32.12-.16.238zm-2.88 1.63c1.12 2.663 1.96 5.406 2.76 8.188.04.199.36.12.28-.08-.8-2.782-1.64-5.524-2.76-8.187-.08-.16-.36-.08-.28.079zm-12.68 3.736c.8-2.424 2.52-4.849 5.36-4.928 3.64-.08 4.36 3.815 4.6 6.638.2 2.186.96 5.087-.44 6.956-1.68 2.265-7.08 3.18-8.36.238-.08-.159-.32-.04-.24.16 1.24 2.821 5.12 2.185 7.36.993 3.4-1.829 2.24-5.883 1.96-9.063-.24-2.623-1.12-5.883-4.28-6.2-3.2-.319-5.32 2.384-6.24 5.127-.08.159.2.238.28.08z" fill="#0AB6E2"/><path d="M27.12 24.366c0 .915-.28 1.789-.76 2.584-.12.159.16.318.24.159.52-.835.76-1.749.8-2.743.04-.159-.28-.159-.28 0zm1.16-.238c-.16 1.351-.56 2.663-1.12 3.895-.08.159.16.318.24.159.6-1.312 1-2.663 1.16-4.054.08-.2-.24-.2-.28 0zm1-.04c-.28 1.033-.56 2.027-.8 3.06-.04.2.24.279.28.08.28-1.034.56-2.027.8-3.06.08-.2-.24-.279-.28-.08zm.64.159a7.155 7.155 0 01-.6 3.657c-.08.159.2.318.24.159.52-1.193.76-2.465.64-3.776 0-.239-.32-.239-.28-.04zm.8.795c.08 1.192 0 2.385-.24 3.537-.04.199.24.279.28.08.28-1.193.36-2.385.28-3.617-.04-.2-.36-.2-.32 0zm1.24.517c-.12 1.351-.24 2.742-.36 4.094 0 .199.28.199.32 0 .12-1.352.24-2.743.36-4.094 0-.16-.32-.16-.32 0zm1.24 1.033c-.28 1.51-.6 3.021-.96 4.492-.04.198.24.278.28.08.36-1.511.68-2.982.96-4.492.04-.16-.24-.239-.28-.08zm.84 2.425c.04.914-.08 1.868-.4 2.742-.12.358-.36.676-.48 1.034-.04.08 0 .12.08.159.04.04.12.04.2-.04a.56.56 0 00.12-.159c.12-.159-.16-.318-.24-.159.12.199.16.239.2.12.04-.04.04-.12.08-.16.08-.079.16-.278.2-.357.12-.199.2-.438.24-.676.24-.835.36-1.71.32-2.584 0-.119-.32-.119-.32.08zm.44 2.384a6.028 6.028 0 01-.8 3.22c-.08.16.16.318.24.16.6-1.034.92-2.187.84-3.38 0-.198-.32-.198-.28 0zM26.2 2.226l.4-.398c.12-.119-.08-.357-.2-.198l-.4.397c-.16.16.04.358.2.199zm-.72 1.749c1.04-.795 2.08-1.55 3.12-2.346.16-.119 0-.357-.16-.238-1.04.795-2.08 1.55-3.12 2.345-.16.08 0 .358.16.239zm1.36-.159c.64-.596 1.32-1.153 2.08-1.59.16-.08 0-.358-.16-.239-.8.477-1.48.994-2.16 1.63-.12.12.12.358.24.199zm-.24 1.351c1-.914 2.08-1.71 3.24-2.425.16-.08 0-.357-.16-.238-1.2.715-2.28 1.55-3.32 2.464-.12.12.08.318.24.2zm.4.636c.56-.516 1.16-1.033 1.76-1.51l.84-.596c.12-.08.92-.477.96-.636-.04.199.28.278.28.08v-.08c0-.08-.04-.16-.12-.199-.56-.238-1.4.636-1.84.914-.76.557-1.48 1.153-2.16 1.789-.08.159.12.397.28.238zm.92.557c1.16-.914 2.36-1.71 3.6-2.504.16-.12 0-.358-.16-.239-1.28.795-2.48 1.63-3.68 2.544-.12.12.08.318.24.2zm-.16 1.431a40.184 40.184 0 014.92-3.22c-.08-.08-.12-.159-.2-.238-.12.159-.28.318-.4.477-.12.159.08.358.2.199.12-.16.28-.318.4-.477.12-.12-.04-.318-.2-.239a43.844 43.844 0 00-4.92 3.26c-.16.119.04.357.2.238zm2-.477c.96-.716 2-1.352 3.04-1.868l-.2-.2c-.12.24-.24.438-.48.597-.16.12 0 .358.16.239.28-.2.44-.398.6-.716.04-.12-.08-.278-.2-.199-1.08.517-2.08 1.153-3.04 1.869-.2.119-.04.357.12.278z" fill="#0AB6E2"/><path d="M29.8 7.473c.04.159.08.358.12.517.04.08.12.119.24.08a76.472 76.472 0 003.52-1.909c.16-.08 0-.357-.16-.238-1.16.636-2.32 1.272-3.52 1.908.08.04.16.04.24.08-.04-.16-.08-.358-.12-.517-.08-.2-.36-.12-.32.079z" fill="#0AB6E2"/><path d="M27.6 8.983c.92-.477 1.88-.755 2.88-.914.2-.04.2-.318 0-.318-1.08.159-2.08.437-3.04.954-.16.12 0 .358.16.278zm1.84 4.531c1.2-.278 2.36-.635 3.52-1.073.16-.08.12-.357-.08-.278-1.16.437-2.32.795-3.52 1.073-.2 0-.12.318.08.278z" fill="#0AB6E2"/><path d="M29.48 8.347a.837.837 0 01-.24-.159c-.04.08-.08.2-.12.279 2.44.397 3.48 3.14 1.84 5.008-.12.16.08.358.2.199 1.76-2.027.72-5.088-1.96-5.525-.16-.04-.28.159-.12.278.08.04.16.08.24.159.16.12.32-.159.16-.239z" fill="#0AB6E2"/></svg>