<svg width="74" height="65" fill="none" xmlns="http://www.w3.org/2000/svg"><g clip-path="url(#clip0)" fill="#204686"><path d="M5.326 64.278c.615-.673.956-1.491 1.23-2.357.386-1.203.842-2.261 1.502-3.344 1.457-2.382 2.709-4.835 3.847-7.41 1.092-2.501 2.117-5.051 3.14-7.577.889-2.165 2.277-4.547 1.958-7-.068-.458-.728-.265-.66.192.228 1.636-.546 3.151-1.138 4.595-.455 1.082-.888 2.165-1.343 3.271-.956 2.334-1.89 4.667-2.936 6.953a60.776 60.776 0 01-3.369 6.423c-.5.818-.979 1.636-1.32 2.55-.41 1.13-.615 2.285-1.434 3.2-.273.336.205.841.523.504z"/><path d="M15.98 40.51c-.16-1.058-.73-1.828-1.367-2.621-1.001-1.251-1.73-2.574-2.435-4.018-1.298-2.646-3.278-4.715-4.758-7.217-1.547-2.598-2.503-5.509-3.437-8.371-1.047-3.152-1.843-6.207-2.185-9.55-.068-.602-.136-1.227-.296-1.829-.182-.65-.637-1.275-.75-1.948-.297-1.636 1.228-2.19 2.435-1.9.774.192 1.525.649 2.162 1.106 1.115.818 2.117 1.924 2.55 3.32.432 1.37.204 2.79.956 4.041.728 1.275 1.661 2.454 2.526 3.633.774 1.082 1.594 2.092 2.618 2.934 1.912 1.564 4.165 2.526 6.35 3.56 2.573 1.228 4.94 2.719 6.92 4.908 2.072 2.285 3.574 5.052 4.416 8.083.137.433.774.265.66-.192-1.502-5.365-5.008-9.863-9.697-12.437-2.435-1.324-5.076-2.238-7.374-3.85-1.32-.914-2.368-2.068-3.301-3.391-.524-.722-1.024-1.468-1.548-2.214-.546-.77-1.184-1.515-1.411-2.477-.364-1.492-.25-2.839-1.047-4.186-.638-1.059-1.548-1.925-2.55-2.598C3.892 2.358.91 1.37.091 3.849c-.41 1.251.57 2.526.842 3.68.41 1.733.364 3.561.729 5.293.705 3.248 1.82 6.495 3.004 9.599.592 1.587 1.275 3.15 2.14 4.594.91 1.54 2.071 2.911 3.096 4.354 1.07 1.54 1.775 3.272 2.686 4.908.842 1.491 2.435 2.694 2.708 4.45.091.433.751.24.683-.216z"/><path d="M10.266 12.028c1.16-3.007 2.595-6.591 4.87-8.853 1.139-1.13 4.69-2.934 4.166.241-.273 1.732-1.547 2.718-2.23 4.186-.25.553-.205 1.082-.296 1.66-.137.745-.478 1.323-.865 1.924-.524.842-1.093 1.756-.888 2.815.228 1.154 1.23 1.804 2.14 2.31 1.639.865 2.868 1.851 3.482 3.752.137.433.797.24.66-.193-.455-1.37-1.229-2.574-2.39-3.392-.819-.6-1.889-.866-2.617-1.587-.979-.986-.57-2.045.023-3.055.341-.578.75-1.131.956-1.757.318-.914.182-1.828.705-2.67.842-1.323 1.844-2.477 2.026-4.137.387-3.681-3.46-2.358-5.099-.89-2.572 2.333-4.097 6.206-5.326 9.454-.137.433.524.625.683.192z"/><path d="M17.026 15.468c1.32-3.68 3.027-7.12 5.44-10.151 1.116-1.396 2.367-2.887 3.801-3.922.752-.553 1.799-.962 2.64-.409 1.367.89.16 2.598-.432 3.537-1.047 1.635-2.117 3.271-3.186 4.907-.865 1.323-2.254 2.839-2.504 4.475-.114.697.023 1.395 0 2.093-.023 1.034-.683 1.491-.956 2.357-.5 1.54 1.82 1.323 1.957 2.598.046.457.729.457.683 0-.045-.385-.136-.674-.364-.962-.341-.41-1.23-.578-1.457-.986-.273-.482.592-1.42.729-1.925.182-.625.114-1.323.09-1.973-.067-2.02 1.298-3.536 2.323-5.124 1.07-1.635 2.116-3.271 3.186-4.907.66-1.01 1.64-2.333 1.161-3.657C29.818.53 28.907.024 28.043 0c-1.23-.048-2.253.818-3.119 1.612a30.67 30.67 0 00-3.3 3.656c-2.322 3.031-3.96 6.4-5.258 10.008-.16.433.5.625.66.192z"/><path d="M29.932 3.993c.82-.433 2.664-1.058 2.846.433.113 1.035-.273 2.021-.934 2.743-.296.336.182.842.478.505.91-1.01 1.571-2.743.934-4.09-.66-1.395-2.686-.745-3.688-.216-.364.216-.023.842.364.625z"/><path d="M27.224 20.857c.66-2.67 1.297-5.34 2.071-7.987.364-1.25.706-2.67 1.434-3.753.205-.312.5-.65.842-.818.66-.36 1.116-.264 1.57.289.547.65.524 1.347.502 2.19 0 1.467-.228 2.717-.797 4.065-.364.866-.341 1.467-.137 2.357.205.866.182 1.684-.182 2.502-.182.433-.478.818-.614 1.25-.342.987.432 1.998.068 2.888-.182.433.41.794.592.36.182-.433.205-.745.136-1.202-.068-.41-.273-.842-.273-1.251.023-.53.319-.938.547-1.371.614-1.227.569-2.214.341-3.537-.182-1.082.16-1.611.523-2.55.274-.697.387-1.443.456-2.189.09-1.178.273-2.959-.456-3.969-.546-.77-1.479-.914-2.298-.601-1.07.409-1.64 1.54-2.049 2.574-1.32 3.367-2.049 7.048-2.914 10.56-.136.457.524.65.638.193z"/><path d="M29.477 22.469v-.313c0-.193-.159-.361-.341-.361-.182 0-.342.168-.342.36v.314c0 .192.16.36.342.36.182 0 .341-.144.341-.36z"/><path d="M28.726 22.011a12.55 12.55 0 015.918 7.939c.5 2.117.683 4.354.933 6.495.25 2.117.501 4.21.729 6.327.205 1.949.318 3.825-.82 5.485-1.001 1.491-2.048 2.574-2.39 4.45-.705 3.921-.933 7.987-1.388 11.932-.046.457.637.457.683 0 .273-2.31.523-4.619.796-6.904.25-2.141.137-4.763 1.161-6.688.865-1.636 2.3-2.694 2.663-4.618.342-1.805-.022-3.753-.227-5.558a507.535 507.535 0 00-.729-6.182c-.273-2.117-.432-4.306-1.16-6.327a13.24 13.24 0 00-5.828-7.024c-.387-.193-.728.433-.341.673zM12.61 10.753c.82.24 2.208.794 2.254 1.877 0 .24.341.24.341 0-.045-1.276-1.502-1.925-2.504-2.214-.227-.072-.318.265-.09.337zm2.072-4.715c1.001.24 1.82.89 2.299 1.828.113.193.41.024.295-.192-.546-1.01-1.434-1.732-2.503-1.997-.228-.048-.319.313-.091.361zm8.649.144c.592-.168 1.48.41 1.98.746.592.385 1.048.914 1.23 1.636.045.217.387.12.318-.096-.204-.818-.705-1.42-1.388-1.853-.615-.408-1.502-.986-2.23-.77-.228.049-.137.41.09.337zm-1.98 5.678c-.068.024-.136.024-.205.048-.136.024-.16.24-.045.337.75.505 1.639 1.082 1.684 2.14 0 .241.341.241.341 0-.045-1.178-.978-1.876-1.843-2.453-.023.12-.023.216-.046.337.069-.024.137-.024.205-.048.205-.049.114-.41-.09-.361zm10.539 3.295a.806.806 0 00-.683-.264.185.185 0 00-.091.337c.433.312.82.721 1.115 1.202.114.193.41 0 .296-.192a5.103 5.103 0 00-1.229-1.323c-.023.12-.068.216-.09.337a.43.43 0 01.432.168c.159.144.41-.096.25-.264zm-1.275 5.895c.205.047.387.24.41.456.023.24.364.24.341 0a.908.908 0 00-.66-.818c-.227-.024-.318.313-.09.361zM5.987 10.152c1.229.144 2.299.77 3.073 1.78.136.168.387-.072.25-.265-.842-1.082-2.003-1.732-3.323-1.876-.205-.024-.205.337 0 .36zM1.275 7.24c.82.41 1.365-.745 1.434-1.442.113-1.155-.592-2.093-1.434-2.695-.182-.12-.365.193-.182.313.5.36.91.77 1.138 1.371.113.313.159.626.136.986-.045.361-.341 1.444-.933 1.155-.182-.096-.364.217-.16.313zm67.899 56.533c-.774-.842-1.001-1.948-1.365-3.03-.32-.915-.774-1.733-1.252-2.527a57.918 57.918 0 01-3.483-6.591c-1.002-2.213-1.912-4.499-2.845-6.76-.456-1.083-.888-2.165-1.343-3.272-.615-1.515-1.457-3.103-1.207-4.811.069-.457-.591-.65-.66-.192-.318 2.381 1.002 4.666 1.867 6.783 1.07 2.599 2.094 5.22 3.232 7.77a61.46 61.46 0 003.733 7.242 16.429 16.429 0 011.57 3.343c.296.939.638 1.805 1.275 2.526.296.361.774-.144.478-.48z"/><path d="M58.704 40.703c.25-1.612 1.57-2.622 2.39-3.897.888-1.395 1.457-2.983 2.322-4.402 1.661-2.743 3.778-4.98 5.099-7.963 1.274-2.887 2.253-5.942 3.14-8.973.479-1.588.866-3.2 1.07-4.86.114-.865.137-1.78.274-2.645.136-.866.523-1.588.796-2.406.934-2.718-1.82-3.8-3.847-2.935-2.048.866-4.006 2.694-4.575 5.028-.182.698-.159 1.42-.296 2.117-.182.986-.66 1.66-1.206 2.454-1.047 1.491-2.026 3.103-3.255 4.402-2.026 2.117-4.734 3.223-7.261 4.45-5.577 2.67-9.879 7.121-11.654 13.424-.137.457.523.625.66.192 1.502-5.34 5.03-9.67 9.72-12.172 2.23-1.18 4.62-2.07 6.737-3.464 2.185-1.444 3.619-3.513 5.121-5.678.752-1.082 1.616-2.093 1.821-3.464.273-1.66.364-3.03 1.457-4.378.842-1.034 2.026-1.949 3.278-2.358.865-.312 2.14-.336 2.663.65.546 1.01-.364 2.141-.637 3.08-.41 1.418-.342 2.934-.592 4.377-.273 1.636-.706 3.248-1.207 4.812-.91 2.934-1.82 5.942-3.163 8.684-1.389 2.91-3.642 5.148-5.167 7.939-.843 1.54-1.457 3.199-2.55 4.57-.774.986-1.616 1.877-1.82 3.2-.046.48.614.673.682.216z"/><path d="M64.394 11.836c-1.252-3.224-2.754-7.12-5.326-9.454-1.639-1.492-5.486-2.815-5.099.89.182 1.636 1.184 2.838 2.026 4.137.546.842.387 1.756.706 2.67.227.65.614 1.18.956 1.757.614 1.01 1.024 2.069.023 3.055-.729.746-1.799 1.01-2.618 1.588-1.161.818-1.935 2.02-2.39 3.392-.137.433.523.625.66.192.592-1.78 1.73-2.839 3.3-3.657.98-.505 2.095-1.154 2.322-2.405.205-.986-.296-1.877-.797-2.694-.34-.554-.75-1.107-.91-1.757-.182-.673-.068-1.347-.341-1.996-.615-1.396-1.799-2.31-2.186-3.873-.09-.41-.25-1.227-.045-1.66.364-.77 1.16-.578 1.753-.41.91.265 1.73.819 2.412 1.492 2.277 2.262 3.71 5.846 4.871 8.853.205.505.865.313.683-.12z"/><path d="M57.634 15.276c-1.138-3.2-2.55-6.23-4.484-8.973a31.483 31.483 0 00-3.073-3.729c-.933-.962-1.98-2.117-3.3-2.478-.866-.24-1.89-.048-2.527.674-.774.914-.455 2.117.045 3.08.888 1.683 2.049 3.223 3.073 4.81.979 1.492 2.276 3.056 2.982 4.715.592 1.468-.068 3.007.66 4.45.182.338.228.217.296.723.068.721.068.312-.296.649-.227.24-.614.337-.865.577-.364.337-.546.674-.592 1.18-.045.456.638.456.683 0 .137-1.276 2.459-1.06 1.958-2.599-.273-.818-.91-1.227-.956-2.19-.023-.745.114-1.515 0-2.26-.25-1.564-1.57-3.007-2.39-4.282-1.093-1.708-2.208-3.392-3.3-5.1-.615-.963-1.799-2.647-.433-3.537.82-.529 1.775-.192 2.504.29 1.502.985 2.822 2.621 3.938 4.04 2.412 3.032 4.12 6.448 5.44 10.152.136.433.796.24.637-.192z"/><path d="M44.432 3.368c-1.002-.53-3.027-1.179-3.687.216-.638 1.347.045 3.104.933 4.09.296.337.797-.169.478-.505-.66-.746-1.047-1.732-.933-2.743.182-1.467 2.025-.866 2.845-.433.41.217.751-.409.364-.625z"/><path d="M47.46 20.664c-.843-3.488-1.571-7.169-2.892-10.536-.41-1.035-.956-2.165-2.025-2.598-.82-.337-1.799-.193-2.345.577-.683.986-.523 2.598-.455 3.753.045.745.136 1.491.387 2.213.319.89.82 1.563.637 2.574-.228 1.299-.364 2.333.228 3.56.182.385.41.698.5 1.13.137.554 0 .94-.113 1.468-.114.53-.114.866.09 1.372.183.433.752.048.593-.361-.342-.842.387-1.9.09-2.839-.432-1.299-1.183-2.093-.864-3.633.182-.914.341-1.467 0-2.357-.547-1.443-.865-2.646-.865-4.234 0-.53-.069-1.227.136-1.732.524-1.443 1.867-1.01 2.595-.168.842 1.01 1.184 2.526 1.57 3.777.775 2.718 1.458 5.46 2.118 8.203.068.48.728.288.614-.169z"/><path d="M45.228 22.469v-.313c0-.193-.16-.361-.341-.361-.182 0-.342.168-.342.36v.314c0 .192.16.36.342.36.182 0 .341-.144.341-.36z"/><path d="M44.933 21.386a13.24 13.24 0 00-5.827 7.024c-.729 1.997-.888 4.21-1.161 6.327-.25 2.069-.501 4.114-.729 6.183-.205 1.804-.569 3.728-.227 5.557.364 1.924 1.798 2.983 2.663 4.618 1.024 1.925.91 4.547 1.16 6.688.274 2.31.524 4.619.797 6.904.046.457.729.457.683 0-.455-3.97-.705-8.01-1.388-11.932-.296-1.732-1.23-2.814-2.208-4.186-1.275-1.756-1.23-3.656-1.002-5.749.205-2.045.456-4.065.706-6.086.273-2.237.433-4.547.956-6.736a12.55 12.55 0 015.918-7.939c.41-.288.046-.914-.341-.673zm16.389-10.994c-1.002.289-2.459.939-2.504 2.213 0 .241.341.241.341 0 .046-1.082 1.434-1.635 2.254-1.876.205-.048.114-.385-.091-.337zM59.25 5.677a3.874 3.874 0 00-2.504 1.997c-.114.192.182.385.296.192.501-.938 1.32-1.587 2.3-1.828.204-.048.113-.409-.092-.36zm-8.468.169c-.728-.193-1.639.385-2.23.77-.66.432-1.184 1.034-1.389 1.852-.045.216.273.312.319.096.182-.722.637-1.251 1.229-1.636.5-.337 1.366-.914 1.98-.746.205.073.296-.288.091-.336zm1.798 6.374c.07.025.138.025.206.049-.023-.12-.023-.217-.046-.337-.888.577-1.798 1.25-1.843 2.454 0 .24.34.24.34 0 .046-1.035.934-1.636 1.685-2.141.114-.072.114-.289-.045-.337-.069-.024-.137-.024-.205-.048-.205-.048-.296.313-.091.36zm-10.22 3.176c.114-.144.251-.192.433-.168-.023-.12-.068-.217-.091-.337-.5.36-.91.794-1.23 1.323-.113.192.183.385.297.192.296-.48.66-.866 1.115-1.202a.185.185 0 00-.09-.337.831.831 0 00-.684.264c-.136.193.091.433.25.265zm.956 5.316a.908.908 0 00-.66.818c-.022.24.319.24.342 0a.525.525 0 01.41-.457c.227-.072.136-.409-.092-.36zM68.014 9.791c-1.32.144-2.481.794-3.324 1.876-.136.169.114.433.25.265.775-1.01 1.844-1.636 3.074-1.78.227-.024.227-.385 0-.361zm4.552-2.863c-.5.24-.842-.625-.91-.962-.092-.409-.023-.794.113-1.179.228-.601.638-1.034 1.138-1.371.182-.12 0-.433-.182-.313-.865.602-1.548 1.54-1.434 2.695.069.697.638 1.852 1.434 1.443.228-.096.046-.41-.16-.313zM58.203 35.17a19.56 19.56 0 00-.319 3.031c0 .12.16.12.182 0 .023-1.01.137-1.996.319-2.983 0-.12-.16-.168-.182-.048zm.66-1.54a37.293 37.293 0 01-.364 4.788c-.023.12.16.168.16.048.227-1.612.364-3.224.386-4.835 0-.12-.182-.12-.182 0zm.706-.721a11.849 11.849 0 01-.228 3.584c-.023.12.137.169.16.048.25-1.202.318-2.405.227-3.632 0-.12-.16-.12-.16 0zm1.138-.962a21.01 21.01 0 01-1.093 5.292c-.045.12.137.169.16.048a21.155 21.155 0 001.092-5.34c.023-.12-.136-.12-.16 0z"/><path d="M61.003 31.225c.182 1.852-.091 3.608-.865 5.292-.045.097.091.193.137.097a10.423 10.423 0 00.887-5.389c0-.12-.159-.12-.159 0zm1.411-2.405a13.832 13.832 0 01-.956 6.374c-.045.097.114.145.16.048a14.033 14.033 0 00.956-6.422c0-.12-.16-.12-.16 0z"/><path d="M63.461 29.156a21.268 21.268 0 01-.91 3.127c-.046.12.136.145.16.048.363-1.034.66-2.068.91-3.127.022-.12-.137-.168-.16-.048zm1.138-1.323c-.5 1.251-.979 2.478-1.48 3.729-.045.096.114.144.16.048.5-1.251.978-2.478 1.48-3.729.045-.12-.115-.168-.16-.048zM26.746 53.14a56.053 56.053 0 012.025-5.028c.046-.096-.09-.192-.136-.096a65.049 65.049 0 00-2.049 5.076c-.045.096.114.145.16.048zm.454 1.804a38.143 38.143 0 012.3-6.47c.045-.097-.091-.193-.137-.097a38.396 38.396 0 00-2.299 6.495c-.045.12.114.169.137.072z"/><path d="M27.087 54.848a98.633 98.633 0 013.05-6.736c.046-.096-.09-.192-.136-.096a104.202 104.202 0 00-3.05 6.736c-.046.096.09.192.136.096zm.797.121c1.183-2.526 2.367-5.052 3.528-7.578.045-.096-.091-.193-.137-.096a1126.786 1126.786 0 00-3.528 7.577c-.068.097.068.193.137.097zm.364 3.584a103.61 103.61 0 014.188-11.932c.046-.096-.114-.193-.136-.096a104.517 104.517 0 00-4.211 11.98c-.023.12.136.168.159.048zm.524 1.804a68.516 68.516 0 014.302-13.038c.045-.097-.091-.193-.137-.097a71.214 71.214 0 00-4.302 13.087c-.045.096.114.144.137.048z"/><path d="M29.705 59.756a136.598 136.598 0 013.528-12.39c.046-.12-.136-.168-.16-.047a123.303 123.303 0 00-3.527 12.389c-.023.096.136.144.159.048zm1.275 1.058a26.952 26.952 0 012.822-10.657c.046-.096-.09-.192-.136-.096a27.051 27.051 0 00-2.846 10.753c-.022.12.16.12.16 0zm22.397-13.688c.456 3.32 1.912 6.471 3.05 9.599.046.096.205.072.16-.049-1.138-3.103-2.595-6.278-3.05-9.598 0-.12-.16-.072-.16.048zm.319-2.742c1.184 4.21 2.345 8.395 3.528 12.605.023.12.205.072.16-.048-1.184-4.21-2.345-8.396-3.529-12.605-.022-.12-.182-.072-.159.048zm.524.336a395.108 395.108 0 004.916 14.458c.046.097.205.073.16-.048a413.964 413.964 0 01-4.917-14.458c-.023-.12-.182-.072-.16.049zm.933-.36c1.616 4.57 3.05 9.19 4.325 13.88.023.12.205.072.16-.048a194.796 194.796 0 00-4.326-13.88c-.022-.12-.182-.073-.159.048zm-.205-1.732a146.551 146.551 0 016.305 16.623c.046.12.205.072.16-.049a143.189 143.189 0 00-6.328-16.67c-.023-.12-.182-.025-.137.096zm.637-1.396l6.829 18.764c.045.096.205.072.16-.048l-6.83-18.764c-.045-.096-.204-.048-.159.048zm.342-.072a45.141 45.141 0 014.848 10.537c1.047 3.416 1.616 7.048 3.414 10.152.046.096.205 0 .137-.097-1.912-3.343-2.435-7.265-3.642-10.921a44.072 44.072 0 00-4.598-9.767c-.068-.096-.227 0-.16.096zm.91.361c4.006 6.351 7.216 13.183 9.629 20.4.045.12.205.072.16-.048a93.152 93.152 0 00-9.63-20.424c-.09-.12-.227-.024-.159.072zM10.584 12.942a7.916 7.916 0 01.638-2.502c.045-.096-.091-.192-.137-.096a7.772 7.772 0 00-.66 2.598c-.023.12.137.12.16 0zm.228.746c.069-.289.16-.553.228-.842.023-.12-.136-.168-.16-.048-.068.289-.159.553-.227.842-.023.096.137.144.16.048zm.455.096c-.068-1.179.25-2.261.888-3.223.068-.097-.091-.193-.137-.097a5.314 5.314 0 00-.91 3.296c0 .145.159.145.159.024zm.706.361c-.045-.77 0-1.515.114-2.261.023-.12-.137-.169-.16-.048-.113.77-.159 1.54-.113 2.31-.023.12.16.12.16 0z"/><path d="M12.178 14.867a8.487 8.487 0 01.25-2.622c.023-.12-.137-.169-.16-.048a8.07 8.07 0 00-.25 2.67c0 .12.182.12.16 0zm.546 1.203l.137-3.248c0-.12-.16-.12-.182 0l-.137 3.248c0 .12.182.12.182 0zm.478.36v-3.007c0-.12-.182-.12-.182 0v3.007c.023.12.182.12.182 0zm.228.361c0-1.082.068-2.14.273-3.223.022-.12-.137-.169-.16-.048a19.618 19.618 0 00-.273 3.271c-.023.12.16.12.16 0zm.796 0v-2.766c0-.12-.182-.12-.182 0v2.766c.023.12.182.12.182 0zm.569.722v-2.767c0-.12-.182-.12-.182 0v2.767c.023.12.182.12.182 0zm.455.12V15.59c0-.12-.182-.12-.182 0v2.044c.023.12.183.12.183 0zm.41.602a15.59 15.59 0 00.046-2.526c0-.12-.182-.12-.182 0 .046.842.023 1.684-.045 2.526 0 .12.159.12.182 0zm.751.361a16.599 16.599 0 01.069-3.008c.023-.12-.16-.12-.182 0a16.599 16.599 0 00-.069 3.008c.023.12.182.12.182 0zm.433-.361a5.364 5.364 0 01.205-1.9c.023-.121-.137-.17-.16-.049a5.632 5.632 0 00-.204 1.949c0 .12.182.12.159 0zm.683.721c.114-.914.136-1.852.114-2.766 0-.12-.182-.12-.182 0 .045.938 0 1.852-.114 2.766 0 .12.182.12.182 0zm.569.121c-.046-1.155.023-2.31.25-3.465.023-.12-.136-.168-.159-.048a15.123 15.123 0 00-.25 3.513c0 .12.182.12.159 0zm.478.24a19.375 19.375 0 01.114-3.247c.023-.12-.16-.12-.182 0a19.386 19.386 0 00-.114 3.247c0 .12.182.12.182 0zm.91.602a14.326 14.326 0 01.205-3.946c.023-.12-.136-.168-.16-.048a15.643 15.643 0 00-.227 3.994c.023.096.182.12.182 0zm.661.601c.045-1.491.182-2.959.432-4.426.023-.12-.137-.169-.16-.049a29.504 29.504 0 00-.455 4.475c.023.12.183.12.183 0zm1.115.962c.09-1.323.182-2.646.25-3.97 0-.12-.16-.12-.182 0-.091 1.324-.182 2.647-.25 3.97 0 .096.159.096.182 0zm1.07.842a40.885 40.885 0 01.068-4.09c0-.12-.16-.12-.182 0-.091 1.372-.137 2.719-.068 4.09 0 .12.182.12.182 0zm1.138-1.082a15.991 15.991 0 01.09-2.767c.024-.12-.159-.12-.181 0a16.061 16.061 0 00-.091 2.767c0 .12.182.12.182 0zm1.024 1.684a28.84 28.84 0 01.546-3.946c.023-.12-.136-.168-.159-.048a29.5 29.5 0 00-.546 3.994c-.023.12.136.12.16 0zm1.229.24c0-1.275.068-2.55.25-3.825.023-.12-.159-.168-.159-.048a27.441 27.441 0 00-.273 3.873c.023.12.182.12.182 0zm.456 1.324l.341-2.647c.023-.12-.16-.12-.182 0l-.341 2.646c-.023.097.159.097.182 0zm.887 1.082c.114-1.13.228-2.237.32-3.368 0-.12-.16-.12-.183 0-.114 1.13-.228 2.237-.319 3.368 0 .096.182.096.182 0zm.729.361a24.17 24.17 0 01.114-3.85c.022-.12-.16-.12-.183 0a27.068 27.068 0 00-.113 3.85c0 .12.182.12.182 0zm.569.962c-.068-1.323 0-2.646.228-3.945.022-.12-.137-.169-.16-.048-.227 1.323-.296 2.646-.227 3.993-.023.12.159.12.159 0zm1.07.722c.136-1.035.25-2.093.387-3.128.022-.12-.16-.12-.182 0-.137 1.035-.25 2.093-.387 3.128 0 .12.159.12.182 0zm1.069 2.189a12.07 12.07 0 00.365-2.55c0-.12-.16-.12-.183 0a10.365 10.365 0 01-.364 2.502c-.022.096.16.144.182.048zm.843.914c.113 0 .113-.193 0-.193-.114 0-.114.193 0 .193zm10.379-6.952a21.879 21.879 0 012.55-2.935c.09-.072-.046-.217-.114-.12-.934.914-1.799 1.9-2.572 2.982-.092.073.068.169.136.073zm-.091-.338c.979-1.49 1.98-2.958 2.96-4.45.068-.096-.092-.192-.137-.096-.979 1.492-1.98 2.96-2.96 4.45-.068.097.069.193.137.097z"/><path d="M42.201 22.204c-.023-1.179.433-2.261 1.275-3.031.09-.072-.046-.193-.114-.12-.888.793-1.343 1.948-1.32 3.175 0 .096.16.096.16-.024zm-.182-1.419a8.334 8.334 0 011.297-2.502c.069-.097-.045-.217-.113-.12a8.183 8.183 0 00-1.343 2.598c-.046.096.114.144.159.024z"/><path d="M41.996 20.905a8.123 8.123 0 011.024-2.382c.069-.096-.09-.192-.136-.096a8.457 8.457 0 00-1.047 2.43c-.046.096.136.144.16.048zm-.318-.986a2.766 2.766 0 01.728-1.997c.068-.072-.045-.217-.114-.12a2.993 2.993 0 00-.774 2.117c0 .12.182.12.16 0zm-.455-.145a2.545 2.545 0 01.66-2.189c.068-.072-.046-.216-.114-.12a2.743 2.743 0 00-.683 2.381c-.023.073.137.024.137-.072z"/><path d="M41.313 18.379a4.003 4.003 0 011.093-1.66c.091-.072-.045-.192-.114-.12a3.979 3.979 0 00-1.138 1.732c-.023.096.137.144.16.048zm10.698 1.251c1.435-1.467 2.846-2.935 4.28-4.378.068-.072-.046-.217-.114-.12-1.434 1.467-2.845 2.934-4.28 4.378-.09.072.023.192.114.12zm-.523-.914c.91-1.54 2.072-2.815 3.506-3.801.09-.072 0-.217-.091-.144a12.594 12.594 0 00-3.574 3.873c-.046.072.091.168.16.072zm-.296-.481c.296-.987.843-1.829 1.616-2.454.092-.072-.045-.193-.113-.12a5.021 5.021 0 00-1.662 2.55c-.046.096.114.144.16.024zm-.091-.795a5.867 5.867 0 011.138-1.66c.068-.071-.045-.216-.114-.12a6.433 6.433 0 00-1.16 1.684c-.069.097.068.193.136.097zm-1.731 2.334c.57-.288 1.116-.601 1.685-.89.091-.048.023-.216-.09-.144-.57.289-1.116.601-1.685.89-.091.048 0 .192.09.144zm13.09-7.289c.523 1.01-.774 2.31-1.366 2.96-.615.673-1.298 1.226-2.026 1.731-.091.072 0 .217.091.145 1.07-.722 2.049-1.612 2.845-2.695.478-.65 1.047-1.42.615-2.237-.068-.096-.205 0-.16.096zm-4.28 26.967c1.389-1.082 2.459-2.478 3.21-4.113.045-.097-.091-.193-.137-.097a10.576 10.576 0 01-3.163 4.042c-.092.072 0 .216.09.168zm-.455-.625a532.155 532.155 0 013.096-4.523c.068-.096-.091-.192-.137-.096a530.574 530.574 0 01-3.096 4.523c-.09.096.069.192.137.096zm-.615-.577a35.496 35.496 0 005.145-7.963c.045-.096-.091-.193-.137-.096a35.1 35.1 0 01-5.121 7.914c-.091.096.045.24.113.145zm12.633-21.122c-1.365 4.162-3.573 7.89-6.51 10.994-.068.072.046.216.114.12 2.96-3.127 5.19-6.904 6.556-11.066.045-.096-.114-.144-.16-.048z"/><path d="M68.514 18.33a20.192 20.192 0 01-4.325 6.809c-.068.072.046.216.114.12 1.912-1.973 3.37-4.282 4.37-6.88.046-.096-.136-.144-.159-.048zm.136 2.455c.206 1.443-.841 2.646-1.593 3.728-.637.914-1.274 1.829-1.934 2.719a104.387 104.387 0 01-3.733 4.739c-.069.096.045.216.114.12 1.57-1.9 3.095-3.825 4.53-5.846 1.069-1.491 3.05-3.464 2.753-5.509.023-.096-.136-.048-.136.049zM30.593 48.353a40.261 40.261 0 003.118-3.2c.068-.096-.045-.216-.114-.12a36.55 36.55 0 01-3.118 3.2c-.091.072.023.192.114.12zm.341 1.083c.956-1.083 1.89-2.166 2.845-3.248.068-.096-.045-.217-.114-.12-.956 1.082-1.889 2.165-2.845 3.247-.091.073.023.217.114.12zm.091.36a18.275 18.275 0 003.278-3.44c.068-.096-.046-.216-.114-.12a18.656 18.656 0 01-3.233 3.416c-.113.048-.022.217.069.144z"/><path d="M31.139 49.796c1.275-.818 2.322-1.924 3.118-3.247.069-.096-.09-.193-.136-.096a9.735 9.735 0 01-3.05 3.2c-.114.047-.023.191.068.143zm.569 1.059c.956-1.275 1.912-2.55 2.845-3.85.068-.095-.046-.216-.114-.12-.956 1.276-1.912 2.55-2.845 3.85-.091.096.045.216.114.12zm.137.505a15.963 15.963 0 002.913-3.344c.068-.096-.09-.192-.137-.096a15.592 15.592 0 01-2.89 3.296c-.091.096.022.216.114.144z"/><path d="M32.755 51a10.496 10.496 0 002.868-3.73c.045-.096-.091-.192-.137-.096a10.616 10.616 0 01-2.845 3.705c-.091.072.023.193.114.12z"/></g><defs><clipPath id="clip0"><path fill="#fff" d="M0 0h74v65H0z"/></clipPath></defs></svg>