<svg width="43" height="38" fill="none" xmlns="http://www.w3.org/2000/svg"><g clip-path="url(#clip0)" fill="#204686"><path d="M3.095 37.578c.357-.394.556-.872.714-1.378.225-.703.49-1.322.873-1.955a36.68 36.68 0 002.236-4.332c.634-1.462 1.23-2.953 1.825-4.43.516-1.265 1.322-2.658 1.137-4.092-.04-.267-.423-.155-.383.112.132.957-.318 1.843-.662 2.686-.264.633-.515 1.266-.78 1.913-.555 1.364-1.098 2.729-1.706 4.064a35.593 35.593 0 01-1.958 3.756c-.29.478-.569.956-.767 1.49-.238.661-.357 1.336-.833 1.87-.159.198.119.493.304.296z"/><path d="M9.285 23.683c-.093-.619-.423-1.069-.794-1.533-.582-.731-1.005-1.505-1.415-2.348-.754-1.547-1.905-2.757-2.764-4.22-.9-1.518-1.455-3.22-1.998-4.894-.608-1.842-1.071-3.628-1.27-5.583-.04-.351-.079-.717-.171-1.069-.106-.38-.37-.745-.437-1.139-.172-.956.714-1.28 1.415-1.11.45.112.887.379 1.257.646.648.478 1.23 1.125 1.481 1.94.252.802.12 1.632.556 2.363.423.746.965 1.435 1.468 2.124.45.633.926 1.224 1.521 1.716 1.111.914 2.42 1.476 3.69 2.081 1.495.717 2.87 1.59 4.021 2.87a11.687 11.687 0 012.566 4.725c.08.253.45.154.384-.113-.873-3.136-2.91-5.766-5.635-7.27-1.415-.774-2.95-1.309-4.285-2.25-.767-.535-1.376-1.21-1.918-1.984-.304-.422-.595-.858-.9-1.294-.317-.45-.687-.886-.82-1.448-.211-.872-.145-1.66-.608-2.447-.37-.62-.9-1.126-1.481-1.52C2.26 1.379.528.803.053 2.25c-.239.731.33 1.477.489 2.152.238 1.013.212 2.081.423 3.094.41 1.899 1.058 3.797 1.746 5.611.344.929.74 1.843 1.243 2.687.53.9 1.204 1.701 1.8 2.545.62.9 1.031 1.913 1.56 2.869.49.872 1.415 1.575 1.574 2.602.053.253.436.14.397-.127z"/><path d="M5.965 7.032c.675-1.758 1.508-3.854 2.83-5.176.662-.66 2.725-1.715 2.421.141-.159 1.013-.9 1.59-1.296 2.447-.146.324-.12.633-.172.97-.08.436-.278.774-.503 1.126-.304.492-.635 1.026-.515 1.645.132.675.714 1.055 1.243 1.35.952.506 1.666 1.083 2.023 2.194.08.253.463.14.384-.112-.264-.802-.714-1.505-1.389-1.983-.476-.352-1.098-.507-1.52-.929-.57-.576-.331-1.195.012-1.786.199-.337.437-.66.556-1.026.185-.535.106-1.07.41-1.561.49-.774 1.071-1.449 1.177-2.42.225-2.151-2.01-1.378-2.963-.52C7.17 2.756 6.283 5.021 5.568 6.92c-.079.253.305.366.397.113z"/><path d="M9.893 9.043c.768-2.152 1.76-4.163 3.162-5.935.648-.816 1.375-1.688 2.209-2.292.436-.324 1.044-.563 1.534-.24.793.521.092 1.52-.251 2.068-.609.956-1.23 1.913-1.852 2.869-.503.773-1.31 1.66-1.455 2.616-.066.408.013.816 0 1.223-.013.605-.397.872-.556 1.379-.29.9 1.059.773 1.138 1.518.026.268.423.268.397 0-.027-.225-.08-.393-.212-.562-.198-.24-.714-.338-.846-.577-.16-.281.343-.83.423-1.125.106-.365.066-.773.053-1.153-.04-1.181.754-2.067 1.349-2.996.621-.956 1.23-1.912 1.851-2.869.384-.59.953-1.364.675-2.137-.185-.52-.714-.816-1.217-.83-.714-.028-1.31.478-1.812.942a17.904 17.904 0 00-1.918 2.138c-1.349 1.772-2.301 3.74-3.055 5.85-.093.254.29.366.383.113z"/><path d="M17.393 2.335c.476-.254 1.548-.62 1.653.253a2.061 2.061 0 01-.542 1.603c-.172.197.106.492.278.295.529-.59.913-1.603.542-2.39-.383-.816-1.56-.436-2.143-.127-.211.126-.013.492.212.366z"/><path d="M15.82 12.193c.383-1.56.753-3.122 1.203-4.669.211-.731.41-1.561.833-2.194.119-.183.291-.38.49-.478.383-.211.648-.155.912.169.318.38.304.787.291 1.28 0 .857-.132 1.589-.463 2.376-.211.507-.198.858-.08 1.379.12.506.107.984-.105 1.462-.106.253-.278.478-.357.731-.199.577.251 1.168.04 1.688-.106.253.238.464.343.211a1.17 1.17 0 00.08-.703c-.04-.24-.159-.492-.159-.732.013-.309.185-.548.317-.801.358-.717.331-1.294.199-2.067-.106-.633.092-.943.304-1.491.159-.408.225-.844.265-1.28.052-.69.158-1.73-.265-2.32-.317-.45-.86-.535-1.336-.352-.622.239-.952.9-1.19 1.505-.767 1.969-1.19 4.12-1.693 6.174-.08.267.304.38.37.112z"/><path d="M17.129 13.136v-.183c0-.113-.093-.211-.199-.211-.105 0-.198.098-.198.21v.184c0 .112.093.21.198.21.106 0 .199-.084.199-.21z"/><path d="M16.692 12.868a7.332 7.332 0 013.44 4.641c.29 1.238.396 2.546.541 3.797.146 1.238.291 2.462.424 3.7.119 1.138.185 2.235-.477 3.206-.582.872-1.19 1.505-1.388 2.602-.41 2.292-.543 4.669-.807 6.975-.027.267.37.267.397 0 .158-1.35.304-2.7.463-4.036.145-1.252.079-2.785.674-3.91.503-.956 1.336-1.575 1.548-2.7.198-1.055-.014-2.194-.133-3.249-.132-1.21-.277-2.419-.423-3.614-.159-1.238-.251-2.518-.674-3.699a7.73 7.73 0 00-3.386-4.106c-.225-.113-.424.253-.199.393zM7.328 6.286c.476.141 1.283.465 1.309 1.097a.1.1 0 00.198 0c-.026-.745-.873-1.125-1.455-1.293-.132-.043-.185.154-.052.196zM8.531 3.53c.582.14 1.058.52 1.336 1.069.066.112.238.014.172-.113-.317-.59-.833-1.012-1.455-1.167-.132-.028-.185.183-.053.211zm5.027.084c.344-.098.86.24 1.15.436.344.225.609.535.715.957.026.126.225.07.185-.057-.12-.478-.41-.83-.807-1.082-.357-.24-.873-.577-1.296-.45-.132.028-.08.239.053.196zm-1.151 3.319c-.04.014-.08.014-.12.028-.079.015-.092.141-.026.197.437.296.952.633.979 1.252 0 .14.198.14.198 0-.026-.69-.569-1.097-1.071-1.434-.013.07-.013.126-.027.196.04-.014.08-.014.12-.028.118-.028.066-.239-.053-.21zM18.53 8.86a.467.467 0 00-.396-.155.109.109 0 00-.053.197c.251.183.476.422.648.704.066.112.238 0 .172-.113a2.976 2.976 0 00-.714-.774c-.014.07-.04.127-.053.197.105-.014.185.014.251.099.093.084.238-.056.145-.155zm-.74 3.446c.119.028.225.14.238.267.013.14.212.14.199 0a.53.53 0 00-.384-.478c-.132-.014-.185.183-.053.21zM3.478 5.935c.715.084 1.336.45 1.786 1.04.08.1.225-.042.146-.154a2.792 2.792 0 00-1.932-1.097c-.119-.014-.119.197 0 .21zM.74 4.233c.477.24.794-.436.834-.844.066-.675-.344-1.223-.834-1.575-.105-.07-.211.113-.105.183.29.211.529.45.661.802.066.183.093.365.08.576-.027.211-.2.844-.543.675-.106-.056-.212.127-.093.183zm39.456 33.05c-.45-.492-.582-1.14-.794-1.772-.185-.535-.45-1.013-.727-1.477a33.93 33.93 0 01-2.024-3.853c-.582-1.294-1.111-2.63-1.653-3.952-.265-.633-.516-1.266-.78-1.913-.358-.886-.847-1.814-.702-2.813.04-.267-.344-.38-.383-.112-.185 1.392.582 2.728 1.084 3.966.622 1.519 1.217 3.052 1.879 4.542a35.997 35.997 0 002.169 4.233c.383.633.674 1.252.912 1.955.172.549.37 1.055.741 1.477.172.211.45-.084.278-.281z"/><path d="M34.112 23.796c.145-.942.912-1.533 1.389-2.279.515-.815.846-1.744 1.349-2.573.965-1.604 2.195-2.911 2.962-4.655.741-1.688 1.31-3.474 1.826-5.246.278-.928.502-1.87.621-2.84.067-.507.08-1.042.16-1.548.079-.506.303-.928.462-1.406.542-1.59-1.058-2.222-2.235-1.716-1.19.506-2.328 1.575-2.659 2.94-.106.407-.092.829-.172 1.237-.105.576-.383.97-.7 1.434-.61.872-1.178 1.815-1.892 2.574-1.177 1.238-2.751 1.884-4.22 2.602-3.24 1.56-5.74 4.163-6.772 7.847-.079.267.305.366.384.113.873-3.122 2.923-5.654 5.648-7.116 1.296-.69 2.685-1.21 3.915-2.026 1.27-.843 2.103-2.053 2.976-3.319.436-.632.939-1.223 1.058-2.025.159-.97.212-1.772.847-2.56.489-.604 1.177-1.139 1.904-1.378.503-.182 1.243-.196 1.548.38.317.59-.212 1.252-.37 1.8-.239.83-.199 1.716-.344 2.56a20.47 20.47 0 01-.701 2.813c-.53 1.715-1.059 3.473-1.839 5.077-.807 1.701-2.116 3.01-3.002 4.64-.49.9-.847 1.871-1.482 2.673-.45.576-.939 1.097-1.058 1.87-.027.281.357.394.397.127z"/><path d="M37.418 6.92c-.727-1.885-1.6-4.164-3.095-5.528-.952-.872-3.188-1.645-2.963.52.106.957.688 1.66 1.178 2.42.317.492.224 1.026.41 1.56.132.38.357.69.555 1.027.357.591.595 1.21.013 1.786-.423.436-1.045.591-1.52.929-.675.478-1.125 1.18-1.39 1.983-.079.253.305.365.384.112.344-1.04 1.005-1.66 1.918-2.138.569-.295 1.217-.675 1.349-1.406.12-.577-.172-1.097-.463-1.575-.198-.324-.436-.647-.529-1.027-.106-.394-.04-.787-.198-1.167-.358-.816-1.045-1.35-1.27-2.264-.053-.24-.146-.718-.027-.97.212-.45.675-.338 1.019-.24.529.155 1.005.478 1.402.872 1.323 1.322 2.156 3.418 2.83 5.176.12.295.503.182.397-.07z"/><path d="M33.49 8.93c-.661-1.87-1.481-3.642-2.606-5.245a18.378 18.378 0 00-1.785-2.18C28.557.942 27.949.267 27.18.056c-.503-.14-1.098-.028-1.468.394-.45.534-.265 1.238.026 1.8.516.985 1.19 1.885 1.786 2.813.569.872 1.323 1.786 1.733 2.756.344.858-.04 1.758.383 2.602.106.197.133.127.172.422.04.422.04.183-.172.38-.132.14-.357.197-.502.337a.982.982 0 00-.344.69c-.027.267.37.267.396 0 .08-.746 1.429-.62 1.138-1.52-.159-.478-.53-.717-.556-1.28-.013-.435.067-.885 0-1.321-.145-.914-.912-1.758-1.388-2.504-.635-.998-1.283-1.982-1.918-2.981-.357-.563-1.045-1.547-.252-2.067.477-.31 1.032-.113 1.455.168.873.577 1.64 1.533 2.289 2.363 1.402 1.772 2.394 3.77 3.16 5.935.08.253.464.14.371-.113z"/><path d="M25.819 1.969c-.582-.31-1.76-.69-2.143.126-.37.788.026 1.815.542 2.391.172.197.463-.098.278-.295-.384-.436-.609-1.013-.543-1.603.106-.858 1.178-.507 1.654-.253.238.126.436-.24.212-.366z"/><path d="M27.577 12.08c-.489-2.039-.912-4.19-1.68-6.16-.237-.604-.555-1.265-1.176-1.518-.477-.197-1.045-.113-1.363.337-.397.577-.304 1.52-.264 2.194.026.436.079.872.224 1.294.186.52.477.914.37 1.505-.131.76-.21 1.364.133 2.082.106.225.238.407.291.66.08.324 0 .549-.066.858-.066.31-.066.507.053.802.106.253.436.028.344-.211-.199-.492.225-1.111.053-1.66-.252-.759-.688-1.223-.503-2.123.106-.535.198-.858 0-1.378-.317-.844-.503-1.547-.503-2.476 0-.309-.04-.717.08-1.012.304-.844 1.084-.59 1.508-.099.489.591.687 1.477.912 2.208.45 1.59.847 3.193 1.23 4.796.04.281.424.169.357-.098z"/><path d="M26.282 13.136v-.183c0-.113-.093-.211-.199-.211-.106 0-.198.098-.198.21v.184c0 .112.092.21.198.21.106 0 .199-.084.199-.21z"/><path d="M26.11 12.503a7.73 7.73 0 00-3.386 4.106c-.424 1.167-.516 2.461-.675 3.699-.145 1.21-.29 2.405-.423 3.614-.12 1.055-.33 2.18-.133 3.249.212 1.125 1.046 1.744 1.548 2.7.595 1.125.53 2.658.675 3.91.158 1.35.304 2.7.463 4.036.026.267.423.267.396 0-.264-2.32-.41-4.683-.806-6.975-.172-1.013-.715-1.646-1.283-2.447-.741-1.027-.715-2.138-.582-3.362.119-1.195.264-2.376.41-3.558.158-1.308.25-2.658.555-3.938a7.332 7.332 0 013.44-4.64c.237-.17.025-.535-.2-.394zm9.523-6.428c-.582.17-1.429.549-1.455 1.294a.1.1 0 00.198 0c.027-.633.833-.956 1.31-1.097.119-.028.066-.225-.053-.197zM34.43 3.319a2.254 2.254 0 00-1.456 1.167c-.066.113.106.225.172.113a2.074 2.074 0 011.336-1.069c.12-.028.066-.24-.053-.211zm-4.922.098c-.423-.112-.952.226-1.296.45-.383.254-.688.605-.807 1.083-.026.127.16.183.186.057.105-.422.37-.732.714-.957.29-.197.793-.534 1.15-.436.12.043.173-.168.053-.197zm1.045 3.727c.04.014.08.014.12.028-.014-.07-.014-.126-.027-.196-.516.337-1.045.73-1.071 1.434 0 .14.198.14.198 0 .027-.605.542-.956.979-1.252.066-.042.066-.168-.027-.197-.04-.014-.079-.014-.119-.028-.119-.028-.172.183-.053.211zM24.615 9c.066-.084.145-.112.251-.098-.013-.07-.04-.126-.053-.197-.29.211-.529.464-.714.774-.066.112.106.225.172.112.172-.28.383-.506.648-.703a.109.109 0 00-.053-.197.482.482 0 00-.397.155c-.08.113.053.253.146.155zm.555 3.109a.53.53 0 00-.383.478c-.014.14.185.14.198 0a.306.306 0 01.238-.267c.133-.042.08-.24-.053-.211zm14.351-6.385a2.792 2.792 0 00-1.93 1.097c-.08.098.066.253.145.155.45-.591 1.071-.957 1.785-1.041.133-.014.133-.225 0-.211zm2.646-1.674c-.291.141-.49-.365-.53-.562-.052-.24-.012-.464.067-.69.132-.35.37-.604.661-.801.106-.07 0-.253-.106-.183-.502.352-.899.9-.833 1.575.04.408.37 1.083.833.844.133-.056.027-.239-.092-.183zM33.82 20.561c-.105.59-.171 1.181-.184 1.772 0 .07.092.07.106 0 .013-.59.079-1.167.185-1.744 0-.07-.093-.098-.106-.028zm.385-.9a22.16 22.16 0 01-.212 2.799c-.013.07.092.098.092.028.133-.942.212-1.885.225-2.827 0-.07-.105-.07-.105 0zm.409-.421a6.966 6.966 0 01-.132 2.095c-.014.07.08.098.092.028a7.625 7.625 0 00.133-2.124c0-.07-.093-.07-.093 0zm.661-.563a12.343 12.343 0 01-.634 3.093c-.027.07.079.099.092.029a12.43 12.43 0 00.635-3.122c.013-.07-.08-.07-.093 0z"/><path d="M35.447 18.255a5.912 5.912 0 01-.502 3.094c-.027.056.053.112.08.056.449-.999.62-2.053.515-3.15 0-.07-.093-.07-.093 0zm.821-1.407a8.129 8.129 0 01-.556 3.727c-.026.056.066.085.093.028a8.25 8.25 0 00.555-3.755c0-.07-.092-.07-.092 0z"/><path d="M36.876 17.045a12.498 12.498 0 01-.529 1.828c-.026.07.08.085.093.028.211-.604.383-1.209.529-1.828.013-.07-.08-.098-.093-.028zm.661-.773c-.29.73-.569 1.448-.86 2.18-.026.056.067.084.093.028.291-.732.569-1.449.86-2.18.026-.07-.066-.099-.093-.028zM15.541 31.067a32.81 32.81 0 011.177-2.94c.027-.056-.053-.112-.079-.056a38.31 38.31 0 00-1.19 2.967c-.027.057.066.085.092.029zm.265 1.054c.33-1.308.78-2.56 1.336-3.783.026-.056-.053-.112-.08-.056a22.54 22.54 0 00-1.336 3.797c-.026.07.066.099.08.042z"/><path d="M15.74 32.065a57.886 57.886 0 011.772-3.938c.027-.056-.053-.112-.079-.056a61.105 61.105 0 00-1.772 3.938c-.027.056.053.112.079.056zm.463.071a658.06 658.06 0 002.05-4.43c.026-.057-.053-.113-.08-.057a660.723 660.723 0 00-2.05 4.43c-.04.056.04.113.08.056zm.212 2.094a60.84 60.84 0 012.433-6.975c.027-.056-.066-.112-.079-.056a61.36 61.36 0 00-2.447 7.004c-.013.07.08.098.093.028zm.303 1.056a40.222 40.222 0 012.5-7.623c.027-.056-.053-.112-.08-.056a41.815 41.815 0 00-2.499 7.65c-.026.057.066.085.08.029z"/><path d="M17.26 34.934a80.229 80.229 0 012.051-7.243c.026-.07-.08-.098-.093-.028a72.42 72.42 0 00-2.05 7.243c-.013.056.08.084.093.028zm.741.619c.12-2.194.675-4.29 1.64-6.23.027-.056-.052-.113-.079-.056a15.888 15.888 0 00-1.653 6.286c-.013.07.092.07.092 0zm13.016-8.003c.264 1.941 1.11 3.784 1.772 5.612.026.056.119.042.093-.028-.662-1.814-1.508-3.67-1.773-5.611 0-.07-.092-.043-.092.028zm.185-1.602c.688 2.46 1.362 4.908 2.05 7.369.013.07.12.042.093-.028-.688-2.462-1.363-4.909-2.05-7.37-.014-.07-.106-.042-.093.029zm.304.196c.9 2.841 1.852 5.654 2.857 8.453.027.056.12.042.093-.029a242.873 242.873 0 01-2.857-8.452c-.014-.07-.106-.042-.093.028zm.542-.211c.94 2.672 1.773 5.373 2.513 8.115.014.07.12.042.093-.028a114.45 114.45 0 00-2.513-8.115c-.014-.07-.106-.042-.093.028zm-.119-1.013a85.967 85.967 0 013.664 9.719c.026.07.119.042.092-.028a84.037 84.037 0 00-3.677-9.746c-.013-.07-.105-.014-.079.056zm.371-.815l3.968 10.97c.026.056.119.042.092-.028l-3.968-10.97c-.026-.056-.119-.028-.092.028zm.198-.042a26.463 26.463 0 012.817 6.16c.609 1.997.94 4.12 1.984 5.935.027.056.12 0 .08-.057-1.111-1.954-1.416-4.247-2.117-6.384a25.834 25.834 0 00-2.672-5.71c-.04-.057-.132 0-.092.056zm.529.211A55.114 55.114 0 0138.622 36.2c.026.07.119.042.092-.028a54.607 54.607 0 00-5.595-11.94c-.053-.07-.132-.014-.092.042zM6.15 7.566c.04-.506.172-.998.37-1.462.027-.057-.052-.113-.078-.057a4.566 4.566 0 00-.384 1.52c-.013.07.08.07.093 0zm.133.436c.04-.169.092-.323.132-.492.013-.07-.08-.098-.092-.028-.04.169-.093.323-.133.492-.013.056.08.084.093.028zm.264.057c-.04-.69.146-1.322.516-1.885.04-.056-.053-.113-.08-.056a3.12 3.12 0 00-.529 1.926c0 .085.093.085.093.015zm.41.211c-.026-.45 0-.887.066-1.323.014-.07-.079-.098-.092-.028-.066.45-.093.9-.066 1.35-.014.07.092.07.092 0z"/><path d="M7.076 8.691a4.99 4.99 0 01.146-1.533c.013-.07-.08-.098-.093-.028a4.747 4.747 0 00-.145 1.561c0 .07.105.07.092 0zm.318.704l.08-1.9c0-.07-.093-.07-.107 0l-.079 1.9c0 .07.106.07.106 0zm.277.21V7.848c0-.07-.106-.07-.106 0v1.757c.014.07.106.07.106 0zm.133.211c0-.632.04-1.251.158-1.884.014-.07-.079-.099-.092-.028a11.536 11.536 0 00-.159 1.912c-.013.07.093.07.093 0zm.462 0V8.2c0-.07-.105-.07-.105 0v1.617c.013.07.105.07.105 0zm.332.422V8.621c0-.07-.106-.07-.106 0v1.617c.013.07.106.07.106 0zm.264.071V9.113c0-.07-.106-.07-.106 0v1.196c.013.07.106.07.106 0zm.238.351a9.18 9.18 0 00.026-1.476c0-.07-.105-.07-.105 0 .026.492.013.984-.027 1.476 0 .07.093.07.106 0zm.436.211a9.764 9.764 0 01.04-1.758c.013-.07-.093-.07-.106 0a9.763 9.763 0 00-.04 1.758c.014.07.106.07.106 0zm.252-.211c-.027-.38.013-.745.119-1.11.013-.071-.08-.1-.093-.029-.106.38-.146.745-.119 1.14 0 .07.106.07.093 0zm.396.422c.067-.534.08-1.083.067-1.617 0-.07-.106-.07-.106 0a9.4 9.4 0 01-.066 1.617c0 .07.105.07.105 0zm.331.07a8.705 8.705 0 01.146-2.025c.013-.07-.08-.098-.093-.028a8.89 8.89 0 00-.145 2.053c0 .07.106.07.092 0zm.278.141a11.397 11.397 0 01.066-1.898c.013-.07-.092-.07-.106 0a11.473 11.473 0 00-.066 1.898c0 .07.106.07.106 0zm.529.352a8.424 8.424 0 01.12-2.307c.012-.07-.08-.098-.094-.028a9.201 9.201 0 00-.132 2.335c.013.056.106.07.106 0zm.383.351c.027-.872.106-1.73.252-2.587.013-.07-.08-.099-.093-.029-.159.872-.238 1.73-.264 2.616.013.07.105.07.105 0zm.649.563c.053-.774.106-1.547.145-2.32 0-.071-.092-.071-.106 0-.052.773-.105 1.546-.145 2.32 0 .056.093.056.106 0zm.622.492c-.027-.802-.014-1.59.04-2.39 0-.071-.093-.071-.107 0-.053.8-.079 1.588-.04 2.39 0 .07.107.07.107 0zm.661-.633a9.401 9.401 0 01.053-1.617c.013-.07-.093-.07-.106 0a9.458 9.458 0 00-.053 1.617c0 .07.106.07.106 0zm.595.985c.053-.774.159-1.547.318-2.307.013-.07-.08-.098-.093-.028a17.357 17.357 0 00-.318 2.335c-.013.07.08.07.093 0zm.714.14c0-.745.04-1.49.146-2.236.013-.07-.093-.098-.093-.028a16.127 16.127 0 00-.159 2.264c.014.07.106.07.106 0zm.264.774l.199-1.547c.013-.07-.093-.07-.106 0l-.198 1.547c-.014.056.092.056.105 0zm.516.633c.067-.661.133-1.308.186-1.97 0-.07-.093-.07-.106 0-.066.662-.132 1.309-.185 1.97 0 .056.105.056.105 0zm.424.21c-.04-.745-.013-1.504.066-2.25.013-.07-.093-.07-.106 0a15.93 15.93 0 00-.066 2.25c0 .071.106.071.106 0zm.33.563c-.04-.773 0-1.547.133-2.306.013-.07-.08-.099-.093-.028a10.596 10.596 0 00-.132 2.334c-.014.07.092.07.092 0zm.622.422c.08-.605.146-1.223.225-1.828.013-.07-.092-.07-.106 0-.079.605-.145 1.223-.224 1.828 0 .07.092.07.105 0zm.622 1.28a7.1 7.1 0 00.211-1.49c0-.071-.092-.071-.105 0a6.1 6.1 0 01-.212 1.462c-.013.056.092.084.106.028zm.489.535c.066 0 .066-.113 0-.113s-.066.112 0 .112zm6.032-4.065c.45-.619.939-1.195 1.481-1.716.053-.042-.026-.126-.066-.07a13.114 13.114 0 00-1.495 1.744c-.053.042.04.098.08.042zm-.053-.197c.569-.872 1.15-1.73 1.72-2.602.039-.056-.054-.112-.08-.056-.569.872-1.15 1.73-1.72 2.602-.04.056.04.112.08.056zm.33-.718a2.316 2.316 0 01.74-1.771c.054-.042-.026-.113-.065-.07-.516.463-.78 1.139-.767 1.856 0 .056.092.056.092-.014zm-.105-.829a4.884 4.884 0 01.753-1.463c.04-.056-.026-.126-.066-.07-.343.45-.608.956-.78 1.519-.026.056.066.084.093.014z"/><path d="M24.404 12.221c.132-.506.317-.956.595-1.392.04-.056-.053-.113-.08-.056a4.957 4.957 0 00-.608 1.42c-.027.056.08.085.093.028zm-.186-.576c-.013-.45.133-.844.424-1.168.04-.042-.027-.126-.066-.07a1.756 1.756 0 00-.45 1.238c0 .07.106.07.092 0zm-.264-.085c-.08-.478.066-.942.383-1.28.04-.042-.026-.126-.066-.07a1.61 1.61 0 00-.396 1.392c-.014.043.079.015.079-.042z"/><path d="M24.006 10.745c.133-.38.344-.704.635-.97.053-.043-.026-.113-.066-.071a2.327 2.327 0 00-.661 1.012c-.013.057.08.085.092.029zm6.217.731c.833-.858 1.653-1.716 2.486-2.56.04-.042-.026-.126-.066-.07-.833.858-1.653 1.716-2.486 2.56-.053.042.013.112.066.07zm-.304-.535a6.922 6.922 0 012.037-2.222c.052-.042 0-.126-.053-.084a7.346 7.346 0 00-2.077 2.264c-.026.043.053.099.093.043zm-.172-.281c.172-.576.49-1.069.939-1.434.053-.042-.027-.113-.066-.07-.463.38-.794.885-.966 1.49-.026.056.066.085.093.014zm-.053-.464a3.43 3.43 0 01.661-.97c.04-.042-.026-.127-.066-.07a3.761 3.761 0 00-.675.984c-.04.056.04.112.08.056zm-1.005 1.364c.33-.168.648-.351.978-.52.053-.028.014-.127-.053-.084-.33.168-.648.351-.978.52-.053.028 0 .112.053.084zm7.605-4.261c.304.59-.45 1.35-.794 1.73a6.854 6.854 0 01-1.177 1.012c-.053.043 0 .127.053.085A6.677 6.677 0 0036.03 8.55c.278-.38.609-.83.358-1.308-.04-.056-.12 0-.093.056zm-2.486 15.765a6.38 6.38 0 001.865-2.404c.026-.057-.053-.113-.08-.057a6.177 6.177 0 01-1.838 2.363c-.053.042 0 .127.053.098zm-.265-.365c.595-.886 1.19-1.758 1.799-2.644.04-.056-.053-.113-.08-.056a301.13 301.13 0 01-1.798 2.643c-.053.057.04.113.079.057zm-.357-.338a20.767 20.767 0 002.989-4.655c.027-.056-.053-.112-.08-.056a20.535 20.535 0 01-2.975 4.627c-.053.056.026.14.066.084zm7.34-12.348a17.054 17.054 0 01-3.782 6.427c-.04.043.026.127.066.07a17.213 17.213 0 003.81-6.469c.026-.056-.067-.084-.093-.028z"/><path d="M39.812 10.716a11.814 11.814 0 01-2.513 3.98c-.04.043.027.127.066.07a11.859 11.859 0 002.54-4.021c.026-.057-.08-.085-.093-.028zm.08 1.435c.119.844-.49 1.547-.926 2.18-.37.534-.74 1.069-1.124 1.59a61.058 61.058 0 01-2.17 2.77c-.04.056.027.126.067.07a58.597 58.597 0 002.632-3.417c.621-.872 1.772-2.026 1.6-3.221.013-.056-.08-.028-.08.028zM17.776 28.268c.635-.59 1.244-1.21 1.813-1.87.04-.057-.027-.127-.067-.07a21.307 21.307 0 01-1.812 1.87c-.053.042.014.112.066.07zm.199.632c.556-.632 1.098-1.265 1.654-1.898.04-.056-.027-.126-.067-.07-.555.633-1.097 1.266-1.653 1.899-.053.042.013.126.066.07zm.053.212a10.656 10.656 0 001.905-2.011c.04-.057-.027-.127-.066-.07a10.877 10.877 0 01-1.879 1.996c-.066.028-.013.127.04.085z"/><path d="M18.094 29.112a5.746 5.746 0 001.812-1.899c.04-.056-.053-.112-.08-.056a5.675 5.675 0 01-1.772 1.87c-.066.029-.013.113.04.085zm.331.618c.555-.745 1.11-1.49 1.653-2.25.04-.056-.026-.126-.066-.07-.556.745-1.111 1.49-1.654 2.25-.053.056.027.127.067.07zm.079.296a9.316 9.316 0 001.693-1.955c.04-.056-.053-.113-.08-.056a9.103 9.103 0 01-1.68 1.927c-.052.056.014.126.067.084z"/><path d="M19.033 29.815a6.132 6.132 0 001.667-2.18c.026-.056-.053-.112-.08-.056a6.201 6.201 0 01-1.653 2.166c-.053.042.013.112.066.07z"/></g><defs><clipPath id="clip0"><path fill="#fff" d="M0 0h43v38H0z"/></clipPath></defs></svg>