<svg width="41" height="38" fill="none" xmlns="http://www.w3.org/2000/svg"><g clip-path="url(#clip0)" fill="#75BB43"><path d="M39.4 30.38c-.082-.103-.205-.144-.308-.062-1.66 1.191-3.69 1.93-5.699 2.526.041-.493-.594-1.376-.717-1.664a139.38 139.38 0 01-1.005-2.65c.02 0 .02 0 .041-.02.144-.102.39.082.533.103.164.041.328-.02.472-.103a.858.858 0 00.246-.164c1.25-.452 2.07-2.403 2.46-3.512.348-1.007.348-2.055.225-3.082-.164-1.335-.984-3.163.062-4.272.615-.657 1.537-1.068 2.214-1.664.574-.493.922-1.273 1.189-1.951.205-.534.04-1.048-.308-1.459-.348-.43-.902.083-1.148.33-.779.8-1.455 1.56-2.46 2.094-1.045.575-2.234.72-3.403.575-1.189-.143-2.357-.513-3.546-.677-1.107-.165-2.317-.206-3.424-.268A7.955 7.955 0 0123 14.111c.45-.616.553-1.52.287-2.218-.246-.637-.8-.555-1.292-.329.103-.534.205-1.109-.225-1.54-.37-.37-.615-.103-.923.04.103-.43.226-1.006-.164-1.273-.492-.328-.82-.185-1.21.02.083-.328.165-.718-.081-.923-.328-.247-.513-.247-.82-.124l.02-.02c.103-.35.513-.678.43-1.089-.06-.35-.184-.41-.389-.493.492-.37 1.066-.678 1.25-1.335.062-.205.083-.39-.02-.596.185-.185.37-.8.082-.883.246-.39.636-1.047.287-1.417-.246-.267-.45-.308-.8-.329-.286-.02-.88.432-.573.041.205-.267.41-1.17-.123-1.294-.492-.123-.943.041-1.292.35C17.383.348 17.24 0 16.81 0c-.84 0-1.456.78-1.907 1.479-.061-.308-.184-.596-.533-.493-.574.185-.82.555-1.004 1.027-.718-.924-1.23.41-1.066 1.027-.246-.123-.492-.226-.697-.329-1.722-.719-3.444-1.355-5.33-1.335C3.587 1.458.103 2.773 0 5.875c-.123 3.307 2.665 5.546 5.473 6.573 1.702.616 3.383.965 5.207.965h.533c1.784 1.315 1.148 4.293.902 6.244-.246 1.91.041 3.82 1.722 4.992.062.04.144.061.205.04l.02.021c.144.165.308.37.534.37-.574.801-1.169 1.582-1.722 2.383-.451.616-.84 1.253-1.333 1.848-.266.35-.717 1.069-1.127 1.253-.246.103-.431.288-.492.493a12.18 12.18 0 01-1.353-.76c-.615-.41-1.21-.862-1.825-1.294-.287-.205-.512-.472-.758-.698a.113.113 0 00-.062-.103c-.041-.02-.061-.02-.082-.02-.041-.02-.061-.041-.102-.062-.062-.02-.103 0-.144.041-.86.02-1.332 1.458-1.189 2.198.328 1.664 2.317 3.102 3.71 3.861.882.473 1.743.945 2.686 1.315 1.19.473 2.358.657 3.588.925 2.46.533 4.879 1.13 7.38 1.417 2.5.287 5.104.082 7.605-.185 2.358-.247 4.551-.678 6.786-1.52 1.599-.596 3.485-1.602 4.49-3.04.758-1.089.245-2.999-1.251-2.752zM13.283 2.567c.082.123.287.123.348-.042.144-.492.82-1.027.943-.328.041.185.308.205.37.04.204-.41.389-.78.696-1.129.082-.082.144-.164.226-.246.43-.555.8-.452 1.127.267-.061.144.144.246.246.144.062-.042.123-.103.185-.165.492-.554.84-.41 1.066.39-.103.185-.205.309-.246.514-.02.103.04.185.143.185.082 0 .185.02.246-.02 1.005-.083 1.374.164 1.148.677-.061.185-.143.35-.246.514-.082.143.103.267.205.164.123.103-.061.472-.164.534-.02 0-.02.02-.04.041-.124-.062-.247-.103-.267-.144-.02-.061-.103-.061-.103.02v.083c0 .041.02.062.062.062.84.308-.062 1.191-.308 1.417-.246.246-.594.35-.86.575-.103.082-.062.247.04.308.349.165.554.226.308.699-.103.205-.164.37-.185.595-.02.082.062.144.123.144-.02.02-.061.02-.082.041-.02.02 0 .041.02.041 1.272-.554.698.925.657 1.212-.02.144.102.329.266.267.287-.103 1.148-.554 1.21.02.04.288-.082.637-.103.945 0 .144.144.226.267.206.225-.041.348-.123.553-.267.574-.431.328 1.458.308 1.643-.02.165.205.267.328.185 1.25-.76 1.394 1.11.615 1.787-.267-.103-.554-.185-.82-.308-1.169-.452-2.296-.904-3.26-1.725-.922-.802-1.373-1.972-1.68-3.123-.247-.862-.226-1.663-.616-2.485.697-.534 1.333-1.17 1.804-1.93.41-.679.82-1.603.062-2.178-.636-.473-1.681.37-2.112.76-.43.39-.963 1.047-1.27 1.725-.41-.595-1.128-1.109-1.825-1.5.04-.513.04-1.417.615-.615zM10.7 31.078c.574-.144 1.025-.924 1.373-1.376.8-1.048 1.456-2.198 2.214-3.287.656-.965 1.312-1.93 1.907-2.937.533-.863.779-1.767 1.168-2.67.02-.062-.061-.144-.102-.083-.246.267-.328.637-.513.945a57.788 57.788 0 01-1.127 1.89c-.226.35-.472.698-.718 1.048v-.021c-.082-.164-.184-.164-.328-.247a.845.845 0 01-.225-.143c-.02-.041-.041-.103-.082-.144-2.05-1.89-1.394-4.642-1.169-7.128.123-1.212-.246-2.814-1.23-3.594 1.087-.103 2.214-.39 2.83-1.253.102-.144-.103-.35-.247-.247-1.086.822-2.46.904-3.751.904-1.517 0-3.198-.164-4.613-.78-1.332-.596-2.583-1.09-3.71-2.075-.574-.514-1.005-1.232-1.312-1.992a5.076 5.076 0 001.66 1.13c1.333.533 3.608.533 4.736-.473.082.39.369.637.779.678.307.02.307-.452 0-.473-.37-.02-.431-.349-.513-.657-.102-.472.062-.801.144-1.232.02-.083-.103-.124-.123-.042-.103.309-.267.555-.328.884-.021.143-.021.287-.021.41-.04 0-.082 0-.143.021-2.01 1.274-5.207.801-6.499-1.273a5.316 5.316 0 01-.123-.76c-.246-3.02 3.67-4.006 6.048-4.047 1.537-.02 3.034.534 4.428 1.068 1.066.411 2.44 1.11 3.239 1.952-.103.287-.164.575-.144.842 0 .123.185.143.205.02.267-1.232 1.64-3.122 2.993-3.266.943-.102-.697 2.157-.738 2.198-.553.678-1.353 1.274-2.07 1.767-.287.184-.02.657.266.472.328-.205.656-.431.964-.657.328 1.684.225 3.225 1.107 4.786.86 1.54 2.521 2.3 4.08 2.896 1.865.719 3.607.945 5.555 1.15 1.25.123 2.44.247 3.69.493.902.165 1.783.41 2.706.308 1.783-.185 3.239-1.068 4.448-2.341.246-.267.472-.555.738-.822.472.431.513.863.164 1.315-.102.184-.205.37-.307.534-.554.924-1.64 1.458-2.501 2.074-1.456 1.027-.923 2.794-.656 4.273.246 1.355.205 2.608-.267 3.902-.287.78-1.086 2.445-2.009 2.712-.123.04-.205.123-.225.205-.02.02-.062.02-.082.041-.041.02-.082.02-.144.041-.02-.061-.082-.082-.164-.04-.082.04-.164.102-.246.143-.082.041-.164.02-.246-.02-.39-1.028-.779-2.055-1.189-3.082-.061-.164-.369-.164-.348.041.143 1.438.84 2.897 1.435 4.19.348.76.615 1.562.922 2.342.082.226.185.432.287.658.226.493.041.719-.307.883-.267.082-.513.144-.78.226-.47-.082-.368-.842-.45-1.294-.164-.863-.492-1.705-.82-2.506-.287-.698-.451-1.459-.738-2.177-.164-.432-.287-.863-.451-1.294-.164-.432-.472-.74-.636-1.171-.02-.082-.143-.041-.123.04.246.946.636 1.911.923 2.856.061.185.102.35.164.534a.309.309 0 00-.328-.02c-.984.43-1.948.287-2.993.37-1.169.102-2.235-.104-3.362-.35-1.968-.41-3.875-.945-5.638-1.93.595-.884 1.19-1.808 1.804-2.671.082-.123-.102-.267-.205-.165a80.274 80.274 0 00-2.07 2.548c-.697.883-1.456 1.745-2.112 2.65-.533.739-1.394 1.58-1.701 2.444-.164.41-.267.636-.41.718a15.16 15.16 0 01-1.538-.534c-.246-.123-.348-.246-.102-.328zm20.028 2.506c-1.23.246-2.5.205-3.751.39-1.558.226-3.342.103-4.92 0-3.157-.185-6.232-1.15-9.287-1.89h-.02c.02-.04.04-.061.082-.102.123-.144.184-.411.266-.575.164-.37.595-.76.84-1.09.76-.965 1.64-1.868 2.358-2.854.185-.247.349-.493.513-.74 1.64 1.561 4.223 1.972 6.334 2.445 1.23.287 2.358.205 3.608.246.738.02 1.722.103 2.378-.329h.411c.163.534.307 1.09.512 1.623.307.883.43 1.767.615 2.67 0 .062.04.124.061.206zm9.615-1.274c-.123.514-.43.883-.861 1.192-.656.472-1.25.986-1.927 1.438-1.353.862-3.075 1.15-4.592 1.663-1.579.534-3.526.555-5.187.678-1.865.144-3.751.226-5.617.082-1.886-.144-3.73-.575-5.576-.924-1.517-.288-3.095-.575-4.571-1.007-1.6-.472-3.28-1.273-4.613-2.239a10.407 10.407 0 01-1.968-1.828c-.348-.43-.574-.8-.615-1.376-.02-.431.267-1.56.902-1.602.267.267.472.637.779.904.574.493 1.21.924 1.825 1.376.512.37 1.107.698 1.722.986l.061.062c.246.226.861.328 1.107.43.226.104.759.494 1.025.412.041-.02.082-.02.123-.062 3.034.863 6.15 1.602 9.287 1.972 1.64.185 3.382.185 5.022.103 1.435-.062 2.952-.165 4.346-.473 1.538-.349 3.096-.862 4.572-1.438 1.23-.472 2.644-.924 3.649-1.807.061.061.143.082.246.061.738-.143 1.004.822.86 1.397z"/><path d="M12.628 6.696v-.082c-.082-.534-.369-1.007-.943-1.089-.574-.061-1.086.329-1.086.925 0 .349.553.452.615.082.04-.247.143-.35.39-.329.06 0 .122.02.163.062.062.061.103.144.144.226.04.102.061.226.082.308.061.39.635.308.635-.103zM2.296 9.366c0-.205.04-.41-.144-.554-.04-.02-.082 0-.061.041.164.164.082.596.082.801v.966h.123c.02-.432 0-.863 0-1.254zm.533-.246c0-.062-.103-.062-.103 0 .041.473.082.924.082 1.397 0 .082.123.082.123 0 0-.473-.04-.925-.102-1.397zm.307 0c-.02-.041-.082-.02-.061.02.205.596.184 1.212.307 1.829.02.061.123.04.103-.02-.123-.617-.123-1.254-.349-1.829zm1.004 1.91c-.163-.451-.245-.924-.327-1.396-.02-.083-.123-.041-.103.02.082.473.144.945.308 1.397 0 .103.143.062.123-.02zm.308-.945c0-.082-.123-.082-.123 0 .041.473.267.925.308 1.397 0 .082.164.103.143 0-.04-.472-.266-.904-.328-1.397zm1.169 1.808c-.205-.596-.328-1.212-.533-1.828-.02-.082-.164-.041-.123.041.184.596.307 1.232.533 1.828.02.082.164.041.123-.04zm.513-.637a9.42 9.42 0 01-.288-1.088c-.02-.082-.143-.041-.143.04.061.33.143.637.225.966.082.329.246.616.287.945.02.123.164.103.164-.02-.04-.288-.143-.555-.246-.843zm.881.637c-.143-.493-.205-1.007-.328-1.5-.02-.082-.164-.04-.143.042.123.493.143 1.027.328 1.5.04.081.164.04.143-.042zm.308-1.828c-.041-.062-.123 0-.103.061.328.699.185 1.48.185 2.219 0 .082.143.082.143 0 .02-.78.123-1.561-.225-2.28zm.533.328c-.021-.082-.123-.04-.123.042.102.678.205 1.335.205 2.013 0 .102.143.102.143 0 .02-.699-.102-1.377-.225-2.055zm.881 2.465c-.103-.39-.103-.76-.103-1.15 0-.472-.082-.945-.123-1.397 0-.102-.164-.102-.143 0 .04.473.102.925.102 1.397.02.41 0 .78.103 1.191.04.103.184.062.164-.04zm.451-1.808c-.041-.328-.041-.636-.267-.903-.061-.062-.143.02-.102.103.266.308.225.842.246 1.212.04.472.04.944.04 1.417 0 .103.144.103.144 0 .02-.616 0-1.212-.061-1.828zm.717.124c0-.308-.02-.575-.246-.801-.061-.062-.164.041-.102.103.246.267.205.677.205 1.006 0 .432-.02.863 0 1.294 0 .103.143.103.143 0 .02-.534.02-1.068 0-1.602zm.533-.554c-.02-.083-.143-.042-.123.04.164.699.103 1.418.103 2.116 0 .103.164.103.164 0-.02-.74.02-1.458-.144-2.156zm.616-.206c0 .78-.123 1.561-.103 2.362 0 .103.144.103.144 0 .02-.78.102-1.56.102-2.362-.02-.082-.143-.082-.143 0zm.532.062c-.04-.062-.143.02-.082.082.206.246.082.76.082 1.047-.02.432-.061.843-.102 1.274 0 .082.123.082.143 0 .083-.534.103-1.089.103-1.623 0-.287.041-.554-.144-.78zm.677.452c-.02-.083-.144-.042-.144.04.103.514.041 1.069-.123 1.562-.02.102.123.144.144.04a3.183 3.183 0 00.123-1.643zm.635.02c0-.082-.143-.082-.143 0 0 .514-.02 1.007-.205 1.479-.02.082.102.103.123.041.205-.493.225-1.006.225-1.52zm.513-.123c0-.02-.041-.041-.062-.041h-.082c-.082 0-.082.123 0 .123.226 0-.123 1.17-.164 1.315-.02.061.082.082.103.02.164-.431.307-.945.205-1.417zm.533-.308c0 .349-.062.698-.103 1.047-.02.083.123.124.144.041.061-.37.102-.718.102-1.088-.02-.082-.143-.082-.143 0zm.758.636c0-.082-.123-.082-.123 0v.33c0 .081.123.081.123 0v-.33zm5.228-7.703c0-.06-.102-.04-.102.021.02.144 0 .288-.103.39-.04.062.041.144.082.083a.643.643 0 00.123-.493zM16.44 1.808c-.02-.021-.06-.042-.102-.021-.246.103-.512.247-.594.493-.205-.062-.37.082-.513.288-.061.102-.246.657-.348.451-.062-.123-.226-.287-.39-.287-.779-.082-.943 1.212-.266 1.11.061 0 .04-.104-.02-.104-.636.02.04-1.5.553-.472.02.041.082.062.123.041.184-.082.246-.062.369-.226.061-.082.225-.78.492-.534.061.062.184.02.184-.082 0-.123.308-.616.492-.37.103.144.123.37.164.534.02.103.185.082.164-.02 0-.308-.082-.617-.307-.801zm4.388 10.475c-.267-.39-.287-.719-.82-.719-.349 0-.615-.143-.964-.02-.164.061-.061-.411-.061-.514-.02-.123-.144-.164-.226-.185-.02 0-.04-.082-.061-.205.061-.082.164-.185.184-.226.308-.308.472.041.472.308 0 .062.04.103.102.103.226 0 .574-.35.759-.123.102.102.246-.041.164-.165-.308-.328-.513 0-.82.062-.02-.206-.082-.452-.328-.473-.246-.02-.43.124-.574.309-.02-.226-.041-.452-.082-.535-.164-.39-.492-.349-.78-.205a.765.765 0 00-.102-.41c-.04-.103-.143-.145-.225-.186-.164-.102-.226.041-.144-.205.082-.205.205-.472.103-.698-.144-.329-.328-.329-.595-.37.144-.35.185-.637-.164-.801.472-.308 1.066-.78 1.128-1.335 0-.02-.02-.062-.041-.082-.246-.144.43-.617.225-.822-.184-.185-.43-.041-.594.123-.02.02 0 .062.04.041.124-.123.226-.082.329.185-.062.082-.103.123-.164.205-.041.062-.082.185-.062.268.205.492-.758 1.13-1.107 1.355-.061.041-.061.144.02.165.513.143.288.513.165.739-.02.041 0 .123.061.123a.45.45 0 00.164.02c.574 0 .43.453.328.7-.04.122-.123.246-.123.39 0 .061.041.102.082.123.246.143.492.308.39.657-.041.123.123.185.205.123.533-.431.676.267.758.72 0 .02-.02.04-.02.06 0 .021.02.062.04.062 0 .02 0 .041.021.082 0 .042.041.062.082.062.349 0 .103.493.144.698 0 .042.061.083.102.083.144-.02.144 0 .267-.041.246-.083.471 0 .738.02.553.041.533.267.8.637.06.144.286.02.184-.103zm.532-.185c-.02-.102-.081-.205-.102-.328-.02-.124-.205-.062-.184.061.02.103.082.206.102.329 0 .123.205.062.185-.062zm-8.384.144c0-.061-.102-.061-.102 0 .02.308-.144.616-.226.904-.102.308-.184.596-.205.924 0 .082.103.082.123 0a4.25 4.25 0 01.246-1.006c.082-.288.185-.534.164-.822zm.431.185c-.328.78-.861 1.602-.759 2.485 0 .083.123.083.123 0-.02-.903.41-1.643.738-2.444.041-.082-.061-.103-.102-.041zm.636.021c-.041.554-.43 1.027-.636 1.52-.205.472-.41.944-.43 1.479 0 .082.123.102.143.02a5.72 5.72 0 01.615-1.808c.185-.39.43-.76.451-1.211 0-.083-.143-.083-.143 0zm.43.431c-.041.41-.308.801-.451 1.17a4.095 4.095 0 00-.308 1.192c0 .103.144.103.164 0 .062-.554.246-1.068.472-1.561.123-.267.246-.493.266-.801 0-.082-.143-.082-.143 0zm.635.534c-.061.616-.266 1.212-.45 1.787-.042.103.143.144.163.041.185-.616.37-1.212.41-1.848.02-.083-.123-.062-.123.02z"/><path d="M14.124 14.378c0-.04-.061-.04-.061 0-.02.144-.308.309-.39.411-.164.185-.287.431-.41.658-.246.41-.615.8-.615 1.294 0 .082.144.082.144 0 0-.535.492-1.09.758-1.541.144-.267.287-.452.533-.637.062-.061.062-.123.041-.185zm.164.472c-.84.576-1.148 1.603-1.537 2.507-.041.082.102.123.143.061.39-.862.636-1.869 1.456-2.444.061-.062 0-.164-.062-.123zm.431.227c-.451.513-.738 1.109-1.046 1.705-.246.472-.779 1.109-.697 1.663.02.083.144.062.123-.02-.02-.575.492-1.253.759-1.767.266-.534.533-1.068.922-1.52.041-.02-.02-.102-.061-.061zm.205.431c-.574.678-.964 1.479-1.354 2.28-.307.616-.799 1.356-.84 2.054 0 .103.143.103.164 0 .082-.719.574-1.5.881-2.157.349-.74.697-1.458 1.21-2.095.041-.061-.02-.123-.061-.082zm0 1.192c-.574.636-.861 1.478-1.271 2.218-.348.637-.882 1.458-.902 2.198 0 .082.123.082.144 0 .102-.801.594-1.602.963-2.3.369-.7.615-1.46 1.127-2.055.042-.041-.02-.103-.061-.061zm.307.636c-.553.78-.902 1.684-1.291 2.547-.328.76-.861 1.643-.882 2.506 0 .082.123.082.144 0 .102-.842.553-1.664.86-2.444.37-.884.698-1.767 1.251-2.568.041-.04-.04-.082-.082-.04zm.226.842c-.533.616-.759 1.418-1.087 2.157-.225.493-.43.986-.656 1.479-.143.329-.307.637-.328 1.006 0 .103.164.103.164 0 .041-.39.226-.76.39-1.109l.553-1.294c.308-.719.533-1.52 1.046-2.136.04-.062-.041-.164-.082-.103zm.41.247c-.123.472-.472.945-.677 1.417-.205.473-.39.945-.615 1.418-.348.718-.82 1.622-.86 2.423 0 .082.122.082.143 0 .02-.452.225-.842.369-1.253.205-.554.471-1.088.697-1.643.184-.41.348-.822.533-1.232.164-.37.43-.699.533-1.089 0-.082-.103-.103-.123-.041zm.328.637c-.656 1.622-1.414 3.224-1.947 4.909-.02.102.123.144.143.04.574-1.663 1.25-3.286 1.907-4.929.02-.04-.082-.082-.103-.02zm.082.78c.02.37-.205.72-.37 1.027a8.932 8.932 0 00-.41 1.027 40.14 40.14 0 00-.942 2.63c-.041.102.123.143.143.04a45.93 45.93 0 011.005-2.814c.143-.39.307-.76.492-1.15.123-.246.225-.493.205-.78 0-.062-.123-.062-.123.02zm.103 1.253c-.328.966-.718 1.91-.964 2.896-.02.103.123.144.144.041.266-.985.635-1.93.963-2.896.041-.082-.102-.123-.143-.04zm1.926 2.445c-.471.944-.533 1.992-.738 3.019-.02.082.103.103.123.041.287-.986.287-2.033.759-2.978.04-.082-.082-.165-.144-.082zm.657-.637c-.041-.062-.144 0-.103.061.123.247-.102.801-.164 1.048-.082.39-.143.78-.225 1.15-.103.575-.37 1.253-.185 1.849.02.082.164.061.144-.041-.123-.452.02-.904.102-1.356.082-.41.164-.822.226-1.212.061-.35.143-.698.225-1.047.062-.206.082-.268-.02-.452zm.532-.288c0 .719-.123 1.438-.225 2.157-.103.698-.123 1.438-.328 2.095-.02.103.123.144.143.041.185-.616.205-1.273.287-1.91.103-.801.226-1.582.226-2.383 0-.061-.103-.061-.103 0zm.635.205c0-.061-.102-.061-.102 0 .041 1.603-.676 3.225-.328 4.828.02.061.123.04.123-.021-.205-1.602.43-3.184.308-4.806zm.493 4.992c-.123 0 .061-4.088.04-4.437 0-.061-.081-.061-.081 0a88.72 88.72 0 01-.082 2.362c-.041.72-.185 1.459 0 2.157 0 .041.04.041.082.041.02 0 .061-.02.082-.02.02-.021.02-.103-.041-.103zm.595-4.437c0-.082-.103-.082-.103 0 0 1.561-.39 3.184 0 4.724.02.083.123.042.103-.02-.247-1.602.04-3.143 0-4.704zm.717 2.691c.061-.74.143-1.458.04-2.198-.02-.082-.143-.041-.143.041.103.78-.02 1.561-.082 2.342-.061.678.103 1.335.082 2.013 0 .082.123.082.144 0 .061-.72-.103-1.438-.041-2.198zm.8-.021c0-.739.123-1.458-.123-2.156-.02-.082-.144-.041-.123.04.246.74.102 1.52.082 2.28-.02.76 0 1.562.123 2.322.02.082.143.061.143-.02-.061-.822-.123-1.644-.102-2.466zm.717-1.951c-.02-.062-.123-.04-.103.02.246 1.295.02 2.63.185 3.944.02.083.143.103.143 0-.123-1.294.041-2.67-.225-3.964zm.861 2.362c-.02-.78 0-1.56 0-2.341 0-.083-.123-.083-.123 0-.02 1.458-.04 2.875.205 4.293.02.082.144.061.123-.021-.02-.637-.164-1.274-.205-1.93zm1.189 2.465c-.39-1.335-.062-2.752-.41-4.067-.02-.103-.164-.062-.144.041.349 1.315-.061 2.773.43 4.067.021.062.144.041.124-.04zm.267-2.424c-.103-.657-.041-1.355-.267-1.972-.04-.082-.164-.04-.143.042.205.575.143 1.19.225 1.787.103.78.226 1.581.308 2.362 0 .102.143.102.143 0-.02-.74-.164-1.48-.266-2.219zm.861.308c-.103-.74-.185-1.458-.37-2.177-.02-.103-.184-.061-.143.041.184.72.266 1.438.348 2.157.082.616.267 1.191.39 1.808.02.082.164.061.143-.021-.061-.616-.287-1.191-.369-1.808zm1.004 2.095c-.328-1.273-.226-2.65-.759-3.861-.04-.082-.164-.02-.123.082.533 1.232.308 2.588.738 3.841.041.082.185.041.144-.062zm.553-.636c-.39-.945-.697-1.931-.656-2.979a.072.072 0 00-.143 0c-.062 1.048.225 2.054.635 3.02.041.102.205.061.164-.041zm.431-1.377c-.103-.349-.123-.739-.226-1.088-.02-.103-.184-.062-.164.04.082.309.123.638.185.946.082.39.205.78.266 1.17 0 .083.144.083.144 0-.02-.37-.103-.698-.205-1.067zm.697 1.089v.206c0 .061.102.061.102 0v-.206c.02-.082-.082-.082-.102 0zm1.291-3.142c-.04-.247 0-.617-.246-.76-.04-.021-.061.02-.04.061.225.185.163.657.225.924.102.637.246 1.295.287 1.952 0 .062.102.062.102 0-.04-.74-.184-1.459-.328-2.177zm.554-.617a.072.072 0 00-.143 0c.102 1.15.45 2.26.533 3.43 0 .083.143.083.123 0-.041-1.15-.41-2.28-.513-3.43zm1.394 3.615c-.205-.575-.39-1.15-.533-1.745-.205-.72-.43-1.438-.513-2.198-.02-.103-.164-.103-.143 0 .082.698.287 1.376.471 2.054.185.657.328 1.314.615 1.93 0 .103.123.042.103-.04zm.84-.657c-.307-.431-.39-1.17-.553-1.684-.185-.555-.43-1.11-.472-1.726 0-.102-.184-.102-.164 0 .041.616.287 1.171.492 1.767.164.534.246 1.314.615 1.705.02.082.123.02.082-.062zm.451-1.088c-.143-.185-.225-.411-.307-.637-.144-.473-.308-.945-.328-1.438 0-.103-.164-.103-.164 0 .02.472.164.904.307 1.356.062.184.123.37.205.554.082.185.308.37.349.575.02.082.143.062.143-.04-.04-.227-.04-.145-.205-.37zm.718-.637c-.553-.473-.492-1.212-.84-1.808-.041-.082-.185 0-.123.082.328.575.266 1.438.881 1.849.062.041.144-.062.082-.123zm.327-2.095c-.02.102-.04.184-.102.246-.102-.082-.184-.185-.266-.267-.041-.041-.103.02-.062.062.103.102.185.205.308.287h.04a.54.54 0 00.144-.308c.02-.041-.04-.061-.061-.02zM5.084 28.51c-.061.555-.246 1.068-.43 1.602-.02.062.082.083.102.02a6.323 6.323 0 00.43-1.622c0-.061-.102-.061-.102 0zm.307-.328c-.061.493-.225.965-.328 1.458-.102.472-.123.945-.307 1.397-.041.082.102.164.143.082.185-.41.226-.842.287-1.294.082-.555.287-1.089.349-1.643 0-.082-.144-.082-.144 0zm.329.76c.02-.062-.083-.103-.103-.021-.164.904-.37 1.787-.226 2.711.02.082.144.041.123-.04-.123-.904.062-1.767.205-2.65zm.102 2.013c0-.432.062-.842.103-1.274 0-.062-.082-.062-.082 0-.041.431-.103.842-.123 1.274-.021.39.061.8.102 1.191 0 .082.144.082.123 0-.041-.41-.123-.801-.123-1.191zm.656-.535c0-.082-.123-.082-.123 0-.082.678-.164 1.377 0 2.055.02.082.143.04.143-.041a7.347 7.347 0 01-.02-2.013zm.451 1.09c.02-.186.02-.412-.164-.494-.062-.04-.123.062-.062.103.185.103.062.555.062.74 0 .307.02.636.102.944.02.082.144.041.144-.04-.062-.412-.123-.822-.082-1.254zm.615-.227c0-.082-.144-.082-.144 0 0 .637-.02 1.294 0 1.931 0 .103.144.103.164 0 .02-.637 0-1.294-.02-1.93zm.43.411c-.02-.082-.143-.041-.123.041.082.555.082 1.13.082 1.705 0 .103.164.103.164 0 0-.596-.02-1.17-.123-1.746zm.636 2.26c-.205-.555.02-1.15-.102-1.705-.02-.083-.144-.041-.123.04.123.576-.123 1.151.102 1.706.02.061.164.02.123-.041zm.41-1.212c-.062-.041-.164.04-.082.082.328.287-.041.986.082 1.376.02.103.164.062.143-.041-.102-.431.267-1.11-.143-1.417zm.779.472a.072.072 0 00-.144 0c.02.37-.123.698-.102 1.068 0 .103.143.103.143 0 0-.35.123-.698.103-1.068zm.615 1.582c-.164-.226-.123-.493-.103-.74v-.945c0-.061-.082-.061-.082 0 0 .37 0 .74-.02 1.11v.164c-.041-.164-.103-.329-.226-.452-.04-.041-.102.02-.061.062.123.143.164.328.184.513 0 .062.082.082.103.041.02.103.04.206.123.308.02.041.123 0 .082-.061zm.43.287c-.164-.205-.143-.513-.164-.76-.02-.308-.102-.616-.164-.924-.02-.082-.123-.041-.102.02a10 10 0 01.143 1.13c0 .226.02.452.185.617.061.102.164 0 .102-.083zm.451.247c-.061-.35-.143-.699-.225-1.048-.062-.267-.082-.534-.226-.78-.04-.062-.123 0-.082.061.144.226.144.493.205.76.062.35.144.699.205 1.048 0 .102.144.061.123-.041zm.513.102c-.267-.451-.308-1.088-.43-1.581-.021-.041-.083-.02-.083.02.062.288.144.575.185.863.04.267.082.534.246.76.02.041.102 0 .082-.062zm.43.103c-.287-.452-.287-.986-.43-1.479-.02-.082-.144-.04-.123.041.123.473.061 1.15.45 1.54.062.042.144-.04.103-.102zm.308-1.253c0-.061-.103-.061-.103 0-.04.432.144.863.205 1.294.02.082.144.082.123 0-.02-.452-.246-.842-.225-1.294zm.41-.041c-.041-.041-.103.02-.062.062.349.37.205 1.006.287 1.479.02.082.144.04.123-.041-.061-.452.041-1.11-.348-1.5zm.635.226c-.04-.041-.102.02-.061.062.287.308.43.842.39 1.253 0 .082.122.102.143.02.061-.452-.144-1.006-.472-1.335zm1.005 1.294c-.144-.431-.082-.924-.349-1.294-.04-.062-.123 0-.102.062.246.37.164.862.307 1.273.041.082.185.041.144-.04zm.184-1.191c-.04-.041-.102.02-.06.061.348.411.286 1.069.286 1.562 0 .102.164.102.164 0-.02-.514 0-1.212-.39-1.623zm.677.554c-.02-.082-.144-.04-.123.041.061.39.225.76.205 1.171 0 .103.143.103.164 0 0-.431-.164-.821-.246-1.212zm.697.801c-.041-.205-.062-.41-.185-.595-.04-.062-.143 0-.102.061.123.185.123.411.164.637.02.226.102.431.143.637.02.082.144.061.144-.02-.041-.247-.123-.473-.164-.72zm.451-.575c-.02-.061-.123-.04-.103.02.164.432.267.822.103 1.254-.02.082.082.102.123.04.287-.369.04-.944-.123-1.314zm.43.103c-.02-.062-.123-.041-.102.02.143.432.184.863.307 1.295.02.061.123.061.123-.021-.02-.431-.164-.904-.328-1.294zm.78.575c-.041-.226-.103-.431-.267-.596-.02-.02-.061.021-.04.042.163.184.204.452.225.698.02.164 0 .35.061.493.02.041.082.02.082-.02.041-.186-.02-.411-.061-.617zm.737.678a1.963 1.963 0 01-.184-.616 1.066 1.066 0 00-.144-.452c-.04-.062-.143 0-.102.061.205.309.02.843.328 1.089.04.062.143 0 .102-.082zm.205-.945c-.02-.062-.102-.041-.102.02.061.411.205.781.307 1.171.02.062.103.041.103-.02-.041-.39-.226-.76-.308-1.171zm.963 1.171c-.102-.185-.184-.39-.327-.534-.062-.062-.144.02-.082.082.143.144.225.35.307.534.02.062.144-.02.103-.082zm.513.205c-.307-.37-.061-.944-.43-1.273-.062-.041-.123.02-.082.082.348.35.02.986.43 1.294.082.041.123-.062.082-.103zm.369-.944c-.102-.267-.163-.493-.389-.678-.062-.041-.123.061-.082.102.246.206.287.514.39.801.081.267.184.514.225.781.02.062.123.062.123-.02 0-.35-.143-.678-.267-.986zm.923 1.047c-.369-.39-.307-.986-.635-1.397-.041-.061-.123.02-.082.082.328.411.225 1.028.635 1.397.041.062.144-.02.082-.082zm.635 0c-.266-.267-.082-1.027-.574-1.089-.082 0-.061.103 0 .103.37.041.246.842.492 1.068.062.062.144-.02.082-.082zm.861.205c-.307-.349-.266-.883-.656-1.19-.061-.042-.123.06-.082.102.37.287.287.862.636 1.17.061.083.164-.02.102-.082zm.533-.328c-.164-.206-.266-.534-.307-.801 0-.103-.164-.103-.144 0 .02.308.144.657.349.904.061.082.164-.021.102-.103zm.554.143c-.123-.43-.328-.8-.554-1.19-.04-.062-.143 0-.102.06.205.37.39.76.512 1.172.041.082.164.04.144-.041zm.43-.595c-.082-.226-.225-.555-.492-.616-.061-.02-.082.082-.02.082.246.062.348.431.43.637.082.225.144.472.164.718 0 .083.123.083.123 0 .02-.267-.082-.554-.205-.821zm.206-.411c-.062-.062-.165.041-.103.103.267.267.451.657.513 1.027.02.082.143.061.143-.02-.02-.391-.287-.822-.553-1.11zm1.373 1.089c-.185-.185-.246-.452-.308-.72-.061-.246-.184-.451-.307-.657-.062-.082-.205 0-.144.083.164.246.246.513.349.8.061.227.123.432.307.617.082.04.185-.062.103-.123zm.759.102c-.308-.308-.533-.678-.738-1.047-.041-.082-.164 0-.123.061.205.39.41.801.758 1.09.062.06.164-.042.103-.104zm.102-1.191c-.062-.082-.164.041-.103.103.246.287.349.678.41 1.027.02.082.144.062.144-.02-.02-.37-.205-.802-.451-1.11zm1.066.966c-.267-.247-.37-.658-.41-1.007 0-.103-.164-.103-.164 0 .04.39.143.842.45 1.13.083.082.206-.041.124-.124zm-.103-.945c-.04-.062-.164 0-.102.061.164.267.39.534.43.842 0 .062.123.062.123-.02-.061-.329-.287-.596-.45-.883zm.533-.288c0-.062-.102-.041-.102.02.04.452.328.863.41 1.295.02.061.123.061.123-.021-.02-.472-.349-.842-.43-1.294zm1.066 1.15c-.368-.39-.287-.986-.635-1.397-.062-.061-.143.021-.103.103.329.411.226 1.027.657 1.376.04.041.122-.04.082-.082zm.451-.41a12.891 12.891 0 00-.225-.863c-.02-.082-.144-.041-.123.04.061.288.143.576.205.864.02.082.164.04.143-.041zm.185-.863c-.041-.062-.143 0-.102.062.163.37.368.739.41 1.15 0 .082.143.082.143 0-.061-.452-.267-.822-.451-1.212zm.635.206c-.04-.062-.143 0-.102.06.143.268.266.535.307.822 0 .083.144.083.123 0-.02-.328-.164-.595-.328-.883zm1.189.965c-.225-.37-.225-.884-.533-1.192-.082-.082-.184.041-.123.123.308.33.226.843.534 1.171.081.041.163-.04.123-.102zm.328-.226c-.143-.329-.266-.658-.43-.966-.041-.082-.164 0-.123.062.164.308.266.637.43.965.041.103.164.041.123-.061zm-.02-1.151c-.02-.04-.082 0-.062.041.144.35.246.699.308 1.069 0 .061.102.04.102-.021a2.83 2.83 0 00-.348-1.089zm.532-.348c-.06-.063-.163.02-.102.102.226.267.267.698.308 1.047.02.082.143.062.123-.02 0-.39-.082-.842-.328-1.13zm.554-.103c-.04-.083-.164 0-.123.061.246.411.43.801.533 1.274.02.082.144.061.123-.02-.02-.473-.287-.905-.533-1.315zm.616-.103c-.062-.041-.144.04-.082.082.307.267.328.657.41 1.047.02.083.143.062.123-.02-.021-.41-.103-.842-.451-1.11zm.553-.124c-.062-.061-.164.042-.103.103.267.308.554.699.595 1.13.02.123.205.103.184-.02-.061-.473-.369-.884-.676-1.212zm.943.411c-.082-.246-.123-.493-.266-.719-.062-.082-.205 0-.144.083.144.205.185.43.246.677.062.206.226.37.267.596.02.082.184.062.164-.02-.041-.247-.205-.411-.267-.617zm.451-.739c-.082-.082-.185.041-.123.123.205.206.369.514.39.801 0 .123.184.123.184 0-.02-.349-.205-.678-.451-.924zm.861.658c-.185-.247-.185-.576-.328-.864-.041-.102-.185-.02-.144.083.144.287.123.616.328.862.082.103.205 0 .144-.082zm.102-1.254c-.02-.102-.143-.061-.143.041.04.35.369.596.41.945.02.103.164.103.164 0 0-.39-.349-.616-.43-.986zm.656 0c-.02-.102-.184-.061-.164.041.041.247.164.493.205.76.02.124.185.062.164-.04-.02-.288-.143-.514-.205-.76zm.841.411c-.103-.164-.123-.329-.185-.514-.082-.205-.225-.39-.348-.554-.062-.082-.185 0-.144.082.144.205.287.41.37.657.04.165.06.308.184.432.061.061.184-.041.123-.103zm.328-.822a1.086 1.086 0 00-.225-.492c-.062-.083-.185.04-.103.102.246.267.143.657.307.945.042.062.144.041.123-.041 0-.164-.061-.329-.102-.514zm.41-.061c-.164-.185-.123-.493-.205-.719-.041-.082-.185-.062-.144.041.082.267.041.575.226.78.082.083.205-.02.123-.102zm.245-1.15c-.02-.103-.184-.062-.163.04.082.39.143.781.225 1.171.02.083.164.062.164-.02-.02-.39-.143-.78-.225-1.191zm.513.656c-.102-.307-.143-.636-.204-.965-.021-.082-.165-.061-.144.041.062.33.102.658.226.966.02.082.164.041.123-.041zm.369-.656c-.123-.042-.246-.103-.348.02-.041.041.02.082.061.062.082-.082.185-.02.287.02.041-.02.062-.102 0-.102zm-6.027-15.509c-.02-.102-.164-.061-.143.041.082.37.266.699.328 1.069.02.082.143.061.143-.021 0-.39-.246-.719-.328-1.089zm.841.288c-.144-.164-.164-.37-.185-.596-.02-.102-.184-.102-.164 0 .02.247.041.534.246.699.082.082.185-.041.103-.103zm.43-.473c-.02-.02-.061-.02-.061 0-.082-.184-.041-.492-.041-.657 0-.061-.103-.061-.103 0-.02.267-.102.842.246.925h.02c.021.061.042.102.042.164.02.082.123.04.123-.041a.757.757 0 00-.226-.39zM11.828 31.427c-.102-.185-.102-.41-.246-.596-.04-.061-.143 0-.102.062.123.164.143.35.205.514.061.184.184.328.225.513 0 .082.123.082.123 0-.02-.185-.123-.329-.205-.493zm-.041-1.047c-.061-.042-.123.061-.061.102.287.226.45.678.492 1.027.02.082.143.062.143-.02-.04-.39-.246-.884-.574-1.11zm.903.575a10.4 10.4 0 00-.451-.986c-.042-.082-.144 0-.123.061.143.308.287.617.41.945.04.103.184.062.164-.02zm.245-.905c-.123-.184-.184-.41-.266-.616-.02-.061-.123 0-.103.062.082.165.123.35.205.514.062.143.185.267.205.431.02.062.123.041.103-.02 0-.144-.082-.247-.144-.37zm.595-.081c-.184-.267-.123-.74-.471-.884-.062-.02-.103.083-.02.103.163.062.184.288.225.431.04.144.061.288.164.411.04.082.143 0 .102-.061zm.205-1.808c-.02-.082-.143-.041-.123.041.144.39.144.822.328 1.192.02.061.123.02.103-.041-.082-.39-.164-.802-.308-1.192zm.861.76c-.062-.246-.185-.472-.226-.719-.02-.185-.082-.349-.225-.472-.062-.041-.144.04-.082.082.164.144.164.35.205.554.02.206.143.39.205.596 0 .082.143.041.123-.04zm.512-.781c-.205-.246-.266-.554-.41-.841-.04-.083-.143 0-.123.061.123.267.185.678.451.863.062.04.123-.02.082-.082zm.123-1.478c-.02-.062-.123-.041-.102.02.102.308.266.617.307.945.02.103.144.082.123-.02-.061-.308-.225-.617-.328-.945zm.656.226c0-.021-.02-.021-.02-.042-.082-.184-.144-.39-.308-.534-.061-.061-.163.041-.102.103.164.165.205.39.307.596.041.062.144.04.144-.041-.02-.041-.02-.062-.02-.082zm.308-.35c-.143-.287-.184-.595-.205-.924 0-.082-.143-.082-.143 0 0 .185.02.35.061.534.02.165.062.37.185.493.061.041.143-.02.102-.103zm.308-.534c-.123-.143-.123-.328-.185-.513-.04-.082-.164-.041-.143.041.082.185.061.472.246.575.061.02.123-.061.082-.103zm.389-.678h-.041c-.02-.143-.041-.287-.144-.41-.061-.062-.164.04-.102.102.102.103.082.247.102.39 0 .021.02.042.041.042.02 0 .062 0 .082.02.123 0 .164-.123.062-.144zm.554-.636c-.02 0-.02 0-.041-.02-.02-.124 0-.227 0-.35a.072.072 0 00-.144 0c0 .103-.02.226 0 .329 0 .04.02.102.041.123.041.041.103.02.144.041.04.02.061-.103 0-.123zm.306-.637v.123c.205 0 .205-.123 0-.123zm.882-1.109a.81.81 0 01-.102.287c-.062.082.082.165.143.082a.983.983 0 00.123-.37c-.02-.102-.164-.102-.164 0zm.656-1.007a.96.96 0 01-.102-.205c-.041-.082-.164 0-.123.082l.102.206c.041.082.164 0 .123-.083zm9.943 3.883v.04c.205-.02.205-.04 0-.04z"/><path d="M29.356 25.82c-.041.37-.328.677-.328 1.068 0 .061.082.061.082 0 .02-.39.266-.699.307-1.069 0-.04-.061-.04-.061 0zm.266.534c0-.041-.082-.041-.082 0 .02.37-.184.698-.225 1.068 0 .061.102.082.102.02.082-.349.267-.698.205-1.088zm.123.739c-.02-.041-.102 0-.061.041.123.205-.082.41-.123.616-.02.062.082.103.102.02.02-.225.226-.451.082-.677zm.411.452c0-.02-.02-.041-.041-.041h-.103c-.04 0-.061.082-.02.082.061 0 .061 0 .061.041 0 .062-.04.123-.061.164-.041.083-.123.144-.185.206-.102.123-.184.246-.184.39 0 .082.123.082.143 0 0-.329.472-.472.39-.842zm.164.719c-.144.164-.329.328-.35.554 0 .082.124.082.124 0 .02-.205.164-.37.287-.513.02-.02-.02-.082-.062-.041zm.102 1.54c-.041-.164-.205-.349-.041-.513.061-.041-.02-.123-.082-.082-.103.082-.164.184-.123.328.02.082.082.165.123.267.04.103.02.206-.02.308-.021.083.102.103.122.042.041-.144.062-.247.02-.35zM36.12 16.35c-.307-.082-.163-.678-.163-.904 0-.082-.123-.082-.123 0 0 .288-.144.945.246 1.028.102.02.123-.103.04-.124zm.39-1.047c-.04-.083-.184 0-.143.082a.851.851 0 01.103.39c0 .103.164.103.164 0-.02-.185-.041-.329-.123-.472zm.779.041c-.102-.082-.164-.02-.246.04-.061.042 0 .145.062.104a.155.155 0 01.082-.042c.02.021.04.042.02.083-.02.102.123.123.143.02.021-.082 0-.144-.061-.205zM3.034 4.868c-.143-.164-.307-.164-.43-.062-.144.062-.267.124-.308.267-.04.062-.082.124-.102.185-.02.062.082.082.102.02 0-.02.02-.04.041-.06-.04.102-.04.205-.04.287 0 .061.102.04.102-.02 0-.083.02-.186.04-.268.021 0 .042 0 .062-.02.123.185.041.513-.02.678 0 .04 0 .061.02.082-.061.082.041.185.123.123.02-.02.062-.062.082-.103-.061.062.041.185.123.123.308-.184.451-.944.205-1.232zm23.103 11.934c-.307-.41-.902-.698-1.414-.616 0-.02-.02-.041-.041-.041-.677-.082-.492.76-.308 1.13.287.534.964.883 1.579.76.615-.103.45-.863.184-1.233zm-.04 1.007c-.288.328-.944.04-1.21-.144-.185-.123-.328-.329-.43-.514-.124-.226-.267-.78.081-.883-.04.041 0 .144.082.123.37-.082.738.02 1.066.206.328.205.78.8.41 1.212zm2.275.246c-.082-.061-.185.041-.103.103.062.04.082.082.082.164 0 .103.144.103.144 0a.362.362 0 00-.123-.267zm.225-.595l-.02-.083c0-.02-.041-.061-.062-.061-.02 0-.061-.02-.082-.02-.102-.021-.143.143-.04.163h.04v.042c.041.102.205.061.164-.042zm-8.568-1.582a.836.836 0 01-.165.39c-.123.144-.245.144-.369 0-.04-.062-.123.02-.082.082.328.411.738-.102.759-.472-.02-.103-.143-.082-.143 0zm-.964-1.028c-.04.042-.061.083-.102.104-.082.082.04.205.123.123.04-.041.082-.062.102-.103.082-.082-.04-.205-.123-.123zm-3.691-4.97c0-.123-.184-.123-.184 0v.205c0 .124.184.124.184 0V9.88zm.964-5.875a.099.099 0 00-.04-.123c-.021 0-.021-.02-.041-.02 0-.021.02-.062.02-.083 0-.082-.082-.143-.164-.123-.451.082-.8.74-.902 1.212-.123.205-.205.41-.123.555-.02.04-.061.082-.061.143-.021.041.04.083.082.062.328-.205.553-.493.758-.822a3.27 3.27 0 00.267-.451c.04-.124.122-.247.204-.35z"/></g><defs><clipPath id="clip0"><path fill="#fff" d="M0 0h41v38H0z"/></clipPath></defs></svg>