<svg width="64" height="61" fill="none" xmlns="http://www.w3.org/2000/svg"><g clip-path="url(#clip0)" fill="#75BB43"><path d="M61.543 46.369c-.126-.157-.315-.22-.473-.094-2.551 1.818-5.67 2.947-8.757 3.856.063-.753-.913-2.1-1.102-2.54-.536-1.348-1.04-2.696-1.544-4.044.032 0 .032 0 .063-.031.22-.157.599.125.82.156.251.063.503-.03.724-.156.126-.063.252-.126.378-.251 1.921-.69 3.181-3.668 3.78-5.361.535-1.536.535-3.135.346-4.703-.252-2.038-1.512-4.828.095-6.521.945-1.003 2.362-1.63 3.402-2.54.882-.752 1.417-1.943 1.827-2.978.315-.815.063-1.599-.473-2.226-.535-.658-1.386.126-1.764.502-1.197 1.223-2.236 2.383-3.78 3.198-1.606.878-3.433 1.097-5.229.878-1.827-.22-3.622-.784-5.45-1.035-1.7-.25-3.559-.314-5.26-.408-.945-.062-1.89-.25-2.803-.533.693-.94.85-2.32.44-3.386-.377-.972-1.228-.846-1.984-.501.158-.815.315-1.693-.346-2.351-.567-.565-.945-.157-1.418.062.158-.658.347-1.536-.252-1.944-.756-.501-1.26-.282-1.858.032.126-.502.252-1.098-.126-1.411-.504-.376-.788-.376-1.26-.188l.031-.032c.158-.533.788-1.034.662-1.661-.095-.533-.284-.627-.599-.753.756-.564 1.638-1.034 1.922-2.037.094-.314.126-.596-.032-.91.284-.282.567-1.222.126-1.348.378-.595.977-1.599.441-2.163-.378-.408-.693-.47-1.228-.502-.441-.03-1.355.659-.882.063.315-.407.63-1.787-.19-1.975-.755-.188-1.448.063-1.984.533C27.712.533 27.491 0 26.83 0c-1.292 0-2.237 1.191-2.93 2.257-.094-.47-.283-.909-.819-.752-.882.282-1.26.846-1.543 1.567-1.103-1.41-1.89.627-1.638 1.568-.378-.188-.756-.345-1.071-.502-2.646-1.097-5.292-2.069-8.19-2.037-4.127.125-9.482 2.131-9.64 6.865C.812 14.014 5.096 17.431 9.41 19c2.615.94 5.198 1.473 8.001 1.473h.82c2.74 2.007 1.763 6.553 1.385 9.531-.378 2.916.063 5.832 2.646 7.619.095.062.22.094.315.062l.032.032c.22.25.472.564.819.564-.882 1.223-1.796 2.414-2.646 3.637-.693.94-1.292 1.912-2.048 2.821-.41.533-1.102 1.63-1.732 1.913-.378.157-.662.439-.756.752a18.74 18.74 0 01-2.08-1.16c-.944-.627-1.858-1.317-2.803-1.975-.44-.313-.787-.721-1.165-1.066a.172.172 0 00-.095-.157c-.063-.03-.094-.03-.126-.03-.063-.032-.094-.064-.157-.095-.095-.031-.158 0-.22.063-1.324.031-2.048 2.226-1.828 3.354.504 2.54 3.56 4.734 5.702 5.894 1.354.721 2.677 1.442 4.126 2.007 1.827.72 3.623 1.003 5.513 1.41 3.78.816 7.497 1.725 11.34 2.164 3.843.439 7.843.125 11.686-.282 3.623-.377 6.993-1.035 10.427-2.32 2.457-.91 5.355-2.446 6.898-4.64 1.166-1.662.378-4.578-1.921-4.201zM21.412 3.919c.126.188.44.188.535-.063.22-.752 1.26-1.567 1.45-.501.062.282.472.313.566.062.315-.627.599-1.191 1.071-1.724.126-.125.22-.25.347-.376.661-.847 1.228-.69 1.732.407-.094.22.22.377.378.22.095-.063.19-.157.284-.251.756-.847 1.291-.627 1.638.596-.158.282-.315.47-.378.783-.032.157.063.283.22.283.126 0 .284.03.378-.032 1.544-.125 2.11.251 1.764 1.035a3.6 3.6 0 01-.378.784c-.126.22.158.407.315.25.19.157-.094.722-.252.816-.031 0-.031.03-.063.062-.189-.094-.378-.156-.41-.22-.03-.093-.157-.093-.157.032v.126c0 .062.032.094.095.094 1.291.47-.095 1.818-.473 2.163-.378.376-.913.533-1.323.878-.157.125-.094.376.063.47.536.25.85.345.473 1.066-.158.313-.252.564-.284.91-.031.125.095.219.19.219-.032.03-.095.03-.127.062-.031.032 0 .063.032.063 1.953-.846 1.07 1.41 1.008 1.85-.032.22.157.501.41.407.44-.157 1.763-.846 1.858.032.063.438-.126.971-.158 1.442 0 .22.22.345.41.313.346-.062.535-.188.85-.407.882-.659.504 2.226.473 2.508-.032.25.315.407.504.282 1.921-1.16 2.142 1.693.945 2.728-.41-.157-.85-.283-1.26-.47-1.796-.69-3.528-1.38-5.009-2.634-1.417-1.223-2.11-3.01-2.583-4.766-.378-1.316-.346-2.54-.945-3.793 1.071-.815 2.048-1.787 2.772-2.947.63-1.035 1.26-2.446.095-3.323-.977-.721-2.583.564-3.245 1.16-.661.595-1.48 1.599-1.953 2.633-.63-.91-1.732-1.693-2.803-2.289.063-.783.063-2.163.945-.94zm-3.97 43.516c.883-.22 1.576-1.411 2.111-2.1 1.229-1.6 2.237-3.355 3.402-5.017 1.008-1.474 2.016-2.947 2.93-4.483.819-1.317 1.197-2.697 1.795-4.076.032-.094-.094-.22-.157-.125-.378.407-.504.971-.788 1.442a87.417 87.417 0 01-1.732 2.884 48.381 48.381 0 01-1.103 1.599v-.031c-.126-.251-.283-.251-.504-.377a1.3 1.3 0 01-.346-.22c-.032-.062-.063-.156-.126-.219-3.15-2.884-2.142-7.085-1.796-10.879.19-1.85-.378-4.295-1.89-5.486 1.67-.157 3.402-.596 4.347-1.912.158-.22-.157-.533-.378-.377-1.67 1.254-3.78 1.38-5.764 1.38-2.331 0-4.914-.251-7.088-1.191-2.047-.91-3.969-1.662-5.701-3.167-.882-.784-1.544-1.881-2.016-3.041a7.801 7.801 0 002.551 1.724c2.048.815 5.544.815 7.277-.72.126.595.567.971 1.197 1.034.472.031.472-.69 0-.721-.567-.032-.662-.533-.788-1.004-.157-.72.095-1.222.22-1.88.032-.126-.157-.189-.188-.063-.158.47-.41.846-.504 1.348-.032.22-.032.439-.032.627-.063 0-.126 0-.22.031-3.087 1.944-8.001 1.223-9.986-1.944a8.065 8.065 0 01-.189-1.16c-.378-4.608 5.639-6.113 9.293-6.176 2.362-.031 4.662.815 6.804 1.63 1.638.627 3.748 1.693 4.977 2.979-.158.439-.252.878-.22 1.285 0 .188.283.22.314.032.41-1.882 2.52-4.766 4.6-4.985 1.448-.157-1.072 3.292-1.135 3.354-.85 1.035-2.079 1.944-3.181 2.697-.441.282-.032 1.003.41.72a24.438 24.438 0 001.48-1.003c.504 2.571.346 4.923 1.7 7.305 1.324 2.351 3.875 3.511 6.27 4.42 2.866 1.098 5.543 1.443 8.536 1.756 1.921.189 3.748.377 5.67.753 1.386.25 2.74.627 4.158.47 2.74-.282 4.977-1.63 6.835-3.574.378-.407.725-.846 1.134-1.254.725.658.788 1.317.252 2.007-.157.282-.315.564-.472.815-.85 1.41-2.52 2.226-3.843 3.166-2.237 1.568-1.418 4.264-1.008 6.521.378 2.07.315 3.982-.41 5.957-.44 1.191-1.67 3.73-3.087 4.138-.189.063-.315.188-.346.314-.032.031-.095.031-.126.063-.063.03-.126.03-.22.062-.032-.094-.127-.125-.253-.063-.126.063-.252.157-.378.22s-.252.031-.378-.031a281.067 281.067 0 00-1.827-4.703c-.094-.25-.567-.25-.535.063.22 2.194 1.291 4.42 2.205 6.395.535 1.16.945 2.383 1.417 3.574.126.345.284.659.441 1.004.347.752.063 1.097-.472 1.348-.41.125-.788.22-1.197.345-.725-.126-.567-1.286-.693-1.975-.252-1.317-.756-2.603-1.26-3.825-.441-1.066-.693-2.226-1.134-3.324-.252-.658-.441-1.316-.693-1.975-.252-.658-.725-1.128-.977-1.787-.031-.125-.22-.063-.189.063.378 1.442.977 2.916 1.418 4.358.094.282.157.533.252.815a.477.477 0 00-.504-.032c-1.512.659-2.993.44-4.6.565-1.795.157-3.433-.157-5.165-.533-3.024-.627-5.954-1.442-8.663-2.947.914-1.348 1.827-2.76 2.772-4.076.126-.188-.157-.407-.315-.25a122.67 122.67 0 00-3.181 3.887c-1.071 1.348-2.237 2.665-3.245 4.044-.819 1.129-2.142 2.414-2.614 3.731-.252.627-.41.972-.63 1.097a23.445 23.445 0 01-2.363-.815c-.378-.188-.535-.376-.157-.501zm30.776 3.825c-1.89.376-3.843.313-5.764.595-2.394.345-5.135.157-7.56 0-4.851-.282-9.576-1.755-14.27-2.884h-.031c.031-.063.063-.094.126-.157.189-.22.283-.627.41-.878.251-.564.913-1.16 1.29-1.661 1.166-1.474 2.52-2.853 3.623-4.358.284-.377.536-.753.788-1.129 2.52 2.383 6.489 3.01 9.733 3.73 1.89.44 3.623.314 5.544.377 1.134.031 2.646.157 3.654-.502h.63c.252.816.473 1.662.788 2.477.472 1.348.661 2.697.945 4.076 0 .094.063.188.094.314zm14.774-1.944c-.19.783-.662 1.348-1.323 1.818-1.008.721-1.922 1.505-2.961 2.195-2.08 1.316-4.725 1.755-7.056 2.54-2.426.814-5.418.846-7.97 1.034-2.866.22-5.764.345-8.63.125-2.899-.22-5.734-.878-8.569-1.41-2.33-.44-4.756-.879-7.024-1.537-2.457-.721-5.04-1.944-7.088-3.417-1.134-.815-2.142-1.724-3.024-2.79-.535-.659-.882-1.223-.945-2.101-.031-.658.41-2.383 1.386-2.445.41.407.725.971 1.197 1.379.882.752 1.859 1.41 2.804 2.1.787.565 1.7 1.066 2.646 1.505l.094.095c.378.344 1.323.501 1.701.658.347.157 1.166.752 1.575.627.063-.032.126-.032.19-.094 4.661 1.317 9.45 2.445 14.269 3.01 2.52.282 5.197.282 7.717.156 2.205-.094 4.536-.25 6.678-.72 2.363-.534 4.757-1.317 7.025-2.195 1.89-.721 4.063-1.411 5.607-2.76.094.095.22.126.378.095 1.134-.22 1.543 1.254 1.323 2.132z"/><path d="M20.404 10.22v-.125c-.126-.815-.567-1.536-1.45-1.661-.881-.094-1.669.501-1.669 1.41 0 .533.85.69.945.126.063-.376.22-.533.599-.502.094 0 .189.032.252.094.094.094.157.22.22.345.063.157.095.345.126.47.095.596.977.47.977-.156zM4.528 14.296c0-.313.063-.627-.22-.846-.064-.032-.127 0-.095.063.252.25.126.909.126 1.222v1.474h.189c.031-.659 0-1.317 0-1.913zm.819-.376c0-.094-.158-.094-.158 0 .063.721.126 1.411.126 2.132 0 .125.19.125.19 0 0-.721-.064-1.41-.158-2.132zm.473 0c-.032-.063-.126-.031-.095.031.315.91.284 1.85.473 2.79.031.095.189.063.157-.03-.189-.941-.189-1.913-.535-2.791zm1.543 2.916c-.252-.69-.378-1.41-.504-2.132-.032-.125-.19-.063-.158.031.126.721.22 1.442.473 2.132 0 .157.22.094.189-.031zm.472-1.443c0-.125-.189-.125-.189 0 .063.721.41 1.411.473 2.132 0 .126.252.157.22 0-.063-.72-.409-1.38-.504-2.132zm1.795 2.76c-.314-.91-.503-1.85-.818-2.79-.032-.126-.252-.063-.19.062.284.91.473 1.881.82 2.79.031.126.252.063.189-.062zm.788-.973c-.189-.532-.315-1.097-.44-1.661-.032-.125-.221-.063-.221.063.094.501.22.972.346 1.473.126.502.378.94.441 1.442.032.189.252.157.252-.03-.063-.44-.22-.847-.378-1.286zm1.355.972c-.22-.752-.315-1.536-.504-2.288-.031-.126-.252-.063-.22.063.189.752.22 1.567.504 2.288.063.125.252.063.22-.063zm.472-2.79c-.063-.094-.188 0-.157.094.504 1.066.284 2.258.284 3.386 0 .126.22.126.22 0 .031-1.191.189-2.383-.347-3.48zm.82.502c-.032-.126-.19-.063-.19.063.158 1.034.316 2.037.316 3.072 0 .157.22.157.22 0 .032-1.066-.157-2.1-.346-3.135zm1.354 3.762c-.158-.596-.158-1.16-.158-1.756 0-.721-.126-1.442-.189-2.132 0-.157-.252-.157-.22 0 .063.721.157 1.411.157 2.132.032.627 0 1.191.158 1.818.063.157.283.095.252-.062zm.693-2.759c-.063-.502-.063-.972-.41-1.38-.094-.094-.22.032-.157.157.41.47.346 1.286.378 1.85.063.721.063 1.442.063 2.163 0 .157.22.157.22 0 .032-.94 0-1.85-.094-2.79zm1.102.188c0-.47-.031-.878-.378-1.223-.094-.094-.252.063-.157.157.378.407.315 1.035.315 1.536 0 .659-.032 1.317 0 1.975 0 .157.22.157.22 0 .032-.815.032-1.63 0-2.445zm.819-.846c-.031-.126-.22-.063-.189.062.252 1.066.158 2.163.158 3.23 0 .156.252.156.252 0-.032-1.13.031-2.227-.22-3.293zm.945-.314c0 1.192-.189 2.383-.157 3.606 0 .156.22.156.22 0 .032-1.192.158-2.383.158-3.606-.032-.125-.22-.125-.22 0zm.82.095c-.063-.095-.22.03-.126.125.315.376.126 1.16.126 1.599-.032.658-.095 1.285-.158 1.944 0 .125.19.125.22 0 .127-.816.158-1.662.158-2.477 0-.44.063-.847-.22-1.192zm1.039.689c-.032-.126-.22-.063-.22.062.157.784.062 1.63-.19 2.383-.031.157.19.22.22.063a4.827 4.827 0 00.19-2.508zm.976.031c0-.125-.22-.125-.22 0 0 .784-.032 1.537-.315 2.258-.032.125.157.156.189.062.315-.752.346-1.536.346-2.32zm.788-.188c0-.031-.063-.063-.094-.063h-.126c-.126 0-.126.189 0 .189.346 0-.19 1.787-.252 2.006-.032.094.126.125.157.031.252-.658.473-1.442.315-2.163zm.819-.47c0 .533-.095 1.066-.158 1.599-.031.125.19.188.22.063a9.888 9.888 0 00.158-1.662c-.031-.125-.22-.125-.22 0zm1.165.972c0-.126-.189-.126-.189 0v.501c0 .126.189.126.189 0v-.501zm8.033-11.757c0-.094-.158-.062-.158.032.032.219 0 .439-.157.595-.063.094.063.22.126.126a.976.976 0 00.189-.753zm-5.355-2.508c-.032-.032-.095-.063-.158-.032-.378.157-.787.377-.913.753-.315-.094-.567.125-.788.439-.094.156-.378 1.003-.535.69-.095-.189-.347-.44-.599-.44-1.197-.125-1.449 1.85-.41 1.693.095 0 .064-.156-.03-.156-.977.031.062-2.289.85-.721.031.062.126.094.189.062.283-.125.378-.094.567-.345.094-.125.346-1.19.756-.815.094.094.283.032.283-.125 0-.188.473-.94.756-.564.158.22.19.564.252.815.032.157.284.125.252-.032 0-.47-.126-.94-.472-1.222zm6.74 15.989c-.41-.596-.44-1.097-1.26-1.097-.535 0-.945-.22-1.48-.032-.252.094-.095-.627-.095-.784-.031-.188-.22-.25-.346-.282-.032 0-.063-.125-.095-.313.095-.125.252-.282.284-.345.472-.47.724.063.724.47 0 .094.063.157.158.157.346 0 .882-.533 1.165-.188.158.157.378-.063.252-.25-.472-.502-.787 0-1.26.093-.031-.313-.126-.69-.504-.72-.378-.032-.661.187-.882.47-.031-.345-.063-.69-.126-.816-.252-.596-.756-.533-1.197-.313 0-.22-.031-.408-.157-.627-.063-.157-.22-.22-.347-.282-.252-.157-.346.062-.22-.314.126-.313.315-.721.157-1.066-.22-.502-.504-.502-.913-.564.22-.533.283-.972-.252-1.223.724-.47 1.638-1.191 1.732-2.038a.237.237 0 00-.063-.125c-.378-.22.662-.94.347-1.254-.284-.282-.662-.063-.914.188-.031.031 0 .094.063.063.19-.189.347-.126.504.282-.094.125-.157.188-.252.313-.063.094-.126.282-.094.408.315.752-1.166 1.724-1.701 2.069-.095.063-.095.22.031.25.788.22.441.785.252 1.13-.031.062 0 .188.095.188a.696.696 0 00.252.03c.882 0 .661.69.504 1.067-.063.188-.19.376-.19.596 0 .094.064.156.127.188.378.22.756.47.598 1.003-.063.188.19.282.315.188.82-.658 1.04.407 1.166 1.097 0 .032-.032.063-.032.094 0 .032.032.094.063.094 0 .032 0 .063.032.126 0 .063.063.094.126.094.535 0 .157.752.22 1.066 0 .063.095.125.158.125.22-.031.22 0 .41-.063.377-.125.724 0 1.133.032.85.063.82.407 1.229.972.094.22.44.031.283-.157zm.82-.282c-.032-.157-.126-.314-.158-.502-.031-.188-.315-.094-.283.094.031.157.126.314.157.502 0 .188.315.094.284-.094zm-12.883.219c0-.094-.158-.094-.158 0 .031.47-.22.94-.347 1.38-.157.47-.283.909-.315 1.41 0 .126.158.126.19 0a6.451 6.451 0 01.377-1.536c.126-.439.284-.815.252-1.254zm.66.282c-.503 1.192-1.322 2.446-1.165 3.794 0 .125.19.125.19 0-.032-1.38.63-2.508 1.133-3.731.063-.125-.094-.157-.157-.063zm.978.032c-.063.846-.662 1.567-.977 2.32-.315.72-.63 1.442-.662 2.257 0 .125.19.157.221.032a8.691 8.691 0 01.945-2.76c.284-.595.662-1.16.693-1.85 0-.125-.22-.125-.22 0zm.661.658c-.063.628-.473 1.223-.693 1.788a6.2 6.2 0 00-.473 1.818c0 .157.22.157.252 0 .095-.847.378-1.63.725-2.383.189-.407.378-.752.41-1.223 0-.125-.221-.125-.221 0zm.976.816c-.094.94-.41 1.85-.693 2.727-.063.157.22.22.252.063.284-.94.567-1.85.63-2.822.032-.125-.189-.094-.189.032z"/><path d="M22.703 21.946c0-.063-.094-.063-.094 0-.032.22-.473.47-.599.627-.252.282-.44.658-.63 1.003-.378.627-.945 1.223-.945 1.975 0 .126.22.126.22 0 0-.815.757-1.661 1.166-2.351.22-.408.441-.69.82-.972.094-.094.094-.188.062-.282zm.253.721c-1.292.878-1.764 2.446-2.363 3.825-.063.125.158.188.22.094.6-1.317.977-2.853 2.237-3.73.095-.095 0-.252-.094-.189zm.661.345c-.693.784-1.134 1.693-1.607 2.602-.378.721-1.197 1.693-1.07 2.54.03.125.22.094.188-.032-.031-.878.756-1.912 1.166-2.696.41-.815.819-1.63 1.417-2.32.063-.031-.031-.157-.094-.094zm.314.658c-.882 1.035-1.48 2.257-2.079 3.48-.472.94-1.228 2.07-1.291 3.135 0 .157.22.157.252 0 .126-1.097.882-2.288 1.355-3.292.535-1.128 1.07-2.226 1.858-3.197.063-.094-.032-.188-.095-.126zm.001 1.818c-.882.972-1.323 2.258-1.953 3.386-.536.972-1.355 2.226-1.386 3.355 0 .125.189.125.22 0 .158-1.223.914-2.445 1.48-3.511.568-1.066.946-2.226 1.733-3.136.063-.062-.031-.156-.094-.094zm.472.972c-.85 1.192-1.386 2.571-1.984 3.888-.504 1.16-1.323 2.508-1.355 3.825 0 .125.19.125.22 0 .158-1.285.851-2.54 1.324-3.73.567-1.349 1.07-2.697 1.921-3.92.063-.063-.063-.125-.126-.063zm.346 1.286c-.818.94-1.165 2.163-1.669 3.292-.346.752-.661 1.505-1.008 2.257-.22.502-.472.972-.504 1.536 0 .157.252.157.252 0 .063-.596.347-1.16.599-1.693l.85-1.975c.473-1.097.82-2.32 1.607-3.26.063-.095-.063-.251-.126-.157zm.63.376c-.188.721-.724 1.442-1.039 2.163-.315.721-.598 1.442-.945 2.164-.535 1.097-1.26 2.476-1.323 3.699 0 .125.19.125.22 0 .032-.69.347-1.285.568-1.912.315-.847.724-1.662 1.07-2.508.284-.628.536-1.255.82-1.882.252-.564.661-1.066.819-1.661 0-.126-.158-.157-.19-.063zm.505.972c-1.008 2.477-2.174 4.922-2.993 7.493-.031.157.19.22.22.063.883-2.54 1.922-5.017 2.93-7.525.032-.063-.126-.125-.157-.031zm.126 1.191c.032.565-.315 1.098-.567 1.568-.252.502-.441 1.035-.63 1.567a60.995 60.995 0 00-1.449 4.014c-.063.156.189.219.22.062a69.79 69.79 0 011.544-4.295c.22-.596.473-1.16.756-1.756.189-.376.346-.752.315-1.19 0-.095-.189-.095-.189.03zm.157 1.913c-.504 1.473-1.102 2.915-1.48 4.42-.032.157.189.22.22.063.41-1.505.977-2.947 1.48-4.42.064-.126-.157-.189-.22-.063zm2.962 3.731c-.725 1.442-.82 3.041-1.134 4.608-.032.126.157.157.189.063.44-1.505.44-3.104 1.165-4.546.063-.125-.126-.25-.22-.125zm1.007-.973c-.063-.094-.22 0-.157.094.189.377-.157 1.223-.252 1.6-.126.595-.22 1.19-.347 1.755-.157.878-.567 1.913-.283 2.822.032.125.252.094.22-.063-.189-.69.032-1.38.158-2.07.126-.626.252-1.253.347-1.849.094-.533.22-1.066.346-1.599.095-.313.126-.407-.032-.69zm.819-.438c0 1.097-.189 2.194-.346 3.292-.158 1.066-.19 2.194-.504 3.197-.032.157.189.22.22.063.284-.94.315-1.944.441-2.915.158-1.223.347-2.415.347-3.637 0-.094-.158-.094-.158 0zm.977.313c0-.094-.158-.094-.158 0 .063 2.446-1.04 4.922-.504 7.368.032.094.19.063.19-.032-.316-2.445.66-4.859.472-7.336zm.757 7.619c-.19 0 .094-6.24.062-6.772 0-.094-.126-.094-.126 0a135.63 135.63 0 01-.126 3.605c-.063 1.098-.283 2.226 0 3.292 0 .063.063.063.126.063.032 0 .095-.031.126-.031.032-.032.032-.157-.063-.157zm.913-6.772c0-.125-.158-.125-.158 0 0 2.383-.598 4.86 0 7.21.032.126.19.064.158-.03-.378-2.446.063-4.797 0-7.18zm1.102 4.107c.094-1.129.22-2.226.063-3.355-.032-.125-.22-.063-.22.063.157 1.191-.032 2.383-.127 3.574-.094 1.035.158 2.038.126 3.072 0 .126.19.126.22 0 .095-1.097-.157-2.194-.062-3.354zm1.228-.032c0-1.128.19-2.226-.189-3.292-.031-.125-.22-.062-.189.063.378 1.129.158 2.32.126 3.48-.031 1.16 0 2.383.19 3.543.03.125.22.094.22-.031-.095-1.255-.19-2.509-.158-3.763zm1.103-2.978c-.031-.094-.189-.063-.157.031.378 1.976.031 4.013.283 6.02.032.125.22.157.22 0-.188-1.975.064-4.076-.346-6.05zm1.323 3.605c-.032-1.19 0-2.382 0-3.574 0-.125-.19-.125-.19 0-.03 2.226-.062 4.39.316 6.553.031.125.22.094.189-.032-.032-.971-.252-1.943-.315-2.947zm1.827 3.763c-.599-2.038-.095-4.202-.63-6.208-.032-.157-.252-.094-.22.063.535 2.006-.095 4.232.66 6.207.032.094.221.063.19-.062zm.409-3.7c-.157-1.003-.063-2.069-.41-3.01-.062-.125-.251-.062-.22.063.315.878.22 1.819.347 2.728.157 1.191.346 2.414.472 3.605 0 .157.22.157.22 0-.03-1.128-.251-2.257-.409-3.386zm1.323.471c-.157-1.13-.283-2.226-.567-3.324-.031-.156-.283-.094-.22.063.283 1.097.41 2.195.535 3.292.126.94.41 1.818.599 2.759.031.125.252.094.22-.032-.094-.94-.44-1.818-.567-2.758zm1.544 3.197c-.504-1.943-.347-4.044-1.166-5.894-.063-.125-.252-.031-.189.126.82 1.88.473 3.95 1.134 5.862.063.126.284.063.22-.094zm.851-.971c-.599-1.443-1.072-2.947-1.009-4.546a.11.11 0 00-.22 0c-.095 1.599.346 3.135.976 4.608.063.157.316.094.252-.062zm.661-2.101c-.158-.533-.19-1.13-.347-1.662-.031-.157-.283-.094-.252.063.126.47.19.971.284 1.442.126.596.315 1.191.41 1.787 0 .125.22.125.22 0-.032-.564-.158-1.066-.315-1.63zm1.071 1.661v.314c0 .094.157.094.157 0V42.7c.032-.125-.126-.125-.157 0zm1.984-4.796c-.063-.377 0-.94-.378-1.16-.063-.032-.095.031-.063.094.346.282.252 1.003.346 1.41.158.972.379 1.976.442 2.979 0 .094.157.094.157 0-.063-1.129-.284-2.226-.504-3.323zm.851-.941a.11.11 0 00-.22 0c.157 1.756.693 3.449.819 5.236 0 .125.22.125.189 0-.063-1.756-.63-3.48-.788-5.236zm2.142 5.518a26.05 26.05 0 01-.819-2.665c-.315-1.097-.662-2.194-.788-3.354-.031-.157-.252-.157-.22 0 .126 1.066.441 2.1.724 3.135.284 1.003.505 2.006.946 2.947 0 .157.188.063.157-.063zm1.291-1.003c-.472-.659-.598-1.787-.85-2.571-.284-.847-.662-1.693-.725-2.634 0-.156-.283-.156-.252 0 .063.94.441 1.787.756 2.696.252.816.378 2.007.945 2.603.032.125.19.031.126-.094zm.693-1.662c-.22-.282-.346-.627-.472-.972-.22-.72-.473-1.442-.504-2.194 0-.157-.252-.157-.252 0 .031.72.252 1.38.472 2.069.095.282.19.564.315.846.126.283.473.565.536.878.031.126.22.094.22-.062-.063-.345-.063-.22-.315-.565zm1.104-.971c-.851-.721-.757-1.85-1.292-2.76-.063-.125-.284 0-.19.126.505.878.41 2.195 1.355 2.822.095.062.22-.094.126-.188zm.503-3.199c-.032.157-.063.282-.158.377-.157-.126-.283-.283-.41-.408-.062-.063-.157.031-.094.094.158.157.284.313.473.439h.063a.822.822 0 00.22-.47c.032-.063-.063-.094-.094-.032zM8.812 43.515c-.095.847-.378 1.63-.662 2.446-.031.094.126.125.158.031.315-.784.567-1.63.661-2.477 0-.094-.157-.094-.157 0zm.472-.501c-.094.752-.346 1.473-.504 2.226-.157.721-.189 1.442-.472 2.132-.063.125.157.25.22.125.284-.627.347-1.285.441-1.975.126-.846.441-1.661.536-2.508 0-.125-.22-.125-.22 0zm.504 1.16c.032-.094-.126-.157-.157-.032-.252 1.38-.567 2.728-.347 4.139.032.125.221.063.19-.063-.19-1.38.094-2.696.314-4.044zm.158 3.073c0-.659.094-1.286.157-1.944 0-.094-.126-.094-.126 0-.063.658-.157 1.285-.189 1.944-.031.595.095 1.222.158 1.818 0 .126.22.126.189 0-.063-.627-.19-1.223-.19-1.818zm1.008-.816c0-.125-.189-.125-.189 0-.126 1.035-.252 2.101 0 3.136.032.125.22.062.22-.063a11.12 11.12 0 01-.03-3.072zm.693 1.662c.031-.282.031-.627-.252-.752-.095-.063-.19.094-.095.157.284.156.095.846.095 1.128 0 .47.031.972.157 1.442.032.126.22.063.22-.062-.094-.627-.188-1.255-.125-1.913zm.945-.345c0-.125-.22-.125-.22 0 0 .972-.032 1.976 0 2.947 0 .157.22.157.251 0 .032-.971 0-1.975-.031-2.947zm.661.627c-.031-.125-.22-.063-.189.063.126.846.126 1.724.126 2.602 0 .157.252.157.252 0 0-.91-.031-1.787-.189-2.665zm.977 3.449c-.315-.847.031-1.756-.158-2.602-.031-.126-.22-.063-.189.062.19.878-.189 1.756.158 2.602.031.095.252.032.189-.062zm.63-1.85c-.095-.063-.252.063-.126.126.504.438-.063 1.504.126 2.1.031.157.252.094.22-.063-.157-.658.41-1.693-.22-2.163zm1.197.721a.11.11 0 00-.22 0c.03.565-.19 1.066-.158 1.63 0 .157.22.157.22 0 0-.533.19-1.066.158-1.63zm.945 2.415c-.252-.346-.19-.753-.158-1.13v-1.442c0-.094-.126-.094-.126 0 0 .565 0 1.129-.031 1.693v.251c-.063-.25-.158-.502-.347-.69-.063-.062-.157.032-.094.094.189.22.252.502.283.784 0 .094.126.126.158.063.031.157.063.313.189.47.031.063.189 0 .126-.094zm.661.438c-.252-.313-.22-.784-.252-1.16-.031-.47-.157-.94-.252-1.41-.031-.126-.189-.063-.157.03.094.565.189 1.13.22 1.725 0 .345.032.69.284.94.094.157.252 0 .157-.125zm.693.376a29.006 29.006 0 00-.346-1.599c-.095-.407-.126-.815-.347-1.19-.063-.095-.189 0-.126.093.22.345.22.753.315 1.16.095.533.22 1.066.315 1.6 0 .156.22.093.19-.064zm.788.157c-.41-.69-.473-1.662-.662-2.414-.031-.063-.126-.031-.126.031.095.44.22.878.284 1.317.063.408.126.815.378 1.16.031.063.157 0 .126-.094zm.661.157c-.44-.69-.44-1.505-.661-2.258-.032-.125-.22-.062-.19.063.19.721.095 1.756.694 2.352.094.062.22-.063.157-.157zm.473-1.913c0-.094-.158-.094-.158 0-.063.659.22 1.317.315 1.976.032.125.22.125.19 0-.032-.69-.379-1.286-.347-1.976zm.63-.063c-.063-.062-.158.032-.095.094.536.565.315 1.537.441 2.258.032.125.22.062.19-.063-.095-.69.062-1.693-.536-2.289zm.976.346c-.063-.063-.157.03-.094.094.44.47.661 1.285.598 1.912 0 .126.19.157.22.031.095-.69-.22-1.536-.724-2.037zm1.544 1.975c-.22-.658-.126-1.41-.536-1.975-.063-.094-.189 0-.157.094.378.564.252 1.317.473 1.944.063.125.283.062.22-.063zm.283-1.819c-.063-.062-.157.032-.095.094.536.627.442 1.63.442 2.383 0 .157.252.157.252 0-.032-.784 0-1.85-.599-2.477zm1.039.846c-.03-.125-.22-.062-.188.063.094.596.346 1.16.315 1.788 0 .156.22.156.252 0 0-.659-.252-1.255-.378-1.85zm1.072 1.223c-.063-.313-.095-.627-.284-.909-.063-.094-.22 0-.157.094.189.282.189.627.252.972.031.345.157.658.22.972.032.125.22.094.22-.031-.062-.377-.188-.721-.251-1.098zm.693-.877c-.032-.094-.19-.063-.158.031.252.658.41 1.254.158 1.913-.032.125.126.156.189.062.44-.564.063-1.442-.19-2.006zm.661.156c-.031-.094-.189-.062-.157.032.22.658.283 1.317.472 1.975.032.094.19.094.19-.031-.032-.659-.253-1.38-.505-1.976zm1.197.878c-.063-.344-.157-.658-.41-.909-.03-.031-.094.032-.062.063.252.282.315.69.346 1.066.032.25 0 .533.095.752.031.063.126.032.126-.031.063-.282-.032-.627-.095-.94zm1.135 1.035c-.158-.314-.22-.565-.284-.94-.031-.252-.094-.502-.22-.69-.063-.095-.22 0-.158.093.315.47.032 1.286.504 1.662.063.094.22 0 .158-.125zm.315-1.442c-.032-.094-.158-.063-.158.031.095.627.315 1.191.473 1.787.031.094.157.063.157-.031-.063-.596-.347-1.16-.473-1.787zm1.48 1.787c-.157-.282-.283-.596-.504-.815-.094-.094-.22.031-.126.125.22.22.347.533.473.815.031.094.22-.031.157-.125zm.787.313c-.472-.564-.094-1.442-.661-1.944-.095-.062-.19.032-.126.126.535.533.031 1.505.661 1.975.126.063.19-.094.126-.157zm.567-1.442c-.157-.407-.252-.752-.598-1.035-.095-.062-.19.094-.126.157.377.314.44.784.598 1.223.126.407.284.784.346 1.191.032.094.19.094.19-.031 0-.533-.221-1.035-.41-1.505zm1.418 1.599c-.567-.596-.473-1.505-.977-2.132-.063-.094-.189.032-.126.126.504.627.347 1.567.977 2.131.063.094.22-.03.126-.125zm.976 0c-.409-.408-.126-1.568-.882-1.662-.125 0-.094.157 0 .157.568.063.379 1.285.757 1.63.094.094.22-.031.125-.125zm1.323.314c-.472-.533-.41-1.348-1.008-1.819-.094-.062-.189.094-.126.157.567.439.441 1.317.977 1.787.094.125.252-.031.157-.125zm.819-.502c-.252-.314-.41-.815-.472-1.223 0-.157-.252-.157-.22 0 .03.47.22 1.003.535 1.38.094.125.252-.032.157-.157zm.851.219c-.189-.658-.504-1.222-.85-1.818-.063-.094-.22 0-.158.094.315.565.599 1.16.788 1.787.063.126.252.063.22-.063zm.661-.909c-.126-.345-.346-.846-.756-.94-.094-.032-.126.125-.031.125.378.094.535.659.661.972.126.345.22.721.252 1.097 0 .126.19.126.19 0 .03-.407-.127-.846-.316-1.254zm.315-.627c-.094-.094-.251.063-.157.157.41.408.693 1.003.788 1.568.031.125.22.093.22-.032-.031-.596-.44-1.254-.85-1.693zm2.11 1.662c-.283-.282-.377-.69-.472-1.098-.094-.376-.283-.69-.472-1.003-.095-.125-.315 0-.22.126.251.376.377.783.535 1.222.094.345.189.659.472.94.126.064.284-.093.158-.187zm1.167.157c-.473-.47-.82-1.035-1.134-1.6-.063-.125-.252 0-.19.095.316.595.63 1.222 1.166 1.661.095.094.252-.062.158-.156zm.157-1.819c-.095-.125-.252.063-.158.157.378.439.536 1.035.63 1.568.032.125.22.094.22-.032-.03-.564-.314-1.222-.692-1.693zm1.638 1.474c-.41-.377-.567-1.004-.63-1.537 0-.156-.252-.156-.252 0 .063.596.22 1.286.693 1.725.126.125.315-.063.189-.188zm-.158-1.442c-.063-.094-.252 0-.157.094.252.407.599.815.661 1.285 0 .094.19.094.19-.031-.095-.502-.441-.91-.694-1.348zm.819-.44c0-.094-.157-.062-.157.032.063.69.504 1.316.63 1.975.031.094.189.094.189-.031-.032-.721-.536-1.286-.662-1.976zm1.638 1.756c-.567-.595-.44-1.505-.976-2.132-.095-.094-.22.032-.158.157.504.627.347 1.568 1.008 2.1.063.063.19-.062.126-.125zm.693-.627c-.094-.438-.22-.877-.346-1.316-.032-.126-.22-.063-.19.062.095.44.221.878.316 1.317.031.126.252.063.22-.063zm.284-1.316c-.063-.094-.22 0-.158.094.252.564.567 1.128.63 1.755 0 .126.22.126.22 0-.094-.69-.409-1.254-.692-1.85zm.976.313c-.063-.094-.22 0-.157.094.22.408.41.815.473 1.254 0 .126.22.126.189 0-.032-.501-.252-.909-.505-1.348zm1.827 1.473c-.346-.564-.346-1.348-.819-1.818-.126-.125-.283.063-.189.188.473.502.347 1.285.82 1.787.125.063.251-.063.188-.157zm.504-.345c-.22-.501-.41-1.003-.661-1.473-.063-.125-.252 0-.19.094.253.47.41.972.662 1.474.063.156.252.062.19-.095zm-.031-1.755c-.032-.063-.126 0-.095.063.22.533.378 1.066.473 1.63 0 .094.157.063.157-.032a4.3 4.3 0 00-.535-1.661zm.819-.533c-.095-.094-.252.031-.157.157.346.407.409 1.065.472 1.598.032.126.22.094.189-.031 0-.596-.126-1.285-.504-1.724zm.85-.157c-.063-.125-.252 0-.189.094.378.627.662 1.223.82 1.944.031.126.22.094.188-.031-.031-.721-.44-1.38-.819-2.007zm.946-.156c-.095-.064-.22.062-.126.125.472.407.504 1.003.63 1.598.031.126.22.095.189-.03-.032-.628-.158-1.286-.693-1.694zm.85-.189c-.095-.094-.252.063-.157.157.409.47.85 1.066.913 1.724.032.189.315.157.283-.031-.094-.721-.567-1.348-1.039-1.85zm1.449.627c-.126-.376-.19-.752-.41-1.097-.094-.125-.315 0-.22.126.22.313.283.658.378 1.034.094.314.346.564.41.91.03.125.283.093.251-.032-.063-.376-.315-.627-.41-.94zm.692-1.128c-.126-.125-.283.063-.188.188.315.314.567.784.598 1.223 0 .188.284.188.284 0-.032-.533-.316-1.035-.694-1.411zm1.324 1.003c-.284-.376-.284-.878-.504-1.317-.063-.156-.284-.03-.22.126.22.439.188.94.503 1.317.126.156.315 0 .22-.126zm.157-1.913c-.031-.156-.22-.094-.22.063.063.533.567.91.63 1.442.031.157.252.157.252 0 0-.595-.536-.94-.662-1.505zm1.009 0c-.032-.156-.284-.094-.252.063.063.376.252.753.315 1.16.031.188.283.094.252-.063-.032-.438-.22-.783-.315-1.16zm1.29.628c-.157-.251-.188-.502-.283-.784-.126-.314-.346-.596-.535-.847-.095-.125-.284 0-.22.126.22.313.44.627.566 1.003.063.25.095.47.284.658.094.094.283-.062.189-.157zm.505-1.254c-.063-.282-.158-.533-.347-.753-.094-.125-.283.063-.157.157.378.408.22 1.003.472 1.442.063.094.22.063.19-.063 0-.25-.095-.501-.158-.783zm.63-.094c-.252-.282-.19-.753-.315-1.098-.063-.125-.284-.094-.22.063.125.408.062.878.346 1.191.126.126.315-.031.189-.156zm.378-1.756c-.032-.157-.284-.094-.252.063.126.595.22 1.19.346 1.787.032.125.252.094.252-.032-.031-.595-.22-1.191-.346-1.818zm.787 1.003c-.157-.47-.22-.972-.314-1.474-.032-.125-.252-.094-.22.063.094.502.157 1.003.346 1.474.031.125.252.062.189-.063zm.567-1.003c-.189-.063-.378-.157-.535.031-.063.063.031.125.094.094.126-.125.284-.031.441.031.063-.031.095-.156 0-.156zm-9.261-23.67c-.031-.157-.252-.095-.22.062.126.564.41 1.066.504 1.63.031.126.22.095.22-.03 0-.597-.378-1.098-.504-1.662zm1.292.438c-.22-.25-.252-.564-.284-.909-.031-.157-.283-.157-.252 0 .032.376.063.815.378 1.066.126.126.284-.063.158-.157zm.662-.721c-.032-.031-.095-.031-.095 0-.126-.282-.063-.752-.063-1.003 0-.094-.158-.094-.158 0-.031.408-.157 1.286.378 1.41h.032c.031.095.063.158.063.252.031.125.189.062.189-.063-.063-.22-.158-.439-.347-.596zM19.176 47.968c-.158-.283-.158-.627-.378-.91-.063-.094-.22 0-.158.095.19.25.22.532.315.783.095.282.284.502.347.784 0 .126.189.126.189 0-.032-.282-.19-.502-.315-.752zm-.063-1.6c-.095-.062-.19.095-.095.157.441.345.693 1.035.756 1.568.032.125.22.094.22-.032-.062-.595-.377-1.348-.881-1.693zm1.385.879c-.189-.502-.44-1.004-.693-1.505-.063-.126-.22 0-.189.094.22.47.441.94.63 1.442.063.157.284.094.252-.031zm.378-1.38c-.189-.282-.283-.627-.41-.94-.03-.094-.188 0-.157.094.126.25.19.533.315.783.095.22.284.408.315.659.032.094.19.063.158-.032 0-.219-.126-.376-.22-.564zm.914-.126c-.284-.407-.19-1.128-.725-1.348-.094-.031-.157.126-.031.157.252.094.283.439.346.658.063.22.095.44.252.627.063.126.22 0 .158-.094zm.315-2.758c-.031-.125-.22-.063-.189.063.22.595.22 1.254.504 1.818.032.094.19.031.158-.063-.126-.595-.252-1.222-.473-1.818zm1.323 1.16c-.095-.377-.284-.721-.347-1.098-.031-.282-.126-.533-.346-.72-.095-.064-.22.062-.126.125.252.22.252.533.315.846.031.314.22.596.315.91 0 .125.22.062.189-.063zm.787-1.191c-.315-.377-.41-.847-.63-1.286-.063-.125-.22 0-.189.094.19.408.284 1.035.693 1.317.095.063.19-.032.126-.125zm.189-2.258c-.031-.094-.189-.063-.157.031.157.47.41.94.472 1.442.032.157.22.126.19-.03-.095-.471-.347-.941-.505-1.443zm1.008.346c0-.032-.031-.032-.031-.063-.126-.283-.22-.596-.473-.816-.094-.094-.252.063-.157.157.252.25.315.596.472.91.063.093.22.062.22-.063-.03-.063-.03-.094-.03-.126zm.473-.534c-.22-.44-.283-.91-.315-1.411 0-.125-.22-.125-.22 0 0 .282.031.533.094.815.032.251.095.565.284.753.094.062.22-.032.157-.157zm.473-.815c-.19-.22-.19-.502-.284-.784-.063-.125-.252-.063-.22.063.126.282.094.721.378.878.094.031.189-.094.126-.157zm.598-1.035h-.063c-.032-.22-.063-.439-.22-.627-.095-.094-.252.063-.158.157.157.157.126.376.157.595 0 .032.032.063.063.063.032 0 .095 0 .127.032.189 0 .252-.189.094-.22zm.85-.972c-.031 0-.031 0-.063-.031-.031-.188 0-.345 0-.533a.11.11 0 00-.22 0c0 .157-.032.345 0 .502 0 .062.031.156.063.188.063.062.157.031.22.062.063.032.095-.156 0-.188zm.473-.972v.188c.315 0 .315-.188 0-.188zm1.354-1.692a1.231 1.231 0 01-.157.438c-.095.126.126.251.22.126.095-.157.158-.345.19-.565-.032-.156-.253-.156-.253 0zm1.008-1.537a1.46 1.46 0 01-.157-.313c-.063-.126-.252 0-.19.125l.158.313c.063.126.252 0 .19-.125zm15.278 5.926v.062c.315-.031.315-.062 0-.062z"/><path d="M46.108 39.409c-.063.564-.505 1.034-.505 1.63 0 .094.127.094.127 0 .031-.596.409-1.066.472-1.63 0-.063-.094-.063-.094 0zm.409.815c0-.063-.126-.063-.126 0 .032.564-.283 1.066-.346 1.63 0 .094.157.126.157.031.126-.533.41-1.066.315-1.661zm.19 1.128c-.032-.063-.158 0-.095.063.19.313-.126.627-.189.94-.031.094.126.157.158.032.031-.345.346-.69.126-1.035zm.63.69c0-.031-.032-.063-.063-.063h-.158c-.063 0-.094.126-.031.126.094 0 .094 0 .094.063 0 .094-.063.188-.094.25-.063.126-.19.22-.284.314-.157.188-.283.376-.283.596 0 .125.189.125.22 0 0-.502.725-.722.599-1.286zm.251 1.098c-.22.25-.504.5-.535.846 0 .125.189.125.189 0 .031-.314.252-.565.44-.784.032-.031-.03-.125-.094-.063zm.158 2.35c-.063-.25-.315-.532-.063-.783.094-.063-.032-.188-.126-.126-.158.126-.252.283-.19.502.032.126.127.251.19.408.063.157.031.313-.032.47-.031.125.158.157.19.063.062-.22.094-.377.03-.533zm8.757-20.534c-.472-.125-.252-1.035-.252-1.38 0-.125-.189-.125-.189 0 0 .44-.22 1.443.378 1.568.158.031.19-.157.063-.188zm.598-1.599c-.063-.126-.283 0-.22.125.094.188.157.376.157.596 0 .157.252.157.252 0-.031-.282-.063-.502-.189-.721zm1.197.063c-.157-.126-.252-.032-.378.062-.095.063 0 .22.094.157a.239.239 0 01.127-.063c.031.031.063.063.031.125-.031.157.189.189.22.032.032-.126 0-.22-.094-.314zM5.662 7.43c-.22-.25-.473-.25-.662-.094-.22.094-.41.188-.472.407a1.269 1.269 0 00-.158.283c-.031.094.126.125.158.031 0-.031.031-.063.063-.094-.063.157-.063.313-.063.439 0 .094.157.063.157-.032 0-.125.032-.282.063-.407.032 0 .063 0 .095-.031.189.282.063.783-.032 1.034 0 .063 0 .094.032.126-.095.125.063.282.189.188.031-.032.094-.094.126-.157-.095.094.063.282.189.188.472-.282.693-1.442.315-1.881zm35.5 18.216c-.472-.627-1.386-1.066-2.173-.94 0-.032-.032-.064-.063-.064-1.04-.125-.756 1.16-.473 1.725.441.815 1.48 1.348 2.426 1.16.945-.157.693-1.317.283-1.881zm-.063 1.536c-.44.501-1.449.063-1.858-.22-.284-.188-.504-.501-.662-.783-.189-.345-.41-1.192.126-1.348-.063.062 0 .219.126.188.567-.126 1.134.03 1.638.313.504.314 1.197 1.223.63 1.85zm3.497.376c-.126-.094-.284.063-.158.157.095.062.126.125.126.25 0 .157.22.157.22 0 0-.156-.062-.282-.188-.407zm.346-.91l-.032-.125c0-.031-.063-.094-.094-.094-.032 0-.095-.031-.126-.031-.158-.032-.22.22-.063.25h.063v.063c.063.157.315.094.252-.063zm-13.167-2.413a1.262 1.262 0 01-.252.595c-.189.22-.378.22-.567 0-.063-.094-.189.032-.126.126.504.627 1.134-.157 1.166-.721-.032-.157-.22-.126-.22 0zm-1.48-1.568c-.063.063-.095.126-.158.157-.126.125.063.314.19.188.062-.063.125-.094.157-.157.126-.125-.063-.313-.19-.188zm-5.67-7.587c0-.188-.284-.188-.284 0v.314c0 .188.284.188.284 0v-.314zm1.48-8.967c.032-.062 0-.156-.063-.188-.031 0-.031-.031-.063-.031 0-.032.032-.094.032-.126 0-.125-.126-.22-.252-.188-.693.126-1.229 1.129-1.386 1.85-.19.314-.315.627-.19.847-.03.062-.094.125-.094.219-.031.063.063.125.126.094.504-.313.85-.752 1.166-1.254.157-.22.283-.439.41-.69.062-.188.188-.376.314-.533z"/></g><path d="M29.5 59.145c15.74 0 28.5-13.016 28.5-29.073C58 14.017 45.24 1 29.5 1S1 14.016 1 30.073c0 16.056 12.76 29.072 28.5 29.072zM8 11l43 38.763" stroke="#204686" stroke-width="2" stroke-miterlimit="10"/><defs><clipPath id="clip0"><path fill="#fff" transform="translate(1)" d="M0 0h63v58H0z"/></clipPath></defs></svg>