<svg width="30" height="43" fill="none" xmlns="http://www.w3.org/2000/svg"><g clip-path="url(#clip0)" fill="#204686"><path d="M2.046 4.945c.366-.44.512-.806.293-1.356-.22-.659-1.28-.366-1.06.293a26.926 26.926 0 011.352 7.033c.036.696 1.133.696 1.096 0A26.505 26.505 0 002.34 3.589c-.366.11-.695.184-1.06.293v.257c-.475.55.292 1.318.767.806z"/><path d="M2.631 4.395c3.873 0 7.856.22 11.73-.146 1.279-.11 6.979-.366 5.956-2.747C19.878.44 18.344.44 17.394.293 15.567.037 13.74-.037 11.913 0 8.038.073 4.238.77.585 1.978c-.475.146-.548.952 0 1.025.292.037.621.11.913.147.695.146.987-.916.293-1.026-.293-.036-.585-.11-.914-.146V3.04c2.704-.879 5.481-1.502 8.331-1.758 1.316-.11 2.668-.183 4.02-.147.658 0 1.352.037 2.01.074.694.036 2.338-.074 2.85.33.84.659.329.878-.548 1.098-.731.183-1.498.33-2.23.403a34.63 34.63 0 01-4.348.256c-2.777.037-5.554 0-8.33 0-.695 0-.695 1.1 0 1.1z"/><path d="M20.719 2.6c-.037-.622-.293-.952-.877-1.172-.33-.11-.694.183-.694.513-.037 2.82.182 5.567.62 8.351.11.696 1.17.403 1.06-.293a45.76 45.76 0 01-.584-8.058 8.59 8.59 0 01-.695.513c.037.036.037.073.073.11.037.732 1.133.732 1.097.036z"/><path d="M2.266 11.354c3.398.586 6.833.77 10.268.513 1.607-.11 3.252-.33 4.823-.66.804-.146 2.156-.146 2.63-.951.11-.184.11-.513-.072-.66-.22-.22-.439-.256-.731-.183-.292.11-.439.366-.365.66v.073c.11.696 1.169.403 1.06-.293v-.074c-.11.22-.257.44-.366.66l-.329-.11a4.003 4.003 0 01-.073-.66c-.256.44-2.74.623-3.289.697a37.83 37.83 0 01-4.567.476c-2.96.146-5.847-.074-8.697-.55-.694-.11-.987.953-.292 1.062z"/><path d="M4.531 11.977c1.79.769-1.315 2.6-1.9 3.223-.548.586-.84 1.319-1.096 2.088-.73 2.234-.73 4.725-.402 7.032.658 5.201 2.887 10.072 2.85 15.383 0 .696 1.06.696 1.096 0 .037-.293.037-.586.073-.915.037-.696-1.06-.696-1.096 0-.036.293-.036.586-.073.915H5.08c.037-6.116-2.923-11.72-3.033-17.727-.036-1.612.11-3.333.731-4.835.621-1.465 1.9-1.794 2.777-2.93.768-.989.768-2.6-.475-3.15-.657-.33-1.205.623-.548.916zm13.703-1.209c-.95 1.209-.22 2.49 1.096 3.077 1.498.659 2.375 1.098 3.325 2.527.768 1.209 1.535 2.417 2.193 3.7 1.425 2.856 1.717 5.823 2.046 8.973.146 1.318.329 2.674.73 3.956.476 1.501 1.645 3.076 1.097 4.688-.22.66.84.952 1.06.293.767-2.198-.95-4.395-1.389-6.483-.584-2.747-.511-5.604-1.206-8.351-.62-2.454-1.9-4.652-3.252-6.776-.475-.77-.95-1.612-1.644-2.27-.548-.514-3.764-1.869-3.252-2.528.438-.586-.366-1.355-.804-.806z"/><path d="M3.8 40.51c4.312 1.904 8.953 2.747 13.63 2.417a28.544 28.544 0 006.577-1.209c1.572-.476 4.568-1.245 5.664-2.6.731-.916.11-1.942-.877-2.344-.913-.367-2.156-.257-3.106-.293a55.516 55.516 0 00-4.275-.037c-5.664.146-11.328 1.025-16.918 2.088-.695.146-.402 1.208.292 1.062 4.312-.843 8.66-1.502 13.045-1.868a62.52 62.52 0 016.431-.22c.95.037 2.339-.146 3.216.147.365-.074.584.11.73.476.476.293.512.476.11.586-.146.256-1.096.55-1.315.66-7.09 3.259-15.457 3.259-22.546.109-.73-.22-1.279.733-.658 1.026zm.84-16.996c5.518 1.502 11.292.953 16.408-1.575-.256-.11-.549-.22-.804-.33a71.067 71.067 0 001.498 6.264c.22.77.986 2.161.877 2.93-.146.989-2.046 1.429-2.814 1.685-3.8 1.209-7.93.916-11.84.66.184.182.366.365.549.549.11-4.066-4.093-7.07-3.325-11.135.146-.696-.914-.989-1.06-.293-.804 4.359 3.398 7.252 3.289 11.428 0 .293.256.512.548.55 4.64.329 9.574.585 13.922-1.393 1.644-.769 2.12-1.245 1.608-3.003a97.898 97.898 0 01-2.156-8.57c-.073-.367-.512-.477-.804-.33-4.86 2.417-10.341 2.893-15.566 1.465-.695-.147-.987.915-.33 1.098z"/><path d="M14.068 26.445c-1.06.036-2.12.073-3.179.146-.585.037-.767.989-.146 1.062 2.375.366 4.64 0 6.796-1.099.622-.33.073-1.282-.548-.952-1.863.952-3.873 1.282-5.956.989-.036.366-.11.732-.146 1.062 1.06-.037 2.12-.073 3.18-.146.73 0 .73-1.1 0-1.063zm-2.667 3.405a19.236 19.236 0 006.614-1.867c.621-.33.073-1.245-.548-.952-1.9.952-3.91 1.501-6.03 1.684-.73.074-.73 1.172-.036 1.136zM3.764 4.065v7.143c0 .183.292.183.292 0V4.065c0-.146-.292-.183-.292 0zm.657.11v6.337c0 .183.293.183.293 0V4.175c-.037-.183-.293-.183-.293 0zm.622.074v4.468c0 .183.292.183.292 0V4.249c0-.147-.292-.184-.292 0zm10.231-.257v6.52c0 .183.292.183.292 0v-6.52c0-.183-.292-.183-.292 0zm.366-.182v6.043c0 .183.292.183.292 0V3.809c0-.183-.292-.183-.292 0zm.474.182v5.311c0 .183.293.183.293 0v-5.31c-.037-.184-.293-.184-.293 0zm.366.073V9.56c0 .184.292.184.292 0V4.065c-.036-.146-.292-.183-.292 0zm.548-.365v5.127c0 .183.292.183.292 0V3.699c-.036-.146-.292-.183-.292 0zm.438-.367v5.97c0 .183.293.183.293 0v-5.97c0-.147-.293-.183-.293 0zm.658.549V9.56c0 .184.292.184.292 0V3.882c-.036-.146-.292-.183-.292 0zm.366-.622v5.75c0 .183.292.183.292 0V3.26c-.037-.183-.292-.183-.292 0zm.62.256V9.67c0 .184.293.184.293 0V3.516c0-.146-.292-.183-.292 0zM2.083 20.621c.183 0 .183-.293 0-.293s-.183.293 0 .293z"/></g><defs><clipPath id="clip0"><path fill="#fff" d="M0 0h30v43H0z"/></clipPath></defs></svg>