<svg width="39" height="39" fill="none" xmlns="http://www.w3.org/2000/svg"><g clip-path="url(#clip0)" fill="#204686"><path d="M12.923 9.876c.22-.278.308-.509.176-.855-.132-.417-.771-.232-.639.184.463 1.433.727 2.912.815 4.438.022.439.684.439.661 0A17.418 17.418 0 0013.1 9.02c-.22.069-.418.115-.639.184v.162c-.286.347.176.832.463.509z"/><path d="M13.275 9.529c2.336 0 4.738.139 7.073-.092.771-.07 4.208-.232 3.591-1.734-.264-.67-1.19-.67-1.762-.763a19.82 19.82 0 00-3.305-.184c-2.336.046-4.627.485-6.83 1.248-.287.092-.33.6 0 .647.176.023.374.07.55.092.42.093.595-.578.177-.647-.177-.023-.353-.07-.551-.092v.67c1.63-.555 3.305-.948 5.023-1.11a21.05 21.05 0 012.424-.092c.397 0 .815.023 1.212.046.419.023 1.41-.046 1.718.208.507.416.199.555-.33.694-.44.115-.903.208-1.344.254-.881.115-1.74.162-2.622.162-1.674.023-3.349 0-5.024 0-.418 0-.418.693 0 .693z"/><path d="M24.182 8.396c-.022-.392-.177-.6-.53-.74-.197-.068-.418.116-.418.324-.022 1.78.11 3.513.375 5.27.066.44.705.254.639-.185a30.193 30.193 0 01-.353-5.085 5.102 5.102 0 01-.418.324c.022.023.022.046.044.07.022.462.683.462.66.022z"/><path d="M13.055 13.92c2.049.37 4.12.486 6.191.324.97-.07 1.96-.208 2.908-.416.485-.093 1.3-.093 1.587-.601.066-.116.066-.324-.044-.416-.133-.139-.265-.162-.441-.116a.344.344 0 00-.22.416v.046c.066.44.705.255.639-.184v-.047c-.067.14-.155.278-.22.416l-.199-.069a2.66 2.66 0 01-.044-.416c-.154.277-1.653.393-1.983.44a21.83 21.83 0 01-2.754.3c-1.785.092-3.525-.047-5.244-.347-.419-.07-.595.6-.176.67z"/><path d="M14.42 14.313c1.08.486-.792 1.641-1.145 2.034-.33.37-.507.832-.66 1.317-.441 1.41-.441 2.982-.243 4.438.396 3.282 1.74 6.356 1.718 9.707 0 .439.64.439.661 0 .023-.185.023-.37.045-.578.022-.44-.64-.44-.662 0-.021.185-.021.37-.044.578h.661c.023-3.86-1.762-7.396-1.828-11.186-.022-1.017.066-2.104.44-3.051.375-.925 1.146-1.133 1.675-1.849.463-.624.463-1.641-.287-1.988-.396-.208-.727.393-.33.578zm8.263-.763c-.573.763-.132 1.572.661 1.942.903.416 1.432.693 2.005 1.595.463.762.925 1.525 1.322 2.334.86 1.803 1.036 3.675 1.234 5.662.088.832.198 1.687.44 2.496.287.948.992 1.942.662 2.959-.133.416.506.6.638.185.463-1.387-.572-2.774-.837-4.091-.352-1.734-.308-3.536-.727-5.27-.374-1.548-1.145-2.935-1.96-4.275-.287-.486-.574-1.017-.992-1.433-.33-.324-2.27-1.18-1.961-1.595.264-.37-.22-.855-.485-.508z"/><path d="M13.98 32.317c2.6 1.202 5.398 1.734 8.218 1.526a16.529 16.529 0 003.966-.763c.948-.3 2.754-.786 3.415-1.641.441-.578.066-1.225-.528-1.48-.551-.23-1.3-.16-1.873-.184a31.98 31.98 0 00-2.578-.023c-3.415.092-6.83.647-10.201 1.317-.419.093-.242.763.176.67 2.6-.531 5.222-.947 7.866-1.178a36.029 36.029 0 013.878-.139c.572.023 1.41-.092 1.938.093.22-.047.353.069.441.3.287.185.309.3.066.37-.088.162-.66.347-.793.416-4.274 2.057-9.32 2.057-13.594.07-.44-.14-.771.461-.397.646zm.507-10.724a13.38 13.38 0 009.893-.994c-.154-.069-.33-.138-.485-.207a46.74 46.74 0 00.904 3.952c.132.485.595 1.363.528 1.849-.088.624-1.233.9-1.696 1.063-2.291.762-4.781.578-7.139.416l.33.346c.067-2.565-2.467-4.46-2.004-7.026.088-.439-.551-.624-.64-.184-.484 2.75 2.05 4.576 1.984 7.21 0 .185.154.324.33.347 2.799.208 5.773.37 8.395-.878.991-.485 1.278-.786.97-1.895a64.203 64.203 0 01-1.3-5.409c-.045-.23-.31-.3-.485-.207-2.93 1.525-6.236 1.825-9.386.924-.419-.092-.595.578-.199.693z"/><path d="M20.172 23.442c-.64.023-1.278.046-1.917.093-.353.023-.463.624-.088.67 1.432.231 2.798 0 4.098-.693.374-.208.044-.81-.33-.601a5.708 5.708 0 01-3.592.624c-.022.23-.066.462-.088.67a53.212 53.212 0 001.917-.092c.44 0 .44-.694 0-.67zm-1.609 2.15a11.208 11.208 0 003.988-1.179c.375-.208.044-.786-.33-.6a9.603 9.603 0 01-3.636 1.062c-.44.047-.44.74-.022.717zM13.959 9.321v4.507c0 .115.176.115.176 0V9.32c0-.092-.176-.116-.176 0zm.396.069v3.999c0 .115.176.115.176 0V9.39c-.022-.115-.176-.115-.176 0zm.375.047v2.82c0 .115.176.115.176 0v-2.82c0-.093-.177-.116-.177 0zm6.169-.162v4.114c0 .115.176.115.176 0V9.275c0-.116-.176-.116-.176 0zm.221-.115v3.813c0 .115.175.115.175 0V9.159c0-.115-.176-.115-.176 0zm.285.115v3.351c0 .116.176.116.176 0V9.275c-.021-.116-.176-.116-.176 0zm.22.046v3.467c0 .115.177.115.177 0V9.32c-.022-.092-.177-.116-.177 0zm.331-.231v3.236c0 .115.176.115.176 0V9.09c-.022-.093-.176-.116-.176 0zm.264-.231v3.767c0 .116.177.116.177 0V8.859c0-.093-.176-.116-.176 0zm.397.346v3.583c0 .115.177.115.177 0V9.205c-.023-.092-.177-.115-.177 0zm.22-.392v3.628c0 .116.177.116.177 0V8.813c-.022-.116-.177-.116-.177 0zm.375.161v3.883c0 .116.176.116.176 0V8.974c0-.092-.176-.115-.176 0zM12.945 19.767c.11 0 .11-.184 0-.184s-.11.184 0 .184z"/></g><path d="M19.911 37.178C29.901 37.178 38 29.263 38 19.5c0-9.763-8.099-17.678-18.089-17.678-9.99 0-18.089 7.915-18.089 17.678 0 9.763 8.099 17.678 18.09 17.678zM5.933 8.4l27.133 23.845" stroke="#204686" stroke-width="2" stroke-miterlimit="10"/><defs><clipPath id="clip0"><path fill="#fff" transform="translate(11.689 6.756)" d="M0 0h18.089v27.133H0z"/></clipPath></defs></svg>