<svg width="40" height="40" fill="none" xmlns="http://www.w3.org/2000/svg"><path d="M.13 10.928c0-5.523 4.477-10 10-10H29.1c5.523 0 10 4.477 10 10v18.763c0 5.523-4.477 10-10 10H10.13c-5.523 0-10-4.477-10-10V10.928z" fill="url(#paint0_linear)"/><path fill-rule="evenodd" clip-rule="evenodd" d="M31.305 20.693v4.88c-.006 3.618-2.503 6.573-5.983 7.072a6.424 6.424 0 01-.956.061c-3.155.007-6.309-.02-9.463.007-3.5.034-6.502-2.69-6.907-6.17a8.621 8.621 0 01-.06-1.018c-.006-3.214.027-6.436-.013-9.658-.04-3.61 2.617-6.71 6.01-7.119.292-.034.591-.061.89-.061 3.2-.007 6.402-.007 9.596-.007 3.466.007 6.355 2.607 6.813 6.143.08.607.067 1.222.067 1.836.013 1.345.006 2.69.006 4.034zm-11.68 9.829c1.54 0 3.074.007 4.614-.007.372 0 .758-.027 1.123-.11 2.317-.504 3.818-2.443 3.818-4.92.007-3.195.007-6.39 0-9.59 0-.362-.026-.73-.1-1.086-.47-2.355-2.344-3.931-4.708-3.945-3.174-.02-6.348-.007-9.53 0-.318 0-.643.034-.955.102-2.311.499-3.832 2.437-3.839 4.915-.006 3.208-.006 6.416 0 9.624 0 .362.034.73.1 1.085.498 2.362 2.377 3.918 4.768 3.932 1.567.007 3.141 0 4.708 0z" fill="#fff"/><path fill-rule="evenodd" clip-rule="evenodd" d="M19.605 27.247c-3.506-.007-6.362-2.95-6.362-6.56 0-3.624 2.869-6.56 6.402-6.546 3.506.007 6.348 2.956 6.342 6.573 0 3.611-2.862 6.54-6.382 6.533zm.013-10.915c-2.337.007-4.236 1.966-4.243 4.362-.007 2.396 1.9 4.355 4.237 4.368 2.337.014 4.276-1.98 4.263-4.382-.02-2.402-1.933-4.354-4.257-4.348zm7.238-2.089c0 .56-.418.99-.962.99-.545 0-.963-.43-.963-.99s.418-.99.963-.99c.544 0 .962.438.962.99z" fill="#fff"/><defs><linearGradient id="paint0_linear" x1="19.615" y1=".928" x2="19.615" y2="39.691" gradientUnits="userSpaceOnUse"><stop stop-color="#7854C1"/><stop offset=".531" stop-color="#D53176"/><stop offset="1" stop-color="#F38267"/></linearGradient></defs></svg>