<svg width="154" height="157" fill="none" xmlns="http://www.w3.org/2000/svg"><g clip-path="url(#clip0)" fill="#F69321"><path d="M53.93 84.89c-5.657-4.441-8.242-11.271-8.326-18.396-.009-6.764 1.758-15.059 6.14-20.418 4.705-5.698 12.959-6.8 19.919-6.88a47.163 47.163 0 0120.077 4.432c11.66 5.542 21.946 16.792 24.621 29.692 3.506 17.035-15.636 23.302-28.424 26.435-1.377.333-.632 2.392.746 2.06 11.313-2.766 24.908-6.58 29.278-18.868 3.784-10.69-3.731-23.168-10.855-30.739-8.347-8.958-20.037-14.432-32.33-15.139-11.5-.661-23.41 1.988-28.193 13.594-4.877 11.806-4.906 27.349 5.906 35.914 1.144.862 2.554-.759 1.442-1.687z"/><path d="M52.708 86.11c-3.31 6.024-6.727 12.975-3.844 19.864 2.567 6.17 8.573 10.041 15.064 10.963 6.491.922 14.505-.538 19.44-4.987 1.418-1.291 8.324-11.169 3.11-11.167-1.385.002-1.196 2.208.19 2.206-.892-.01-1.667 3.21-2.046 3.847-.818 1.572-2.036 2.956-3.392 4.113-1.843 1.499-4.16 2.45-6.488 3.07-5.144 1.42-10.816 1.532-15.724-.684-4.507-2.029-8.413-6.383-8.973-11.45-.599-5.33 2.21-10.286 4.636-14.77.693-1.305-1.311-2.243-1.973-1.005z"/><path d="M88.319 63.284c-4.43-2.89-9.45-4.344-14.82-4.008-3.458.254-9.8 1.275-10.95 5.297-1.24 4.388 6.384 7.063 9.257 8.408 6.11 2.78 12.685 4.392 19.364 4.913 1.024.073 1.784-1.2.907-1.937-2.934-2.432-6.439-3.992-10.306-4.256-3.208-.28-7.851.07-10.127 2.67-5.516 6.213 8.46 12.024 12.727 12.475.994.14 1.882-1.236.907-1.937-4.233-2.96-10.743-3.32-14.496.868-4.65 5.234 2.09 9.45 6.55 10.885 1.198.398 1.837-1.664.64-2.062-9.064-3.43-13.725 6.523-15.855 13.508-.394 1.363 1.794 1.735 2.188.372 1.575-5.452 5.165-14.684 12.728-11.876.246-.7.425-1.43.64-2.062-1.764-.582-4.557-1.4-5.593-3.19-1.662-3.058 1.157-5.077 3.346-5.926 2.844-1.03 5.927-.482 8.38 1.237l.907-1.937c-2.812-.258-5.408-1.148-7.759-2.738-1.042-.732-2.787-1.875-3.347-3.114-1.608-3.523 1.374-4.325 3.772-4.75 4.729-.88 9.517.547 13.225 3.587l.907-1.937c-3.934-.295-7.877-.92-11.668-2.043-3.79-1.124-8.614-2.65-11.846-5.14-.37-.255-.77-.442-1.14-.697-.332-1.377-.664-2.754-.965-4.199.281-.6 1.921-.973 2.51-1.186 1.863-.675 3.869-.957 5.847-1.008 4.483-.181 8.84 1.125 12.597 3.536 1.207.728 2.648-.959 1.473-1.753zM49.19 108.407c-3.922.2-5.427 9.676-5.613 12.683-.337 4.892 2.18 9.084 6.655 11.18 11.12 5.126 21.125-6.153 23.945-15.827.184-.566-.328-1.213-.89-1.231-.396-.023-.761-.113-1.158-.136-1.39-.162-1.763 2.026-.372 2.188.396.023.761.112 1.158.135-.307-.388-.583-.843-.89-1.231-2.21 7.679-9.272 16.671-18.258 14.988-3.813-.727-7.352-3.605-7.819-7.652-.247-1.908.166-3.832.547-5.69.148-.663 1.765-7.073 3.017-7.139 1.35-.1 1.162-2.306-.322-2.268zM22.254 70.79c2.578 1.451 5.304 2.24 8.213 2.461 1.422.096 1.794-2.092.373-2.187-2.776-.16-5.27-.92-7.648-2.278-1.273-.76-2.212 1.245-.938 2.004zm13.17-35.777c1.753 1.472 3.476 3.012 5.23 4.485 1.112.928 2.554-.759 1.441-1.687-1.754-1.473-3.476-3.013-5.23-4.485-1.113-.929-2.554.758-1.441 1.687zm36.402-21.56c1.728 4.311 2.666 8.742 2.95 13.354.07 1.417 2.275 1.229 2.206-.188a41.667 41.667 0 00-3.097-13.912c-.528-1.306-2.588-.56-2.06.746zm39.112 15.79l-4.38 9.352c-.594 1.269 1.41 2.207 2.004.938l4.38-9.352c.594-1.269-1.41-2.207-2.004-.938zm12.75 26.169c3.138-1.137 6.25-2.042 9.463-2.817 1.378-.333.632-2.392-.746-2.06-3.213.776-6.392 1.65-9.463 2.817-1.342.43-.627 2.557.746 2.06zm6.888 20.248a77.676 77.676 0 018.139 2.1c1.331.461 2.27-1.543.938-2.004-2.828-.917-5.719-1.7-8.704-2.284-1.394-.327-1.767 1.86-.373 2.188zm-17.451 28.397c1.652 1.343 3.303 2.687 5.021 4.061 1.113.929 2.555-.758 1.442-1.686a798.53 798.53 0 00-5.021-4.062c-1.113-.928-2.555.759-1.442 1.687z"/><path d="M43.822 120.391c5.698 4.704 12.025 8.237 19.014 10.532 1.331.461 2.27-1.543.938-2.004-6.855-2.232-13.013-5.605-18.51-10.215-1.046-.897-2.488.79-1.442 1.687z"/></g><defs><clipPath id="clip0"><path fill="#fff" transform="rotate(25.092 25.461 114.414)" d="M0 0h113.516v120.08H0z"/></clipPath></defs></svg>