<svg width="36" height="44" fill="none" xmlns="http://www.w3.org/2000/svg"><g clip-path="url(#clip0)" fill="#FF9103"><path d="M.169.392c-.478 14.33.562 28.69 3.037 42.796l.76-.336c-.225-.42-.45-.867-.675-1.287-.253-.476-.985-.056-.731.42.225.42.45.867.675 1.287.225.448.843.112.759-.336C1.547 28.941.563 14.666 1.013.392 1.04-.14.197-.14.169.392z"/><path d="M.394 1.931H31.33c.535 0 .535-.84 0-.84H.394c-.534 0-.534.84 0 .84zm5.062 41.145c.535 0 .535-.84 0-.84-.534 0-.534.84 0 .84z"/><path d="M5.372 42.265c-.647.196-1.322.364-1.969.56-.534.14-.31.951.225.811.647-.196 1.322-.364 1.969-.56.506-.168.281-.98-.225-.811z"/><path d="M3.516 43.44c10.575-.588 21.178-1.203 31.753-1.791.534-.028.534-.868 0-.84-10.575.588-21.178 1.204-31.753 1.791-.563.029-.563.868 0 .84z"/><path d="M30.684 2.547a174.05 174.05 0 012.25 22.588c.113 3.47-.028 6.97.028 10.44.028 2.323.394 4.786 2.306 6.326.422.336 1.013-.252.591-.588-2.278-1.82-2.11-4.982-2.053-7.641.056-3.583.028-7.166-.14-10.72a169.35 169.35 0 00-2.194-20.629c-.085-.532-.872-.308-.788.224zM4.19 10.44l1.604-2.35c-.253-.085-.534-.14-.788-.225-.028.392-.14 3.527-.703 3.387-.028.28-.084.56-.112.812h1.94c.535 0 .535-.84 0-.84h-1.94c-.478 0-.59.7-.113.812.675.168 1.238-.252 1.435-.896.309-1.008.253-2.24.337-3.303.028-.448-.562-.532-.787-.224L3.46 9.964c-.31.504.421.924.73.476zm4.191.756c-.168-.224-.478-.392-.76-.28-.196.084-.365.28-.28.504.056.196.309.392.506.28.056-.028.056-.028 0 0-.084 0-.14-.028-.197-.112.14.196.366.28.59.14.17-.084.254-.364.141-.532zm1.209.112h18.45c.141 0 .141-.224 0-.224h-.927c-.141 0-.141.224 0 .224.14 0 .703.056.365-.224-.14-.112-.928 0-1.125 0H9.563c-.113.028-.113.224.028.224zm0 4.59h18.957c.14 0 .14-.224 0-.224h-.478c-.14 0-.14.224 0 .224-.028-.084-.056-.14-.084-.224h-.563c-.366-.028-.76 0-1.125 0H9.591c-.14 0-.14.224 0 .224zm.648 5.486H28.8c.14 0 .14-.224 0-.224H10.238c-.113.028-.113.224 0 .224zm.759 5.01c6.075-.42 12.15-.7 18.253-.811.14 0 .14-.196 0-.224-.14-.028-.31-.028-.45-.056-.14 0-.14.196 0 .224-.113 0-.422-.14-.647-.14-.366-.028-.731.028-1.097.028-.731.028-1.462.028-2.222.056l-4.697.168c-3.037.14-6.075.308-9.112.532-.169 0-.169.223-.028.223zm.197 4.619h16.425c.394 0 .984.084 1.378 0 .14-.028.928-.224.197-.224-.14 0-.14.224 0 .224h.619c.14 0 .14-.224 0-.224h-18.62c-.14 0-.14.224 0 .224zm-.197 6.325h19.266c.14 0 .14-.224 0-.224h-.507c-.14 0-.14.224 0 .224h.507c.14 0 .14-.224 0-.224H10.997c-.14.029-.14.224 0 .224zM5.456 14.359s-.028 0-.028.028c-.084-.196-.169-.42-.253-.616a5.725 5.725 0 01-2.053 2.351c.225.112.422.252.647.364v-.448c-.113.14-.197.28-.31.392.59-.196 1.21.224 1.828.224.478 0 .844-.168 1.125-.56.338-.448-.422-.84-.73-.42-.254.336-.873.056-1.182-.028-.422-.112-.844-.168-1.266-.028-.169.056-.31.224-.31.392v.448c0 .308.366.532.648.364 1.012-.672 1.828-1.54 2.362-2.631.113-.224.028-.56-.253-.616-.478-.112-.872.112-1.012.56-.197.504.618.728.787.224zm1.941 1.427v.084c0 .224.197.42.422.42a.432.432 0 00.422-.42v-.084a.431.431 0 00-.422-.42.431.431 0 00-.422.42zm-2.165 3.555a2.75 2.75 0 011.153-.336l-.422-.42c.028.448-.056.784-.394 1.092l.59.588c.17-.196.394-.028.45.196.029.252-.224.475-.393.587-.197.112-1.125.392-1.294.112-.028.168-.056.336-.056.504.056-.056.112-.14.169-.196.337-.42-.253-1.007-.591-.588-.056.056-.112.14-.169.196-.112.14-.168.336-.056.504.703 1.064 2.728.448 3.15-.588.45-1.091-.872-2.295-1.772-1.315-.365.392.197.98.59.588.45-.448.704-1.036.648-1.68-.028-.224-.17-.448-.422-.42-.563.028-1.097.196-1.603.448-.478.28-.057 1.008.422.728zM8.69 21.86c.085-.056.198-.14.282-.196.197-.14.281-.364.14-.588-.112-.196-.393-.28-.59-.14-.084.056-.197.14-.281.196-.197.14-.282.364-.14.588a.474.474 0 00.59.14zM28.097 3.919a.678.678 0 00-.31.783c0 .028.029.056.085.084.112.028.31.056.365-.056.085-.112.029-.308-.028-.42-.028-.056-.084-.056-.14-.028a.446.446 0 00-.197.644c.028.028.056.056.084.056.394-.056.703-.448.59-.84-.055-.195-.252-.223-.421-.111-.225.14-.197.42-.14.643 0 .056.056.084.112.084.197.028.45 0 .59-.14a.321.321 0 00-.028-.476.523.523 0 00-.534-.055c-.225.14-.338.391-.394.643-.028.056.028.112.084.14.226.056.507.084.675-.112.141-.14.141-.336.029-.504-.028-.028-.057-.028-.113-.028-.281.056-.394.364-.281.588.028.056.112.056.14.028a.4.4 0 00.197-.476c-.028-.084-.112-.112-.168-.056l-.17.168c-.112.084.057.252.142.14l.168-.168c-.056-.028-.112-.028-.169-.056.029.112-.028.168-.112.224.056 0 .084.028.14.028-.056-.14.029-.252.17-.28-.029 0-.057-.028-.113-.028.084.112-.028.224-.113.252a.807.807 0 01-.365 0c.028.056.056.084.084.14.056-.224.225-.643.535-.504.14.056.112.224-.029.28-.112.056-.225.028-.337.028a.387.387 0 00.112.084c-.028-.112-.084-.336.057-.392.14-.056.112.112.084.196a.477.477 0 01-.394.392c.028.028.056.028.085.056-.085-.14 0-.28.112-.364-.056 0-.084-.028-.14-.028.056.084.056.14.028.252l.084-.084c-.056.028-.112.028-.197 0l.085.084a.468.468 0 01.224-.532c.057-.167-.056-.335-.168-.28zM2.475 4.17c.14.196.45-.028.365-.223-.112-.252-.506-.196-.59.028-.14.307.169.587.45.615.253.028.675-.14.647-.476-.085-.615-1.435-.167-.985.392.422.504 1.266-.727.507-.867-.732-.14-.535 1.203.084.867.253-.14.197-.503-.028-.643-.281-.196-.675.028-.816.307-.112.28.113.532.394.56.337.028.647-.308.76-.588.14-.335-.198-.531-.507-.531-.281.028-.534.196-.619.475-.197.644.788 1.092 1.153.56.17-.252.141-.671-.196-.783-.282-.084-.591.14-.563.447.028.14.225.084.197-.056-.028-.196.253-.251.366-.14.14.112.056.364-.057.476-.197.168-.562.084-.675-.14-.168-.28.113-.587.394-.615.056 0 .14 0 .225.028.169.112.084.223 0 .335-.112.14-.253.28-.422.308-.084 0-.169 0-.225-.084-.084-.084 0-.224.085-.308a.342.342 0 01.365-.083c.085.055.197.195.113.28-.17.223-.366-.197-.282-.364.057-.084.225-.14.31-.028.056.056.028.14 0 .223-.056.112-.422.448-.422.14 0-.196.31-.224.45-.224.112 0 .169.056.169.168-.028.056-.085.084-.113.112-.084.056-.225.056-.31.056-.112-.028-.224-.112-.224-.224 0-.167.169-.167.253-.056-.14-.167-.338-.056-.253.056z"/></g><defs><clipPath id="clip0"><path fill="#fff" d="M0 0h36v44H0z"/></clipPath></defs></svg>