<svg width="49" height="39" fill="none" xmlns="http://www.w3.org/2000/svg"><g clip-path="url(#clip0)" fill="#0AB6E2"><path d="M11.542 24.057c.363-1.144.763-2.03 1.634-2.878.363-.37.762-.775 1.161-1.107.98-.812 2.07-.295 2.214.885.037.332.581.37.545 0-.145-1.365-1.125-2.509-2.54-1.734-.836.443-1.634 1.365-2.251 2.067-.654.737-.98 1.66-1.27 2.62-.146.331.399.479.507.147z"/><path d="M11.034 24.61c.508.259.871.738 1.416.997.472.22 1.016.332 1.525.442.762.185 1.923.37 2.54-.184.073-.074.11-.185.073-.258 0-.037 0-.037-.036-.074-.037-.111-.146-.185-.255-.222h-.036c-.363 0-.363.554 0 .554-.29-.332-.617-.406-1.016-.222a3.94 3.94 0 01-.944-.11c-.326-.074-.69-.148-1.016-.259-.799-.258-1.27-.811-1.96-1.18-.327-.11-.581.369-.29.516z"/><path d="M11.252 26.05c.545.147.98.737 1.561.922.58.221 1.27.369 1.887.332.98 0 1.852-.517 1.997-1.55.073-.332-.472-.517-.508-.148-.254 1.476-2.07 1.218-3.086.85-.653-.222-1.052-.813-1.706-.997-.363-.037-.508.48-.145.59zm1.198-5.314c.617-.59 1.198-1.217 1.96-1.586.363-.185.98-.443 1.416-.406 1.306.037 1.343 1.476.798 2.25-.218.296.254.554.472.296.653-.923.58-2.952-.835-3.1-1.67-.184-3.085 1.144-4.21 2.214-.218.185.145.553.399.332z"/><path d="M27.84 22.36c-2.83.553-5.59.258-8.384-.406-2.033-.48-3.993-1.255-6.098-1.44-.363-.036-.363.517 0 .554 2.686.221 5.263 1.365 7.912 1.845 2.251.369 4.465.443 6.716 0 .326-.074.181-.627-.146-.553zm-14.882 2.878c6.243.59 12.051 2.767 17.169 6.493 1.996 1.476 4.537 1.882 6.788 2.805 2.94 1.18 5.77 2.693 8.457 4.427.29.185.58-.295.29-.48-2.54-1.623-5.19-3.062-7.985-4.243-2.831-1.143-5.663-1.808-8.13-3.616-4.828-3.542-10.709-5.386-16.589-5.94-.363-.037-.363.517 0 .554z"/><path d="M26.316 22.433c-.726-.7-1.706-1.365-2.323-2.214-.581-.774-.835-1.881-.4-2.693.218-.406.581-.775.872-1.144.834-1.107 1.451-1.992 2.867-2.361.835-.222 1.888-.185 2.759-.259 2.25-.184 4.864-.7 6.715.923.544.48 1.089.996 1.56 1.55.727.811 1.09 1.033.69 2.14-.435 1.07-.544.885-1.56 1.107.036.184.108.368.145.516.145-.037.254-.11.399-.148.327-.11.181-.664-.145-.516-.146.037-.254.11-.4.148-.326.11-.217.627.146.516.726-.148 2.177-.258 2.613-1.07.436-.922-.544-2.03-1.089-2.694-.871-1.033-1.96-2.324-3.194-2.877-1.452-.665-3.267-.406-4.791-.296-1.452.111-3.195 0-4.61.48-1.27.406-2.033 1.845-2.795 2.878-.617.775-1.488 1.66-1.198 2.767.4 1.402 2.396 2.657 3.412 3.616.182.295.58-.11.327-.369z"/><path d="M48.53 26.529c-3.194-4.907-9.873-4.907-13.72-9.077-1.489-1.586-2.578-3.357-4.973-2.952-1.162.185-2.578.886-1.852 2.251.146.332.617.037.472-.295-.363-.701 1.488-1.476 1.96-1.513.98-.037 1.743.406 2.432 1.033.581.554 1.053 1.255 1.597 1.845a14.153 14.153 0 003.739 2.878c3.448 1.882 7.622 2.546 9.91 6.088.144.332.616.074.435-.258z"/><path d="M27.768 17.71c.69-.442 1.161-1.106 1.778-1.55.799-.553 1.888.296 2.396.997 1.052 1.55-1.343 1.439-2.214 1.255-.509-.111-.98-.259-1.452-.517-.218-.11-.436-.332-.69-.369-.181-.037-.4.11-.327.332v.037c.037.148.182.221.327.184h.036c.327-.11.182-.627-.145-.516h-.036c.109.074.218.11.327.184v-.037a3.42 3.42 0 01-.327.37c.29.036.653.368.907.48.4.184.799.294 1.198.405.654.148 1.307.148 1.997.074.87-.11 1.451-.554 1.161-1.513-.254-.886-1.343-1.808-2.214-2.103-.363-.11-.726-.148-1.016.074-.29.184-.509.553-.763.774-.363.37-.798.665-1.234.96-.29.184 0 .664.29.48z"/><path d="M28.747 19.002c1.924 1.845 4.138 3.32 6.099 5.166 1.088.996 2.032 2.14 2.758 3.431.544.96.944 1.919 1.67 2.767.218.222.617-.074.435-.332a4.485 4.485 0 00-.363-.516c-.181-.296-.653 0-.471.295.108.184.217.332.362.516l.436-.332c-.907-1.07-1.38-2.435-2.178-3.616a15.204 15.204 0 00-2.25-2.582c-1.924-1.845-4.138-3.321-6.098-5.166-.29-.258-.654.148-.4.369zM2.505 33.613c2.794 1.55 6.098 3.173 9.146 1.402 1.307-.775 2.832-1.77 3.884-2.915 1.343-1.476 2.142-3.69 3.05-5.46.145-.333-.291-.59-.473-.296-.725 1.402-1.379 2.878-2.177 4.243-.872 1.476-2.287 2.362-3.63 3.321-3.267 2.288-6.316.996-9.51-.775-.327-.147-.617.332-.29.48zM15.5.406c1.016 2.103 1.524 4.354 1.379 6.678-.11 1.624-.255 2.583.69 3.911 2.395 3.321 2.867 7.01 2.685 11.07 0 .368.545.368.545 0 .181-3.58-.073-7.38-2.105-10.443-.69-1.07-1.416-1.881-1.416-3.246 0-.96.218-1.882.145-2.841-.109-1.882-.617-3.653-1.452-5.35-.181-.37-.653-.074-.472.22zm-1.925 3.579c-1.343 1.144-1.851 2.952-.944 4.538.436.775 1.126 1.402 1.888 1.919.4.295.907.443 1.307.775 1.379 1.143 1.125 2.398.943 3.8-.036.369.509.332.545 0 .181-1.476.435-3.062-.799-4.059-.762-.627-1.706-.922-2.432-1.586-1.524-1.44-1.778-3.542-.036-4.981.181-.222-.181-.628-.472-.406zm-2.432 9.113c-.87.59-.835 1.845 0 2.472.4.296.98.517 1.488.406.69-.147.69-1.365 1.598-.959.326.148.58-.332.29-.48a1.321 1.321 0 00-1.597.37c-.145.147-.218.405-.4.516-.217.11-.653-.11-.834-.185-.617-.332-.871-1.217-.218-1.66.218-.221-.036-.701-.327-.48z"/><path d="M14.12 13.91c.943.332 1.96.59 2.795-.147.254-.222-.11-.628-.4-.406-.653.59-1.524.258-2.25 0-.327-.111-.472.406-.145.553zm-2.323 8.597c-.218.554.254 1.291.58 1.697.218.259.436.48.726.665.29.22.726.295.98.59.218.258.617-.11.4-.406-.327-.369-.872-.48-1.234-.775-.363-.295-1.09-1.107-.908-1.623.073-.332-.435-.48-.544-.148zM.146 11.032c1.088.259 2.323.296 3.448.037.508-.11.98-.332 1.452-.627.109-.074 1.343-.922.98-1.107-.037-.148-.037-.332-.073-.48l-.036.037c-.145.148-.073.406.109.443h.036a.28.28 0 00.29-.074s0-.037.037-.037c.217-.258.036-.7-.327-.59-.29.074-.327.184-.58.406-.509.48-.98.849-1.598 1.107-1.198.48-2.432.332-3.702.48-.182.073-.254.368-.036.405zM14.01 8.67c.291.37.98.185 1.344.111.544-.11 1.161-.332 1.56-.7.255-.222-.072-.665-.362-.48-.145.11-.182.147-.218.332 0 .11.073.221.181.184h.037v-.516c-.472.221-.944.48-1.452.627-.363.11-.871.037-1.125.332 0 .037 0 .074.036.11z"/></g><defs><clipPath id="clip0"><path fill="#fff" d="M0 0h48.566v39H0z"/></clipPath></defs></svg>