<svg width="79" height="63" fill="none" xmlns="http://www.w3.org/2000/svg"><g clip-path="url(#clip0)" fill="#0AB6E2"><path d="M18.776 38.86c.59-1.847 1.24-3.277 2.657-4.648.59-.596 1.24-1.252 1.89-1.788 1.593-1.311 3.365-.477 3.601 1.43.06.537.945.596.886 0-.236-2.205-1.83-4.053-4.133-2.801-1.358.715-2.657 2.205-3.661 3.338-1.063 1.192-1.594 2.682-2.067 4.231-.236.537.65.775.827.239z"/><path d="M17.949 39.755c.827.417 1.417 1.192 2.303 1.61.767.357 1.653.536 2.48.715 1.24.297 3.129.596 4.133-.298.118-.12.177-.298.118-.418 0-.06 0-.06-.06-.119-.058-.179-.236-.298-.413-.357h-.059c-.59 0-.59.894 0 .894-.472-.537-1.003-.656-1.653-.358-.531 0-1.063-.06-1.535-.179-.532-.12-1.122-.238-1.653-.417-1.3-.417-2.067-1.311-3.189-1.907-.531-.18-.944.596-.472.834z"/><path d="M18.303 42.08c.886.238 1.595 1.192 2.54 1.49.944.357 2.066.596 3.07.536 1.594 0 3.01-.834 3.247-2.503.118-.537-.768-.835-.827-.239-.413 2.385-3.365 1.967-5.018 1.371-1.063-.357-1.713-1.311-2.775-1.609-.59-.06-.827.775-.237.954zm1.949-8.583c1.004-.954 1.948-1.967 3.188-2.563.59-.298 1.594-.715 2.303-.656 2.125.06 2.184 2.385 1.299 3.636-.355.477.413.894.767.477 1.063-1.49.945-4.768-1.358-5.007-2.716-.298-5.018 1.848-6.849 3.577-.354.298.236.894.65.536z"/><path d="M45.286 36.12c-4.605.893-9.092.416-13.639-.656-3.306-.775-6.494-2.027-9.919-2.325-.59-.06-.59.834 0 .894 4.37.358 8.561 2.205 12.871 2.98 3.661.596 7.263.715 10.924 0 .53-.119.295-1.013-.237-.894zm-24.208 4.649c10.155.953 19.603 4.47 27.928 10.49 3.247 2.384 7.38 3.04 11.04 4.53 4.783 1.907 9.389 4.35 13.758 7.152.472.298.945-.477.472-.775-4.133-2.623-8.443-4.947-12.99-6.854-4.605-1.848-9.21-2.921-13.225-5.841-7.853-5.722-17.418-8.702-26.983-9.597-.59-.06-.59.835 0 .895z"/><path d="M42.806 36.239c-1.18-1.133-2.775-2.206-3.778-3.577-.945-1.251-1.358-3.04-.65-4.35.355-.656.945-1.252 1.417-1.848 1.358-1.788 2.362-3.219 4.665-3.815 1.358-.358 3.07-.298 4.487-.417 3.66-.298 7.912-1.133 10.923 1.49.886.775 1.771 1.61 2.539 2.503 1.18 1.311 1.771 1.67 1.122 3.457-.709 1.729-.886 1.43-2.54 1.788.06.298.178.596.237.835.236-.06.413-.18.65-.239.53-.179.295-1.073-.237-.834-.236.06-.413.179-.65.238-.53.18-.353 1.014.237.835 1.18-.239 3.543-.418 4.251-1.729.709-1.49-.885-3.278-1.771-4.35-1.417-1.67-3.188-3.756-5.196-4.65-2.362-1.073-5.314-.655-7.794-.477-2.361.18-5.196 0-7.498.775-2.067.656-3.307 2.98-4.547 4.65-1.003 1.25-2.42 2.681-1.948 4.47.65 2.264 3.897 4.29 5.55 5.84.295.477.945-.178.532-.596z"/><path d="M78.94 42.854c-5.195-7.927-16.059-7.927-22.318-14.662-2.42-2.563-4.192-5.424-8.089-4.768-1.889.298-4.192 1.43-3.01 3.635.235.537 1.003.06.767-.476-.59-1.133 2.42-2.384 3.188-2.444 1.594-.06 2.834.655 3.956 1.669.945.894 1.712 2.026 2.598 2.98a23.003 23.003 0 006.081 4.649c5.61 3.04 12.4 4.113 16.12 9.834.235.537 1.003.12.708-.417z"/><path d="M45.168 28.609c1.122-.715 1.89-1.788 2.893-2.503 1.3-.894 3.07.476 3.897 1.609 1.712 2.503-2.184 2.325-3.601 2.026-.827-.178-1.595-.417-2.362-.834-.354-.179-.709-.536-1.122-.596-.295-.06-.65.179-.531.536v.06c.059.238.295.358.531.298h.06c.53-.179.294-1.013-.237-.834h-.06c.178.119.355.178.532.298v-.06a5.368 5.368 0 01-.531.596c.472.06 1.063.596 1.476.775.65.298 1.299.477 1.948.655 1.063.239 2.126.239 3.248.12 1.417-.18 2.361-.894 1.89-2.444-.414-1.43-2.185-2.92-3.602-3.397-.59-.18-1.181-.239-1.654.119-.472.298-.826.894-1.24 1.252-.59.596-1.299 1.072-2.007 1.55-.472.297 0 1.072.472.774z"/><path d="M46.762 30.696c3.13 2.98 6.731 5.364 9.92 8.344 1.77 1.61 3.306 3.457 4.487 5.543.885 1.55 1.535 3.1 2.716 4.47.354.358 1.003-.119.708-.536a7.236 7.236 0 00-.59-.835c-.295-.476-1.063 0-.768.477.177.298.355.537.59.835l.71-.537c-1.477-1.728-2.244-3.934-3.543-5.84-1.063-1.55-2.303-2.921-3.661-4.173-3.13-2.98-6.731-5.364-9.92-8.344-.472-.418-1.062.238-.649.596zM4.074 54.298c4.547 2.503 9.92 5.126 14.88 2.265 2.125-1.252 4.605-2.86 6.317-4.709 2.184-2.384 3.483-5.96 4.96-8.82.236-.537-.473-.954-.768-.478-1.181 2.265-2.244 4.65-3.543 6.855-1.417 2.384-3.72 3.814-5.904 5.364-5.314 3.695-10.274 1.61-15.47-1.252-.53-.238-1.003.537-.472.775zM25.211.656c1.654 3.397 2.48 7.033 2.244 10.788-.177 2.622-.413 4.172 1.122 6.318 3.897 5.364 4.664 11.324 4.37 17.88 0 .597.885.597.885 0 .295-5.78-.118-11.92-3.425-16.867-1.122-1.728-2.302-3.04-2.302-5.245 0-1.55.354-3.04.236-4.59-.177-3.04-1.004-5.9-2.362-8.642-.295-.596-1.063-.119-.768.358zm-3.129 5.781c-2.184 1.848-3.011 4.768-1.535 7.331.709 1.252 1.83 2.265 3.07 3.1.65.476 1.476.715 2.126 1.251 2.244 1.848 1.83 3.874 1.535 6.14-.06.595.827.536.886 0 .295-2.385.708-4.948-1.3-6.557-1.24-1.013-2.774-1.49-3.955-2.563-2.48-2.324-2.893-5.722-.06-8.046.296-.358-.294-1.014-.767-.656zm-3.956 14.722c-1.417.954-1.358 2.98 0 3.993.65.477 1.594.835 2.421.656 1.122-.238 1.122-2.205 2.598-1.55.531.239.945-.536.472-.774-.945-.418-1.948-.18-2.598.595-.236.239-.354.656-.65.835-.353.179-1.062-.179-1.357-.298-1.004-.537-1.417-1.967-.354-2.682.354-.358-.06-1.133-.532-.775z"/><path d="M22.968 22.47c1.535.537 3.188.954 4.546-.238.414-.358-.177-1.014-.65-.656-1.062.954-2.479.417-3.66 0-.531-.179-.767.656-.236.894zm-3.779 13.888c-.354.894.413 2.086.945 2.741.354.418.708.775 1.18 1.073.473.358 1.181.477 1.595.954.354.417 1.003-.179.649-.656-.531-.596-1.417-.775-2.007-1.252-.59-.476-1.772-1.788-1.476-2.622.118-.536-.709-.775-.886-.238zM.237 17.821c1.77.417 3.778.477 5.609.06.826-.179 1.594-.537 2.361-1.013.178-.12 2.185-1.49 1.595-1.788-.06-.239-.06-.537-.119-.775l-.059.06c-.236.238-.118.655.178.714h.059c.177.06.354 0 .472-.119 0 0 0-.06.059-.06.354-.417.059-1.132-.531-.953-.473.12-.532.298-.945.656-.827.775-1.594 1.37-2.598 1.788-1.948.775-3.956.536-6.022.775-.296.119-.414.596-.06.655zm22.554-3.815c.472.596 1.594.298 2.185.18.885-.18 1.889-.537 2.538-1.133.414-.358-.118-1.073-.59-.775-.236.179-.295.238-.354.536 0 .18.118.358.295.298h.059v-.834c-.768.358-1.535.775-2.362 1.013-.59.179-1.417.06-1.83.537 0 .06 0 .119.059.178z"/></g><defs><clipPath id="clip0"><path fill="#fff" d="M0 0h79v63H0z"/></clipPath></defs></svg>