<svg width="43" height="39" fill="none" xmlns="http://www.w3.org/2000/svg"><g clip-path="url(#clip0)" fill="#75BB43"><path d="M21.571 28.097c.071.851.118 1.443.142 2.01 0 .355 0 .78-.496.78-.425 0-.425-.401-.45-.709v-.236c-.094-1.774-.094-1.774-1.866-1.821-.401 0-.897.142-1.228-.473.732-.899 1.866-.095 2.74-.639.213-.851-.425-1.892.355-2.814.709.52.52 1.206.52 1.773-.024.994.378 1.349 1.346 1.207.473-.071.945-.071 1.418-.071.378 0 .921-.142.945.402.047.638-.567.52-.969.544-.756.07-1.535.047-2.457.047z"/><path d="M27.737 28.76c0 2.955-3.024 5.746-6.19 5.746-3.166-.023-6.143-2.767-6.143-5.676 0-4.352 2.552-7.379 6.19-7.379 3.592.024 6.143 3.051 6.143 7.308zm-.992.07c-.024-3.642-2.245-6.315-5.198-6.291-3.048.024-5.198 2.767-5.15 6.598.023 1.963 2.953 4.518 5.197 4.518 2.387-.047 5.175-2.65 5.151-4.825z"/><path d="M13.301 8.206c-.449-3.382 5.151-8.018 7.82-8.207 1.466-.094 2.718.52 3.876 1.301 1.559 1.04 2.835 2.412 3.922 3.95.637.875.78 1.868.732 2.956 2.055 0 4.04.142 5.977-.047 2.174-.19 4.159.165 6.072 1.182 1.016.544 1.347 1.42 1.3 2.484a94.697 94.697 0 01-2.457 17.643c-.237 1.04-.355 2.105-.52 3.17-.402 2.908-1.961 4.564-4.796 5.131-.307.071-.685.048-.898.237-1.418 1.23-3.095 1.017-4.749 1.017-5.977 0-11.955-.024-17.956 0-.827 0-1.583-.118-2.22-.639-.851-.685-1.938-.662-2.907-.993-1.96-.662-3-2.105-3.331-3.997C1.843 26.252.142 19.156 0 11.872c-.024-1.112.283-2.01 1.346-2.554C3.26 8.324 5.245 7.97 7.418 8.182c1.914.19 3.875.024 5.883.024zM1.82 19.63c0 .308-.024.497 0 .686.473 4.257 1.583 8.396 2.197 12.653.355 2.413 2.009 3.808 4.537 3.903a315.81 315.81 0 0025.894 0c2.552-.095 4.206-1.514 4.56-4.02.402-2.744 1.016-5.44 1.488-8.184.284-1.656.638-3.311.686-5.014h-3.733c-.095 1.04-.024 1.987-.308 2.909-.33 1.112-1.228.922-2.031.922-.827.024-1.3-.402-1.347-1.182-.071-.852-.024-1.727-.024-2.72a381.78 381.78 0 00-24.406 0c0 .922.047 1.703 0 2.483-.047.828-.378 1.42-1.37 1.42-.945 0-1.89.094-2.103-1.16-.142-.875-.213-1.773-.33-2.743-1.253.047-2.434.047-3.71.047zm19.68-1.206h18.996c.497 0 .922.024.993-.686.165-1.773.472-3.547.567-5.321.047-.733.07-1.632-.733-2.129-.992-.615-2.055-1.111-3.236-1.064-4.56.237-9.097 0-13.656.024-6.285.047-12.593.023-18.878-.024a7.7 7.7 0 00-3.615.875c-.52.284-.827.662-.921 1.277-.26 2.105.283 4.092.449 6.15.047.733.354.922 1.04.922 6.331-.024 12.663-.024 18.995-.024zm-7.087-10.17h14.176c.165-.71.142-1.348-.19-1.915-1.393-2.39-3.189-4.328-5.859-5.298a2.867 2.867 0 00-2.079 0c-2.67.97-4.465 2.909-5.86 5.298-.33.567-.354 1.206-.188 1.915zm-7.68 11.423c0 .804-.023 1.537 0 2.27.024.591.426.639.898.639.544.023.685-.26.685-.733v-2.176c-.543-.166-1.016-.142-1.583 0zm27.88.023c.165.994-.166 1.94.212 2.815 1.536.118 1.748-.355 1.394-2.886-.473-.07-.969-.118-1.607.071z"/><path d="M22.516 11.612c1.181-.875 2.457-1.584 3.804-2.175.094-.048.023-.19-.095-.142a20.845 20.845 0 00-3.803 2.175c-.095.071 0 .213.094.142zm.33.97a41.786 41.786 0 016.309-3.24c.094-.047.047-.213-.047-.165a46.05 46.05 0 00-6.356 3.263c-.095.048 0 .213.095.142zm1.442-.118c2.41-1.325 4.82-2.625 7.253-3.95.095-.047 0-.213-.094-.142-2.41 1.325-4.82 2.626-7.254 3.95-.094.047 0 .213.095.142zm.803 1.136c2.788-1.68 5.553-3.36 8.34-5.062.095-.047 0-.213-.094-.142-2.788 1.68-5.552 3.358-8.34 5.061-.095.047-.024.19.094.142zm.449.283a77.92 77.92 0 018.837-4.825c.094-.047.023-.213-.095-.142a77.904 77.904 0 00-8.836 4.825c-.095.047 0 .19.094.142zm1.418.331a89.467 89.467 0 018.175-4.612c.094-.047.023-.213-.095-.142a89.467 89.467 0 00-8.175 4.612c-.094.048 0 .19.095.142zm.638.615a98.12 98.12 0 0110.088-5.653c.095-.047.024-.212-.094-.141a98.12 98.12 0 00-10.09 5.652c-.094.047 0 .213.095.142zm-1.135 1.537A101.563 101.563 0 0138.464 9.84c.094-.048.023-.19-.095-.142-4.135 1.892-8.128 4.091-12.002 6.527-.095.048 0 .213.094.142zm2.198-.307a171.325 171.325 0 0111.86-6.22c.095-.048.024-.213-.094-.142a201.902 201.902 0 00-11.861 6.22c-.095.024 0 .19.095.142zm.331.969a57.77 57.77 0 0110.726-5.912c.094-.048.047-.213-.047-.166a58.155 58.155 0 00-10.774 5.913c-.094.07 0 .213.095.165zm1.748.166a231.603 231.603 0 0110.23-6.007c.095-.047 0-.213-.094-.142a262.569 262.569 0 00-10.23 6.007c-.095.047 0 .19.094.142zm.472.78a106.42 106.42 0 0110.703-5.841c.095-.048.024-.213-.094-.142a97.73 97.73 0 00-10.703 5.841c-.095.048 0 .19.094.142zm1.394.284l8.222-4.824c.095-.048 0-.213-.094-.142l-8.222 4.824c-.095.048 0 .19.094.142zm1.394-.188c2.387-1.325 4.773-2.673 7.136-3.998.094-.047 0-.213-.095-.142-2.386 1.325-4.773 2.673-7.135 3.997-.095.047 0 .19.094.142zm1.158.567a39.658 39.658 0 015.954-3.5c.095-.048.024-.213-.094-.142a39.658 39.658 0 00-5.954 3.5c-.095.047 0 .19.094.142zm2.362-.662a12.117 12.117 0 013.45-2.318c.094-.047.023-.19-.095-.142a12.498 12.498 0 00-3.496 2.365c-.048.047.07.166.141.095zm.142.473c.827-.544 1.678-1.065 2.505-1.609.094-.07 0-.212-.095-.142-.827.544-1.677 1.065-2.504 1.609-.095.047 0 .212.094.142zm.19.307a8.913 8.913 0 002.457-1.466c.094-.071-.047-.19-.118-.119a7.88 7.88 0 01-2.386 1.42c-.095.023-.048.212.047.165z"/><path d="M38.062 18.755a2.652 2.652 0 002.15-.615c.095-.07-.047-.19-.118-.118a2.503 2.503 0 01-1.984.591c-.095-.047-.166.142-.048.142z"/></g><defs><clipPath id="clip0"><path fill="#fff" d="M0 0h43v39H0z"/></clipPath></defs></svg>