<svg width="35" height="49" fill="none" xmlns="http://www.w3.org/2000/svg"><g clip-path="url(#clip0)" fill="#204686"><path d="M2.387 5.635c.426-.501.597-.918.341-1.545-.256-.75-1.492-.417-1.236.334.895 2.588 1.407 5.26 1.577 8.014.043.793 1.322.793 1.279 0a29.581 29.581 0 00-1.62-8.348c-.426.126-.81.21-1.236.334v.293c-.554.626.34 1.502.895.918z"/><path d="M3.069 5.008c4.519 0 9.166.25 13.684-.167 1.492-.125 8.143-.417 6.95-3.13C23.19.501 21.4.501 20.291.334 18.16.042 16.029-.042 13.897 0 9.378.083 4.945.876.682 2.254c-.555.167-.64 1.085 0 1.168.34.042.724.126 1.065.167.81.167 1.151-1.043.341-1.168-.34-.042-.682-.126-1.065-.167v1.21c3.154-1.002 6.394-1.711 9.72-2.003 1.534-.126 3.112-.21 4.689-.167.767 0 1.577.041 2.345.083.81.042 2.728-.083 3.325.376.98.751.383 1.002-.64 1.252-.852.209-1.747.376-2.6.459a41.353 41.353 0 01-5.073.292c-3.24.042-6.48 0-9.72 0-.81 0-.81 1.252 0 1.252z"/><path d="M24.172 2.963c-.043-.71-.341-1.085-1.023-1.335-.384-.125-.81.209-.81.584-.043 3.214.213 6.344.724 9.516.128.793 1.364.46 1.237-.333a50.953 50.953 0 01-.683-9.183 9.826 9.826 0 01-.81.585c.043.041.043.083.086.125.042.834 1.321.834 1.279.041z"/><path d="M2.643 12.939c3.965.668 7.972.876 11.98.584a42.354 42.354 0 005.626-.751c.938-.167 2.516-.167 3.07-1.085.128-.21.128-.585-.085-.752-.256-.25-.512-.292-.853-.208-.341.125-.512.417-.426.75v.084c.128.793 1.364.46 1.236-.334v-.083c-.128.25-.299.5-.426.751l-.384-.125c-.043-.25-.085-.5-.085-.751-.299.5-3.198.71-3.837.793a45.093 45.093 0 01-5.329.542c-3.453.167-6.82-.083-10.146-.626-.81-.125-1.151 1.085-.341 1.21z"/><path d="M5.286 13.648c2.089.877-1.535 2.964-2.217 3.673-.64.668-.98 1.503-1.279 2.38-.852 2.545-.852 5.383-.469 8.013.768 5.927 3.368 11.478 3.326 17.53 0 .793 1.236.793 1.279 0 .042-.334.042-.668.085-1.044.042-.793-1.236-.793-1.28 0-.042.334-.042.668-.084 1.044h1.279c.042-6.97-3.41-13.356-3.539-20.201-.042-1.837.128-3.798.853-5.51.725-1.67 2.217-2.045 3.24-3.339.895-1.127.895-2.963-.554-3.59-.768-.375-1.407.71-.64 1.044zm15.986-1.378c-1.108 1.378-.256 2.84 1.28 3.507 1.747.751 2.77 1.252 3.879 2.88.895 1.377 1.79 2.755 2.557 4.215 1.663 3.256 2.004 6.637 2.388 10.226.17 1.503.383 3.047.852 4.508.555 1.71 1.919 3.506 1.28 5.342-.257.751.98 1.085 1.236.334.895-2.504-1.109-5.008-1.62-7.387-.683-3.13-.597-6.386-1.407-9.517-.725-2.796-2.217-5.3-3.794-7.721-.555-.877-1.109-1.837-1.919-2.588-.64-.584-4.39-2.129-3.794-2.88.512-.668-.426-1.544-.938-.918z"/><path d="M4.433 46.162c5.03 2.17 10.445 3.13 15.902 2.754 2.6-.166 5.2-.626 7.673-1.377 1.833-.543 5.329-1.419 6.608-2.963.853-1.044.128-2.212-1.023-2.672-1.066-.417-2.515-.292-3.624-.333a66.216 66.216 0 00-4.988-.042c-6.607.167-13.215 1.168-19.738 2.379-.81.167-.469 1.377.341 1.21 5.03-.96 10.104-1.71 15.22-2.128a74.66 74.66 0 017.503-.25c1.108.041 2.728-.168 3.751.166.426-.083.682.125.853.543.554.334.596.542.128.668-.17.292-1.28.626-1.535.75-8.27 3.716-18.033 3.716-26.303.126-.853-.25-1.492.835-.768 1.169zm.981-19.367c6.438 1.712 13.173 1.086 19.142-1.794-.299-.126-.64-.25-.938-.376.469 2.42 1.066 4.8 1.748 7.137.256.877 1.15 2.463 1.023 3.34-.17 1.126-2.387 1.627-3.283 1.92-4.433 1.377-9.25 1.043-13.812.75l.64.627c.127-4.633-4.775-8.056-3.88-12.689.17-.793-1.066-1.127-1.236-.334-.938 4.967 3.964 8.264 3.836 13.022 0 .334.299.585.64.627 5.414.375 11.17.667 16.242-1.587 1.919-.876 2.473-1.419 1.876-3.422a109.5 109.5 0 01-2.515-9.767c-.085-.417-.597-.542-.938-.375-5.67 2.755-12.065 3.297-18.16 1.67-.81-.168-1.152 1.043-.385 1.251z"/><path d="M16.412 30.134c-1.236.042-2.472.084-3.708.168-.683.041-.896 1.126-.171 1.21 2.771.417 5.414 0 7.93-1.252.724-.376.085-1.461-.64-1.085-2.174 1.085-4.519 1.46-6.949 1.127-.043.417-.128.834-.17 1.21a112.13 112.13 0 003.708-.167c.853 0 .853-1.252 0-1.21zM13.3 34.016a22.84 22.84 0 007.717-2.129c.724-.375.085-1.419-.64-1.085-2.217 1.085-4.561 1.712-7.034 1.92-.852.084-.852 1.336-.043 1.294zM4.39 4.633v8.139c0 .208.342.208.342 0V4.633c0-.167-.341-.209-.341 0zm.768.125v7.22c0 .21.341.21.341 0v-7.22c-.042-.209-.34-.209-.34 0zm.725.083v5.092c0 .21.34.21.34 0V4.841c0-.166-.34-.208-.34 0zM17.82 4.55v7.429c0 .209.341.209.341 0v-7.43c0-.208-.34-.208-.34 0zm.426-.21v6.887c0 .209.341.209.341 0V4.341c0-.21-.34-.21-.34 0zm.554.21v6.05c0 .21.34.21.34 0V4.55c-.042-.21-.34-.21-.34 0zm.427.083v6.26c0 .21.34.21.34 0v-6.26c-.042-.167-.34-.209-.34 0zm.639-.417v5.843c0 .209.341.209.341 0V4.216c-.042-.167-.34-.21-.34 0zm.512-.418v6.803c0 .209.341.209.341 0V3.798c0-.167-.341-.209-.341 0zm.767.626v6.47c0 .208.34.208.34 0v-6.47c-.042-.167-.34-.209-.34 0zm.426-.709v6.552c0 .21.341.21.341 0V3.715c-.042-.21-.34-.21-.34 0zm.725.292v7.012c0 .209.34.209.34 0V4.007c0-.167-.34-.209-.34 0zM2.43 23.498c.214 0 .214-.333 0-.333-.213 0-.213.334 0 .334z"/></g><defs><clipPath id="clip0"><path fill="#fff" d="M0 0h35v49H0z"/></clipPath></defs></svg>