<svg width="29" height="41" fill="none" xmlns="http://www.w3.org/2000/svg"><g clip-path="url(#clip0)" fill="#204686"><path d="M1.978 4.715c.353-.42.495-.769.283-1.293-.212-.628-1.237-.349-1.025.28a25.364 25.364 0 011.307 6.705c.036.664 1.095.664 1.06 0A24.967 24.967 0 002.26 3.422c-.354.105-.671.175-1.025.28v.244c-.459.524.283 1.258.742.769z"/><path d="M2.543 4.19c3.744 0 7.595.21 11.339-.139 1.236-.105 6.746-.35 5.758-2.62C19.216.42 17.732.42 16.814.28 15.047.035 13.28-.035 11.515 0 7.771.07 4.097.733.565 1.886c-.459.14-.53.908 0 .978.283.035.6.104.883.14.671.14.954-.874.283-.978-.283-.035-.565-.105-.883-.14v1.013C3.462 2.06 6.146 1.467 8.9 1.222c1.272-.104 2.579-.174 3.886-.14.636 0 1.307.036 1.943.07.67.035 2.26-.07 2.755.315.812.628.318.838-.53 1.047-.706.175-1.448.315-2.155.385-1.413.174-2.79.244-4.203.244-2.685.035-5.37 0-8.054 0-.67 0-.67 1.048 0 1.048z"/><path d="M20.028 2.48c-.035-.594-.282-.908-.848-1.118-.318-.105-.67.175-.67.489a46.152 46.152 0 00.6 7.962c.106.664 1.13.385 1.024-.279-.424-2.55-.6-5.099-.565-7.683-.212.175-.46.35-.671.489.035.035.035.07.07.105.036.698 1.095.698 1.06.035z"/><path d="M2.19 10.826a41.16 41.16 0 009.926.49 34.788 34.788 0 004.662-.63c.777-.14 2.084-.14 2.543-.908.106-.174.106-.488-.07-.628-.212-.21-.424-.245-.707-.175-.282.105-.424.35-.353.629v.07c.106.663 1.13.384 1.024-.28v-.07c-.105.21-.247.42-.353.629l-.318-.105c-.035-.21-.07-.419-.07-.628-.248.419-2.65.593-3.18.663a37.054 37.054 0 01-4.415.454c-2.86.14-5.651-.07-8.407-.524-.67-.104-.953.908-.282 1.013z"/><path d="M4.38 11.42c1.731.733-1.271 2.48-1.837 3.073-.53.559-.812 1.257-1.06 1.99-.706 2.131-.706 4.506-.388 6.706.636 4.96 2.79 9.604 2.755 14.668 0 .663 1.025.663 1.06 0 .035-.28.035-.559.07-.873.036-.664-1.024-.664-1.059 0-.035.28-.035.559-.07.873H4.91c.035-5.832-2.826-11.176-2.932-16.903-.035-1.537.106-3.178.707-4.61.6-1.397 1.836-1.711 2.684-2.794.742-.943.742-2.48-.459-3.003-.636-.315-1.166.593-.53.873zm13.246-1.153c-.919 1.153-.212 2.375 1.06 2.934 1.448.628 2.296 1.048 3.214 2.41.742 1.152 1.483 2.305 2.12 3.527 1.377 2.724 1.66 5.553 1.977 8.556.142 1.257.318 2.55.707 3.772.459 1.432 1.59 2.933 1.06 4.47-.212.629.812.908 1.024.28.742-2.096-.919-4.191-1.343-6.182-.565-2.62-.494-5.343-1.165-7.962-.6-2.34-1.837-4.436-3.144-6.461-.459-.734-.918-1.537-1.59-2.166-.53-.489-3.638-1.78-3.143-2.41.424-.558-.353-1.291-.777-.768z"/><path d="M3.674 38.625c4.168 1.816 8.654 2.62 13.175 2.305 2.155-.14 4.31-.524 6.358-1.152 1.519-.454 4.415-1.188 5.475-2.48.707-.873.106-1.85-.848-2.235-.883-.35-2.084-.244-3.002-.28a54.3 54.3 0 00-4.133-.034c-5.475.14-10.95.978-16.354 1.99-.671.14-.389 1.153.282 1.013 4.168-.803 8.372-1.432 12.61-1.78a61.29 61.29 0 016.217-.21c.919.035 2.261-.14 3.109.14.353-.07.565.104.706.453.46.28.495.454.106.559-.141.244-1.06.524-1.271.629-6.853 3.108-14.942 3.108-21.795.104-.706-.21-1.236.699-.635.978zm.812-16.205c5.334 1.433 10.915.909 15.86-1.5-.247-.106-.53-.21-.777-.315a66.951 66.951 0 001.448 5.972c.212.733.954 2.06.848 2.793-.141.943-1.978 1.363-2.72 1.607-3.674 1.152-7.665.873-11.445.629l.53.523c.106-3.876-3.956-6.74-3.214-10.616.141-.664-.883-.943-1.025-.28-.777 4.156 3.285 6.915 3.18 10.896 0 .28.247.49.53.524 4.485.315 9.254.56 13.457-1.327 1.59-.733 2.049-1.187 1.554-2.864a92.335 92.335 0 01-2.084-8.172c-.07-.349-.494-.454-.777-.314-4.698 2.305-9.996 2.76-15.047 1.397-.671-.14-.954.873-.318 1.048z"/><path d="M13.6 25.215c-1.025.035-2.05.07-3.074.14-.565.034-.742.942-.141 1.012 2.296.35 4.486 0 6.57-1.047.6-.315.07-1.223-.53-.909-1.802.909-3.744 1.223-5.758.943-.035.35-.106.699-.141 1.013a90.486 90.486 0 003.073-.14c.707 0 .707-1.047 0-1.012zm-2.579 3.248a18.794 18.794 0 006.393-1.782c.6-.314.071-1.187-.53-.908a16.103 16.103 0 01-5.828 1.607c-.706.07-.706 1.117-.035 1.083zM3.638 3.877v6.81c0 .174.283.174.283 0v-6.81c0-.14-.283-.175-.283 0zm.636.104v6.042c0 .175.283.175.283 0V3.981c-.036-.174-.283-.174-.283 0zm.601.07v4.26c0 .175.282.175.282 0v-4.26c0-.14-.282-.175-.282 0zm9.89-.244v6.216c0 .175.283.175.283 0V3.807c0-.175-.283-.175-.283 0zm.353-.175v5.762c0 .175.283.175.283 0V3.632c0-.175-.283-.175-.283 0zm.459.175V8.87c0 .175.283.175.283 0V3.808c-.036-.175-.283-.175-.283 0zm.353.07v5.238c0 .175.283.175.283 0V3.877c-.035-.14-.282-.175-.282 0zm.53-.35v4.89c0 .174.283.174.283 0v-4.89c-.035-.14-.283-.174-.283 0zm.424-.349v5.693c0 .174.283.174.283 0V3.178c0-.14-.283-.175-.283 0zm.636.524v5.413c0 .175.283.175.283 0V3.702c-.036-.14-.283-.175-.283 0zm.353-.594v5.483c0 .175.283.175.283 0V3.108c-.035-.174-.282-.174-.282 0zm.601.245V9.22c0 .174.282.174.282 0V3.353c0-.14-.282-.175-.282 0zM2.013 19.662c.177 0 .177-.28 0-.28-.176 0-.176.28 0 .28z"/></g><defs><clipPath id="clip0"><path fill="#fff" d="M0 0h29v41H0z"/></clipPath></defs></svg>