<svg width="57" height="52" fill="none" xmlns="http://www.w3.org/2000/svg"><g clip-path="url(#clip0)" fill="#75BB43"><path d="M28.594 37.463c.094 1.135.157 1.923.188 2.68 0 .473 0 1.041-.657 1.041-.564 0-.564-.536-.596-.946v-.315c-.125-2.366-.125-2.366-2.474-2.429-.532 0-1.19.19-1.628-.63.97-1.198 2.474-.126 3.633-.852.282-1.135-.564-2.522.47-3.752.94.694.688 1.608.688 2.365-.03 1.324.502 1.797 1.786 1.608.626-.094 1.252-.094 1.879-.094.5 0 1.221-.19 1.253.536.062.851-.752.693-1.285.725-1.002.094-2.035.063-3.257.063z"/><path d="M36.768 38.346c0 3.941-4.008 7.663-8.205 7.663-4.197-.032-8.143-3.69-8.143-7.569 0-5.802 3.382-9.838 8.205-9.838 4.76.031 8.143 4.067 8.143 9.744zm-1.315.094c-.031-4.856-2.975-8.42-6.89-8.388-4.04.032-6.89 3.69-6.828 8.798.032 2.617 3.915 6.023 6.89 6.023 3.164-.063 6.86-3.532 6.828-6.433z"/><path d="M17.632 10.943C17.037 6.433 24.46.253 28 0c1.941-.126 3.601.694 5.136 1.735C35.202 3.122 36.893 4.95 38.334 7c.845 1.167 1.033 2.491.97 3.942 2.725 0 5.356.189 7.924-.063 2.882-.253 5.512.22 8.05 1.576 1.346.726 1.784 1.892 1.722 3.311a126.97 126.97 0 01-3.257 23.525c-.314 1.387-.47 2.806-.69 4.225-.532 3.88-2.599 6.086-6.357 6.843-.407.095-.908.063-1.19.316-1.88 1.64-4.103 1.356-6.295 1.356-7.924 0-15.848-.032-23.802 0-1.097 0-2.099-.158-2.945-.852-1.127-.914-2.568-.883-3.852-1.324-2.6-.883-3.977-2.807-4.416-5.33C2.443 35.004.188 25.543 0 15.83c-.032-1.482.376-2.68 1.785-3.405 2.537-1.325 5.167-1.798 8.049-1.514 2.537.252 5.136.032 7.798.032zm-15.22 15.23c0 .41-.032.663 0 .915.626 5.676 2.098 11.195 2.912 16.87.47 3.217 2.662 5.078 6.013 5.204a415.33 415.33 0 0034.325 0c3.383-.126 5.575-2.018 6.045-5.36.532-3.659 1.346-7.254 1.973-10.912.376-2.207.846-4.414.908-6.685H49.64c-.126 1.388-.032 2.649-.407 3.879-.439 1.482-1.629 1.23-2.694 1.23-1.096.031-1.722-.536-1.785-1.577-.094-1.135-.031-2.302-.031-3.627a502.996 502.996 0 00-32.352 0c0 1.23.062 2.271 0 3.312-.063 1.103-.502 1.892-1.817 1.892-1.253 0-2.505.126-2.787-1.546-.188-1.166-.282-2.365-.439-3.658-1.66.064-3.226.064-4.917.064zM28.5 24.566h25.18c.658 0 1.221.032 1.315-.914.22-2.365.627-4.73.752-7.095.063-.978.094-2.176-.97-2.839-1.316-.82-2.726-1.482-4.292-1.418-6.044.315-12.057 0-18.102.031-8.33.063-16.693.032-25.023-.031-1.723 0-3.258.378-4.792 1.166-.69.379-1.096.883-1.222 1.703-.344 2.807.376 5.456.595 8.199.063.978.47 1.23 1.378 1.23 8.394-.032 16.787-.032 25.18-.032zm-9.396-13.56h18.791c.22-.945.188-1.797-.25-2.554-1.848-3.185-4.228-5.77-7.767-7.063-.94-.347-1.817-.347-2.756 0-3.54 1.293-5.92 3.878-7.767 7.063-.439.757-.47 1.609-.25 2.555zM8.926 26.238c0 1.072-.032 2.05 0 3.027.03.788.563.851 1.19.851.72.032.908-.346.908-.977v-2.901c-.72-.221-1.347-.19-2.098 0zm36.956.031c.219 1.325-.22 2.586.281 3.753 2.036.157 2.318-.473 1.848-3.847-.626-.095-1.284-.158-2.13.094z"/><path d="M29.847 15.483c1.566-1.166 3.257-2.112 5.042-2.9.126-.064.032-.253-.125-.19a27.59 27.59 0 00-5.042 2.901c-.126.095 0 .284.125.19zm.438 1.293a55.27 55.27 0 018.362-4.32c.125-.063.062-.284-.063-.22a60.904 60.904 0 00-8.425 4.351c-.125.063 0 .284.126.19zm1.911-.157c3.194-1.766 6.389-3.5 9.615-5.266.125-.063 0-.284-.126-.19-3.194 1.766-6.389 3.5-9.615 5.267-.125.063 0 .283.126.189zm1.064 1.513a2079.9 2079.9 0 0011.056-6.748c.125-.063 0-.284-.125-.19a2079.9 2079.9 0 00-11.056 6.749c-.125.063-.031.252.126.19zm.596.378a103.1 103.1 0 0111.713-6.432c.125-.063.031-.284-.125-.19a103.1 103.1 0 00-11.713 6.434c-.126.063 0 .252.125.189zm1.879.442a118.391 118.391 0 0110.836-6.15c.125-.062.031-.283-.125-.188a118.402 118.402 0 00-10.837 6.149c-.125.063 0 .252.126.189zm.845.82a129.849 129.849 0 0113.374-7.537c.125-.063.03-.283-.126-.189a129.849 129.849 0 00-13.373 7.537c-.125.063 0 .284.126.19zm-1.503 2.05c5.105-3.248 10.429-6.18 15.91-8.704.125-.063.03-.252-.126-.189-5.48 2.523-10.773 5.456-15.91 8.704-.125.063 0 .284.126.189zm2.913-.41a226.646 226.646 0 0115.722-8.294c.125-.063.031-.284-.126-.189a267.05 267.05 0 00-15.722 8.293c-.125.032 0 .253.126.19zm.438 1.292a76.443 76.443 0 0114.219-7.883c.125-.063.063-.284-.063-.22-5.042 2.112-9.803 4.76-14.281 7.883-.125.094 0 .283.125.22zm2.317.221a306.628 306.628 0 0113.562-8.01c.125-.063 0-.283-.126-.189a347.528 347.528 0 00-13.56 8.01c-.126.063 0 .252.124.19zm.626 1.041a140.769 140.769 0 0114.188-7.79c.125-.062.031-.283-.125-.188a129.307 129.307 0 00-14.188 7.789c-.125.063 0 .252.125.189zm1.849.379l10.899-6.433c.125-.063 0-.284-.125-.19-3.633 2.145-7.266 4.29-10.9 6.433-.124.063 0 .253.126.19zm1.848-.253c3.163-1.766 6.326-3.563 9.458-5.33.125-.062 0-.283-.125-.189-3.163 1.766-6.327 3.564-9.459 5.33-.125.063 0 .252.126.189zm1.534.758a52.51 52.51 0 017.892-4.668c.126-.063.032-.284-.125-.189a52.514 52.514 0 00-7.892 4.667c-.126.063 0 .252.125.19zm3.131-.884a16.06 16.06 0 014.573-3.09c.125-.063.031-.253-.125-.19a16.567 16.567 0 00-4.635 3.154c-.063.063.094.22.188.126zm.189.631c1.096-.726 2.224-1.42 3.32-2.145.125-.094 0-.284-.125-.189-1.096.725-2.224 1.42-3.32 2.144-.125.064 0 .284.125.19zm.251.41a11.801 11.801 0 003.257-1.955c.125-.095-.063-.253-.157-.158-.94.82-2.004 1.45-3.163 1.892-.125.031-.062.284.063.22z"/><path d="M50.454 25.007a3.5 3.5 0 002.85-.82c.125-.095-.063-.252-.157-.158-.72.63-1.66.915-2.63.788-.126-.063-.22.19-.063.19z"/></g><defs><clipPath id="clip0"><path fill="#fff" d="M0 0h57v52H0z"/></clipPath></defs></svg>