<svg width="34" height="49" fill="none" xmlns="http://www.w3.org/2000/svg"><path d="M2.095 6.026c.414-.535.58-.98.331-1.649-.248-.802-1.451-.445-1.202.357.87 2.762 1.368 5.614 1.534 8.555.041.846 1.285.846 1.244 0a34.313 34.313 0 00-1.576-8.912c-.414.134-.788.223-1.202.357v.311c-.54.669.332 1.605.87.98z" fill="#95928D"/><path d="M2.758 5.358c4.395 0 8.915.267 13.31-.179 1.451-.133 7.92-.445 6.759-3.341C22.329.545 20.587.545 19.51.368 17.436.054 15.363-.035 13.29.01 8.895.1 4.582.946.436 2.417c-.54.178-.622 1.158 0 1.248.332.044.705.133 1.037.178.787.178 1.12-1.114.331-1.248-.331-.044-.663-.134-1.036-.178v1.292c3.068-1.07 6.22-1.827 9.454-2.139 1.492-.133 3.027-.223 4.56-.178.747 0 1.535.045 2.281.09.788.044 2.654-.09 3.234.4.954.802.374 1.07-.622 1.337-.829.223-1.7.4-2.529.49a36.688 36.688 0 01-4.934.312c-3.151.045-6.303 0-9.454 0-.788 0-.788 1.337 0 1.337z" fill="#95928D"/><path d="M23.283 3.174c-.041-.758-.332-1.159-.995-1.426-.373-.134-.788.223-.788.624-.041 3.43.207 6.772.705 10.159.124.846 1.327.49 1.202-.357a59.605 59.605 0 01-.663-9.802 9.637 9.637 0 01-.788.623c.042.045.042.09.083.134.042.891 1.285.891 1.244.045z" fill="#95928D"/><path d="M2.344 13.823a44.43 44.43 0 0011.651.624 37.776 37.776 0 005.473-.802c.913-.178 2.447-.178 2.986-1.159.124-.222.124-.623-.083-.801-.249-.268-.498-.312-.83-.223a.665.665 0 00-.414.802v.089c.124.846 1.327.49 1.202-.357v-.089c-.124.268-.29.535-.414.802l-.373-.133a5.256 5.256 0 01-.083-.802c-.29.534-3.11.757-3.732.846-1.7.312-3.442.49-5.183.58-3.359.178-6.635-.09-9.869-.669-.788-.134-1.12 1.158-.331 1.292z" fill="#95928D"/><path d="M4.914 14.58c2.032.936-1.493 3.164-2.156 3.922-.622.713-.954 1.604-1.244 2.54-.83 2.717-.83 5.747-.456 8.554.746 6.327 3.276 12.254 3.234 18.714 0 .847 1.203.847 1.244 0 .041-.356.041-.712.083-1.113.041-.847-1.203-.847-1.244 0-.041.356-.041.712-.083 1.113h1.244c.041-7.44-3.317-14.258-3.442-21.565-.041-1.96.125-4.055.83-5.882.705-1.782 2.156-2.183 3.151-3.564.87-1.203.87-3.164-.539-3.832-.746-.401-1.368.757-.622 1.114zm15.549-1.47c-1.078 1.47-.249 3.03 1.244 3.743 1.7.802 2.695 1.337 3.773 3.075.871 1.47 1.742 2.94 2.488 4.5 1.617 3.475 1.949 7.085 2.322 10.916.166 1.605.373 3.253.83 4.813.538 1.827 1.865 3.743 1.243 5.703-.248.802.954 1.159 1.203.357.87-2.674-1.078-5.347-1.576-7.887-.663-3.342-.58-6.817-1.368-10.16-.705-2.985-2.156-5.658-3.69-8.242-.54-.936-1.079-1.96-1.866-2.763-.622-.624-4.271-2.272-3.69-3.074.497-.713-.415-1.65-.913-.98z" fill="#95928D"/><path d="M5.038 28.616c6.261 1.827 12.813 1.159 18.618-1.916-.29-.134-.622-.267-.912-.4a91.664 91.664 0 001.7 7.619c.248.935 1.12 2.629.995 3.564-.166 1.203-2.322 1.738-3.193 2.05-4.312 1.47-8.998 1.114-13.434.802l.622.668c.124-4.946-4.644-8.6-3.774-13.545.166-.847-1.036-1.203-1.202-.357-.912 5.303 3.856 8.823 3.732 13.902 0 .357.29.624.622.669 5.266.4 10.863.713 15.798-1.694 1.866-.935 2.405-1.514 1.824-3.653a126.328 126.328 0 01-2.446-10.427c-.083-.445-.58-.58-.913-.401-5.514 2.94-11.734 3.52-17.663 1.782-.788-.178-1.12 1.114-.374 1.337zm-.995-23.66v8.689c0 .223.332.223.332 0V4.956c0-.178-.332-.223-.332 0zm.747.134v7.71c0 .222.332.222.332 0V5.09c-.042-.223-.332-.223-.332 0zm.705.089v5.436c0 .223.331.223.331 0V5.18c0-.178-.331-.223-.331 0zm11.61-.312V12.8c0 .222.332.222.332 0V4.867c0-.223-.332-.223-.332 0zm.415-.222v7.351c0 .223.331.223.331 0V4.645c0-.223-.331-.223-.331 0zm.538.222v6.46c0 .224.332.224.332 0v-6.46c-.042-.223-.332-.223-.332 0zm.415.089v6.683c0 .223.332.223.332 0V4.956c-.042-.178-.332-.223-.332 0zm.622-.446v6.239c0 .223.331.223.331 0V4.51c-.041-.179-.331-.223-.331 0zm.498-.445v7.263c0 .223.331.223.331 0V4.065c0-.178-.331-.223-.331 0zm.746.669v6.906c0 .223.332.223.332 0V4.734c-.042-.178-.332-.223-.332 0zm.414-.758v6.996c0 .222.332.222.332 0V3.976c-.041-.223-.332-.223-.332 0zm.706.312v7.486c0 .222.331.222.331 0V4.288c0-.178-.331-.223-.331 0zM2.136 25.096c.207 0 .207-.356 0-.356s-.207.356 0 .356z" fill="#95928D"/></svg>