<svg width="33" height="44" fill="none" xmlns="http://www.w3.org/2000/svg"><path d="M.042 3.585C2.26 9.752 2.492 16.823 3.31 23.318c.817 6.455 1.633 12.91 2.45 19.322.389-.04.778-.123 1.128-.164-.078-.452-.117-.904-.195-1.357-.116-.78-1.244-.452-1.127.33.077.452.116.904.194 1.356.078.699 1.245.534 1.128-.165A3560.65 3560.65 0 014.36 22.496c-.778-6.29-1.05-13.197-3.19-19.24-.271-.74-1.4-.411-1.127.329zm4.084-.945H2.843c-.74 0-.74 1.232 0 1.232h1.283c.74 0 .74-1.233 0-1.233z" fill="#FF9103"/><path d="M1.287 4.16c5.445-.945 10.89-1.726 16.373-2.26a233.14 233.14 0 017.545-.617c1.439-.082 2.722-.576 3.306 1.069.466 1.274.583 2.63.7 3.988.778 11.017 1.205 22.076 1.828 33.094l.583-.617a97.522 97.522 0 00-14.273.905c-2.256.328-4.511.698-6.728 1.192-1.09.246-3.656.246-4.278 1.398-.156.287-.078.699.194.863.04.041.078.041.117.082.272.165.661.082.817-.205 0-.041.039-.083.039-.083.35-.699-.662-1.315-1.012-.616 0 .04-.039.082-.039.082.273-.082.545-.165.817-.206-.039-.04-.078-.04-.117-.082.078.288.156.576.195.864.078-.165 1.711-.412 2.139-.494l2.917-.617a79.66 79.66 0 016.884-1.068 94.942 94.942 0 0112.328-.658c.311 0 .583-.288.583-.617l-1.05-18.87c-.155-3.083-.35-6.166-.505-9.25-.156-2.672-.078-5.467-.661-8.057-.195-.823-.584-2.508-1.245-3.084-.506-.41-.933-.287-1.633-.246-2.917.164-5.795.37-8.673.657A227.493 227.493 0 001.015 3.092c-.778.041-.467 1.192.272 1.069z" fill="#FF9103"/><path d="M4.981 16.247a56.027 56.027 0 01.078-5.714 8.996 8.996 0 01-.739.575c.934.247 1.595 1.891 1.867 2.796.155.617.933.534 1.128 0 .428-1.151 1.011-2.179 1.672-3.207a9.28 9.28 0 01-1.05-.164c.506 1.644.856 3.33 1.128 5.056.117.781 1.244.452 1.128-.329-.273-1.726-.623-3.412-1.128-5.056-.156-.535-.778-.576-1.05-.165a15.348 15.348 0 00-1.79 3.495h1.129c-.39-1.398-1.245-3.248-2.684-3.659-.389-.123-.7.206-.739.576a55.86 55.86 0 00-.078 5.714c0 .863 1.167.863 1.128.082zm4.939-6.29c.856 1.48.934 3.577 1.09 5.262.039.288.233.658.583.617 1.05-.123 2.061-.247 3.111-.329.506-.04.895-.863.312-1.15-.04 0-.078-.042-.117-.042-.661-.329-1.283.74-.583 1.069.038 0 .077.041.116.041.117-.37.195-.781.311-1.151-1.05.123-2.06.247-3.111.329l.583.617c-.194-1.933-.272-4.194-1.244-5.88-.428-.698-1.44-.04-1.05.617z" fill="#FF9103"/><path d="M11.476 12.753c.934-.165 1.906-.288 2.84-.452.505-.082.544-.905.155-1.11-.039 0-.039-.041-.078-.041-.66-.412-1.244.657-.583 1.069.039 0 .039.04.078.04.039-.37.077-.74.155-1.11-.933.165-1.905.288-2.839.453-.778.082-.467 1.274.272 1.15zm-.816-3.207c.66-.082 1.36-.164 2.022-.288.506-.082 1.128-.04 1.556-.37.622-.452.039-1.52-.584-1.068-.389.287-1.05.205-1.478.287-.505.083-1.01.124-1.516.206-.74.123-.74 1.356 0 1.233zm4.667-.74c.466 1.891.427 3.782.427 5.715 0 .78 1.167.78 1.167 0 0-2.056.04-4.03-.466-6.044-.195-.74-1.323-.41-1.128.33z" fill="#FF9103"/><path d="M16.727 12.095c.505-.123 1.01-.206 1.555-.329.311-.082.506-.452.389-.74a.553.553 0 00-.7-.411c-.506.123-1.011.205-1.556.329-.31.082-.505.452-.389.74.078.288.39.452.7.41z" fill="#FF9103"/><path d="M17.893 8.6c.04 1.974.04 3.906-.078 5.88-.038.698 1.05.863 1.128.164 0-.082.04-.165.04-.247.116-.781-1.012-1.11-1.129-.329 0 .082-.038.165-.038.247.388.041.777.123 1.127.164a59.28 59.28 0 00.078-5.878c.039-.823-1.128-.823-1.128 0zm1.907-.452c.544.946.35 2.385.427 3.495l.117 3.288c.039.823 1.089.782 1.167 0 0-.164.038-.328.038-.452.078-.78-1.088-.78-1.166 0 0 .165-.04.33-.04.453h1.168c-.04-1.48-.117-2.92-.156-4.4-.039-1.068 0-2.096-.544-3-.39-.658-1.4-.041-1.012.616z" fill="#FF9103"/><path d="M20.888 11.273a9.49 9.49 0 002.411-.33 9.022 9.022 0 00-.739-.575c-.117 1.727 1.245 3.7 3.034 3.412 1.866-.287 2.41-2.63 1.944-4.275-.544-1.809-2.256-2.919-3.967-2.179-.739.33-1.322.946-1.478 1.809-.038.37 0 .781.117 1.11.194.452.661.699.778 1.11.194.74 1.322.452 1.128-.329a2.18 2.18 0 00-.234-.534c-.35-.576-.427-.247-.272-1.193-.116-.575.117-.904.622-.945h.895c.506.164.894.617 1.128 1.069.35.74.428 2.096-.195 2.713-1.244 1.233-2.41-.699-2.372-1.809.039-.41-.389-.699-.739-.575-.7.164-1.4.287-2.1.287-.7 0-.7 1.234.039 1.234zM7.782 23.07c4.589-1.191 9.178-2.137 13.845-2.918.739-.123.428-1.315-.311-1.191-4.667.74-9.256 1.726-13.846 2.918-.739.205-.427 1.397.312 1.192zm2.994 3.824c.74 0 .74-1.232 0-1.232-.739 0-.739 1.232 0 1.232z" fill="#FF9103"/><path d="M8.637 27.347a148.975 148.975 0 0115.129-3.905c.739-.165.428-1.357-.311-1.193a148.957 148.957 0 00-15.13 3.906c-.738.247-.427 1.439.312 1.192zm2.839 4.851c3.85-1.768 7.857-2.919 11.979-3.535.739-.124.428-1.316-.311-1.193-4.24.617-8.323 1.85-12.25 3.66-.7.328-.117 1.397.582 1.068zm3.034 4.276a59.743 59.743 0 0112.095-3.412c.739-.124.427-1.316-.311-1.193-4.162.7-8.168 1.85-12.096 3.413-.7.287-.389 1.48.311 1.192zM8.132 40.09c.739 0 .739-1.232 0-1.232-.74 0-.74 1.233 0 1.233zM2.959 6.05c.739 0 .739-1.232 0-1.232-.778 0-.778 1.233 0 1.233zm24.113-2.877c.739 0 .739-1.233 0-1.233-.778 0-.778 1.233 0 1.233zm1.788 34.533c.74 0 .74-1.232 0-1.232-.738 0-.738 1.232 0 1.232z" fill="#FF9103"/></svg>