<svg width="54" height="69" fill="none" xmlns="http://www.w3.org/2000/svg"><g clip-path="url(#clip0)" fill="#FF9103"><path d="M.065 5.886c3.722 9.81 4.113 21.06 5.485 31.394 1.37 10.268 2.742 20.536 4.113 30.739.653-.065 1.306-.196 1.894-.262-.13-.72-.196-1.439-.327-2.158-.196-1.243-2.09-.72-1.893.523.13.72.196 1.44.326 2.159.13 1.111 2.09.85 1.894-.262a5383.94 5383.94 0 01-4.244-32.047C6.007 25.965 5.55 14.977 1.958 5.363c-.457-1.177-2.35-.654-1.893.523zm6.856-1.504H4.766c-1.24 0-1.24 1.962 0 1.962h2.155c1.24 0 1.24-1.962 0-1.962z"/><path d="M2.154 6.802c9.142-1.504 18.283-2.747 27.49-3.597 4.244-.393 8.423-.72 12.668-.981 2.416-.131 4.57-.916 5.55 1.7.783 2.028.98 4.186 1.175 6.344 1.306 17.528 2.024 35.121 3.069 52.65.326-.328.653-.654.98-.981-8.032-.066-15.998.392-23.964 1.438-3.787.524-7.575 1.112-11.296 1.897-1.829.392-6.138.392-7.183 2.224-.261.458-.13 1.112.326 1.373.066.066.131.066.196.131.457.262 1.11.13 1.372-.327 0-.065.065-.13.065-.13.588-1.113-1.11-2.094-1.698-.982 0 .065-.065.13-.065.13.457-.13.914-.26 1.371-.326-.065-.066-.13-.066-.196-.13.13.457.261.915.327 1.373.13-.262 2.873-.654 3.59-.785l4.898-.981c3.853-.72 7.705-1.308 11.558-1.7 6.856-.786 13.777-1.113 20.699-1.047.522 0 .979-.458.979-.981l-1.763-30.02c-.261-4.905-.588-9.81-.849-14.716-.261-4.251-.13-8.698-1.11-12.819-.326-1.308-.98-3.99-2.09-4.905C47.406 0 46.687.196 45.512.262c-4.897.261-9.729.588-14.56 1.046-9.795.916-19.524 2.158-29.254 3.793-1.306.066-.783 1.897.457 1.7z"/><path d="M8.358 26.03c-.13-3.008-.065-6.082.13-9.09-.391.326-.848.653-1.24.915 1.567.392 2.677 3.009 3.134 4.447.261.982 1.567.85 1.894 0 .718-1.83 1.697-3.466 2.808-5.101-.588-.065-1.176-.13-1.764-.262.85 2.616 1.437 5.298 1.894 8.045.196 1.243 2.09.72 1.894-.523-.457-2.747-1.045-5.429-1.894-8.045-.261-.85-1.306-.915-1.763-.261-1.24 1.7-2.22 3.531-3.004 5.559h1.894c-.653-2.224-2.09-5.167-4.505-5.821-.653-.196-1.176.327-1.241.916-.196 3.008-.261 6.017-.13 9.09 0 1.374 1.958 1.374 1.893.131zm8.292-10.006c1.437 2.354 1.568 5.69 1.829 8.371.065.458.392 1.047.98.981 1.762-.196 3.46-.392 5.223-.523.849-.065 1.502-1.373.522-1.831-.065 0-.13-.066-.196-.066-1.11-.523-2.154 1.178-.979 1.7.065 0 .13.066.196.066.196-.588.326-1.242.522-1.831-1.763.196-3.46.392-5.223.523l.979.981c-.326-3.074-.457-6.67-2.09-9.352-.718-1.112-2.415-.066-1.762.98z"/><path d="M19.263 20.471c1.567-.262 3.2-.458 4.766-.72.85-.13.915-1.438.262-1.765-.066 0-.066-.066-.131-.066-1.11-.654-2.09 1.047-.98 1.7.066 0 .066.066.131.066.066-.588.13-1.177.261-1.766-1.567.262-3.2.458-4.766.72-1.306.13-.784 2.027.457 1.831zm-1.372-5.101c1.11-.131 2.286-.262 3.396-.458.849-.13 1.893-.066 2.612-.589 1.044-.72.065-2.42-.98-1.7-.653.458-1.763.327-2.481.458-.849.13-1.698.196-2.547.327-1.24.196-1.24 2.158 0 1.962zm7.835-1.178c.784 3.009.718 6.017.718 9.091 0 1.243 1.96 1.243 1.96 0 0-3.27.065-6.41-.784-9.614-.327-1.177-2.22-.654-1.894.523z"/><path d="M28.078 19.425c.848-.197 1.697-.327 2.611-.524.523-.13.85-.719.653-1.177-.13-.523-.653-.785-1.175-.654-.849.196-1.698.327-2.612.523-.522.131-.849.72-.653 1.178.13.457.653.72 1.175.654z"/><path d="M30.037 13.865c.065 3.14.065 6.214-.131 9.353-.065 1.112 1.763 1.373 1.894.262 0-.131.065-.262.065-.393.196-1.242-1.698-1.766-1.894-.523 0 .13-.065.262-.065.392.653.066 1.306.197 1.894.262.195-3.14.26-6.213.13-9.353.066-1.308-1.893-1.308-1.893 0zm3.199-.719c.914 1.504.587 3.793.718 5.56.065 1.765.13 3.466.196 5.231.065 1.308 1.828 1.243 1.959 0 0-.261.065-.523.065-.719.13-1.243-1.828-1.243-1.959 0 0 .262-.065.523-.065.72h1.959c-.066-2.355-.196-4.644-.261-6.999-.066-1.7 0-3.335-.915-4.774-.652-1.046-2.35-.065-1.697.98z"/><path d="M35.064 18.117c1.371 0 2.742-.197 4.048-.524a15.066 15.066 0 00-1.24-.915c-.196 2.747 2.089 5.886 5.093 5.428 3.134-.458 4.048-4.186 3.264-6.802-.914-2.877-3.787-4.643-6.66-3.466-1.24.523-2.22 1.504-2.481 2.878-.065.588 0 1.242.196 1.766.326.719 1.11 1.111 1.306 1.765.326 1.178 2.22.72 1.893-.523a3.383 3.383 0 00-.391-.85c-.588-.916-.719-.392-.457-1.897-.196-.915.195-1.439 1.044-1.504h1.502c.849.262 1.502.981 1.894 1.7.587 1.178.718 3.336-.327 4.317-2.09 1.962-4.048-1.112-3.983-2.878.065-.654-.653-1.111-1.24-.915-1.176.261-2.351.457-3.526.457-1.176 0-1.176 1.963.065 1.963zm-22.005 18.77c7.705-1.896 15.41-3.4 23.245-4.643 1.241-.197.719-2.093-.522-1.897-7.836 1.177-15.54 2.747-23.245 4.644-1.241.327-.719 2.223.522 1.896zm5.028 6.083c1.24 0 1.24-1.962 0-1.962s-1.24 1.962 0 1.962z"/><path d="M14.495 43.69a261.428 261.428 0 0125.4-6.214c1.241-.262.719-2.158-.522-1.897a261.426 261.426 0 00-25.4 6.213c-1.24.393-.718 2.29.522 1.897zm4.767 7.717c6.464-2.813 13.19-4.644 20.111-5.625 1.24-.196.719-2.093-.522-1.897-7.117.981-13.974 2.943-20.569 5.821-1.175.523-.195 2.224.98 1.7zm5.094 6.802c6.595-2.486 13.386-4.317 20.307-5.429 1.24-.196.718-2.093-.522-1.897-6.987 1.112-13.713 2.944-20.308 5.429-1.175.458-.653 2.354.523 1.897zm-10.709 5.755c1.24 0 1.24-1.962 0-1.962s-1.24 1.962 0 1.962zM4.963 9.81c1.24 0 1.24-1.962 0-1.962-1.306 0-1.306 1.962 0 1.962zm40.483-4.578c1.24 0 1.24-1.962 0-1.962-1.306 0-1.306 1.962 0 1.962zM48.45 60.17c1.24 0 1.24-1.962 0-1.962s-1.24 1.963 0 1.963z"/></g><defs><clipPath id="clip0"><path fill="#fff" d="M0 0h54v69H0z"/></clipPath></defs></svg>