<svg width="51" height="32" fill="none" xmlns="http://www.w3.org/2000/svg"><path d="M20.258 20.845a26.718 26.718 0 008.297-3.21 3.586 3.586 0 00-.63-.076c.805.944 2.731 1.058 3.606.189.876-.87.63-2.267-.56-2.57v1.096c2.976-1.208 6.197-3.022 9.383-3.324 3.502-.302 7.283.756 9.068 4.269.106-.265.21-.567.316-.831-1.751.529-3.712 1.36-5.532 1.51-1.296.114-2.136-.83-3.397-.944a4.2 4.2 0 00-2.73.756c-.316.227-.526.529-.806.831-.945.982-1.89 1.322-3.15 1.7-1.401.416-3.082 1.36-4.412.756-1.05-.454-1.926-.831-3.046-.34-.91.377-1.4 1.624-2.276 1.888-.875.265-2.52-.226-3.396-.415-.945-.189-1.89-.453-2.836-.718.07.302.14.642.245.945.595-.567 1.085-.87 1.856-1.134.63-.226.35-1.322-.28-1.095-.91.302-1.611.755-2.311 1.435-.315.302-.14.831.245.945 1.505.453 3.01.83 4.586 1.02 1.016.113 2.206.453 3.081-.265.56-.453.77-1.209 1.506-1.51 1.33-.568 1.75.528 2.836.83 1.085.302 3.15-.83 4.236-1.133 1.156-.34 2.731-.491 3.607-1.473.455-.53.665-1.134 1.26-1.512.7-.415 1.68-.528 2.45-.226.526.189.946.83 1.471.982.455.151 1.156-.151 1.61-.227 1.856-.415 3.712-.944 5.533-1.51.35-.114.49-.492.315-.832-1.646-3.286-4.867-4.722-8.228-4.873-3.991-.189-7.738 1.927-11.414 3.4-.455.189-.525.944 0 1.095-.14.756-.49 1.02-1.015.87-.385 0-.735-.114-1.05-.378-.176-.19-.42-.19-.63-.076a27.392 27.392 0 01-8.053 3.098c-.7.075-.42 1.17.245 1.057z" fill="#C20D19"/><path d="M33.842 16.237c-.84 1.322.945 1.737 1.785 1.7 1.05-.038 3.151-.53 3.151-2.04 0-1.474-1.96-1.285-2.87-1.171-1.19.15-2.661.68-2.661 2.228 0 .718 1.05.718 1.05 0 0-.68.84-.906 1.33-1.02.28-.075 1.366-.302 1.681-.113.56.378-.665.793-1.015.907-.245.037-1.47-.038-1.54.075.384-.566-.526-1.133-.911-.566zm-16.21 6.988c.49 1.02.735 1.965.84 3.098.035.415.42.718.805.49.105.303.175.605.28.87-.28.075-.455.415-.35.68.21.755.35 1.398.42 2.229.036.302.21.604.526.566l9.348-.793c1.26-.113 3.676.113 3.256-1.964-.105.226-.245.453-.35.68 1.33-.378 2.346.453 3.641.34 1.33-.114 2.626-.416 3.921-.605 3.116-.491 6.197-.982 9.313-1.435.316-.038.42-.416.35-.68-.21-1.663-.98-3.211-.875-4.911.105-1.738.91-3.287 1.856-4.684.28-.416-.175-.907-.595-.832-.245.038-.49.114-.736.152-.665.15-.385 1.246.28 1.095.246-.038.49-.113.736-.151-.21-.264-.385-.567-.595-.831-.946 1.398-1.716 2.909-1.926 4.646-.245 2.04.595 3.816.875 5.818.105-.227.245-.454.35-.68-3.116.49-6.197.982-9.313 1.435-1.47.227-3.36.831-4.796.378-.98-.302-1.751-.415-2.766-.113-.28.075-.42.415-.35.68.105.49-5.217.793-5.672.83-1.961.152-3.922.34-5.882.492l.525.567c-.07-.87-.21-1.7-.455-2.531-.105.226-.245.453-.35.68 2.8-.907 1.645-4.685-1.086-2.947.28.151.525.34.806.491a10.107 10.107 0 00-.98-3.664c-.456-.605-1.366-.038-1.051.604z" fill="#C20D19"/><path d="M37.483 19.297c-.035.793-.035 1.737.526 2.342.56.566 1.575.68 2.31.642 1.646-.076 3.116-1.473 2.731-3.362-.14-.718-1.155-.416-1.015.302.28 1.284-1.015 1.964-1.996 1.927-.455 0-1.05-.038-1.33-.492-.28-.377-.21-.906-.175-1.397.035-.68-1.016-.68-1.05.038zm-11.869 2.871c-.525 1.548.98 2.53 2.206 2.417 1.26-.151 2.591-.982 2.31-2.569l-.944.454c.035.113.07.189.14.302.28.68 1.19.076.91-.567a1.169 1.169 0 00-.14-.302c-.245-.604-1.085-.15-.945.454.245 1.397-3.011 1.586-2.521.15.245-.717-.77-1.02-1.016-.34zm7.177 5.817c-.105-.302.35-.567.56-.604.246-.038.42.037.63.188.21.152.806.794.736 1.096-.14.718.875 1.02 1.015.302.21-1.095-.91-2.455-1.855-2.682-1.05-.265-2.451.756-2.101 2.002.21.68 1.225.378 1.015-.302z" fill="#C20D19"/><path d="M41.58 21.563c2.38-.529 4.656-1.398 6.862-2.53.14-.077.035-.34-.14-.228-2.171 1.134-4.447 2.003-6.793 2.531-.14 0-.07.265.07.227zm-.246 1.247a45.416 45.416 0 006.513-2.758c.14-.076.035-.34-.14-.227a46.32 46.32 0 01-6.443 2.758c-.175 0-.105.264.07.227zm.036 2.833c1.89-.944 3.816-1.889 5.707-2.795.14-.076.035-.302-.14-.227-1.89.944-3.816 1.889-5.707 2.795-.14.038 0 .302.14.227zm.525.831c1.68-.831 3.326-1.624 5.007-2.456l-.175-.188c-.035.037-.07.075-.07.113-.105.151.14.302.21.151.035-.038.07-.076.07-.113.07-.114-.07-.265-.175-.19-1.681.832-3.327 1.625-5.007 2.456-.14.038-.035.302.14.227zM10.84.03C8.493.749 3.766 3.28 8.037 5.245c3.677 1.7 8.158.982 11.974.226 1.436-.302 4.027-.528 5.112-1.775.77-.869.28-1.889-.63-2.342-1.646-.831-4.026-.831-5.812-1.02C16.056.03 13.43-.045 10.839.03c-.7.037-.7 1.17-.035 1.17 2.731-.075 5.462 0 8.193.303.875.113 1.716.227 2.556.378.525.075 1.575.075 2.03.377 1.436.983-.174 1.134-.91 1.398-.665.227-1.33.378-1.995.53-2.626.603-5.392 1.019-8.088.906-1.155-.038-3.081-.114-4.096-.87-2.206-1.661 1.47-2.757 2.626-3.097.665-.226.385-1.322-.28-1.095z" fill="#C20D19"/><path d="M6.428 3.318c.385 6.648 1.995 13.221 3.29 19.718.21 1.096.21 2.645 1.121 3.362.77.605 1.996.756 2.906.983 2.136.528 4.272.528 6.477.415.665-.038.665-1.171 0-1.133-1.995.113-3.991.15-5.952-.302-.945-.227-2.59-.416-3.08-1.436-.561-1.133-.596-3.022-.841-4.306-1.12-5.704-2.486-11.446-2.836-17.264-.07-.755-1.12-.793-1.085-.037zm17.996-.567c.28 5.175.385 10.2.175 15.375-.035.717 1.015.717 1.05 0 .21-5.176.14-10.2-.175-15.375-.07-.718-1.12-.718-1.05 0z" fill="#C20D19"/><path d="M7.933 8.304c-2.556-2.569-5.252 2.607-5.427 4.91-.14 1.814.596 3.514 1.716 4.836.665.793 1.505 1.436 2.346 1.964.7.454 2.205.794 2.766 1.436.07-.302.14-.642.245-.944-.035 0-.07.037-.105.037.21.114.42.265.63.378v-.075c-.175-.718-1.19-.416-1.015.302v.075c.07.303.385.491.63.378.035 0 .07-.038.105-.038.385-.113.49-.642.245-.944-.595-.68-1.68-.869-2.451-1.322-1.12-.605-2.17-1.398-2.941-2.494-.91-1.246-1.365-2.757-1.015-4.344.21-1.02 1.995-4.91 3.536-3.4.49.53 1.225-.264.735-.755z" fill="#C20D19"/><path d="M6.708 5.244C2.82 6.755-.47 10.004.055 14.877c.56 5.326 6.197 8.008 10.084 10.237.595.34 1.12-.642.525-.982-3.116-1.776-7.948-4.004-9.243-7.82-1.61-4.76 1.715-8.5 5.567-9.973.63-.226.35-1.322-.28-1.095zm1.75-.755c2.486-1.323 5.462-1.21 8.193-1.247 2.66-.038 5.322 0 7.983.151.175 0 .175-.265 0-.302a110.195 110.195 0 00-9.348-.076c-2.381.076-4.762.113-6.933 1.247-.175.076-.035.302.105.227z" fill="#C20D19"/><path d="M10.314 3.77a27.523 27.523 0 013.956-.302c.175 0 .175-.302 0-.302-1.33.038-2.66.151-3.956.34-.175 0-.175.302 0 .264zm-.98.454a95.468 95.468 0 005.671-.416c.175 0 .175-.302 0-.302-1.89.19-3.78.34-5.671.416-.14.037-.14.302 0 .302zm0 .566c2.45-.075 4.901-.264 7.352-.49.175 0 .175-.302 0-.302a96.13 96.13 0 01-7.352.49c-.14.038-.14.302 0 .302zm2.206.718c1.61.037 3.22 0 4.831-.076.175 0 .175-.301 0-.301-1.61.075-3.221.113-4.831.075-.176.038-.176.302 0 .302zm8.753 4.798c.175 3.324.315 6.61.315 9.897 0 .19.245.19.28 0 0-3.324-.105-6.61-.315-9.897-.035-.189-.28-.189-.28 0zm.98-1.7c.385 3.777.56 7.442.385 11.22 0 .188.245.188.28 0 .21-3.816 0-7.443-.385-11.22-.035-.189-.316-.189-.28 0zm1.155-.756c.77 4.043.98 7.48.28 11.56-.035.189.21.264.245.075.7-4.117.49-7.63-.28-11.71-.035-.151-.28-.076-.245.075zm1.506-1.813c.28 4.382.455 8.65.175 13.033 0 .189.245.189.28 0 .28-4.382.105-8.65-.175-13.033-.035-.189-.28-.189-.28 0z" fill="#C20D19"/></svg>