<svg width="68" height="39" fill="none" xmlns="http://www.w3.org/2000/svg"><g clip-path="url(#clip0)" fill="#C20D19"><path d="M27.228 26.063a37.532 37.532 0 0011.145-4.013 5.163 5.163 0 00-.846-.095c1.081 1.18 3.668 1.322 4.843.236 1.176-1.086.847-2.833-.752-3.21v1.369c3.997-1.51 8.324-3.777 12.603-4.155 4.703-.378 9.782.944 12.18 5.335.14-.33.282-.708.423-1.038-2.351.66-4.985 1.7-7.43 1.888-1.74.142-2.869-1.038-4.562-1.18a5.955 5.955 0 00-3.668.944c-.423.284-.705.661-1.081 1.039-1.27 1.227-2.54 1.652-4.233 2.125-1.88.519-4.138 1.7-5.925.944-1.41-.567-2.586-1.039-4.091-.425-1.223.472-1.881 2.03-3.057 2.36-1.176.331-3.386-.283-4.562-.519-1.27-.236-2.539-.566-3.809-.897.094.378.188.803.33 1.18.799-.708 1.457-1.085 2.492-1.416.846-.283.47-1.652-.376-1.369-1.223.378-2.163.944-3.104 1.794-.423.378-.188 1.039.33 1.18 2.021.567 4.043 1.04 6.16 1.275 1.363.142 2.962.567 4.138-.33.752-.567 1.035-1.511 2.022-1.889 1.787-.708 2.351.661 3.81 1.039 1.457.378 4.232-1.039 5.69-1.416 1.551-.425 3.667-.614 4.843-1.842.611-.66.894-1.416 1.693-1.889.94-.519 2.257-.66 3.292-.283.705.236 1.27 1.039 1.975 1.228.611.189 1.552-.19 2.163-.284 2.493-.519 4.985-1.18 7.43-1.888.47-.142.659-.614.424-1.039-2.21-4.108-6.537-5.902-11.052-6.09-5.36-.237-10.392 2.407-15.33 4.249-.611.236-.706 1.18 0 1.369-.188.944-.659 1.275-1.364 1.086-.517 0-.988-.142-1.41-.472-.236-.236-.565-.236-.847-.095a38.494 38.494 0 01-10.816 3.872c-.94.094-.565 1.464.329 1.322z"/><path d="M45.474 20.302c-1.128 1.653 1.27 2.172 2.399 2.125 1.41-.047 4.232-.66 4.232-2.55 0-1.84-2.633-1.605-3.856-1.463-1.6.189-3.574.85-3.574 2.786 0 .897 1.41.897 1.41 0 0-.85 1.13-1.133 1.788-1.275.376-.095 1.834-.378 2.257-.142.752.472-.894.992-1.364 1.133-.33.048-1.975-.047-2.07.095.518-.709-.704-1.417-1.222-.709zm-21.773 8.735c.659 1.275.988 2.456 1.13 3.872.046.52.563.897 1.08.614.142.378.236.755.377 1.086-.376.094-.611.52-.47.85.282.944.47 1.747.564 2.785.047.378.282.756.705.709l12.556-.992c1.693-.142 4.938.142 4.374-2.455-.141.283-.33.566-.47.85 1.787-.472 3.15.566 4.89.425 1.787-.142 3.527-.52 5.267-.756 4.185-.614 8.324-1.227 12.51-1.794.422-.047.564-.52.47-.85-.283-2.077-1.317-4.013-1.176-6.138.14-2.172 1.223-4.107 2.492-5.854.376-.52-.235-1.134-.8-1.04-.328.048-.658.142-.987.19-.893.188-.517 1.558.376 1.369.33-.047.659-.142.988-.189-.282-.33-.517-.708-.8-1.039-1.27 1.747-2.304 3.636-2.586 5.808-.33 2.55.8 4.769 1.176 7.271.14-.283.329-.567.47-.85-4.185.614-8.324 1.228-12.509 1.794-1.975.284-4.515 1.039-6.443.472-1.316-.377-2.35-.519-3.715-.141-.376.094-.564.52-.47.85.141.614-7.007.991-7.618 1.038-2.634.19-5.267.425-7.9.614l.705.709a14.482 14.482 0 00-.611-3.164c-.142.283-.33.567-.47.85 3.761-1.133 2.21-5.855-1.459-3.683.377.189.706.425 1.082.614a11.952 11.952 0 00-1.317-4.58c-.611-.756-1.834-.047-1.41.755z"/><path d="M50.366 24.127c-.047.992-.047 2.172.705 2.928.752.708 2.116.85 3.104.802 2.21-.094 4.185-1.841 3.668-4.202-.188-.897-1.552-.52-1.364.378.376 1.605-1.364 2.455-2.68 2.408-.612 0-1.411-.047-1.788-.614-.376-.472-.282-1.133-.235-1.747.047-.85-1.363-.85-1.41.047zm-15.942 3.589c-.706 1.935 1.316 3.163 2.962 3.021 1.693-.188 3.48-1.227 3.104-3.21l-1.27.566c.047.142.094.236.188.378.377.85 1.6.094 1.223-.708a1.418 1.418 0 00-.188-.378c-.33-.755-1.458-.189-1.27.567.33 1.747-4.044 1.983-3.386.188.33-.897-1.034-1.274-1.363-.424zm9.639 7.271c-.14-.378.47-.709.753-.756.329-.047.564.047.846.236.282.19 1.082.992.988 1.37-.188.897 1.175 1.274 1.364.377.282-1.369-1.223-3.069-2.493-3.352-1.41-.33-3.292.944-2.821 2.502.282.85 1.645.473 1.363-.377z"/><path d="M57.701 25.307a42.316 42.316 0 006.678-2.55c.188-.094.047-.424-.188-.283-2.117 1.04-4.327 1.842-6.631 2.503-.188.047-.094.378.141.33zm-1.834 1.653c3.198-.661 6.255-1.747 9.218-3.163.188-.095.047-.425-.188-.284-2.916 1.417-5.973 2.503-9.124 3.164-.188 0-.094.33.094.283zm-.329 1.558a63.551 63.551 0 008.747-3.447c.188-.094.047-.424-.188-.283a64.77 64.77 0 01-8.653 3.447c-.235 0-.141.33.094.283zm1.176.567c2.257-.85 4.467-1.794 6.677-2.739.189-.094.047-.378-.188-.283-2.163.944-4.373 1.841-6.583 2.738-.235 0-.142.378.094.284zm-.141 1.652c2.962-1.133 5.83-2.36 8.652-3.777.189-.094.047-.425-.188-.283-2.774 1.416-5.643 2.644-8.559 3.73-.188.047-.093.425.095.33zm-.988 1.323a550.76 550.76 0 017.666-3.495c.188-.094.047-.377-.188-.283a553.198 553.198 0 01-7.666 3.494c-.188.047 0 .378.188.283zm.705 1.038c2.258-1.039 4.468-2.03 6.726-3.07l-.235-.235c-.047.047-.094.094-.094.142-.142.188.188.377.282.188.047-.047.094-.094.094-.141.094-.142-.094-.33-.236-.236-2.257 1.038-4.467 2.03-6.724 3.069-.188.047-.047.377.188.283zm.471 1.086l6.349-2.833c.188-.094.047-.378-.188-.283L56.573 33.9c-.188.047 0 .377.188.283zm1.834.047a66.073 66.073 0 017.995-2.644c.235-.047.14-.378-.095-.33-2.727.708-5.36 1.558-7.994 2.644-.188.047-.094.377.094.33zM14.578.047c-3.15.897-9.5 4.06-3.762 6.516 4.938 2.125 10.957 1.227 16.083.283 1.928-.378 5.408-.66 6.866-2.219 1.034-1.086.376-2.36-.847-2.927C30.708.66 27.51.66 25.112.425 21.585.047 18.058-.047 14.578.047c-.94.047-.94 1.464-.047 1.464 3.668-.095 7.336 0 11.004.378 1.176.141 2.304.283 3.433.472.705.094 2.116.094 2.727.472 1.929 1.227-.235 1.416-1.222 1.747-.894.283-1.787.472-2.68.66-3.528.756-7.243 1.276-10.864 1.134-1.552-.047-4.138-.142-5.502-1.086-2.962-2.077 1.975-3.447 3.527-3.872.894-.283.518-1.652-.376-1.369z"/><path d="M8.653 4.155c.517 8.31 2.68 16.525 4.42 24.646.282 1.37.282 3.305 1.505 4.203 1.034.755 2.68.944 3.903 1.227 2.869.661 5.737.661 8.7.52.893-.048.893-1.464 0-1.417-2.68.142-5.361.189-7.995-.378-1.27-.283-3.48-.52-4.138-1.794-.752-1.416-.8-3.777-1.129-5.383-1.504-7.129-3.338-14.306-3.809-21.577-.094-.944-1.505-.992-1.457-.047zm24.172-.708c.376 6.468.517 12.748.235 19.216-.047.898 1.364.898 1.41 0 .283-6.468.189-12.748-.234-19.216-.094-.897-1.505-.897-1.411 0z"/><path d="M10.675 10.387c-3.433-3.21-7.054 3.258-7.289 6.139-.188 2.266.8 4.39 2.304 6.043.894.992 2.023 1.794 3.151 2.455.94.567 2.963.992 3.715 1.794.094-.377.188-.802.33-1.18-.047 0-.095.047-.142.047.283.142.565.33.847.473v-.095c-.235-.897-1.599-.52-1.364.378v.094c.094.378.517.614.847.472.047 0 .094-.047.14-.047.518-.142.66-.803.33-1.18-.8-.85-2.257-1.086-3.292-1.653-1.505-.755-2.916-1.747-3.95-3.116-1.223-1.558-1.834-3.447-1.364-5.43.282-1.275 2.68-6.138 4.75-4.25.658.662 1.646-.33.987-.944z"/><path d="M9.029 6.563C3.809 8.45-.611 12.512.094 18.603c.752 6.657 8.323 10.01 13.543 12.795.8.425 1.505-.802.706-1.227-4.186-2.22-10.675-5.005-12.415-9.774-2.163-5.95 2.304-10.624 7.477-12.465.847-.283.47-1.653-.376-1.37zm2.351-.944c3.34-1.653 7.337-1.511 11.005-1.559 3.574-.047 7.148 0 10.722.19.235 0 .235-.331 0-.378a159.08 159.08 0 00-12.556-.095c-3.198.095-6.396.142-9.311 1.558-.236.095-.047.378.14.284z"/><path d="M13.873 4.722a39.658 39.658 0 015.314-.378c.235 0 .235-.378 0-.378a49.375 49.375 0 00-5.314.425c-.236 0-.236.378 0 .33zm-1.317.566c2.54-.094 5.079-.283 7.618-.52.236 0 .236-.377 0-.377-2.539.236-5.079.425-7.618.52-.188.046-.188.377 0 .377zm0 .708c3.292-.094 6.584-.33 9.876-.614.235 0 .235-.377 0-.377-3.292.33-6.584.519-9.876.613-.188.048-.188.378 0 .378zm2.962.897c2.163.048 4.327 0 6.49-.094.235 0 .235-.378 0-.378-2.163.095-4.327.142-6.49.095-.235.047-.235.377 0 .377zm11.757 5.997c.236 4.155.424 8.262.424 12.37 0 .236.329.236.376 0 0-4.155-.141-8.263-.423-12.37-.047-.236-.377-.236-.377 0zm1.317-2.125c.517 4.721.752 9.301.517 14.023 0 .236.33.236.376 0 .283-4.769 0-9.302-.517-14.023-.047-.236-.423-.236-.376 0zm1.551-.945c1.035 5.053 1.317 9.35.377 14.449-.048.236.282.33.329.094.94-5.146.658-9.537-.377-14.637-.047-.189-.376-.094-.329.095zm2.023-2.266c.376 5.477.611 10.813.235 16.29 0 .236.33.236.376 0 .377-5.477.141-10.813-.235-16.29-.047-.236-.376-.236-.376 0z"/></g><defs><clipPath id="clip0"><path fill="#fff" d="M0 0h68v39H0z"/></clipPath></defs></svg>