<svg width="43" height="84" fill="none" xmlns="http://www.w3.org/2000/svg"><g clip-path="url(#clip0)" fill="#FF9103"><path d="M34.875 74.721c1.077-3.9 1.795-7.844 3.007-11.699 1.257-4.079 2.11-8.337 3.098-12.505.942-3.945 2.334-8.83 1.75-13.134.135-.941.18-1.883.09-2.913-.045-.583-.225-1.255-.584-1.749.045 0 .09 0 .09-.044l.135-.135.134-.269c.853-1.748.404-4.079-1.032-5.468-2.738-2.555-6.239-4.348-8.304-7.576-.27-1.12-.18-2.151.718-3.317.853-1.21 2.155-2.151 3.053-3.317 1.256-1.613 1.66-3.54 1.391-5.513C37.793 2.734 33.349.134 29.22 0c-4.4-.135-7.541 3.496-9.157 7.172-.763 1.748-.898 3.586-.494 5.423.225 1.031.763 1.973 1.212 2.914.314.628.718 1.255 1.122 1.883.135.224.315.717.404 1.255-.18.493-.538.896-1.032 1.076l-.404.134c-.853.134-1.75.224-2.2.628-.448.09-.897.224-1.39.313-2.02.359-3.771.404-5.477 1.614-.718.493-1.975 1.255-1.93 2.286.045.538.539 1.12 1.212 1.614-.763.313-1.436.762-1.93 1.658-1.257 2.107-1.706 3.99-2.469 6.275-1.705 5.2-2.558 10.938-3.635 16.272C1.929 56.118.987 61.677.134 67.326c-.628 4.168.449 8.964 3.995 11.25 3.411 4.438 11.266 5.065 16.069 5.334 6.867.449 12.747-2.375 14.677-9.189zM21.68 20.888c.045 0 .045-.045.09-.045 0 0 .045.045.09.045.044.045.134.045.179.09.09.044.18 0 .27-.045.628-.583.942-1.21 1.076-1.838.09-.448.09-.896-.044-1.3-.315-1.39-1.302-2.869-1.84-4.258C19.523 8.56 23.52 2.376 28.68 1.614c2.738-.404 5.566 1.12 7.182 3.272 2.064 2.779.897 5.782-1.167 8.068-1.212 1.39-2.47 2.465-2.963 4.258-.494 1.704 0 2.51.763 4.035.225.448.718.358.988.044.359.673.763 1.3 1.212 1.793-.898 2.017-5.476 1.3-7.272 1.166-2.379-.18-4.623-1.166-6.867-1.928-.673-.224-.853-.448-.853-.717.628-.18 1.302-.403 1.975-.717zm-5.745 1.569a28.596 28.596 0 002.693-.538c.628 1.21 2.648 1.703 3.68 2.151 2.738 1.166 5.431 1.57 8.439 1.614 1.885 0 3.77-.134 4.937-1.703l.404.403c1.706 1.569 4.982 3.227 5.117 5.782.045.09.09.18.09.314 0 .224-.045.448-.18.628-.045.134-.045.269-.134.448-.18.045-.36.09-.54.18a.95.95 0 01.225.134c-.449.18-.942.269-1.391.314-.27.044-.584.044-.853.09v-.136c-3.86.583-7.99 0-11.94-.537-4.757-.628-9.874-2.465-13.645-5.603 0-.135-.09-.27-.224-.224-.224-.224-.449-.404-.673-.628-1.392-1.3 3.187-2.555 3.995-2.69zm6.463 59.84c-3.232.224-6.508-.224-9.65-1.076-3.142-.852-6.733-1.883-8.439-4.93-.18-.314-.449-.404-.718-.36-.538-.761-1.032-1.568-1.391-2.554-.808-2.286-.539-5.11-.18-7.396.808-4.707 1.481-9.458 2.424-14.12.943-4.617 2.11-9.278 2.828-13.895.359-2.197.763-4.662 1.526-6.769.673-1.882 1.66-3.137 3.007-4.303.673.449 1.302.807 1.706 1.076 4.443 2.959 9.291 4.393 14.543 5.065 3.456.404 7.002.852 10.458.314a5.06 5.06 0 001.167 0 6.283 6.283 0 001.526-.359c.314.762.18 2.197.224 2.78.045 1.165-.448 2.24-.359 3.361 0 .224.18.404.36.493v.135c-.27 3.227-.943 6.454-1.706 9.637-.763 3.272-1.616 6.544-2.424 9.816-.808 3.272-2.11 6.41-2.783 9.727-.628 3.003-1.302 5.962-2.693 8.74-1.706 3.183-6.15 4.394-9.426 4.618z"/><path d="M24.193 7.934c.045-.18-.18-.27-.224-.135-.18.449-.584.718-.898 1.076-.314.359-.494.807-.718 1.21-.225.404.449.718.628.314.18-.493.314-.986.539-1.434.18-.404.538-.628.673-1.031zm-.179 1.793c-.404.493-.808.941-1.033 1.524-.134.314.315.538.494.224.314-.493.628-.941.943-1.434.134-.225-.18-.538-.404-.314zm.224 1.658c-.135-.313-.584-.179-.494.18.09.358-.18.717-.359.986-.224.358.404.672.584.313.224-.493.449-.94.269-1.479zm11.76 18.647c-3.636.314-7.316.09-10.907-.493-2.065-.314-4.13-.941-6.104-1.614-1.975-.717-3.367-2.062-5.117-3.182-.135-.09-.314.134-.18.269 1.392 1.21 2.38 2.51 4.13 3.182 2.02.762 4.174 1.255 6.328 1.659 3.77.717 8.035.941 11.85.493.18-.09.18-.359 0-.314zM8.888 77.456c-.045-.717.18-1.48-.225-2.152-.18-.269-.583-.045-.494.224.18.359.09.718 0 1.076-.09.404-.044.672.135 1.031.18.27.628.09.584-.18zm1.48-.046c-.09-.447.045-.85-.134-1.254-.09-.224-.404-.135-.36.134.09.359-.09.717-.09 1.076 0 .359.046.717 0 1.031-.089.359.45.538.63.224.134-.448 0-.762-.046-1.21zm1.527.539c0-.18 0-.359.09-.538.18-.269-.27-.583-.449-.314-.27.359-.224.717-.27 1.166-.044.313.36.448.494.179.09-.135.09-.314.135-.493zm1.975.717c-.045-.09-.09-.224-.135-.314-.134-.448-.853-.224-.673.224l.135.314c.134.448.852.224.673-.224zm1.077.627c-.18-.09-.314.18-.135.27.18.089.315-.18.135-.27z"/><path d="M31.24 75.17a46.309 46.309 0 001.616-4.796c.539-1.838 1.167-3.676 1.616-5.514.494-1.927.718-3.855 1.212-5.782.628-2.376 1.077-4.751 1.84-7.127.135-.448.09-.986.18-1.48.135-.492.359-.985.494-1.523.09-.359.224-.762.224-1.166 0-.403-.224-.896-.135-1.3.045-.224-.134-.313-.314-.313.135-.673.27-1.39.36-2.062.089-.135.224-.314.313-.448.045-.135-.134-.18-.18-.09 0 .045-.044.045-.044.09.045-.224.09-.449.09-.673.045-.224.09-.493.09-.762.18-.224.269-.448.224-.762 0-.045-.045-.09-.135-.09.135-1.075.225-2.24 0-3.182-.18-.717-.538-1.613-1.167-2.062-.628-.448-1.526.27-2.064.538-.09.045-.135.135-.135.269-.225.18-.404.359-.584.583-.493.538-1.077.986-1.48 1.613-.046.09.089.18.179.135.224-.27.494-.538.718-.807-.673 1.12-1.167 2.42-1.526 3.72-.404-.224-.853-.403-1.302-.627a2.19 2.19 0 00-.494-.18c.09-.627.18-1.21.225-1.837.045-1.166.359-2.869-.629-3.72-.403-.36-.987-.404-1.615-.314 0-.045-.09-.09-.135-.045l-.09.09c-.449.09-.898.224-1.301.313-.45 0-.853.09-1.257.27-.539.178-.898.492-1.212.896-.763.762-1.302 1.793-1.706 2.779-.045.09-.045.134-.09.224h-2.513c.224-1.434.27-2.914-.27-4.124.135-.09 0-.269-.09-.18-.269-.537-.672-1.03-1.256-1.478-1.032-.762-2.334-.762-3.546-.538-.314-.045-.584 0-.898.044h-.045c.09-.09.225-.179.315-.268.134-.135 0-.359-.135-.224-.314.268-.673.537-.987.806-.18.09-.36.224-.494.359-.494.269-.898.672-1.212 1.076-2.2 1.882-4.31 3.855-6.15 6.006-.179.18.135.448.27.269a60.955 60.955 0 015.386-5.379c-.224.448-.404.942-.628 1.524-.045.045 0 .135 0 .18l-.404.403c-.494.493-.988.986-1.437 1.48-.808.223-1.48.627-1.436 1.254-.045 0-.135 0-.135.045-.044.224-.134.403-.18.627-.583.673-1.166 1.3-1.75 1.973-.134.179.09.403.27.224.449-.493.897-.941 1.301-1.434a2.62 2.62 0 00-.09.582 9.806 9.806 0 00-1.122 1.659c-.09.179.18.313.315.134.224-.314.449-.672.673-.941a8.23 8.23 0 01-.18 1.03c-.628.673-1.211 1.346-1.705 2.152-.135.18.18.359.314.135.404-.628.808-1.166 1.302-1.703l-.135.806a28.931 28.931 0 00-1.66 1.659c-.18.18.134.448.313.269.404-.448.808-.897 1.257-1.3-.045.269-.134.583-.18.852a97.624 97.624 0 01-2.199 2.017c-.134.134.045.313.18.224.673-.493 1.257-1.076 1.885-1.614a9.69 9.69 0 00-.224 1.12c-.719.583-1.392 1.256-1.84 2.018-.09.18.179.314.313.134.36-.582.898-1.03 1.392-1.434-.09.314-.135.627-.224.941-.494.493-.988.942-1.437 1.48-.134.134.09.358.225.224.359-.314.718-.673 1.032-.987-.045.135-.045.27-.09.404-.09.269-.134.538-.18.807-.403.403-.807.762-1.211 1.12-.135.135.09.359.18.224.313-.269.583-.538.897-.806-.09.627-.18 1.21-.27 1.837a24.385 24.385 0 00-1.84 1.883c-.134.134.09.359.225.224.494-.493.987-.986 1.526-1.48-.045.225-.09.494-.135.718-.09.403-.09.852-.134 1.255a36.09 36.09 0 00-1.706 1.972c-.09.135.09.314.224.18.45-.583.943-1.121 1.482-1.704 0 .224 0 .448-.045.673-.045.493-.135.986-.225 1.479-.493.493-.942 1.03-1.391 1.569-.135.134.09.358.224.224l1.078-1.21c-.045.313-.09.582-.135.896-.045.269-.09.583-.135.852-.628.627-1.212 1.3-1.795 1.972-.135.134.09.314.224.18l1.481-1.614c-.134.762-.224 1.524-.359 2.286-.314.358-.583.672-.897 1.03-.09.135.09.314.18.18.224-.224.403-.448.628-.672-.045.537-.135 1.12-.135 1.658-.494.493-.943 1.03-1.392 1.569-.09.09.09.269.18.134.404-.493.808-.941 1.212-1.39-.045.673 0 1.345.045 1.973-.36.403-.673.762-1.033 1.165-.134.135.09.314.225.18.27-.27.583-.583.853-.897.045.359.09.717.18 1.031 0 .045.044.09.044.135l-.942 1.075c-.135.135.09.359.224.224.27-.313.583-.582.853-.896.134.404.359.717.583 1.076-.359.403-.718.852-1.122 1.3-.134.179.09.358.225.224.359-.404.718-.807 1.032-1.21.27.313.539.627.853.94-.27.36-.494.718-.674 1.121-.09.18.18.27.27.135.18-.359.404-.717.628-1.031.045.045.09.09.18.135l.404.268c-.27.314-.584.628-.898.986-.135.18.09.404.27.225a9.92 9.92 0 00.897-1.031c.224.134.494.269.763.403a6.215 6.215 0 00-1.032 1.39c-.09.179.18.269.269.134.27-.493.628-.941 1.032-1.39.09.045.18.135.27.18.224.18.404.314.628.403-.314.404-.628.807-.853 1.3-.09.18.18.314.314.135.27-.449.584-.852.898-1.255.27.134.584.269.943.358l.404.135a9.283 9.283 0 00-1.526 1.972c-.09.134.134.314.224.18.539-.718 1.122-1.346 1.75-2.018.494.135.943.314 1.437.493-.808.807-1.706 1.48-2.29 2.466-.134.179.18.358.315.134.584-.986 1.436-1.703 2.244-2.465l.045-.045c.27.09.539.18.853.269-.045.09-.135.134-.18.224-.493.493-.763 1.165-1.391 1.569-.18.09-.045.358.135.314.493-.18.763-.628 1.032-1.076.224-.314.449-.628.718-.897.314.09.629.224.988.314h.044a4.83 4.83 0 00-.807 1.076c-.09.134.134.314.269.18a11.6 11.6 0 01.987-1.121c.404.09.763.179 1.167.269-.134.179-.314.358-.404.582-.09.18.18.359.315.18.18-.27.359-.494.583-.673l1.885.269c-.134.18-.224.359-.314.583-.045.134.135.224.225.09.09-.225.224-.449.359-.628.583.09 1.167.134 1.75.224 2.783.359 6.419.493 8.843-1.12 1.256-.897 1.84-2.376 2.378-3.676zm6.24-29.136a61.737 61.737 0 01-1.078 4.124c-.494.807-1.795 1.166-2.603 1.39-.18.044-.09.313.09.269.718-.18 1.75-.538 2.378-1.121-.404 1.39-.807 2.734-1.167 4.124-.09.314-.134.627-.224.941-.628.224-1.167.717-1.706 1.12-.134.09 0 .314.135.225.494-.404.943-.807 1.526-1.076-.449 1.838-.898 3.63-1.391 5.468-.135.135-.225.27-.45.314-.134.045-.089.27.09.224l.27-.134c-.27 1.076-.539 2.151-.853 3.183a207.75 207.75 0 00-1.257 5.065c-.18.851-.404 1.658-.718 2.465-.27.672-.583 2.107-1.436 2.241-.673.09-1.436-.493-1.885-.896-.943-.852-.539-1.973-.36-3.004.315-1.568.36-3.227.629-4.84.539-3.407 1.526-6.724 2.29-10.13.628-2.78 1.121-5.559 1.795-8.338.359 0 .718.045 1.122.045.583 0 1.66 0 2.558-.224 0 .044.09.09.135.09.718-.494 1.705-.807 2.11-1.525zm-2.29.224c.315-.224.674-.403 1.033-.582.044.09.044.134.044.224.135 1.165-2.154 1.21-2.872 1.255a10.84 10.84 0 01-1.706 0c.09-.404.225-.762.314-1.166.315-1.03.539-2.151.853-3.272.673.314 1.302.718 1.885 1.166.45.358 1.078.941 1.392 1.524-.36.18-.763.403-1.077.627-.135.09 0 .314.134.224zm2.514-1.434a9.167 9.167 0 01-.225 1.076h-.044c-.225.403-.674.717-1.123.941.135-.18.27-.358.315-.583.044-.269.044-.538-.045-.762.404-.224.763-.403 1.122-.672zm-2.244-7.575l.09-.09c.09.09.179.135.269.045.583-.269 1.391-.807 1.84-.09.135.225.27.449.359.673-.494.941-1.616 1.434-2.469 2.062-.134.134 0 .358.135.224.763-.673 1.84-1.166 2.379-2.062.045.134.09.314.09.448-.808 1.21-2.065 2.062-2.783 3.317-.09.134.135.269.224.134.763-1.12 1.84-2.061 2.604-3.182.044.224.044.448.044.672 0 1.031-.09 2.062-.224 3.093-.135.135-.314.224-.404.359-.539.493-1.122.941-1.706 1.3-.18.134 0 .358.18.269a21.832 21.832 0 001.885-1.57c-.09.539-.18 1.032-.224 1.57-.36.313-.808.538-1.257.762-.135-.27-.36-.538-.628-.807-.898-.897-1.796-1.569-2.828-2.107.493-1.793 1.167-3.63 2.424-5.02zm-3.367 5.11l.539.269c-.225.806-.449 1.658-.673 2.42-.225.717-.404 1.39-.584 2.107-.494 0-.987-.045-1.526-.09.135-.672.27-1.3.359-1.972.135-.852.36-1.748.539-2.645l.942.404c.045.045.09-.045.045-.09-.314-.134-.628-.314-.943-.403.045-.135.045-.314.09-.449.404.135.808.27 1.212.449zm-6.508 10.354c.942-.627 1.84-1.345 2.872-1.793-.044.135-.044.314-.09.448-.09.404-.179.807-.314 1.255-.448.224-.807.583-1.211.897-.584.448-1.257.672-1.886 1.03-.134.09 0 .27.135.18.539-.314 1.122-.583 1.66-.941.45-.27.764-.717 1.213-.986-.135.582-.27 1.12-.404 1.703-.673.493-1.436.897-2.155 1.39-.045.044-.09.09-.045.179.045.09.045.18.09.269.045.134.314.09.27-.045 0-.09-.045-.135-.045-.18.583-.448 1.212-.806 1.795-1.21-.314 1.435-.673 2.914-.987 4.348-.225.18-.629.27-.853.449-.36.268-.674.582-1.078.806-.134.09-.044.27.09.18.45-.224.808-.628 1.212-.942.18-.134.404-.179.584-.269-.27 1.166-.539 2.376-.808 3.542-.45 1.837-.763 3.675-1.078 5.513-.269 1.703-.583 3.765-1.615 5.2-.763 1.075-2.155 1.075-3.277.672-1.077-.404-1.616-1.076-1.795-2.197-.27-1.793-.404-3.406-.225-5.244.404-3.81 1.392-7.575 2.155-11.296.628-3.048 1.032-6.096 1.75-9.144 2.155.404 4.264.718 6.419.897a5.175 5.175 0 01-1.84 1.255c-.225.09-.09.448.134.358.808-.313 1.526-.896 2.065-1.568.27.044.538.044.808.09-.18 1.075-.45 2.15-.674 3.227-1.122.358-2.064 1.165-3.052 1.748-.09.045.045.269.18.18zm2.917-5.917c-.044.045-.044.09-.09.135-.673-.09-1.301-.135-1.974-.224.449-.449 1.032-.762 1.616-1.076.628-.314 1.122-.852 1.66-1.21-.134.851-.314 1.748-.449 2.6-.18 0-.404-.045-.583-.045v-.045c.18-.135-.09-.27-.18-.135zm1.302-2.555c-.628.359-1.167.897-1.795 1.21-.629.314-1.347.628-1.796 1.21-1.481-.223-2.962-.447-4.399-.761.135-.583.27-1.166.45-1.748.224-.762.493-1.838.852-2.914h.09l.538-.403c.404.044.808.09 1.212.179-.359.314-.718.672-1.032.986-.135.135.09.314.224.18.404-.36.808-.763 1.212-1.121.18.045.315.045.494.09.225.044.404.09.629.134-.45.314-.853.627-1.302.986-.135.135 0 .359.18.269.493-.403.987-.807 1.48-1.165.494.09.988.224 1.482.313-.045.045-.135.09-.18.135-.808.583-1.526 1.255-2.289 1.927-.134.135.09.359.225.224.808-.762 1.66-1.524 2.558-2.196.449.134.898.224 1.347.359-.404.493-1.033.806-1.527 1.165-.673.493-1.346.986-2.02 1.524-.179.135 0 .404.18.269.763-.583 1.481-1.165 2.244-1.748.45-.359.943-.628 1.302-1.076-.134.672-.27 1.3-.359 1.972zm-4.22-3.406c.046-.045.09-.045.09-.09.45.045.853.09 1.302.18-.09.044-.18.134-.269.179a42.38 42.38 0 01-1.122-.27zm1.482.358c.09-.09.18-.134.314-.224.494.09 1.033.18 1.526.314l-.404.269c-.448-.135-.897-.224-1.346-.359h-.09zm3.187.493c0 .09-.045.18-.045.314-.045 0-.09 0-.135.045l-.044.045-1.212-.404c.134-.09.269-.179.404-.313.314.09.673.179 1.032.313zm.27-1.39c-.046.315-.09.584-.18.897a3.314 3.314 0 00-.629-.179c.27-.224.494-.448.674-.762.09-.135-.135-.224-.18-.09-.18.314-.449.583-.718.807a17.778 17.778 0 00-1.481-.358c.044-.045.09-.09.134-.09.808-.583 1.616-1.3 2.514-1.748-.045.448-.045.986-.135 1.524zm.089-2.42v.538c-.853.359-1.526 1.031-2.29 1.524-.268.18-.493.359-.762.493-.45-.09-.943-.134-1.392-.179.27-.269.539-.493.853-.762.988-.852 2.155-1.524 2.963-2.51.134-.135-.09-.314-.225-.18-.808.987-2.02 1.66-2.962 2.466l-1.078.941c-.359-.045-.718-.045-1.077-.09.629-.492 1.257-.986 1.885-1.479.988-.806 1.975-1.748 3.098-2.375.628.179 1.032.717.987 1.613zm-6.508.897c.09.09.314.134.448-.045.45-.762.898-1.883 1.93-2.062l.809-.134c-.09.045-.225.134-.315.179-.583.403-1.167.762-1.795 1.12-.135.09 0 .314.134.225a50.942 50.942 0 002.02-1.3c.18-.135.36-.224.539-.314.135-.045.314-.09.449-.135.359-.09.763-.134 1.077-.134-.763.493-1.436 1.076-2.154 1.658-.988.762-1.93 1.524-2.963 2.286-.224 0-.494 0-.718-.044.135-.404.314-.852.539-1.3zm-1.167 1.972a51.068 51.068 0 00-1.616 5.065c-.584-.134-1.167-.224-1.796-.358l.27-1.345c.18-.986.493-2.107.763-3.272.808-.09 1.616-.135 2.379-.09zm-10.683 31.78c-.18.18-.314.359-.494.538-.18.045-.404.045-.628 0-.673-.134-1.392-.493-1.975-.896.583-.628 1.257-1.255 1.526-2.062.045-.135-.18-.18-.224-.09-.27.807-.943 1.39-1.527 2.017-.09-.045-.18-.09-.224-.18-.09-.089-.18-.134-.314-.223.18-.224.314-.449.494-.717.09-.135-.135-.225-.225-.09-.135.224-.27.448-.449.672a5.712 5.712 0 01-.987-1.12c.449-.583.853-1.166 1.301-1.748.404-.538.764-.583.674-1.21-.045-.18-.27-.135-.27 0 .09.537-.942 1.434-1.211 1.792-.225.27-.45.583-.674.852a2.774 2.774 0 01-.359-1.076c.763-.852 1.526-1.658 2.38-2.42.134-.135-.09-.314-.225-.18-.763.673-1.482 1.435-2.2 2.152-.045-.493 0-.986.09-1.569.988-1.03 1.975-2.062 2.828-3.227.09-.135-.09-.27-.18-.135-.808 1.031-1.705 1.973-2.603 2.914.135-.717.18-1.434.224-2.197l2.29-2.42c.044-.045-.045-.09-.09-.045-.718.762-1.392 1.524-2.155 2.286.045-.672.225-1.39.225-2.017.897-.538 1.212-1.255 1.84-1.883.628-.582 1.302-1.03 1.66-1.748.09-.134-.134-.224-.224-.09-.404.807-1.391 1.435-2.02 2.018l-1.346 1.344c.045-.582.09-1.165.135-1.703l.044-.045c.853-.806 1.661-1.613 2.514-2.375.628-.538 1.167-1.076 1.571-1.793.045-.135-.135-.224-.18-.09-.448.897-1.256 1.524-2.02 2.152-.673.538-1.256 1.165-1.885 1.748.09-.628.18-1.255.27-1.928.763-.717 1.481-1.479 2.289-2.151.583-.493 1.212-.986 1.66-1.659.09-.134-.09-.269-.179-.134-.494.762-1.257 1.255-1.93 1.838a31.44 31.44 0 00-1.795 1.658c.09-.493.18-.986.224-1.524.045-.224.09-.448.09-.628.718-.627 1.436-1.3 2.2-1.882.583-.448 1.166-.852 1.57-1.48.09-.134-.134-.223-.224-.089-.584.852-1.571 1.39-2.334 2.017-.404.314-.763.672-1.167.986.09-.627.224-1.255.314-1.882a24.311 24.311 0 002.693-3.003c.135-.18-.09-.36-.224-.225-.718.942-1.526 1.793-2.38 2.6.09-.717.225-1.434.36-2.107.987-.896 2.065-1.748 2.738-2.913.09-.18-.18-.314-.27-.135-.583.986-1.48 1.793-2.378 2.555.09-.448.134-.94.224-1.39.808-.716 1.616-1.389 2.379-2.106.135-.134-.09-.314-.224-.18a82.233 82.233 0 00-2.11 1.928c.045-.224.045-.403.09-.627 1.167-.897 2.558-1.704 3.321-2.824.584.224 1.212.403 1.84.538l2.963.672c-.404.359-.808.672-1.347.897-.18.09-.09.358.09.269.628-.225 1.122-.628 1.571-1.121.36.09.718.18 1.077.224-.09.448-.134.897-.224 1.345-.584 3.9-1.481 7.754-2.38 11.61-.897 3.854-1.48 7.799-2.602 11.564-.225.806-.584 1.838-1.257 2.33 0-.044.045-.044.045-.09.269-.044.045-.223-.09-.089zM10.279 44.78c.36-.314.808-.538 1.167-.896.314.134.673.269.988.358-.629.897-1.796 1.57-2.604 2.197-.135.09-.224.179-.359.269l.27-1.48c.134-.134.314-.268.538-.448zm-.494.045c0-.224.045-.493.09-.717 0-.09.045-.18.045-.27l.359-.358c.27.135.584.224.853.359-.404.314-.943.627-1.347.986zm9.202.493a4.693 4.693 0 01-.763-.18c.18-.223.314-.403.493-.582.09-.134-.09-.269-.18-.134-.224.224-.403.448-.627.672-.494-.09-.988-.224-1.482-.314 1.167-.986 2.334-1.927 3.277-3.137-.224 1.255-.494 2.465-.718 3.675zm.853-4.169c-1.033 1.345-2.334 2.421-3.636 3.452-.045.045-.045.09-.045.134-.36-.09-.763-.134-1.122-.224-1.481-.313-2.918-.896-4.31-1.479.584-.538 1.168-1.076 1.886-1.39.135-.09.09-.313-.09-.268-.808.358-1.481.94-2.11 1.524-.09-.045-.134-.045-.224-.09h-.045c.045-.18.09-.403.135-.583.628-.627 1.257-1.21 1.885-1.837.988.134 1.93.358 2.828.448.224.044.449.044.628.044.808.09 1.616.09 2.469.045-.673.673-1.346 1.3-2.154 1.838-.135.09 0 .359.18.224.897-.582 1.615-1.344 2.333-2.106.494-.045.943-.045 1.436-.09 0 .18 0 .269-.044.358zm-9.022-.672c.045-.045.134-.09.18-.18.313 0 .628.046.897.09-.494.449-.988.897-1.481 1.39.134-.448.269-.852.404-1.3zm-.853 1.748l-.36.359c-.224-.135-.493-.27-.673-.404l-.044-.044a20.11 20.11 0 011.526-1.255c-.18.403-.314.851-.45 1.344zm3.142-2.062c.718.045 1.481.045 2.2.224.224.045.448.09.672.09-.044.045-.09.045-.09.09a25.964 25.964 0 01-2.782-.404zm3.142.449c.045-.045.09-.045.09-.09.583.045 1.167.09 1.75.09a10.45 10.45 0 01-1.66 0h-.18zm3.815-.493h-.808c.36-.36.763-.718.988-1.166-.045.404-.135.762-.18 1.166zm.18-1.838l-.045.045c.044.717-.719 1.3-1.257 1.792h-2.02c1.122-.806 2.244-1.658 3.232-2.6.09.27.09.494.09.763zm-1.168-3.093c-.448.538-1.077.941-1.57 1.39a101.35 101.35 0 00-2.245 2.017c-.134.134.09.313.225.179.897-.807 1.795-1.659 2.693-2.42.404-.314.763-.628 1.077-1.032.224.224.36.493.539.807-1.347.986-2.514 2.107-3.95 3.003-.18.09 0 .359.18.27 1.39-.852 2.558-2.018 3.86-3.004.044.09.044.135.09.224.089.224.134.493.179.762h-.09c-1.122 1.031-2.379 1.883-3.59 2.734h-.27c-.853-.09-1.706-.358-2.559-.448-.538-.044-1.122-.044-1.66-.09a44.51 44.51 0 002.244-1.837c.045 0 .045 0 .09-.045 1.301-.986 2.379-2.241 3.725-3.182.36.179.718.403 1.032.672zm-5.97.045c.54-.359 1.213-.538 1.841-.673.673-.179 1.302-.269 1.93-.224l.673.27c-1.212.896-2.244 2.016-3.41 2.913-.046 0-.046.045-.046.09-.808.672-1.705 1.3-2.603 1.972-.09 0-.18-.045-.27-.045l.405-1.076.404-.941c.583-.538 1.211-.986 1.885-1.255-.27.179-.494.403-.718.582-.09.09 0 .224.09.135.942-.538 1.795-1.345 2.692-2.017.09-.09 0-.27-.134-.18-.629.449-1.212.942-1.84 1.39.044-.09-.045-.224-.135-.18-.584.225-1.077.584-1.571.987.135-.27.27-.538.359-.807.135-.448.27-.717.449-.941zm-3.32 4.572c.403-.449.852-.986 1.346-1.524.045 0 .09.045.135 0-.135.403-.315.762-.45 1.165-.044.045-.044.09-.044.18 0 .044-.045.134-.045.179-.27 0-.673 0-1.033.045 0 0 .045 0 .09-.045zm-.674.717c.18-.045.314-.09.404-.09.27-.044.539-.09.808-.09-.629.494-1.257.942-1.796 1.48l-.224-.224c-.045-.045-.045-.045-.045-.09.27-.314.584-.672.853-.986zm-1.66 2.376c.044-.18.044-.404.089-.583.135-.135.27-.269.404-.448.045.044.045.09.09.134l.134.135a11.41 11.41 0 00-.718.762zm-.135.762c.359-.404.763-.807 1.167-1.21.224.179.448.313.718.448-.27.224-.539.493-.763.717a29.81 29.81 0 00-1.257 1.165c.045-.358.09-.717.135-1.12zm-.36 2.51a25.5 25.5 0 01.135-.762v-.09c.584-.627 1.257-1.21 1.885-1.793.18-.134.315-.314.494-.448l.27.134-.135.538-.225.224c-.808.762-1.616 1.48-2.424 2.197zm-.09.583a91.367 91.367 0 012.155-2.062l.404-.404a6.42 6.42 0 00-.18.986c-.358.314-.762.673-1.122.986-.493.449-.942.897-1.436 1.345a7.27 7.27 0 00.18-.852zm-.448 2.6c.09-.404.135-.763.224-1.166.494-.448.943-.941 1.392-1.39.359-.358.763-.717 1.122-1.075-.045.358-.135.672-.18 1.03 0 .135-.045.27-.045.404a14.94 14.94 0 00-1.256 1.12c-.36.36-.808.718-1.257 1.076zm-.314 1.434c.045-.27.134-.538.18-.807a49.838 49.838 0 002.243-2.107c.09-.09.18-.18.315-.269l-.135.672c-.853.852-1.75 1.659-2.603 2.51zm-.135.672c.628-.627 1.257-1.3 1.885-1.927.27-.314.584-.583.898-.852-.09.448-.135.941-.225 1.39-.224.224-.493.403-.718.627a92.234 92.234 0 00-2.11 2.062 6.76 6.76 0 01.27-1.3zm-.808 3.81c.09-.627.18-1.255.314-1.883.853-.806 1.661-1.613 2.514-2.42.134-.135.224-.224.359-.314-.135.717-.225 1.434-.36 2.152-.897.806-1.884 1.613-2.827 2.465zm-.045.762v-.224c.898-.852 1.885-1.659 2.783-2.51-.09.627-.224 1.255-.314 1.882-.135.135-.27.225-.404.359a33.644 33.644 0 00-2.244 2.151c.045-.537.134-1.12.18-1.658zm-.494 4.303l.27-2.151a47.744 47.744 0 012.648-2.555c-.135.717-.224 1.434-.36 2.151a68.698 68.698 0 00-2.558 2.555zm-.044.538c.808-.897 1.66-1.748 2.513-2.6 0 .09-.045.18-.045.224-.09.538-.134 1.076-.224 1.614-.853.807-1.706 1.614-2.514 2.42.09-.493.18-1.075.27-1.658zm-.315 2.241l2.559-2.555-.135 1.748-.09.09a78.895 78.895 0 00-2.603 2.869l.27-2.152zm-.448 3.317c.044-.224.044-.448.09-.672.897-1.031 1.795-2.062 2.737-3.048-.045.358-.045.762-.09 1.12 0 .314-.044.583-.09.897-.942.941-1.884 1.883-2.827 2.869.09-.404.135-.762.18-1.166zM3.5 70.06c0-.716.045-1.433.135-2.15l2.828-2.959c-.09.762-.27 1.524-.36 2.33l-.224.225c-.808.807-1.616 1.703-2.379 2.555zm.27 1.66c-.09-.404-.18-.763-.225-1.166.763-.852 1.481-1.703 2.244-2.51l.27-.27c-.045.315-.045.584-.045.897 0 .18 0 .404.045.583-.808.762-1.571 1.614-2.29 2.465zm.628 1.523a7.293 7.293 0 01-.494-1.03c0-.045 0-.045-.045-.09.763-.852 1.482-1.659 2.245-2.51.09.358.269.672.493 1.03-.134.135-.224.314-.359.449a78.475 78.475 0 01-1.84 2.151zm1.032 1.255a4.08 4.08 0 01-.808-.94c.719-.853 1.482-1.749 2.2-2.6.27.403.628.717 1.032 1.03-.808.852-1.705 1.614-2.424 2.51zm.808.583c-.224-.134-.404-.269-.628-.403.718-.897 1.616-1.659 2.379-2.555.18.134.314.224.494.358l-.09.09c-.718.807-1.437 1.659-2.155 2.51zm1.078.628c-.27-.18-.494-.314-.763-.493.763-.852 1.48-1.749 2.199-2.645.359.224.763.448 1.167.628-.763.986-1.75 1.703-2.603 2.51zm1.122.762c-.315-.18-.629-.359-.898-.538.853-.852 1.84-1.614 2.559-2.555.314.134.628.269.897.314.045 0 .09 0 .135.044-.898.852-1.84 1.749-2.693 2.735zm21.006 1.076c-1.167 1.568-3.187 1.837-4.982 1.972-1.975.134-3.86-.045-5.79-.27l.09-.089c.09-.09-.09-.269-.18-.134l-.225.224h-.134c-.539-.045-1.078-.135-1.616-.224.494-.404.987-.807 1.481-1.255.135-.135-.09-.27-.224-.18-.539.449-1.167.852-1.706 1.345-.404-.09-.808-.134-1.212-.224.628-.583 1.257-1.165 1.84-1.838.09-.09-.044-.224-.134-.134-.629.627-1.437 1.21-2.11 1.837l-1.077-.268c.449-.449.898-.852 1.346-1.3.135-.135-.09-.314-.224-.18-.494.449-.987.897-1.481 1.39-.09-.045-.18-.045-.27-.09-.18-.045-.403-.134-.628-.18.673-.761 1.257-1.613 2.02-2.285.09-.09 0-.269-.135-.18-.853.673-1.481 1.57-2.2 2.376-.493-.134-.987-.313-1.435-.448 1.077-1.12 2.199-2.241 3.052-3.541.09-.135-.135-.224-.225-.09-.852 1.345-2.11 2.376-3.231 3.497l-1.347-.538c.853-.987 1.84-1.928 2.738-2.87 2.559.18 3.187-4.795 3.546-6.409l2.558-11.699c.719-3.227 1.212-6.455 1.796-9.637.583.134 1.167.224 1.75.358a52.628 52.628 0 00-.808 3.631c-.718 3.855-1.526 7.665-2.289 11.475-.628 3.093-1.616 6.679-.853 9.817.27 1.075.225 2.151 1.167 2.913 1.033.807 2.38 1.12 3.591.852 2.559-.583 2.918-4.93 3.277-6.903 1.167-6.948 3.142-13.716 4.488-20.619.494.045.988.045 1.482.09-.763 2.868-1.347 5.782-2.02 8.695-.853 3.81-2.02 7.576-2.514 11.475-.09.852-.18 1.704-.314 2.555-.09.673-.36 1.345-.36 2.017 0 1.076.63 1.928 1.572 2.466.763.448 1.616.717 2.379.09.359-.27.494-.808.628-1.166.27-.762.584-1.524.853-2.286.584-1.793.853-3.676 1.302-5.513.493-2.017 1.077-4.035 1.57-6.052.943-3.855 2.02-7.71 3.098-11.52.134-.403.224-.806.314-1.21.045.27.09.538.045.852-.09.762-.404 1.524-.629 2.286-.269.852-.269 1.703-.583 2.6-.27.807-.404 1.748-.628 2.6-.853 3.675-1.437 7.396-2.514 11.026a191.682 191.682 0 01-1.66 5.424c-.27.852-.63 1.659-.899 2.51-.179.986-.673 2.062-1.346 2.959zM14.005 27.074c-1.168.179-2.245.717-3.322 1.12-.763.27-1.66.673-1.93 1.48a.34.34 0 00.09.179c.09.044.134.044.224.09.135.044.27-.135.135-.225-.45-.314 1.705-1.3 1.975-1.39.942-.358 1.84-.806 2.872-.985.135-.045.135-.314-.044-.27zm1.121.627c-1.391.493-2.738 1.21-4.129 1.748-.988.404-2.155.897-2.558 1.973-.045.09 0 .179.09.224.09.044.134.09.224.09.18.089.314-.18.134-.27-.538-.313 2.559-1.882 2.783-1.972 1.212-.493 2.334-1.12 3.501-1.703.045-.045 0-.09-.045-.09zm.449.717c-1.257.493-2.379 1.3-3.59 1.973-1.302.717-2.56 1.344-3.636 2.33-.135.135.09.359.224.225 1.077-.942 2.334-1.614 3.546-2.331 1.167-.673 2.244-1.48 3.501-2.017.135-.045.09-.225-.045-.18zm-.135.762c-1.39 1.166-2.962 2.152-4.533 3.093-1.256.762-2.513 1.57-3.231 2.914-.09.224.224.358.314.134.853-1.479 2.379-2.286 3.77-3.182 1.347-.852 2.648-1.748 3.815-2.78.135-.044 0-.268-.134-.179zm-7.495 7.665c-.36-.358 6.373-5.289 6.822-5.916a.1.1 0 00-.134-.135c-.494.583-1.347 1.076-1.975 1.524-.629.493-1.212.942-1.84 1.434-1.213.897-2.38 1.793-3.322 2.959-.09.09-.045.224.045.269.044.045.09.045.134.09.225.179.36-.09.27-.225zm6.284-4.617c-1.392.448-2.38 1.57-3.412 2.51-.808.763-1.705 1.48-2.468 2.242-.719.717-1.033 1.658-1.796 2.33-.134.135 0 .36.18.225.494-.314.808-.762 1.122-1.255.539-.897 1.302-1.57 2.065-2.287 1.301-1.21 2.783-3.003 4.488-3.54.045-.045 0-.27-.18-.225z"/><path d="M28.368 48.903c-.674.538-1.437.986-2.11 1.434-.18.09 0 .359.18.27.718-.494 1.436-.942 2.11-1.48.089-.134-.046-.314-.18-.224zM25.18 57.33c-.09-.045-.179.09-.09.134.09.09.18-.09.09-.134zm-6.598-11.206c-.404.403-.808.852-1.256 1.21-.314.27-.674.448-.898.807-.045.09.09.18.135.09.314-.314.673-.583.987-.852.404-.359.763-.807 1.122-1.165.135-.045 0-.18-.09-.09zm-1.885 3.496l-.045.09c.45.224.494.134.045-.09zm-.493 3.227c-.18-.09-.36.225-.135.314.18.09.314-.179.135-.314zm21.051-15.688c-.763.762-1.706 1.345-2.29 2.241-.09.135.135.27.225.135.584-.897 1.481-1.48 2.154-2.286.045-.09-.044-.18-.09-.09zm.404 3.541c-.584.896-1.347 1.569-2.2 2.196-.134.09 0 .359.18.224.898-.672 1.66-1.39 2.244-2.33.045-.09-.134-.18-.224-.09zm-.943 7.082c-.538 1.031-1.93 1.12-2.513 2.107-.09.18.18.269.269.134.539-.986 1.93-1.12 2.379-2.151.09-.135-.045-.18-.135-.09zm-1.93 5.11a6.04 6.04 0 01-1.077.538c-.18.045-.09.314.09.27.403-.18.763-.36 1.122-.584.134-.134 0-.313-.135-.224zm.449.852c-.449.717-1.257.986-1.975 1.165-.135.045-.045.18.045.18.763-.224 1.616-.583 2.02-1.3.045-.045-.045-.09-.09-.045zm-3.411 7.082c-.135-.09-.27.134-.09.224.135.09.224-.134.09-.224zm-5.117-3.496c-.45.672-1.302.94-1.706 1.703-.09.18.18.314.27.134.358-.717 1.211-1.03 1.66-1.703.09-.134-.135-.269-.224-.134zm-1.032 3.406c-.315.18-.584.493-.898.673-.09.044 0 .179.09.134.314-.18.538-.493.852-.717.09-.045 0-.135-.044-.09zm-.763 2.421c0-.09-.09-.09-.135-.045-.09.269-.27.448-.539.493-.09.045-.044.18.045.18.36-.09.539-.314.629-.628zm-1.392 2.062l-.045.045c.449.269.494.179.045-.045zm3.5-62.978c-2.019.583-3.77 2.062-4.757 3.9-.09.134.135.269.224.134 1.033-1.748 2.649-3.182 4.624-3.765.18-.045.09-.314-.09-.269z"/><path d="M25.585 4.034c-2.065.941-3.546 2.824-4.623 4.796-.09.135.134.27.224.135 1.122-1.883 2.424-3.72 4.489-4.662.09-.09.044-.314-.09-.269zm-.27 1.121c-.628 1.03-1.706 1.569-2.558 2.42-.808.807-1.616 1.793-2.02 2.87-.045.133.18.268.224.133.539-1.165 1.302-2.151 2.2-3.047.763-.763 1.75-1.256 2.334-2.242.045-.179-.135-.269-.18-.134zm-.449 1.389c-.673.986-1.57 1.793-2.334 2.734-.628.807-1.077 1.749-1.48 2.69-.09.18.179.269.269.134.538-1.03 1.032-2.017 1.705-2.958.629-.852 1.436-1.524 2.02-2.42.09-.135-.09-.314-.18-.18zm-.269 2.152c-.763 1.658-2.11 3.003-2.872 4.706-.09.18.18.314.269.135.494-.986.987-1.883 1.616-2.78.449-.627.898-1.21 1.212-1.927.134-.18-.135-.314-.225-.134zm1.033 1.882c.044-.134-.135-.268-.225-.09-.718 1.66-2.065 2.87-3.007 4.394-.09.134.134.268.224.134 1.032-1.48 2.334-2.734 3.008-4.438zm.044 1.704c.09-.135-.134-.27-.224-.09-.539 1.076-1.212 1.972-1.93 2.869-.36.448-.763 1.03-.539 1.613.09.18.314.09.27-.09-.225-.716.628-1.478 1.032-2.016.583-.673.987-1.48 1.391-2.286zm0 1.613c0-.134-.269-.134-.224 0 .045.359-.539 1.21-.763 1.524-.225.448-.494.852-.718 1.3-.09.18.18.314.27.135.268-.583.627-1.166.897-1.793.314-.404.628-.628.538-1.166zm.584 1.748c.09-.134-.09-.313-.18-.179-.628.941-1.48 1.748-1.705 2.869v.09c-.629.806-1.84 1.344-2.693 1.882-.45.314-1.347.807-1.167 1.48.045.134.224.089.18-.046-.135-.717 1.256-1.39 1.75-1.748.673-.448 1.526-.851 2.02-1.524.044 0 .134 0 .18-.09.223-1.03.987-1.837 1.615-2.734zm.18 1.749c0-.09-.135-.135-.135-.045-.045.358-.09.672-.225.986-.044.09.09.134.135.045a2.44 2.44 0 00.224-.986zm-.135 1.838c-.09-.045-.135-.09-.225-.09-.045-.045-.09.045-.045.09.09.044.135.09.225.134.045-.045.09-.134.045-.134z"/><path d="M25.316 18.154c-1.572 1.075-3.232 2.375-4.04 4.168 0-.09-.135-.179-.18-.045-.404 1.121-1.481 1.704-2.289 2.466-.763.717-1.481 1.524-1.84 2.465-.045.18.18.269.27.135.583-1.21 1.48-2.197 2.513-3.049.583-.492 1.122-.94 1.436-1.568.045.134.224.179.27.044.807-1.882 2.468-3.137 4.039-4.347.09-.135-.045-.359-.18-.27zm-.27 1.031c-.898.94-1.885 1.837-2.603 2.958-.09.18.18.269.27.134.672-1.075 1.66-1.972 2.513-2.913.18-.135-.045-.314-.18-.18zm.09 2.017c0-.045-.09-.09-.09-.045a2.625 2.625 0 01-1.212 1.3c-.134.044-.045.224.09.134.494-.269 1.032-.807 1.212-1.39zm-.718 2.42c-.045 0-.09.045-.045.045.09.045.09-.045.044-.045zm-5.072-2.241c-1.257.359-2.514.628-3.726 1.12-1.346.539-2.558 1.21-3.905 1.794-.135.044-.09.269.09.224 1.212-.448 2.334-1.076 3.5-1.614 1.303-.627 2.739-.896 4.085-1.434.045 0 0-.09-.044-.09zm.763.089c-2.29.808-4.354 2.197-6.599 3.138-.18.09-.09.359.09.314 1.706-.717 3.277-1.703 4.938-2.51-1.571.852-3.457 1.793-4.22 3.317-.09.18.18.269.27.134 1.122-1.748 3.5-2.689 5.206-3.765.09-.045.09-.18.045-.224.135-.045.225-.09.36-.134.09-.135.044-.314-.09-.27zm.628.314c-1.526 2.018-4.04 3.004-5.386 5.2-.09.18.18.314.269.134 1.347-2.151 3.815-3.137 5.296-5.154.09-.135-.09-.314-.18-.18zm.898 1.569c-1.078 1.614-3.008 2.824-3.726 4.617-.09.18.225.314.27.135.763-1.793 2.603-3.004 3.635-4.617.09-.135-.09-.27-.18-.135zm.225.627c-.046-.134-.27-.089-.225.046.135.672-.404 1.075-.763 1.569-.449.672-.808 1.434-1.167 2.196-.09.18.224.358.314.134.449-.94.853-1.837 1.481-2.644.27-.448.45-.807.36-1.3zm.448 1.973c-.314.628-.763 1.12-1.077 1.703-.09.135.134.27.224.135.404-.538.853-1.076 1.122-1.704.045-.179-.224-.313-.269-.134zm.18 2.241c-.045-.09-.18 0-.135.09a.714.714 0 01-.09.672c-.09.09.09.27.18.135.18-.27.224-.583.045-.897zM33.53 5.065c-.225-.762-.719-1.255-1.572-1.345-.673-.044-1.57.359-1.795 1.031-.09.224.135.628.225.807.448.852.448 1.435.134 2.331-.27.807-.673 1.793-.134 2.555.359.538 1.436.269 1.885 0 .628-.359 1.077-1.076 1.436-1.703.673-.986 1.391-3.048-.18-3.676zm-2.245 5.29c-1.391.179 0-3.228-.045-3.81 0-.314-.224-.628-.359-.897-.359-.717-.18-1.166.539-1.48.898-.358 1.57.225 1.885.987-.045.09 0 .18.09.224 1.84 1.076-.539 4.751-2.11 4.975zm0 3.495c-.135.045-.224.135-.36.225-.313.179-.313-.18-.179-.359.045-.09-.044-.134-.09-.09-.224.18-.358.538-.044.763.269.179.583-.09.853-.225.224-.179.044-.448-.18-.313zm-1.257 3.9c.09-.224-.18-.358-.314-.134-.045.09-.09.134-.134.224-.135.224.269.403.359.18 0-.135.044-.18.09-.27z"/></g><defs><clipPath id="clip0"><path fill="#fff" d="M0 0h43v84H0z"/></clipPath></defs></svg>