<svg width="28" height="56" fill="none" xmlns="http://www.w3.org/2000/svg"><g clip-path="url(#clip0)" fill="#FF9103"><path d="M22.71 49.814c.7-2.6 1.168-5.23 1.958-7.8.818-2.719 1.373-5.557 2.016-8.336.614-2.63 1.52-5.887 1.14-8.756a8.539 8.539 0 00.059-1.942c-.03-.389-.146-.837-.38-1.166.029 0 .058 0 .058-.03l.088-.09.087-.179c.556-1.165.264-2.719-.672-3.645-1.783-1.704-4.062-2.899-5.407-5.05-.175-.748-.117-1.435.468-2.212.555-.807 1.403-1.434 1.987-2.211.819-1.076 1.082-2.36.906-3.676C24.61 1.823 21.716.09 19.027 0c-2.865-.09-4.91 2.33-5.963 4.781-.497 1.166-.584 2.39-.321 3.616.146.687.497 1.315.789 1.942.204.419.467.837.73 1.255.088.15.205.479.264.837-.117.329-.351.598-.673.717l-.263.09c-.555.09-1.14.15-1.432.418-.292.06-.584.15-.906.21-1.315.239-2.455.268-3.566 1.075-.467.329-1.286.837-1.256 1.524.029.359.35.747.789 1.076-.497.21-.936.508-1.257 1.106-.818 1.404-1.11 2.66-1.608 4.183-1.11 3.467-1.666 7.292-2.367 10.848a242.09 242.09 0 00-1.9 11.206c-.409 2.779.292 5.976 2.601 7.5 2.222 2.959 7.337 3.377 10.464 3.556 4.472.299 8.3-1.584 9.557-6.126zm-8.594-35.889c.03 0 .03-.03.059-.03 0 0 .03.03.058.03.03.03.088.03.117.06.059.03.117 0 .176-.03.409-.388.613-.807.701-1.225a1.731 1.731 0 00-.03-.867c-.204-.926-.847-1.912-1.197-2.839-1.287-3.317 1.315-7.44 4.676-7.948 1.783-.27 3.624.747 4.676 2.181 1.345 1.853.585 3.855-.76 5.379-.789.926-1.607 1.644-1.929 2.839-.321 1.135 0 1.673.497 2.69.146.298.468.238.643.03.234.447.497.866.79 1.194-.585 1.345-3.566.867-4.735.777-1.55-.12-3.01-.777-4.472-1.284-.439-.15-.556-.3-.556-.479.41-.12.848-.269 1.286-.478zm-3.74 1.046c.584-.09 1.168-.21 1.753-.358.41.806 1.724 1.135 2.397 1.434 1.782.777 3.536 1.046 5.494 1.076 1.228 0 2.456-.09 3.215-1.136l.264.27c1.11 1.045 3.244 2.15 3.331 3.854.03.06.059.12.059.21a.7.7 0 01-.117.417c-.03.09-.03.18-.088.3-.117.03-.234.059-.35.119.058.03.116.06.146.09a3.347 3.347 0 01-.906.209c-.176.03-.38.03-.556.06v-.09c-2.513.388-5.202 0-7.774-.359-3.098-.418-6.43-1.643-8.885-3.735 0-.09-.059-.18-.147-.15-.146-.149-.292-.268-.438-.418-.906-.866 2.075-1.703 2.601-1.793zm4.208 39.893c-2.104.15-4.238-.149-6.284-.717-2.046-.568-4.384-1.255-5.495-3.287-.117-.21-.292-.269-.467-.239-.351-.508-.673-1.046-.906-1.703-.526-1.524-.351-3.407-.117-4.93.526-3.139.964-6.306 1.578-9.414.614-3.078 1.374-6.186 1.841-9.263.234-1.465.497-3.108.994-4.513.439-1.255 1.082-2.092 1.958-2.868.439.298.848.537 1.111.717 2.893 1.972 6.05 2.928 9.47 3.376 2.25.27 4.56.568 6.81.21.263.03.497.03.76 0 .321-.03.672-.12.993-.24.205.509.117 1.465.147 1.853.029.777-.293 1.494-.234 2.241 0 .15.117.27.234.33v.089c-.176 2.151-.614 4.303-1.111 6.425-.497 2.181-1.052 4.362-1.578 6.544-.526 2.181-1.374 4.273-1.813 6.484-.409 2.002-.847 3.975-1.753 5.827-1.11 2.122-4.004 2.929-6.138 3.078z"/><path d="M15.754 5.29c.029-.12-.117-.18-.146-.09-.117.298-.38.478-.585.717-.205.239-.322.538-.468.807-.146.269.293.478.41.209.117-.329.204-.658.35-.956.117-.27.351-.419.439-.688zm-.117 1.195c-.263.328-.527.627-.673 1.016-.087.209.205.358.322.149.205-.329.41-.628.614-.956.087-.15-.117-.359-.263-.21zm.146 1.105c-.087-.209-.38-.12-.321.12.058.239-.117.478-.234.657-.146.24.263.448.38.21.146-.33.292-.628.175-.987zm7.657 12.431c-2.367.21-4.764.06-7.102-.328-1.344-.21-2.689-.628-3.975-1.076-1.286-.478-2.192-1.375-3.332-2.122-.087-.06-.204.09-.117.18.906.806 1.55 1.673 2.69 2.121 1.315.508 2.718.837 4.12 1.106 2.456.478 5.232.627 7.716.328.117-.06.117-.239 0-.209zM5.787 51.637c-.029-.478.117-.986-.146-1.434-.117-.18-.38-.03-.321.15.117.238.058.477 0 .716a.934.934 0 00.087.688c.117.179.41.06.38-.12zm.965-.03c-.059-.299.029-.568-.088-.837-.058-.149-.263-.09-.234.09.059.24-.058.478-.058.717 0 .24.029.478 0 .688-.059.239.292.358.409.149.088-.299 0-.508-.03-.807zm.993.359c0-.12 0-.24.059-.359.117-.179-.175-.388-.292-.209-.176.24-.147.478-.176.777-.029.21.234.299.322.12.058-.09.058-.21.087-.33zm1.287.478c-.03-.06-.059-.15-.088-.21-.088-.298-.555-.149-.439.15l.088.21c.088.298.555.149.439-.15zm.701.418c-.117-.06-.205.12-.088.18.117.06.205-.12.088-.18z"/><path d="M20.343 50.113c.409-1.046.76-2.121 1.052-3.197.35-1.225.76-2.45 1.052-3.676.321-1.285.468-2.57.79-3.855.408-1.584.7-3.167 1.197-4.751.088-.299.059-.657.117-.986.088-.329.234-.658.322-1.016.058-.24.146-.508.146-.777 0-.27-.146-.598-.088-.867.03-.15-.087-.209-.204-.209.087-.448.175-.926.233-1.375.059-.09.147-.209.205-.298.03-.09-.088-.12-.117-.06 0 .03-.03.03-.03.06.03-.15.06-.3.06-.449.029-.149.058-.328.058-.508a.623.623 0 00.146-.508c0-.03-.03-.06-.088-.06.088-.716.146-1.494 0-2.121-.117-.478-.35-1.076-.76-1.375-.409-.298-.993.18-1.344.359-.058.03-.088.09-.088.18a2.36 2.36 0 00-.38.388c-.321.358-.701.657-.964 1.075-.03.06.058.12.117.09.146-.18.321-.358.467-.538-.438.747-.76 1.614-.993 2.48-.264-.149-.556-.268-.848-.418a1.4 1.4 0 00-.322-.12c.059-.418.117-.806.147-1.224.029-.777.233-1.913-.41-2.48-.263-.24-.643-.27-1.052-.21 0-.03-.058-.06-.087-.03l-.059.06c-.292.06-.584.15-.848.21a1.93 1.93 0 00-.818.178c-.35.12-.584.33-.789.598-.497.508-.848 1.195-1.11 1.853-.03.06-.03.09-.06.15h-1.635c.146-.957.176-1.943-.175-2.75.088-.06 0-.18-.059-.12a2.83 2.83 0 00-.818-.986c-.672-.508-1.52-.508-2.309-.358-.205-.03-.38 0-.585.03h-.029c.059-.06.146-.12.205-.18.087-.09 0-.239-.088-.15-.204.18-.438.36-.643.539-.117.06-.234.15-.321.239-.322.18-.585.448-.79.717-1.432 1.255-2.805 2.57-4.004 4.004-.117.12.088.3.176.18a40.165 40.165 0 013.507-3.586c-.146.299-.263.627-.41 1.016-.028.03 0 .09 0 .12l-.262.268c-.322.329-.643.658-.936.986-.526.15-.964.419-.935.837-.03 0-.088 0-.088.03-.029.15-.087.269-.116.418-.38.448-.76.867-1.14 1.315-.088.12.058.269.175.15.292-.33.585-.628.848-.957-.03.12-.059.27-.059.389a6.547 6.547 0 00-.73 1.105c-.059.12.116.21.204.09.146-.21.292-.448.439-.628a5.85 5.85 0 01-.117.688c-.41.448-.79.896-1.111 1.434-.088.12.117.24.205.09a8.2 8.2 0 01.847-1.136l-.088.538c-.38.359-.73.717-1.081 1.106-.117.12.088.299.205.18.263-.3.526-.599.818-.868-.03.18-.088.389-.117.568-.468.449-.935.897-1.432 1.345-.088.09.03.21.117.15.438-.33.818-.718 1.227-1.076a6.74 6.74 0 00-.146.747c-.467.388-.906.836-1.198 1.344-.059.12.117.21.205.09.233-.388.584-.687.906-.956-.059.209-.088.418-.147.627-.321.33-.643.628-.935.986-.087.09.059.24.146.15.234-.21.468-.448.673-.657-.03.09-.03.179-.059.268-.058.18-.088.359-.117.538-.263.27-.526.508-.789.747-.088.09.058.24.117.15.205-.18.38-.359.584-.538-.058.418-.116.807-.175 1.225-.41.389-.818.807-1.198 1.255-.088.09.058.24.146.15.321-.33.643-.658.994-.987-.03.15-.059.33-.088.479-.058.269-.058.567-.088.836-.38.419-.76.867-1.11 1.315-.059.09.058.21.146.12.292-.389.614-.747.964-1.136 0 .15 0 .299-.029.448-.03.33-.088.658-.146.986-.322.33-.614.688-.906 1.046-.088.09.058.24.146.15l.701-.807c-.029.21-.058.388-.087.598-.03.179-.059.388-.088.567-.41.419-.789.867-1.169 1.315-.088.09.058.21.146.12l.965-1.076c-.088.508-.146 1.016-.234 1.524-.205.239-.38.448-.585.687-.058.09.059.21.117.12.146-.15.263-.299.41-.448-.03.358-.088.747-.088 1.105-.322.329-.614.688-.906 1.046-.059.06.058.18.117.09.263-.329.526-.628.789-.927-.03.449 0 .897.029 1.315-.234.27-.438.508-.672.777-.088.09.058.21.146.12.175-.18.38-.389.555-.598.03.24.059.478.117.687 0 .03.03.06.03.09l-.614.717c-.088.09.058.24.146.15.175-.21.38-.389.555-.598.088.269.234.478.38.717-.234.27-.468.568-.73.867-.088.12.058.239.145.15.234-.27.468-.539.673-.808.175.21.35.419.555.628a3.83 3.83 0 00-.438.747c-.059.12.116.18.175.09.117-.24.263-.479.41-.688.028.03.058.06.116.09l.263.18c-.175.208-.38.418-.585.657-.087.12.059.269.176.149.204-.21.41-.448.584-.687.147.09.322.179.497.269a4.136 4.136 0 00-.672.926c-.058.12.117.18.175.09a4.95 4.95 0 01.673-.927c.058.03.117.09.175.12.146.12.263.209.41.269-.205.269-.41.538-.556.866-.059.12.117.21.204.09.176-.299.38-.568.585-.837.175.09.38.18.614.24l.263.089c-.38.389-.73.837-.994 1.315-.058.09.088.209.146.12.351-.479.73-.897 1.14-1.345.322.09.614.209.935.328-.526.538-1.11.986-1.49 1.644-.088.12.117.239.204.09.38-.658.936-1.136 1.462-1.644l.029-.03c.175.06.35.12.555.18-.029.06-.087.09-.117.149-.321.329-.496.777-.906 1.046-.117.06-.029.239.088.209.322-.12.497-.418.672-.717a4.59 4.59 0 01.468-.598c.205.06.41.15.643.21h.03c-.205.209-.38.447-.527.716-.058.09.088.21.175.12.205-.269.41-.508.643-.747.263.06.497.12.76.18-.087.119-.204.238-.263.388-.058.12.117.239.205.12.117-.18.234-.33.38-.449l1.227.18a1.62 1.62 0 00-.204.388c-.03.09.088.15.146.06.058-.15.146-.3.234-.419.38.06.76.09 1.14.15 1.812.239 4.18.328 5.758-.748.818-.597 1.198-1.583 1.549-2.45zm4.062-19.424a41.956 41.956 0 01-.701 2.75c-.322.538-1.17.777-1.695.926-.117.03-.059.21.058.18.468-.12 1.14-.36 1.549-.748-.263.927-.526 1.823-.76 2.75-.058.209-.088.418-.146.627-.41.15-.76.478-1.11.747-.088.06 0 .21.087.15.322-.27.614-.538.994-.718a174.69 174.69 0 01-.906 3.646c-.088.09-.146.18-.293.21-.087.029-.058.178.059.148l.175-.09c-.175.718-.35 1.435-.555 2.123a141.802 141.802 0 00-.819 3.376 10.535 10.535 0 01-.467 1.644c-.175.448-.38 1.404-.935 1.494-.439.06-.936-.329-1.228-.598-.614-.567-.35-1.314-.234-2.002.205-1.046.234-2.151.41-3.227.35-2.271.993-4.483 1.49-6.754.41-1.852.73-3.705 1.17-5.558.233 0 .467.03.73.03.38 0 1.081 0 1.666-.15 0 .03.058.06.088.06.467-.328 1.11-.537 1.373-1.016zm-1.49.15c.204-.15.438-.27.672-.389.029.06.029.09.029.15.088.777-1.403.807-1.87.836-.38.03-.731.03-1.111 0 .058-.268.146-.508.204-.776.205-.688.351-1.435.556-2.182a6.6 6.6 0 011.227.777c.293.24.702.628.906 1.016-.233.12-.496.269-.701.418-.088.06 0 .21.088.15zm1.636-.956a6.076 6.076 0 01-.146.717h-.03c-.145.269-.438.478-.73.627.088-.12.176-.239.205-.388a.981.981 0 00-.03-.508c.264-.15.497-.27.731-.448zm-1.461-5.05l.058-.06c.059.06.117.09.176.03.38-.18.906-.538 1.198-.06.088.15.175.299.234.448-.322.628-1.052.956-1.608 1.375-.087.09 0 .239.088.15.497-.45 1.198-.778 1.55-1.376.028.09.058.21.058.3-.527.806-1.345 1.374-1.813 2.21-.058.09.088.18.147.09.496-.747 1.198-1.374 1.695-2.121.029.149.029.298.029.448 0 .687-.058 1.374-.146 2.062-.088.09-.205.15-.263.239a7.47 7.47 0 01-1.11.866c-.118.09 0 .24.116.18.439-.329.848-.688 1.228-1.046-.059.358-.117.687-.146 1.046-.234.209-.527.358-.819.508a2.19 2.19 0 00-.409-.538 7.39 7.39 0 00-1.841-1.405c.321-1.195.76-2.42 1.578-3.346zm-2.192 3.406l.35.18c-.146.537-.292 1.105-.438 1.613-.146.478-.263.926-.38 1.404-.321 0-.643-.03-.994-.06.088-.448.176-.866.234-1.314.088-.568.234-1.166.351-1.763l.614.269c.029.03.058-.03.029-.06-.205-.09-.41-.21-.614-.269.03-.09.03-.21.059-.299.263.09.526.18.789.3zm-4.238 6.903c.614-.418 1.198-.897 1.87-1.195-.029.09-.029.209-.058.298-.059.27-.117.538-.205.837-.292.15-.526.389-.789.598-.38.299-.818.448-1.227.687-.088.06 0 .18.087.12.351-.21.731-.389 1.082-.628.292-.18.497-.478.789-.657-.088.388-.175.747-.263 1.135-.439.329-.935.598-1.403.927-.03.03-.058.06-.03.12.03.059.03.119.06.178.028.09.204.06.174-.03 0-.06-.029-.09-.029-.119.38-.299.79-.538 1.17-.807-.205.956-.439 1.943-.644 2.899-.146.12-.409.18-.555.299-.234.179-.438.388-.701.538-.088.06-.03.179.058.12.292-.15.526-.42.79-.629.116-.09.262-.119.38-.179-.176.777-.352 1.584-.527 2.361-.292 1.225-.497 2.45-.701 3.675-.176 1.136-.38 2.51-1.053 3.467-.496.717-1.402.717-2.133.448-.702-.269-1.052-.717-1.17-1.464-.175-1.195-.262-2.271-.145-3.496.263-2.54.906-5.05 1.402-7.53.41-2.033.673-4.065 1.14-6.097 1.403.27 2.777.478 4.18.598-.322.358-.76.657-1.198.837-.146.06-.059.298.087.239.526-.21.994-.598 1.345-1.046.175.03.35.03.526.06-.117.717-.292 1.434-.439 2.151-.73.24-1.344.777-1.987 1.165-.058.03.03.18.117.12zm1.9-3.945c-.03.03-.03.06-.059.09-.438-.06-.847-.09-1.286-.15.293-.298.672-.507 1.052-.716.41-.21.731-.568 1.082-.807-.088.567-.205 1.165-.293 1.733-.116 0-.262-.03-.38-.03v-.03c.118-.09-.058-.18-.116-.09zm.847-1.703c-.409.24-.76.598-1.169.807-.409.21-.877.418-1.169.807-.964-.15-1.929-.299-2.864-.508.087-.389.175-.777.292-1.166.146-.508.322-1.225.555-1.942h.059l.35-.269c.264.03.527.06.79.12-.234.209-.468.448-.673.657-.087.09.059.21.147.12.263-.24.526-.509.789-.748.117.03.204.03.321.06.146.03.263.06.41.09a16.3 16.3 0 00-.848.657c-.088.09 0 .24.117.18.321-.27.643-.538.964-.777.322.06.643.15.965.209-.03.03-.088.06-.117.09-.526.388-.994.836-1.49 1.284-.088.09.058.24.145.15a19.66 19.66 0 011.666-1.464c.293.09.585.149.877.239-.263.328-.672.538-.994.777-.438.328-.876.657-1.315 1.016-.117.09 0 .269.117.179.497-.389.965-.777 1.462-1.166.292-.239.613-.418.847-.717-.088.449-.175.867-.234 1.315zm-2.747-2.27c.03-.03.058-.03.058-.06.293.03.556.06.848.119-.058.03-.117.09-.175.12-.263-.06-.497-.12-.731-.18zm.964.238c.059-.06.117-.09.205-.15.322.06.672.12.994.21l-.263.18c-.293-.09-.585-.15-.877-.24h-.059zm2.076.329c0 .06-.03.12-.03.209-.029 0-.058 0-.087.03l-.03.03-.789-.27c.088-.059.176-.119.263-.208.205.06.439.12.672.209zm.175-.927c-.03.21-.059.389-.117.598a2.125 2.125 0 00-.41-.12c.176-.149.322-.298.44-.507.058-.09-.088-.15-.118-.06a2.067 2.067 0 01-.467.538c-.322-.09-.643-.18-.965-.24.03-.03.059-.06.088-.06.526-.388 1.052-.866 1.637-1.165-.03.3-.03.658-.088 1.017zm.058-1.613v.358c-.555.24-.993.688-1.49 1.016-.176.12-.322.24-.497.33-.292-.06-.614-.09-.906-.12.175-.18.35-.33.555-.508.643-.568 1.403-1.016 1.93-1.674.087-.09-.06-.209-.147-.12-.526.658-1.315 1.106-1.929 1.644l-.702.628c-.233-.03-.467-.03-.7-.06.408-.329.817-.658 1.227-.986.643-.538 1.286-1.166 2.016-1.584.41.12.673.478.643 1.076zm-4.238.598c.059.06.205.09.293-.03.292-.508.584-1.255 1.256-1.375l.526-.09c-.058.03-.146.09-.204.12-.38.269-.76.508-1.17.747-.087.06 0 .21.088.15a33.12 33.12 0 001.316-.867c.117-.09.234-.15.35-.21.088-.03.205-.06.293-.09.234-.059.497-.089.701-.089-.497.329-.935.718-1.403 1.106-.643.508-1.256 1.016-1.929 1.524-.146 0-.321 0-.467-.03.087-.269.204-.568.35-.866zm-.76 1.314a34.634 34.634 0 00-1.052 3.377c-.38-.09-.76-.15-1.169-.239l.175-.896c.117-.658.322-1.405.497-2.182.527-.06 1.053-.09 1.55-.06zM7.98 48.35c-.117.12-.204.24-.321.359a.945.945 0 01-.41 0c-.438-.09-.905-.329-1.285-.598.38-.418.818-.837.993-1.375.03-.09-.117-.12-.146-.06-.175.538-.614.927-.994 1.345-.058-.03-.116-.06-.146-.12-.058-.059-.117-.089-.204-.149.117-.149.204-.298.321-.478.059-.09-.087-.15-.146-.06-.088.15-.175.3-.292.449a3.784 3.784 0 01-.643-.747c.292-.389.555-.777.847-1.166.263-.358.497-.388.439-.806-.03-.12-.176-.09-.176 0 .059.358-.613.956-.789 1.195-.146.18-.292.388-.438.567a1.879 1.879 0 01-.234-.717c.497-.567.994-1.105 1.55-1.613.087-.09-.06-.21-.147-.12-.497.448-.965.956-1.432 1.434-.03-.328 0-.657.058-1.045.643-.688 1.286-1.375 1.842-2.152.058-.09-.059-.18-.117-.09-.526.688-1.11 1.315-1.695 1.943.087-.478.116-.956.146-1.464l1.49-1.614c.03-.03-.029-.06-.058-.03-.468.508-.906 1.016-1.403 1.524.03-.448.146-.926.146-1.345.585-.358.79-.836 1.198-1.255.41-.388.848-.687 1.082-1.165.058-.09-.088-.15-.146-.06-.263.538-.906.956-1.316 1.345l-.876.896c.029-.388.058-.777.087-1.135l.03-.03c.555-.538 1.08-1.076 1.636-1.584.41-.358.76-.717 1.023-1.195.03-.09-.088-.15-.117-.06-.292.598-.818 1.016-1.315 1.434-.438.359-.818.777-1.228 1.166.059-.419.117-.837.176-1.285.497-.478.964-.986 1.49-1.435.38-.328.79-.657 1.082-1.105.058-.09-.059-.18-.117-.09-.322.508-.818.837-1.257 1.225-.409.359-.789.717-1.169 1.106.059-.329.117-.657.146-1.016.03-.15.059-.299.059-.418.467-.419.935-.867 1.432-1.255.38-.3.76-.568 1.023-.987.058-.09-.088-.149-.146-.06-.38.568-1.023.927-1.52 1.345-.263.21-.497.449-.76.658.058-.419.146-.837.204-1.255A16.085 16.085 0 007.19 33.2c.088-.12-.058-.24-.146-.15a14.422 14.422 0 01-1.55 1.733c.06-.478.147-.956.235-1.404.643-.598 1.344-1.165 1.783-1.942.058-.12-.117-.21-.176-.09-.38.657-.964 1.195-1.549 1.703.059-.299.088-.627.146-.926.526-.478 1.053-.927 1.55-1.405.087-.09-.06-.209-.147-.12-.467.42-.906.837-1.373 1.286.029-.15.029-.27.058-.419.76-.597 1.666-1.135 2.163-1.882.38.15.789.269 1.198.358l1.93.449c-.264.239-.527.448-.878.597-.116.06-.058.24.059.18.409-.15.73-.419 1.023-.747.234.06.467.119.701.149-.058.299-.087.598-.146.896-.38 2.6-.964 5.17-1.549 7.74-.584 2.57-.964 5.2-1.695 7.71-.146.538-.38 1.225-.819 1.554 0-.03.03-.03.03-.06.175-.03.029-.15-.059-.06zM6.693 29.853c.234-.21.526-.359.76-.598.205.09.439.18.643.24-.409.597-1.169 1.045-1.695 1.463-.088.06-.146.12-.234.18l.176-.986c.087-.09.204-.18.35-.3zm-.321.03c0-.15.029-.33.058-.479 0-.06.03-.119.03-.179l.233-.239c.176.09.38.15.556.24-.263.208-.614.418-.877.657zm5.991.328a3 3 0 01-.496-.12c.116-.149.204-.268.321-.388.058-.09-.058-.179-.117-.09-.146.15-.263.3-.41.449-.32-.06-.642-.15-.964-.21.76-.657 1.52-1.284 2.134-2.091-.146.837-.322 1.643-.468 2.45zm.556-2.779c-.673.897-1.52 1.614-2.368 2.301-.029.03-.029.06-.029.09-.234-.06-.497-.09-.73-.15-.965-.209-1.9-.597-2.806-.986.38-.358.76-.717 1.227-.926.088-.06.059-.21-.058-.18-.526.24-.965.628-1.374 1.017-.059-.03-.088-.03-.146-.06h-.03c.03-.12.059-.269.088-.389.41-.418.819-.806 1.228-1.225.643.09 1.257.24 1.841.3.146.029.292.029.41.029.525.06 1.051.06 1.607.03-.439.448-.877.866-1.403 1.225-.088.06 0 .24.117.15.584-.389 1.052-.897 1.52-1.405.321-.03.614-.03.935-.06 0 .12 0 .18-.03.24zm-5.875-.448c.03-.03.088-.06.117-.12.205 0 .41.03.584.06-.321.3-.643.598-.964.927.088-.3.175-.568.263-.867zm-.555 1.165l-.234.24c-.146-.09-.322-.18-.439-.27l-.029-.03a13.5 13.5 0 01.994-.836 6.401 6.401 0 00-.292.896zm2.046-1.374c.467.03.964.03 1.432.15.146.03.292.059.438.059-.03.03-.058.03-.058.06-.643-.06-1.228-.15-1.812-.27zm2.046.299c.029-.03.058-.03.058-.06.38.03.76.06 1.14.06-.35.03-.702.03-1.082 0h-.116zm2.484-.33h-.526c.234-.238.497-.477.643-.776-.03.269-.088.508-.117.777zm.117-1.224l-.03.03c.03.478-.467.866-.818 1.195H11.02c.73-.538 1.461-1.106 2.104-1.733.059.179.059.328.059.508zm-.76-2.062c-.292.359-.702.627-1.023.926-.497.448-.994.897-1.461 1.345-.088.09.058.21.146.12.584-.538 1.169-1.106 1.753-1.614.263-.21.497-.418.702-.688.146.15.234.33.35.538-.876.658-1.636 1.405-2.571 2.002-.117.06 0 .24.116.18.906-.568 1.666-1.345 2.514-2.002.03.06.03.09.058.15.059.149.088.328.117.507h-.058c-.73.687-1.55 1.255-2.338 1.823h-.176c-.555-.06-1.11-.24-1.666-.299-.35-.03-.73-.03-1.081-.06.497-.388.994-.806 1.461-1.225.03 0 .03 0 .059-.03.847-.657 1.549-1.494 2.426-2.121.233.12.467.269.672.448zm-3.887.03c.35-.24.789-.359 1.198-.448.438-.12.848-.18 1.257-.15l.438.18c-.789.597-1.461 1.344-2.221 1.942-.03 0-.03.03-.03.06-.525.448-1.11.866-1.695 1.314-.058 0-.117-.03-.175-.03l.263-.717.263-.627c.38-.359.79-.658 1.228-.837-.176.12-.322.269-.468.389-.058.06 0 .149.059.09.613-.36 1.169-.897 1.753-1.346.059-.06 0-.179-.087-.12-.41.3-.79.628-1.199.927.03-.06-.03-.15-.088-.12-.38.15-.701.39-1.023.658a4.28 4.28 0 00.234-.538c.088-.299.176-.478.293-.627zm-2.163 3.048c.263-.3.555-.658.877-1.016.029 0 .058.03.087 0-.087.269-.204.508-.292.777-.03.03-.03.06-.03.12 0 .03-.028.089-.028.119-.176 0-.439 0-.673.03 0 0 .03 0 .059-.03zm-.439.478c.117-.03.205-.06.263-.06.176-.03.351-.06.526-.06-.409.33-.818.628-1.169.987l-.146-.15c-.029-.03-.029-.03-.029-.06.175-.209.38-.448.555-.657zm-1.081 1.584c.03-.12.03-.27.058-.389.088-.09.176-.18.263-.299.03.03.03.06.059.09l.088.09a6.994 6.994 0 00-.468.508zm-.088.508c.234-.27.497-.538.76-.807.146.12.292.209.468.299-.176.15-.35.328-.497.478-.263.239-.555.508-.818.777.029-.24.058-.478.087-.747zm-.234 1.673c.03-.18.059-.358.088-.508v-.06c.38-.418.818-.806 1.228-1.195.117-.09.204-.21.321-.299l.176.09-.088.358-.146.15c-.526.508-1.052.986-1.579 1.464zm-.058.389a60.21 60.21 0 011.403-1.375l.263-.269c-.059.21-.088.418-.117.657l-.73.658c-.322.299-.614.598-.936.896.059-.209.088-.388.117-.567zM4.18 32.9c.058-.27.087-.508.146-.777.321-.299.614-.628.906-.927.234-.239.497-.478.73-.717-.029.24-.087.448-.116.688 0 .09-.03.179-.03.268-.292.24-.555.479-.818.748-.234.239-.526.478-.818.717zm-.205.956c.03-.18.088-.359.117-.538.497-.448.994-.926 1.461-1.404.059-.06.117-.12.205-.18l-.088.449c-.555.567-1.14 1.105-1.695 1.673zm-.088.448c.41-.418.819-.866 1.228-1.285.175-.209.38-.388.585-.568-.059.3-.088.628-.147.927-.146.15-.321.269-.467.418-.468.449-.936.927-1.374 1.375a4.56 4.56 0 01.175-.867zm-.526 2.54c.059-.418.117-.836.205-1.255.555-.538 1.081-1.076 1.637-1.614.087-.09.146-.149.233-.209-.087.478-.146.957-.233 1.435-.585.538-1.228 1.076-1.842 1.643zm-.029.508v-.15c.585-.567 1.228-1.105 1.812-1.673-.058.419-.146.837-.204 1.255-.088.09-.176.15-.263.24a22.15 22.15 0 00-1.462 1.434c.03-.359.088-.747.117-1.106zm-.321 2.869l.175-1.434a31.452 31.452 0 011.724-1.704c-.087.478-.146.957-.233 1.435a45.284 45.284 0 00-1.666 1.703zm-.03.359c.526-.598 1.082-1.166 1.637-1.734 0 .06-.03.12-.03.15-.058.358-.087.717-.145 1.076a86.494 86.494 0 00-1.637 1.613c.058-.328.117-.717.175-1.105zm-.204 1.494l1.666-1.704-.088 1.166-.058.06A52.208 52.208 0 002.6 43.509l.176-1.434zm-.293 2.211c.03-.15.03-.299.059-.448a56.665 56.665 0 011.783-2.032c-.03.239-.03.508-.059.747 0 .209-.029.388-.058.598a113.29 113.29 0 00-1.841 1.912c.058-.269.087-.508.116-.777zm-.204 2.42c0-.478.03-.956.088-1.434l1.84-1.972c-.058.508-.174 1.016-.233 1.554l-.146.15a42.414 42.414 0 00-1.55 1.703zm.175 1.106c-.058-.269-.117-.508-.146-.777.497-.567.965-1.135 1.462-1.673l.175-.18c-.03.21-.03.389-.03.598 0 .12 0 .27.03.389a19.677 19.677 0 00-1.49 1.643zm.41 1.016a4.909 4.909 0 01-.322-.687c0-.03 0-.03-.03-.06.498-.568.965-1.106 1.462-1.673.059.239.175.448.322.687-.088.09-.147.21-.234.299-.38.478-.79.956-1.199 1.434zm.672.837a2.703 2.703 0 01-.526-.628c.467-.567.964-1.165 1.432-1.733.175.27.409.478.672.688-.526.567-1.11 1.075-1.578 1.673zm.526.388c-.146-.09-.263-.179-.41-.269.468-.597 1.053-1.105 1.55-1.703.117.09.204.15.321.24l-.058.059a82.752 82.752 0 00-1.403 1.673zm.701.419c-.175-.12-.321-.21-.497-.329A41.54 41.54 0 005.7 48.379c.233.15.496.299.76.418-.497.658-1.14 1.136-1.696 1.674zm.73.508c-.204-.12-.408-.24-.584-.359.556-.568 1.199-1.076 1.666-1.703.205.09.41.18.585.209.03 0 .058 0 .088.03-.585.568-1.199 1.165-1.754 1.823zm13.68.717c-.76 1.046-2.076 1.225-3.245 1.315-1.286.09-2.513-.03-3.77-.18l.058-.06c.059-.06-.058-.179-.117-.089l-.146.15h-.088c-.35-.03-.7-.09-1.052-.15.322-.269.643-.538.965-.837.088-.09-.059-.179-.146-.12-.351.3-.76.569-1.11.897-.264-.06-.527-.09-.79-.15.41-.388.818-.776 1.198-1.224.059-.06-.029-.15-.087-.09-.41.418-.936.807-1.374 1.225l-.702-.18c.293-.298.585-.567.877-.866.088-.09-.058-.209-.146-.12-.321.3-.643.598-.964.927-.059-.03-.117-.03-.176-.06-.117-.03-.263-.09-.409-.12.438-.507.818-1.075 1.315-1.523.059-.06 0-.18-.087-.12-.556.449-.965 1.046-1.433 1.584-.321-.09-.643-.21-.935-.299.702-.747 1.432-1.494 1.988-2.36.058-.09-.088-.15-.146-.06-.556.896-1.374 1.584-2.105 2.33l-.877-.358c.556-.657 1.199-1.285 1.783-1.913 1.666.12 2.075-3.197 2.31-4.273l1.665-7.799c.468-2.152.79-4.303 1.17-6.425.38.09.76.15 1.14.24-.205.806-.38 1.613-.527 2.42-.468 2.57-.994 5.11-1.49 7.65-.41 2.062-1.053 4.452-.556 6.544.175.717.146 1.434.76 1.942.672.538 1.55.747 2.338.568 1.666-.388 1.9-3.287 2.134-4.602.76-4.632 2.046-9.144 2.923-13.746.321.03.643.03.964.06-.497 1.912-.877 3.855-1.315 5.797-.556 2.54-1.315 5.05-1.637 7.65a33.921 33.921 0 01-.204 1.703c-.059.449-.234.897-.234 1.345 0 .717.409 1.285 1.023 1.644.496.299 1.052.478 1.549.06.233-.18.321-.538.409-.778.175-.508.38-1.016.555-1.524.38-1.195.555-2.45.848-3.675.321-1.345.701-2.69 1.023-4.034.614-2.57 1.315-5.14 2.017-7.68a8.22 8.22 0 00.204-.807c.03.18.059.359.03.568-.06.508-.264 1.016-.41 1.524-.175.568-.175 1.136-.38 1.733-.175.538-.263 1.166-.409 1.733-.555 2.45-.935 4.931-1.637 7.351-.35 1.226-.701 2.42-1.081 3.616-.176.568-.41 1.106-.585 1.674-.117.657-.438 1.374-.877 1.972zM9.119 18.05c-.76.119-1.462.477-2.163.746-.497.18-1.081.448-1.257.986 0 .03.03.09.059.12.058.03.087.03.146.06.087.03.175-.09.087-.15-.292-.209 1.111-.867 1.287-.926.613-.24 1.198-.538 1.87-.658.088-.03.088-.209-.03-.179zm.731.417c-.906.33-1.783.807-2.69 1.166-.642.269-1.402.598-1.665 1.315-.03.06 0 .12.058.15.059.029.088.059.146.059.117.06.205-.12.088-.18-.35-.209 1.666-1.255 1.812-1.314.79-.329 1.52-.747 2.28-1.136.03-.03 0-.06-.03-.06zm.292.479c-.819.328-1.55.866-2.338 1.314-.848.478-1.666.897-2.368 1.554-.087.09.059.24.146.15.702-.628 1.52-1.076 2.31-1.554.76-.448 1.46-.986 2.28-1.345.087-.03.057-.15-.03-.12zm-.087.508c-.906.776-1.93 1.434-2.952 2.061-.819.508-1.637 1.046-2.105 1.943-.058.15.146.239.205.09.555-.987 1.549-1.524 2.455-2.122.877-.568 1.724-1.166 2.484-1.853.088-.03 0-.18-.087-.12zm-4.882 5.11c-.234-.24 4.15-3.527 4.443-3.945.03-.06-.03-.12-.088-.09-.321.389-.877.718-1.286 1.016-.409.33-.789.628-1.198.957-.79.597-1.55 1.195-2.163 1.972-.058.06-.03.15.03.18.028.03.058.03.087.059.146.12.234-.06.175-.15zm4.092-3.078c-.906.298-1.55 1.045-2.221 1.673-.526.508-1.111.986-1.608 1.494-.467.478-.672 1.106-1.169 1.554-.088.09 0 .24.117.15.321-.21.526-.509.73-.837.351-.598.848-1.046 1.345-1.524.848-.807 1.812-2.002 2.923-2.361.03-.03 0-.18-.117-.15z"/><path d="M18.472 32.602c-.439.359-.935.657-1.374.956-.117.06 0 .24.117.18.468-.33.935-.628 1.374-.987.058-.09-.03-.209-.117-.15zm-2.075 5.618c-.059-.03-.117.06-.059.09.059.06.117-.06.059-.09zM12.1 30.75c-.263.268-.526.567-.818.806-.205.18-.439.299-.585.538-.029.06.059.12.088.06.205-.21.438-.389.643-.568.263-.24.497-.538.73-.777.088-.03 0-.12-.058-.06zm-1.227 2.33l-.03.06c.293.15.322.09.03-.06zm-.322 2.152c-.117-.06-.233.149-.087.209.117.06.204-.12.087-.21zm13.708-10.459c-.497.508-1.11.896-1.49 1.494-.059.09.087.18.146.09.38-.598.964-.987 1.402-1.525.03-.06-.029-.12-.058-.06zm.263 2.36c-.38.598-.877 1.046-1.432 1.465-.088.06 0 .239.117.149.584-.448 1.081-.926 1.461-1.554.03-.06-.088-.12-.146-.06zm-.614 4.722c-.35.687-1.257.747-1.637 1.404-.058.12.117.18.176.09.35-.657 1.257-.747 1.549-1.434.058-.09-.03-.12-.088-.06zm-1.257 3.406c-.233.15-.467.27-.701.359-.117.03-.058.21.058.18.264-.12.497-.24.731-.39.088-.089 0-.208-.088-.149zm.293.569c-.293.477-.819.657-1.287.776-.087.03-.029.12.03.12.497-.15 1.052-.389 1.315-.867.03-.03-.03-.06-.058-.03zm-2.221 4.72c-.088-.06-.176.09-.059.15.088.06.146-.09.059-.15zm-3.333-2.33c-.292.448-.847.627-1.11 1.135-.059.12.117.21.175.09.234-.478.79-.687 1.082-1.136.058-.09-.088-.179-.146-.09zm-.672 2.27c-.204.12-.38.33-.584.45-.059.03 0 .119.058.089.205-.12.35-.329.555-.478.059-.03 0-.09-.029-.06zm-.497 1.615c0-.06-.058-.06-.087-.03-.059.179-.176.298-.351.328-.059.03-.03.12.03.12.233-.06.35-.21.408-.418zm-.906 1.375l-.029.03c.292.178.322.119.03-.03zm2.28-41.986c-1.315.389-2.455 1.375-3.098 2.6-.059.09.088.18.146.09.672-1.166 1.724-2.122 3.01-2.51.117-.03.059-.21-.058-.18z"/><path d="M16.66 2.69c-1.345.627-2.31 1.882-3.01 3.197-.06.09.087.18.145.09.731-1.256 1.579-2.48 2.923-3.108.059-.06.03-.21-.058-.18zm-.175.747c-.41.687-1.111 1.045-1.666 1.613-.527.538-1.053 1.196-1.316 1.913-.029.09.117.179.146.09.351-.778.848-1.435 1.433-2.033.496-.508 1.14-.836 1.52-1.494.029-.12-.088-.18-.117-.09zm-.293.926c-.438.657-1.023 1.195-1.52 1.823-.409.538-.7 1.165-.964 1.793-.058.12.117.179.175.09.351-.688.673-1.345 1.111-1.973.41-.568.935-1.016 1.315-1.614.059-.09-.058-.209-.117-.12zm-.175 1.434c-.497 1.106-1.374 2.002-1.871 3.138-.058.12.117.21.175.09.322-.658.643-1.256 1.053-1.853.292-.419.584-.807.789-1.285.087-.12-.088-.21-.146-.09zm.673 1.255c.028-.09-.088-.179-.147-.06-.468 1.106-1.344 1.913-1.958 2.929-.059.09.087.18.146.09.672-.986 1.52-1.823 1.958-2.959zm.028 1.136c.059-.09-.088-.18-.146-.06-.35.717-.79 1.315-1.257 1.912-.234.3-.497.688-.35 1.076.058.12.204.06.175-.06-.146-.478.409-.986.672-1.344.38-.448.643-.986.906-1.524zm0 1.076c0-.09-.175-.09-.146 0 .03.239-.35.806-.497 1.016-.146.298-.321.567-.467.866-.059.12.116.21.175.09.175-.389.409-.777.584-1.196.205-.268.41-.418.351-.776zm.38 1.165c.059-.09-.058-.21-.117-.12-.409.628-.964 1.166-1.11 1.913v.06c-.41.538-1.199.896-1.754 1.255-.292.209-.877.538-.76.986.03.09.146.06.117-.03-.088-.478.818-.926 1.14-1.165.438-.3.994-.568 1.315-1.016.03 0 .088 0 .117-.06.146-.688.643-1.225 1.052-1.823zm.117 1.165c0-.06-.087-.09-.087-.03-.03.24-.059.449-.146.658-.03.06.058.09.087.03a1.66 1.66 0 00.146-.658zm-.088 1.226c-.058-.03-.087-.06-.146-.06-.029-.03-.058.03-.029.06.058.03.088.06.146.09.03-.03.059-.09.03-.09z"/><path d="M16.485 12.102c-1.023.718-2.105 1.584-2.63 2.78 0-.06-.089-.12-.118-.03-.263.747-.964 1.135-1.49 1.643-.497.478-.965 1.016-1.199 1.644-.029.12.117.18.176.09.38-.807.964-1.465 1.636-2.033.38-.328.731-.627.936-1.046.029.09.146.12.175.03.526-1.255 1.607-2.091 2.63-2.898.059-.09-.029-.24-.116-.18zm-.176.688c-.585.627-1.228 1.225-1.695 1.972-.059.12.117.18.175.09.439-.718 1.082-1.315 1.637-1.943.117-.09-.03-.209-.117-.12zm.058 1.344c0-.03-.058-.06-.058-.03a1.735 1.735 0 01-.79.867c-.087.03-.028.15.06.09.32-.18.672-.538.788-.927zm-.467 1.614c-.03 0-.059.03-.03.03.059.03.059-.03.03-.03zm-3.303-1.494c-.818.24-1.636.418-2.426.747-.876.359-1.666.807-2.542 1.195-.088.03-.059.18.058.15.79-.299 1.52-.717 2.28-1.076.847-.418 1.783-.598 2.66-.956.029 0 0-.06-.03-.06zm.497.06c-1.49.538-2.835 1.464-4.296 2.091-.117.06-.059.24.058.21 1.11-.478 2.134-1.136 3.215-1.674-1.023.568-2.25 1.196-2.747 2.212-.059.12.117.179.175.09.73-1.166 2.28-1.794 3.39-2.51.059-.03.059-.12.03-.15.087-.03.146-.06.233-.09.059-.09.03-.21-.058-.18zm.409.209c-.993 1.345-2.63 2.002-3.507 3.466-.058.12.117.21.175.09.877-1.434 2.485-2.092 3.45-3.437.058-.09-.06-.209-.118-.119zm.585 1.046c-.702 1.076-1.958 1.882-2.426 3.078-.059.12.146.209.175.09.497-1.196 1.695-2.003 2.368-3.078.058-.09-.059-.18-.117-.09zm.146.418c-.03-.09-.175-.06-.146.03.088.448-.263.717-.497 1.046-.292.448-.526.956-.76 1.464-.058.12.146.24.205.09.292-.628.555-1.225.964-1.763.176-.299.293-.538.234-.867zm.292 1.315c-.205.418-.497.747-.701 1.136-.059.09.087.179.146.09.263-.36.555-.718.73-1.136.03-.12-.146-.21-.175-.09zm.117 1.494c-.03-.06-.117 0-.088.06.059.15.03.329-.058.448-.059.06.058.18.117.09a.552.552 0 00.029-.598zm7.19-15.419c-.146-.508-.468-.837-1.023-.897-.438-.03-1.023.24-1.169.688-.058.149.088.418.146.537.292.568.292.957.088 1.554-.175.538-.439 1.196-.088 1.704.234.358.935.179 1.228 0 .409-.24.701-.718.935-1.136.438-.657.906-2.032-.117-2.45zm-1.461 3.526c-.906.12 0-2.152-.03-2.54 0-.21-.146-.419-.233-.598-.234-.478-.117-.777.35-.986.585-.239 1.023.15 1.228.657-.03.06 0 .12.058.15 1.199.717-.35 3.167-1.373 3.317zm0 2.331c-.088.03-.146.09-.234.15-.205.119-.205-.12-.117-.24.03-.06-.03-.09-.058-.06-.146.12-.234.359-.03.508.176.12.38-.06.556-.15.146-.119.029-.298-.117-.208zm-.819 2.6c.059-.15-.117-.24-.204-.09-.03.06-.059.09-.088.15-.088.149.175.268.234.119 0-.09.029-.12.058-.18z"/></g><defs><clipPath id="clip0"><path fill="#fff" d="M0 0h28v56H0z"/></clipPath></defs></svg>