<svg width="36" height="36" fill="none" xmlns="http://www.w3.org/2000/svg"><path d="M30.713 5.858C25.149.21 17.677-.454 16.564.21c-1.113.665 6.041 4.818 4.77 11.795-1.272 6.977-4.134 6.977-6.2 7.807-2.067.831-.636 1.828.635 2.16 1.272.498.477 2.16-.477 3.488-1.112 1.33-2.225 1.828-2.225 1.828s.477.664 1.908.997c2.543.332 3.815-.166 3.815-.166s-1.113.996-3.498.83c-2.225-.166-2.861-1.163-2.861-1.163s-1.113.83-4.61 2.16c-3.498 1.329-7.313-.332-7.79.83-.477 1.163 4.61 3.987 9.38 4.818 4.769.83 8.266.332 12.876-.997 5.564-1.495 10.333-6.146 12.559-11.628 2.226-5.648 1.43-11.297-4.133-17.11zm-2.067 12.958c-.954.664-2.384.83-3.974.332-1.431-.665-1.272-1.994-.636-2.658 0 0 .318 1.163 2.066 1.495 1.908.166 3.498.166 2.544.83zM5.413 2l1.92 3.667L11 7.587l-3.667 1.92L5.413 13l-1.92-3.492L0 7.588l3.492-1.921L5.412 2z" fill="#fff"/><path d="M5 17l1.05 2L8 20.077 6.05 21 5 23l-1.05-2L2 20.077 3.95 19 5 17z" fill="#fff"/></svg>