<svg width="93" height="76" fill="none" xmlns="http://www.w3.org/2000/svg"><path d="M81.838 13.04C70.092 1.403 54.318.034 51.968 1.403c-2.348 1.369 12.754 9.926 10.069 24.301-2.685 14.376-8.726 14.376-13.089 16.087-4.362 1.712-1.342 3.766 1.343 4.45 2.685 1.027 1.007 4.45-1.007 7.188-2.35 2.738-4.698 3.765-4.698 3.765s1.006 1.369 4.027 2.054c5.37.684 8.054-.343 8.054-.343s-2.349 2.054-7.383 1.712c-4.698-.343-6.04-2.396-6.04-2.396s-2.35 1.711-9.733 4.45c-7.384 2.738-15.438-.685-16.445 1.71-1.007 2.397 9.732 8.215 19.8 9.927 10.069 1.711 17.452.684 27.185-2.054 11.746-3.08 21.814-12.664 26.513-23.96 4.698-11.637 3.02-23.274-8.726-35.254zm-4.363 26.698c-2.014 1.369-5.034 1.711-8.39.684-3.02-1.369-2.685-4.107-1.343-5.476 0 0 .672 2.396 4.363 3.08 4.027.343 7.384.343 5.37 1.712zM21.825 5.034l3.842 7.452L33 16.389l-7.333 3.903-3.842 7.096-3.84-7.096L11 16.389l6.984-3.903 3.841-7.452zM6.5 35.517l2.275 4.742L13 42.812l-4.225 2.189L6.5 49.742l-2.275-4.741L0 42.812l4.225-2.553L6.5 35.517z" fill="#fff"/></svg>