<svg width="56" height="48" fill="none" xmlns="http://www.w3.org/2000/svg"><g clip-path="url(#clip0)" fill="#F25384"><path d="M39.138 3.622c-.162-.392-.324-.816-.486-1.207-.097-.261-.324-.425-.584-.327-.227.066-.454.36-.324.588.162.391.324.815.486 1.207.098.261.325.424.584.326.227-.032.422-.326.324-.587z"/><path d="M38.814 2.675c-.94-3.002-5.026-2.708-7.49-2.643-3.99.098-7.978.718-11.772 1.99C12.808 4.34 6.842 8.777 3.21 15.01c-3.47 6.036-4.28 13.41-1.687 19.937 2.692 6.722 8.593 10.899 15.5 12.367 8.69 1.827 18.03-.033 25.844-4.144.486-.261.162-1.044-.39-.881-8.462 2.643-18.58.326-23.638-7.44-2.367-3.687-3.502-8.288-2.756-12.66.778-4.471 3.567-8.289 6.971-11.128C27.4 7.406 32.75 5.285 37.938 3.197c.584-.228.324-1.175-.26-.946-8.949 3.59-19.812 8.288-22.309 18.73-2.14 8.94 3.276 18.175 11.512 21.634 5.058 2.121 10.733 2.22 15.921.587l-.39-.88c-11.348 5.938-30.35 8.092-38.327-4.504-7.49-11.812-.616-26.463 10.7-32.63 3.6-1.958 7.556-3.198 11.61-3.786a42.095 42.095 0 016.063-.424c1.751 0 4.767-.163 5.415 1.925.195.62 1.135.392.94-.228z"/><path d="M33.562 24.538c.616-1.925 1.264-3.85 1.88-5.775a7.997 7.997 0 00-.875.13 39.324 39.324 0 012.043 4.634c.097.294.421.457.713.294a41.19 41.19 0 014.831-2.317c-.194-.098-.389-.229-.583-.327.389.98-1.427 2.122-2.01 2.676-.617.588-1.2 1.24-1.525 2.023-.227.555-.356 1.11-.291 1.697.064.75 1.491 2.545 1.07 3.067h.68c-1.07-.848-2.107-1.794-3.21-2.577-.389-.261-.778-.555-1.264-.425-.746.196-1.46 1.273-1.946 1.762-.973 1.045-1.978 2.056-2.95 3.1.259.066.55.131.81.229-.26-1.37.713-2.317 1.362-3.361.26-.424.68-.979.389-1.534-.227-.424-.68-.457-1.102-.555-1.362-.293-2.757-.489-4.119-.717.065.26.13.554.227.815 1.557-1.337 3.34-2.251 5.318-2.773.616-.163.357-1.11-.26-.947a14.558 14.558 0 00-5.739 3.035c-.259.229-.13.75.227.816 1.07.196 2.108.359 3.178.555.292.065 1.232.065 1.33.391.065.163-.584.849-.681.98-.746 1.109-1.33 2.153-1.038 3.523.065.36.584.457.81.229 1.2-1.24 2.4-2.513 3.6-3.753.486-.522.422-.652 1.135-.49.519.099.81.392 1.2.719.68.554 1.362 1.109 2.075 1.664.194.163.519.228.68 0 .487-.588.552-1.142.26-1.893-.13-.359-.421-.62-.648-.946-.681-1.142-.39-2.22.421-3.198.908-1.142 3.73-2.578 2.984-4.405-.098-.229-.325-.457-.584-.326-1.751.685-3.437 1.468-5.059 2.414.227.098.487.196.714.294a46.074 46.074 0 00-2.14-4.862c-.195-.392-.779-.261-.876.13-.616 1.926-1.264 3.85-1.88 5.776-.292.588.648.849.843.229zm8.106-16.315c-.032-.392-.227-2.317.519-2.154.26.066.81 1.73 1.037 1.99.325.392.422.556.94.556.779-.033 1.784-.914 2.497-1.175 1.233-.424.65.293.098 1.044-.551.816-1.265 1.37-2.108 1.827-.065.033-.065.13-.032.196.13.163 1.2 1.73 1.394 1.566.032-.032-1.038-.326-1.038-.326-.616-.065-1.264.065-1.816.294-.55.26-1.07.652-1.426 1.175-.033.032-.454.978-.454.978-.422.13.227-2.545.292-2.708.032-.065 0-.163-.065-.196-.162-.032-3.243-.587-3.243-.587 0-.033 2.724-1.273 2.983-1.403.13-.066.033-.294-.13-.196a46.806 46.806 0 01-3.437 1.599c-.13.065-.13.228.033.228.973.033 3.34-.13 3.34 1.077 0 .979-.227 1.599.162 2.578.032.098.227.13.227 0 .324-2.186 2.886-3.328 4.734-2.154.13.066.227-.098.162-.196-.389-.489-1.394-1.305-1.135-1.99.065-.196 1.006-.75 1.135-.914.714-.718 1.135-1.599 1.427-2.545.032-.098-.097-.196-.195-.13-1.102.522-2.205 1.305-3.437 1.272-.972-.032-.875-.196-1.297-1.011-.26-.49-.486-1.012-.713-1.534-.032-.098-.162-.065-.195 0-.486.914-.648 1.762-.519 2.806.033.196.292.196.26.033zm8.171 20.623c-.033-.392-.227-2.317.519-2.154.26.065.81 1.73 1.037 1.99.324.392.422.555.94.555.779-.033 1.784-.914 2.498-1.175 1.232-.424.648.294.097 1.044-.551.816-1.265 1.371-2.108 1.828-.065.032-.065.13-.032.196.13.163 1.2 1.73 1.394 1.566.032-.033-1.038-.326-1.038-.326-.616-.066-1.264.065-1.816.293-.55.261-1.07.653-1.426 1.175-.033.033-.454.979-.454.979-.422.13.227-2.545.291-2.708.033-.066 0-.164-.064-.196-.162-.033-3.243-.588-3.243-.588 0-.032 2.724-1.272 2.983-1.403.13-.065.033-.293-.13-.195a46.743 46.743 0 01-3.437 1.598c-.13.066-.13.229.033.229.973.033 3.34-.13 3.34 1.077 0 .979-.227 1.599.162 2.578.032.097.227.13.227 0 .324-2.187 2.886-3.329 4.734-2.154.13.065.227-.098.162-.196-.389-.49-1.394-1.305-1.135-1.99.065-.196 1.006-.75 1.135-.914.714-.718 1.135-1.599 1.427-2.545.032-.098-.097-.196-.195-.13-1.102.521-2.205 1.304-3.437 1.272-.973-.033-.875-.196-1.297-1.012-.26-.49-.486-1.011-.713-1.533-.033-.098-.162-.066-.195 0-.486.913-.648 1.762-.519 2.806.065.163.292.163.26.033zM.81 25.941a19.811 19.811 0 004.572-3.263c.13-.098-.064-.293-.162-.163a19.213 19.213 0 01-4.54 3.23c-.129.033 0 .262.13.196zM.486 28.16c1.427-1.402 2.854-2.773 4.28-4.176.098-.098-.064-.294-.162-.163-1.426 1.403-2.853 2.773-4.28 4.177-.13.097.032.293.162.163zm.227 2.513a55.491 55.491 0 015.643-5.417c.13-.098-.065-.26-.162-.163-2.01 1.664-3.892 3.492-5.675 5.417-.097.13.065.294.194.163zm.649 1.957c2.075-1.729 4.15-3.426 6.226-5.155.13-.098-.065-.261-.162-.163-2.075 1.73-4.15 3.426-6.226 5.156-.13.065.032.26.162.163zm.94 1.632a15.64 15.64 0 014.702-3.687c.13-.066.032-.294-.13-.196a14.775 14.775 0 00-4.766 3.72c-.098.098.097.294.194.163zm.713 2.318a32.017 32.017 0 015.643-5.059c.13-.098 0-.293-.13-.195a31.284 31.284 0 00-5.675 5.09c-.13.13.033.294.162.163zm.65 2.316c2.01-2.284 4.28-4.21 6.874-5.743.13-.065 0-.294-.13-.196a29.68 29.68 0 00-6.939 5.808c-.065.098.097.261.195.131zm2.269.653c1.492-1.893 3.243-3.492 5.286-4.764.13-.098 0-.294-.13-.196a21.378 21.378 0 00-5.318 4.796c-.097.13.065.294.162.164zm0 .946c2.302-1.828 4.572-3.655 6.874-5.45.13-.098-.065-.26-.162-.163-2.302 1.828-4.572 3.655-6.874 5.45-.13.097.065.26.162.163zm2.01 1.435c2.53-1.305 4.8-2.936 6.778-4.96.097-.097-.065-.293-.163-.162a25.511 25.511 0 01-6.712 4.927c-.162.065-.032.26.097.196zm1.492.784c2.432-1.893 4.864-3.753 7.329-5.645.13-.098 0-.294-.13-.196-2.432 1.893-4.864 3.752-7.328 5.645-.13.098 0 .294.13.196zm1.654 1.37a26.706 26.706 0 015.642-5.025c.13-.097 0-.293-.13-.195a26.41 26.41 0 00-5.707 5.057c-.065.13.097.294.194.163zm.422 1.436c2.4-1.73 4.766-3.459 7.166-5.188.13-.098 0-.294-.13-.196-2.4 1.73-4.767 3.459-7.166 5.188-.13.066 0 .294.13.196zm3.274.947c2.075-1.6 4.15-3.23 6.193-4.83.13-.098-.064-.26-.162-.163-2.075 1.599-4.15 3.23-6.193 4.83-.13.097.032.26.162.163zm1.59.62a58.637 58.637 0 017.198-5.743c.13-.098 0-.294-.13-.196a65.4 65.4 0 00-7.23 5.775c-.13.098.032.294.162.164zm2.594.065c2.627-1.697 4.896-3.785 6.842-6.233.097-.13-.065-.293-.162-.163-1.913 2.447-4.183 4.503-6.777 6.2-.13.065-.033.293.097.196zm1.912.554a32.495 32.495 0 015.61-4.731c.13-.098 0-.294-.13-.196a33.12 33.12 0 00-5.674 4.764c-.097.098.065.294.194.163zm3.534-.652a60.242 60.242 0 014.021-4.144c.13-.098-.065-.294-.162-.163a60.605 60.605 0 00-4.02 4.144c-.13.098.064.26.161.163zm1.687.098c.649-.425 1.297-.881 1.946-1.306.13-.097 0-.293-.13-.195-.648.424-1.297.88-1.945 1.305-.13.065 0 .261.13.196z"/></g><defs><clipPath id="clip0"><path fill="#fff" d="M0 0h56v48H0z"/></clipPath></defs></svg>