<svg width="42" height="36" fill="none" xmlns="http://www.w3.org/2000/svg"><g clip-path="url(#clip0)" fill="#F25384"><path d="M29.354 2.717c-.122-.294-.243-.612-.365-.906-.073-.196-.243-.318-.438-.245-.17.05-.34.27-.243.44.122.295.243.613.365.906.073.196.243.319.438.245.17-.024.316-.245.243-.44z"/><path d="M29.11 2.006C28.405-.246 25.34-.026 23.492.023c-2.991.074-5.983.539-8.828 1.493-5.058 1.738-9.533 5.066-12.257 9.74-2.602 4.528-3.21 10.059-1.265 14.953 2.019 5.042 6.445 8.174 11.625 9.276 6.518 1.37 13.522-.025 19.383-3.108.365-.196.122-.783-.292-.661-6.347 1.982-13.935.245-17.729-5.58-1.775-2.765-2.627-6.216-2.067-9.495.584-3.353 2.675-6.217 5.229-8.346 3.258-2.74 7.271-4.332 11.162-5.898.438-.171.244-.88-.194-.71-6.712 2.692-14.86 6.217-16.732 14.048-1.605 6.706 2.456 13.631 8.633 16.226 3.794 1.59 8.05 1.664 11.941.44l-.292-.66c-8.512 4.453-22.763 6.069-28.745-3.378-5.618-8.86-.462-19.848 8.025-24.473 2.7-1.468 5.667-2.398 8.707-2.839 1.507-.22 3.04-.318 4.547-.318 1.314 0 3.575-.122 4.062 1.444.146.465.85.294.705-.171z"/><path d="M25.171 18.404c.462-1.444.949-2.888 1.41-4.332a6.044 6.044 0 00-.656.098 29.507 29.507 0 011.532 3.475c.073.22.316.343.535.22a30.884 30.884 0 013.624-1.737c-.146-.073-.292-.171-.438-.245.292.735-1.07 1.591-1.508 2.007-.462.44-.9.93-1.143 1.517-.17.416-.267.832-.219 1.273.049.563 1.12 1.909.803 2.3h.51c-.802-.636-1.58-1.346-2.407-1.933-.292-.196-.584-.416-.948-.318-.56.147-1.095.954-1.46 1.322-.73.783-1.483 1.541-2.213 2.325.195.048.414.097.608.17-.194-1.027.535-1.737 1.022-2.52.194-.318.51-.734.292-1.15-.17-.318-.511-.343-.827-.416-1.022-.22-2.067-.367-3.089-.539.049.196.097.416.17.612a9.922 9.922 0 013.989-2.08c.462-.122.267-.832-.195-.71-1.63.44-3.04 1.2-4.304 2.276-.195.172-.098.563.17.612.802.147 1.58.27 2.383.416.219.05.924.05.997.294.049.122-.438.636-.51.734-.56.832-.998 1.615-.779 2.643.049.27.438.343.608.171.9-.93 1.8-1.884 2.7-2.814.365-.392.316-.49.851-.367.39.073.608.294.9.538.51.416 1.021.832 1.556 1.248.146.123.39.172.511 0 .365-.44.413-.856.194-1.419-.097-.27-.316-.465-.486-.71-.51-.856-.292-1.664.316-2.398.681-.857 2.797-1.933 2.238-3.304-.073-.171-.244-.343-.438-.245a26.987 26.987 0 00-3.794 1.811c.17.074.365.147.535.22a34.54 34.54 0 00-1.605-3.646c-.146-.294-.584-.196-.657.098-.462 1.444-.948 2.888-1.41 4.332-.219.44.486.636.632.171zM31.25 6.167c-.023-.293-.17-1.737.39-1.615.195.049.608 1.297.778 1.493.243.294.316.416.706.416.583-.024 1.337-.685 1.872-.881.924-.318.487.22.073.783-.413.612-.948 1.028-1.58 1.37-.05.025-.05.099-.025.147.097.123.9 1.298 1.046 1.175.024-.024-.779-.245-.779-.245-.462-.049-.948.05-1.361.22-.414.196-.803.49-1.07.882-.025.024-.34.734-.34.734-.317.098.17-1.909.218-2.031.024-.05 0-.123-.049-.147a664.69 664.69 0 00-2.432-.44c0-.025 2.043-.955 2.238-1.053.097-.049.024-.22-.098-.147-.85.44-1.702.832-2.577 1.2-.098.048-.098.17.024.17.73.025 2.505-.097 2.505.808 0 .734-.17 1.2.121 1.934.025.073.17.098.17 0 .244-1.64 2.165-2.497 3.551-1.616.098.05.17-.073.122-.146-.292-.368-1.046-.98-.851-1.493.048-.147.754-.563.851-.686.535-.538.851-1.199 1.07-1.909.024-.073-.073-.146-.146-.097-.827.391-1.654.979-2.578.954-.73-.024-.656-.147-.973-.759a16.586 16.586 0 01-.535-1.15c-.024-.073-.121-.049-.146 0a3.322 3.322 0 00-.389 2.105c.025.147.22.147.195.024zm6.13 15.467c-.025-.293-.17-1.737.389-1.615.194.049.608 1.297.778 1.493.243.294.316.416.705.416.584-.025 1.338-.685 1.873-.881.924-.318.486.22.072.783-.413.612-.948 1.028-1.58 1.37-.049.025-.049.098-.025.147.098.123.9 1.297 1.046 1.175.025-.024-.778-.245-.778-.245-.462-.049-.949.05-1.362.22-.413.196-.802.49-1.07.882-.024.024-.34.734-.34.734-.317.098.17-1.91.218-2.031.025-.05 0-.123-.048-.147a705.75 705.75 0 00-2.432-.44c0-.025 2.043-.955 2.237-1.053.097-.05.024-.22-.097-.147a35.08 35.08 0 01-2.578 1.2c-.097.048-.097.17.024.17.73.025 2.505-.097 2.505.808 0 .734-.17 1.2.122 1.934.024.073.17.097.17 0 .243-1.64 2.165-2.497 3.55-1.616.098.05.171-.073.122-.147-.291-.367-1.045-.978-.85-1.492.048-.147.753-.563.85-.686.535-.538.852-1.199 1.07-1.909.025-.073-.072-.146-.145-.098-.827.392-1.654.98-2.578.955-.73-.024-.657-.147-.973-.759a16.151 16.151 0 01-.535-1.15c-.024-.073-.122-.049-.146 0a3.322 3.322 0 00-.39 2.105c.05.122.22.122.195.024zM.608 19.456a14.855 14.855 0 003.43-2.447c.097-.074-.05-.22-.122-.122A14.411 14.411 0 01.51 19.309c-.097.025 0 .196.097.147zM.365 21.12c1.07-1.052 2.14-2.08 3.21-3.132.073-.074-.049-.22-.122-.122-1.07 1.052-2.14 2.08-3.21 3.132-.097.073.025.22.122.122zm.17 1.885a41.624 41.624 0 014.231-4.063c.098-.073-.048-.195-.121-.122-1.508 1.248-2.918 2.619-4.256 4.062-.073.098.049.22.146.123zm.487 1.468c1.556-1.297 3.113-2.57 4.669-3.867.097-.073-.049-.195-.122-.122-1.556 1.297-3.113 2.57-4.669 3.867-.097.049.024.196.122.122zm.704 1.224a11.731 11.731 0 013.527-2.766c.097-.049.024-.22-.098-.147a11.08 11.08 0 00-3.575 2.79c-.073.074.073.22.146.123zm.536 1.737a24.012 24.012 0 014.231-3.793c.098-.073 0-.22-.097-.147a23.463 23.463 0 00-4.256 3.818c-.097.098.025.22.122.122zm.486 1.738c1.508-1.713 3.21-3.157 5.156-4.307.097-.05 0-.22-.098-.147a22.26 22.26 0 00-5.204 4.356c-.049.074.073.196.146.098zm1.702.489a15.377 15.377 0 013.965-3.573c.097-.073 0-.22-.097-.147a16.034 16.034 0 00-3.989 3.598c-.073.098.049.22.122.122zm0 .71c1.727-1.37 3.43-2.74 5.156-4.087.097-.073-.049-.196-.121-.122-1.727 1.37-3.43 2.74-5.156 4.087-.098.073.048.196.121.122zm1.508 1.077c1.897-.979 3.6-2.203 5.083-3.72.073-.074-.049-.22-.122-.122A19.132 19.132 0 015.885 31.3c-.121.049-.024.196.073.147zm1.119.587c1.824-1.42 3.648-2.814 5.496-4.234.098-.073 0-.22-.097-.146-1.824 1.419-3.648 2.814-5.496 4.233-.098.074 0 .22.097.147zm1.24 1.028a20.03 20.03 0 014.232-3.769c.097-.073 0-.22-.097-.146a19.807 19.807 0 00-4.28 3.793c-.05.098.072.22.145.122zm.317 1.077c1.8-1.297 3.575-2.594 5.374-3.891.098-.074 0-.22-.097-.147-1.8 1.297-3.575 2.594-5.375 3.891-.097.05 0 .22.098.147zm2.456.71c1.556-1.2 3.112-2.423 4.645-3.622.097-.074-.05-.196-.122-.123-1.556 1.2-3.113 2.423-4.645 3.622-.097.074.024.196.121.123zm1.192.465a43.978 43.978 0 015.399-4.307c.097-.074 0-.22-.097-.147a49.04 49.04 0 00-5.424 4.332c-.097.073.025.22.122.122zm1.945.049a21.273 21.273 0 005.132-4.675c.073-.098-.049-.22-.122-.122a20.954 20.954 0 01-5.083 4.65c-.097.049-.024.22.073.147zm1.435.416a24.37 24.37 0 014.208-3.549c.097-.073 0-.22-.098-.147a24.844 24.844 0 00-4.256 3.573c-.073.074.049.22.146.123zm2.651-.49a45.175 45.175 0 013.015-3.108c.098-.073-.048-.22-.121-.122a45.494 45.494 0 00-3.016 3.108c-.097.073.049.196.122.122zm1.264.074c.486-.319.973-.661 1.46-.98.097-.073 0-.22-.098-.146-.486.318-.973.66-1.46.979-.096.049 0 .196.098.147z"/></g><defs><clipPath id="clip0"><path fill="#fff" d="M0 0h42v36H0z"/></clipPath></defs></svg>