<svg width="51" height="46" fill="none" xmlns="http://www.w3.org/2000/svg"><path d="M43.568 31.433c.023-1.245 1.19-2.26 2.381-1.982.948.207 1.41 1.314.882 2.144-.199-.116-.375-.23-.573-.346.44-.715 1.19-1.614 2.094-1.107.793.461.617 1.568.264 2.283-.198.392-.75.046-.573-.346.309-.646 1.014-1.36 1.653-.623.64.738-.044 1.637-.595 2.122-.33.276-.794-.208-.463-.485.551-.484 1.279-1.014 1.962-.484.793.576.242 1.314-.243 1.868-.573.668-1.124 1.314-1.52 2.12-.287.577-.463 1.2-.75 1.753-.551 1.084-1.389 1.73-2.557 1.937-.948.161-2.314.3-3.13-.37-.815-.668-.75-1.867-.793-2.858-.066-1.752-.485-3.39-1.124-4.98-.552-1.384-1.058-2.72-.728-4.242.088-.438.727-.254.64.184-.464 2.052.925 4.035 1.432 5.971.199.807.33 1.637.419 2.467.088 1.038-.199 2.698 1.058 3.136.837.3 2.402.115 3.152-.323.793-.461 1.124-1.337 1.477-2.144.286-.669.573-1.314.992-1.914.242-.322.485-.622.75-.922.175-.207.352-.392.528-.6-.375-.553-.727-.576-1.058-.092l-.463-.484c.22-.161.397-.368.551-.576-.286-.461-.485-.484-.573-.07-.198-.114-.374-.23-.573-.345.397-.553.154-.922-.705-1.13a3.73 3.73 0 00-.507.669c-.22.369-.794.023-.573-.346-.155-1.107-.551-1.43-1.169-.945-.55.092-.837.46-.86 1.106-.065.392-.727.392-.705-.046z" fill="#50483B"/><path d="M46.368 29.866c.199-1.799.441-3.712-.33-5.395-.64-1.43-1.962-3.02-3.307-3.781-3.218-1.822-6.877 2.098-8 4.956-.155.415-.794.231-.64-.184 1.234-3.066 4.783-7.009 8.31-5.718 1.609.6 2.997 2.214 3.88 3.69 1.167 1.959 1.013 4.195.77 6.408-.066.439-.727.462-.683.024z" fill="#50483B"/><path d="M40.373 32.517c-.97-1.014-1.94-2.006-2.91-3.02-.683-.715-1.587-1.384-1.851-2.398-.485-1.937-2.469-1.014-3.748-.622a29.038 29.038 0 00-4.055 1.567c-.375.185-.728-.415-.33-.6a33.812 33.812 0 014.231-1.66c1.014-.299 2.58-.99 3.615-.483.375.161.595.415.75.807.11.253.11.53.198.807.176.553.573.945.948 1.337 1.212 1.268 2.424 2.513 3.637 3.78.264.324-.199.808-.485.485zm2.072 7.101c-.485 1.13-1.036 2.19-2.16 2.767-1.125.576-2.47.76-3.704.853-.418.046-.418-.646 0-.692 1.058-.092 2.16-.254 3.152-.669 1.147-.484 1.676-1.498 2.16-2.628.155-.369.728-.023.552.369zM29.66 44.874c-2.358.254-4.695-.553-5.665-2.95-.419-1.015-1.168-2.444-1.212-3.551-.022-.438.22-.76.661-.553.375.184.044.783-.33.599.683.323.749 1.222.991 1.937.265.714.485 1.475.86 2.12.926 1.569 3.13 1.845 4.695 1.684.419-.023.419.668 0 .715z" fill="#50483B"/><path d="M34.223 37.866c2.116-.185 4.122.507 3.791 3.112-.308 2.352-3.086 2.605-4.827 2.836-.419.046-.419-.646 0-.692 1.367-.184 3.284-.253 4.034-1.706.44-.853.132-2.213-.683-2.651-.706-.369-1.543-.277-2.293-.208-.44.046-.44-.645-.022-.691z" fill="#50483B"/><path d="M34.488 42.085c-1.08 1.752-2.822 2.813-4.827 2.951-.177.023-.331-.161-.331-.346-.022-.392 0-.438.044-.807.066.139.154.277.22.415-.55-.092-1.476-.23-1.52-.968-.045-.553.418-.807.86-.922-.023.207-.045.415-.089.622-.926-.438-1.19-1.475-.617-2.352.066.162.132.346.198.508-.837-.277-1.146-1.245-.661-2.03.683-1.083 2.226-1.152 3.284-.921.42.092.243.76-.176.668-.507-.115-.97-.161-1.477-.023-.176.07-.352.115-.529.185-.617.23-.705.714-.264 1.43.198.068.33.322.198.506-.375.692-.242 1.153.375 1.407.264.115.176.553-.088.622-.75.208.815.6.683.577.198.023.242.253.22.415 0 .207-.022.415-.022.645l-.33-.346c1.763-.115 3.284-1.06 4.254-2.605.264-.369.837-.023.595.369z" fill="#50483B"/><path d="M33.981 37.797c-1.851-1.684-2.402-4.22-3.747-6.248-1.587-2.375-4.298-4.104-7.12-4.197-3.549-.115-4.76 3.735-3.152 6.617.772 1.384 1.962 2.467 3.307 3.205a10.95 10.95 0 002.204.922c.397.139 1.94.807 2.292.6-.044.138-.11.253-.154.392.022.046.066.092.088.138.132-.07.265-.161.397-.23 0 .022-.022.045-.022.069-.154.415-.794.23-.64-.185 0-.023.023-.046.023-.07.066-.184.22-.276.396-.23.22.046.287.139.353.346.044.139-.044.323-.154.392-.507.323-1.19-.046-1.697-.184-.882-.254-1.764-.53-2.601-.9-1.521-.691-2.91-1.729-3.924-3.135-1.587-2.213-1.984-5.74.375-7.585 2.447-1.914 6.26-.369 8.398 1.36 1.19.969 2.138 2.19 2.843 3.574.882 1.729 1.521 3.596 2.954 4.91.375.231-.11.715-.419.439zm-.309-13.003c.242-1.891-2.028-3.16-3.395-3.805-1.455-.691-3.042-.83-4.518-1.452-1.213-.484-2.337-1.591-3.682-1.683-.507-.023-.837.323-.418.6.154.114.463.068.66.16.287.116.486.254.662.53.265.347-.309.693-.573.347-.375-.508-2.8-.508-1.653-1.89 1.08-1.292 3.306.276 4.32.852 2.072 1.153 4.475 1.222 6.525 2.49 1.41.876 2.931 2.144 2.689 4.035-.044.438-.684.253-.617-.184z" fill="#50483B"/><path d="M33.054 25.347c-2.292-1.337-4.54-1.822-7.12-2.052-1.366-.115-1.101-1.752-.242-2.513.331-.277.794.207.463.484-.419.208-.485.484-.198.853 0 .438.176.6.551.484.33.092.816.07 1.168.115a15.72 15.72 0 011.808.37 15.23 15.23 0 013.88 1.66c.396.23.065.83-.31.599z" fill="#50483B"/><path d="M24.943 22.95c-.661-.255-1.3-.808-1.322-1.615 0-.715.529-1.36 1.234-1.337.309 0 .485.507.176.645-.066.023-.132.07-.198.093-.397.184-.727-.415-.33-.6.065-.023.132-.069.198-.092.066.207.11.438.176.646-.397-.024-.64.415-.551.806.088.393.463.67.816.784.374.162.198.83-.199.67z" fill="#50483B"/><path d="M23.489 21.889c-.596-.185-.97-.9-.992-1.522-.022-.623.419-1.245 1.058-1.153.419.046.419.76 0 .692-.706-.092-.353 1.176.11 1.314.397.138.22.807-.176.669zm2.953-2.929c.044-1.706-.661-2.697-1.433-4.08-.573-1.015-.352-1.89-.066-2.974.838-3.136-1.83-6.364-3.835-8.392-.309-.3.154-.807.463-.485 1.83 1.868 4.166 4.658 4.254 7.493.022.692-.177 1.291-.353 1.937-.264 1.037-.11 1.73.463 2.605.794 1.2 1.212 2.421 1.168 3.896 0 .439-.661.439-.661 0z" fill="#50483B"/><path d="M22.827 1.854c-4.276.392-8.597-2.237-12.785-.669A8.734 8.734 0 007.2 2.937c-.683.646-1.19 1.476-1.851 2.144-1.323 1.36-2.844 1.153-4.475.508l.264-.623c1.3 1.038.97 3.066-.727 3.343-.022-.23-.066-.461-.088-.669.727-.023 1.41-.668 2.094-.115.551.461.507 1.337.485 1.983a26.248 26.248 0 00.22 4.357c.11.692.243 1.407.397 2.075.11.438.265 1.845.683 2.052a2.322 2.322 0 01-.396.046c.022-.023.066-.046.088-.092.308-.3.771.184.463.484-.022.023-.067.046-.089.092-.11.116-.264.116-.396.047-.595-.3-.684-1.268-.838-1.868a25.795 25.795 0 01-.64-3.412 24.552 24.552 0 01-.153-3.597c0-.23.022-.46.022-.714 0-.415-.265-.969-.75-.992-.353-.023-.793.3-1.19.3-.353 0-.463-.623-.088-.669.881-.138 1.477-1.383.573-2.075-.265-.207-.132-.783.264-.622 1.213.484 2.513.853 3.615-.115.64-.577 1.124-1.338 1.697-1.983a8.745 8.745 0 014.52-2.605c4.01-.9 7.912 1.314 11.924.945.419-.023.419.669 0 .692z" fill="#50483B"/><path d="M23.136 2.223c-1.345 1.221-3.108 1.59-4.784.922l.397-.415c.155.184.309.346.463.53.309.161.132.623-.176.646a9.305 9.305 0 01-4.1-.715c.132-.115.287-.23.419-.323a4.1 4.1 0 00.044 1.038c.022.184-.088.46-.309.438a7.38 7.38 0 01-1.41-.323c.132-.07.264-.162.396-.23-.022.23-.022.46-.044.668.044.254-.132.484-.397.415a13.768 13.768 0 01-1.873-.623c.132-.069.264-.161.397-.23v.899c.044.208-.089.438-.309.438-.309-.07-.529.07-.683.415.066.208-.11.461-.309.438-.573-.046-.992-.161-1.477.161-.374.254-.661.577-1.102.761-.154.07-.375.116-.529.208a.584.584 0 00-.463.392l.155.161c.066.23.198.323.22.6.022.184-.154.345-.33.345-.353 0-.97-.115-.993.162-.022.138.22.484.22.714 0 .116-.065.254-.153.3-.243.669-.155 1.176.264 1.522a.355.355 0 01-.154.576c-.066.392-.11.807-.177 1.2.177.137.243.483 0 .598-1.146.508.507 2.283.75 2.86.353.83.44 1.682.353 2.581-.022.277-.353.462-.574.254-.837-.876-2.27-1.637-3.174-.392-.485.692-.617 2.283-.507 3.067.177 1.314 1.19 2.005 2.293 2.466.44.185.904.323 1.388.415.243.047 1.874-.046 2.028.208-.22-.392.353-.738.573-.346.023.023.023.07.045.092.044.093.066.254 0 .346-.728 1.038-3.13.369-4.078.023-1.411-.553-2.711-1.475-2.91-3.135-.11-.876.088-1.776.33-2.606.155-.553.331-1.337.816-1.683 1.124-.783 2.866.231 3.681 1.061-.198.092-.374.161-.573.254.088-.923-.022-1.822-.463-2.629-.264-.507-.683-.899-.903-1.43-.309-.737-.177-1.613.573-1.959v.6c-1.014-.715-.838-2.075.33-2.467-.044.184-.088.392-.154.576-.397-.415-.815-.922-.815-1.545 0-.415.44-.737.44-1.014.022-.415-.529-.553-.154-1.037.33-.462 1.19-.277 1.653-.277l-.33.346c-.022-.392-.551-.508-.507-.992.044-.392.308-.553.617-.691.375-.185.771-.23 1.146-.461.353-.208.64-.738.97-.877.485-.184 1.058-.023 1.587.023-.11.139-.22.3-.309.439-.308-.969.551-1.315 1.323-1.292-.11.139-.22.3-.309.439a4.08 4.08 0 010-1.269c.022-.16.265-.3.397-.23.617.254 1.234.461 1.874.622l-.397.415a2.744 2.744 0 01.044-1.037c.044-.185.242-.3.397-.23.419.138.793.23 1.234.3-.11.137-.22.299-.308.437a5.684 5.684 0 01-.067-1.222c0-.207.199-.415.42-.323a8.797 8.797 0 003.923.692c-.066.208-.11.438-.177.646-.418-.208-.617-.485-.771-.946-.088-.23.176-.507.397-.415 1.454.577 2.975.323 4.144-.76.396-.37.86.115.55.415zm2.05 9.337c1.036-.093 2.006.46 2.38 1.475.441 1.2-.022 2.398-.75 3.32-.264.346-.727-.138-.462-.484.529-.668.904-1.521.661-2.398-.242-.876-.992-1.314-1.83-1.222-.418.046-.418-.645 0-.691z" fill="#50483B"/><path d="M22.276 10.038c.023 0 .045.023.067.023-.133.023-.265.046-.397.046-.132.116.066.346-.132.023-.067-.092-.133-.207-.22-.3a4.367 4.367 0 00-.574-.553c-.397-.3-.837-.46-1.322-.553-.42-.069-.243-.738.176-.668a3.72 3.72 0 011.94 1.014c.286.277 1.102 1.107.617 1.521-.132.116-.243.116-.397.047-.022 0-.044-.023-.066-.023-.419-.162-.088-.738.308-.577zM14.914 9.6c-1.08.553-1.874 1.522-2.226 2.744-.088.3-.441.322-.596.092a.5.5 0 01-.088-.392c.022-.438.684-.438.662 0v.023a5.3 5.3 0 00-.596.092c.397-1.383 1.301-2.513 2.535-3.158.375-.185.706.415.309.6zm5.048 8.623c.287.507.42.991.42 1.568-.089-.116-.155-.231-.243-.323.683.161 1.036.645 1.058 1.36-.199-.092-.375-.161-.573-.254.97-.945 2.006.715.837 1.245v-.6c.573.324 1.3 1.315.882 2.053-.419.715-1.587.369-2.138.069.154-.138.33-.254.485-.392.419 1.637-.992 2.49-2.226 2.997.088-.115.154-.23.242-.323.022 1.36-.573 2.513-1.146 3.69-.595 1.221-1.234 2.443-2.028 3.55-1.345 1.867-3.483 3.642-5.841 3.55-2.094-.092-3.218-2.582-3.373-4.495-.198-2.629 1.411-4.796 2.91-6.71l.463.485c0 .046-.022.069-.022.115.044.438-.617.438-.662 0-.022-.3.023-.392.22-.6.31-.322.728.162.464.485-1.235 1.567-2.623 3.343-2.733 5.487-.067 1.175.286 2.374.925 3.366.75 1.175 1.896 1.383 3.152 1.014 2.006-.576 3.505-2.26 4.607-4.011 1.014-1.66 2.447-3.897 2.425-5.88 0-.16.11-.276.242-.322.86-.346 2.094-.946 1.764-2.144-.088-.3.242-.53.485-.392.573.484.881.438.947-.116.265-.368.155-.622-.352-.783-.199-.116-.22-.485 0-.6-.022-.046-.022-.092-.044-.161-.22.207-.551.046-.574-.254-.198-.23-.396-.461-.573-.691-.132-.024-.242-.185-.242-.323a1.964 1.964 0 00-.33-1.222c-.199-.461.374-.807.572-.438z" fill="#50483B"/><path d="M16.193 23.687c-2.05 1.89-5.136 2.697-6.723 5.118-.243.369-.816.023-.573-.346 1.63-2.513 4.717-3.297 6.833-5.256.308-.3.771.207.463.484z" fill="#50483B"/><path d="M10.175 27.053a1.947 1.947 0 00-.727-.139c-.42 0-.42-.691 0-.691.308 0 .617.07.903.161.177.07.287.23.22.415-.021.184-.22.323-.396.254zm13.953 15.816c-2.337-.761-4.387-2.144-6.216-3.804-.992-.9-1.94-1.89-2.844-2.882-.485-.53-1.476-1.245-1.234-2.052.132-.415.771-.254.64.184-.133.484 1.762 2.121 2.071 2.467.727.76 1.477 1.499 2.248 2.167 1.654 1.43 3.461 2.606 5.533 3.274.397.115.22.784-.198.646zM19.455 18.66a3.42 3.42 0 00-1.455.877c-.308.3-.771-.184-.463-.484.507-.484 1.08-.853 1.742-1.038.418-.138.595.508.176.646zm2.293-5.51c.154.277.264.715.088 1.015-.199.346-.617.3-.816-.023-.088-.138-.11-.3-.132-.461-.022-.185-.066-.37-.044-.53.044-.438.507-.53.793-.277.265.207.507.53.53.9.021.322-.133.668-.442.783-.683.254-1.035-.669-.881-1.222.11-.415.55-.553.881-.323.397.254.331.715.353 1.153.022.438-.639.438-.661 0v-.369c0-.046-.022-.115-.022-.161 0-.023-.022-.023-.022-.046s.088-.07.11-.046v.138c0 .069.022.138.044.184 0 0 .022.046.044.046 0-.023-.088-.023-.066 0 0 0 .022-.092.022-.115 0-.092-.088-.161-.132-.23-.022-.046-.066-.07-.088-.116-.044-.046-.066-.046-.044-.069.066-.023.11-.023.176-.046l.044-.046c.022-.07.022-.115.044-.185-.022.139.022.254.044.392 0 .046.022.116.022.185 0 .115.11 0-.088.023-.066.023-.11.023-.176.046-.044.115-.044.138-.044.023v-.092l-.066-.208c-.243-.369.33-.714.529-.322zm-6.15 1.107c.11.3.154.6.132.923-.022.391-.529.484-.64.092-.131-.415-.22-1.13.31-1.291.506-.139.815.369.86.83.021.207 0 .438-.177.599-.199.184-.485.092-.661-.092-.353-.346-.463-.853-.375-1.337.044-.254.396-.346.55-.162.243.3.574.83.464 1.245a.406.406 0 01-.551.277c-.22-.07-.353-.277-.42-.484-.11-.37-.065-1.06.42-1.084.22-.023.418.138.529.323.044.092.066.207.088.323 0 .046 0 .161.022.184.308.323-.177.807-.463.484a.665.665 0 01-.198-.392c-.022-.069-.022-.138-.022-.207-.022-.115-.022-.023.044-.046s.11-.023.176-.046c.066-.046.044-.07.044.023v.138c0 .046.044.092.022.092h-.176.044c-.044.023-.088.07-.154.092l.022-.023c-.022.046-.066.093-.089.162.023-.046-.044-.208-.088-.277-.044-.115-.132-.23-.198-.323.176-.046.375-.092.55-.161a.79.79 0 00.023.392c.022.069.088.254.176.277h-.176.044c-.044.023-.088.069-.154.092-.022.023 0 .046-.022-.023v-.116c0-.023-.044-.161-.044-.138 0-.023.088-.07.088-.07v.162c0 .116.044.23.066.346-.22.023-.44.07-.64.092a1.67 1.67 0 00-.11-.737c-.066-.185.067-.37.22-.415.243-.024.398.092.464.276zm4.914 2.283c-.33-.346-.837-.208-.97.276-.11.439-.749.254-.639-.184.243-.991 1.39-1.291 2.072-.576.309.3-.154.784-.463.484zm1.786-.254c.419-.645 1.257-1.13 1.94-.6.485.393.463 1.223-.11 1.5-.088.045-.177-.093-.088-.139.595-.3.418-1.153-.155-1.36-.595-.208-1.124.184-1.433.691-.066.093-.22.023-.154-.092zm-5.863 2.721c-.948.714-2.182 1.13-3.284.53-.662-.369-1.367-1.36-.552-1.96.353-.276.838-.322 1.257-.369.661-.092 1.455-.207 2.094.047.683.276 1.124 1.175.485 1.729-.088.069-.199-.047-.11-.116.727-.622-.067-1.383-.64-1.521-.33-.092-.705-.07-1.036-.046-.396.023-.815.069-1.212.138-.529.115-.816.207-.86.807-.044.622.265.899.794 1.176.309.161.64.23.992.23.75 0 1.433-.346 2.028-.784.044-.069.132.093.044.139zM27.28 25.97a.884.884 0 01.33.322c.022.069 0 .115-.066.138-.198.023-.396-.115-.463-.323-.066-.161.022-.345.199-.345a.33.33 0 01.308.276c.022.184-.132.323-.286.369-.177.046-.397-.023-.485-.207-.088-.185.044-.392.198-.484.154-.07.397 0 .441.184.044.161-.11.369-.264.276-.089-.046-.133-.138-.11-.207.021-.115.11-.138.198-.115.22.046.352.276.308.507-.022.115-.176.069-.154-.046.044-.162-.11-.3-.265-.3.045 0 .067-.023.11-.046.023.046.045.023.045-.023 0-.023-.022-.046-.044-.046-.044-.023-.088-.046-.155-.023-.088.023-.154.092-.154.184-.022.208.287.23.397.139.044-.047.088-.116.044-.185-.022-.046-.11-.069-.154-.046-.066.023 0 .161.044.207.066.07.154.116.242.093l-.066.138a.57.57 0 00-.264-.254c-.11-.092-.022-.23.066-.184zm.374 14.455a22.58 22.58 0 01-2.711-1.268c-.088-.046 0-.208.088-.138.86.484 1.763.899 2.69 1.267.065 0 .021.185-.067.139z" fill="#50483B"/><path d="M27.963 41.094c-1.61-.554-3.02-1.476-4.232-2.698-.066-.069.044-.207.11-.115a10.607 10.607 0 004.166 2.651c.088.046.044.208-.044.162zm.264.829a61.423 61.423 0 01-4.033-2.467c-.088-.069 0-.207.088-.138a61.421 61.421 0 004.034 2.467c.088.046 0 .208-.089.138zm-.793.462a36.936 36.936 0 01-3.262-2.33c-.088-.068 0-.207.088-.138a40.525 40.525 0 003.262 2.33c.067.045 0 .207-.088.138z" fill="#50483B"/><path d="M28.537 42.869a25.406 25.406 0 01-3.703-1.845c-.089-.046 0-.207.088-.138a24.785 24.785 0 003.659 1.821c.11.047.066.208-.044.162zm-.442.784c-.794-.3-1.543-.669-2.293-1.107-.088-.046 0-.208.089-.138.727.415 1.477.783 2.248 1.083.088.023.066.208-.044.162zm14.218-4.611a.388.388 0 01.154-.116c.088-.069.199.046.11.116a11.56 11.56 0 01-3.923 2.512c-.11.047-.132-.138-.044-.16a11.515 11.515 0 003.857-2.468l.11.116a.396.396 0 01-.154.115c-.066.07-.198-.046-.11-.115zm-.023-1.637a21.535 21.535 0 01-1.94 1.867c-.484.415-.991.9-1.63 1.015-.11.023-.155-.162-.044-.162.749-.115 1.41-.807 1.961-1.29a19.788 19.788 0 001.543-1.523c.066-.115.199.024.11.093zm-1.19-.738a10.875 10.875 0 01-2.998 2.928c-.088.07-.176-.092-.088-.138a10.792 10.792 0 002.932-2.882c.066-.092.22 0 .154.092z" fill="#50483B"/><path d="M39.955 32.263c.683.807.925 2.052 1.212 3.044.397 1.36.617 2.743.507 4.173 0 .115-.176.115-.176 0 .11-1.268-.067-2.49-.397-3.712-.287-1.06-.595-2.536-1.3-3.39-.045-.069.065-.207.154-.115zm-.067 3.527a43.08 43.08 0 01.242 3.782c.022.668 0 1.337-.529 1.775-.088.07-.198-.046-.11-.115.75-.6.485-2.006.441-2.836-.044-.853-.11-1.73-.198-2.582-.023-.139.132-.139.154-.023z" fill="#50483B"/><path d="M39.447 37.543c.33.853.485 1.729.44 2.651-.043.6-.11 1.476-.506 1.914-.022.023-.044.023-.089.023-.022 0-.066-.023-.088-.023-.11-.023-.066-.208.044-.162.331.116.485-2.167.485-2.19 0-.76-.176-1.475-.44-2.167-.045-.115.11-.161.154-.046zm-.441 1.498c-.242.969-.485 1.96-.727 2.929-.022.115-.177.069-.155-.047.243-.968.485-1.96.728-2.928.022-.092.176-.046.154.047zM35.7 26.707c.374.046.242-.023.529.23.066.047.044.162-.044.162-1.984-.092-3.858.392-5.577 1.406-.088.047-.177-.092-.088-.138.86-.507 1.763-.922 2.733-1.153a9.265 9.265 0 011.102-.207 6.21 6.21 0 01.904-.07c.066 0 .771.024.419-.022-.089-.046-.089-.208.022-.208z" fill="#50483B"/><path d="M30.432 27.099l.463.622c.066.093-.067.162-.133.116l-.595-.554c.044-.046.088-.069.132-.115.133.277.287.53.441.784.044.07-.044.161-.11.115-.242-.184-.485-.369-.75-.553l.11-.115c.177.322.376.645.552.945.044.07-.044.161-.11.115a6.016 6.016 0 01-1.146-.853c.044-.023.088-.023.132-.046-.044.23 0 .438.176.6.066.069-.022.184-.11.138-.132-.092-.287-.161-.419-.254l.11-.115c.088.184.177.323.353.438.088.046 0 .207-.088.138a.94.94 0 01-.419-.507c-.022-.069.044-.161.11-.115.133.092.287.161.419.254-.044.046-.066.092-.11.138a.877.877 0 01-.22-.761c.021-.07.088-.07.132-.046a5.7 5.7 0 001.124.83l-.11.115c-.177-.323-.375-.645-.552-.945-.044-.07.045-.162.11-.115.243.184.486.368.75.553l-.11.115a5.437 5.437 0 01-.44-.784c-.045-.092.065-.161.131-.115l.596.553c-.045.046-.089.07-.133.116l-.463-.623c-.022-.092.133-.161.177-.069zM7.596 21.082a1.656 1.656 0 00.309 1.521c.066.092-.044.208-.11.115a1.922 1.922 0 01-.353-1.683c.022-.115.176-.069.154.047zm-1.719-.047c-.574-.345-.838-.322-.772.093-.022.161 0 .3.088.438a1.3 1.3 0 00.265.346c.264.276.617.438.97.576.44.184.881.346 1.256.646.088.069-.044.184-.11.115-.75-.646-2.557-.738-2.623-2.052-.044-.853 1.036-1.06 1.124-.184-.022.138-.176.138-.198.022zM21.791 2.2a26.634 26.634 0 01-6.348-.323c-.11-.023-.066-.185.044-.162 2.094.369 4.188.461 6.304.323.11-.023.11.161 0 .161z" fill="#50483B"/><path d="M19.896 2.614c-2.182-.023-4.254-.622-6.15-1.775-.088-.046 0-.207.088-.138a12.07 12.07 0 006.084 1.752c.088 0 .088.161-.022.161zm-.816.646a12.995 12.995 0 01-5.863-1.89c-.088-.047 0-.208.088-.139A12.898 12.898 0 0019.08 3.1c.11 0 .11.16 0 .16z" fill="#50483B"/><path d="M18.265 3.583a18.323 18.323 0 01-4.96-1.89c-.088-.047 0-.208.088-.139a17.523 17.523 0 004.916 1.867c.088.024.044.185-.044.162z" fill="#50483B"/><path d="M16.854 3.283a9.894 9.894 0 01-3.791-1.499c-.088-.069 0-.207.088-.138a9.657 9.657 0 003.747 1.476c.11 0 .066.184-.044.16zm-1.169.161a34.128 34.128 0 01-2.954-1.314c-.088-.046-.021-.207.089-.138.947.461 1.94.899 2.91 1.29.088.024.043.208-.045.162zm-1.322-.161a9.522 9.522 0 01-2.689-1.107c-.088-.046 0-.207.088-.138.838.484 1.72.853 2.645 1.084.11.023.066.184-.044.16zm-.221.554a22.686 22.686 0 01-2.887-1.246c-.089-.046-.022-.207.088-.138a19.3 19.3 0 002.843 1.222c.088.023.044.185-.044.162zm-1.564-.024c-.508-.254-1.037-.507-1.543-.76-.089-.047-.023-.208.088-.139.507.254 1.036.507 1.543.76.088.046 0 .185-.088.139zM5.766 9.208c-.176 1.89-.308 3.827.64 5.533.044.093-.088.185-.133.093-.97-1.73-.837-3.69-.66-5.626 0-.115.175-.115.153 0z" fill="#50483B"/><path d="M5.392 8.378a10.075 10.075 0 001.058 7.194c.044.092-.089.184-.133.092-1.278-2.237-1.653-4.796-1.08-7.332.022-.115.177-.07.155.046z" fill="#50483B"/><path d="M4.687 8.885a20.635 20.635 0 00.992 6.755c.044.116-.132.162-.154.047a20.91 20.91 0 01-.992-6.802c-.022-.092.154-.092.154 0z" fill="#50483B"/><path d="M3.739 9.439c.022 1.175.176 2.328.463 3.458.11.461.264.922.418 1.383.022.023.816 1.66.794 1.707.022-.116.198-.07.154.046-.044.138-.044.138-.154.207-.044.023-.088 0-.11-.023-1.08-2.098-1.654-4.38-1.72-6.778-.022-.116.155-.116.155 0z" fill="#50483B"/><path d="M3.739 9.116a22.754 22.754 0 00.198 3.458c.066.577.176 1.13.287 1.706.066.277.132.554.198.853-.022.37.154.577.507.623.022-.115.176-.07.154.046-.11.807-.683-.115-.771-.415-.595-2.006-.772-4.173-.75-6.248.022-.115.177-.115.177-.023z" fill="#50483B"/><path d="M3.76 10.592c-.22 1.821-.154 3.735 1.235 5.049.088.069-.044.207-.11.115-1.433-1.337-1.499-3.297-1.279-5.164 0-.116.177-.116.155 0zm10.625-9.084c-2.336-.254-4.585.253-6.59 1.521-.089.047-.177-.092-.089-.138a10.353 10.353 0 016.68-1.544c.11 0 .11.16 0 .16zM13.15 2.545c-2.05.323-4.033.876-5.973 1.66-.11.046-.132-.138-.044-.161 1.94-.784 3.923-1.314 5.973-1.66.11-.023.155.138.044.161zM3.959 6.419c-1.41 0-2.711-.577-3.703-1.66-.066-.07.044-.208.11-.116.97 1.038 2.204 1.591 3.593 1.591.088.023.088.185 0 .185z" fill="#50483B"/><path d="M4.158 7.133C2.615 6.603.918 5.934.433 4.16c-.022-.115.132-.161.154-.046.485 1.73 2.138 2.352 3.615 2.859.088.023.044.184-.044.161z" fill="#50483B"/><path d="M3.342 7.318A5.724 5.724 0 01.454 5.312c-.066-.092.044-.207.11-.115a5.608 5.608 0 002.822 1.96c.11.022.066.207-.044.16zm-.64.668c-.11 0-.11-.184 0-.184s.11.184 0 .184zM7.2 18.522a6.758 6.758 0 01-2.315-2.651c-.044-.092.088-.184.132-.092a6.626 6.626 0 002.27 2.582c.089.07 0 .23-.087.161z" fill="#50483B"/><path d="M5.81 15.917c.2.37.42.692.618 1.06.176.208.287.439.33.715-.11-.184-.22-.369-.352-.553-.132-.207-.419-.945-.198-.392.176.461.352.945.529 1.407.044.092-.11.138-.155.069-.264-.438-.661-.922-.815-1.407-.155-.46.22.277.286.392.155.3.287.646.42.946.043.092-.09.184-.133.092a15.846 15.846 0 01-.728-1.107c-.33-.53-.396-.9-.176.392.022.092-.11.161-.154.07-.375-.67-1.19-2.191-.595-.37.044.116-.133.139-.155.046a11.246 11.246 0 01-.352-1.152c.088.322.176.853.242 1.245.022.092-.088.161-.154.069-.397-.577-.53-1.13-.463-1.845 0-.115.154-.115.176 0 .022.669.11 1.338.243 1.983.022.092-.088.138-.132.092-1.411-1.498-.684-4.45-.199-6.202.022-.115.199-.069.154.047-.264.968-.462 1.936-.529 2.95-.044.715-.198 2.076.331 2.652.397.438-.33-1.291.11-1.176-.044 0 .243 1.476.287 1.13.044-.346-.154-.922-.199-1.291-.022-.115.133-.162.155-.046.044.115.529 1.314.264 1.245-.132-.046-.11-.992-.11-1.038 0-.092.11-.115.154-.046.088.138.816 1.222.75 1.314-.022.046-.11-.876-.11-.899 0-.092.11-.115.154-.046.286.53.661 1.222.948 1.637-.265-.392-.485-1.014-.684-1.545-.044-.092.11-.161.155-.069.242.507.705 1.06.86 1.59-.133-.414-.53-1.129-.728-1.636-.044-.092.11-.138.154-.07.375.623.772 1.246 1.146 1.845.044.092-.066.185-.132.116a13.396 13.396 0 01-1.322-2.052c-.089-.185.044-.254.11-.162z" fill="#50483B"/></svg>