<svg width="87" height="73" fill="none" xmlns="http://www.w3.org/2000/svg"><g clip-path="url(#clip0)" fill="#50483B"><path d="M74.362 50.947c.038-2.019 2.031-3.663 4.062-3.215 1.618.337 2.407 2.13 1.505 3.477-.339-.187-.64-.374-.978-.561.752-1.159 2.031-2.617 3.573-1.794 1.354.747 1.053 2.541.451 3.7-.338.636-1.278.075-.977-.56.526-1.047 1.73-2.206 2.82-1.01 1.091 1.196-.075 2.654-1.015 3.439-.564.449-1.354-.336-.79-.785.94-.785 2.182-1.645 3.348-.785 1.354.935.413 2.13-.414 3.028-.978 1.084-1.918 2.13-2.595 3.439-.49.934-.79 1.943-1.28 2.84-.94 1.757-2.369 2.804-4.362 3.14-1.618.262-3.95.486-5.341-.598-1.392-1.084-1.28-3.028-1.355-4.635-.112-2.84-.827-5.495-1.918-8.074-.94-2.242-1.805-4.41-1.241-6.877.15-.71 1.241-.411 1.09.299-.79 3.327 1.58 6.541 2.446 9.68.338 1.31.564 2.655.714 4 .15 1.682-.338 4.374 1.806 5.084 1.429.486 4.1.187 5.378-.523 1.354-.748 1.919-2.169 2.52-3.477.49-1.084.978-2.13 1.693-3.102a24.44 24.44 0 011.279-1.495c.3-.337.602-.636.903-.972-.64-.897-1.242-.934-1.806-.15l-.79-.785c.377-.261.677-.598.94-.934-.488-.748-.827-.785-.977-.112-.339-.187-.64-.374-.978-.56.677-.898.263-1.496-1.204-1.832a6.104 6.104 0 00-.865 1.084c-.376.598-1.354.037-.978-.561-.263-1.794-.94-2.317-1.993-1.533-.94.15-1.43.748-1.467 1.795-.113.635-1.242.635-1.204-.075z"/><path d="M82.411 55.582c-1.317-1.271-2.934-2.13-4.74-2.58-.714-.149-.413-1.233.302-1.083a11.27 11.27 0 015.228 2.878c.526.523-.263 1.308-.79.785zm-4.137 3.663a2.11 2.11 0 00-1.467-.897c-.301-.038-.564-.225-.564-.561 0-.262.263-.598.564-.56 1.015.111 1.843.597 2.445 1.457.413.598-.565 1.159-.978.56zm-3.499-5.084c-.112 1.234-.188 2.505-.3 3.738-.076.71-1.204.71-1.129 0 .113-1.233.188-2.504.301-3.738.038-.71 1.166-.71 1.128 0zm4.364-5.756c.338-2.916.752-6.018-.564-8.747-1.091-2.317-3.348-4.896-5.642-6.13-5.492-2.952-11.736 3.402-13.654 8.037-.264.673-1.354.373-1.091-.3 2.106-4.97 8.162-11.362 14.18-9.27 2.746.973 5.116 3.59 6.62 5.981 1.994 3.178 1.73 6.803 1.317 10.392-.113.71-1.242.747-1.166.037z"/><path d="M68.908 52.703c-1.655-1.644-3.31-3.251-4.965-4.896-1.166-1.159-2.708-2.243-3.16-3.887-.827-3.14-4.212-1.645-6.394-1.01a51.151 51.151 0 00-6.921 2.542c-.64.3-1.241-.673-.564-.972a59.55 59.55 0 017.222-2.69c1.73-.487 4.4-1.608 6.168-.786.64.262 1.016.673 1.28 1.308.187.412.187.86.338 1.309.3.897.977 1.532 1.617 2.167 2.069 2.056 4.137 4.075 6.206 6.13.452.524-.338 1.309-.827.785zm3.536 11.513c-.828 1.832-1.768 3.55-3.687 4.485-1.918.935-4.212 1.234-6.319 1.383-.714.075-.714-1.046 0-1.121 1.806-.15 3.686-.411 5.38-1.084 1.955-.785 2.858-2.43 3.685-4.261.263-.598 1.242-.037.94.598zm-21.816 8.523c-4.025.41-8.012-.898-9.667-4.785-.715-1.644-1.994-3.962-2.069-5.756-.037-.71.376-1.234 1.129-.897.639.299.075 1.27-.565.972 1.166.523 1.28 1.98 1.693 3.14.451 1.158.828 2.392 1.467 3.438 1.58 2.542 5.341 2.99 8.012 2.729.714-.038.714 1.084 0 1.159z"/><path d="M58.414 61.375c3.61-.299 7.034.823 6.47 5.046-.527 3.813-5.266 4.224-8.238 4.598-.715.075-.715-1.047 0-1.122 2.332-.299 5.605-.41 6.883-2.766.753-1.382.226-3.588-1.166-4.298-1.203-.598-2.633-.448-3.911-.336-.753.074-.753-1.047-.038-1.122z"/><path d="M58.865 68.216c-1.843 2.84-4.815 4.56-8.237 4.784-.301.037-.565-.262-.565-.56-.037-.636 0-.71.076-1.309.113.224.263.449.376.673-.94-.15-2.52-.374-2.596-1.57-.075-.897.715-1.308 1.468-1.495-.038.336-.076.673-.151 1.01-1.58-.711-2.031-2.393-1.053-3.813.113.261.225.56.338.822-1.429-.449-1.956-2.019-1.128-3.29 1.166-1.756 3.799-1.868 5.604-1.495.715.15.414 1.234-.3 1.084-.866-.187-1.656-.261-2.52-.037-.302.112-.602.187-.903.3-1.054.373-1.204 1.158-.452 2.316.339.113.564.524.339.823-.64 1.121-.414 1.869.64 2.28.45.187.3.897-.151 1.01-1.28.336 1.392.971 1.166.934.338.037.413.41.376.672 0 .337-.038.673-.038 1.047l-.564-.56c3.01-.188 5.604-1.72 7.26-4.224.45-.599 1.429-.038 1.015.598z"/><path d="M58 61.263c-3.16-2.728-4.1-6.84-6.394-10.13-2.708-3.85-7.335-6.653-12.15-6.802-6.055-.187-8.124 6.055-5.378 10.727 1.317 2.243 3.348 4 5.642 5.196a19.223 19.223 0 003.761 1.495c.677.224 3.31 1.308 3.912.972-.075.224-.188.411-.263.636.038.074.113.15.15.224.226-.112.452-.262.678-.374 0 .037-.038.075-.038.112-.263.673-1.354.374-1.09-.299 0-.037.037-.075.037-.112.113-.299.376-.449.677-.374.376.075.489.224.602.56.075.225-.076.524-.264.636-.865.524-2.03-.074-2.896-.299-1.505-.41-3.01-.86-4.438-1.457-2.596-1.122-4.965-2.804-6.696-5.084-2.708-3.588-3.385-9.307.64-12.297 4.175-3.103 10.682-.599 14.33 2.205 2.032 1.57 3.65 3.55 4.853 5.794 1.504 2.803 2.595 5.83 5.04 7.961.64.374-.188 1.159-.715.71zm-.527-21.081c.414-3.065-3.46-5.121-5.792-6.168-2.483-1.12-5.19-1.345-7.71-2.354-2.07-.785-3.988-2.58-6.282-2.729-.865-.037-1.43.523-.715.972.263.187.79.112 1.128.262.49.186.828.41 1.129.86.451.56-.527 1.12-.978.56-.64-.823-4.777-.823-2.821-3.065 1.843-2.093 5.642.448 7.372 1.383 3.536 1.869 7.636 1.98 11.134 4.037 2.407 1.42 5.002 3.476 4.588 6.54-.075.711-1.166.412-1.053-.298z"/><path d="M56.42 41.079c-3.912-2.168-7.748-2.953-12.15-3.327-2.331-.187-1.88-2.84-.413-4.074.564-.449 1.354.336.79.785-.715.336-.828.785-.339 1.383 0 .71.301.972.94.785.565.15 1.393.112 1.994.187 1.053.15 2.069.336 3.085.598a26.762 26.762 0 016.62 2.691c.677.374.112 1.346-.527.972z"/><path d="M42.578 37.191c-1.128-.41-2.219-1.308-2.256-2.616 0-1.159.902-2.205 2.106-2.168.527 0 .828.822.3 1.047-.112.037-.225.112-.338.15-.677.298-1.24-.674-.564-.973.113-.037.226-.112.339-.15.113.337.188.71.3 1.047-.677-.037-1.09.673-.94 1.309.15.635.79 1.083 1.392 1.27.64.262.338 1.346-.339 1.084z"/><path d="M40.096 35.472c-1.016-.299-1.655-1.458-1.693-2.467-.038-1.01.715-2.018 1.806-1.869.714.075.714 1.234 0 1.122-1.204-.15-.602 1.906.188 2.13.677.224.376 1.308-.301 1.084zm5.04-4.747c.075-2.766-1.128-4.373-2.445-6.616-.978-1.645-.602-3.065-.113-4.822 1.43-5.083-3.121-10.316-6.544-13.606-.527-.485.263-1.308.79-.784 3.122 3.027 7.109 7.55 7.26 12.147.037 1.122-.302 2.094-.603 3.14-.451 1.682-.188 2.804.79 4.224 1.354 1.944 2.069 3.925 1.994 6.317 0 .71-1.129.71-1.129 0z"/><path d="M38.967 2.99c-7.297.636-14.669-3.625-21.815-1.084-1.806.636-3.423 1.608-4.853 2.841-1.166 1.047-2.03 2.392-3.16 3.476-2.256 2.206-4.851 1.87-7.635.823l.452-1.01c2.219 1.682 1.655 4.972-1.242 5.42-.037-.373-.112-.747-.15-1.084 1.241-.037 2.407-1.084 3.573-.187.94.748.865 2.168.828 3.215-.075 2.355.037 4.71.376 7.065a48.41 48.41 0 00.677 3.363c.188.71.451 2.99 1.166 3.327a4.167 4.167 0 01-.677.075c.038-.037.113-.075.15-.15.527-.485 1.317.3.79.785-.037.038-.113.075-.15.15-.188.187-.452.187-.677.075-1.016-.486-1.166-2.056-1.43-3.028A39.956 39.956 0 014.1 21.53c-.226-1.944-.339-3.887-.264-5.831 0-.374.038-.748.038-1.159 0-.673-.451-1.57-1.279-1.607-.602-.037-1.354.486-2.031.486-.602 0-.79-1.01-.15-1.084 1.504-.224 2.52-2.243.978-3.364-.452-.337-.226-1.271.45-1.01 2.07.786 4.289 1.384 6.17-.186 1.09-.935 1.918-2.168 2.896-3.215a15.12 15.12 0 017.71-4.224c6.846-1.457 13.504 2.131 20.35 1.533.714-.037.714 1.084 0 1.121z"/><path d="M39.494 3.588c-2.294 1.981-5.303 2.58-8.162 1.496l.677-.673c.263.299.527.56.79.86.527.261.226 1.009-.3 1.046a16.621 16.621 0 01-6.997-1.159c.226-.187.489-.374.715-.523-.038.56-.038 1.121.075 1.682.037.299-.15.748-.527.71-.827-.112-1.617-.261-2.407-.523.226-.112.451-.262.677-.374-.038.374-.038.748-.075 1.084.075.411-.226.785-.677.673a24.374 24.374 0 01-3.197-1.01c.225-.111.451-.261.677-.373v1.458c.075.336-.15.71-.527.71-.527-.112-.903.112-1.166.673.113.336-.188.747-.526.71-.979-.075-1.693-.262-2.52.261-.64.412-1.129.935-1.881 1.234-.264.112-.64.187-.903.336-.376.075-.64.262-.79.636l.263.261c.113.374.339.524.377.972.037.3-.264.561-.565.561-.601 0-1.655-.187-1.692.262-.038.224.376.785.376 1.158 0 .187-.113.412-.263.486-.414 1.084-.264 1.907.45 2.467.302.3.151.823-.262.935-.113.635-.188 1.308-.301 1.943.3.225.413.785 0 .972-1.956.822.865 3.7 1.279 4.635.601 1.346.752 2.729.601 4.186-.037.45-.601.748-.978.412-1.429-1.42-3.874-2.654-5.416-.636-.827 1.122-1.053 3.7-.865 4.972.3 2.13 2.031 3.252 3.912 4a12.43 12.43 0 002.37.672c.413.075 3.197-.075 3.46.336-.376-.635.602-1.196.978-.56.038.037.037.112.075.15.075.149.113.41 0 .56-1.241 1.682-5.341.598-6.958.037-2.408-.897-4.627-2.392-4.965-5.083-.188-1.42.15-2.878.564-4.224.263-.897.564-2.168 1.391-2.729 1.919-1.27 4.89.374 6.282 1.72-.339.15-.64.261-.978.41.15-1.494-.038-2.952-.79-4.26-.451-.823-1.166-1.458-1.542-2.318-.527-1.196-.301-2.616.978-3.177v.972c-1.73-1.159-1.43-3.364.564-4-.075.3-.15.636-.263.935-.677-.673-1.392-1.495-1.392-2.504 0-.673.752-1.197.752-1.645.038-.673-.902-.897-.263-1.682.564-.748 2.031-.449 2.821-.449l-.564.561c-.038-.635-.94-.822-.865-1.607.075-.636.526-.897 1.053-1.122.64-.299 1.316-.373 1.956-.747.602-.336 1.09-1.196 1.655-1.42.827-.3 1.805-.038 2.708.037a8.653 8.653 0 00-.527.71c-.526-1.57.94-2.13 2.257-2.093a8.607 8.607 0 00-.526.71 6.281 6.281 0 010-2.056c.037-.261.451-.486.677-.374 1.053.412 2.106.748 3.197 1.01l-.677.672c-.075-.598-.075-1.083.075-1.682.075-.299.414-.485.677-.373a13.39 13.39 0 002.106.486 8.652 8.652 0 00-.526.71 8.791 8.791 0 01-.113-1.981c0-.337.338-.673.715-.524a15.708 15.708 0 006.695 1.122c-.113.336-.188.71-.301 1.046-.715-.336-1.053-.785-1.317-1.532-.15-.374.301-.822.678-.673 2.482.935 5.077.523 7.07-1.233.678-.598 1.468.186.941.672zm3.498 15.139c1.768-.15 3.423.747 4.063 2.392.752 1.944-.038 3.887-1.28 5.382-.45.561-1.24-.224-.79-.785.904-1.084 1.543-2.467 1.13-3.887-.415-1.42-1.693-2.13-3.123-1.981-.714.075-.714-1.047 0-1.121z"/><path d="M38.027 16.26c.038 0 .076.037.113.037-.225.037-.451.075-.677.075-.226.187.113.56-.226.037-.112-.15-.225-.336-.376-.486-.3-.336-.64-.635-.978-.897-.677-.486-1.429-.747-2.256-.897-.715-.112-.414-1.196.3-1.084 1.242.225 2.408.785 3.31 1.645.49.448 1.881 1.794 1.054 2.467-.226.187-.414.187-.677.075-.038 0-.076-.038-.113-.038-.715-.261-.15-1.196.526-.934zm-12.563-.71a7.23 7.23 0 00-3.799 4.448c-.15.485-.752.523-1.015.15-.15-.225-.188-.375-.15-.636.037-.71 1.165-.71 1.128 0v.037a9.522 9.522 0 00-1.016.15 8.386 8.386 0 014.326-5.121c.639-.3 1.203.673.526.972zm8.614 13.979c.489.822.714 1.607.714 2.542-.15-.187-.263-.374-.413-.524 1.166.262 1.768 1.047 1.805 2.206-.338-.15-.64-.262-.978-.412 1.655-1.532 3.423 1.16 1.43 2.019v-.972c.977.523 2.219 2.13 1.504 3.327-.715 1.158-2.708.598-3.648.112.263-.224.564-.411.827-.636.715 2.654-1.693 4.037-3.799 4.86.15-.187.263-.374.414-.524.037 2.206-.978 4.075-1.956 5.98-1.016 1.982-2.107 3.963-3.46 5.757-2.295 3.028-5.944 5.906-9.968 5.756-3.573-.15-5.492-4.186-5.755-7.288-.338-4.262 2.407-7.775 4.965-10.877l.79.784c0 .075-.038.112-.038.187.075.71-1.053.71-1.128 0-.038-.486.037-.635.376-.971.527-.524 1.241.261.79.784-2.107 2.542-4.476 5.42-4.664 8.896-.113 1.907.489 3.85 1.58 5.458 1.278 1.906 3.234 2.242 5.378 1.644 3.423-.934 5.98-3.663 7.861-6.504 1.73-2.69 4.176-6.316 4.138-9.531 0-.262.188-.448.414-.523 1.467-.56 3.573-1.533 3.009-3.477-.15-.485.413-.86.827-.635.978.785 1.505.71 1.618-.187.451-.598.263-1.009-.602-1.27-.339-.188-.376-.786 0-.972-.038-.075-.038-.15-.075-.262-.377.336-.94.075-.978-.411a25.78 25.78 0 01-.978-1.122c-.226-.037-.414-.299-.414-.523a3.067 3.067 0 00-.564-1.981c-.339-.748.64-1.308.978-.71z"/><path d="M27.646 38.388c-3.498 3.065-8.764 4.373-11.472 8.297-.414.599-1.392.038-.978-.56 2.784-4.074 8.05-5.345 11.66-8.522.527-.486 1.317.336.79.785z"/><path d="M17.377 43.845a3.477 3.477 0 00-1.241-.224c-.715 0-.715-1.122 0-1.122.527 0 1.053.112 1.542.262.301.112.49.374.376.673-.037.299-.376.523-.677.41zm23.81 25.642c-3.987-1.234-7.485-3.477-10.607-6.168-1.693-1.458-3.31-3.065-4.852-4.672-.828-.86-2.52-2.019-2.107-3.327.226-.673 1.317-.411 1.091.3-.226.784 3.01 3.438 3.536 3.999 1.241 1.233 2.52 2.43 3.836 3.513 2.821 2.318 5.906 4.224 9.441 5.308.678.187.377 1.27-.338 1.047zm-7.974-39.248a5.903 5.903 0 00-2.483 1.42c-.526.486-1.316-.299-.79-.784.866-.785 1.844-1.384 2.972-1.683.715-.224 1.016.823.3 1.047zm3.912-8.934c.263.45.45 1.16.15 1.645-.338.56-1.053.486-1.392-.037-.15-.224-.188-.486-.225-.748-.038-.299-.113-.598-.076-.86.076-.71.865-.86 1.355-.448.45.336.865.86.902 1.458.038.523-.225 1.084-.752 1.27-1.166.412-1.768-1.083-1.505-1.98.188-.673.94-.898 1.505-.524.677.411.564 1.159.602 1.87.037.71-1.091.71-1.129 0v-.599c0-.075-.037-.187-.037-.262 0-.037-.038-.037-.038-.074 0-.038.15-.112.188-.075v.224c0 .112.038.225.075.3 0 0 .038.074.076.074 0-.037-.15-.037-.113 0 0 0 .037-.15.037-.187 0-.15-.15-.262-.225-.374-.038-.074-.113-.112-.15-.187-.076-.074-.113-.074-.076-.112.113-.037.188-.037.301-.074l.075-.075c.038-.112.038-.187.075-.3-.037.225.038.412.076.636 0 .075.037.187.037.3 0 .186.188 0-.15.037-.113.037-.188.037-.301.074-.075.187-.075.225-.075.038v-.15l-.113-.336c-.414-.598.564-1.159.903-.524zM26.63 23.1c.188.486.263.972.226 1.495-.038.636-.903.785-1.091.15-.226-.673-.376-1.832.526-2.094.866-.224 1.392.598 1.468 1.346.037.336 0 .71-.301.972-.339.299-.828.15-1.129-.15-.602-.56-.79-1.383-.64-2.168.076-.41.678-.56.941-.261.414.486.978 1.345.79 2.018-.113.411-.564.598-.94.449-.377-.113-.602-.449-.715-.785-.188-.598-.113-1.72.715-1.757.376-.037.714.224.902.523.076.15.113.337.15.523 0 .075 0 .262.038.3.527.523-.3 1.308-.79.784-.188-.186-.3-.373-.338-.635-.038-.112-.038-.224-.038-.336-.037-.187-.037-.038.076-.075.113-.038.188-.038.3-.075.113-.075.076-.112.076.037v.225c0 .075.075.15.037.15h-.3.075c-.075.037-.15.111-.264.149l.038-.038c-.038.075-.113.15-.15.262.037-.075-.076-.336-.15-.448-.076-.187-.227-.374-.34-.524.302-.075.64-.15.94-.261a1.22 1.22 0 00.038.635c.038.112.151.411.301.449h-.3.075c-.076.037-.15.112-.264.15-.037.037 0 .074-.037-.038v-.187c0-.038-.075-.262-.075-.224 0-.038.15-.113.15-.113v.262c0 .187.075.374.113.56-.376.038-.752.113-1.09.15a2.586 2.586 0 00-.189-1.196c-.113-.299.113-.598.376-.673.414-.037.677.15.79.449zm8.388 3.7c-.564-.56-1.43-.336-1.655.449-.188.71-1.279.41-1.09-.3.413-1.607 2.369-2.093 3.535-.934.526.486-.264 1.271-.79.785zm3.047-.41c.715-1.047 2.144-1.832 3.31-.973.827.636.79 1.981-.188 2.43-.15.075-.301-.15-.15-.224 1.015-.486.714-1.87-.264-2.206-1.016-.336-1.918.3-2.445 1.122-.113.15-.376.037-.263-.15zM28.06 30.8c-1.618 1.159-3.724 1.831-5.605.86-1.128-.599-2.332-2.206-.94-3.178.602-.448 1.43-.523 2.144-.598 1.128-.15 2.483-.336 3.573.075 1.166.449 1.919 1.906.828 2.803-.15.113-.339-.074-.188-.186 1.24-1.01-.113-2.243-1.091-2.467-.564-.15-1.204-.113-1.768-.075-.677.037-1.392.112-2.069.224-.902.187-1.391.337-1.467 1.308-.075 1.01.452 1.458 1.354 1.907.527.261 1.091.373 1.693.373 1.279 0 2.445-.56 3.46-1.27.076-.113.226.15.076.224zm18.505 11.288c.226.112.414.3.564.523.038.113 0 .187-.112.225a.768.768 0 01-.79-.524c-.113-.261.037-.56.338-.56.226 0 .49.187.527.448.038.3-.226.523-.49.598-.3.075-.676-.037-.827-.336-.15-.3.076-.636.339-.785.263-.112.677 0 .752.299.075.262-.188.598-.451.449-.15-.075-.226-.225-.188-.337.037-.187.188-.224.338-.187a.688.688 0 01.527.822c-.038.187-.301.113-.264-.074.076-.262-.188-.486-.45-.486.074 0 .112-.037.187-.075.038.075.076.038.076-.037 0-.038-.038-.075-.076-.075-.075-.037-.15-.075-.263-.037-.15.037-.263.15-.263.299-.038.336.489.373.677.224.075-.075.15-.187.075-.3-.038-.074-.188-.111-.263-.074-.113.038 0 .262.075.337.113.112.263.186.414.149l-.113.224a.955.955 0 00-.452-.41c-.188-.15-.037-.375.113-.3zm.64 23.436c-1.58-.598-3.16-1.27-4.627-2.055-.15-.075 0-.337.15-.225 1.468.785 3.01 1.458 4.59 2.056.113 0 .037.3-.113.224z"/><path d="M47.731 66.608c-2.745-.897-5.153-2.392-7.221-4.373-.113-.112.075-.336.188-.187 2.03 1.981 4.4 3.401 7.109 4.299.15.074.075.336-.076.261zm.452 1.346a105.989 105.989 0 01-6.883-4c-.151-.112 0-.336.15-.224a106.01 106.01 0 006.883 4c.15.075 0 .336-.15.224zm-1.353.747a63.102 63.102 0 01-5.568-3.775c-.15-.112 0-.336.15-.224a69.353 69.353 0 005.568 3.775c.112.075 0 .337-.15.224z"/><path d="M48.71 69.487a44.3 44.3 0 01-6.32-2.99c-.15-.076 0-.337.15-.225 1.994 1.159 4.1 2.13 6.245 2.953.188.075.113.336-.076.262zm-.753 1.27a26.3 26.3 0 01-3.912-1.794c-.15-.075 0-.336.15-.224 1.242.672 2.52 1.27 3.837 1.757.15.037.113.336-.075.261zm24.261-7.475c.075-.075.15-.15.263-.187.15-.112.339.074.188.187a19.88 19.88 0 01-6.695 4.074c-.188.075-.226-.224-.075-.262a19.804 19.804 0 006.582-4l.188.188a.674.674 0 01-.263.186c-.113.113-.339-.074-.188-.187zm-.038-2.654a35.996 35.996 0 01-3.31 3.027c-.827.673-1.692 1.458-2.783 1.645-.188.038-.263-.262-.075-.262 1.279-.186 2.407-1.308 3.347-2.093a32.988 32.988 0 002.633-2.467c.113-.187.339.038.188.15zm-2.03-1.196a18.156 18.156 0 01-5.116 4.747c-.15.112-.301-.15-.15-.225a18.007 18.007 0 005.002-4.672c.113-.15.376 0 .263.15z"/><path d="M68.193 52.292c1.166 1.309 1.58 3.327 2.069 4.934.677 2.206 1.053 4.448.865 6.766 0 .187-.3.187-.3 0 .187-2.056-.114-4.037-.678-6.018-.489-1.72-1.016-4.112-2.22-5.495-.074-.112.114-.336.264-.187z"/><path d="M68.87 55.62c.564 3.4.752 6.802.564 10.24 0 .188-.3.188-.3 0a48.73 48.73 0 00-.527-10.203c-.038-.15.225-.225.263-.038zm-.79 2.391c.226 2.019.377 4.075.414 6.13.038 1.084 0 2.168-.903 2.878-.15.113-.338-.074-.188-.186 1.28-.972.828-3.252.753-4.598a78.463 78.463 0 00-.339-4.186c-.037-.225.226-.225.264-.038z"/><path d="M67.328 60.852c.565 1.383.828 2.804.753 4.299-.076.972-.188 2.392-.865 3.102-.038.037-.076.037-.15.037-.038 0-.114-.037-.151-.037-.188-.037-.113-.336.075-.262.564.187.827-3.513.827-3.55 0-1.234-.3-2.393-.752-3.514-.075-.187.188-.262.263-.075zm-.752 2.43c-.414 1.57-.828 3.177-1.241 4.747-.038.186-.301.112-.264-.075.414-1.57.828-3.177 1.242-4.747.037-.15.3-.075.263.075zm-5.642-19.998c.64.075.414-.037.903.374.113.075.075.262-.076.262-3.385-.15-6.582.635-9.516 2.28-.15.074-.3-.15-.15-.225 1.467-.822 3.009-1.495 4.664-1.869a16.56 16.56 0 011.88-.336 11.096 11.096 0 011.543-.112c.113 0 1.316.037.714-.037-.15-.075-.15-.337.038-.337z"/><path d="M51.944 43.92l.79 1.009c.113.15-.113.262-.226.187l-1.015-.897c.075-.075.15-.112.225-.187.226.448.49.86.753 1.27.075.113-.076.262-.188.188a37.807 37.807 0 00-1.28-.898l.189-.186c.3.523.64 1.046.94 1.532.075.112-.075.262-.188.187-.715-.374-1.354-.86-1.956-1.383.075-.037.15-.037.226-.075-.075.374 0 .71.3.972.113.112-.037.3-.187.224-.226-.15-.49-.261-.715-.41l.188-.188c.15.3.301.524.602.71.15.075 0 .337-.15.225a1.545 1.545 0 01-.715-.823c-.038-.112.075-.261.188-.186.225.15.489.261.715.41-.076.075-.113.15-.189.225-.338-.336-.451-.785-.376-1.233.038-.113.15-.113.226-.075.602.523 1.204.972 1.918 1.345l-.188.187c-.3-.523-.64-1.046-.94-1.532-.075-.112.075-.262.188-.187.414.299.827.598 1.279.897l-.188.187a8.7 8.7 0 01-.753-1.271c-.075-.15.113-.262.226-.187l1.016.897c-.076.075-.15.112-.226.187l-.79-1.01c-.038-.149.226-.26.301-.111zm-38.967-9.756c-.264.86-.075 1.756.526 2.467.113.15-.075.336-.188.187-.64-.785-.865-1.757-.602-2.729.038-.187.301-.112.264.075zm-2.934-.074c-.978-.561-1.43-.524-1.317.149a.952.952 0 00.15.71c.114.187.264.411.452.56.452.45 1.053.71 1.655.935.752.3 1.505.56 2.144 1.047.15.112-.075.299-.188.187-1.279-1.047-4.363-1.197-4.476-3.327-.075-1.383 1.768-1.72 1.918-.3-.037.225-.3.225-.338.038zM37.2 3.551c-3.649.224-7.222.075-10.833-.523-.188-.038-.113-.3.075-.262 3.574.598 7.147.748 10.758.523.188-.037.188.262 0 .262z"/><path d="M33.965 4.224A21.177 21.177 0 0123.47 1.346c-.15-.075 0-.337.151-.225 3.197 1.832 6.658 2.766 10.381 2.841.15 0 .15.262-.037.262zM32.573 5.27C29 5.01 25.653 4 22.568 2.205c-.15-.074 0-.336.15-.224a22.82 22.82 0 009.855 3.028.131.131 0 010 .261z"/><path d="M31.182 5.794a32.288 32.288 0 01-8.463-3.065c-.15-.075 0-.337.15-.225a30.882 30.882 0 008.388 3.028c.15.037.075.299-.075.262z"/><path d="M28.774 5.308c-2.332-.374-4.476-1.196-6.47-2.43-.15-.112 0-.336.151-.224 1.956 1.233 4.1 2.018 6.395 2.392.188 0 .112.3-.076.262zm-1.994.262a59.797 59.797 0 01-5.04-2.131c-.15-.075-.037-.337.151-.224a82.078 82.078 0 004.965 2.093c.15.037.075.336-.075.261zm-2.256-.262a16.734 16.734 0 01-4.589-1.794c-.15-.075 0-.337.15-.225A17.945 17.945 0 0024.6 5.046c.188.037.113.3-.075.262zm-.376.897a40.082 40.082 0 01-4.927-2.019c-.15-.074-.038-.336.15-.224a33.879 33.879 0 004.852 1.981c.15.038.075.3-.075.262zm-2.671-.038c-.865-.41-1.768-.822-2.633-1.233-.15-.075-.037-.336.15-.224.866.41 1.768.822 2.634 1.233.15.075 0 .3-.15.224zM9.855 14.914c-.301 3.065-.527 6.205 1.09 8.97.075.15-.15.3-.225.15-1.655-2.803-1.43-5.98-1.129-9.12 0-.187.301-.187.264 0z"/><path d="M9.216 13.569c-.94 4.036-.301 8.11 1.805 11.662.075.15-.15.299-.226.15-2.181-3.627-2.82-7.776-1.843-11.887.038-.187.301-.112.264.075z"/><path d="M8.012 14.39a31.919 31.919 0 001.692 10.953c.076.186-.225.261-.263.074a32.34 32.34 0 01-1.693-11.026c-.037-.15.264-.15.264 0z"/><path d="M6.394 15.288c.038 1.906.301 3.775.79 5.607.188.747.452 1.495.715 2.242.038.038 1.392 2.692 1.354 2.766.038-.187.339-.112.263.075-.075.224-.075.224-.263.336-.075.038-.15 0-.188-.037-1.843-3.401-2.821-7.102-2.934-10.99-.038-.186.263-.186.263 0z"/><path d="M6.394 14.764a35.07 35.07 0 00.339 5.607c.113.935.3 1.832.489 2.766.113.449.225.897.338 1.383-.037.598.264.935.865 1.01.038-.188.301-.113.264.074-.188 1.308-1.166-.187-1.317-.673-1.015-3.252-1.316-6.765-1.279-10.13.038-.186.301-.186.301-.037z"/><path d="M6.432 17.157c-.376 2.953-.263 6.055 2.106 8.186.15.112-.075.336-.188.186-2.445-2.167-2.558-5.345-2.181-8.372 0-.187.3-.187.263 0zM24.562 2.43c-3.987-.412-7.824.41-11.247 2.467-.15.074-.3-.15-.15-.225 3.46-2.055 7.372-2.915 11.397-2.504a.131.131 0 010 .262zm-2.106 1.681a48.21 48.21 0 00-10.194 2.692c-.188.074-.225-.225-.075-.262 3.31-1.27 6.695-2.13 10.193-2.691.188-.038.264.224.076.261zM6.77 10.391c-2.407 0-4.626-.934-6.319-2.69-.112-.113.076-.337.188-.188 1.655 1.682 3.762 2.58 6.131 2.58.15.037.15.298 0 .298z"/><path d="M7.109 11.55c-2.633-.86-5.53-1.944-6.357-4.822-.037-.187.226-.261.263-.075.828 2.804 3.649 3.813 6.17 4.635.15.038.074.3-.076.262z"/><path d="M5.717 11.849A9.788 9.788 0 01.79 8.597c-.113-.15.075-.336.188-.187 1.241 1.533 2.896 2.617 4.814 3.177.189.038.113.337-.075.262zm-1.09 1.084c-.189 0-.189-.3 0-.3.188 0 .188.3 0 .3zM12.3 30.015c-1.693-1.084-3.047-2.542-3.95-4.299-.075-.15.15-.299.226-.15a10.93 10.93 0 003.874 4.187c.15.112 0 .374-.15.262z"/><path d="M9.93 25.791c.338.598.715 1.121 1.053 1.72.301.336.49.71.564 1.158a12.645 12.645 0 00-.601-.897c-.226-.336-.715-1.532-.339-.635.301.747.602 1.532.903 2.28.075.15-.188.224-.264.112-.45-.71-1.128-1.495-1.391-2.28-.264-.748.376.448.489.635.263.486.489 1.047.714 1.533.076.15-.15.299-.225.15a25.67 25.67 0 01-1.242-1.795c-.564-.86-.677-1.458-.3.636.037.149-.189.261-.264.112-.64-1.084-2.03-3.551-1.015-.598.075.186-.226.224-.264.074-.225-.56-.489-1.42-.601-1.869.15.524.3 1.383.413 2.019.038.15-.15.261-.263.112-.677-.934-.903-1.831-.79-2.99 0-.187.263-.187.301 0a18.34 18.34 0 00.414 3.214c.037.15-.15.224-.226.15-2.407-2.43-1.166-7.214-.338-10.055.037-.187.338-.112.263.075-.451 1.57-.79 3.14-.903 4.784-.075 1.159-.338 3.364.564 4.299.677.71-.564-2.093.188-1.907-.075 0 .414 2.393.49 1.832.075-.56-.264-1.495-.34-2.093-.037-.187.227-.262.264-.075.075.187.903 2.13.452 2.018-.226-.074-.188-1.607-.188-1.682 0-.15.188-.186.263-.074.15.224 1.392 1.98 1.279 2.13-.038.075-.188-1.42-.188-1.457 0-.15.188-.187.263-.075.489.86 1.128 1.98 1.617 2.654-.451-.636-.827-1.645-1.166-2.505-.075-.15.188-.261.264-.112.413.822 1.203 1.72 1.466 2.58-.225-.674-.902-1.832-1.24-2.655-.076-.15.187-.224.262-.112.64 1.01 1.317 2.019 1.956 2.99.076.15-.112.3-.225.187a21.622 21.622 0 01-2.257-3.326c-.15-.3.075-.412.188-.262z"/></g><defs><clipPath id="clip0"><path fill="#fff" transform="matrix(-1 0 0 1 87 0)" d="M0 0h87v73H0z"/></clipPath></defs></svg>