<svg width="41" height="56" fill="none" xmlns="http://www.w3.org/2000/svg"><g clip-path="url(#clip0)" fill="#0AB6E2"><path d="M22.205 33.614c1.102-1.755 1.99-3.448 2.396-5.517.29-1.577.697-3.245-.26-4.66-1.826-2.71-6.174-2.422-8.754-1.098-1.23.617-2.262 1.72-2.485 3.133-.236 1.561.732 2.714 1.685 3.814 1.43 1.65 4.973 6.904 7.607 3.986.347-.388-.25-.96-.598-.572-1.977 2.21-5.465-2.858-6.575-4.2-.969-1.152-1.744-2.333-.941-3.83.69-1.29 2.095-1.9 3.452-2.18 2.408-.528 6.463-.244 6.453 3.088-.023 2.79-1.208 5.344-2.638 7.653-.359.45.387.835.658.383z"/><path d="M15.675 30.262c-1.126 4.144-2.016 8.506-1.627 12.812.318 3.466 1.254 7.182 4.914 8.384 1.847.61 3.812.441 5.705.12 2.173-.345 4.438-.774 6.346-1.932 3.476-2.101 4.103-5.784 2.654-9.38-.813-2.002-1.793-4.184-3.43-5.66-2.069-1.866-3.691-4.177-5.434-6.31-.225-.279-.847-.241-.77.224l-.01.261c-.203.49.516.883.72.393.116-.292.153-.36.122-.666l-.77.223c1.4 1.745 2.762 3.559 4.279 5.212.77.867 1.767 1.524 2.42 2.482.645.93 1.135 2.022 1.629 3.027 1.105 2.318 1.921 5.122.378 7.436-1.524 2.28-4.303 3.117-6.84 3.596-2.397.468-5.109.941-7.41-.14-2.326-1.074-3.027-3.481-3.423-5.834-.827-4.723.126-9.563 1.39-14.12.105-.432-.708-.655-.843-.128z"/><path d="M19.168 33.464c-.726 3.34-1.528 7.016-.251 10.317 1.07 2.788 3.699 3.516 6.517 3.012 2.87-.52 3.89-2.853 3.227-5.53-.837-3.372-3.356-5.997-5.855-8.254-.388-.346-.963.251-.574.597 1.874 1.693 3.699 3.515 4.85 5.792.559 1.129 1.08 2.526 1.021 3.806-.091 1.863-1.682 2.728-3.367 2.873-1.324.099-3.062.059-4.045-.946-.941-.96-1.327-2.484-1.476-3.79-.318-2.575.256-5.153.8-7.635.067-.565-.739-.761-.847-.242zm-5.412-4.854c.091.117-1.779.317-1.961.284-.574-.092-1.133-.331-1.62-.62-1.076-.634-1.941-1.53-2.67-2.552-1.32-1.768-2.338-3.882-3.158-5.91-1.718-4.322.034-8.59 3.313-11.667 1.607-1.5 3.542-2.666 5.68-3.23 2.358-.6 4.752-.091 7.117.225 2.279.313 4.417.638 6.188 2.275 1.501 1.4 2.537 3.28 3.319 5.176.494 1.205.89 2.467.785 3.789-.097 1.348-.68 2.608-1.158 3.837-.962 2.432-1.636 5.756-4.678 6.181-.527.067-.516.896.011.83 2.875-.407 3.763-2.501 4.744-4.967.924-2.364 2.254-4.817 1.842-7.423-.386-2.413-1.701-4.957-3.2-6.845-1.816-2.284-4.081-3.146-6.907-3.558-2.757-.375-5.556-.995-8.294-.314-2.658.658-5.012 2.261-6.849 4.259-1.663 1.803-2.994 4.056-3.379 6.492-.433 2.766.598 5.22 1.795 7.656 1.27 2.586 2.876 5.534 5.652 6.764 1.056.467 2.333.698 3.428.208.507-.234 1.14-.733.708-1.325-.298-.43-1.006.005-.708.435z"/><path d="M15.624 22.07c-1.895-1.371-4.442-3.299-3.96-5.993.391-2.122 3.046-3.583 4.969-3.999 2.362-.486 4.486 1.077 5.193 3.31.65 2.136-.112 4.366-1.285 6.17a.378.378 0 00.085.492c.11.083.202.2.313.282.396.373.97-.225.574-.597-.11-.083-.202-.2-.312-.282.02.166.04.332.085.491 1.426-2.222 2.223-5.123 1.037-7.618-1.056-2.247-3.407-3.6-5.895-3.05-2.374.548-5.365 2.336-5.601 4.987-.266 2.947 2.27 4.935 4.42 6.49.389.347.785-.37.377-.683z"/><path d="M13.947 26.891c-1.257-.065-2.537.48-3.558-.457-.93-.82-.76-2.218-1.296-3.268-.455-.872-.898-.714-1.712-1.137-1.852-.925-1.603-3.035-1.336-4.69.093-.573.065-.966-.248-1.45-.42-.652-.498-.227-.127-1.225.32-.782.237-.671.812-1.068.288-.199.602-.405.772-.712.301-.547.14-1.103.206-1.667.036-.47.324-1.357.714-1.7.253-.217.762-.25 1.107-.35.478-.14.91-.237 1.315-.527.666-.48.959-1.254 1.507-1.844 1.508-1.644 2.553-.427 3.963.167.62.25 1.147.183 1.726-.1.178-.08.368-.222.546-.302.125-.065.242-.157.34-.214.859.18 1.683.343 2.542.523.194.173.172.495.435.706.407.312.958.324 1.424.246.546-.102 1.281-.545 1.828-.446 1.678.23 1.961 1.697 1.705 3.091-.115.694-.328 1.444.012 2.12.348.702 1.031.676 1.617 1.108 2.224 1.706-.66 2.774-1.214 3.94-.335.728-.116 1.382.118 2.089.307.857.682 1.552-.005 2.354-.522.582-1.121.7-1.75 1.112-.583.37-.907.838-.848 1.538.012.14.214.138.202-.002-.162-1.645 2.108-1.56 2.787-2.59.464-.68.222-1.412-.047-2.138-.36-1.043-.713-1.858.175-2.863.393-.43.904-.75 1.255-1.226.416-.55.652-1.222.247-1.822-.824-1.252-2.499-.478-2.443-2.761.007-1.064.64-2.052.06-3.06a2.104 2.104 0 00-1.636-1.073c-.566-.065-1.047.161-1.605.323-.936.244-1.483.145-2.143-.84-.157-.241.04-.155-.26-.498-.546-.587-1.38-.488-2.055-.235-.443.158-.772.512-1.181.688-1.652.653-1.952-.178-3.191-.679-2.581-1.057-3.141 2.263-5.108 2.921-.762.25-1.673.286-2.148 1.026-.159.247-.188.543-.225.812-.143 1.19.129 1.828-1.055 2.803-.47.366-1.11.639-1.172 1.317-.032.382.158.442.284.778.042.045.084.09.092.117.35.414.47.925.412 1.515-.025.41-.183.857-.234 1.274-.068 1.052.1 2.123.774 2.96.4.486.754.612 1.268.893.95.499 1.32.879 1.62 1.91.285.98.414 2.118 1.388 2.696.967.551 2.263.06 3.318.125.14-.012.14-.212.026-.208z"/><path d="M23.093 20.041c.271.438.728.822 1.274.72.467-.078.834-.5.695-.976-.327-1.024-2.467-1.062-2.265.228.012.14.224.078.212-.062-.175-1.097 2.001-.84 1.876.115-.033.382-.469.566-.807.492-.364-.066-.616-.337-.788-.631-.091-.117-.262-.01-.197.114zm-.267-5.173c.627.076 1.423-.156 1.701-.782.256-.505-.083-.98-.641-1.018-.593-.058-1.202.32-1.443.878-.192.43-.003 1.178.619.94.132-.039.07-.25-.062-.212-.372-.093-.513-.281-.397-.573.038-.069.049-.13.087-.198a1.62 1.62 0 01.374-.395c.26-.191.606-.291.91-.236.703.14.367.868-.019 1.124-.306.233-.72.296-1.103.264-.087-.004-.14.212-.026.208zm-5.164-4.495c.546-.101 1.155-.48 1.343-1.022.158-.448-.181-.722-.591-.746-1.07-.12-2.296 1.012-1.507 2.045.084.09.262.01.17-.107-.548-.701.052-1.507.81-1.67.16-.047.486-.113.63-.011.088.204.169.381.257.585-.057.102-.14.213-.23.296a1.795 1.795 0 01-.902.463c-.174-.006-.12.18.02.167zm-7.332 1.214c.362 1.244 2.281.025 1.503-.868-.392-.46-1.117-.277-1.556-.006-.223.122-.397.316-.407.578-.004.087-.007.174.042.245.05.072.313.283.301.343-.022.122.18.12.202 0 .029-.296-.4-.286-.333-.65.04-.356.598-.518.87-.57.494-.085 1.05.241.782.807-.245.444-1.007.694-1.192.06-.03-.107-.243-.045-.212.061zm-2.78 6.175c.507.655 2.388.194 1.902-.783-.218-.453-.931-.332-1.322-.19-.523.181-.916.611-.86 1.197.011.14.213.14.2 0-.093-.72.729-1.16 1.374-1.117.323.02.514.28.352.615-.087.197-.265.277-.45.331-.293.085-.835.1-1.026-.16-.092-.117-.262-.01-.17.107zm3.429 4.368c-.371.309-.653 1.022-.268 1.455.16.155.327.135.54.073.398-.116.83-.213 1.163-.453.378-.282.577-.885.143-1.19-.544-.387-1.488.031-2.003.239-.133.038-.071.25.062.211.409-.176.852-.334 1.274-.37.193-.028.455-.018.588.144.286.29.018.655-.198.804-.189.141-.428.21-.64.272-.133.039-.356.161-.504.147-.699-.027-.25-.96.003-1.177.09-.084-.07-.239-.16-.155zm5.577 5.322c.39 1.436 1.044 1.906 2.52 1.735.887-.115 2.83-.364 3.21-1.335.254-.706-.296-1.608-.98-1.782-.528-.133-1.229.128-1.733.275a38.7 38.7 0 00-2.957.917c-.132.039-.07.25.062.212.727-.269 1.47-.485 2.214-.701.318-.093.61-.178.936-.244.671-.166 1.027-.327 1.651.036.794.257.842.817.178 1.7-.231.095-.463.19-.694.287a8.162 8.162 0 01-1.114.324c-.406.09-1.096.29-1.53.186-.812-.222-1.32-.878-1.543-1.645-.072-.151-.258-.097-.22.035z"/><path d="M17.966 27.845c-.291.286-.047.731.351.616.656-.22.213-.952-.08-1.268l-.095.17c.415.139.658.383.853.757.023.08.137.075.175.006.057-.102.026-.208.063-.276-.015-.053.004-.087-.011-.14.148.014.261.01.41.024.06.011.091.117.17.094.088.003.157.04.236.017.053-.015.314-.206.367-.221.33-.153.61-.178.975-.112.122.022.182-.167.06-.19a1.675 1.675 0 00-.99.06c-.31.118-.314.205-.755.075-.06-.01-.118-.109-.179-.12-.626-.076-.291.286-.49.688.06.011.113-.004.174.007a1.634 1.634 0 00-.971-.866c-.095-.03-.17.107-.094.171.281.177.29.404.017.655.057-.102-.095-.23-.186-.147zm-2.188 8.413a11.23 11.23 0 012.167-.171c.14-.012.14-.213 0-.2-.745.015-1.473.083-2.22.186-.149-.015-.087.197.053.185zm-.472 3.322c.554-.075 1.123-.096 1.67.003.121.022.181-.168.06-.19a6.404 6.404 0 00-1.784.002c-.14.012-.079.224.054.185zm.08 3.047a22.9 22.9 0 001.904-.381c.133-.039.079-.224-.062-.212-.618.151-1.27.284-1.903.382-.133.038-.08.224.061.211zm.911 3.724c.484-.313.984-.573 1.484-.833.125-.065.018-.235-.107-.17-.507.234-1 .52-1.484.834-.125.065-.018.234.107.17zm1.305 3.006c.29-.486.657-.908 1.085-1.32.09-.083-.07-.237-.153-.127-.427.411-.786.86-1.103 1.354-.083.11.115.196.171.093zm3.275.569c.096-.459.16-.936.256-1.395.022-.12-.168-.18-.19-.06-.097.46-.16.937-.256 1.395-.05.13.167.181.19.06zm2.287-1.239l.5 1.72c.039.132.251.07.213-.062l-.5-1.72c-.066-.125-.251-.07-.213.062zm2.187-.694c.222.366.425.766.548 1.19.038.132.25.07.212-.062a7.234 7.234 0 00-.563-1.242c-.084-.09-.28.024-.197.114zm2.119-.53c.352.414.65.844.955 1.3.065.125.262.01.17-.106a18.032 18.032 0 00-.996-1.346c-.084-.09-.212.062-.128.152zm1.726-1.391c.54.273 1.034.588 1.472 1.006.11.083.24-.07.129-.152a6.42 6.42 0 00-1.534-1.018c-.076-.064-.197.115-.067.163zm1.277-1.347c.394-.23 1.097-.09 1.56-.081.463.009.9.025 1.355.008.14-.013.14-.213-.001-.201-.603.003-1.188-.028-1.791-.024-.403.002-.828-.075-1.203.12-.16.046-.045.243.08.178zm-1.06-2.16c.811-.38 1.653-.653 2.544-.855.132-.038.078-.223-.062-.211-.891.202-1.759.483-2.596.87-.091.084.016.253.114.196zm-1.128-3.087c.462-.192.925-.384 1.414-.583.23-.096.409-.176.48-.427.049-.129-.168-.18-.19-.06-.082.312-.61.379-.86.51-.31.118-.587.256-.898.375a.097.097 0 00.054.185zm-1.08-2.727a56.452 56.452 0 011.608-1.3c.09-.084-.035-.22-.153-.128a56 56 0 01-1.608 1.3c-.098.058.062.212.153.128zM24.4 34.726a5.157 5.157 0 001.775-1.119c.09-.084-.043-.246-.152-.128-.5.461-1.056.824-1.677 1.062-.133.039-.072.25.053.185z"/></g><defs><clipPath id="clip0"><path fill="#fff" transform="rotate(-16.217 27.846 3.967)" d="M0 0h28.411v49.127H0z"/></clipPath></defs></svg>