<svg width="70" height="94" fill="none" xmlns="http://www.w3.org/2000/svg"><g clip-path="url(#clip0)" fill="#0AB6E2"><path d="M37.515 56.791c1.86-2.965 3.363-5.826 4.048-9.322.49-2.663 1.178-5.48-.441-7.87-3.083-4.582-10.43-4.093-14.788-1.856-2.08 1.041-3.823 2.905-4.198 5.293-.4 2.637 1.236 4.585 2.847 6.444 2.415 2.788 8.4 11.664 12.85 6.734.588-.656-.423-1.622-1.01-.966-3.339 3.734-9.233-4.83-11.108-7.096-1.637-1.948-2.946-3.943-1.59-6.47 1.165-2.181 3.54-3.211 5.833-3.684 4.069-.893 10.919-.413 10.902 5.216-.039 4.714-2.042 9.03-4.457 12.931-.606.758.654 1.41 1.112.646z"/><path d="M26.484 51.128c-1.903 7-3.406 14.37-2.75 21.646.537 5.855 2.12 12.133 8.303 14.165 3.12 1.032 6.44.745 9.638.203 3.672-.584 7.497-1.308 10.722-3.264 5.872-3.55 6.931-9.773 4.483-15.848-1.372-3.382-3.028-7.07-5.795-9.562-3.495-3.153-6.235-7.058-9.18-10.662-.38-.471-1.431-.408-1.3.378l-.017.442c-.343.827.871 1.491 1.214.665.197-.494.26-.61.207-1.127l-1.3.378c2.365 2.948 4.666 6.012 7.23 8.805 1.3 1.464 2.985 2.574 4.087 4.192 1.09 1.574 1.918 3.418 2.752 5.115 1.869 3.916 3.247 8.654.64 12.564-2.576 3.852-7.27 5.265-11.557 6.076-4.05.79-8.631 1.589-12.518-.238-3.931-1.814-5.114-5.881-5.784-9.856-1.397-7.98.212-16.157 2.35-23.856.176-.73-1.198-1.107-1.425-.216z"/><path d="M32.385 56.538c-1.228 5.642-2.583 11.853-.425 17.431 1.807 4.71 6.25 5.94 11.01 5.088 4.85-.878 6.573-4.82 5.452-9.343-1.413-5.697-5.67-10.131-9.89-13.945-.657-.585-1.628.425-.971 1.01 3.166 2.86 6.25 5.938 8.194 9.784.944 1.907 1.825 4.269 1.725 6.431-.154 3.148-2.842 4.608-5.688 4.854-2.237.166-5.174.1-6.835-1.6-1.59-1.621-2.242-4.195-2.494-6.4-.537-4.353.434-8.707 1.353-12.902.112-.953-1.249-1.285-1.431-.408zm-9.145-8.2c.155.197-3.005.535-3.313.479-.969-.155-1.913-.559-2.736-1.047-1.818-1.07-3.28-2.585-4.511-4.311-2.23-2.987-3.95-6.56-5.336-9.986-2.902-7.301.058-14.513 5.597-19.711 2.715-2.535 5.984-4.504 9.597-5.458 3.985-1.013 8.028-.153 12.025.381 3.85.529 7.461 1.078 10.454 3.844 2.536 2.365 4.286 5.54 5.607 8.744.835 2.035 1.504 4.168 1.326 6.4-.164 2.279-1.15 4.408-1.956 6.484-1.625 4.109-2.763 9.725-7.903 10.444-.891.113-.873 1.514.018 1.4 4.858-.685 6.357-4.224 8.014-8.39 1.562-3.994 3.81-8.138 3.113-12.54-.651-4.078-2.874-8.376-5.407-11.567-3.067-3.858-6.895-5.315-11.668-6.01-4.658-.634-9.388-1.682-14.013-.53-4.49 1.111-8.468 3.82-11.572 7.194-2.809 3.048-5.058 6.853-5.708 10.969-.732 4.673 1.01 8.82 3.032 12.935 2.146 4.369 4.86 9.349 9.548 11.427 1.786.79 3.942 1.18 5.792.352.858-.395 1.925-1.239 1.197-2.239-.503-.726-1.7.01-1.197.736z"/><path d="M26.397 37.288c-3.202-2.316-7.505-5.574-6.69-10.126.66-3.585 5.145-6.053 8.394-6.755 3.991-.822 7.58 1.819 8.774 5.592 1.098 3.608-.189 7.376-2.17 10.425-.173.244-.1.659.143.83.187.14.342.337.528.477.67.63 1.64-.38.97-1.01-.186-.14-.34-.337-.527-.476.033.281.066.562.145.83 2.409-3.755 3.755-8.655 1.75-12.871-1.784-3.796-5.756-6.083-9.959-5.151-4.01.924-9.064 3.945-9.463 8.424-.449 4.979 3.835 8.338 7.468 10.966.657.585 1.325-.628.637-1.155z"/><path d="M23.563 45.433c-2.123-.11-4.287.81-6.011-.773-1.57-1.385-1.285-3.747-2.19-5.52-.768-1.473-1.518-1.207-2.893-1.922-3.128-1.562-2.706-5.127-2.256-7.925.157-.966.11-1.631-.42-2.447-.71-1.102-.841-.385-.213-2.07.54-1.321.4-1.135 1.371-1.806.486-.335 1.017-.683 1.304-1.203.51-.924.236-1.862.348-2.816.06-.793.549-2.293 1.207-2.872.428-.367 1.287-.423 1.87-.592.807-.235 1.537-.399 2.221-.889 1.126-.812 1.62-2.12 2.547-3.116 2.547-2.777 4.312-.721 6.695.283 1.047.422 1.938.309 2.917-.17.301-.136.62-.374.922-.51.21-.11.409-.265.575-.362 1.45.306 2.843.58 4.294.885.328.292.291.836.735 1.192.689.527 1.618.547 2.407.415.922-.171 2.163-.92 3.087-.753 2.836.388 3.314 2.867 2.88 5.223-.194 1.171-.554 2.44.021 3.581.588 1.186 1.742 1.142 2.733 1.872 3.756 2.883-1.117 4.688-2.052 6.656-.566 1.231-.196 2.336.2 3.53.519 1.449 1.152 2.622-.01 3.978-.88.983-1.893 1.18-2.955 1.877-.985.626-1.533 1.416-1.432 2.599.02.236.36.234.34-.002-.274-2.78 3.56-2.636 4.708-4.375.784-1.15.375-2.388-.078-3.614-.61-1.761-1.205-3.14.295-4.836.664-.727 1.527-1.269 2.12-2.072.702-.931 1.102-2.065.418-3.078-1.393-2.116-4.222-.808-4.129-4.666.013-1.797 1.083-3.466.102-5.168-.594-1.04-1.616-1.712-2.764-1.814-.956-.11-1.77.272-2.71.546-1.583.412-2.507.244-3.623-1.419-.264-.408.07-.263-.44-.842-.92-.992-2.33-.825-3.47-.396-.749.266-1.304.864-1.996 1.162-2.791 1.103-3.297-.302-5.39-1.147-4.362-1.786-5.308 3.822-8.631 4.934-1.288.423-2.826.483-3.63 1.734-.267.418-.316.917-.379 1.371-.242 2.01.218 3.088-1.783 4.736-.793.619-1.874 1.079-1.979 2.224-.055.647.266.747.48 1.315.07.077.141.153.154.198.593.7.795 1.562.697 2.56-.043.692-.309 1.448-.396 2.152-.115 1.778.168 3.587 1.309 5 .676.822 1.273 1.036 2.14 1.51 1.607.843 2.232 1.485 2.739 3.228.48 1.654.7 3.578 2.345 4.554 1.633.931 3.822.1 5.605.212.238-.02.236-.36.044-.352z"/><path d="M39.016 33.86c.458.74 1.23 1.388 2.152 1.217.789-.133 1.408-.846 1.174-1.65-.552-1.73-4.169-1.794-3.827.385.02.237.379.132.359-.104-.296-1.853 3.38-1.42 3.168.193-.055.647-.791.958-1.362.833-.616-.112-1.041-.57-1.332-1.067-.154-.198-.442-.017-.332.194zm-.451-8.74c1.058.128 2.403-.263 2.874-1.32.432-.854-.142-1.657-1.084-1.722-1.001-.096-2.031.543-2.438 1.485-.324.724-.005 1.989 1.045 1.587.224-.066.12-.423-.104-.358-.629-.156-.867-.475-.67-.968.063-.116.082-.218.146-.334.172-.244.389-.5.632-.668.441-.323 1.024-.492 1.537-.4 1.188.237.622 1.468-.03 1.9-.518.394-1.217.5-1.865.446-.147-.006-.236.36-.043.352zm-8.725-7.595c.922-.171 1.952-.81 2.27-1.726.266-.757-.307-1.22-1-1.261-1.809-.201-3.879 1.71-2.544 3.455.141.152.442.017.287-.18-.928-1.185.087-2.547 1.368-2.823.269-.078.82-.19 1.064-.018.15.344.285.644.434.989-.096.173-.236.36-.39.5-.415.412-.971.671-1.522.783-.295-.011-.204.302.033.281zm-12.388 2.051c.611 2.101 3.854.043 2.54-1.465-.663-.777-1.887-.47-2.629-.011-.377.206-.671.534-.689.976-.005.147-.011.294.073.415.084.121.527.477.509.58-.038.204.302.202.34-.003.049-.499-.676-.482-.563-1.097.068-.601 1.01-.875 1.471-.96.833-.146 1.772.405 1.32 1.36-.414.751-1.701 1.174-2.013.101-.052-.179-.41-.074-.359.104zm-4.697 10.433c.857 1.108 4.035.33 3.214-1.323-.368-.765-1.573-.56-2.233-.32-.883.305-1.547 1.032-1.454 2.023.02.236.36.234.34-.002-.159-1.215 1.23-1.958 2.32-1.887.546.035.868.475.594 1.04-.146.332-.447.469-.76.56-.494.143-1.41.167-1.733-.272-.154-.197-.442-.017-.288.18zm5.794 7.38c-.627.521-1.103 1.727-.452 2.458.27.261.552.228.91.123.673-.195 1.403-.36 1.966-.765.64-.477.975-1.496.242-2.01-.92-.654-2.513.053-3.384.403-.224.065-.12.422.104.357.692-.298 1.44-.564 2.152-.626.327-.046.77-.03.995.244.483.49.03 1.107-.334 1.358-.32.238-.724.356-1.082.46-.224.065-.602.272-.852.248-1.18-.045-.423-1.622.005-1.99.153-.14-.117-.401-.27-.26zm9.423 8.991c.657 2.427 1.763 3.22 4.257 2.932 1.5-.194 4.78-.615 5.422-2.256.431-1.192-.498-2.715-1.653-3.01-.893-.225-2.077.217-2.929.464a65.288 65.288 0 00-4.996 1.55c-.224.065-.12.423.104.358 1.23-.455 2.485-.82 3.74-1.185.539-.156 1.032-.3 1.583-.412 1.134-.281 1.735-.553 2.79.062 1.341.433 1.422 1.38.3 2.87l-1.172.486a13.74 13.74 0 01-1.883.547c-.686.151-1.851.49-2.583.315-1.374-.376-2.231-1.484-2.608-2.78-.123-.255-.437-.164-.372.06z"/><path d="M30.354 47.045c-.492.483-.079 1.235.594 1.04 1.108-.371.359-1.608-.137-2.142l-.16.288c.7.233 1.113.646 1.442 1.278.04.134.232.127.295.011.096-.173.044-.352.108-.468-.027-.089.005-.147-.02-.236.25.024.442.017.692.04.103.02.155.198.29.16.147.005.262.068.397.029.09-.026.53-.348.62-.374.557-.26 1.032-.3 1.648-.189.205.038.306-.283.1-.32-.57-.125-1.102-.115-1.672.099-.525.201-.531.348-1.276.128-.102-.018-.2-.184-.302-.203-1.058-.128-.492.483-.829 1.163.103.018.192-.008.295.01-.355-.72-.883-1.197-1.64-1.461-.161-.05-.289.18-.16.289.476.297.49.681.03 1.106.095-.173-.162-.39-.315-.248zm-3.696 14.213c1.204-.205 2.435-.32 3.66-.289.237-.02.236-.36-.001-.339a32.318 32.318 0 00-3.75.315c-.25-.024-.146.334.09.313zm-.799 5.614c.936-.127 1.897-.164 2.821.003.206.038.307-.283.102-.32a10.814 10.814 0 00-3.014.004c-.237.02-.133.378.09.313zm.136 5.148a38.84 38.84 0 003.216-.645c.224-.065.133-.378-.104-.358a38.643 38.643 0 01-3.216.645c-.224.065-.133.378.104.358zm1.538 6.29c.819-.528 1.663-.968 2.508-1.407.211-.11.03-.397-.18-.287a20.32 20.32 0 00-2.509 1.408c-.211.11-.03.397.18.287zm2.207 5.08c.49-.821 1.11-1.535 1.831-2.23.153-.141-.117-.402-.257-.216a12.504 12.504 0 00-1.864 2.288c-.14.186.194.331.29.158zm5.53.96c.164-.774.27-1.58.434-2.355.037-.205-.284-.306-.321-.101-.164.775-.27 1.581-.434 2.356-.082.218.284.305.322.1zm3.866-2.093l.845 2.905c.065.224.423.12.358-.104l-.845-2.905c-.11-.21-.423-.12-.358.104zm3.694-1.172c.375.618.717 1.294.925 2.01.065.223.424.119.359-.105a12.209 12.209 0 00-.951-2.099c-.142-.152-.474.041-.333.194zm3.582-.896c.593.7 1.096 1.427 1.612 2.198.11.21.442.016.288-.181a30.46 30.46 0 00-1.683-2.274c-.142-.153-.359.104-.217.257zm2.915-2.351c.912.462 1.748.995 2.488 1.7.187.14.404-.117.217-.257a10.853 10.853 0 00-2.59-1.719c-.13-.108-.334.194-.115.276zm2.158-2.276c.665-.387 1.853-.15 2.635-.136.782.015 1.52.043 2.29.013.236-.02.235-.36-.002-.339-1.02.006-2.007-.046-3.027-.04-.68.003-1.398-.127-2.032.203-.269.078-.075.41.136.3zm-1.791-3.648c1.37-.641 2.791-1.103 4.297-1.444.224-.065.133-.378-.104-.358a21.97 21.97 0 00-4.387 1.47c-.153.142.028.429.194.332zm-1.906-5.215c.782-.324 1.563-.648 2.389-.986.39-.161.69-.297.811-.72.083-.218-.283-.306-.321-.1-.139.524-1.03.638-1.452.858-.525.201-.992.434-1.518.635a.163.163 0 00.091.313zm-1.825-4.608a94.741 94.741 0 012.716-2.196c.154-.141-.059-.37-.257-.216-.901.747-1.802 1.494-2.716 2.196-.167.097.104.358.257.216zm-4.74-3.421a8.713 8.713 0 003-1.89c.153-.142-.072-.416-.257-.216-.844.778-1.784 1.391-2.834 1.794-.224.065-.12.422.091.312z"/></g><defs><clipPath id="clip0"><path fill="#fff" transform="rotate(-16.217 47.046 6.703)" d="M0 0h48v83H0z"/></clipPath></defs></svg>