<svg width="47" height="54" fill="none" xmlns="http://www.w3.org/2000/svg"><g clip-path="url(#clip0)" fill="#C20D19"><path d="M33.2 0C28.6 0 24-.2 19.5.5c-2.2.3-6.8.9-8.3 2.9-2.9 3.8 5.3 3.9 7 3.9 5 0 10.2-.4 15.2-1 1.9-.2 5.6-.4 6.9-2.1C43.6-.4 31.9.4 30.7.5c-1 0-1 1.5 0 1.5 1.4 0 7.3-1.1 6.5 2.1-.2.9-5.2.9-6.1 1-4.2.4-8.5.8-12.8.8-2.3 0-9.1-.5-3.1-2.7C17 2.3 19 2 21 1.8c4-.4 8.1-.3 12.2-.3.9 0 1-1.5 0-1.5z"/><path d="M10.7 4.9C11.8 15 13 25 14.2 35.1c.1.9 1.6 1 1.5 0-1.2-10-2.4-20.1-3.5-30.2-.1-.9-1.6-.9-1.5 0zm31.2-1.3s0-.1 0 0c0-1-1.5-1.1-1.5-.1v.1c0 .9 1.5.9 1.5 0z"/><path d="M39.7 3.6c-.6 6.2-2 12.4-1.7 18.6.3 6.3-.5 12.7.2 18.9.1.9 1.6 1 1.5 0-.7-6.2.1-12.6-.2-18.9-.3-6.2 1.1-12.3 1.7-18.6.1-.9-1.4-.9-1.5 0z"/><path d="M14.6 35.1c.9 4.6-1.2 7.4 3.6 8.7 5.5 1.5 11.6 2 17.1.3 1.2-.4 5.2-1.4 4-3.6-1.3-2.5-10.8-.7-12.9-.4-.9.1-1 1.6 0 1.5 1.4-.2 9-1.5 9.8-.4 1.3 1.8-8.7 2.4-9 2.4-2.2-.1-8.4 0-10.2-1.7-1.2-1.2-.6-5.3-1-7.2-.2-1-1.6-.6-1.4.4zm-1.1-20.7c2.4 2.7 11.9 2 15 1.9 1.8 0 10.4.4 11.1-2.1 0-.2 0-.3-.2-.4-3.3-2.3-10-1.3-13.7-1-3.3.2-9.6 0-12.2 2.2-.4.3.2.8.5.5 1.1-.9 4.3-1.1 5.6-1.3 2.3-.4 4.7-.6 7-.7 1.8-.1 10.5-.4 10.2.8-.6 2.7-21.3 1.3-22.8-.5-.3-.3-.9.2-.5.6zm4.1 6.1c-.2.7.5 1.2 1.1 1.1.7-.1 1.1-.7 1.2-1.3.1-.7-.2-1.4-1-1.3-.8 0-1.5.7-1.9 1.3-.3.4.4.8.6.4.2-.3 1.2-1.3 1.4-.7.1.2 0 .5-.2.7-.1.1-.2.2-.3.2-.1 0-.5.1-.4-.1.3-.6-.4-.8-.5-.3zm.8 8.4c1 .4 2.4.7 3.1-.5.5-.9.6-2.4-.4-2.9-.9-.5-2.3-.3-3.1.4-.9.9-.3 2.3.5 3 .4.3.9-.2.5-.5-.4-.4-1-1.4-.4-1.9.5-.5 1.4-.5 2-.3.7.3.6 1.3.3 1.9-.5.8-1.6.4-2.3.1-.4-.2-.6.5-.2.7zm4.8-6.9c-.7.1-.6 1-.1 1.3.4.2.9.1 1.3.1s.7-.1.8-.4c.6-1.5-2.9-2.1-2.9-.1 0 .5.8.5.8 0 0-.6.8-.7 1.2-.4.4.3-.2.2-.4.2h-.3c-.1-.1-.2 0-.3.1.6-.1.4-.9-.1-.8zm2.4-2.7c-.5 1.1 1.6 1.2 1.8.3.1-.5-.2-.9-.7-.9-.6-.1-1 .4-1.2.9-.2.4.4.8.6.4 0-.1.1-.2.1-.3l.3-.3-.4.1v.3-.1c.3-.4-.3-.8-.5-.4zm-4.1 13.5c.5 1.1 2.3 1.9 3.5 1.7 1.1-.2 2.3-1.8 1.8-2.9-.5-1.1-2.2-1.9-3.4-1.8-1.2.1-2.5 1.5-2 2.7.2.4.9.2.7-.2-.5-1.1.9-1.9 1.8-1.8.6.1 2 .7 2.1 1.4.1.4-.3 1-.6 1.3-.5.6-1.1.5-1.7.3-.7-.2-1.4-.5-1.7-1.2-.1-.3-.7 0-.5.5zm6.3-6.2c-.2.8.5 1.3 1.2 1.3.6 0 1.5-.3 1.7-.9.2-.8-.7-1.1-1.3-1.2-.8 0-1.6.3-1.7 1.2 0 .5.7.5.8 0 0-.4.5-.4.8-.5.2 0 .9-.1.7.4-.1.3-1.4.4-1.3-.1 0-.5-.8-.7-.9-.2zm4.2-4.2c-.5.6.3 1.2.9 1.2.7 0 1.5-.2 1.7-.9.2-.7-.5-1.2-1.1-1.2-.9 0-1.4.7-2 1.1-.4.2 0 .9.4.6.5-.3.8-.8 1.3-1 .3-.1 1 .1.5.5-.1.1-.3.1-.5.1-.1 0-.6 0-.5-.1.2-.3-.4-.7-.7-.3zM4.1 38.6c.7 2.5 1 5.1.7 7.7 0 .5.7.5.8 0 .2-2.7 0-5.3-.8-7.8-.1-.6-.9-.4-.7.1z"/><path d="M4.5 38.5c.1-.6-.3-.9-.8-1-1-.2-2.1-.4-3.2-.5-.5-.1-.7.6-.2.7.3 0 3.4.6 3.4.6 0 .4.7.6.8.2z"/><path d="M4.2 37.7c-.1 0-.1.1-.2.1-.4.2-.1.8.3.7 2.3-.9 4.6-1.8 6.9-2.8.4-.2.2-.9-.2-.7-2.4 1-4.7 1.9-7 2.8.1.2.2.5.3.7.1 0 .1-.1.2-.1.5-.2.1-.9-.3-.7zm1.6 9c.2-.8 2.6-1.6 3.3-1.9 1.1-.5 2.1-1.1 3.1-1.8.4-.3 0-.9-.4-.6-1.3.9-2.7 1.6-4.1 2.3-.8.4-2.4.9-2.6 1.8-.2.5.6.7.7.2zM.5 37.5c1.5-.5 3.1-1.1 4.6-1.8.4-.2.1-.8-.4-.6-1.5.6-2.9 1.2-4.5 1.7-.4.1-.2.8.3.7z"/><path d="M4.4 35.6c2.5.2 5.1.2 7.6.2.5 0 .5-.8 0-.8-2.5 0-5.1 0-7.6-.2-.5 0-.5.8 0 .8zM.3 37.3c.6 1.7.8 3.5.6 5.3-.1.5.7.5.8 0 .2-1.9 0-3.7-.7-5.5-.2-.4-.9-.2-.7.2zM.7 44c1.7 0 3.6 1.6 4.7 2.7.3.3.9-.2.5-.5-1.3-1.3-3.4-2.9-5.3-2.9-.4 0-.4.7.1.7z"/><path d="M11 35.6c.2 1.4.3 2.7.5 4.1.1 1.1.4 2.4-.1 3.4-.2.4.5.6.7.2.5-1.1.2-2.5.1-3.6-.1-1.4-.3-2.9-.5-4.3-.1-.5-.8-.3-.7.2zm-4-5.7c.2 1.6.4 3.2.4 4.8 0 .5.8.5.8 0 0-1.7-.2-3.3-.4-5-.1-.4-.9-.2-.8.2z"/><path d="M6.9 29.6c1.8.1 3.6 0 5.4-.4.5-.1.3-.8-.2-.7-1.7.4-3.5.5-5.2.4-.5-.1-.5.7 0 .7zm0 1.1c2.1.6 4.1 1.4 6 2.5.4.2.8-.4.4-.6-1.9-1.1-4-1.9-6.1-2.5-.5-.3-.7.4-.3.6zm4.2 9.2c1.1-.6 2.2-1 3.4-1.3.5-.1.3-.8-.2-.7-1.2.3-2.4.7-3.5 1.4-.5.2-.1.9.3.6zM35 46.4c-.7.5-.1 2.3 0 3.1.1 1.2-.1 3 .7 4 .3.4.8-.2.5-.5-.6-.7-.4-2.6-.5-3.4-.1-.5-.1-1-.2-1.5 0-.3.1-1.1-.2-.9.5-.4.1-1.1-.3-.8z"/><path d="M35.4 46.1c.1.1.2.1.3.2-.1.2-.2.3-.3.5.9-.4 2.4-.1 3.4-.2 1.1 0 2.2-.1 3.3-.1l-.4-.4c0 1.9.2 4.1-.1 6-.1.6 0 .7-.7.9-.4.1-1 0-1.5 0h-3.5c.1.2.1.5.2.7.1-.1.3-.2.4-.3.4-.3 0-.9-.4-.6-.1.1-.3.2-.4.3-.3.2-.2.7.2.7h4.6c.5 0 1.3.2 1.7-.3.4-.5.1-2.3.1-3 0-1.5.1-2.9.1-4.4 0-.2-.2-.4-.4-.4-1.3 0-2.6.1-3.9.1-.9 0-2.2-.2-3.1.2-.2.1-.3.2-.3.5v.1c0 .2.2.3.4.3h.1c.6-.1.6-.8.2-.8z"/><path d="M35.6 46.2c1.5-.4 2.9-1.1 4.4-1.5 1.8-.4 3.8-.1 5.7-.1-.1-.2-.1-.5-.2-.7-1.2.5-2.3 1.1-3.3 1.8-.4.3 0 .9.4.6 1.1-.7 2.2-1.3 3.3-1.8.4-.2.2-.7-.2-.7-1.8 0-3.7-.3-5.5-.1-1.6.2-3.2 1.2-4.8 1.7-.4.3-.2 1 .2.8zm6.2 7.3c1.1-.5 2.2-.9 3.2-1.4.4-.2.2-.9-.2-.7-1.1.5-2.2.9-3.2 1.4-.4.1-.2.8.2.7z"/><path d="M45.9 44.4c-.2 2.5-.5 4.9-.7 7.4 0 .5.7.5.8 0 .2-2.5.5-4.9.7-7.4 0-.5-.7-.5-.8 0z"/></g><defs><clipPath id="clip0"><path fill="#fff" d="M0 0h46.7v53.7H0z"/></clipPath></defs></svg>