<svg width="35" height="43" fill="none" xmlns="http://www.w3.org/2000/svg"><path d="M24.831.02c-3.44 0-6.878-.156-10.243.394-1.644.236-5.084.707-6.205 2.28C6.215 5.68 12.345 5.76 13.616 5.76c3.739 0 7.626-.315 11.365-.787 1.42-.157 4.186-.314 5.158-1.65C32.607-.294 23.86.335 22.962.413c-.748 0-.748 1.18 0 1.18 1.047 0 5.458-.865 4.86 1.65-.15.708-3.888.708-4.56.787-3.141.314-6.356.629-9.57.629-1.72 0-6.804-.393-2.319-2.123 1.346-.707 2.841-.943 4.337-1.1 2.99-.316 6.056-.236 9.12-.236.673 0 .748-1.18 0-1.18z" fill="#C20D19"/><path d="M8.009 3.873c.822 7.94 1.72 15.801 2.617 23.741.075.708 1.196.786 1.121 0-.897-7.861-1.794-15.801-2.617-23.741-.074-.708-1.196-.708-1.121 0zM31.336 2.85s0-.078 0 0c0-.785-1.122-.864-1.122-.078v.078c0 .707 1.122.707 1.122 0z" fill="#C20D19"/><path d="M29.691 2.851c-.448 4.874-1.495 9.748-1.27 14.622.224 4.953-.375 9.984.149 14.858.075.708 1.196.786 1.121 0-.523-4.874.075-9.905-.15-14.858-.224-4.874.823-9.67 1.272-14.622.075-.708-1.047-.708-1.122 0z" fill="#C20D19"/><path d="M10.925 27.614c.673 3.617-.897 5.818 2.692 6.84 4.112 1.179 8.672 1.572 12.785.236.897-.315 3.887-1.101 2.99-2.83-.972-1.966-8.075-.55-9.645-.315-.672.079-.747 1.258 0 1.18 1.047-.158 6.73-1.18 7.327-.315.972 1.415-6.504 1.887-6.728 1.887-1.645-.08-6.28 0-7.626-1.337-.898-.943-.449-4.166-.748-5.66-.15-.786-1.196-.472-1.047.314zm-.823-16.273c1.795 2.123 8.898 1.572 11.215 1.494 1.346 0 7.776.314 8.3-1.651 0-.157 0-.236-.15-.314-2.468-1.809-7.477-1.022-10.243-.787-2.467.158-7.178 0-9.122 1.73-.299.236.15.629.374.393.823-.708 3.215-.865 4.187-1.022 1.72-.314 3.514-.472 5.234-.55 1.346-.079 7.85-.315 7.626.628-.449 2.123-15.925 1.022-17.047-.393-.224-.235-.673.158-.374.472zm3.066 4.796c-.15.55.374.943.823.864.523-.078.822-.55.897-1.022.075-.55-.15-1.1-.748-1.022-.598 0-1.121.55-1.42 1.022-.225.315.299.63.448.315.15-.236.897-1.022 1.047-.55.075.157 0 .393-.15.55-.074.078-.15.157-.224.157-.075 0-.374.079-.299-.079.224-.471-.299-.629-.374-.235zm.598 6.603c.748.315 1.794.55 2.318-.393.374-.707.448-1.887-.3-2.28-.672-.393-1.719-.236-2.317.315-.673.707-.224 1.808.374 2.358.299.236.673-.157.374-.393-.3-.314-.748-1.1-.3-1.494.374-.393 1.047-.393 1.496-.235.523.236.448 1.022.224 1.493-.374.63-1.196.315-1.72.079-.298-.157-.448.393-.149.55zm3.589-5.424c-.524.079-.45.786-.075 1.022.299.157.673.078.972.078.299 0 .523-.078.598-.314.448-1.18-2.168-1.65-2.168-.079 0 .393.598.393.598 0 0-.471.598-.55.897-.314.299.236-.15.157-.3.157h-.223c-.075-.078-.15 0-.225.079.449-.079.3-.708-.074-.63zm1.795-2.123c-.374.864 1.196.943 1.345.236.075-.393-.15-.707-.523-.707-.449-.079-.748.314-.898.707-.149.314.3.628.45.314 0-.079.074-.157.074-.236l.224-.236-.299.079v.236-.079c.224-.314-.224-.628-.374-.314zm-3.066 10.613c.374.865 1.72 1.494 2.617 1.337.822-.158 1.72-1.416 1.346-2.28-.374-.865-1.645-1.494-2.542-1.415-.897.078-1.87 1.179-1.496 2.122.15.315.673.157.524-.157-.374-.865.673-1.494 1.345-1.415.45.079 1.496.55 1.57 1.1.075.315-.224.787-.448 1.023-.374.471-.822.393-1.271.235-.523-.157-1.047-.393-1.271-.943-.075-.236-.523 0-.374.393zm4.71-4.874c-.15.629.374 1.022.897 1.022.449 0 1.122-.236 1.271-.707.15-.63-.523-.865-.972-.944-.598 0-1.196.236-1.27.944 0 .393.523.393.597 0 0-.315.374-.315.599-.393.149 0 .672-.08.523.314-.075.236-1.047.314-.972-.079 0-.393-.598-.55-.673-.157zm3.14-3.302c-.374.472.224.944.673.944.524 0 1.122-.158 1.271-.708.15-.55-.374-.943-.822-.943-.673 0-1.047.55-1.496.865-.299.157 0 .707.3.471.373-.236.598-.629.971-.786.225-.079.748.079.374.393-.074.079-.224.079-.374.079-.074 0-.448 0-.373-.079.15-.236-.3-.55-.524-.236zM3.075 30.366c.523 1.965.747 4.01.523 6.053 0 .393.523.393.598 0 .15-2.122 0-4.166-.598-6.132-.075-.472-.673-.314-.523.079z" fill="#C20D19"/><path d="M3.374 30.287c.075-.472-.225-.707-.598-.786-.748-.157-1.57-.315-2.393-.393-.374-.079-.523.472-.15.55.225 0 2.543.472 2.543.472 0 .314.523.472.598.157z" fill="#C20D19"/><path d="M3.15 29.658c-.076 0-.076.079-.15.079-.3.157-.075.629.224.55 1.72-.707 3.44-1.415 5.159-2.201.299-.157.15-.708-.15-.55A246.672 246.672 0 013 29.736c.074.158.15.394.224.551.075 0 .075-.078.15-.078.373-.158.074-.708-.225-.55zm1.196 7.075c.15-.628 1.943-1.257 2.467-1.493.822-.393 1.57-.865 2.318-1.415.299-.236 0-.708-.3-.472-.971.708-2.018 1.258-3.065 1.808-.598.315-1.794.708-1.944 1.415-.15.393.449.55.524.157zM.383 29.5a31.735 31.735 0 003.44-1.414c.299-.157.074-.63-.3-.472-1.121.472-2.168.944-3.364 1.337-.299.078-.15.628.224.55z" fill="#C20D19"/><path d="M3.299 28.007c1.869.157 3.813.157 5.682.157.374 0 .374-.629 0-.629-1.87 0-3.813 0-5.682-.157-.374 0-.374.629 0 .629zM.234 29.344a9.818 9.818 0 01.448 4.166c-.075.393.524.393.598 0 .15-1.493 0-2.908-.523-4.323-.15-.315-.673-.158-.523.157zm.299 5.266c1.27 0 2.691 1.259 3.514 2.123.224.236.673-.157.373-.393-.971-1.022-2.542-2.28-3.962-2.28-.3 0-.3.55.075.55z" fill="#C20D19"/><path d="M8.233 28.007c.15 1.1.225 2.123.374 3.223.075.865.3 1.887-.075 2.673-.15.315.374.472.524.157.374-.864.15-1.965.075-2.83-.075-1.1-.225-2.28-.374-3.38-.075-.393-.598-.236-.524.157zm-2.99-4.481c.15 1.258.299 2.516.299 3.774 0 .393.598.393.598 0 0-1.337-.15-2.594-.3-3.93-.074-.315-.672-.158-.597.156z" fill="#C20D19"/><path d="M5.168 23.29c1.346.079 2.692 0 4.037-.314.374-.079.225-.629-.15-.55-1.27.314-2.616.393-3.887.314-.374-.078-.374.55 0 .55zm0 .865c1.57.472 3.066 1.1 4.486 1.966.3.157.598-.315.3-.472-1.421-.865-2.991-1.494-4.561-1.966-.374-.235-.524.315-.225.472zm3.14 7.233a10.19 10.19 0 012.542-1.022c.374-.079.225-.629-.15-.55-.896.236-1.793.55-2.616 1.1-.374.157-.075.708.224.472zm17.869 5.11c-.523.393-.075 1.808 0 2.437.075.943-.075 2.358.523 3.144.224.315.598-.157.374-.393-.449-.55-.299-2.044-.374-2.673-.075-.393-.075-.786-.15-1.179 0-.236.075-.865-.149-.708.374-.314.075-.864-.224-.628z" fill="#C20D19"/><path d="M26.476 36.262c.075.078.15.078.224.157-.075.157-.15.236-.224.393.673-.315 1.794-.079 2.542-.157.822 0 1.645-.079 2.467-.079l-.299-.314c0 1.493.15 3.223-.075 4.716-.074.472 0 .55-.523.708-.299.079-.748 0-1.121 0H26.85c.075.157.075.393.15.55.074-.078.224-.157.298-.236.3-.235 0-.707-.299-.471-.074.078-.224.157-.299.236-.224.157-.15.55.15.55h3.439c.374 0 .972.157 1.271-.236.3-.393.075-1.808.075-2.358 0-1.18.074-2.28.074-3.46 0-.157-.149-.314-.299-.314-.971 0-1.943.079-2.915.079-.673 0-1.645-.158-2.318.157-.15.079-.224.157-.224.393v.079c0 .157.15.236.299.236h.075c.448-.08.448-.63.149-.63z" fill="#C20D19"/><path d="M26.625 36.34c1.122-.314 2.169-.864 3.29-1.179 1.346-.314 2.841-.078 4.262-.078-.075-.158-.075-.393-.15-.55a12.77 12.77 0 00-2.467 1.414c-.299.236 0 .708.3.472a19.793 19.793 0 012.466-1.415c.3-.157.15-.55-.15-.55-1.345 0-2.766-.236-4.111-.079-1.197.157-2.393.943-3.589 1.337-.3.235-.15.786.15.628zm4.635 5.739c.823-.393 1.646-.708 2.393-1.1.3-.158.15-.708-.15-.55-.822.392-1.644.707-2.392 1.1-.299.078-.15.629.15.55z" fill="#C20D19"/></svg>