<svg width="63" height="102" fill="none" xmlns="http://www.w3.org/2000/svg"><g clip-path="url(#clip0)" fill="#75BB43"><path d="M22.412 44.312c12.256-4.384 10.749-25.35-.543-22.923-.602.145-.918.632.512-1.808 2.223-3.739 4.852-6.303 10.151-8.275C49.49 4.93 56.318 27.574 36.814 42.658c-11.822 9.047-16.634 14.19-21.701 26.626-.482.979-3.441 8.676-2.26 9.05.592.186.449.015 2.54-4.227 9.787-19.242 23.954-5.635 39.22-27.672 1.728-2.43 6.565-12.55 6.884-21.667C62.6 1.736 37.467-1.632 26.703 2.804c-29.117 12.258-24.12 48.78-4.291 41.508zm5.709-9.426c-.678 2.3-.477.813-1.091 1.29-3.669 2.36-5.047 3.308-10.185 4.954-3.926 1.19 11.035-7.913 10.336-9.265-.557-1.181-3.037 1.388-11.54 5.24-2.876 1.06-3.037 1.387-.723-.69l9.078-7.483c1.539-1.274.678-2.3-.08-1.994-3.95 1.853-5.517 3.956-12.343 6.87-.454.15 2.01-1.92 5.07-3.971 5.816-3.946 7.48-4.552 6.172-5.593-.58-.518-1.504.28-1.963.595-.46.316-4.576 2.661-9.42 4.484.958-1.793 5.241-4.63 7.854-6.696-.07 1.989 1.314.876 1.767.725 4.851-1.988 9.596 3.324 7.068 11.534zM16.905 18.062c1.688-1.268.024-.663 1.683-1.103 1.51-.445 1.217-.621-2.636 2.73-.155.16-.15-.006-.304.155-3.502 1.869-3.812 2.19 1.257-1.782zm.022 50.622c10.547-23.863 25.832-20.838 32.416-38.2.34-1.15-.483.978.998 1.362 2.37.58 9.07-3.002-.087 2.486-1.986 1.259-5.482 2.962-4.783 4.314.413 1.01 2.687.094 7.043-.583 1.803-.27-22.154 9.68-10.3 8.27 7.8-.889 9.322-1.666 3.576.29-1.97.762-10.557 2.785-12.842 4.033-1.98 1.092-1.114 1.952-.666 1.968 4.19-.185 10.533-2.12 5.395-.475-1.963.595-9.34 2.163-10.258 2.794-2.308 1.911 3.994 1.136 9.683.837-10.235 2.131-12.778 2.209-12.664 3.208.132.503.586.353 1.481.384 3.295-.216 2.549-.243-2.715.735-2.256.419-1.987 1.258-.643 1.305l2.537.089c.304-.155.321-.653.023-.663-4.62-.328 8.696-.858 8.754-2.515.017-.498-2.537-.089 6.35-2.102-9.577 4.644-17.29 3.047-23.298 12.463zm28.022-15.119c-2.451 1.74-1.223.787-3.168.885-11.974.577-11.538.924-7.015-.245 7.233-1.739 8.456-2.526 10.569-3.116 1.51-.445 1.257-1.782.511-1.808-5.246.48-2.698.238 6.85-3.577-1.73 2.429-5.439 5.95-7.747 7.861zm9.647-10.948c-.482.979-.172.658-1.67.771-.15-.005-8.111 1.21-10.361 1.463 3.192-1.548 13.054-5.85 13.394-7 .172-.657-.241-1.668-2.187-1.57-7.502.9-6.206 2.273 4.06-5.003 1.223-.787.828-2.294-.068-2.326-6.733.262-9.248 3.826-1.055-4.02.31-.321.919-.632 1.091-1.29.828-2.294-1.732-1.72-3.988-1.3 1.447-2.938 3.738-4.351 2.017-6.403-.287-.342-.562-1.016-.694-1.518-.809-2.518-4.412-6.295-4.854-6.477-.442-.181-.763.471-.477.813 5.48 5.669 3.528 5.933 5.238 8.316.419.845-2.516 3.563-2.878 5.376-.178.824.086 1.829 1.285 1.705 2.096-.093 2.578-1.072.873.694-2.63 2.564-2.929 2.553-4.18 4.17-.627.807-.638 1.139.023-.664C56.72 7.506 31.63-1.339 20.25 20.67c-.556-1.181-2.245.087-4.524 1.17.93-.964 13.987-11.13 2.316-6.393 1.12-2.118 5.915-6.763 10.502-9.756-3.256 3.371-7.58 7.37-7.58 7.37-.316.486.264 1.004.574.683 18.838-13.116-1.521.777 14.427-6.632 7.28-3.064 1.676-.937 3.427.286 1.021.7 3.324-1.045 4.942-.325.734.358 4.723 1.66 5.056.675.34-1.15-1.469-.715-5.004-2.167-.591-.186-2.095.093-2.698.238 2.027-2.419.971-2.124 3.049-1.72 11.731 2.071 21.26 15.848 9.858 38.519zM40.427 3.45c-.459.316-5.93 2.946-6.234 3.101 1.854-1.76 1.763-3.423-.683-1.85-12.384 8.032-6.448 4.92-2.984-.104.16-.326-.127-.668-.43-.513-.61.311-1.069.627-3.365 2.206.011-.331-.43-.513-.735-.357-3.25 3.205-4.628 4.153-4.628 4.153-7.924 8.685-1.839 5.578-8.51 8.332.966-1.957 5.249-4.795 5.444-6.116.053-1.492-2.106.424-.562-1.015 7.711-6.867 11.392-9.56 22.687-7.837zM14.525 13.498c-.052 1.492 1.97-.761-.822 2.129-3.715 3.687-1.649 4.423-.89 4.118 3.185-1.383 0 0-3.56 3.526-.31.321 1.218-4.936 5.272-9.773zm-6.414 21.02c-.859-5.342.848-11.423.98-10.92.247 1.502 5.483-2.962 4.541-1.667-1.258 1.781-.236 2.481.51 2.507-6.608 5.246-5.347 7.614-.65 5.786-5.828 4.278-5.52 8.272 5.027 1.504-6.919 5.567-6.609 5.246-6.66 6.738-.053 1.492 3.282.115 4.5-.507 12.767-6.192 3.06-2.05-.369 1.98-2.968 3.713 2.14 2.895 11.31-2.925-4.47 8.143-17.596 7.517-19.189-2.497zm3.462-.71c.15.006 0 0 0 0zm6.184 58.14c2.385-8.38-6.44-16.656-13.744-8.613-12.116 13.186 8.974 25.375 13.744 8.614zm-7.424-9.886c8.857-1.183 7.92 17.04-2.187 15.525-2.818-.597-.74-.192 3.812-2.19 1.062-.46 2.274-.916 1.706-1.766-.413-1.01-1.188-.208-3.617.87-6.366 2.598 5.93-2.947 4.364-5.16-2.013-2.227-13.233 6.675-1.56-2.377 1.384-1.114.368-1.98-.24-1.668-1.97.76-4.111 2.18-6.689 3.25 1.24-1.284 3.847-3.184 4.473-3.992.31-.32.035-.994-.562-1.015-.298-.01-.907.3-1.665.605.161-.326.471-.647.035-.994-.58-.519-2.159 1.916-.977 2.29-1.688 1.268-4.306 3.5-2.699 4.552 1.165.87 4.105-2.014 1.17.705-2.778 2.558-1.005 3.118-.551 2.968.447.015 13.238-6.84 2.703-.404-4.122 2.512-2.969 3.714-5.39.31-.963-2.358.963-10.423 7.874-11.509z"/></g><defs><clipPath id="clip0"><path fill="#fff" transform="rotate(2.004 1.746 99.828)" d="M0 0h58.985v99.853H0z"/></clipPath></defs></svg>