<svg width="47" height="70" fill="none" xmlns="http://www.w3.org/2000/svg"><g clip-path="url(#clip0)" fill="#204686"><path d="M46.413 47.299C46.84 36.3 42.84 24.652 34.783 17.12c-2.24-2.113-4.374-4.335-5.388-7.315-.854-2.438.32-5.31-.747-7.747-1.334-3.143-6.508-2.492-7.842.433-2.027 4.443 2.934 8.831 5.068 12.028 3.948 5.852 2.027 14.195-4.748 16.796-3.308 1.246-6.562 1.734-9.443-.65-2.347-1.95-4.054-7.098-3.574-10.186.373-2.438 2.134-4.551 1.654-7.098a13.46 13.46 0 00-1.12-3.413c-.96-2.709-2.775-5.58-5.709-3.468-1.44 1.03-1.76 3.468-1.814 5.04-.053 1.137.747 2.329 1.067 3.304.534 1.626 1.12 3.088 1.174 4.876 0 1.842-.907 3.63-1.387 5.364-.427 1.517-.96 3.034-1.387 4.551-.694 2.492-.694 5.31-.32 7.802 1.013 6.285 2.72 12.732 5.281 18.584 2.188 4.93 4.748 8.723 9.603 11.16 4.908 2.439 10.243 3.305 15.631 2.439 4.481-.705 10.51-2.926 13.07-6.935 2.828-4.28 3.948-10.294 2.561-15.387zm-1.227 6.339c-.373 2.384-.747 4.388-1.76 6.61-2.028 4.28-7.096 6.122-11.257 7.314-8.696 2.492-19.792-1.084-23.9-9.536-2.24-4.605-3.734-9.265-4.961-14.195C2.08 38.955.96 34.187 2.4 29.203c1.067-3.684 2.934-7.423 2.347-11.324-.267-1.734-1.067-3.576-1.76-5.201-.374-1.03-.427-2.059-.107-3.088.32-2.222 1.76-2.438 4.214-.65.427.65.747 1.354.96 2.113.534 2.113.214 4.496-.48 6.447-.906 2.492-1.066 3.955-.533 6.447.907 4.443 2.56 8.398 7.095 9.861 4.108 1.355 9.283-1.192 12.11-4.064 3.041-3.142 3.788-7.368 2.828-11.485-.64-2.655-2.027-4.606-3.521-6.827-1.654-2.33-6.135-6.773-2.24-9.32 1.707-1.082 3.734-1.136 4.374 1.14.427 1.625.16 3.521.16 5.147-.053 2.438 1.44 4.55 2.827 6.393 1.654 2.167 3.895 3.793 5.549 5.96 1.92 2.492 3.307 5.093 4.748 7.91 3.094 5.905 3.84 13.057 3.84 19.721 0 .271.108.488.32.596.16 1.572.32 3.088.054 4.66z"/><path d="M4.268 37.492c-.16-.758-.534-1.517-.534-2.275 0-.217-.32-.217-.32 0-.053.704.16 1.354.214 2.004.106.921.053 1.897.213 2.818.053.325.48.216.534-.055.106-.812 0-1.679-.107-2.492zm1.707 7.532c-.214-.109-.32-.976-.374-1.192-.16-.488-.266-1.03-.426-1.572-.054-.162-.214-.216-.32-.108l-.214.217c-.107.108 0 .325.16.27.053.922.267 1.843.48 2.71.054.162.214.27.374.27h.213c.213 0 .374-.433.107-.595zm1.12 3.9c-.266-.487-.213-1.138-.693-1.517-.16-.108-.32.054-.214.217.32.38.214 1.03.374 1.517.213.704.533 1.409.747 2.167.106.488.853.271.747-.217-.107-.812-.534-1.408-.96-2.167zm3.895 8.506c-.48-.379-.747-1.137-1.067-1.679-.374-.596-.48-1.354-.96-1.842-.16-.162-.374.054-.214.217.534.65.534 1.68.854 2.438.213.596.48 1.246 1.12 1.409.267.108.587-.325.267-.542zm3.147 4.66c-.587-.542-.96-1.246-1.547-1.788-.213-.163-.534.054-.373.325.373.596.586 1.246 1.013 1.788.374.488 1.014.813 1.387 1.3.16.217.694.217.64-.162-.106-.704-.586-1.03-1.12-1.463zm5.815 3.359c-1.173-.217-2.187-1.03-3.36-1.246-.16-.054-.32.217-.107.325 1.067.596 2.24 2.221 3.574 1.571.267-.108.213-.596-.107-.65zm6.935 1.084a6.397 6.397 0 00-1.76-.055c-.64.055-1.28.271-1.92.326-.16 0-.16.27 0 .27.64.055 1.28.271 1.92.326a6.393 6.393 0 001.76-.055.418.418 0 000-.812zm7.469-1.626c-.64.38-1.44.488-2.187.759-.8.27-1.494.704-2.348.813-.16 0-.213.27 0 .27.907.055 1.708-.108 2.561-.27.907-.217 1.707-.271 2.4-1.03.268-.27-.052-.758-.426-.541zm4.802-3.576c-.054.488-.747 1.03-1.12 1.355-.48.434-.96 1.084-1.654 1.3-.16.054-.16.38.053.325.8-.108 1.44-.65 2.08-1.137.587-.434 1.28-1.03 1.334-1.843.054-.487-.64-.487-.693 0zm3.147-6.555c-.427 1.625-.854 3.196-1.494 4.822-.053.108.16.217.214.108.747-1.517 1.76-3.142 1.814-4.822 0-.325-.48-.433-.534-.108zm1.227-6.665c-.053-.541-.747-.541-.8 0-.053.542.107 1.138.16 1.68.053.596.267 1.68-.107 2.167-.106.108.054.325.16.217.534-.38.587-1.03.64-1.625.054-.813 0-1.626-.053-2.439zM35.316 22.16c-.64-1.084-1.067-2.33-2.08-3.089-.16-.108-.373.163-.213.325.906.813 1.28 2.06 1.813 3.089.16.27.694 0 .48-.325zm2.721 3.792c-.48-.759-.747-1.571-1.494-2.059-.106-.108-.213.109-.16.163.48.596.747 1.246 1.067 1.95.374.759.8 1.463.96 2.276.054.325.534.216.534-.054 0-.922-.48-1.572-.907-2.276zm2.508 6.828c-.32-.705-.427-1.518-.96-2.168-.107-.108-.32.054-.214.162.427.65.48 1.463.694 2.168.267.867.587 1.733.8 2.6.053.271.534.217.534-.054-.054-.975-.427-1.842-.854-2.709zm1.28 4.063c-.053-.109-.267-.109-.267.054.16 1.68.427 3.359.64 5.038.054.38.587.38.587 0 .267-1.733-.533-3.413-.96-5.092zm1.44 7.043c-.053-.163-.266-.163-.266 0-.214.812-.16 1.733-.107 2.546 0 .38.533.38.533 0 0-.813.054-1.734-.16-2.546zM3.627 30.666c-.266.92-.213 1.896-.16 2.871 0 .163.267.163.267 0 .053-.975.32-1.842.374-2.817 0-.27-.427-.325-.48-.054zm1.121-3.793c-.534.434-.32 1.246-.747 1.734-.16.163.053.38.213.217.48-.434.427-1.192.907-1.626.32-.162-.106-.541-.373-.325zm9.496 8.723c-1.12-1.246-2.72-1.896-3.948-2.98-.16-.108-.32.055-.213.217 1.12 1.247 2.507 2.222 3.841 3.197.267.163.534-.217.32-.434zm5.175.163c-.64-.109-1.174-.054-1.814 0-.534.054-1.067-.217-1.6-.109-.16 0-.107.325.053.271.587-.054 1.013.38 1.6.434.64.054 1.174.108 1.814 0 .213-.054.213-.542-.053-.596zm4.961-2.168c-.907.759-1.654 1.355-2.827 1.409-.214 0-.214.325 0 .325 1.333.108 2.347-.325 3.254-1.354.213-.271-.16-.596-.427-.38zm3.628-3.901c-.427.38-.64.976-.854 1.518-.213.541-.48 1.354-1.173 1.354-.16 0-.214.271-.054.271 1.547.488 1.867-1.896 2.454-2.817.214-.271-.16-.542-.373-.325zm2.134-4.93c-.16.596-.374 1.192-.587 1.788-.213.65-.267 1.355-.64 1.897-.107.162.107.325.213.162.374-.433.534-.921.747-1.409.32-.758.694-1.462.8-2.33 0-.379-.48-.433-.533-.108zm1.12-4.497c-.053-.379-.64-.27-.64.109.053.812.694 2.004.16 2.709-.107.162.107.325.213.216 1.067-.65.427-2.167.267-3.034zm.801 29.203v.054c.533.055.533-.054 0-.054zM3.681 9.644c0-.108-.213-.108-.213 0 .053 1.03-.587 1.95-.587 2.98 0 .054.053.108.107.163.106.054.16.054.266.108.16.054.267-.162.107-.27-.427-.218-.053-1.085.107-1.464.16-.487.266-.975.213-1.517zm.64 1.68c.053.65-.267 1.3-.427 1.896-.16.65-.32 1.3-.427 2.005-.053.162.267.27.267.054.16-.758.267-1.517.48-2.275.16-.596.374-1.084.32-1.68-.053-.108-.266-.108-.213 0zm.747 2.221c0-.108-.213-.108-.16 0 .107 1.03-.8 1.788-.853 2.818 0 .162.266.162.266 0 .054-.976.854-1.734.747-2.818zm.374 2.492c-.427.488-.64 1.084-.96 1.626-.32.542-.8.867-.8 1.517 0 .217.266.162.266 0 .053-.542.48-.921.747-1.409.32-.542.427-1.138.853-1.625.16-.054 0-.217-.106-.109zm.586 1.734c-.32.596-.746 1.192-1.12 1.734-.48.65-.8 1.354-1.387 1.842-.16.108.053.325.213.216.427-.433.747-.975 1.067-1.516.427-.759.96-1.41 1.334-2.168 0-.108-.107-.216-.107-.108zm-.053 2.709c-.96.867-1.707 2.005-2.507 3.088-.107.163.106.434.213.217.854-1.03 1.494-2.221 2.454-3.088.16-.108-.053-.325-.16-.217zm-.267 2.276c-1.013 1.246-1.974 2.492-3.04 3.63-.107.108.053.325.213.217 1.12-1.084 2.027-2.438 3.04-3.684.054-.109-.106-.271-.213-.163zm-.32 1.95c-.64.704-1.067 1.517-1.6 2.276-.64.975-1.44 1.788-2.027 2.817-.107.217.16.38.266.162.534-.758 1.067-1.517 1.654-2.275.694-.921 1.174-1.896 1.92-2.763.16-.163-.053-.38-.213-.217z"/><path d="M5.122 27.36c-.054.705-1.174 1.734-1.494 2.385-.587 1.029-1.067 2.113-1.6 3.142-.107.217.213.38.32.163.586-1.192 1.12-2.384 1.707-3.522.373-.704 1.28-1.3 1.28-2.167 0-.163-.213-.163-.213 0zm.319 2.168c-.96.975-1.387 2.384-2.027 3.576-.8 1.463-1.547 2.98-1.707 4.66 0 .27.373.27.373 0 .16-1.626.854-3.089 1.6-4.497.588-1.192 1.015-2.601 1.921-3.576.107-.109-.053-.325-.16-.163zm-.32 4.172c-.853.975-1.28 2.167-1.6 3.413-.373 1.3-1.12 2.872-.96 4.226.053.217.373.217.32 0 0-1.192.48-2.275.747-3.413C4 36.517 4.32 35 5.282 33.863c.16-.109 0-.325-.16-.163zm.267 2.817c-1.333 2.655-2.4 6.068-2.294 9.048 0 .217.374.217.374 0 .053-2.98.853-6.23 2.134-8.885.106-.163-.107-.325-.214-.163zm1.067 3.143c-.96 3.196-1.654 6.772-1.44 10.131 0 .27.373.27.373 0 .053-3.413.373-6.772 1.334-10.077.106-.163-.214-.271-.267-.055zm.907 1.734c0-.217-.374-.217-.374 0 0 2.058-.106 4.063-.266 6.122-.16 1.733-.534 3.467 0 5.147.053.217.373.108.32-.108-.267-1.843-.054-3.63.106-5.473.16-1.896.214-3.792.214-5.688zm1.067 4.226c0-.217-.32-.217-.32 0 0 3.63-.427 7.314-.32 10.944 0 .27.373.27.426 0 .16-3.684.267-7.314.214-10.944zM9.55 59.327c-.64-3.305-.267-6.99-.267-10.349 0-.216-.32-.216-.32 0 0 1.897 0 3.793-.054 5.743 0 1.572-.267 3.251.32 4.714.054.163.374.108.32-.108zm1.387 1.354c-.534-.867-.267-2.059-.267-3.034.053-1.246.107-2.438-.053-3.63 0-.163-.267-.108-.214.054.213 1.517.053 3.089-.107 4.605-.053.759-.106 1.626.374 2.222.107.108.32-.054.267-.217zm1.12-2.167c0-.217-.374-.217-.374 0 0 1.896-.053 3.738 0 5.635 0 .216.374.216.374 0 .053-1.897 0-3.793 0-5.635zm1.333-1.951c0-.216-.32-.216-.32 0 .054 2.71.214 5.473.534 8.127.053.217.32.217.32 0-.16-2.709-.427-5.418-.534-8.127zm1.388 1.951c0-.217-.32-.217-.32 0 .213 2.384 1.066 4.66 1.387 7.043 0 .163.32.109.32-.054-.16-2.384-1.12-4.605-1.387-6.989zm3.094 7.802c-.64-2.222-.8-4.605-1.654-6.773-.053-.162-.373-.054-.32.109.907 2.167.96 4.55 1.654 6.718 0 .27.373.162.32-.054zm1.013-3.034c-.213-.759-.267-1.734-.8-2.384-.16-.163-.373.054-.213.217.533.596.587 1.95.8 2.654.32 1.138.64 2.222.747 3.414 0 .216.373.216.32 0 0-1.355-.48-2.6-.854-3.901zm1.495-.542c-.054-.27-.481-.325-.481 0 .267 1.95 1.44 3.63 1.654 5.635.053.27.427.27.427 0-.107-2.06-1.334-3.684-1.6-5.635zm2.933 3.468c-.266-.921-.427-1.842-.747-2.71-.106-.27-.533-.162-.426.11.266.758.48 1.57.64 2.383.213.921.587 1.734.747 2.655.053.216.426.162.426-.054-.053-.813-.373-1.572-.64-2.384zm2.614 1.517c-.533-1.463-.693-3.089-1.707-4.335-.213-.216-.533.109-.32.325.96 1.138 1.067 2.764 1.6 4.118.054.27.534.163.427-.108zm2.721.271c-.534-1.463-1.067-2.98-1.92-4.28-.16-.271-.588 0-.428.216.854 1.3 1.227 2.818 1.974 4.172.107.271.48.109.374-.108zm1.867-.651c-.48-.487-.533-1.138-.747-1.788a8.21 8.21 0 00-.853-1.842c-.16-.217-.587 0-.374.217.48.704.747 1.463.96 2.275.16.542.267 1.084.748 1.41.213.162.48-.055.266-.272zm-.213-3.9c-.16-.217-.533 0-.373.216.8 1.355 1.6 2.601 1.92 4.172.054.217.374.163.374-.054 0-1.571-1.174-3.034-1.92-4.334zm3.788 4.172c-.427-.326-.427-1.3-.587-1.788-.374-1.138-.854-2.276-1.227-3.414-.107-.27-.48-.162-.374.109.48 1.354 1.174 2.709 1.387 4.117.054.434.16 1.3.747 1.355.16 0 .16-.271.053-.38zm1.12-2.006c-.534-.27-.694-1.3-.907-1.842-.32-.812-.587-1.68-.907-2.546-.107-.271-.534-.163-.427.108.374 1.084.8 2.222 1.174 3.305.16.542.32 1.138.907 1.3.213.109.32-.216.16-.325zm1.707.109c-.96-1.3-1.067-3.088-1.92-4.497-.16-.217-.48 0-.374.217.533.92.854 1.95 1.12 2.98.16.596.374 1.192.907 1.625.16.054.374-.163.267-.325zm.907-2.221c-.48-.976-.854-2.005-1.174-3.089-.053-.27-.48-.162-.373.109l.8 2.438c.32.758.694 1.463.8 2.33.054.27.427.27.427 0 0-.65-.213-1.247-.48-1.788zm2.348.433c-.907-1.192-1.014-2.71-1.548-4.064-.106-.27-.533-.162-.426.109.533 1.354.587 3.034 1.6 4.172 0 0 0 .054.053.054.16.162.48-.055.32-.271zm1.12-1.409c-.587-1.463-1.28-2.926-1.867-4.388-.107-.217-.48-.055-.374.162.587 1.463 1.014 3.088 1.867 4.389.107.216.427.054.374-.163zm1.12-1.463c-.747-1.733-1.44-3.467-2.187-5.2-.107-.218-.48-.055-.373.162.64 1.625 1.28 3.305 1.973 4.93-.053.054-.053.108 0 .163.054.054.107.162.16.216.214.271.534.054.427-.27zm.8-2.762a7.591 7.591 0 01-.534-1.788c0-.163-.32-.163-.32.054.054.38.107.813.214 1.192-.694-.759-1.067-1.788-1.547-2.655-.107-.217-.427 0-.32.217.586 1.138 1.013 2.654 2.187 3.413.267.054.427-.217.32-.433zm.96-1.951c-.693-.921-1.173-2.005-1.707-2.98-.106-.217-.373 0-.267.163.587 1.137 1.12 2.33 1.868 3.359.106.162.373.108.426-.109v-.216c-.053-.163-.213-.217-.32-.217zm-.052-2.438c-.694-1.084-1.121-2.222-1.655-3.36-.106-.27-.533-.054-.427.271.48 1.192.854 2.438 1.708 3.414.213.108.48-.109.373-.325zm-.855-5.635c-.213-.162-.48.163-.32.325.16.109.214.217.214.434 0 .216.373.27.373 0 .054-.38-.053-.596-.267-.759zm-.373-3.576c-.053-.054-.16.054-.107.109a.9.9 0 01.267.812c0 .055.107.055.107 0 .053-.379-.053-.65-.267-.92zM29.875 31.966c-.48-.108-.907-.596-1.28-.975-.48-.488-.96-.921-1.388-1.517-.16-.217-.533 0-.373.217.427.65.96 1.137 1.494 1.68.373.433.853.92 1.44.92.267 0 .32-.325.107-.325zm.32-2.438c-.16.434-.907.055-1.067-.108-.32-.325-.48-.759-.8-1.084-.16-.216-.427.109-.267.271.427.542.64 1.192 1.334 1.463.427.163 1.12.163 1.227-.433 0-.271-.374-.38-.427-.109zm-.747-2.601c-.213-.216-.533.109-.32.326.48.433 1.28.487 1.654 1.083.107.217.373.054.373-.162-.16-.759-1.227-.813-1.707-1.247zm1.761-.92c-.267 0-.534 0-.8-.109-.267-.162-.48-.433-.694-.65-.213-.216-.533.109-.32.325.534.596 1.014.976 1.814.921.267-.054.32-.541 0-.487zm-.747-2.872v.27c0 .326.48.326.48 0v-.27c-.053-.325-.48-.325-.48 0zm.587-4.335c.213-.108 0-.433-.16-.325-.48.325-.427.813.053 1.084.16.054.267-.108.107-.217-.267-.108-.214-.379 0-.541z"/></g><defs><clipPath id="clip0"><path fill="#fff" d="M0 0h47v70H0z"/></clipPath></defs></svg>