<svg width="33" height="49" fill="none" xmlns="http://www.w3.org/2000/svg"><g clip-path="url(#clip0)" fill="#204686"><path d="M32.588 32.889c.3-7.648-2.51-15.748-8.165-20.985-1.574-1.47-3.072-3.014-3.784-5.086-.599-1.695.225-3.692-.524-5.387-.936-2.185-4.57-1.733-5.506.301-1.424 3.09 2.06 6.14 3.558 8.364 2.772 4.069 1.424 9.87-3.334 11.679-2.322.866-4.607 1.205-6.63-.452-1.648-1.357-2.846-4.936-2.51-7.083.263-1.696 1.5-3.165 1.162-4.935a9.296 9.296 0 00-.787-2.374c-.674-1.884-1.947-3.88-4.007-2.411C1.049 5.236.824 6.93.787 8.024c-.037.79.524 1.62.75 2.298.374 1.13.786 2.147.823 3.39 0 1.281-.637 2.525-.974 3.73-.3 1.055-.674 2.11-.974 3.165-.487 1.733-.487 3.692-.224 5.425.711 4.37 1.91 8.853 3.708 12.922 1.536 3.428 3.334 6.066 6.742 7.761 3.446 1.695 7.192 2.298 10.975 1.695 3.147-.49 7.38-2.034 9.177-4.822 1.986-2.976 2.772-7.158 1.798-10.7zm-.861 4.407c-.262 1.658-.525 3.052-1.236 4.597-1.424 2.976-4.982 4.257-7.904 5.086-6.105 1.733-13.896-.754-16.78-6.631-1.574-3.202-2.623-6.442-3.484-9.87-.862-3.391-1.648-6.707-.637-10.173.75-2.561 2.06-5.161 1.648-7.873-.187-1.206-.749-2.487-1.236-3.617-.262-.716-.3-1.432-.075-2.148.225-1.544 1.236-1.695 2.96-.452.299.452.524.942.673 1.47.375 1.469.15 3.127-.337 4.483-.636 1.733-.749 2.75-.374 4.483.637 3.09 1.798 5.84 4.982 6.857 2.884.942 6.517-.83 8.502-2.826 2.136-2.185 2.66-5.123 1.986-7.987-.45-1.846-1.424-3.202-2.473-4.747-1.16-1.62-4.307-4.709-1.573-6.48 1.199-.753 2.622-.79 3.072.791.3 1.13.112 2.45.112 3.58-.037 1.695 1.011 3.164 1.985 4.445 1.162 1.507 2.735 2.637 3.896 4.144 1.348 1.733 2.322 3.542 3.334 5.5 2.172 4.107 2.697 9.08 2.697 13.714 0 .188.075.34.224.414.113 1.093.225 2.148.038 3.24z"/><path d="M2.996 26.07c-.112-.527-.374-1.054-.374-1.582 0-.15-.225-.15-.225 0-.037.49.112.942.15 1.394.075.64.037 1.319.15 1.96.037.225.337.15.374-.038.075-.566 0-1.168-.075-1.733zm1.199 5.237c-.15-.075-.225-.678-.262-.828-.112-.34-.187-.716-.3-1.093-.037-.113-.15-.15-.224-.075l-.15.15c-.075.076 0 .226.112.189.038.64.187 1.28.337 1.883.038.113.15.189.262.189h.15c.15 0 .262-.302.075-.415zm.786 2.713c-.187-.34-.15-.791-.487-1.055-.112-.075-.224.038-.15.15.225.264.15.716.263 1.055.15.49.374.98.524 1.508.075.339.6.188.525-.151-.075-.565-.375-.98-.675-1.507zm2.735 5.915c-.337-.264-.524-.791-.75-1.168-.261-.415-.336-.942-.673-1.281-.113-.113-.263.038-.15.15.374.453.374 1.168.6 1.696.149.414.336.866.786.98.187.075.412-.227.187-.377zm2.21 3.24c-.412-.377-.675-.867-1.087-1.244-.15-.113-.374.038-.262.227.262.414.412.866.712 1.243.262.339.712.565.974.904.112.15.487.15.45-.113-.076-.49-.413-.716-.787-1.017zm4.083 2.335c-.824-.15-1.536-.715-2.36-.866-.112-.038-.225.15-.075.226.75.414 1.573 1.545 2.51 1.093.187-.076.15-.415-.075-.453zm4.869.754a4.53 4.53 0 00-1.236-.038c-.45.038-.899.189-1.348.226-.113 0-.113.189 0 .189.45.037.899.188 1.348.226.412.037.824.037 1.236-.038a.29.29 0 000-.565zm5.244-1.13c-.45.264-1.011.339-1.536.527-.562.189-1.048.49-1.648.565-.112 0-.15.189 0 .189.637.037 1.199-.076 1.798-.189.637-.15 1.199-.188 1.686-.715.187-.189-.038-.528-.3-.377zm3.372-2.487c-.038.34-.525.716-.787.942-.337.301-.674.754-1.161.904-.113.038-.113.264.037.226.562-.075 1.012-.452 1.461-.79.412-.302.9-.717.937-1.282.037-.339-.45-.339-.487 0zm2.21-4.558c-.3 1.13-.6 2.222-1.05 3.353-.037.075.113.15.15.075.525-1.055 1.237-2.185 1.274-3.353 0-.226-.337-.301-.374-.075zm.861-4.634c-.037-.377-.524-.377-.562 0-.037.376.075.79.113 1.168.037.414.187 1.168-.075 1.507-.075.075.037.226.112.15.375-.264.412-.716.45-1.13.037-.565 0-1.13-.038-1.695zm-5.768-18.046c-.45-.754-.75-1.62-1.461-2.148-.113-.075-.263.113-.15.226.637.565.899 1.432 1.273 2.148.113.188.487 0 .338-.226zm1.91 2.637c-.337-.528-.525-1.093-1.049-1.432-.075-.075-.15.076-.112.113.337.415.524.867.749 1.357.262.527.562 1.017.674 1.582.037.226.375.15.375-.038 0-.64-.338-1.092-.637-1.582zm1.761 4.747c-.225-.49-.3-1.055-.675-1.507-.075-.075-.224.038-.15.113.3.452.338 1.017.487 1.507.188.603.412 1.206.562 1.808.038.189.375.151.375-.037-.038-.678-.3-1.281-.6-1.884zm.898 2.826c-.037-.076-.187-.076-.187.037.113 1.168.3 2.336.45 3.504.037.264.412.264.412 0 .187-1.206-.375-2.374-.675-3.541zm1.012 4.897c-.038-.113-.188-.113-.188 0-.15.565-.112 1.206-.075 1.77 0 .265.375.265.375 0 0-.564.038-1.205-.112-1.77zM2.547 21.324c-.188.64-.15 1.318-.113 1.996 0 .113.188.113.188 0 .037-.678.224-1.28.262-1.959 0-.188-.3-.226-.337-.037zm.787-2.638c-.375.302-.225.867-.525 1.206-.112.113.038.264.15.15.337-.3.3-.828.637-1.13.225-.113-.075-.376-.262-.226zm6.667 6.066c-.786-.866-1.91-1.319-2.772-2.072-.112-.075-.224.038-.15.15.787.867 1.76 1.545 2.697 2.223.188.113.375-.15.225-.301zm3.633.113c-.45-.075-.824-.038-1.274 0-.374.038-.749-.15-1.123-.075-.113 0-.075.226.037.188.412-.038.712.264 1.124.301.45.038.824.076 1.274 0 .15-.037.15-.376-.038-.414zm3.484-1.507c-.637.527-1.161.942-1.986.98-.15 0-.15.226 0 .226.937.075 1.649-.227 2.285-.942.15-.189-.112-.415-.3-.264zm2.547-2.713c-.3.264-.45.679-.6 1.055-.15.377-.337.942-.824.942-.112 0-.15.189-.037.189 1.086.339 1.311-1.319 1.723-1.96.15-.188-.112-.376-.262-.226zm1.498-3.428c-.112.415-.262.829-.412 1.243-.15.453-.187.942-.45 1.319-.074.113.076.226.15.113.263-.301.375-.64.525-.98.225-.527.487-1.017.562-1.62 0-.263-.337-.3-.375-.075zm.787-3.127c-.038-.264-.45-.188-.45.075.038.566.487 1.395.112 1.884-.074.113.075.226.15.15.75-.451.3-1.506.188-2.109zm.562 20.307v.037c.374.038.374-.037 0-.037zM2.584 6.706c0-.075-.15-.075-.15 0 .038.716-.412 1.356-.412 2.072 0 .038.038.075.075.113.075.038.113.038.188.075.112.038.187-.113.075-.188-.3-.15-.038-.753.074-1.017.113-.34.188-.678.15-1.055zm.45 1.168c.037.452-.188.904-.3 1.319-.112.452-.225.904-.3 1.394-.037.113.188.188.188.037.112-.527.187-1.055.337-1.582.112-.415.262-.754.225-1.168-.038-.075-.188-.075-.15 0zm.524 1.545c0-.076-.15-.076-.112 0 .075.715-.562 1.243-.6 1.959 0 .113.188.113.188 0 .037-.679.6-1.206.524-1.96zm.262 1.733c-.3.339-.449.753-.674 1.13-.224.377-.562.603-.562 1.055 0 .15.188.113.188 0 .037-.377.337-.64.524-.98.225-.377.3-.791.6-1.13.112-.038 0-.15-.075-.075zm.412 1.205c-.224.415-.524.829-.786 1.206-.337.452-.562.942-.974 1.28-.112.076.037.227.15.151.3-.301.524-.678.749-1.054.3-.528.674-.98.936-1.508 0-.075-.075-.15-.075-.075zm-.037 1.883c-.674.604-1.199 1.395-1.76 2.148-.075.113.074.302.15.151.599-.716 1.048-1.545 1.722-2.147.113-.076-.037-.226-.112-.151zm-.187 1.583c-.712.867-1.386 1.733-2.135 2.524-.075.076.037.226.15.151.786-.753 1.423-1.695 2.135-2.562.037-.075-.075-.188-.15-.113zm-.225 1.357c-.45.49-.749 1.054-1.124 1.582-.449.678-1.01 1.243-1.423 1.959-.075.15.112.264.187.113.375-.528.75-1.055 1.162-1.583.487-.64.824-1.318 1.348-1.92.112-.114-.037-.265-.15-.152z"/><path d="M3.596 19.025c-.038.49-.824 1.206-1.049 1.658-.412.716-.75 1.47-1.124 2.185-.075.15.15.264.225.113.412-.829.787-1.657 1.199-2.449.262-.49.899-.904.899-1.507 0-.113-.15-.113-.15 0zm.224 1.507c-.673.678-.973 1.658-1.423 2.487-.561 1.017-1.086 2.072-1.198 3.24 0 .188.262.188.262 0 .112-1.13.6-2.148 1.124-3.127.412-.829.711-1.808 1.348-2.487.075-.075-.037-.226-.112-.113zm-.224 2.901c-.6.678-.9 1.507-1.124 2.374-.262.904-.787 1.997-.674 2.939.037.15.262.15.225 0 0-.83.337-1.583.524-2.374.262-.98.487-2.034 1.161-2.826.112-.075 0-.226-.112-.113zm.187 1.959c-.937 1.846-1.686 4.22-1.61 6.292 0 .15.261.15.261 0 .038-2.072.6-4.333 1.499-6.179.075-.113-.075-.226-.15-.113zm.749 2.186c-.674 2.222-1.161 4.709-1.011 7.045 0 .188.262.188.262 0 .038-2.374.262-4.71.937-7.008.074-.113-.15-.188-.188-.037zm.637 1.205c0-.15-.262-.15-.262 0a53.94 53.94 0 01-.188 4.257c-.112 1.206-.374 2.411 0 3.58.038.15.262.075.225-.076-.187-1.281-.037-2.524.075-3.805a46.54 46.54 0 00.15-3.956zm.749 2.939c0-.151-.225-.151-.225 0 0 2.524-.3 5.086-.224 7.61 0 .188.262.188.3 0 .112-2.562.187-5.086.15-7.61zm.786 9.531c-.45-2.298-.187-4.86-.187-7.196 0-.15-.225-.15-.225 0 0 1.319 0 2.637-.037 3.994 0 1.092-.187 2.26.225 3.277.037.113.262.076.224-.075zm.975.942c-.375-.603-.188-1.431-.188-2.11.038-.866.075-1.695-.037-2.524 0-.113-.187-.075-.15.038.15 1.055.038 2.147-.075 3.202-.037.528-.075 1.13.262 1.545.075.075.225-.038.188-.15zm.786-1.507c0-.15-.262-.15-.262 0 0 1.319-.037 2.6 0 3.918 0 .151.262.151.262 0 .038-1.318 0-2.637 0-3.918zm.937-1.356c0-.15-.225-.15-.225 0a56.5 56.5 0 00.374 5.651c.038.15.225.15.225 0-.112-1.884-.3-3.767-.374-5.651zm.974 1.356c0-.15-.225-.15-.225 0 .15 1.658.749 3.24.974 4.898 0 .113.225.075.225-.038-.113-1.657-.787-3.202-.974-4.86zm2.172 5.425c-.45-1.544-.562-3.202-1.161-4.71-.038-.112-.263-.037-.225.076.637 1.507.674 3.165 1.161 4.672 0 .188.262.113.225-.038zm.712-2.11c-.15-.527-.188-1.205-.562-1.657-.112-.113-.262.037-.15.15.375.415.412 1.357.562 1.846.225.792.45 1.545.524 2.374 0 .15.263.15.225 0 0-.942-.337-1.808-.6-2.713zm1.049-.376c-.038-.189-.337-.226-.337 0 .187 1.356 1.011 2.524 1.16 3.918.038.188.3.188.3 0-.074-1.432-.936-2.562-1.123-3.918zm2.06 2.411c-.188-.64-.3-1.281-.525-1.884-.075-.188-.374-.113-.3.075.188.528.338 1.093.45 1.658.15.64.412 1.206.524 1.846.038.15.3.113.3-.038-.037-.565-.262-1.092-.45-1.657zm1.835 1.055c-.374-1.017-.487-2.148-1.198-3.014-.15-.15-.375.075-.225.226.674.791.749 1.921 1.124 2.863.037.188.374.113.3-.075zm1.91.188c-.374-1.017-.749-2.072-1.348-2.976-.112-.188-.412 0-.3.15.6.905.862 1.96 1.386 2.901.075.189.337.076.262-.075zm1.312-.452c-.338-.34-.375-.791-.525-1.243a5.686 5.686 0 00-.6-1.281c-.111-.15-.411 0-.261.15.337.49.524 1.018.674 1.583.112.377.187.753.524.98.15.112.337-.038.188-.189zm-.15-2.712c-.113-.151-.375 0-.263.15.562.942 1.124 1.808 1.349 2.901.037.15.262.113.262-.038 0-1.092-.824-2.11-1.348-3.014zm2.659 2.9c-.3-.226-.3-.904-.412-1.243-.262-.791-.599-1.582-.861-2.373-.075-.189-.337-.113-.262.075.337.942.824 1.884.973 2.863.038.302.113.904.525.942.112 0 .112-.188.037-.264zm.787-1.394c-.375-.188-.487-.904-.637-1.28-.225-.566-.412-1.169-.637-1.771-.075-.189-.374-.113-.3.075.263.754.563 1.545.825 2.298.112.377.225.791.637.904.15.076.224-.15.112-.226zm1.198.076c-.674-.904-.749-2.148-1.348-3.127-.112-.15-.337 0-.262.15.375.641.6 1.357.787 2.073.112.414.262.828.636 1.13.113.038.262-.113.188-.226zm.637-1.545c-.337-.678-.6-1.394-.824-2.147-.037-.189-.337-.113-.262.075l.562 1.695c.225.528.487 1.018.562 1.62.037.189.3.189.3 0 0-.452-.15-.866-.338-1.243zm1.649.302c-.637-.83-.712-1.884-1.087-2.826-.075-.188-.374-.113-.3.075.375.942.413 2.11 1.124 2.901 0 0 0 .038.038.038.112.113.337-.038.224-.188zm.786-.98c-.412-1.017-.9-2.034-1.311-3.052-.075-.15-.337-.037-.262.113.412 1.018.711 2.148 1.31 3.052.076.15.3.038.263-.113zm.787-1.017c-.525-1.206-1.012-2.411-1.536-3.617-.075-.15-.337-.038-.262.113.45 1.13.899 2.298 1.385 3.428-.037.038-.037.076 0 .113.038.038.075.113.113.151.15.189.375.038.3-.188zm.561-1.921a5.245 5.245 0 01-.374-1.244c0-.113-.225-.113-.225.038.038.264.075.565.15.829-.487-.528-.75-1.244-1.086-1.846-.075-.151-.3 0-.225.15.412.792.712 1.846 1.536 2.374.187.038.3-.15.224-.301zm.675-1.357c-.487-.64-.825-1.394-1.199-2.072-.075-.15-.262 0-.187.113.412.791.786 1.62 1.31 2.336.076.113.263.075.3-.075v-.151c-.037-.113-.15-.15-.224-.15zm-.038-1.695c-.487-.754-.787-1.545-1.161-2.336-.075-.188-.375-.038-.3.188.337.83.6 1.696 1.199 2.374.15.075.337-.076.262-.226zm-.599-3.918c-.15-.113-.337.113-.225.226.112.075.15.15.15.301 0 .15.262.188.262 0 .037-.264-.038-.414-.187-.527zm-.263-2.487c-.037-.037-.112.038-.074.076.15.15.224.339.187.565 0 .037.075.037.075 0 .037-.264-.038-.452-.188-.64zm-9.139-8.853c-.337-.076-.637-.415-.899-.678-.337-.34-.674-.64-.974-1.055-.112-.151-.375 0-.262.15.3.453.674.792 1.049 1.168.262.302.599.64 1.011.64.187 0 .225-.225.075-.225zm.224-1.696c-.112.302-.636.038-.749-.075-.224-.226-.337-.527-.562-.753-.112-.151-.3.075-.187.188.3.377.45.829.937 1.017.3.113.786.113.861-.301 0-.189-.262-.264-.3-.076zm-.524-1.808c-.15-.15-.375.075-.225.226.337.302.9.34 1.161.754.075.15.263.037.263-.113-.113-.528-.862-.566-1.199-.867zm1.236-.64c-.187 0-.374 0-.561-.076-.188-.113-.338-.301-.488-.452-.15-.15-.374.076-.224.226.374.415.712.678 1.273.64.188-.037.225-.376 0-.338zm-.524-1.997v.188c0 .226.337.226.337 0v-.188c-.037-.226-.337-.226-.337 0zm.412-3.014c.15-.075 0-.301-.113-.226-.337.226-.3.565.038.754.112.037.187-.076.075-.151-.187-.075-.15-.264 0-.377z"/></g><defs><clipPath id="clip0"><path fill="#fff" d="M0 0h33v48.675H0z"/></clipPath></defs></svg>