<svg width="48" height="52" fill="none" xmlns="http://www.w3.org/2000/svg"><g clip-path="url(#clip0)"><path d="M24 51.594c13.033 0 23.598-10.67 23.598-23.833C47.598 14.598 37.033 3.927 24 3.927S.402 14.597.402 27.761C.402 40.923 10.967 51.594 24 51.594z" stroke="#204686" stroke-width="2" stroke-miterlimit="10"/><path d="M6.596 30.93c.242 2.193 1.529 4.089 3.513 5.01.456.217.885-.488.402-.704-1.716-.786-2.923-2.384-3.11-4.307-.054-.514-.858-.514-.805 0z" fill="#204686"/><path d="M7.884 31.173A1399.524 1399.524 0 0038.4 17.496c.483-.217.054-.921-.402-.705A1460.252 1460.252 0 017.482 30.468c-.483.19-.08.894.402.705zm2.359 5.01a1153.779 1153.779 0 0030.329-13.19c.483-.216.054-.92-.402-.704a1299.798 1299.798 0 01-30.141 13.109c-.456.19-.268.975.214.785z" fill="#204686"/><path d="M37.112 17.388c-.214 1.652.215 3.548 1.448 4.74 1.02.974 2.414.595 2.628-.84.241-1.625-1.019-3.115-2.091-4.171-.751-.758-2.333-1.354-2.468.217-.053.514.751.514.805 0 .08-.732 1.85 1.164 1.904 1.218.51.623 1.314 1.76 1.019 2.6-.617 1.896-2.092-.812-2.253-1.354-.268-.812-.295-1.598-.187-2.437.08-.488-.724-.488-.805.027zM19.63 25.756c-.59 2.167.991 4.442 3.217 4.631.51.055.51-.758 0-.812-1.69-.162-2.896-1.977-2.44-3.602.134-.488-.644-.704-.778-.217z" fill="#204686"/><path d="M37.354.135c-.268-.054-.536-.08-.805-.135-.053 0-.16.054-.134.135.778 1.95 2.2 4.388 1.529 6.555-.43 1.38-1.716 2.735-1.073 4.252.349.812 1.1 1.3 1.368 2.193.268.975.053 2.005.027 2.98-.054 1.218.16 2.41 1.18 3.168.107.082.214-.108.107-.162-1.824-1.354-.724-3.765-1.02-5.606-.08-.57-.294-1.003-.616-1.463-.724-1.03-1.18-1.814-.778-3.06.483-1.436 1.341-2.41 1.18-3.982-.08-.84-.402-1.625-.697-2.41-.188-.46-.349-.894-.536-1.327C36.87.758 36.523.27 37.3.406c.108-.054.161-.27.054-.27z" fill="#204686"/><path d="M38.83 6.933c3.244 3.17-.456 8.125.59 11.917.026.135.24.081.187-.054-1.019-3.792 2.655-8.775-.643-11.998-.08-.081-.215.054-.134.135zm1.823 3.711c.456 1.056.912 2.194.831 3.385-.08 1.138-.697 2.167-1.26 3.115-.054.108.107.217.16.108.59-1.002 1.18-2.031 1.288-3.223.08-1.218-.402-2.383-.858-3.466-.027-.136-.215-.027-.161.081zM8.179 32.717a282.56 282.56 0 018.957-3.656c.107-.055.08-.244-.054-.19a261.877 261.877 0 00-9.01 3.683c-.107.027 0 .217.107.163zm1.448.406l7.16-3.25c.107-.054.027-.217-.107-.162l-7.16 3.25c-.107.054 0 .216.107.162zm-1.046 1.489c3.54-1.543 7.053-3.06 10.593-4.604.107-.054.026-.216-.108-.162-3.54 1.544-7.052 3.06-10.592 4.604-.107.054 0 .217.107.162zm1.662.271a64.303 64.303 0 0111.344-5.01c.134-.027.08-.244-.054-.19a63.952 63.952 0 00-11.397 5.01c-.107.082 0 .245.107.19z" fill="#204686"/><path d="M7.589 31.254a3.667 3.667 0 002.333 4.144c.134.054.188-.162.054-.19-1.556-.568-2.494-2.247-2.172-3.9.026-.108-.188-.162-.215-.054zm.965-.298a4.315 4.315 0 003.755 3.548c.134.027.134-.19 0-.216-1.797-.217-3.218-1.625-3.54-3.413-.054-.108-.241-.054-.215.081zm1.153-.352c.698.975 1.502 1.815 2.494 2.492.724.488 1.636 1.11 2.467.623.108-.054 0-.244-.107-.163-.938.57-2.306-.595-3.003-1.164-.644-.542-1.18-1.165-1.69-1.842-.08-.162-.241-.054-.16.054zm2.709-.217c.107 1.652 1.663 2.871 3.271 2.573.135-.027.081-.217-.053-.19-1.475.298-2.923-.866-3.03-2.383.027-.135-.188-.135-.188 0zm1.072-.325a4.06 4.06 0 003.647 2.086c.134 0 .134-.217 0-.217-1.448.027-2.735-.704-3.459-1.977-.08-.108-.268-.027-.188.108zm1.528-.92c.537 1.516 1.77 2.627 3.325 2.979.135.027.188-.163.054-.19a4.469 4.469 0 01-3.19-2.844c-.055-.108-.242-.054-.189.055zm1.717-.38a4.057 4.057 0 003.191 2.709c.134.027.188-.163.054-.19a3.933 3.933 0 01-3.057-2.573c-.027-.135-.215-.08-.188.055zm1.77-.379c.188 1.354 1.367 2.383 2.735 2.302.134 0 .134-.216 0-.216-1.233.054-2.36-.867-2.52-2.113-.027-.108-.215-.108-.215.027zm.509-.27a13.923 13.923 0 002.709 2.329c.107.081.214-.108.107-.163-.992-.65-1.877-1.435-2.682-2.302-.08-.108-.214.027-.134.136z" fill="#204686"/><path transform="rotate(48.36 -6.5 13.278) skewX(.141)" stroke="#204686" stroke-width="2" d="M0-1h47.772"/></g><defs><clipPath id="clip0"><path fill="#fff" d="M0 0h48v52H0z"/></clipPath></defs></svg>