<svg width="38" height="40" fill="none" xmlns="http://www.w3.org/2000/svg"><path d="M19 38.695c9.775 0 17.698-8.003 17.698-17.875S28.775 2.945 19 2.945c-9.774 0-17.698 8.003-17.698 17.875S9.226 38.695 19 38.695z" stroke="#204686" stroke-width="2" stroke-miterlimit="10"/><path d="M5.948 23.197c.18 1.645 1.146 3.067 2.634 3.758.342.162.664-.366.302-.528-1.287-.59-2.192-1.788-2.333-3.23-.04-.386-.644-.386-.603 0z" fill="#204686"/><path d="M6.913 23.38A1049.46 1049.46 0 0029.8 13.122c.362-.163.04-.69-.302-.528A1095.575 1095.575 0 016.611 22.852c-.362.142-.06.67.302.528zm1.77 3.757a865.289 865.289 0 0022.746-9.892c.362-.162.04-.69-.301-.528A975.204 975.204 0 018.522 26.55c-.342.142-.201.73.16.588z" fill="#204686"/><path d="M28.835 13.04c-.161 1.24.16 2.662 1.086 3.555.764.732 1.81.447 1.97-.63.182-1.218-.764-2.335-1.568-3.127-.563-.57-1.75-1.016-1.85.162-.04.386.563.386.603 0 .06-.548 1.388.873 1.428.914.382.467.985 1.32.764 1.95-.462 1.422-1.569-.61-1.69-1.016-.2-.609-.22-1.198-.14-1.828.06-.365-.543-.365-.603.02zm-13.113 6.277c-.442 1.625.744 3.331 2.414 3.474.382.04.382-.57 0-.61-1.267-.122-2.172-1.483-1.83-2.701.1-.366-.483-.528-.584-.163z" fill="#204686"/><path d="M29.016.102C28.815.06 28.613.04 28.412 0c-.04 0-.12.04-.1.102.583 1.462 1.649 3.29 1.146 4.915-.322 1.036-1.287 2.052-.804 3.19.261.609.824.974 1.025 1.645.202.73.04 1.503.02 2.234-.04.914.121 1.808.885 2.377.08.06.161-.082.08-.122-1.367-1.016-.542-2.824-.763-4.205-.06-.427-.222-.752-.463-1.097-.543-.772-.885-1.36-.583-2.295.362-1.077 1.005-1.808.885-2.986-.06-.63-.302-1.219-.523-1.808-.141-.345-.262-.67-.402-.995-.161-.386-.423-.752.16-.65.08-.04.121-.203.04-.203z" fill="#204686"/><path d="M30.122 5.2c2.434 2.377-.342 6.094.443 8.938.02.101.18.06.14-.041-.764-2.844 1.991-6.581-.482-8.998-.06-.061-.161.04-.1.101zm1.368 2.783c.341.792.683 1.645.623 2.539-.06.853-.523 1.625-.945 2.336-.04.081.08.162.12.081.443-.752.885-1.523.966-2.417.06-.914-.302-1.788-.644-2.6-.02-.102-.16-.02-.12.06zM7.134 24.538a211.77 211.77 0 016.718-2.743c.08-.04.06-.183-.04-.142a196.31 196.31 0 00-6.758 2.763c-.08.02 0 .162.08.122zm1.086.304l5.37-2.437c.08-.04.02-.163-.08-.122L8.14 24.72c-.08.041 0 .163.08.122zm-.784 1.118c2.655-1.158 5.29-2.296 7.944-3.454.08-.04.02-.162-.08-.122-2.655 1.158-5.29 2.296-7.944 3.453-.08.041 0 .163.08.122zm1.247.203a48.23 48.23 0 018.507-3.758c.1-.02.06-.183-.04-.142a47.968 47.968 0 00-8.547 3.757c-.08.061 0 .183.08.143z" fill="#204686"/><path d="M6.692 23.44a2.75 2.75 0 001.75 3.108c.1.041.14-.121.04-.142-1.167-.426-1.87-1.686-1.63-2.925.02-.081-.14-.122-.16-.04zm.724-.223a3.236 3.236 0 002.815 2.661c.1.02.1-.142 0-.162-1.347-.163-2.413-1.22-2.655-2.56-.04-.081-.18-.04-.16.061zm.864-.264c.524.731 1.127 1.361 1.871 1.869.543.366 1.227.833 1.85.467.08-.04 0-.183-.08-.122-.704.427-1.73-.447-2.253-.873-.482-.407-.885-.874-1.267-1.381-.06-.122-.18-.041-.12.04zm2.032-.163c.08 1.24 1.247 2.154 2.454 1.93.1-.02.06-.162-.04-.142-1.107.224-2.193-.65-2.273-1.787.02-.102-.141-.102-.141 0zm.804-.243a3.045 3.045 0 002.736 1.564c.1 0 .1-.163 0-.163a2.876 2.876 0 01-2.595-1.482c-.06-.082-.201-.02-.14.08zm1.146-.691a3.438 3.438 0 002.494 2.234c.1.02.141-.121.04-.142a3.352 3.352 0 01-2.393-2.133c-.04-.08-.18-.04-.14.041zm1.288-.284a3.043 3.043 0 002.393 2.031c.1.02.14-.122.04-.142a2.95 2.95 0 01-2.292-1.93c-.02-.101-.161-.06-.141.04zm1.327-.285c.14 1.016 1.026 1.788 2.051 1.727.1 0 .1-.162 0-.162-.925.04-1.77-.65-1.89-1.585-.02-.081-.161-.081-.161.02zm.383-.203c.603.67 1.287 1.26 2.03 1.747.081.061.162-.08.081-.122a10.929 10.929 0 01-2.011-1.726c-.06-.081-.161.02-.1.101z" fill="#204686"/><path transform="rotate(48.36 -4.375 11.072) skewX(.141)" stroke="#204686" stroke-width="2" d="M0-1h35.829"/></svg>