<svg width="22" height="22" fill="none" xmlns="http://www.w3.org/2000/svg"><g clip-path="url(#clip0)"><path d="M21.38 13.966c-.644-1.373-1.471-3.204-2.666-5.126.46-.641.735-1.465 1.011-2.106.46-1.007.92-2.38.368-3.478-1.012-2.106-4.046-1.19-5.7.091-.92-.64-1.747-1.464-2.759-2.014C10.991.601 9.888.143 8.968.601c-.46 0-.827 0-1.287.092-1.379.366-1.93 1.83-2.206 3.02-.092.916-.368 2.289-.184 3.387C3.544 7.375.878 8.107.602 9.938c-.184 1.19.644 2.38 1.471 3.204.644.64 2.207 1.556 3.31 1.373 0 1.19.184 2.38.368 3.57.091.458.275.824.46 1.098.459 1.374 1.378 2.472 2.482 2.38 1.746 0 2.941-1.556 3.953-2.837.46-.641 1.379-1.74 1.747-2.746 1.563.183 3.217.457 4.688.915 1.84.458 2.942-1.373 2.299-2.93z" fill="#F4CE4F"/><path d="M13.29 3.805c-.46-2.289-4.322-4.12-6.436-3.02-1.196.64-1.655 1.738-1.931 3.111-.276.824-.644 2.655.092 3.296.092.091.184.091.276 0 .46-.366.46-1.19.643-1.74.184-.915.368-1.922 1.012-2.746C8.6.601 10.807 3.622 11.91 4.537c.736.458 1.563 0 1.38-.732zm7.262-1.007c-.092-.275-.46-.55-.827-.55-1.839-.09-3.494.641-5.24 1.374-.644.274-.368 1.19.275 1.007 1.38-.275 2.667-.733 4.137-.824-.091 1.281-.827 2.471-1.746 3.387-.736.824.46 2.014 1.195 1.19 1.563-1.465 2.482-3.296 2.206-5.584zm-.183 11.351c-1.196 0-2.39.183-3.586.274-.92 0-1.93-.091-2.666.55-.092.091-.184.274-.092.366.551.732 1.379.915 2.39 1.007 1.38.091 2.85.183 4.23-.092 1.195-.366.827-2.105-.276-2.105zm-7.631 2.838c-.828.091-1.471.457-2.023 1.098-.46.55-1.379 1.83-2.206 1.74-1.012-.184-1.288-1.923-1.471-2.655-.184-.733 0-1.74-.552-2.289.276-.091.46-.091.644-.274.367-.275.46-.824 0-1.099-1.655-1.007-4.69-.091-5.793-2.288-.183-.458-1.01-.275-1.01.274.183 1.373 1.286 2.106 2.481 2.655.828.366 2.115.824 3.126.824-.551.732-.184 2.288-.092 3.02.184 1.282.552 2.472 1.655 3.205 2.115 1.556 5.333-1.923 5.517-3.845.183-.183-.092-.366-.276-.366z" fill="#E0922E"/><path d="M6.026 8.107c-.735-.732-1.838-.183-2.666.183-.735.367-1.563.916-1.747 1.831-.184.55.46.916.92.732.643-.274 1.195-.549 1.838-.823.828-.275 1.563-.275 1.931-1.19 0-.275-.184-.55-.276-.733zM8.508 5.91a1.719 1.719 0 01-.183-.732c-.092-.366-.644-.458-.828-.183-.368.366-.46.732-.368 1.19.092.55.368 1.007.92 1.098.367.092.827-.183.827-.64-.092-.183-.184-.458-.368-.733zm2.299 8.513c-.276-.64-1.103-.366-1.287.184-.184.549-.184 1.556.368 1.922.276.183.643.091.827-.092.46-.549.368-1.464.092-2.014zm4.045-4.668c-.367-.366-.92-.366-1.379-.458-.552-.091-.92.733-.368.916.552.274 1.196.64 1.747.274.184-.183.276-.549 0-.732zm1.563 2.288c-.368-.274-1.011-.366-1.38.092-.183.183-.275.458-.091.732.276.366.643.55 1.103.458.736-.091.92-.915.368-1.281zm3.31-.091c-.367-.458-.827-1.007-1.379-1.282-.46-.274-1.011.183-.827.641.184.458.46.915.735 1.373.276.458.552 1.099.92 1.465.46.458 1.287.091 1.287-.55 0-.64-.368-1.19-.736-1.647z" fill="#FFF12D"/></g><defs><clipPath id="clip0"><path fill="#fff" transform="translate(.418 .418)" d="M0 0h21.146v21.146H0z"/></clipPath></defs></svg>