<svg width="32" height="33" fill="none" xmlns="http://www.w3.org/2000/svg"><g clip-path="url(#clip0)" fill="#fff"><path d="M31.514 5.772c-.122-1.506-.609-1.757-1.826-2.51-1.216-.752-2.311-.125-3.771.753-1.46.753-5.72 1.004-8.518 1.004-2.798 0-5.353-.878-7.057-1.882-1.703-.878-4.745-1.13-6.57-.502-1.825.502-2.19 3.639-2.19 3.639s-.122 14.68 0 16.186c.122 1.506.608 2.635 1.703 3.89.852.753 6.57 3.764 6.57 3.764.852-.376-1.581-2.886-1.703-3.513-.121-.753-.973-1.882-2.312-2.886-1.216-1.004-.851-.878.122-1.38.852-.502 1.339-.628 1.704-2.008s-1.096-2.635-1.339-4.392c-.243-1.756 3.285-2.51 4.38-3.513.974-.878 2.312.251 2.677 1.004.487.878 2.434 2.635 2.434 2.635-.73.753-2.556-1.004-3.894-1.38-1.338-.502-2.798 0-3.65 2.133-.852 2.133 1.703 2.76 2.798 2.635 1.096-.126 1.096.878 1.096 3.764 0 2.76 2.068 3.89 4.258 3.764 2.312-.125.73-5.144 1.703-5.646.974-.502 1.339 1.38 1.825 2.76.487 1.38 1.096 2.008 2.556 2.008s2.068-2.635 1.338-5.396c-.73-2.76-.365-2.886 0-3.387.365-.502 1.217-1.757 1.582-3.012.365-1.255 0-3.764-1.095-4.391-1.095-.628-3.042 1.254-4.015 2.133-.974.878-1.339-1.506-2.069-2.635-.73-1.13-4.624.125-5.597.502-.852.376-1.217-.126-1.703-.628-.122-.502-2.555-1.882-4.746-1.255-2.19.628-1.095 3.765-.851 4.267.365.752.608 1.38-.122 2.133-.73.627-.973 2.133-.487 3.137.487 1.003 1.825 1.38 1.095 2.634-.73 1.13-1.581 1.004-2.433 0-.852-1.003.365-9.034.487-12.17.121-3.137.73-2.761 1.216-3.514.609-.753 2.799.377 4.624 1.506 1.825 1.004 4.259 1.882 9.734 1.882s7.3-.878 8.152-.878c.852.125 1.095 1.63 1.095 1.63s-.487 15.434-.973 17.065c-.609 1.632-1.826 3.514-4.259 4.392-2.555.878-3.529-.753-5.11-1.004-1.582-.376-2.799 1.631-2.555 2.886.243 1.13.973 1.38 2.311.878 1.217-.501 3.286-.376 5.962-.501 2.677-.126 5.354-2.384 6.692-5.02 1.339-2.76.852-20.075.73-21.581zm-9.248 17.692c-1.216 0-1.825-2.384-2.555-3.262-.73-.879-2.677-1.632-3.285.125-.608 1.757.365 4.643-.852 4.768-1.095.126-2.312-2.133-2.19-3.513.122-1.38.365-3.388-.973-3.639-1.339-.251-2.312.25-2.434-.878-.121-.879 1.339-1.632 1.947-1.13.609.502 2.434 2.51 4.38 2.133 2.069-.376 4.137-1.38 5.11.753 1.217 2.008 2.069 4.643.852 4.643zm-7.908-12.171c.486-.753 1.095-.879 1.095-.879 1.581-.125 2.433.251 2.555 1.13.243.878 1.095 2.51 2.19 2.133.973-.377 3.772-2.51 4.137-1.13.365 1.255-.73 2.886-1.339 3.514-.73.627-1.825 1.13-2.068.502-.243-.753-2.555-1.255-3.772-1.13-1.217.126-1.46-1.129-2.068-1.756-.487-.753-1.095-1.757-.73-2.384zm-3.407-.879c.243.126.243.251.121.126l-.121-.126c-.365 0-1.582 1.38-2.19 1.38-.852.126-2.19.377-2.312-1.254-.122-2.133 3.528-.627 4.502-.126z"/><path d="M11.072 10.415c0 .125 0 .125 0 0 .122.125.122.125 0 0zM17.521 33h-.487c-.851 0-2.311-.126-3.041-1.13-.366-.501-.366-1.254 0-2.132.486-1.38 2.555-2.008 4.258-1.883 1.217.126 1.825.252 2.312.502.122.126.365.126.486.126h.244c.73.125 1.582.376 2.19 0 2.312-1.255 3.042-3.388 3.042-8.407 0-5.52.122-8.281.608-9.16.487-.878 1.582-4.266 1.582-4.266 0-.125.122-.125.243-.125.122 0 .122.125.122.25 0 .126-1.095 3.389-1.582 4.392-.365.753-.608 3.514-.608 8.909 0 5.145-.852 7.403-3.285 8.783-.852.502-1.704.251-2.556.126h-.243c-.243 0-.365-.126-.486-.126-.366-.125-.974-.376-2.19-.502-1.826-.125-3.407.628-3.894 1.632-.244.752-.244 1.38 0 1.756.487.753 1.947.879 2.677.879h.486c.122 0 .122.125.122.25.243.126.122.126 0 .126z"/><path d="M9.977 30.867h-.121c-2.19-.377-5.72-1.631-6.814-2.51-.122-.125-.365-.25-.487-.376-.973-.753-1.582-1.38-1.947-2.384C0 23.84 0 22.209 0 22.209L.122 4.141c0-.126.73-2.259 3.042-3.263C5.354-.125 5.962 0 7.787.502l.365.125c.487.126 1.095.377 1.704.502 1.946.628 4.258 1.506 8.273 1.506 4.624 0 7.3-.376 8.396-1.255.608-.376 1.582-.502 2.555-.25.73.25 1.825.752 2.677 2.132.486 1.004 0 2.384-.365 3.388-.244.502-.365 1.004-.365 1.255 0 .25-.122.502-.365.627-.609.502-1.704.251-1.825.251-.122 0-.244-.125-.122-.25 0-.126.122-.252.243-.126.244 0 1.095.125 1.46-.251.122-.126.244-.251.244-.377 0-.376.243-.878.486-1.38.365-1.004.852-2.258.487-3.011-.73-1.255-1.703-1.757-2.312-1.882-.973-.251-1.825 0-2.19.25-1.217.879-4.015 1.255-8.639 1.255-4.137 0-6.448-.878-8.395-1.505-.974-.251-1.46-.377-1.947-.628h-.365C5.962.376 5.475.251 3.407 1.13 1.338 2.133.608 3.89.487 4.141L.365 22.209s0 1.631.608 3.262c.365.879.852 1.255 1.825 2.134.122.125.244.25.487.376.974.753 4.259 2.008 6.57 2.384h.122c0-.25-.487-1.13-1.217-2.133-.121-.125-.121-.251 0-.251.122-.126.244 0 .244 0 .608.753 1.582 2.133 1.216 2.635.122.125 0 .25-.243.25z"/></g><defs><clipPath id="clip0"><path fill="#fff" d="M0 0h32v33H0z"/></clipPath></defs></svg>