<svg width="69" height="69" fill="none" xmlns="http://www.w3.org/2000/svg"><g clip-path="url(#clip0)" fill="#fff"><path d="M67.95 12.068c-.262-3.148-1.311-3.673-3.935-5.247-2.623-1.574-4.985-.262-8.133 1.574-3.148 1.575-12.33 2.1-18.365 2.1-6.034 0-11.544-1.837-15.217-3.936-3.673-1.837-10.232-2.361-14.167-1.05-3.935 1.05-4.722 7.609-4.722 7.609s-.263 30.696 0 33.844c.262 3.148 1.311 5.51 3.673 8.133 1.836 1.574 14.167 7.87 14.167 7.87 1.836-.786-3.41-6.033-3.673-7.345-.262-1.574-2.099-3.936-4.985-6.034-2.624-2.1-1.836-1.837.262-2.886 1.837-1.05 2.886-1.312 3.673-4.198.788-2.886-2.36-5.51-2.885-9.183-.525-3.673 7.083-5.247 9.444-7.346 2.1-1.836 4.985.525 5.772 2.1 1.05 1.836 5.247 5.509 5.247 5.509-1.574 1.574-5.51-2.1-8.395-2.886-2.886-1.05-6.034 0-7.87 4.46-1.837 4.46 3.672 5.772 6.033 5.51 2.362-.263 2.362 1.836 2.362 7.87 0 5.772 4.46 8.133 9.182 7.87 4.985-.261 1.574-10.756 3.673-11.805 2.099-1.05 2.886 2.886 3.935 5.772 1.05 2.886 2.362 4.197 5.51 4.197 3.148 0 4.46-5.51 2.886-11.281-1.574-5.772-.787-6.034 0-7.084.787-1.05 2.623-3.673 3.41-6.296.788-2.624 0-7.871-2.36-9.183-2.362-1.311-6.56 2.624-8.658 4.46-2.1 1.837-2.886-3.148-4.46-5.51-1.575-2.36-9.97.263-12.069 1.05-1.836.787-2.623-.262-3.673-1.311-.262-1.05-5.51-3.936-10.232-2.624-4.722 1.312-2.361 7.87-1.836 8.92.787 1.574 1.311 2.886-.263 4.46-1.574 1.312-2.099 4.46-1.05 6.559 1.05 2.099 3.936 2.886 2.362 5.51-1.574 2.36-3.41 2.098-5.247 0-1.837-2.1.787-18.89 1.05-25.45.262-6.558 1.573-5.771 2.623-7.345 1.312-1.574 6.034.787 9.97 3.148 3.935 2.099 9.182 3.936 20.988 3.936s15.742-1.837 17.578-1.837c1.837.262 2.361 3.41 2.361 3.41s-1.05 32.27-2.099 35.681c-1.311 3.41-3.935 7.346-9.182 9.183-5.51 1.836-7.608-1.574-11.02-2.1-3.41-.786-6.033 3.412-5.509 6.035.525 2.361 2.1 2.886 4.985 1.837 2.624-1.05 7.084-.787 12.856-1.05 5.771-.262 11.543-4.985 14.43-10.494 2.885-5.772 1.836-41.977 1.574-45.126zM48.012 49.061c-2.623 0-3.935-4.985-5.51-6.821-1.573-1.837-5.771-3.411-7.083.262-1.312 3.673.787 9.707-1.836 9.97-2.362.262-4.985-4.46-4.723-7.346.263-2.886.787-7.084-2.099-7.609-2.886-.525-4.984.525-5.247-1.836-.262-1.837 2.886-3.411 4.198-2.362 1.312 1.05 5.247 5.247 9.445 4.46 4.46-.787 8.92-2.886 11.019 1.575 2.623 4.197 4.46 9.707 1.836 9.707zM30.958 23.612c1.05-1.574 2.361-1.836 2.361-1.836 3.41-.263 5.247.524 5.51 2.36.524 1.837 2.361 5.248 4.722 4.461 2.1-.787 8.133-5.247 8.92-2.361.788 2.623-1.574 6.034-2.885 7.346-1.575 1.312-3.936 2.361-4.46 1.05-.525-1.575-5.51-2.624-8.134-2.362-2.623.262-3.148-2.361-4.46-3.673-1.05-1.574-2.361-3.673-1.574-4.985zm-7.346-1.836c.525.262.525.524.262.262l-.262-.262c-.787 0-3.41 2.886-4.722 2.886-1.837.262-4.723.787-4.985-2.624-.262-4.46 7.608-1.312 9.707-.262z"/><path d="M23.875 21.776c0 .262 0 .262 0 0 .262.262.262.262 0 0zM37.78 69h-1.05c-1.836 0-4.984-.262-6.559-2.361-.787-1.05-.787-2.624 0-4.46 1.05-2.886 5.51-4.198 9.183-3.936 2.623.263 3.935.525 4.985 1.05.262.262.787.262 1.05.262h.524c1.574.263 3.41.787 4.722 0 4.985-2.623 6.56-7.084 6.56-17.578 0-11.543.261-17.315 1.311-19.152 1.05-1.836 3.41-8.92 3.41-8.92 0-.262.263-.262.525-.262.263 0 .263.262.263.524 0 .263-2.361 7.084-3.411 9.183-.787 1.574-1.312 7.346-1.312 18.627 0 10.757-1.836 15.48-7.083 18.365-1.837 1.05-3.673.525-5.51.263h-.525c-.524 0-.787-.263-1.05-.263-.786-.262-2.098-.787-4.721-1.05-3.936-.262-7.346 1.313-8.396 3.411-.525 1.575-.525 2.886 0 3.673 1.05 1.575 4.198 1.837 5.772 1.837h1.05c.262 0 .262.262.262.525.524.262.262.262 0 .262z"/><path d="M21.513 64.54h-.262c-4.723-.787-12.33-3.41-14.692-5.247-.262-.263-.787-.525-1.05-.787-2.098-1.574-3.41-2.886-4.197-4.985C0 49.848 0 46.437 0 46.437l.262-37.78c0-.262 1.575-4.722 6.56-6.82 4.722-2.1 6.033-1.837 9.969-.788l.787.263c1.05.262 2.361.787 3.673 1.05 4.198 1.311 9.182 3.148 17.84 3.148 9.97 0 15.742-.788 18.103-2.624 1.312-.787 3.41-1.05 5.51-.525 1.574.525 3.935 1.574 5.771 4.46 1.05 2.1 0 4.985-.787 7.084-.525 1.05-.787 2.099-.787 2.624 0 .524-.262 1.049-.787 1.311-1.312 1.05-3.673.525-3.935.525-.263 0-.525-.262-.263-.525 0-.262.263-.524.525-.262.525 0 2.361.262 3.148-.525.263-.262.525-.524.525-.787 0-.787.525-1.836 1.05-2.886.787-2.099 1.836-4.722 1.049-6.296-1.574-2.624-3.673-3.673-4.985-3.936-2.099-.524-3.935 0-4.722.525-2.624 1.837-8.658 2.624-18.628 2.624-8.92 0-13.905-1.837-18.102-3.149-2.1-.524-3.149-.787-4.198-1.311h-.787C12.855.787 11.806.525 7.346 2.36c-4.46 2.1-6.034 5.772-6.297 6.297l-.262 37.78s0 3.41 1.312 6.82c.787 1.837 1.836 2.624 3.935 4.46.263.263.525.525 1.05.788 2.099 1.574 9.182 4.197 14.167 4.984h.262c0-.524-1.05-2.36-2.623-4.46-.263-.262-.263-.524 0-.524.262-.263.524 0 .524 0 1.312 1.574 3.411 4.46 2.624 5.51.262.262 0 .524-.525.524z"/></g><defs><clipPath id="clip0"><path fill="#fff" d="M0 0h69v69H0z"/></clipPath></defs></svg>