<svg width="53" height="58" fill="none" xmlns="http://www.w3.org/2000/svg"><path d="M24.884 23.992c-.541-.633-.206-1.237.325-1.654.063-.042-.035-.136-.098-.094-.618.452-1.045 1.11-.487 1.854.11.14.375.015.26-.105z" fill="#75BB43"/><path d="M43 44.196c-.032-1.798-.902-3.22-2.45-4.549-1.43-1.227-3.024-1.74-4.86-1.54-1.703.181-3.14 1.465-3.496 2.889-.843-.354-1.646-.757-2.466-1.104-.398-.17-.78-.313-1.173-.501a.642.642 0 00-.28-.069c.634-.275 1.306-.516 1.956-.764.257-.105.513-.21.753-.34.775-.084 1.516-.22 2.245-.402 2.275-.579 4.63-1.589 6.357-2.925 1.729-1.336 2.449-3.474 2.617-5.52.104-1.254.168-2.543.078-3.819-.028-.486-.118-1.014-.437-1.45.228-.175.2-.496.354-.758.337-.62.594-1.306.863-1.947.646-1.476 1.092-3.037 1.561-4.59.234-.777.361-2.024 1.262-2.442.61-.282 1.39-.135 2.097-.158.678-.01 1.415-.959.834-1.52-.66-.627-2.484-.713-3.298-.663-1.368.06-1.689 1.203-1.946 2.139-.458 1.598-1.046 3.134-1.527 4.726-.446 1.477-.996 3.462-2.29 4.522a201.178 201.178 0 01-5.892-.354c-2.302-.158-4.7-.574-6.974-.577.303-1.088.282-2.258.471-3.382.218-1.218.51-2.434.66-3.674.173-1.316.294-2.628.415-3.94.034-.363.07-.726.081-1.096.19-.958.418-1.965.34-2.946-.04-.366-.7-.412-.656-.065.006.064.012.128.023.173-.548.822-1.574.908-2.719.81-1.31-.13-1.925-.908-2.71-1.701-.04-.034-.12-.018-.114.046-.006.02.017.027.01.046-.022-.09-.164-.116-.193-.021-.377.835-1.375 1.408-2.258 1.769-1.163.457-2.052.338-3.202-.322-.211-.13-.422-.01-.456.186-.046.318.056.641.01.96-.08.514-.468.97-.726 1.408-.462.787-1.198 1.486-1.985 2.023-.821.567-1.836.948-2.839 1.207-.541.138-.946-.178-1.447-.09-.211.036-.297.32-.058.438 1.828.9.292 3.669-.307 4.66-.605 1.012-1.655 1.755-2.448 2.644-.04.05-.074.08-.114.13-.125.167 0 .332.182.39-.126.666.05 1.492.174 2.155.21 1.127.453 2.224 1 3.314 1.085 2.198 2.36 4.103 4.266 5.9 1.804 1.722 4.606 2.872 7.027 3.628 1.64.776 3.275 1.654 4.978 2.305a6.59 6.59 0 01-.52.228c-.341.14-.683.28-1.02.4-1.018-1.096-2.146-1.832-3.684-2.284a5.209 5.209 0 00-2.381-.142c-1.243.059-2.394.645-3.295 1.311-1.671 1.23-1.999 3.307-1.722 5.204.39 2.848 4.114 5.581 7.3 5.129 1.948.085 4.08-.768 5-1.99.707-.936.97-2.14.8-3.317a6.289 6.289 0 00-.487-1.611c-.131-.313-.399-.585-.558-.886.855-.349 1.676-.75 2.497-1.152.188.206.496.263.81.385.933.383 1.89.773 2.795 1.168.599.254 1.185.547 1.794.846-.525.746-.674 1.488-.361 2.523.346 1.171.915 2.102 2.076 2.89 1.224.83 2.654 1.06 4.09 1.19 1.22.1 2.109-.362 2.976-.915a.3.3 0 00.376-.004c1.391-1.133 2.259-2.434 2.221-4.212zm-1.575-22.43A27.806 27.806 0 0042.9 18.04c.377-1.25.909-2.43 1.258-3.67.251-.833.412-1.612 1.523-1.817.77-.147 1.698.171 2.461.375.022.672-.234.943-.753.839-.194-.02-.41-.049-.592-.024-.513.043-.963.127-1.425.332-.873.406-1.057 1.843-1.285 2.6-.407 1.346-.927 2.654-1.333 4-.2.662-.577 1.248-.777 1.91.006-.018-.274.661-.429 1.006a.4.4 0 00-.205-.066c-.342-.026-.666-.027-1.008-.053.536-.452.788-1.119 1.09-1.707zm-15.112.882c.204.315.284.715.312.952.05.578-.452.998-1.073 1.152-.58-.228-1.344-.182-1.743-.684-.347-.423-.05-.993.178-1.335.32-.48.936-.531 1.568-.557a.793.793 0 01.615.281.64.64 0 00.142.191zm-3.3-.415l-.045-.015c.194-.228.48-.428.787-.537.125.082.228.157.325.25-.029.012-.057.023-.063.042-.565.38-1.004 1.091-.863 1.78.023.091.029.155.051.246.023.09.069.188.114.286.085.13.176.243.267.355-1.139-.365-1.274-1.49-.766-2.261.017.026.04.033.062.04.023.008.052-.004.097.01.16-.031.183-.19.035-.196zm2.53-13.34c1.184.214 2.13-.022 2.73-.682-.03 1.009-.31 2.02-.5 2.978-.223 1.154-.379 2.33-.528 3.488-.155 1.259-.408 2.508-.563 3.767-.023.242-.046.484-.063.707-.155.927-.213 1.864-.346 2.799-.33-.231-.808-.302-1.27-.263.006-.019-.006-.064 0-.083-.3-1.073-.18-2.385-.247-3.487-.084-1.212-.361-2.444-.497-3.651-.152-1.317-.43-2.632-.633-3.944A40.48 40.48 0 0123.4 8.62c-.04-.366-.142-.69-.238-1.032.438.702 1.315 1.108 2.38 1.305zm-5.346.154c1.072-.404 2.32-1.146 2.527-2.244l.011-.038c.012.046.023.09.04.117-.006.434.113.868.13 1.31.044.762.072 1.498.162 2.275.17 1.426.413 2.855.554 4.293.112 1.2.345 2.417.412 3.602.044.597-.008 1.266.02 1.919-.296-.51-.494-1.094-.813-1.612-.648-1.081-1.325-2.15-1.945-3.243-.67-1.172-1.245-2.333-2.081-3.453-.729-.982-1.394-2.006-1.923-3.07.963.455 1.92.513 2.906.144zm-8.918 5.448A11.752 11.752 0 0014.3 13.18c.833-.523 1.58-1.342 2.066-2.122.245-.399.468-.806.645-1.227.097-.239.097-.488.12-.73.756 1.968 2.161 3.687 3.1 5.63.55 1.153 1.273 2.237 1.881 3.368.37.68.802 1.317 1.092 2.013.12.267.29.53.46.792-.557-.304-1.184-.546-1.61-.787-1.356-.727-2.774-1.328-4.17-2.004-1.532-.72-3.035-1.453-4.573-2.154-.746-.344-1.412-.703-2.038-1.195a1.386 1.386 0 00-.274-.171c.069-.062.171-.07.28-.098zm-.922 3.466c.372-.9.492-1.63.516-2.62a1.043 1.043 0 00-.034-.301c.348.257.73.483 1.037.707 1.28.89 2.967 1.514 4.379 2.217a385.78 385.78 0 004.265 2.097c.98.48 2.216.94 3.172 1.58-.404.098-.712.29-.94.55a78.447 78.447 0 00-3.846-.342c-1.35-.08-2.678.013-4.034-.049-2.388-.122-4.747-.422-7.094-.345 1.027-1.083 2.002-2.08 2.58-3.494zm2.712 15.355c-1.85-1.487-3.125-3.393-4.114-5.332a14.758 14.758 0 01-1.193-3.167c-.204-.814-.545-1.755-.538-2.605l.154-.012c2.604-.183 5.248.168 7.892.268 1.384.05 2.718-.062 4.114-.05.82.014 2.37.346 3.208.054a1.784 1.784 0 00-.252.833c-.098.904.693 1.678 1.742 1.765a.233.233 0 00.165-.051 2.41 2.41 0 001.356.144s.023.008.028-.011c.713-.125 1.334-.528 1.512-1.115.137-.455.035-.945-.232-1.384.757.389 1.709.466 2.523.582 1.174.17 2.405.232 3.59.363 2.78.31 5.606.387 8.364.525.023.007.017.026.04.033.296.76.272 1.584.237 2.362a65.472 65.472 0 01-.203 3.156c-.203 2.159-1.316 4.025-3.192 5.272-1.694 1.14-4.134 2.019-6.265 2.456-2 .418-4.137.21-6.2.254-4.479-.316-9.303-1.554-12.736-4.34zm13.59 4.988l-.285.116c-.017-.026-.012-.045-.051-.079-.018-.026-.04-.033-.063-.04.148.006.273.004.399.003zm-5.1-.578c1.288.29 2.598.502 3.88.56.177.078.342.193.513.29l-.342.14c-.29.134-.587.289-.855.431-.023-.007-.04-.033-.063-.04-1.065-.364-2.056-.973-3.132-1.38zm2.11 4.688c.436 1.2.52 2.246.155 3.375-.492 1.546-2.054 2.416-3.821 2.722a.283.283 0 00-.177.005c-.108.028-.216.056-.296.072a8.006 8.006 0 01-1.83.015c-.045-.015-.073-.003-.102.008-.923-.171-1.806-.559-2.785-1.04-1.646-.757-2.38-2.384-2.588-3.76-.25-1.577.174-2.896 1.138-4.103.662-.868 1.996-1.562 3.359-1.769.877-.009 1.789.117 2.58.392 1.202.407 1.976 1.155 2.841 1.931-.872.323-1.772.657-2.508 1.106-.485.281-5.553 2.083-3.297 3.056.928.403 2.166-.634 2.822-.984 1.317-.72 2.81-1.28 4.23-1.842.022.256.182.557.278.816zm1.711-2.193c-2.36 1.112-4.982 1.85-7.217 3.127a8.76 8.76 0 01-1.283.606c-.33-.397-.33-.646.023-.74.206-.1.4-.246.588-.373.53-.349 1.208-.526 1.79-.797.667-.305 1.277-.67 1.984-.942.45-.167.878-.341 1.305-.516.12.018.257-.021.314-.128.713-.29 1.425-.581 2.098-.905.81-.364 1.83-.763 2.554-1.258.741.03 1.47.015 2.177-.008-.17.07-.342.14-.507.19-.53.184-1.05.412-1.54.629-.022-.008-.04-.034-.062-.041-.063-.041-.125 0-.069.06.023.008.017.027.04.034a41.66 41.66 0 01-2.195 1.062zm3.116.689c-.364-.117-.695-.265-1.053-.4-.177-.078-.747-.178-1.054-.319a31.412 31.412 0 011.545-.73c.478.32 1.162.54 1.646.758 1.07.51 2.09 1.024 3.2 1.485a124.51 124.51 0 013.611 1.616c.131.063.268.107.41.132l.484.218c.496.18.393.438-.37.733-.303-.076-.565-.202-.838-.29-1.72-.677-3.355-1.472-5.035-2.199-.843-.353-1.68-.726-2.546-1.004zm12.118 6.718a.284.284 0 00-.176.005c-.924.41-1.603 1.003-2.76 1.026-1.002.01-2.136-.208-3.11-.542-1.378-.484-2.146-1.583-2.63-2.714-.357-.884-.288-1.776-.11-2.613 1.264.614 2.545 1.254 3.895 1.667.655.314 1.754.812 2.302.323.684-.611.081-1.18-.693-1.594-1.515-.777-3.247-1.417-4.847-2.076a.256.256 0 01-.108-.056c.725-1.16 1.95-2.158 3.501-2.408 1.733-.275 3.202.488 4.471 1.581 1.293 1.101 1.97 2.42 1.973 3.897.01 1.54-.704 2.496-1.708 3.503z" fill="#75BB43"/><path d="M11.347 16.393c.012-.457.128-.922-.039-1.373-.017-.027-.069-.022-.052.004.167.451.051.917.04 1.373-.03.598-.083 1.189-.009 1.777.012.046.11.056.098.01-.068-.607-.039-1.205-.038-1.791zm.775 1.894c-.015-1.112.106-2.264-.53-3.324-.051-.08-.166-.032-.114.047.636 1.06.428 2.163.495 3.27 0 .084.15.09.15.007zm.569-1.449c-.01-.297-.016-1.113-.544-1.199-.098-.01-.08.1.011.13.672.11.365 2.457.296 2.852-.03.096.155.154.16.052.127-.586.117-1.217.077-1.835zm.665.479c-.034-.387-.039-.786-.309-1.144-.017-.027-.04-.034-.069-.022l-.143.058c-.058.024-.006.103.051.08.288-.118.32 1.022.32 1.189a8.97 8.97 0 01-.087 1.372c.005.065.12.102.143.025.127-.502.11-1.03.094-1.558zm.439 1.494c-.04-.787.192-1.55-.072-2.346-.029-.072-.162-.052-.133.02.264.796-.03 1.518.038 2.294.011.129.184.142.167.032zm.57-2.041c-.052-.079-.173-.013-.116.047.525.775.062 1.8-.043 2.562 0 .084.132.147.161.052.157-.767.522-1.886-.002-2.66zm.757.341c-.052-.079-.173-.013-.144.059.437.726.026 1.662-.015 2.382 0 .084.167.116.19.04.122-.736.43-1.747-.031-2.48zm.662.333c-.005-.065-.15-.09-.15-.006.103.829-.025 1.584-.113 2.373 0 .083.145.109.168.032a7.926 7.926 0 00.095-2.4zm.759.34c-.006-.064-.15-.09-.15-.006a5.72 5.72 0 01-.165 2.127c-.03.096.133.147.162.052.255-.673.233-1.435.153-2.173zm.667 2.702c-.134-.315 0-.67.047-.99.052-.34.081-.687.065-1.048 0-.084-.15-.09-.15-.006.01.464-.054.926-.141 1.38-.047.236-.117.465.01.715.052.08.214.048.168-.051zm.794-1.932c-.029-.072-.14-.044-.133.02.126.67-.037 1.289-.223 1.9-.03.096.156.155.185.06.221-.643.344-1.296.17-1.98zm.648.286c-.023-.09-.162-.05-.133.021.063.293.11.558.097.848-.011.122-.006.856-.22.893-.081.016-.07.145.028.155.053-.004.076.003.128-.001.052-.004.08-.016.092-.054.15-.58.192-1.216.008-1.861zm.745.464c0-.084-.173-.097-.173-.013.04.62.05 1.252-.194 1.803-.029.096.15.174.209.067.226-.578.221-1.229.158-1.857zm.573 1.706c-.145-.108.168-.637.209-.771.052-.172.064-.378-.063-.544-.058-.06-.18.006-.128.085.278.34-.221.894-.268 1.214-.006.02.029.072.052.08l.087.048c.093.03.168-.051.11-.111zm.466.167c-.185-.478.152-.916.28-1.337.023-.076-.139-.128-.162-.051-.146.394-.575.97-.286 1.44.052.079.191.039.168-.052zm.929-1.052c.006-.103-.17-.116-.175-.013-.03.515-.194.967-.34 1.446-.029.095.157.154.187.059.17-.471.321-.969.328-1.492zm.561 1.453c-.063-.125.035-.281.07-.395a.421.421 0 00-.023-.34c-.029-.072-.183-.06-.132.02.103.24-.08.432-.075.663.006.231.32.27.366.45.01.046.108.057.12.019.04-.217-.235-.221-.326-.417zM17.625 9.489c-.018-.027-.035-.053-.064-.041.012-.039.023-.077.052-.089.082-.183.158-.348.117-.55 0-.084-.15-.09-.15-.006.045.434-.345 1.045-.49 1.439-.205.585-.41 1.17-.62 1.775-.028.096.134.148.164.052.227-.578.408-1.17.618-1.775.076-.25.169-.471.268-.712.225 1.1-.102 2.338-.667 3.27-.046.07.082.152.128.083.63-.975.91-2.313.644-3.446zm.723.435c-.006-.064-.152-.09-.123-.017.209 1.326-.395 2.458-.758 3.645-.03.096.134.148.163.052.387-1.18.956-2.365.718-3.68zm.55 1.032c.018-.058-.1-.095-.117-.037-.22 1.13-.574 2.196-.91 3.288-.03.096.134.148.164.052.337-1.093.668-2.166.863-3.303zm.021 2.258c.128-.42.24-.868.048-1.328-.029-.072-.163-.051-.134.02.226.513-.007 1.027-.153 1.505-.158.516-.147 1.065-.304 1.582-.03.095.14.128.162.051.251-.57.223-1.23.38-1.83zm.731.502c.07-.314.17-.64.042-.974-.023-.091-.186-.059-.157.013.157.407-.06.863-.148 1.235-.117.466-.281.918-.422 1.378-.035.115.175.181.21.066.17-.555.37-1.122.475-1.718zm-.082 2.366c.03-.683.223-1.315.37-1.96.07-.315.239-.618.111-.952-.046-.099-.21-.066-.163.032.157.407-.159 1.02-.27 1.384-.123.486-.269.964-.246 1.475.017.11.192.124.198.021zm.794-2.266c-.023-.091-.174-.097-.174-.014.11.979-.165 1.878-.37 2.799-.034.114.175.18.21.066.21-.94.444-1.873.334-2.851zm.465 1.3c.006-.103-.169-.116-.175-.013-.059.695-.24 1.372-.375 2.063-.029.096.157.155.186.06.159-.685.322-1.388.364-2.11zm.554.594c.006-.103-.192-.124-.175-.013.046.77-.41 1.423-.41 2.178-.006.104.169.117.175.014.076-.752.456-1.409.41-2.179zm.001 2.834c-.045-.77.381-1.412.411-2.18 0-.083-.169-.116-.175-.013-.053.76-.561 1.418-.416 2.198.023.092.18.079.18-.005zm.907-1.374c.023-.077-.14-.129-.164-.052-.19.613-.395 1.2-.56 1.82-.03.096.134.148.164.052.212-.606.371-1.207.56-1.82zm.163 2.76c-.005-.483.088-.956.06-1.446-.018-.11-.214-.131-.197-.021.052.498-.064.963-.059 1.446-.012.122.207.15.196.021zm.357-12.802c.017-.058-.122-.102-.116-.037-.192.882-.807 1.566-1.33 2.28-.046.069.088.132.128.082.551-.725 1.149-1.436 1.318-2.325zm.501.37c.018-.057-.098-.094-.116-.036-.267 1.13-1.032 1.975-1.785 2.867-.046.069.08.151.127.082.817-.85 1.535-1.794 1.774-2.913zm.042.644c-.407 1.17-1.179 2.12-1.875 3.155-.047.07.08.152.15.09.755-.975 1.463-2.05 1.84-3.208.047-.069-.092-.113-.115-.037zm.266 1.138c.017-.057-.115-.12-.115-.037-.203.836-.84 1.93-1.637 2.472-.034-.053-.127-.083-.15-.006l-.046.152c-.018.058.057.144.144.11.456-.253.757-.66 1.029-1.054.335-.521.647-1.05.775-1.637z" fill="#75BB43"/><path d="M23.527 9.941c-.029-.072-.145-.025-.116.047.232.41-.28.918-.5 1.225-.134.188-.228.41-.338.606-.169.303-.291.788-.558.997-.07.061.052.163.116.12.278-.162.314-.445.447-.717.163-.367.35-.728.582-1.073.227-.327.599-.795.367-1.205zm.225.954c.023-.076-.116-.12-.14-.044-.157.935-.652 1.89-1.326 2.598-.07.062.075.17.144.11.698-.702 1.164-1.728 1.322-2.664zm.122 1.197c.023-.076-.116-.12-.14-.044-.139.459-.325.902-.62 1.29-.255.338-.568.615-.737 1.002-.046.069.133.147.18.078.203-.417.556-.745.823-1.12.238-.365.366-.786.494-1.206zm.131.67c-.21.688-.524 1.636-1.15 2.107-.094.055.045.183.115.121.29-.201.453-.485.598-.795.215-.456.43-.911.576-1.39.023-.075-.116-.12-.14-.043z" fill="#75BB43"/><path d="M24.395 13.183c0-.083-.144-.109-.173-.013-.07.564-.354.997-.626 1.476-.22.39-.435.762-.863 1.003-.093.054-.012.206.104.159.474-.226.706-.655.932-1.065.278-.498.574-.969.626-1.56zm-.337 1.385c-.134.44-.332.838-.558 1.248-.134.272-.285.6-.563.764-.064.042.029.156.092.113.302-.155.436-.427.57-.7a7.92 7.92 0 00.598-1.38c.023-.077-.116-.122-.14-.045zm.498.47c.023-.077-.14-.128-.163-.052-.17.723-.635 1.33-.96 1.981-.012.039.022.091.069.106l.07.022c.07.023.145-.058.08-.1-.08-.067.496-.954.554-1.061.163-.284.28-.583.35-.896zm-.811 3.655c.159-.517.247-1.056.405-1.573.024-.077-.116-.121-.14-.044-.123.402-.264.777-.334 1.175-.047.321-.106.764-.44.932-.093.054-.012.206.105.16.252-.152.328-.401.404-.65zm4.809-11.027c-.327.917-1.392 1.618-2.36 1.996-.086.035 0 .166.086.131 1.013-.363 2.084-1.166 2.394-2.109.04-.05-.097-.094-.12-.018zm.156.686c-.143.475-.79.789-1.201 1.073-.567.381-1.036.856-1.62 1.21-.091.054.029.155.12.101.635-.359 1.116-.871 1.711-1.264.412-.284.985-.601 1.128-1.076.023-.076-.114-.12-.137-.044zM28.506 9.4c-.75.655-1.607 1.171-2.34 1.853-.074.08.063.208.137.127.704-.67 1.568-1.205 2.295-1.868.068-.061-.029-.155-.092-.113zm-.192.61c-.432 1.011-1.425 1.633-2.23 2.378-.069.061.046.181.138.127.856-.749 1.838-1.416 2.253-2.453 0-.083-.138-.127-.16-.051zm-.299.956c-.312.946-1.217 1.682-1.891 2.407-.075.08.098.178.173.097.68-.745 1.567-1.506 1.856-2.46-.005-.064-.12-.101-.138-.044zm-.203.968c-.11.195-1.58 2.297-1.684 2.222-.08-.068-.167.051-.11.111.018.027.058.06.075.087.058.06.116.037.156-.013.651-.733 1.17-1.529 1.695-2.344.063-.042-.086-.132-.132-.063zm.238.896c-.052-.079-.173-.013-.144.059.2.336-.375.82-.548 1.058-.34.456-.634.927-1.181 1.233-.086.035.023.174.11.139.65-.315.932-.914 1.341-1.432.242-.299.657-.668.422-1.057zm-.06 1.077c.023-.076-.138-.127-.161-.051-.122.484-.427.909-.79 1.274l-.553.575c-.103.093-.167.219-.3.323-.005-.065-.149-.09-.172-.014l-.046.153c-.023.076.063.124.144.108.414-.118.662-.603.921-.876.438-.445.83-.905.957-1.492zm-.412 1.236c.018-.057-.097-.094-.114-.036-.11.445-.64 1.697-1.348 1.7-.075-.002-.104.093-.012.123.328.084.564-.196.742-.37.375-.402.623-.887.732-1.417z" fill="#75BB43"/><path d="M27.485 15.914c-.023-.091-.184-.059-.156.013.086.3-.311.611-.479.83-.276.33-.576.652-.859 1.001-.052.088.08.151.15.09.369-.384.669-.79 1.015-1.182.167-.218.409-.434.329-.752zm-1.243 2.312c.319-.464.834-.74.933-1.316.024-.077-.115-.12-.139-.044-.15.58-.707.906-1.031 1.389-.012.038-.024.076.023.091.306.244.225.512.19.794 0 .084.167.116.168.033.023-.16.075-.332.052-.507-.046-.099-.242-.371-.196-.44zm.11 1.788c.006-.103-.18-.162-.185-.059-.053.256-.041.553-.094.808-.023.077.116.121.139.045.104-.26.082-.519.14-.794zm-1.349 4.753c-.399.08-.747.155-1.19-.03-.376-.161-.615-.612-.768-.931-.148-.339-.142-.69-.096-1.008.023-.075.405-1.012.514-.873.073.086.216.027.142-.059-.04-.033-.051-.078-.091-.112-.017-.026-.057-.06-.085-.048-.382.106-.457.435-.577.75-.182.44-.177.92-.018 1.386.13.395.454.81.853 1.063.421.26.928.153 1.355.062.114-.047.069-.228-.04-.2z" fill="#75BB43"/><path d="M25.126 22.149c.087-.035 0-.167-.086-.132-.473.142-.98.482-1.137.913-.017.057.046.098.121.101-.052.088-.12.15-.15.245-.011.038-.011.122.063.125l-.017.057c-.017.058.075.087.092.03l.03-.096c.132-.02.397-.06.368.035-.081.267-.33.501-.497.72-.052.088.098.178.173.097.243-.3.514-.61.532-1.002.005-.02-.012-.046-.052-.08-.15-.09-.294-.03-.432.009.196-.314.536-.52.854-.732.063-.042-.035-.136-.093-.113-.207.101-.403.248-.6.394.076-.08.15-.16.243-.215.029-.012.017-.057-.006-.065.162-.115.37-.216.594-.291zm-15.402-.6c-.726.329-1.27.884-1.825 1.393-.068.061.052.162.12.101.555-.51 1.07-1.052 1.779-1.408.057-.023-.011-.129-.074-.086zm.219.324c-.19.461-.702.736-1.064 1.1-.466.458-.806.997-1.254 1.48-.075.08.097.177.172.097.483-.514.846-1.13 1.375-1.629.345-.307.753-.573.909-1.004.046-.069-.092-.113-.138-.044zm.724.524c-.432.51-.927.979-1.388 1.5-.5.572-.938 1.184-1.4 1.79-.074.08.098.177.173.096.42-.555.818-1.118 1.261-1.666.455-.586 1.008-1.078 1.486-1.657.04-.05-.092-.113-.132-.063zm.726.118c-1.128 1.21-1.961 2.62-2.772 4.037-.052.088.098.178.15.09.834-1.41 1.638-2.807 2.726-4.052.017-.057-.07-.106-.104-.075zm1.309-.321c-.319.547-.69 1.1-1.008 1.647l.052-.172c.018-.057-.098-.094-.116-.037-.186.779-.828 1.391-1.28 2.043-.498.721-.956 1.476-1.43 2.204-.053.088.098.178.15.09.475-.728.932-1.483 1.407-2.212.272-.395.591-.775.863-1.17l-.029.096c-.023.076.116.12.139.044.365-.868.91-1.658 1.362-2.477.034-.031-.07-.106-.11-.056zm-1.295 3.265c-.436.595-.762 1.247-1.134 1.883-.366.617-.704 1.223-.93 1.885-.036.115.173.181.208.066.268-.711.617-1.355.995-2.01.332-.588.617-1.189 1.012-1.734.046-.07-.081-.152-.15-.09zm1.136-.404c-.058-.06-.169-.033-.117.047.175.265-.315.865-.432 1.08-.234.514-.485 1-.765 1.5-.42.79-.865 1.573-1.145 2.407-.03.096.157.155.186.06.42-1.043.958-2.048 1.466-3.04.24-.45.433-.913.643-1.35.128-.254.362-.431.164-.704zm.128 1.653c.024-.077-.117-.121-.14-.045-.201.736-.537 1.408-.85 2.087-.335.757-.553 1.55-.819 2.328-.035.115.176.182.211.067.225-.729.425-1.464.69-2.159.313-.763.69-1.485.908-2.278zm.347 1.162c-.559 1.399-1.164 2.784-1.699 4.191-.03.096.158.155.188.06.605-1.386 1.117-2.8 1.652-4.207.023-.077-.118-.121-.141-.045zm-.496 4.97c-.01-.803.38-1.48.651-2.193.26-.76.474-1.534.704-2.282.024-.076-.117-.12-.141-.044a45.256 45.256 0 01-.81 2.458c-.26.676-.609 1.302-.61 2.06-.006.102.218.13.206.001zm.988.707c-.117-.289.107-.68.183-.93l.325-1.054c.2-.652.4-1.303.46-2-.005-.064-.129-.082-.123-.017-.083.857-.384 1.666-.661 2.483-.112.364-.195.8-.401 1.135-.07.146-.012.29.076.423.03.072.164.052.14-.04zm1.299-1.359c.194-.717.242-1.458.502-2.133.023-.077-.118-.121-.141-.044-.248.636-.301 1.313-.496 1.945-.195.717-.407 1.406-.554 2.138-.03.096.181.162.21.066.125-.654.302-1.313.479-1.972zm.452 2.556c-.057-1.32.821-2.429.741-3.756.006-.104-.192-.125-.175-.014.017.698-.165 1.376-.406 1.993-.2.567-.445 1.12-.382 1.748.018.111.24.14.222.029zm.952.506c-.034-1.312.58-2.482.623-3.792-.006-.065-.128-.082-.122-.018-.043 1.31-.704 2.465-.67 3.778-.035.115.163.135.169.032zm.865.692c-.035-.557.2-1.07.334-1.595.118-.55.235-1.102.283-1.675 0-.084-.152-.09-.176-.013-.07.65-.194 1.303-.387 1.935-.135.44-.31.847-.23 1.334.024.092.193.124.176.014zm1.623-1.615c.118-.467.148-.983.29-1.443.029-.096-.135-.148-.165-.052-.165.453-.195.969-.313 1.436-.135.525-.347 1.046-.483 1.571-.03.096.159.155.188.06.159-.518.348-1.047.483-1.572zm.715.456c.123-.402.199-.818.1-1.248-.023-.091-.185-.059-.156.013.138.548-.072 1.069-.218 1.547-.14.459-.216.959-.187 1.45 0 .084.145.11.174.014.053-.592.13-1.176.287-1.776zm.642 1.857c-.163-.472.24-1.121.376-1.562.105-.344.24-.7.176-1.078-.023-.091-.175-.097-.175-.013.058.48-.165.956-.3 1.396-.123.402-.462.84-.24 1.289.023.09.204.085.163-.033zm.812.168c.047-.74.268-1.467.292-2.214 0-.084-.174-.098-.174-.014-.024.748-.292 1.46-.293 2.214-.006.103.168.117.174.014zm1.005.165c-.151-.173.006-.522.035-.701.128-.421.17-.89.234-1.352.03-.096-.156-.155-.162-.052-.105.512-.181 1.012-.31 1.517-.052.172-.163.535.075.673.127.083.186-.024.128-.085zm.962-.079c-.017-.697.158-1.354.211-2.03.006-.102-.168-.116-.174-.013-.076.668-.25 1.325-.257 2.015.011.13.214.13.22.028zm.9-1.059c.024-.077-.116-.12-.14-.044-.176.574-.282 1.17-.388 1.768-.017.057.1.094.117.037.106-.597.235-1.186.411-1.76zm.77-.831c-.018-.11-.215-.131-.198-.021.034.808-.263 1.531-.299 2.317 0 .084.169.116.169.032.134-.775.368-1.54.328-2.328zm.74 1.3c.018-.392.1-.743-.114-1.125-.052-.08-.167-.033-.115.047.207.4.074.84.056 1.232-.024.411-.024.83-.07 1.233-.001.084.143.11.166.033.041-.468.06-.944.077-1.42zm.832 1.178c-.097-.68-.056-1.316-.026-1.996.005-.103-.167-.117-.173-.014-.047.655-.158 1.352.043 2.023.03.072.179.078.156-.013zm.921.287c-.114-.707.02-1.397.003-2.093.006-.103-.167-.116-.173-.013.01.715-.146 1.397-.008 2.111 0 .084.178.078.178-.005zm1.13-.069c0-.336.04-.637.064-.965.035-.365-.01-.715.024-1.08.006-.104-.156-.155-.185-.06-.046.32-.018.644-.041.971-.012.373-.094.724-.082 1.105.017.11.213.131.22.028zm.732.017c-.016-.697.06-1.364.118-2.057.006-.103-.19-.124-.196-.02-.053.673-.187 1.364-.118 2.056-.006.103.19.124.196.02zm.848.053c-.085-.803.077-1.588.09-2.38.006-.103-.19-.124-.197-.021-.012.792-.198 1.57-.09 2.38-.005.103.214.13.197.02zm.944-.358c-.149-.34.572-1.636-.199-1.757-.097-.01-.08.1.018.11.477.09-.111 1.365.026 1.66.017.11.201.086.155-.013zm.906-.139c-.207-.652.4-1.233.043-1.892-.046-.098-.22-.028-.145.059.335.651-.394 1.214-.06 1.865.047.099.185.06.162-.032zm.917-.262c-.121-.1.15-.747.174-.907a.916.916 0 00-.15-.759c-.074-.087-.218-.028-.143.059.362.471-.06 1.111-.123 1.572-.012.038.028.072.074.087.023.007.07.022.087.048.063.041.144-.058.08-.1zm.763-.078c-.173-.18.018-.643.053-.841.058-.274.087-.537-.057-.813-.052-.08-.167-.033-.115.046.172.348.022.76-.077 1.085-.057.191-.133.44.069.608.075.087.202.002.127-.085zm.608-.231c.093-.473.308-.93.286-1.44 0-.083-.174-.097-.174-.013.017.53-.222.978-.327 1.49-.017.057.04.117.122.101l.104-.009c.105-.008.087-.119-.011-.129zm1.274-1.764c.006-.103-.168-.116-.197-.02-.076.5-.175.992-.205 1.507-.006.103.168.116.191.04.122-.486.135-1.027.21-1.527zm.631 1.115c-.254-.584.622-1.039.217-1.63-.07-.105-.244-.035-.174.071.37.537-.587 1.008-.234 1.603.075.087.237.055.191-.044zm1.56-2.621c.011-.122-.197-.188-.208-.066-.03.18-.03.347-.059.526-.046-.015-.098-.01-.115.047-.076.248-.522.965.01 1.134l.023.008-.012.038c-.005.103.185.142.191.04.122-.569.094-1.143.17-1.727zm-.273.814l-.047.655c-.167-.116-.051-.414.047-.655zm1.088-.166c-.046-.014-.063.044-.018.059.029-.012.04-.051.018-.059zm2.039-.536a5.542 5.542 0 00-.77.48c-.097.073.04.2.137.127.25-.169.496-.318.77-.48.09-.054-.046-.18-.137-.127zm1.279-.955c-.12.15-.19.294-.264.458-.03.096.131.147.183.06.07-.146.139-.29.253-.421.052-.088-.12-.185-.172-.097zm-17.238-5.444c-.097.239-.274.494-.507.605-.177.09-.382-.06-.33-.23.04-.133.176-.255.319-.313.057-.023.006-.102-.051-.079-.308.11-.627.588-.132.768.404.15.74-.468.838-.707.017-.057-.097-.094-.137-.044zm2.204-.438c-.046-.015-.085-.048-.13-.063-.108-.055-.159.114-.046.15.045.015.09.03.142.025.067.022.096-.072.034-.112zm4.151-1.552l-.035.114c.228.073.263-.04.035-.114zm2.033 1.627c0-.083-.143-.108-.143-.025-.035.198-.115.297-.338.371-.086.035-.018.14.085.132.23-.093.395-.228.396-.478zm-.351-.702a.365.365 0 00-.14-.024c-.074-.003-.103.091-.035.113.045.014.09.029.13.062.113.036.158-.114.045-.15zm1.573 12.53c.064-.043.018-.142-.069-.106-.496.218-.854.731-1.166 1.092-.028.012-.04.05-.052.088-.023-.008-.028.012-.034.03l-.017.058c-.162.2-.33.418-.45.651-.145.226-.082.435-.134.69-.04.133.19.207.23.074l.052.079c.058.06.127-.001.115-.047a.962.962 0 01.064-.628c.075-.165.105-.343.163-.534.046-.07.092-.138.132-.188.312-.444.682-.996 1.166-1.26zm-2.495 3.798c.029-.096-.156-.154-.184-.06a1.79 1.79 0 00-.065.629c.017.11.19.123.196.02.012-.205-.005-.399.053-.59zm-19.149 2.174c.006-.355.106-.68.182-1.013.077-.417.13-.841.207-1.258.076-.417.182-.846.282-1.255.07-.23.123-.486.17-.723.047-.238-.017-.447.024-.665-.011.038.059.06.07.022l.024-.076c.012-.039-.082-.068-.094-.03-.146.395-.205.838-.305 1.248-.118.467-.264.945-.358 1.42-.089.455-.16.937-.271 1.384-.088.372-.2.735-.189 1.117-.005.103.14.128.21.067.042-.05.077-.081.118-.131.088-.036.012-.123-.07-.107z" fill="#75BB43"/><path d="M12.601 45.703c-.063-1.134.167-2.133.472-3.212.318-1.203.512-2.423.824-3.606.024-.076-.117-.12-.14-.044-.447 1.203-.595 2.522-.941 3.736-.27.965-.687 2.073-.396 3.132 0 .083.181.078.181-.006zm.436.176c-.03-.24.1-.578.135-.777.188-1.116.494-2.196.706-3.306.112-.531.194-1.051.306-1.583.118-.551.142-1.132.33-1.66.029-.096-.135-.148-.164-.052-.17.471-.2.987-.294 1.461-.13.59-.236 1.186-.36 1.756-.235 1.102-.54 2.182-.729 3.298-.053.257-.293.874-.03 1.104.058.06.17.033.21-.017l.036-.115a.3.3 0 00-.146-.11zm.418.573c.012-.123.024-.245.007-.355.064.04.175.013.146-.06-.087-.552.16-1.104.27-1.636.177-.743.33-1.492.477-2.223.16-.77.289-1.526.448-2.295.094-.475.346-1.13.142-1.636-.047-.099-.21-.066-.164.032.134.316.023.68-.042.974-.065.379-.159.77-.23 1.167-.152.75-.305 1.5-.464 2.269-.165.704-.306 1.416-.5 2.132l-.135.44-.006.02c-.111.279-.106.596-.124.905-.018.394-.053.76-.118 1.14-.018.057.122.101.146.024a8.51 8.51 0 00.147-.898zm.574.955c.006-.523.124-.99.177-1.499l.03-.012c.005-.019.035-.03.04-.05.012-.038.018-.057 0-.084.19-1.2.454-2.398.69-3.585.288-1.358.477-2.727.789-4.078.03-.096-.134-.147-.164-.052-.335 1.344-.547 2.705-.836 4.064a52.18 52.18 0 00-.377 1.898l-.176.826c-.024-.091-.176-.097-.176-.013.041.202.052.415.046.602-.017.142-.03.264-.024.413-.005.02.018.027.012.046-.024.16-.047.321-.077.5-.082.353-.182.678-.112 1.037 0 .084.158.07.158-.013z" fill="#75BB43"/><path d="M14.743 45.909c.024-.16.06-.36.065-.547.07.022.13-.001.13-.085-.011-1.139.436-2.174.69-3.25.282-1.172.565-2.343.725-3.533 0-.084-.147-.11-.17-.033a39.025 39.025 0 01-.802 3.698c-.224.812-.541 1.595-.642 2.425-.047-.1-.235-.075-.188.024.158.323-.007.776-.03 1.104-.06.612-.12 1.224-.249 1.813-.03.096.176.182.211.067a9.413 9.413 0 00.26-1.683zm.281 2.334c-.058-.733.242-1.374.377-2.066.118-.636.213-1.278.208-1.931.07.022.164-.032.135-.105-.082-.404.112-.784.224-1.148.153-.498.241-1.037.371-1.543.247-1.056.372-2.13.69-3.165.029-.096-.135-.148-.164-.052-.383 1.077-.507 2.236-.796 3.342-.13.506-.241 1.038-.4 1.555-.083.268-.188.529-.171.808l-.023-.008c-.112-.056-.176.07-.089.12.176.097-.024 1.084-.06 1.2-.053.34-.106.68-.183 1.013-.123.655-.464 1.262-.371 1.963.04.118.263.147.252.017zm1.742-5.933c.1-.494.224-.98.348-1.467.236-1.018.425-2.052.731-3.048.03-.096-.158-.155-.188-.06-.583 1.814-.86 3.723-1.35 5.565-.036.115.176.182.234.074.153-.33.166-.704.225-1.064zm.642.112c-.146-.193.006-.523.041-.722.13-.42.182-.845.264-1.28.176-.827.428-1.65.534-2.498.006-.019-.029-.072-.052-.08-.024-.007-.064-.04-.088-.048-.11-.056-.204.082-.093.138.175.098-.27 1.384-.317 1.537-.135.525-.27 1.049-.38 1.58-.071.314-.492 1.188-.067 1.47.105.075.21-.018.158-.097zm.71-.156c-.034-.725.188-1.368.346-2.053.082-.352.14-.71.223-1.063.053-.256.163-.367.006-.606-.07-.106-.22-.028-.175.07.128.25-.134.776-.181 1.013l-.229.998c-.14.543-.304 1.08-.223 1.65 0 .084.221.113.233-.01zm1.066-2.293c.188-.613.2-1.24.412-1.845.035-.115-.158-.155-.21-.067-.235.599-.277 1.237-.436 1.838-.135.524-.37 1.038-.365 1.607-.006.103.188.143.217.047.112-.531.224-1.063.382-1.58zm.606-.378c.089-.371.405-.817.19-1.2-.047-.1-.223-.03-.176.07.117.205-.089.539-.153.75-.07.23-.112.448-.16.685a19.741 19.741 0 01-.428 1.65c-.036.115.175.181.21.067.23-.663.365-1.356.518-2.022zm.044 1.713c-.099-.346.053-.676.176-.994.17-.387.246-.804.37-1.206.023-.077-.14-.128-.164-.052-.147.479-.293.957-.51 1.414-.105.26-.234.598-.065.882.076.087.216.047.193-.044zm1.063-1.955c.012-.039-.029-.072-.075-.087l-.093-.03c-.116-.037-.157.097-.041.134.07.022-.397 1.385-.397 1.469-.024.076.139.128.162.051.117-.298.187-.612.298-.891.064-.21.175-.406.146-.646z" fill="#75BB43"/><path d="M15.62 48.078c.001-.587.141-1.13.235-1.687.105-.596.088-1.21.124-1.827.006-.103-.191-.124-.197-.02-.042.636-.066 1.3-.177 1.914-.093.558-.286 1.105-.21 1.694 0 .084.179.163.208.067l.023-.077c.03-.011.012-.038-.005-.064zm.54.566c-.105-.075.128-.924.163-1.038l.187-1.116c.082-.603-.033-1.311.194-1.889.03-.096-.133-.147-.185-.06-.268.545-.159 1.272-.24 1.875-.107.764-.282 1.506-.381 2.25-.012.038.046.099.092.113l.093.03c.122.018.157-.097.076-.165zm.85-.114c-.092-.28-.016-.53.06-.778.087-.371.181-.761.245-1.14.17-.806.148-1.652.265-2.454.006-.103-.18-.162-.186-.06-.181.93-.194 1.89-.405 2.83-.1.41-.501 1.226-.176 1.665.052.08.22.029.198-.063zm.459-.215c-.023-.26.076-.5.123-.738.1-.409.17-.806.246-1.223.164-.871.206-1.76.353-2.658.006-.103-.18-.163-.186-.06-.2.987-.253 1.998-.453 2.984-.105.513-.496 1.29-.258 1.85.03.071.145.108.192.04.006-.02.041-.05.047-.07a.1.1 0 00-.064-.125zm.573-.281l.323-1.557c.171-.975.237-2.026.53-2.983.03-.096-.134-.148-.187-.06-.358.917-.406 1.994-.576 2.97-.189.948-.336 1.93-.565 2.845-.035.115.152.174.21.067.17-.388.16-.853.265-1.282zm1.152-2.247c.2-.903.301-1.816.548-2.705.023-.077-.117-.12-.164-.052-.34.86-.394 1.788-.618 2.683-.2.82-.505 1.647-.489 2.514-.006.103.21.15.217.047.159-.853.33-1.66.506-2.487zm.669-.085c.217-.961.488-1.926.489-2.934 0-.084-.17-.117-.17-.033-.012.039-.017.058-.03.096-.005.02-.011.038.012.046-.049 2.001-.946 3.84-1.165 5.808-.006.103.187.143.193.04a63.29 63.29 0 01.67-3.023zm-.183 2.796c.16-1.19.484-2.327.784-3.472.259-1.01.231-2.091.584-3.073.023-.076-.094-.113-.14-.044-.212.438-.26.927-.33 1.409-.066.63-.219 1.213-.378 1.814-.318 1.118-.747 2.265-.777 3.453 0 .084.163.135.21.066.006-.019.036-.03.047-.07.03-.01.041-.05 0-.083zm1.31-3.33c.289-1.191.601-2.375.767-3.584.006-.019-.012-.046-.059-.06-.053.004-.088.035-.14.04-.03.011-.024.076.011.045.082-.016-.065.631-.053.677l-.213.942c-.142.628-.33 1.24-.495 1.861-.313 1.184-.549 2.37-.855 3.535-.024.077.117.121.164.052.465-1.094.59-2.337.873-3.508zm-.247 3.536c-.182-.33.095-.895.166-1.209.065-.21.1-.41.165-.62.047.014.1.01.118-.048.642-1.332.89-2.81 1.18-4.253.018-.058-.046-.1-.117-.121l.065-.211c.03-.096-.14-.129-.164-.052-.224.644-.337 1.345-.543 2.016-.178.658-.408 1.322-.608 1.974-.177.575-.33 1.157-.502 1.713-.089.287-.189.613.005.905.111.14.323.039.235-.094zm1.297-2.056c.141-.544.33-1.073.466-1.598.325-1.138.597-2.272.775-3.436.006-.103-.159-.155-.188-.059a27.984 27.984 0 01-.822 3.42c-.165.538-.354 1.067-.49 1.592-.16.517-.201 1.072-.337 1.597-.03.096.159.155.188.059.23-.495.272-1.05.408-1.575zm2.194-3.194c.006-.103-.214-.131-.197-.02-.018.728-.287 1.523-.677 2.218.24-.785.426-1.564.55-2.385 0-.084-.134-.147-.163-.052-.152.665-.263 1.364-.439 2.021-.116.383-.25.739-.384 1.095-.035.03-.047.069-.082.1l.333-1.593c.117-.55.24-1.12.334-1.678.07-.397.215-.791.036-1.205-.029-.072-.163-.051-.134.02.191.46-.042 1.057-.13 1.512-.099.493-.221.978-.32 1.471-.217.96-.485 1.923-.748 2.867-.035.115.174.181.232.074.088-.203.152-.413.21-.605l-.023.077c-.03.096.133.147.186.059.122-.318.221-.643.344-.96.279-.331.471-.71.646-1.117.163-.619.408-1.254.426-1.899zM21.1 39.646c.029-.096-.156-.154-.185-.06-.104.26-.116.55-.122.82-.006.103.19.124.196.021.03-.263.035-.533.11-.781zm.651 1.104c-.051-.246-.08-.484-.188-.706-.045-.098-.217-.028-.171.07.09.195.12.434.159.634.011.129.211.13.2.002zm9.809 3.37c.052-.424.129-.84.205-1.257.023-.076-.117-.12-.14-.044-.053.34-.129.673-.205 1.005-.082.352-.07.733-.176 1.078-.024.076.116.12.14.044.128-.253.134-.524.175-.826zm.719-1.328c0-.084-.152-.09-.153-.006-.06.947-.352 1.82-.605 2.728-.03.096.158.155.187.06.3-.893.558-1.82.57-2.782zm.382.351c.03-.095-.134-.147-.163-.051-.335 1.007-.488 2.093-.706 3.138-.03.095.134.147.187.059.405-.986.371-2.13.682-3.146zm-.195 3.318c-.128-.082.182-.761.24-.869.153-.413.212-.857.27-1.3.042-.302.322-.633.09-.959-.053-.08-.199-.02-.147.06.14.211-.03.515-.088.706-.094.222-.1.493-.147.73-.123.57-.41 1.088-.486 1.673-.012.038.052.08.093.114l.094.03c.128-.002.163-.117.081-.185zm1.119-1.895c.07-.314.305-.744.048-1.077-.053-.08-.199-.021-.146.059.227.345-.154 1.17-.253 1.495-.177.658-.435 1.333-.494 2.028-.006.104.164.136.193.04.252-.823.464-1.68.652-2.545zm.411.82c.136-.608.412-1.173.384-1.833 0-.084-.176-.098-.176-.014.017.699-.3 1.313-.454 1.98-.154.666-.36 1.336-.536 1.995-.036.115.199.19.234.074.224-.728.371-1.459.548-2.202zm.118 2.114c.018-.225.112-.448.153-.666.123-.486.276-.984.422-1.463.065-.21.587-1.41.213-1.613-.047-.014-.123-.018-.135.02-.076.166-.064.128-.117.3-.017.057.047.099.123.102a3.13 3.13 0 01-.118.467c-.105.428-.229.83-.358 1.252-.158.517-.563 1.25-.405 1.825.017.11.198.105.222.028a.353.353 0 01.07-.146c-.012-.046-.023-.091-.07-.106zm1.373-3.225c-.006-.065-.105-.075-.123-.018l-.012.038c-.006.02.035.053.065.042-.095.054-.148.143-.136.272-.035.115-.053.257-.088.372-.071.314-.166.62-.26.927-.189.614-.425 1.212-.566 1.84-.03.096.158.155.187.06.46-1.075.82-2.328.933-3.533zm-.287 3.523c-.011-.045-.029-.072-.076-.087.248-1.14.696-2.26 1.014-3.38.024-.076-.14-.128-.164-.052-.407 1.239-.942 2.478-1.155 3.756-.024.077.076.172.187.144.141-.124.188-.193.194-.38zm1.645-3.353c.03-.096-.159-.155-.188-.06-.42 1.362-.993 2.717-1.271 4.123-.036.115.176.181.212.066.514-1.331.827-2.768 1.247-4.129zm.242.223c-.04-.034-.094-.03-.105.009-.012.038-.047.07-.053.088-.041.05.064.126.111.057-.053.088-.094.39-.141.544-.071.23-.171.471-.266.694-.3.725-.512 1.499-.719 2.254-.035.115.176.181.212.066.3-.809.489-1.674.79-2.483.1-.242.47-.945.171-1.229zm2.818-4.848c.012-.037-.06-.06-.071-.021-.13.085-.148.143-.166.284-.006.02.042.034.047.015.107-.345.012.214.006.233-.053.173-.13.338-.184.51l-.343 1.113c-.25.805-.492 1.592-.741 2.397a36.12 36.12 0 01-.747 2.164c-.272.714-.675 1.43-.876 2.166-.036.115.2.189.236.074.183-.68.538-1.325.793-1.981.29-.772.533-1.558.8-2.337.25-.805.492-1.592.718-2.405.16-.77.48-1.469.528-2.211zm.159 1.9c.136-.526.45-1.206.292-1.781.005-.02-.018-.027-.024-.008-.107.009-.077-.003-.13.086-.006.019.017.026.023.007l.089.049a1.26 1.26 0 01-.054.425l-.136.441c-.09.372-.202.736-.315 1.1-.225.73-.48 1.47-.73 2.192-.528 1.454-1.186 2.91-1.525 4.424-.03.096.16.155.19.06.593-1.498 1.056-3.078 1.578-4.598.249-.805.516-1.584.742-2.397zm.005 1.978c.213-.69.403-1.389.616-2.079.112-.364.326-.97.108-1.354-.035-.054-.148-.026-.118.047.153.258-.025.665-.078.922-.06.276-.148.563-.231.832l-.605 1.956c-.42 1.361-.936 2.693-1.286 4.077-.03.096.16.155.19.06.526-1.455.941-2.966 1.404-4.461z" fill="#75BB43"/><path d="M41.327 40.875c-.012-.046-.053-.08-.082-.068-.165.032-.183.09-.2.231-.019.058.105.076.123.018.065-.127.065-.043 0 .252-.024.161-.124.319-.172.472-.112.364-.225.729-.355 1.066-.224.645-.478 1.301-.703 1.946a32.488 32.488 0 01-.786 2.045c-.13.337-.343.691-.255 1.076.018.111.206.086.212-.017-.005-.485.26-.928.426-1.38.26-.676.497-1.359.733-2.041l.68-1.953c.177-.49.431-1.063.38-1.647zm.095.871c-.011-.046-.094-.03-.076-.003-.001 1.093-.598 2.188-.982 3.182-.425 1.044-.903 2.093-1.188 3.181-.035.115.177.182.212.067.42-1.11.822-2.245 1.241-3.354.19-.529.379-1.058.55-1.614.148-.48.343-.944.243-1.46zm.311.854c.03-.095-.135-.147-.188-.058-.301.893-.556 1.801-.904 2.68-.354.898-.802 1.766-1.038 2.701-.042.134.194.208.235.074.608-1.806 1.351-3.549 1.895-5.396z" fill="#75BB43"/><path d="M41.083 46.073c.012-.038-.059-.06-.07-.022-.106.177-.182.342-.288.519-.011-.046-.035-.053-.082-.068.147-.479.446-.952.634-1.397.259-.59.417-1.192.606-1.804.029-.096-.158-.155-.164-.052a19.44 19.44 0 01-.705 1.962c-.247.553-.675 1.11-.664 1.745-.006.103.158.154.21.066l.012-.038.03-.012c.205-.25.334-.588.48-.899zm-8.061-6.61c-.011-.046-.088-.049-.076-.003-.077.67-.341 1.279-.517 1.938-.03.095.134.147.163.051.247-.636.43-1.314.43-1.986zm.532-.36c0-.084-.14-.128-.163-.051-.16.853-.465 1.681-.671 2.52-.03.095.158.154.187.059.323-.802.535-1.66.648-2.528zm.174 1.377c.183-.51.19-1.034.366-1.524.03-.096-.135-.148-.164-.052-.2.483-.213 1.026-.413 1.51-.188.444-.36.916-.383 1.413 0 .084.17.117.193.04.095-.475.23-.915.401-1.387zm.855-1.919c0-.084-.153-.09-.153-.006-.09 1.212-.631 2.303-.962 3.46-.029.096.159.155.188.059.401-1.135.855-2.274.927-3.513zm.257 1.361c.177-.49.312-1.015.172-1.563-.023-.092-.181-.078-.158.013.256 1.173-.6 2.29-.806 3.38-.03.096.134.147.164.052.282-.584.411-1.257.629-1.882z" fill="#75BB43"/><path d="M34.643 41.666c.153-.414.312-.848.489-1.254a6.126 6.126 0 00.443-2.278c0-.084-.153-.09-.153-.006-.048.993-.32 1.875-.696 2.765-.153.33-.665 1.073-.301 1.482.058.06.181-.006.129-.085-.147-.194.006-.44.089-.624zm1.144-1.702c.153-.582.33-1.157.266-1.786 0-.084-.176-.098-.152-.006.115 1.297-.613 2.58-.931 3.783-.03.096.158.155.187.06.23-.664.442-1.354.63-2.05zm.923-1.919c-.023-.091-.164-.052-.158.013.163.725-.231 1.588-.462 2.252-.218.709-.454 1.391-.672 2.1-.03.096.159.156.188.06.26-.76.466-1.514.702-2.28.224-.645.566-1.42.402-2.145z" fill="#75BB43"/><path d="M37.096 38.396c0-.084-.177-.097-.153-.006.052.753-.255 1.413-.52 2.108a18.27 18.27 0 00-.71 2.216c-.029.096.16.155.189.059.289-.771.49-1.591.785-2.381.225-.645.472-1.282.409-1.996zm-.682 3.906l.478-1.3c.325-.803.561-1.653.797-2.504.024-.077-.117-.121-.14-.044-.32.95-.615 1.909-1.01 2.857-.148.395-.295.79-.472 1.197a.615.615 0 00.023.596c.046.099.2.02.147-.059-.083-.236.083-.52.177-.743zm1.726-3.665c.029-.096-.136-.148-.166-.052-.508 1.48-1.163 2.936-1.507 4.468-.03.096.135.148.189.06.578-1.459 1.046-2.973 1.483-4.476zm.148.195c-.076-.087-.182.005-.129.085.264.314-.254 1.16-.372 1.46-.153.414-.26.843-.419 1.276-.182.51-.483.983-.565 1.504-.03.096.152.174.188.059.2-.568.447-1.12.648-1.688.153-.414.242-.87.395-1.284.147-.31.577-1.037.255-1.412z" fill="#75BB43"/><path d="M38.778 38.94c.03-.095-.135-.147-.188-.058-.266.694-.338 1.429-.58 2.13-.26.76-.614 1.49-.804 2.272-.03.096.16.155.189.059.266-.695.508-1.397.75-2.098.331-.738.373-1.545.633-2.304z" fill="#75BB43"/><path d="M39.516 40.233c.03-.096-.158-.155-.187-.06l-.065.212c.012-.123-.006-.233-.017-.363.006-.02-.018-.027-.018-.027.03-.18.036-.367-.017-.53-.029-.073-.105-.076-.164-.052a.427.427 0 00-.058-.145c-.047-.099-.223-.028-.147.06.17.284-.154.917-.236 1.186-.112.364-.241.701-.377 1.058-.235.682-.623 1.358-.747 2.097-.024.076.111.14.158.07.053-.088.077-.164.13-.253 0 .084.046.183.099.263.053.08.217.047.17-.052-.123-.354.236-.85.353-1.15.136-.356.248-.72.36-1.084.111-.364.294-.79.417-1.192-.024.665-.306 1.332-.5 1.965-.236.766-.536 1.491-.819 2.243-.176.49-.382.993-.582 1.476l.577-2.13c.012-.038-.029-.072-.052-.08-.047-.014-.1-.01-.088.036-.46 1.41-1.018 2.81-1.337 4.265-.03.096.158.155.188.06.011-.039.023-.077.03-.096-.06.191-.095.39-.13.59-.024.076.134.147.158.07.27-.545.306-1.248.512-1.835.265-.778.6-1.534.865-2.312.259-.759.536-1.491.771-2.258l.059-.191-.506 1.647c-.03.096.134.148.187.06.177-.575.371-1.123.548-1.698.206-.587.277-1.237.465-1.85zm-.786.635c-.136.44-.265.862-.424 1.295a5.59 5.59 0 01-.335.84c.223-.56.394-1.116.565-1.671.13-.422.282-.836.388-1.265l.089-.287c.017.363-.177.743-.283 1.088zm3.257 2.947c-.344.626-.694 1.27-.852 1.954-.035.115.157.155.21.067.274-.648.496-1.29.84-1.916.052-.088-.14-.212-.198-.105zM23.61 37.856c-.39.06-.781.12-1.155.207-.13.02-.244.066-.352.094-.056.023-.521.163-.51.125.012-.037-.102-.074-.096-.01a12.08 12.08 0 00-.017.056c-.011.038.028.071.057.06.35-.011.64-.146.957-.21.374-.085.782-.12 1.15-.187.102-.009.069-.144-.034-.135zm.591.076c-.289.052-.56.13-.833.207-.221.074-.595.243-.873.175-.119-.018-.159.114-.04.131.21.047.403-.015.59-.058.38-.106.788-.222 1.162-.309.13-.02.102-.174-.006-.146zm-.26.35c-.25.086-.487.133-.765.147-.102.009-.068.143.056.142a2.92 2.92 0 00.822-.17c.085-.034 0-.165-.113-.119zm1.239.133c-.225.01-.48.032-.711-.022-.119-.017-.159.114-.046.15.255.06.51.04.758.037.101-.009.096-.154 0-.165zm3.029.721c-.069.144-.28.18-.422.238-.143.059-.268.143-.411.201a3.33 3.33 0 00-.754.59c-.068.062.074.17.143.108a3.91 3.91 0 011.016-.713c.21-.12.473-.16.588-.373.045-.069-.114-.12-.16-.051zm.3.304c-.08.182-.553.259-.712.374-.268.142-.497.319-.781.435-.04-.034-.114-.037-.131.02l-.023.076c-.017.057.062.124.12.1.392-.143.7-.418 1.06-.615.204-.1.512-.126.58-.353.046-.069-.09-.113-.113-.037zm.311.266c-.535.285-1.11.536-1.64.802-.091.054-.006.185.085.131.535-.284 1.088-.543 1.606-.854.08-.016.012-.12-.05-.079zm.39.329c-.497.236-.913.539-1.386.782-.086.035 0 .166.085.13.473-.242.878-.59 1.351-.833.08-.016.006-.102-.05-.078zm.328.832c-.205.1-.393.226-.598.327-.114.046-.006.184.103.157.227-.093.393-.227.598-.327.074-.08-.011-.211-.102-.157zM12.941 22.896c-.245.804-.74 1.507-1.079 2.28-.029.096.134.148.163.052.362-.766.834-1.477 1.08-2.28.052-.088-.135-.148-.164-.052zm.719.939c-.273.48-.632.91-.818 1.437-.023.076.116.12.14.044.226-.493.539-.938.805-1.398.047-.07-.104-.159-.127-.083zm.538 1.529c-.017-.11-.01-.212-.027-.321 0-.084-.148-.09-.148-.006.016.11.01.212.027.322 0 .083.148.089.148.005zm.696 1.248c-.046-.097-.068-.188-.017-.275.023-.076-.114-.12-.16-.052a.321.321 0 00.04.366c.046.098.188.04.137-.039zM38.4 34.564c-.063-.124-.08-.233-.142-.357-.051-.079-.142-.025-.114.046.063.124.074.252.142.357.023.09.165.032.114-.046zm6.361-20.756l-.284.115c-.056.024-.005.102.051.079.108-.028.193-.062.284-.116.074.003.006-.101-.051-.078zm-3.305 8.96l-.143.058c-.017-.026-.04-.034-.062-.041-.256-.061-.506.024-.728.098-.114.047-.006.185.102.157.137-.039.307-.108.483-.114-.204.1-.415.22-.569.398-.068.061.046.18.114.12.267-.226.563-.38.905-.519.09-.054.006-.185-.102-.157z" fill="#75BB43"/></svg>