<svg width="32" height="62" fill="none" xmlns="http://www.w3.org/2000/svg"><g clip-path="url(#clip0)" fill="#204686"><path d="M5.01 8.488a114.55 114.55 0 00-1.336-3.315c-.935 0-1.603.53-2.338.73-.468.132-.935.264-1.202-.266-.268-.53 0-.929.467-1.194 3.006-1.658 6.213-2.984 9.42-4.31.467-.199 1.002-.133 1.202.332.268.596-.133.994-.601 1.26-.935.53-1.937.994-3.006 1.525.601 1.06 1.135 2.122 1.67 3.116.067.133.334.332.468.265 2.204-.596 2.405 1.26 2.939 2.454 4.676 10.08 9.286 20.224 13.896 30.304.6 1.392 1.269 2.718 1.937 4.045 1.069 2.188 1.069 2.188-.935 3.647.133 1.392 1.202 2.785.066 4.243-.133.2.268.73.401 1.128 1.203 2.718 2.405 5.37 3.608 8.09.2.398.601.795-.134 1.459-1.603-3.449-3.14-6.83-4.743-10.279-2.739.929-2.472-1.657-3.608-2.586-2.471.332-2.471.332-3.54-2.122-3.006-6.763-5.946-13.527-9.153-20.224-2.204-4.642-4.075-9.483-6.547-13.992 0-.066-.066-.066-.066-.132-1.203-2.388-1.136-2.52 1.135-4.178zm22.915 36.736c-3.541-7.692-7.082-15.384-10.69-23.076-2.003 1.459-4.141 2.387-6.212 3.382.735 1.459 1.136 2.785 1.937 3.846 1.203.066 2.071-1.26 3.274-.53-.268 1.392-1.67 1.458-2.472 2.254l2.605 5.57c.535-.265.936-.464 1.403-.663.468-.2.936-.332 1.203.265.267.53-.134.862-.601 1.061-.468.265-1.003.265-1.337.796a269.87 269.87 0 012.005 4.31c.801-.265 1.47-.464 2.137-.663.401-.133.869 0 1.002.464.134.464-.2.73-.6.928-.602.266-1.337.2-1.671.796.668 1.393 1.27 2.719 1.937 4.111a475.3 475.3 0 016.08-2.851zm-11.29-24.27c-2.071-4.509-4.076-8.753-6.013-12.93-2.205.995-4.209 1.923-6.213 2.851 1.804 4.51 3.808 8.753 5.946 12.93 2.138-.994 4.209-1.856 6.28-2.85zM8.016 7.228a11.538 11.538 0 00-1.67-3.249c-.602 0-1.07.133-1.403.663.467 1.061 1.002 2.122 1.47 3.25.6 0 1.068-.2 1.603-.664zM25.52 50.86c2.137-.663 1.202-1.923.935-3.116-.802.132-1.403.331-1.937.862.334.795.6 1.459 1.002 2.254z"/><path d="M14.764 22.943c-.467 1.061-.935 2.189-1.47 3.25-.133.265.334.53.401.265.468-1.061.935-2.188 1.47-3.25.2-.33-.267-.596-.4-.265zm1.336-.397c-.4 1.657-1.069 3.182-2.138 4.509-.2.265.268.53.401.265a11.328 11.328 0 002.138-4.642c.133-.331-.334-.464-.4-.132z"/><path d="M16.434 23.209c-.334 1.79-.936 3.448-1.737 5.04-.134.265.267.53.4.265.802-1.658 1.404-3.382 1.738-5.173.2-.331-.334-.464-.401-.132zm1.002.398c-.534 1.657-1.069 3.381-1.603 5.04-.067.33.4.463.467.132.535-1.658 1.07-3.382 1.604-5.04.067-.265-.401-.398-.468-.133zm.601 1.127a57.55 57.55 0 01-2.004 6.83c-.134.331.4.464.468.132a61.45 61.45 0 002.004-6.83c.067-.331-.4-.464-.468-.132zm.669 1.06c-.535 2.255-1.136 4.443-1.938 6.631-.133.332.401.398.468.133.802-2.188 1.47-4.376 1.937-6.63.067-.266-.4-.399-.467-.134zm.667 1.128a79.34 79.34 0 01-1.87 6.83c-.067.331.4.464.467.133.668-2.255 1.336-4.51 1.87-6.83.134-.266-.4-.398-.467-.133zm.935 1.791a57.249 57.249 0 01-1.803 6.63c-.134.332.4.465.467.133a57.244 57.244 0 001.804-6.63c.067-.332-.4-.465-.468-.133zm.802 1.989a16.523 16.523 0 01-1.87 4.641c-.134.266.267.531.4.266a18.208 18.208 0 001.871-4.775c.134-.331-.334-.464-.4-.132zm.268.928c-.067 2.255-.668 4.31-1.737 6.3-.133.265.267.53.401.265a14.239 14.239 0 001.804-6.565c.067-.331-.468-.331-.468 0zm1.135 1.26c-.668 2.188-1.47 4.31-2.338 6.365-.134.266.334.398.468.133.868-2.122 1.603-4.244 2.338-6.366.134-.265-.334-.398-.468-.132zm.602 1.99a77.772 77.772 0 01-2.472 6.564c-.134.265.334.53.4.265.936-2.188 1.805-4.376 2.54-6.63.133-.332-.335-.465-.468-.2zm.334 1.856c-.334 2.32-.936 4.575-1.938 6.697-.133.266.268.53.401.266a24.595 24.595 0 002.004-6.963c.067-.332-.4-.332-.467 0zm1.269 1.923l-1.803 6.366c-.067.331.4.464.467.132l1.804-6.365c.067-.332-.4-.465-.468-.133zm1.402 1.989c-.4 1.857-.734 3.713-1.135 5.504-.067.331.4.464.468.133.4-1.857.735-3.714 1.135-5.504.067-.332-.4-.464-.467-.133z"/></g><defs><clipPath id="clip0"><path fill="#fff" d="M0 0h32v62H0z"/></clipPath></defs></svg>