<svg width="24" height="47" fill="none" xmlns="http://www.w3.org/2000/svg"><g clip-path="url(#clip0)" fill="#204686"><path d="M3.758 6.435c-.3-.805-.652-1.66-1.002-2.514-.702 0-1.203.402-1.754.553-.35.1-.701.201-.902-.2-.2-.403 0-.705.35-.906C2.707 2.112 5.11 1.106 7.517.101c.35-.15.751-.1.901.251.2.453-.1.754-.45.955-.702.402-1.454.754-2.255 1.156.45.805.852 1.609 1.252 2.363.05.1.25.251.351.201 1.654-.452 1.804.955 2.205 1.86 3.507 7.64 6.964 15.332 10.422 22.972.45 1.056.951 2.061 1.453 3.066.801 1.66.801 1.66-.702 2.765.1 1.056.902 2.111.05 3.217-.1.151.2.553.3.855.903 2.06 1.805 4.072 2.706 6.133.15.301.451.603-.1 1.105-1.202-2.614-2.355-5.177-3.557-7.791-2.054.704-1.854-1.257-2.706-1.96-1.854.25-1.854.25-2.655-1.61-2.255-5.126-4.46-10.254-6.865-15.33-1.653-3.52-3.056-7.189-4.91-10.607 0-.05-.05-.05-.05-.1-.902-1.81-.852-1.91.852-3.167zm17.185 27.848a2661.999 2661.999 0 00-8.016-17.493c-1.503 1.106-3.107 1.81-4.66 2.563.551 1.106.852 2.111 1.453 2.916.902.05 1.553-.955 2.455-.402-.2 1.055-1.252 1.106-1.854 1.709l1.954 4.222c.401-.2.702-.352 1.053-.502.35-.151.701-.252.902.2.2.403-.1.654-.451.805-.351.201-.752.201-1.002.603.5 1.056 1.002 2.162 1.503 3.268.6-.202 1.102-.352 1.603-.503.3-.1.651 0 .752.352.1.352-.15.553-.451.703-.451.202-1.003.151-1.253.604.501 1.055.952 2.06 1.453 3.116a338.099 338.099 0 014.56-2.161zm-8.467-18.398c-1.553-3.418-3.056-6.635-4.51-9.802a498.346 498.346 0 00-4.66 2.161c1.354 3.418 2.857 6.636 4.46 9.802 1.603-.754 3.157-1.407 4.71-2.161zM6.012 5.48A8.781 8.781 0 004.76 3.016c-.451 0-.802.101-1.052.503.35.804.751 1.609 1.102 2.463.45 0 .802-.15 1.202-.502zM19.14 38.555c1.603-.502.902-1.457.701-2.362-.601.1-1.052.251-1.453.653.25.604.451 1.106.752 1.71z"/><path d="M11.073 17.392c-.35.805-.702 1.66-1.102 2.464-.1.2.25.402.3.2.35-.804.702-1.658 1.102-2.463.15-.25-.2-.452-.3-.2zm1.002-.302c-.3 1.258-.801 2.414-1.603 3.42-.15.2.2.401.3.2a8.63 8.63 0 001.604-3.519c.1-.25-.25-.351-.3-.1z"/><path d="M12.325 17.594c-.25 1.357-.701 2.613-1.302 3.82-.1.201.2.402.3.201.601-1.257 1.052-2.564 1.303-3.92.15-.252-.25-.353-.3-.101zm.752.301c-.4 1.257-.802 2.564-1.203 3.82-.05.252.301.352.351.101.401-1.257.802-2.564 1.203-3.82.05-.201-.3-.302-.351-.1zm.451.855a43.96 43.96 0 01-1.503 5.177c-.1.252.3.352.35.1a46.964 46.964 0 001.504-5.177c.05-.251-.301-.352-.351-.1zm.502.804c-.402 1.71-.853 3.368-1.454 5.027-.1.251.3.301.35.1.602-1.659 1.103-3.317 1.454-5.026.05-.202-.3-.302-.35-.1zm.5.855a60.047 60.047 0 01-1.403 5.177c-.05.251.301.352.351.1.501-1.709 1.002-3.418 1.403-5.177.1-.201-.3-.302-.35-.1zm.702 1.357a43.748 43.748 0 01-1.353 5.027c-.1.25.3.351.35.1a43.762 43.762 0 001.353-5.027c.05-.251-.3-.351-.35-.1zm.601 1.508a12.607 12.607 0 01-1.403 3.518c-.1.201.2.403.3.201a13.89 13.89 0 001.403-3.619c.1-.251-.25-.352-.3-.1zm.2.703c-.05 1.71-.5 3.268-1.302 4.776-.1.2.2.402.3.2a10.883 10.883 0 001.353-4.976c.05-.25-.35-.25-.35 0zm.852.956a50.077 50.077 0 01-1.753 4.825c-.1.201.25.302.35.1.652-1.608 1.203-3.216 1.754-4.825.1-.2-.25-.302-.35-.1zm.451 1.507a59.376 59.376 0 01-1.854 4.977c-.1.201.25.402.3.201.702-1.659 1.354-3.317 1.905-5.026.1-.252-.25-.352-.35-.151zm.251 1.408c-.251 1.76-.702 3.469-1.454 5.077-.1.201.2.402.301.201a18.797 18.797 0 001.503-5.278c.05-.251-.3-.251-.35 0zm.952 1.458l-1.353 4.826c-.05.25.3.351.35.1l1.354-4.826c.05-.25-.301-.351-.351-.1zm1.052 1.508c-.3 1.407-.551 2.815-.852 4.172-.05.252.3.352.351.1.3-1.407.551-2.814.852-4.171.05-.252-.3-.352-.351-.101z"/></g><defs><clipPath id="clip0"><path fill="#fff" d="M0 0h24v47H0z"/></clipPath></defs></svg>