<svg width="63" height="76" fill="none" xmlns="http://www.w3.org/2000/svg"><path d="M23.319 1.57C23.683.818 14.582-.31 9.485.442 4.388 1.194-.345 3.45.02 9.464c.364 6.014 4.368 15.411 4.732 20.298.364 4.887-.364 14.66 1.092 22.93 1.457 8.645 4.37 13.156 5.825 16.163 1.456 3.007 2.184 5.263 3.277 5.263 1.092 0 4.004-8.27 4.004-12.03 0-3.758 0-10.524 2.913-13.907 2.912-3.383 4.004-3.383 8.373-3.76 4.368 0 9.1 2.632 9.829 7.143.728 4.51 0 12.78 1.092 16.163 1.092 3.383 2.184 7.142 3.64 7.518 1.093.376 4.37-8.27 6.553-12.028 1.82-3.76 3.64-7.518 4.369-12.029.728-4.51.728-15.412 1.092-19.17.364-3.76 3.277-11.653 4.733-15.036 1.456-3.383 1.82-6.766 1.092-9.773C61.544 3.825 57.903.442 50.986.067c-6.552 0-16.018 1.127-21.114 2.255-4.733 1.503-10.194 3.759-12.378 3.007-2.184-.376-2.548-1.504-.364-2.631 2.184-.752 5.825-.376 6.189-1.128z" fill="#fff"/></svg>