<svg width="153" height="106" fill="none" xmlns="http://www.w3.org/2000/svg"><ellipse cx="76.5" cy="53" rx="76.5" ry="53" fill="#0AB6E2"/><path d="M70.925 29.564c.429-.447-7.3-1.564-11.378-.67-4.08.67-7.944 2.456-7.514 7.593.43 5.138 3.65 12.508 4.079 16.529.429 3.797-.215 11.614 1.073 18.538 1.503 6.924 3.65 10.721 4.938 13.178 1.288 2.457 1.932 4.02 2.576 4.02.644 0 3.005-6.7 3.005-10.05 0-3.127-.214-8.711 2.147-11.391 2.147-2.68 3.22-2.904 6.87-3.127 3.65-.224 7.3 2.01 8.158 5.807.859 3.797.215 10.498 1.073 13.178 1.074 2.68 1.932 5.807 3.006 6.03 1.073.224 3.435-6.924 5.152-10.05 1.503-3.127 3.006-6.031 3.435-9.828.43-3.797.43-12.731.644-15.635.43-2.904 2.576-9.604 3.65-12.285 1.073-2.68 1.502-5.36.858-8.04-.644-2.457-3.864-5.361-9.23-5.361-5.368 0-13.096 1.117-16.96 2.234-3.865 1.116-8.373 3.127-10.305 2.68-1.718-.447-2.147-1.34-.215-2.234 1.717-.67 4.508-.446 4.938-1.116z" fill="#fff"/></svg>