<svg width="30" height="36" fill="none" xmlns="http://www.w3.org/2000/svg"><path d="M11.104.72c.174-.36-4.16-.9-6.587-.54C2.09.54-.164 1.62.009 4.5c.174 2.879 2.08 7.378 2.254 9.718.173 2.34-.173 7.019.52 10.978.694 4.14 2.08 6.299 2.774 7.739.693 1.44 1.04 2.52 1.56 2.52s1.907-3.96 1.907-5.76c0-1.8 0-5.039 1.387-6.659s1.907-1.62 3.987-1.8c2.08 0 4.334 1.26 4.68 3.42.347 2.16 0 6.12.52 7.739.52 1.62 1.04 3.42 1.734 3.6.52.18 2.08-3.96 3.12-5.76.867-1.8 1.734-3.6 2.08-5.759.348-2.16.348-7.379.52-9.178.174-1.8 1.561-5.58 2.255-7.2.693-1.619.866-3.239.52-4.679C29.307 1.8 27.573.18 24.279 0c-3.12 0-7.627.54-10.054 1.08-2.254.72-4.854 1.8-5.895 1.44-1.04-.18-1.213-.72-.173-1.26 1.04-.36 2.774-.18 2.947-.54z" fill="#fff"/></svg>