<svg width="47" height="55" fill="none" xmlns="http://www.w3.org/2000/svg"><g clip-path="url(#clip0)" fill="#FF9103"><path d="M2.534 45.949c3.922 2.421 9.095 3.747 13.78 2.018 2.465-.923 4.305-2.71 6.249-4.21 1.874-1.44 2.534-2.94 2.777-5.044.07-.547-.972-.547-1.042 0-.138 1.038-.277 2.105-.937 2.998-.59.807-1.527 1.384-2.36 2.018-1.701 1.297-3.228 2.767-5.415 3.517-4.34 1.47-8.956.144-12.531-2.076-.521-.317-1.042.433-.521.779zm27.145-19.487c.729-.173 1.319.577 2.117.23.729-.345.59-1.008.382-1.527-.104-.26-.313-.49-.382-.778-.208-.317-.243-.663-.07-1.038-.138-.576.14-.893.868-.98.938-.404 1.667-.346 2.708-.432 1.284-.116 2.534-.375 3.68-.894 5.484-2.508 3.783-8.85 7.914-12.222.486-.404-.243-1.01-.73-.606-4.234 3.46-2.533 10.666-8.816 12.482-2.013.577-5.38-.202-6.457 1.73-.45.807-.208 1.47 0 2.277.07.346.382.404.105.778-.382.577-.035.087-.556.144-.382.03-.555-.115-.972 0-.694.144-.416.98.209.836z"/><path d="M29.332 25.482c-1.458.865-1.597 2.94-1.701 4.295-.14 2.047.208 4.093.59 6.14l.937-.346c-1.076-1.383-3.193-.893-4.027.433-.555.864-.763 3.401.903 3.574.278.029.52-.23.52-.432v-.087c0-.23-.242-.432-.52-.432h-.07c-.659.029-.659.893 0 .865h.07l-.52-.433v.087l.52-.433a5.308 5.308 0 01-.278-1.24c-.07-1.095.799-1.556 2.534-1.44.347.432 1.042.144.938-.346-.278-1.557-.556-3.085-.59-4.641-.035-1.182-.14-4.007 1.214-4.785.556-.346.035-1.096-.52-.779zm-4.964 15.364c-.764 1.384-1.562 2.97-.764 4.468.729 1.384 2.465 1.788 4.061 2.134 2.43.518 4.305 1.787 6.318 2.969 2.222 1.297 4.72 2.479 6.248 4.41.382.461 1.284.029.903-.432-2.048-2.595-5.693-4.18-8.713-5.91-1.458-.836-2.777-1.47-4.513-1.845-1.284-.288-2.568-.49-3.228-1.527-.798-1.269-.104-2.566.555-3.777.313-.576-.59-1.008-.867-.49zm17.668-21.648c-.07.433-.104.865.139 1.268.104.173.277.26.382.404.277.404.208-.029.277.634.104 1.326.73 2.335 1.632 3.43.104-.201.208-.432.312-.634-.59.058-3.61.26-3.853-.432-.173-.548-1.18-.317-1.006.23.485 1.442 3.818 1.211 5.137 1.038.312-.028.486-.432.312-.634-.347-.432-.694-.865-.972-1.326-.45-.75-.312-1.268-.45-2.046-.14-.692-.938-1.154-.834-1.903.035-.577-1.007-.577-1.076-.029z"/><path d="M42.73 21.389c-1.284.461-1.944 1.614-1.77 2.738.104.548 1.076.318 1.007-.23-.14-.778.45-1.47 1.284-1.759.625-.201.104-.95-.52-.75zm-14.96 6.313c-2.014 1.182-3.68 1.96-4.097 4.122-.347 1.845-.52 3.834 1.528 4.987.555.317 1.076-.433.52-.75-1.735-.98-1.388-3.372-.867-4.814.486-1.383 2.082-2.046 3.436-2.825.556-.288.035-1.037-.52-.72z"/><path d="M24.23 31.017a206.66 206.66 0 012.95-1.643c.138-.087 0-.26-.14-.173-.971.547-1.943 1.095-2.95 1.643-.139.086 0 .26.14.173zm.103.461c1.215-.692 2.43-1.384 3.68-2.076.138-.086 0-.259-.14-.172-1.214.691-2.43 1.383-3.679 2.075-.139.058 0 .23.14.173zm.035.375a338.38 338.38 0 003.506-1.643c-.035-.058-.104-.116-.14-.173-.069.029-.103.057-.173.086-.139.058 0 .26.14.173.069-.029.103-.058.173-.086.139-.058 0-.26-.14-.173-1.18.547-2.36 1.095-3.505 1.643-.139.057 0 .23.139.173zm-.59.778c1.18-.519 2.36-1.067 3.471-1.672.139-.086 0-.26-.139-.173a53.15 53.15 0 01-3.47 1.672c-.14.058 0 .23.138.173zm.104.461c1.215-.547 2.43-1.124 3.575-1.787.14-.086 0-.26-.139-.173a49.148 49.148 0 01-3.575 1.787c-.139.03 0 .23.139.173zm.451.461c1.25-.605 2.534-1.24 3.784-1.844.139-.058 0-.26-.14-.173-1.249.605-2.533 1.24-3.783 1.844-.139.058-.034.231.14.173zm.555.491l3.124-1.73c.14-.087 0-.26-.139-.173l-3.124 1.73c-.138.057 0 .23.14.172zm-.138.691c1.11-.576 2.256-1.181 3.367-1.758.139-.086 0-.26-.14-.173-1.11.576-2.256 1.182-3.366 1.758-.14.058 0 .231.139.173zm0 .577l2.499-1.21c.139-.058 0-.26-.139-.174l-2.5 1.21c-.138.059 0 .232.14.174zm.59.375c.416-.202.833-.375 1.284-.577.139-.058 0-.26-.139-.173-.416.202-.833.375-1.284.577-.174.057-.035.23.139.173zM0 42.23c1.041 2.076 2.707 3.805 4.964 5.045.139.086.277-.116.139-.173-2.187-1.211-3.853-2.912-4.86-4.93-.035-.115-.313-.057-.243.058zm1.354.577a314.37 314.37 0 003.436 2.969c.66.547 1.32 1.44 2.326 1.556.174.03.174-.202 0-.23-.625-.058-1.11-.606-1.527-.952-.486-.403-.938-.807-1.424-1.21l-2.672-2.306c-.07-.087-.243.086-.14.173zm2.708.374c.555 1.355 1.943 2.191 3.263 3.027 1.214.807 2.464 1.759 4.06 1.931.174.03.174-.201 0-.23-1.665-.144-3.089-1.326-4.303-2.133-1.111-.75-2.257-1.5-2.743-2.652-.104-.144-.347-.087-.277.057z"/><path d="M5.484 43.93c2.43 2.134 5.068 4.296 8.817 4.296.174 0 .174-.202 0-.23-3.714 0-6.283-2.134-8.643-4.238-.104-.087-.278.057-.174.173z"/><path d="M7.776 44.68c1.874 2.018 4.79 3.027 7.81 2.681.173-.029.104-.23-.07-.202-2.915.346-5.762-.634-7.532-2.565-.07-.116-.313-.029-.208.086zm1.7-.403c2.43 1.47 5.207 2.277 8.193 2.363.173 0 .173-.201 0-.23-2.951-.087-5.659-.894-8.054-2.335-.139-.087-.277.115-.139.202zm2.534-.721c2.361 1.441 5.138 2.104 8.054 1.96.173 0 .173-.23 0-.23-2.881.144-5.589-.52-7.915-1.932-.138-.057-.277.144-.138.202zm1.84-.606c2.117 1.038 4.304 2.019 6.838 1.528.174-.028.104-.23-.07-.201-2.429.46-4.581-.52-6.63-1.528-.138-.058-.277.115-.138.202zm2.812-.316c2.36.605 4.72.807 7.185.547.174-.028.174-.23 0-.23-2.43.26-4.79.086-7.116-.548-.173-.029-.243.202-.069.23zm13.746 4.41c4.443 1.7 9.997 4.036 12.323 7.812.07.115.312.029.208-.115-2.36-3.805-7.914-6.17-12.392-7.87-.174-.086-.313.115-.14.173zm4.547.432c2.95 1.384 5.9 2.883 7.637 5.362.069.115.312 0 .208-.115-1.77-2.537-4.756-4.036-7.741-5.448-.104-.058-.243.115-.104.201zm8.262 3.806c.173 0 .173-.231 0-.231-.174.029-.174.23 0 .23zM42.07 23.09c.175 0 .175-.231 0-.231-.138 0-.138.23 0 .23z"/><path d="M43.564 22.628c-.348.721-.972 1.297-1.77 1.701.034.058.103.115.138.173a4.507 4.507 0 001.527-1.355c-.069-.029-.138-.086-.208-.115-.243.49-.66.865-1.215 1.124.07.058.104.116.174.173a4.904 4.904 0 001.388-1.441c.07-.116-.104-.202-.208-.144-.59.432-1.215.893-1.805 1.326l.173.144c.486-.404.972-.778 1.493-1.153.104-.058 0-.23-.139-.173-.555.173-1.006.432-1.388.807.07.058.139.086.208.144a3.474 3.474 0 011.041-.865c-.069-.057-.104-.115-.173-.173-.243.173-.486.346-.73.548.07.029.14.058.21.115.138-.288.312-.547.555-.75.069-.086 0-.2-.14-.172-.381.086-.763.23-1.075.403.034.058.104.116.139.173.208-.144.45-.288.66-.432.138-.087 0-.26-.14-.173-.208.144-.451.288-.66.432-.138.087 0 .26.14.173a3.95 3.95 0 011.04-.403.586.586 0 00-.138-.173 2.62 2.62 0 00-.625.865c-.035.115.14.173.209.115.242-.173.486-.346.729-.548.104-.086-.035-.23-.174-.173-.451.26-.833.548-1.146.923-.069.086.104.23.209.144.347-.346.763-.577 1.25-.75-.035-.057-.07-.115-.14-.172a27.09 27.09 0 00-1.492 1.152c-.104.087.07.231.173.145.59-.433 1.215-.894 1.805-1.326-.069-.058-.138-.087-.208-.145a4.681 4.681 0 01-1.354 1.384c-.104.087.035.23.174.173.59-.288 1.007-.692 1.284-1.21.07-.116-.139-.231-.208-.116a3.936 3.936 0 01-1.423 1.268c-.139.087 0 .26.139.173.867-.432 1.527-1.066 1.874-1.845.139-.057-.104-.115-.173.03zm.173-1.729c.173.086.347.202.52.288v.173c.035.115 0 .288.035.432.035.26.07.52.14.779a3.52 3.52 0 00.763 1.441c.104.115.312 0 .208-.115-.555-.634-.798-1.326-.868-2.105-.034-.346.07-.807-.208-1.124-.347-.346-1.076-.086-.833.346.104.115.312 0 .243-.115zm-13.364 5.592c-.139 1.585-.243 3.171-.382 4.785 0 .144.243.144.278 0 .139-1.585.243-3.17.382-4.785 0-.144-.278-.144-.278 0zM25.652 39.03a5.92 5.92 0 002.465-.172c.173-.058.104-.26-.07-.202a5.28 5.28 0 01-2.325.173c-.174-.03-.243.173-.07.201zm-.312 1.586c1.492.173 2.811.692 3.922 1.528.14.086.313-.058.174-.145-1.146-.864-2.5-1.412-4.027-1.585-.173-.029-.243.173-.07.202zm3.367-12.943C26.485 23.378 22.563 19.977 19.75 16c-1.597-2.249-2.638-4.612-2.881-7.236-.14-1.383-.07-2.796-.07-4.18.035-1.21-.312-2.882.104-4.064.244-.519-.763-.75-.937-.202-.382 1.038-.104 2.422-.139 3.517-.034 1.47-.069 2.94 0 4.41.14 2.508.938 4.843 2.291 7.063 2.812 4.497 7.255 8.129 9.72 12.827.243.49 1.145.058.868-.46zM3.263 46.64c.07 1.442-.035 2.883-.416 4.324-.14.548.867.779 1.006.231a15.44 15.44 0 00.452-4.555c-.035-.547-1.077-.547-1.042 0zM27.04 30.47c-1.319 1.44-1.77 3.199-1.423 4.986.104.548 1.111.317 1.007-.23-.312-1.557.174-3.056 1.32-4.325.416-.46-.487-.864-.903-.432z"/><path d="M27.249 32.544c-.035.462 0 .894.07 1.355.069.462.832.606 1.006.116.174-.404.104-.692-.104-1.067-.139-.23-.625-.288-.833-.086-.278.288-.486.547-.59.922.347.087.66.144 1.006.23.14-.547.07-1.037-.277-1.556-.243-.404-.938-.202-.972.23 0 .318-.035.664-.035.98h1.041v-1.066c0-.49-.902-.605-1.006-.115-.14.49-.209.951-.174 1.47.035.548 1.042.548 1.042 0-.035-.605-.035-1.182-.07-1.787 0-.346-.59-.606-.902-.317-.625.663-.938 1.412-.834 2.248.07.548.973.548 1.042 0 .139-1.009.555-1.931 1.284-2.767-.312-.087-.66-.144-.972-.23.07.518.07.98-.07 1.47.348.028.695.086 1.008.115 0-.346 0-.692.034-1.038 0-.548-1.006-.548-1.041 0-.035.346.139.605.52.75.452.172 1.007-.174.73-.606-.209-.317-.486-.432-.903-.461-.208-.029-.451.144-.486.317-.208.778-.729 1.931-.312 2.71.312.576 1.11.807 1.805.49.347-.173.312-.577 0-.75a1.955 1.955 0 00-1.458-.144c-.486.115-.52.72 0 .836.104.029.208.058.312.058.243.057.59-.058.625-.289.035-.26.035-.403 0-.663-.035-.144-.208-.26-.347-.288-.278-.058-.347-.058-.625-.058-.243 0-.451.116-.486.318a1.3 1.3 0 00-.035.634c.348-.087.66-.144 1.007-.23-.104-.433-.555-.722-1.11-.606-.556.115-.8.547-.8 1.009 0 .346.452.519.8.374.728-.317 1.006-.922 1.145-1.585.104-.605.208-1.038.59-1.557.243-.317.382-.547.347-.922-.035-.404-.729-.634-.972-.23-.104.23-.278.374-.52.49-.59.288-.035 1.037.52.749.417-.202.694-.433.902-.807-.312-.087-.659-.144-.971-.23.034.345-.313.547-.521.835-.174.26-.278.519-.313.778-.138.577-.034 1.355-.763 1.672.277.116.52.26.798.375a.668.668 0 00-.139-.144c.14.548 1.111.317 1.007-.23 0-.058 0-.116.035-.174-.174.116-.347.202-.486.317.104 0 .243 0 .347.03l-.347-.289v.202c.208-.087.416-.202.625-.288a1.157 1.157 0 00-.313-.058v.836a.681.681 0 01.625.057v-.749c-.555.26-.243-1.067-.208-1.124.104-.375.173-.75.277-1.096-.173.116-.347.202-.486.317v.03l.73-.606H26.97c0 .346 0 .692-.034 1.038 0 .49.902.605 1.006.115a4.694 4.694 0 00.104-1.7c-.069-.433-.66-.577-.972-.231-.833.98-1.284 2.017-1.423 3.2h1.042c-.07-.606.034-1.154.52-1.644-.312-.115-.59-.202-.902-.317.034.605.034 1.182.07 1.787h1.04c-.034-.432 0-.807.105-1.24-.347-.028-.695-.086-1.007-.114v1.066c0 .548 1.007.548 1.041 0 0-.317.035-.663.035-.98-.312.087-.66.144-.972.23.174.289.243.548.174.865-.14.548.833.779 1.006.231.035-.202.14-.375.313-.548l-.833-.086v.403c.347.03.694.087 1.006.116-.07-.462-.104-.894-.07-1.355.105-.519-.936-.49-.971.057z"/></g><defs><clipPath id="clip0"><path fill="#fff" d="M0 0h47v55H0z"/></clipPath></defs></svg>