<svg width="81" height="94" fill="none" xmlns="http://www.w3.org/2000/svg"><g clip-path="url(#clip0)" fill="#FF9103"><path d="M4.367 78.53c6.76 4.139 15.673 6.405 23.75 3.45 4.247-1.577 7.418-4.632 10.768-7.194 3.23-2.463 4.367-5.025 4.785-8.621.12-.936-1.675-.936-1.794 0-.24 1.773-.479 3.596-1.615 5.123-1.018 1.38-2.633 2.365-4.069 3.449-2.93 2.217-5.563 4.73-9.332 6.01-7.478 2.513-15.434.247-21.596-3.547-.897-.542-1.795.74-.897 1.33zm46.781-33.303c1.257-.296 2.274.985 3.65.394 1.256-.592 1.017-1.725.658-2.611-.18-.444-.539-.838-.658-1.33-.36-.543-.42-1.134-.12-1.774-.24-.986.24-1.527 1.496-1.675 1.615-.69 2.871-.592 4.666-.74 2.213-.196 4.367-.64 6.341-1.527 9.452-4.286 6.52-15.124 13.64-20.889.837-.69-.42-1.724-1.257-1.034-7.298 5.912-4.367 18.229-15.195 21.332-3.47.986-9.272-.345-11.127 2.956-.777 1.38-.359 2.513 0 3.892.12.591.658.69.18 1.33-.658.986-.06.148-.957.247-.659.049-.958-.197-1.676 0-1.196.246-.717 1.675.36 1.428z"/><path d="M50.55 43.551c-2.512 1.478-2.752 5.026-2.931 7.341-.24 3.498.359 6.996 1.017 10.494l1.615-.592c-1.854-2.364-5.504-1.527-6.94.74-.956 1.477-1.315 5.813 1.556 6.109.479.049.897-.395.897-.74v-.147c0-.394-.418-.74-.897-.74h-.12c-1.136.05-1.136 1.528 0 1.479h.12l-.897-.74v.149l.897-.74c-.24-.69-.419-1.428-.478-2.118-.12-1.872 1.375-2.66 4.366-2.463.599.739 1.795.246 1.616-.591-.479-2.66-.957-5.272-1.017-7.932-.06-2.02-.24-6.848 2.093-8.178.958-.592.06-1.873-.897-1.33zM41.995 69.81c-1.316 2.365-2.692 5.075-1.316 7.636 1.257 2.365 4.248 3.055 7 3.646 4.187.887 7.418 3.055 10.887 5.075 3.829 2.217 8.136 4.237 10.768 7.537.659.789 2.214.05 1.556-.739-3.53-4.434-9.811-7.143-15.016-10.1-2.512-1.428-4.785-2.512-7.777-3.152-2.213-.493-4.427-.838-5.563-2.611-1.376-2.168-.18-4.385.957-6.454.538-.986-1.017-1.724-1.496-.838zm30.45-36.999c-.12.74-.179 1.478.24 2.168.18.296.478.443.658.69.478.69.359-.05.478 1.084.18 2.266 1.257 3.99 2.812 5.862.18-.345.359-.739.538-1.084-1.017.099-6.221.444-6.64-.739-.299-.936-2.034-.542-1.735.395.838 2.463 6.58 2.069 8.854 1.773.538-.05.837-.739.538-1.084-.598-.739-1.196-1.478-1.675-2.266-.777-1.28-.538-2.168-.777-3.498-.24-1.182-1.615-1.97-1.436-3.252.06-.985-1.735-.985-1.855-.049z"/><path d="M73.642 36.556c-2.214.788-3.35 2.758-3.051 4.68.18.936 1.854.542 1.735-.394-.24-1.33.777-2.513 2.213-3.006 1.077-.344.18-1.625-.897-1.28zM47.858 47.345c-3.47 2.02-6.341 3.35-7.059 7.045-.598 3.153-.897 6.552 2.632 8.523.957.542 1.855-.74.898-1.281-2.992-1.675-2.393-5.764-1.496-8.227.837-2.365 3.59-3.498 5.922-4.828.958-.493.06-1.774-.897-1.232z"/><path d="M41.756 53.01c1.675-.936 3.35-1.872 5.085-2.808.24-.148 0-.443-.239-.295-1.675.936-3.35 1.872-5.085 2.808-.24.148 0 .443.24.295zm.18.789a583.141 583.141 0 016.34-3.547c.24-.148 0-.444-.239-.296-2.093 1.182-4.187 2.365-6.34 3.547-.24.099 0 .394.239.296zm.06.641a586.124 586.124 0 006.042-2.809c-.06-.099-.18-.197-.24-.296-.12.05-.179.099-.299.148-.239.099 0 .444.24.296.12-.05.18-.099.299-.148.239-.099 0-.443-.24-.296a588.088 588.088 0 00-6.042 2.809c-.239.098 0 .394.24.295zm-1.018 1.33c2.035-.887 4.069-1.823 5.983-2.858.24-.148 0-.443-.24-.295a92.142 92.142 0 01-5.982 2.857c-.239.098 0 .394.24.296zm.18.788c2.094-.936 4.188-1.922 6.162-3.055.24-.148 0-.443-.24-.295a84.964 84.964 0 01-6.161 3.054c-.24.05 0 .394.24.296zm.778.788c2.153-1.035 4.367-2.119 6.52-3.153.24-.099 0-.444-.239-.296-2.154 1.035-4.367 2.119-6.52 3.153-.24.099-.06.394.239.296zm.957.838l5.384-2.956c.24-.148 0-.444-.24-.296l-5.383 2.956c-.24.098 0 .394.24.296zm-.24 1.182c1.915-.986 3.889-2.02 5.803-3.005.24-.148 0-.444-.24-.296-1.913.985-3.888 2.02-5.802 3.005-.24.099 0 .394.24.296zm0 .985l4.308-2.069c.239-.098 0-.443-.24-.295l-4.307 2.069c-.24.098 0 .394.24.295zm1.017.641c.719-.345 1.436-.64 2.214-.986.24-.098 0-.443-.24-.295-.717.345-1.435.64-2.213.985-.299.099-.06.394.24.296zM0 72.175c1.795 3.547 4.666 6.503 8.555 8.621.239.148.478-.197.239-.295-3.769-2.07-6.64-4.976-8.375-8.425-.06-.197-.539-.098-.419.099zm2.333.985c1.974 1.725 3.948 3.4 5.922 5.075 1.137.936 2.273 2.463 4.008 2.66.3.05.3-.345 0-.394-1.076-.099-1.914-1.035-2.632-1.626-.837-.69-1.615-1.38-2.453-2.069-1.555-1.33-3.05-2.611-4.606-3.941-.12-.148-.419.148-.24.295zM7 73.8c.956 2.316 3.35 3.745 5.623 5.174 2.093 1.38 4.247 3.005 6.999 3.3.299.05.299-.344 0-.394-2.872-.246-5.324-2.266-7.418-3.645-1.915-1.281-3.889-2.562-4.726-4.533-.18-.246-.598-.147-.479.099z"/><path d="M9.452 75.082c4.187 3.645 8.734 7.34 15.195 7.34.299 0 .299-.344 0-.394-6.401 0-10.828-3.646-14.896-7.242-.18-.148-.479.099-.3.296z"/><path d="M13.4 76.363c3.231 3.448 8.256 5.173 13.46 4.581.3-.049.18-.394-.119-.344-5.025.59-9.93-1.084-12.982-4.385-.12-.197-.538-.05-.359.148zm2.931-.69c4.188 2.513 8.974 3.892 14.119 4.04.299 0 .299-.345 0-.394-5.085-.148-9.751-1.528-13.88-3.991-.239-.148-.478.197-.239.345zm4.368-1.232c4.068 2.464 8.853 3.597 13.879 3.35.299 0 .299-.394 0-.394-4.966.247-9.632-.887-13.64-3.3-.24-.1-.479.246-.24.344zm3.171-1.034c3.648 1.773 7.417 3.448 11.784 2.61.3-.048.18-.393-.12-.344-4.187.788-7.896-.887-11.426-2.611-.239-.099-.478.197-.239.345zm4.845-.542c4.068 1.034 8.136 1.38 12.383.936.3-.05.3-.394 0-.394-4.188.443-8.255.147-12.264-.936-.299-.05-.418.344-.12.394zm23.69 7.537c7.657 2.907 17.229 6.898 21.237 13.352.12.197.538.049.359-.198-4.068-6.503-13.64-10.542-21.357-13.45-.299-.147-.538.198-.239.296zm7.836.739c5.085 2.365 10.17 4.927 13.161 9.164.12.197.539 0 .36-.197-3.052-4.336-8.197-6.897-13.341-9.311-.18-.099-.419.197-.18.344zm14.239 6.504c.298 0 .298-.394 0-.394-.3.049-.3.394 0 .394zm-1.975-48.183c.3 0 .3-.394 0-.394-.24 0-.24.394 0 .394z"/><path d="M75.077 38.674c-.598 1.232-1.675 2.217-3.05 2.907.06.098.179.197.239.295 1.076-.591 1.974-1.38 2.632-2.315-.12-.05-.24-.148-.36-.197-.418.837-1.136 1.478-2.093 1.921.12.099.18.197.3.296a8.414 8.414 0 002.392-2.464c.12-.197-.18-.345-.359-.246-1.017.739-2.094 1.527-3.11 2.266l.298.246a46.41 46.41 0 012.573-1.97c.18-.099 0-.394-.24-.296-.957.296-1.734.74-2.392 1.38.12.098.239.148.359.246a5.976 5.976 0 011.794-1.478c-.12-.099-.18-.197-.299-.296-.418.296-.837.592-1.256.937.12.049.24.098.359.197.24-.493.538-.937.957-1.281.12-.148 0-.345-.24-.296a7.272 7.272 0 00-1.854.69c.06.098.18.197.24.295.359-.246.777-.492 1.136-.739.24-.147 0-.443-.24-.295-.358.246-.777.492-1.136.739-.239.148 0 .443.24.295a6.843 6.843 0 011.794-.69 1.037 1.037 0 00-.24-.295 4.478 4.478 0 00-1.076 1.478c-.06.197.24.296.36.197.418-.295.837-.591 1.255-.936.18-.148-.06-.394-.299-.296-.777.444-1.435.937-1.974 1.577-.12.148.18.394.359.246.598-.59 1.316-.985 2.154-1.28-.06-.1-.12-.198-.24-.296a46.37 46.37 0 00-2.572 1.97c-.18.148.12.395.3.247 1.016-.74 2.093-1.527 3.11-2.267-.12-.098-.24-.147-.36-.246a8.028 8.028 0 01-2.332 2.365c-.18.148.06.394.299.296 1.017-.493 1.735-1.183 2.213-2.07.12-.197-.239-.394-.359-.197-.598.887-1.435 1.626-2.452 2.168-.24.148 0 .443.239.296 1.496-.74 2.632-1.823 3.23-3.153.24-.099-.179-.197-.299.049zm.3-2.956c.299.148.598.345.897.493v.295c.06.197 0 .493.06.74.06.442.12.886.239 1.33.24.886.658 1.724 1.316 2.463.18.197.538 0 .36-.197-.958-1.084-1.377-2.267-1.496-3.597-.06-.591.12-1.38-.36-1.921-.598-.591-1.854-.148-1.435.591.18.197.538 0 .419-.197zm-23.032 9.558c-.24 2.71-.419 5.419-.658 8.178 0 .246.419.246.479 0 .239-2.71.418-5.42.658-8.178 0-.247-.479-.247-.479 0zm-8.136 21.431c1.436.197 2.871.098 4.247-.296.3-.099.18-.443-.12-.345a9.176 9.176 0 01-4.008.296c-.299-.05-.418.295-.12.345zm-.539 2.709c2.573.296 4.846 1.183 6.76 2.611.24.148.539-.098.3-.246-1.975-1.478-4.308-2.414-6.94-2.71-.3-.05-.419.296-.12.345zm5.803-22.12c-3.828-7.34-10.588-13.154-15.434-19.953-2.752-3.842-4.547-7.882-4.965-12.365-.24-2.365-.12-4.78-.12-7.144.06-2.07-.538-4.927.18-6.947.418-.886-1.317-1.28-1.616-.344-.658 1.773-.18 4.138-.239 6.01-.06 2.513-.12 5.025 0 7.538.24 4.286 1.615 8.277 3.948 12.07 4.846 7.685 12.503 13.893 16.75 21.923.42.838 1.975.099 1.496-.788zM5.623 79.713c.12 2.463-.06 4.926-.718 7.39-.239.936 1.496 1.33 1.735.394.658-2.562.898-5.124.778-7.784-.06-.936-1.855-.936-1.795 0zm40.979-27.638c-2.274 2.463-3.051 5.468-2.453 8.523.18.936 1.914.541 1.735-.395-.539-2.66.299-5.222 2.273-7.39.718-.788-.837-1.477-1.555-.739z"/><path d="M46.96 55.621c-.06.789 0 1.528.12 2.316.12.788 1.436 1.035 1.735.197.3-.69.18-1.182-.18-1.823-.239-.394-1.076-.492-1.435-.148-.479.493-.838.936-1.017 1.577.598.148 1.137.246 1.735.394.24-.936.12-1.774-.479-2.66-.419-.69-1.615-.345-1.675.394 0 .542-.06 1.133-.06 1.675H47.5V55.72c0-.837-1.555-1.035-1.735-.197-.24.837-.359 1.626-.299 2.512.06.937 1.795.937 1.795 0-.06-1.034-.06-2.02-.12-3.054 0-.591-1.017-1.035-1.555-.542-1.077 1.133-1.616 2.414-1.436 3.843.12.936 1.675.936 1.795 0 .239-1.724.957-3.301 2.213-4.73-.538-.148-1.136-.246-1.675-.394.12.887.12 1.675-.12 2.513.599.049 1.197.148 1.735.197 0-.591 0-1.183.06-1.774 0-.936-1.735-.936-1.795 0-.06.591.24 1.035.898 1.281.778.296 1.735-.295 1.256-1.035-.359-.541-.837-.739-1.555-.788-.36-.049-.778.247-.838.542-.359 1.33-1.256 3.301-.538 4.631.538.986 1.914 1.38 3.11.838.599-.296.539-.986 0-1.281a3.394 3.394 0 00-2.512-.246c-.838.197-.897 1.231 0 1.428.18.05.359.099.538.099.42.098 1.017-.099 1.077-.493a3.6 3.6 0 000-1.133c-.06-.246-.359-.443-.598-.493-.479-.098-.598-.098-1.077-.098-.419 0-.778.197-.837.542-.12.443-.12.64-.06 1.084.598-.148 1.136-.247 1.735-.395-.18-.739-.957-1.231-1.915-1.034-.957.197-1.376.936-1.376 1.724 0 .591.778.887 1.376.64 1.257-.541 1.735-1.576 1.974-2.709.18-1.035.36-1.774 1.017-2.66.42-.542.659-.936.599-1.577-.06-.69-1.257-1.084-1.675-.394-.18.394-.479.64-.898.837-1.017.493-.06 1.774.898 1.281.718-.345 1.196-.739 1.555-1.38-.538-.147-1.137-.245-1.675-.393.06.591-.538.936-.897 1.428-.3.444-.479.887-.539 1.33-.239.986-.06 2.316-1.316 2.858.479.197.898.444 1.376.64-.06-.098-.18-.196-.24-.246.24.936 1.915.542 1.736-.394 0-.098 0-.197.06-.295-.3.197-.599.344-.838.542.18 0 .419 0 .598.049l-.598-.493v.345c.359-.148.718-.345 1.077-.493a2.069 2.069 0 00-.539-.098v1.428a1.182 1.182 0 011.077.099v-1.28c-.957.443-.419-1.824-.359-1.922.18-.64.3-1.281.479-1.872-.3.197-.598.345-.838.542v.049l1.257-1.035h-1.855c0 .591 0 1.183-.06 1.774 0 .837 1.556 1.034 1.735.197.24-.985.3-1.921.18-2.907-.12-.739-1.137-.985-1.676-.394-1.435 1.675-2.213 3.449-2.452 5.469h1.794c-.12-1.035.06-1.971.898-2.809-.539-.197-1.017-.344-1.556-.541.06 1.034.06 2.02.12 3.054h1.795c-.06-.739 0-1.38.18-2.118-.599-.05-1.197-.148-1.736-.198v1.823c0 .936 1.735.936 1.795 0 0-.542.06-1.133.06-1.675-.538.148-1.137.247-1.675.394.299.493.419.936.299 1.478-.24.936 1.436 1.33 1.735.395.06-.345.24-.641.538-.937l-1.436-.147v.69c.599.049 1.197.147 1.735.196-.12-.788-.18-1.527-.12-2.315.18-.887-1.614-.838-1.674.098z"/></g><defs><clipPath id="clip0"><path fill="#fff" d="M0 0h81v94H0z"/></clipPath></defs></svg>