<svg width="36" height="34" fill="none" xmlns="http://www.w3.org/2000/svg"><path d="M2.165 13.481c2.792 4.432 6.57 7.88 11.333 10.67-1.15.328-3.45 1.642-4.763 4.432-4.928-3.775-5.913-10.341-6.57-15.102zm1.15-2.79c3.777-2.955 8.87-7.059 15.11-6.566-.985 2.954-.164 5.58.493 6.402-5.42-1.15-10.676-1.15-15.603.164zM1.18 12.496c-2.957 7.88-.165 16.58 6.24 21.504.986-3.283 3.45-7.058 8.05-8.207a29.305 29.305 0 011.477-7.551l14.29 5.252c0 .165.164.493.328.493.165 0 .329 0 .493-.164l2.464.82c.164 0 .164.165.164.493l-.164.492-.164.329-.329.164-.493-.164c-.328-.165-.821 0-.985.492-.164.328 0 .82.492.985l.493.164c.822.328 1.478 0 1.971-.656.165-.165.329-.493.329-.657.164-.328.164-.492.164-.82 0-.822-.328-1.642-1.15-1.97l-2.463-.986c0-.164-.165-.328-.329-.492-.164 0-.328 0-.493.164l-14.29-5.253c.822-1.97 1.972-3.94 3.45-5.91-2.464-3.446-1.314-8.042.985-10.833C13.662-.964 5.287 3.304 1.837 11.183l-.657-.328c-.329-.164-.822 0-.986.492-.164.329 0 .821.493.985l.493.164z" fill="#fff"/></svg>