<svg width="76" height="74" fill="none" xmlns="http://www.w3.org/2000/svg"><path d="M4.57 29.058c5.895 9.537 13.87 16.954 23.926 22.959-2.427.706-7.282 3.531-10.056 9.536C8.038 53.429 5.958 39.301 4.57 29.058zm2.428-6.004c7.975-6.358 18.724-15.188 31.9-14.129-2.08 6.358-.346 12.01 1.04 13.775-11.442-2.472-22.538-2.472-32.94.354zM2.49 26.939c-6.241 16.954-.347 35.674 13.176 46.27 2.08-7.064 7.282-15.188 16.99-17.66.348-5.652 1.388-10.95 3.122-16.248l30.166 11.303c0 .353.347 1.06.694 1.06s.693 0 1.04-.354l5.201 1.766c.347 0 .347.353.347 1.06l-.347 1.06-.347.706-.693.353-1.04-.353c-.694-.354-1.734 0-2.08 1.06-.347.706 0 1.765 1.04 2.119l1.04.353c1.733.706 3.12 0 4.16-1.413.347-.353.694-1.06.694-1.413.347-.706.347-1.06.347-1.766 0-1.766-.694-3.532-2.427-4.238l-5.201-2.12c0-.353-.347-.706-.694-1.06-.347 0-.693 0-1.04.354L36.47 36.475c1.734-4.238 4.161-8.477 7.282-12.715-5.201-7.417-2.774-17.307 2.08-23.311-16.99-2.473-34.674 6.71-41.956 23.664l-1.387-.706c-.693-.353-1.734 0-2.08 1.06-.347.706 0 1.766 1.04 2.119l1.04.353z" fill="#fff"/></svg>