<svg width="39" height="40" fill="none" xmlns="http://www.w3.org/2000/svg"><path d="M0 10.928c0-5.523 4.477-10 10-10h18.97c5.523 0 10 4.477 10 10v18.763c0 5.523-4.477 10-10 10H10c-5.523 0-10-4.477-10-10V10.928z" fill="#4E759D"/><path fill-rule="evenodd" clip-rule="evenodd" d="M33.514 13.744v.391c-.117.3-.213.613-.357.904-.505 1.04-1.194 1.96-1.883 2.882-.653.874-1.307 1.748-1.947 2.634-.384.535-.353 1.022.065 1.53.122.153.261.292.4.43.724.723 1.474 1.414 2.167 2.161.666.718 1.355 1.44 1.555 2.456v.13c-.14.492-.497.683-.972.696-.614.022-1.233.035-1.847.052-.754.018-1.508.066-2.262.048-.819-.017-1.512-.395-2.083-.956-.536-.526-1.024-1.1-1.534-1.656-.34-.37-.675-.74-1.141-.952-.24-.109-.467-.1-.689.078a1.758 1.758 0 00-.645 1.095c-.082.444-.113.904-.144 1.357-.043.578-.3.9-.871.938-.601.04-1.203.014-1.804.027-1.486.034-2.846-.383-4.114-1.14-.884-.525-1.739-1.099-2.462-1.838-.897-.921-1.656-1.956-2.375-3.017a47.877 47.877 0 01-1.852-2.982c-.553-.965-1.046-1.965-1.547-2.96-.344-.656-.632-1.334-.937-2.004v-.391c.183-.287.458-.387.78-.391 1.308-.018 2.615-.044 3.918-.03.492.004.889.243 1.08.734.083.217.17.43.275.639.545 1.095 1.085 2.19 1.652 3.273.348.66.732 1.304 1.294 1.808.2.179.44.326.688.43.258.11.484-.025.632-.26.24-.391.28-.83.336-1.27.152-1.134.14-2.264-.022-3.399-.122-.852-.545-1.395-1.43-1.53-.178-.026-.195-.121-.06-.29.318-.392.732-.6 1.229-.675 1.159-.17 2.327-.17 3.494-.108.362.017.724.06 1.081.126.475.082.854.295.946.821.052.318.113.644.109.965-.018 1.326-.074 2.648-.083 3.973 0 .383.065.783.183 1.148.148.465.593.617.92.352.26-.213.522-.443.736-.704.837-1.022 1.516-2.152 2.105-3.334.34-.687.636-1.391.945-2.096.157-.36.41-.569.815-.569 1.124-.004 2.249-.004 3.377-.013.405-.004.815-.043 1.216-.026.414.026.854.043 1.063.513z" fill="#fff"/></svg>