<svg width="81" height="85" fill="none" xmlns="http://www.w3.org/2000/svg"><g clip-path="url(#clip0)" fill="#50483B"><path d="M34.202 77.09c3.029 2.713 7.049 2.814 10.894 2.522 4.572-.35 8.33-1.223 12.064-3.993 6.424-4.68 15.75-10.047 13.96-19.362-.852-4.367-3.859-7.945-6.236-11.6a147.374 147.374 0 01-7.626-13.313c-2.1-4.263-3.628-9.33-6.96-12.821-2.616-2.731-6.366-4.414-10.17-4.573-2.378-.125-6.778 1.64-8.285-.507-1.654-2.434-.08-5.643-.77-8.29-1.04-4.2-6.543-1.534-8.945-.283.373.178.795.366 1.158.593.115-2.329-2.18-3.87-4.335-3.08-2.933 1.092-3.11 4.483-2.41 7.08.167-.324.335-.648.454-.982-2.804.71-4.746 2.719-5.424 5.547-.08.393.185.856.588.887 3.144.383 8.607 4.46 6.905 8.053-1.08 2.542-3.916 4.165-5.456 6.46-3.388 5.092-.427 10.655 2.617 15.06 3.709 5.407 5.508 11.655 8.912 17.308 1.72 2.856 3.62 5.595 5.291 8.441.949 1.625 1.848 3.24 2.57 4.972.342.837.535 1.9 1.29 2.462.265.207.609.277.904.081l.296-.195c.295-.196.424-.579.278-.865-.03-.108-.068-.167-.098-.275-.272-.925-1.699-.448-1.426.477.029.108.068.167.097.276.109-.285.218-.57.278-.865l-.296.196c.354.02.659.032.964.042-.755-.562-1.25-2.658-1.64-3.504a88.282 88.282 0 00-2.572-4.717c-1.72-2.856-3.62-5.595-5.282-8.49-1.936-3.309-3.163-6.832-4.716-10.267-1.298-2.924-3.257-5.368-4.959-8.067-2.279-3.634-3.68-8.062-.877-11.789 1.609-2.128 3.934-3.753 5.288-6.137 2.55-4.494-3.863-9.685-7.95-10.209l.586.887c.568-2.289 2.165-3.857 4.428-4.42.433-.117.582-.598.455-.982-.32-1.19-.621-2.479.07-3.617.12-.845.663-1.246 1.616-1.155 1.29-.812 1.967-.367 2.129 1.353-.022.61.705.809 1.158.594 2.068-1.114 5.829-3.01 6.723.394.456 1.781-.376 3.862.021 5.682.543 2.361 2.19 4.077 4.677 3.917 1.918-.122 3.64-.794 5.566-.71 2.025.105 4.009.661 5.815 1.591 4.25 2.245 6.026 6.34 7.9 10.454a146.035 146.035 0 0011.761 20.906c2.398 3.556 4.843 7.378 4.092 11.829-.81 4.745-4.564 7.359-8.141 10.11-3.823 2.957-7.55 6.445-12.477 7.285-4.397.743-10.288 1.54-13.875-1.695-.57-.474-1.566.654-.88 1.305z"/><path d="M17.396 9.023l.04.06c.039.059.137.078.186.088.787-.095 1.488-1.283 2.09-1.723 1.083-.803 2.608-1.005 3.906-1.354-.088-.07-.186-.09-.274-.159l.01-.049c-.178.118.008.462.195.296l.06-.04c.058-.038.068-.088.088-.186l.02-.098c-.029-.108-.117-.177-.274-.158-1.132.281-2.4.484-3.434 1.041-.286.147-2.464 1.801-2.297 1.988-.128-.128-.423.068-.316.294zM19.53 5.57c-.05.245-.237.667.037.825.177.139.442.09.62-.027.473-.313.417-1.296.202-1.75-.264-.462-.854-.582-1.16-.082-.326.6-.152 1.504.141 2.075.108.226.442.09.335-.137-.215-.452-.35-1.043-.241-1.583.04-.196.178-.373.414-.274.186.09.244.306.264.463.029.108-.004 1.278-.396.942.039.06.029.109.068.168l.12-.59c-.01-.206-.402-.286-.403-.03zm1.198 16.508c.795-2.907 2.828-5.358 5.73-6.303 2.46-.779 4.591.064 7.079-.096.206-.009.217-.314.02-.354l-.638-.13c-.246-.05-.316.294-.08.393-2.79-.618-5.128-.94-7.757.419-2.403 1.25-3.973 3.438-4.708 6.05-.09.187.255.257.354.021zm-.895-3.148c.822-5.05 5.968-6.715 10.46-6.416.255 0 .227-.363-.028-.364-4.65-.28-9.973 1.502-10.776 6.71-.099.236.294.315.344.07z"/><path d="M20.683 20.79c1.654 2.178 5.518 5.316 8.277 3.064 1.104-.901 4.803-8.282 2.977-8.858-.236-.099-.316.294-.08.393 1.001.357-2.067 7.15-2.777 7.875-2.574 2.597-6.447-.492-8.102-2.67-.117-.177-.462.01-.295.197zM34.16 74.78c4.737 6.64 12.676 1.554 17.954-1.517 1.862-1.105 3.606-2.387 5.31-3.729 1.941-1.498 3.861-2.386 6.154-3.097 3.168-.992 5.562-2.705 7.174-5.6.069-.089-.01-.207-.098-.276-.137-.079-.324-.168-.461-.247-.226-.148-.404.225-.168.324 1 .612-3.03 3.834-3.454 4.157-1.34.802-2.795 1.171-4.271 1.638-2.962.984-4.973 2.826-7.485 4.617-2.818 2.036-5.939 3.55-9.099 5.005-1.467.674-3.043 1.632-4.704 1.755-2.537.15-5.079-1.186-6.508-3.215-.166-.188-.462.008-.344.185z"/><path d="M36.559 74.552A217.526 217.526 0 0022.441 46.62c-1.34-2.216-2.739-4.393-4.089-6.56-.733-1.172-1.467-2.344-1.758-3.682-.562-2.518.711-4.254 2.221-6.147.691-.882 1.442-2.06 2.26-2.814 1.942-1.753 3-.413 4.836.113 1.208.348 2.487.097 3.58-.5 1.378-.742 2.356-2.027 3.136-3.352.613-1 .97-2.258 1.622-3.2 1.482-2.256 3.938-1.757 6.1-1.573 3.017.255 5.69.44 7.658 3.09 1.723 2.346 3.002 5.112 4.203 7.76 1.963 4.184 3.7 8.475 6.125 12.395 2.484 4.137 6.464 7.708 7.914 12.401 1.022 3.277.676 7.247-2.28 9.46-2.237 1.693-5.032 2.864-7.504 4.203a448.742 448.742 0 01-8.567 4.653c-2.806 1.475-8.352 5.36-11.143 1.98-.167-.187-.462.009-.296.196 3.036 3.686 8.484-.22 11.635-1.88 3.15-1.662 6.263-3.382 9.374-5.103 2.364-1.31 5.247-2.412 7.258-4.254 3.382-3.046 2.71-8.298.745-11.97-1.26-2.354-2.945-4.384-4.511-6.493-2.135-2.837-3.806-5.939-5.31-9.109-2.363-4.981-4.26-11.25-8.023-15.39-1.499-1.685-3.277-1.995-5.478-2.238-1.956-.193-4.677-.9-6.517-.148-2.293.966-2.796 4.444-4.187 6.259-1.52 1.941-3.578 3.006-6.063 2.143-.913-.287-1.746-.968-2.73-.912-1.819.141-2.877 2.33-3.893 3.556-1.649 2.069-3.277 4.04-2.666 6.823.591 2.627 2.658 5.042 4.047 7.268a226.916 226.916 0 015.672 9.592 223.31 223.31 0 0110.412 21.502c.059.216.442.09.335-.137z"/><path d="M35.688 73.3c1.68.29 2.955 1.317 4.23 2.343.176.139.432-.116.256-.254-1.314-1.086-2.687-2.132-4.406-2.481-.197-.04-.276.353-.08.392zm.132-1.405c-.128-.128-.245-.305-.372-.433-.07.088-.139.176-.257.254 2.042.774 3.858 1.91 5.386 3.448.167.187.433-.117.257-.255-1.578-1.548-3.383-2.733-5.475-3.516-.186-.09-.324.087-.256.254.186.345.097.276.46.503.216.197.482-.107.257-.255zm-1.34-2.471l-.245-.05c-.245-.05-.315.294-.08.393 1.415.339 2.68 1.414 3.906 2.175 1.216.81 2.492 1.58 3.708 2.39.226.148.355-.235.169-.324-1.404-.899-2.855-1.807-4.258-2.706-1.139-.692-2.188-1.57-3.504-1.889l-.08.393.246.05c.305.01.384-.382.139-.432zm-1.242-1.685c3.415 1.82 6.781 3.629 10.196 5.448.236.1.404-.225.168-.324-3.415-1.82-6.781-3.629-10.196-5.448-.226-.148-.394.176-.168.324zm-.161-1.976c4.222 1.625 7.544 4.909 11.766 6.534.236.099.404-.225.168-.324-4.222-1.625-7.544-4.909-11.766-6.534-.226-.148-.404.225-.168.324zm-.737-3.168c4.899 1.814 9.48 5.2 13.963 7.8.226.148.404-.225.169-.325-4.485-2.599-9.065-5.985-13.965-7.799-.235-.099-.403.225-.168.324zm-2.768-4.756c3.082 1.7 6.114 3.39 9.195 5.09 1.472.811 2.895 1.612 4.367 2.422 1.56.88 3.839 1.752 4.915 3.25.167.187.462-.008.296-.196-1.684-2.286-5.278-3.476-7.663-4.83-3.63-2.017-7.31-4.044-10.942-6.06-.225-.148-.393.175-.168.324zm-2.282-5.63c6.648 5.29 13.928 9.735 21.644 13.298.235.1.404-.225.168-.324a107.914 107.914 0 01-21.556-13.23c-.177-.138-.433.117-.256.255zm-4.08-6.099c8.424 6.112 17.097 11.762 26.045 17.059.226.148.404-.225.169-.324a341.416 341.416 0 01-25.958-16.989c-.177-.138-.433.117-.257.255zm-2.044-3.535A418.195 418.195 0 0051.273 62.3c.226.148.404-.225.169-.324C41.129 55.839 31.102 49.3 21.383 42.26c-.177-.138-.443.166-.217.314zm-1.171-3.05a383.626 383.626 0 0030.108 19.724c.226.148.404-.225.168-.324C39.95 52.838 29.933 46.25 20.251 39.27c-.166-.188-.432.116-.256.255zm-2.103-3.241C27.612 43.323 37.628 49.91 48 56.008c.225.148.404-.225.168-.324-10.323-6.087-20.339-12.675-30.02-19.655-.225-.148-.482.107-.256.255zm.339-1.67c9.72 7.039 19.746 13.578 30.108 19.724.226.148.404-.225.168-.324C38.194 47.878 28.168 41.34 18.448 34.3c-.176-.138-.442.166-.217.314zm.339-1.67c9.73 6.99 19.747 13.578 30.108 19.724.226.148.404-.225.169-.324-10.323-6.087-20.34-12.675-30.02-19.655-.216-.197-.482.107-.256.255zm.42-2.064a393.783 393.783 0 0030.098 19.774c.225.148.403-.225.168-.324-10.323-6.087-20.339-12.675-30.02-19.655-.215-.197-.472.058-.246.206zm1.87-.642c8.288 6.032 16.477 12.044 25.288 17.261.226.148.404-.224.168-.324-8.762-5.207-16.951-11.22-25.25-17.202-.166-.187-.432.117-.206.265zm1.122-.488c7.846 5.686 15.86 11.049 24.162 16.01.226.148.404-.225.168-.324-8.301-4.96-16.217-10.304-24.074-15.941-.176-.138-.433.117-.256.255zm.543-.913c7.533 5.47 15.284 10.37 23.27 15.113.226.148.404-.225.169-.324-7.997-4.694-15.689-9.633-23.231-15.053-.118-.178-.384.126-.208.264zm1.515-.408c7.043 5.114 14.254 9.648 21.74 14.085.226.148.404-.225.169-.324-7.439-4.427-14.649-8.96-21.691-14.075-.187-.089-.443.166-.217.314zm2.653.539c6.375 4.62 12.88 8.602 19.641 12.585.226.148.404-.225.168-.324-6.711-3.973-13.216-7.954-19.493-12.555-.236-.099-.492.156-.316.294zM14.895 13.783c3.162 1.052 5.47 5.05 7.181 7.7.118.177.462-.009.296-.196-1.79-2.768-4.098-6.766-7.397-7.897-.246-.05-.326.343-.08.393z"/><path d="M15.664 13.019c3.259 1.583 5.097 4.616 6.887 7.64.107.226.462-.009.295-.196-1.78-3.073-3.706-6.175-7.014-7.768-.186-.09-.355.235-.168.324z"/><path d="M16.942 13.023c2.107 1.962 3.91 4.17 5.514 6.593.117.178.462-.008.295-.195-1.604-2.424-3.445-4.69-5.553-6.653-.215-.197-.433.116-.256.255zm4.212 7.71c.05-.246-.343-.326-.392-.08-.05.246.343.325.392.08z"/><path d="M20.732 20.8c.05-.245.67-.784.829-1.059.168-.324.346-.697.514-1.02.77-1.276 1.746-2.05 3.134-2.586 1.998-.77 4.438-1.451 6.5-.776.246.05.316-.294.08-.393-2.357-.735-5.387.082-7.553 1.176-1.536.762-3.4 2.89-3.612 4.687a.215.215 0 00.156.237l.098.02a.216.216 0 00.237-.157l.01-.049c.05-.245-.343-.325-.393-.08z"/><path d="M22.731 22.537c-.105-.738-.25-1.535-.356-2.272-.058-.217-.412-.238-.364.028.106.738.25 1.534.357 2.272.009.206.422.188.363-.028zm1.285.977c-.46-.758-.8-1.595-1.093-2.422-.058-.216-.442-.09-.335.137.283.876.673 1.722 1.133 2.48.107.227.403.031.295-.195zm1.237.711c-.715-.759-1.243-1.684-1.594-2.728-.058-.216-.442-.09-.334.137.34 1.092.917 2.028 1.672 2.846.166.188.384-.126.256-.255z"/><path d="M26 24.326c-.775-.72-1.253-1.636-1.555-2.669-.058-.216-.432-.139-.335.137a6.395 6.395 0 001.623 2.836c.177.138.433-.117.267-.304z"/><path d="M26.697 24.417a4.407 4.407 0 01-1.555-2.669c-.058-.216-.412-.237-.363.028a4.811 4.811 0 001.652 2.945c.235.099.443-.166.266-.304zm.659-.224a3.85 3.85 0 01-1.28-2.511c.001-.256-.412-.237-.363.028.144 1.053.613 2.017 1.387 2.737.167.188.433-.116.256-.254zm-6.24-3.519c1.027-1.786 2.722-3.078 4.759-3.534.216-.058.139-.432-.137-.335-2.105.544-3.908 1.866-4.956 3.75-.128.127.195.295.334.119z"/><path d="M21.284 20.094c.87-1.767 1.996-3.277 3.524-4.5.187-.167-.009-.463-.196-.296a13.76 13.76 0 00-3.652 4.628c-.148.226.176.394.324.168zm-.655-.798a12.812 12.812 0 013.166-3.5c.187-.166-.008-.462-.196-.295a15.148 15.148 0 00-3.304 3.676c-.138.176.245.305.334.119z"/><path d="M20.335 18.725c.05.01.148.03.256 0-.127-.128 1.018-1.736 1.087-1.824.415-.53.829-1.06 1.332-1.52.187-.167-.117-.433-.255-.256-.7.676-1.322 1.47-1.855 2.334-.228.363-.898 1.147-.516 1.531.088.07.196.04.255.001l.01-.049c.09-.186-.165-.443-.314-.217z"/><path d="M20.405 18.381c.418-1.552 1.532-2.758 3.018-3.274.217-.058.09-.442-.136-.335-1.653.585-2.837 1.879-3.285 3.578-.03.148.314.217.403.031z"/><path d="M20.348 17.909c.665-2.269 2.783-3.629 5.112-3.258.245.05.325-.343.08-.393-2.535-.361-4.83 1.116-5.536 3.581-.09.187.304.267.344.07z"/></g><defs><clipPath id="clip0"><path fill="#fff" transform="rotate(-78.512 43.728 35.735)" d="M0 0h72.931v67.567H0z"/></clipPath></defs></svg>