<svg width="67" height="71" fill="none" xmlns="http://www.w3.org/2000/svg"><path d="M24.026 57.168c1.518 2.364 4.09 3.175 6.61 3.691 2.998.614 5.556.729 8.4-.422 4.877-1.922 11.732-3.766 12.06-10.29.147-3.06-1.22-5.995-2.169-8.864a107.343 107.343 0 01-2.792-10.263c-.674-3.222-.852-6.873-2.44-9.81-1.25-2.3-3.396-4.112-5.819-4.922-1.51-.523-4.623-.163-5.252-1.87-.677-1.924.845-3.766.822-5.653 0-2.985-3.966-2.23-5.711-1.844.212.188.453.39.65.61.445-1.528-.787-2.977-2.3-2.85-2.06.182-2.714 2.404-2.677 4.26.16-.184.32-.368.45-.568-1.918-.048-3.487.928-4.373 2.684-.114.246-.017.603.237.698 1.963.836 4.83 4.557 3.164 6.63-1.098 1.492-3.182 2.046-4.538 3.287-2.99 2.758-1.968 7.004-.709 10.495 1.527 4.282 1.692 8.768 2.984 13.156.654 2.217 1.44 4.389 2.064 6.59.352 1.256.674 2.496.864 3.782.087.619.042 1.36.439 1.875.137.186.347.297.569.221l.22-.075c.222-.076.366-.306.317-.523-.001-.078-.017-.124-.019-.202-.028-.665-1.022-.612-.994.054.002.077.018.123.019.2.116-.168.23-.337.316-.522l-.221.075c.224.08.419.143.613.206-.396-.513-.382-1.998-.499-2.633a64.244 64.244 0 00-.904-3.611c-.654-2.217-1.44-4.39-2.05-6.622-.72-2.558-.95-5.127-1.404-7.698-.37-2.184-1.242-4.171-1.909-6.28-.889-2.838-1.087-6.041 1.31-8 1.373-1.117 3.127-1.767 4.378-3.102 2.355-2.516-.947-7.153-3.494-8.258l.237.698c.728-1.416 2.006-2.163 3.551-2.119.297.003.47-.29.45-.568-.018-.85-.006-1.763.62-2.392.211-.54.624-.706 1.223-.469.96-.3 1.324.12 1.155 1.294-.11.401.325.668.65.609 1.509-.359 4.23-.923 4.265 1.506.01 1.268-.856 2.498-.89 3.781-.025 1.67.762 3.115 2.388 3.47 1.253.273 2.468.144 3.695.557A9.799 9.799 0 0141.07 19.3c2.378 2.279 2.87 5.33 3.423 8.412a106.323 106.323 0 004.246 16.075c.978 2.807 1.944 5.8.753 8.62-1.276 3.005-4.107 4.048-6.846 5.215-2.93 1.259-5.883 2.888-9.188 2.535-2.947-.32-6.865-.88-8.66-3.694-.29-.42-1.11.145-.773.705z" fill="#50483B"/><path d="M24.428 8.79l.016.047c.016.047.076.078.106.094.52.081 1.159-.577 1.615-.758.823-.332 1.834-.185 2.724-.177-.046-.062-.106-.094-.152-.156l.014-.03c-.132.044-.068.307.08.231l.043-.015c.045-.015.059-.045.087-.107l.029-.061c-.002-.078-.048-.14-.152-.156-.771-.022-1.618-.122-2.37.057-.207.044-1.868.74-1.79.895-.062-.109-.283-.033-.25.137zm1.936-1.904c-.072.154-.26.4-.108.557.092.125.271.142.404.097.355-.121.476-.787.41-1.129-.098-.358-.459-.547-.736-.27-.306.339-.338.974-.24 1.41.034.17.271.141.238-.03-.067-.341-.06-.76.097-1.1.057-.124.174-.216.31-.106.107.094.11.25.097.358.002.077-.206.851-.406.555.016.046.002.077.018.124l.171-.37c.027-.14-.214-.267-.255-.096zm-1.99 11.203c.972-1.781 2.666-3.032 4.68-3.123 1.703-.062 2.937.89 4.56 1.242.134.032.189-.168.069-.23l-.39-.204c-.15-.079-.249.136-.113.246-1.693-.925-3.144-1.57-5.047-1.154-1.741.386-3.096 1.547-3.983 3.143-.086.108.123.218.224.08zm-.044-2.257c1.33-3.201 4.903-3.356 7.743-2.327.164.047.203-.2.04-.247-2.945-1.045-6.65-.845-7.993 2.465-.101.138.139.263.21.11z" fill="#50483B"/><path d="M24.542 17.235c.718 1.753 2.704 4.552 4.837 3.566.853-.395 4.404-4.614 3.321-5.334-.136-.11-.25.136-.114.246.588.422-2.465 4.368-3.037 4.718-2.067 1.25-4.067-1.518-4.786-3.271-.047-.14-.298-.08-.22.075zm-.414 38.426c1.986 5.271 7.886 3.364 11.759 2.303 1.37-.389 2.691-.917 3.998-1.492 1.483-.634 2.855-.87 4.439-.917 2.19-.074 3.997-.768 5.49-2.389.058-.045.026-.138-.02-.2-.075-.078-.18-.171-.256-.249-.121-.14-.295.075-.16.184.546.59-2.55 1.981-2.874 2.117-.986.285-1.979.261-3 .299-2.056.105-3.638.955-5.534 1.679-2.13.83-4.372 1.257-6.63 1.639-1.048.176-2.211.52-3.297.295-1.65-.368-3.07-1.72-3.665-3.328-.077-.155-.298-.08-.25.06z" fill="#50483B"/><path d="M25.9 55.932a158.155 158.155 0 00-4.645-21.176c-.51-1.72-1.064-3.426-1.588-5.116-.286-.915-.572-1.83-.546-2.773.038-1.777 1.134-2.696 2.406-3.674.584-.46 1.255-1.103 1.901-1.453 1.528-.806 1.996.28 3.094.97.722.455 1.584.524 2.382.33 1.005-.239 1.838-.912 2.551-1.648.553-.552.983-1.321 1.552-1.827 1.312-1.225 2.813-.44 4.175.083 1.9.727 3.59 1.345 4.436 3.47.736 1.878 1.12 3.953 1.471 5.935.598 3.144 1.033 6.317 1.971 9.371.941 3.209 2.935 6.318 3.122 9.706.137 2.367-.717 4.942-2.97 5.865-1.709.713-3.694.974-5.497 1.407a281.141 281.141 0 01-6.25 1.507c-2.04.462-6.227 2.019-7.485-.745-.078-.155-.299-.08-.222.076 1.368 3.011 5.494 1.423 7.785.902 2.291-.522 4.567-1.09 6.843-1.657 1.728-.434 3.759-.633 5.345-1.485 2.66-1.4 3.062-5.014 2.382-7.819-.438-1.797-1.199-3.458-1.871-5.149-.923-2.28-1.505-4.651-1.97-7.037-.728-3.748-.953-8.264-2.716-11.712-.696-1.398-1.791-1.933-3.169-2.501-1.227-.49-2.866-1.463-4.17-1.304-1.628.218-2.504 2.437-3.688 3.385-1.287 1.01-2.78 1.337-4.241.304-.542-.36-.97-.967-1.612-1.112-1.192-.242-2.221 1.017-3.07 1.644-1.39 1.07-2.75 2.079-2.8 4.042-.036 1.855.91 3.842 1.45 5.579a165.154 165.154 0 012.125 7.424 162.305 162.305 0 013.283 16.217c.003.154.27.141.237-.03z" fill="#50483B"/><path d="M25.354 55.141c1.027.498 1.68 1.407 2.332 2.317.09.123.295.002.204-.121-.668-.956-1.38-1.896-2.423-2.44-.12-.062-.233.182-.113.244zm.313-.917c-.061-.107-.108-.246-.17-.354a.66.66 0 01-.204.121 10.538 10.538 0 012.9 3.26c.077.154.295.003.204-.12-.764-1.31-1.731-2.423-2.945-3.322-.105-.093-.221-.002-.204.12.064.262.019.2.215.416.107.17.325.018.204-.12zm-.451-1.888l-.15-.078c-.148-.078-.247.136-.112.244.85.482 1.489 1.422 2.153 2.148.65.756 1.343 1.498 1.992 2.254.121.139.264-.09.16-.183-.756-.849-1.54-1.714-2.295-2.563-.618-.663-1.15-1.434-1.941-1.885l-.113.244.149.078c.193.063.306-.181.157-.26zm-.513-1.355c1.894 1.821 3.759 3.626 5.653 5.447.134.108.293-.074.158-.182-1.894-1.821-3.758-3.626-5.652-5.447-.12-.139-.28.044-.159.182zm.221-1.353c2.44 1.841 4.044 4.61 6.485 6.45.135.109.293-.074.158-.182-2.44-1.841-4.044-4.61-6.484-6.45-.12-.14-.293.074-.159.182zm.052-2.253c2.844 2.089 5.235 5.154 7.689 7.684.12.139.293-.074.158-.182-2.454-2.53-4.845-5.596-7.688-7.685-.135-.108-.294.075-.159.183zm-.988-3.676c1.7 1.683 3.371 3.35 5.071 5.033.813.802 1.595 1.59 2.408 2.392.858.865 2.176 1.855 2.627 3.038.077.154.297.08.22-.075-.715-1.813-2.823-3.253-4.133-4.58-2.001-1.992-4.033-4-6.034-5.99-.12-.14-.28.043-.159.182zm-.531-4.176a74.67 74.67 0 0011.732 12.72c.135.108.294-.075.16-.183A75.761 75.761 0 0123.66 39.402c-.09-.123-.295-.002-.204.121zm-1.607-4.805a235.412 235.412 0 0013.957 16.013c.121.139.294-.074.16-.183a240.666 240.666 0 01-13.913-15.95c-.091-.124-.295-.003-.204.12zm-.728-2.729a294.79 294.79 0 0016.133 18.514c.12.139.293-.075.158-.183-5.623-5.933-11-12.079-16.103-18.498-.09-.124-.31.028-.188.167zm-.238-2.252a270.435 270.435 0 0016.133 18.514c.12.14.294-.074.159-.182a275.535 275.535 0 01-16.088-18.453c-.076-.154-.295-.002-.204.121zm-.8-2.542A266.064 266.064 0 0036.217 45.71c.12.139.293-.075.158-.183a275.555 275.555 0 01-16.087-18.452c-.12-.139-.325-.018-.204.121zm.495-1.061a277.29 277.29 0 0016.133 18.514c.12.14.293-.074.158-.182-5.623-5.934-11-12.08-16.103-18.5-.09-.123-.31.03-.188.168zm.495-1.06a289.536 289.536 0 0016.133 18.514c.12.139.294-.074.159-.183a275.557 275.557 0 01-16.088-18.452c-.106-.17-.325-.018-.204.121zm.612-1.309a277.589 277.589 0 0016.118 18.544c.121.14.294-.074.159-.182a275.56 275.56 0 01-16.087-18.453c-.107-.169-.311-.048-.19.091zm1.312-.104c4.347 5.497 8.634 10.962 13.445 16.017.12.139.294-.075.159-.183-4.781-5.04-9.068-10.504-13.43-15.97-.076-.154-.295-.003-.174.136zm.806-.13c4.119 5.186 8.396 10.19 12.92 14.98.12.139.294-.075.159-.183-4.524-4.79-8.742-9.763-12.875-14.918-.09-.123-.295-.002-.204.121zm.504-.516c3.952 4.984 8.133 9.632 12.49 14.22.12.14.294-.074.159-.182-4.372-4.558-8.509-9.222-12.474-14.175-.047-.139-.266.013-.175.137zm1.042-.008c3.693 4.66 7.587 8.969 11.673 13.264.12.139.293-.075.158-.183-4.055-4.28-7.95-8.588-11.643-13.249-.105-.092-.31.029-.189.168zm1.609.826c3.345 4.212 6.875 8.027 10.568 11.89.12.139.294-.075.159-.183-3.663-3.847-7.193-7.662-10.48-11.843-.134-.108-.338.013-.247.136zm-4.966-12.252c1.862 1.28 2.709 4.354 3.388 6.425.047.139.297.08.22-.076-.71-2.163-1.557-5.237-3.494-6.595-.15-.078-.264.168-.114.246z" fill="#50483B"/><path d="M22.61 11.203c1.841 1.65 2.54 4 3.21 6.333.033.17.298.08.22-.075-.654-2.364-1.4-4.776-3.27-6.441-.105-.094-.265.09-.16.183z" fill="#50483B"/><path d="M23.432 11.43c1.042 1.69 1.849 3.487 2.495 5.39.047.14.298.08.22-.075-.645-1.903-1.468-3.746-2.51-5.436-.107-.17-.296-.003-.205.122zm1.44 5.914c.07-.154-.169-.28-.24-.125-.07.153.169.279.24.125z" fill="#50483B"/><path d="M24.588 17.243c.071-.153.555-.396.7-.55.16-.183.334-.398.493-.581.697-.704 1.447-1.037 2.423-1.137 1.405-.142 3.08-.143 4.298.685.15.078.249-.137.113-.246-1.397-.922-3.473-.94-5.037-.614-1.107.222-2.642 1.289-3.064 2.443-.028.061.003.154.063.185l.06.032c.06.031.148 0 .177-.06l.014-.031c.071-.154-.169-.28-.24-.126z" fill="#50483B"/><path d="M25.586 18.83c.05-.513.083-1.072.132-1.584-.003-.156-.229-.235-.24-.049-.05.512-.083 1.072-.132 1.584-.027.14.243.204.24.048z" fill="#50483B"/><path d="M26.243 19.71c-.175-.59-.262-1.21-.319-1.813-.003-.155-.27-.142-.237.029.043.635.16 1.27.335 1.86.033.17.255.095.221-.075zm.673.696a5.346 5.346 0 01-.592-2.108c-.003-.155-.27-.142-.237.029a5.4 5.4 0 00.624 2.2c.077.156.267-.012.205-.121z" fill="#50483B"/><path d="M27.376 20.605c-.384-.622-.547-1.32-.577-2.062-.003-.155-.255-.172-.236.029a4.65 4.65 0 00.593 2.185c.092.125.297.003.22-.152z" fill="#50483B"/><path d="M27.805 20.788a3.2 3.2 0 01-.576-2.062c-.003-.155-.227-.234-.239-.049-.072.804.152 1.61.596 2.263.136.11.31-.028.22-.152zm.458-.036a2.795 2.795 0 01-.426-1.907c.042-.17-.227-.234-.238-.049a3.298 3.298 0 00.458 2.078c.078.156.297.003.206-.122zm-3.405-3.488c.945-.997 2.242-1.543 3.625-1.47.148.002.158-.26-.035-.247-1.442-.028-2.812.517-3.786 1.576-.103.06.079.233.196.14z" fill="#50483B"/><path d="M25.063 16.914c.845-1.018 1.814-1.818 2.997-2.351.147-.077.068-.31-.08-.234a8.83 8.83 0 00-3.1 2.412c-.132.123.05.296.183.173zm-.286-.649a8.161 8.161 0 012.603-1.746c.147-.076.068-.31-.08-.233a9.647 9.647 0 00-2.72 1.838c-.117.092.11.25.197.141z" fill="#50483B"/><path d="M24.682 15.834a.36.36 0 00.165.048c-.062-.11.937-.972.995-1.018.353-.277.706-.553 1.105-.768.148-.076-.006-.31-.124-.218a7.729 7.729 0 00-1.573 1.214c-.205.2-.765.6-.579.928.046.063.12.063.165.048l.015-.03c.087-.109-.037-.328-.169-.204z" fill="#50483B"/><path d="M24.787 15.614c.517-.958 1.429-1.555 2.47-1.623.15.001.129-.278-.035-.249-1.16.083-2.13.727-2.69 1.776-.043.093.168.203.255.096z" fill="#50483B"/><path d="M24.828 15.273c.788-1.384 2.366-1.896 3.805-1.219.15.079.263-.168.113-.246-1.572-.71-3.283-.152-4.128 1.355-.087.107.153.233.21.11z" fill="#50483B"/></svg>