<svg width="64" height="45" fill="none" xmlns="http://www.w3.org/2000/svg"><g clip-path="url(#clip0)" fill="#F25384"><path d="M10.917 6.153V37.59c0 .853 1.365.853 1.365 0v-2.695c0-.853-1.365-.853-1.365 0v2.695c0 .853 1.365.853 1.365 0V6.153c0-.854-1.365-.854-1.365 0zM51.855 7.5v27.934c0 .853 1.364.853 1.364 0v-1.662c0-.853-1.364-.853-1.364 0v1.662c0 .853 1.364.853 1.364 0V7.5c0-.853-1.364-.853-1.364 0z"/><path d="M12.782 6.018c6.777-.45 13.555-.809 20.332-1.078 3.321-.135 6.642-.225 9.962-.314 1.638-.045 3.32-.09 4.958-.09.955 0 4.094-.54 4.822.09a4.887 4.887 0 01-.091-.809l.045-.045c.273.09.5.225.774.315-.046-.045-.046-.09-.091-.18-.364-.763-1.547-.09-1.183.674.045.045.045.09.09.18.137.269.501.359.774.314.41-.09.592-.18.773-.584.137-.27.137-.584-.09-.808-.683-.63-1.229-.494-2.138-.54-1.82-.044-3.64.046-5.413.09-3.867.045-7.642.135-11.417.27-7.37.27-14.784.629-22.153 1.123-.864.09-.864 1.437.046 1.392zm-.501 35.164l39.574-.943c.864 0 .864-1.347 0-1.347l-39.574.943c-.864.045-.864 1.392 0 1.347zm42.121-34.76A94.639 94.639 0 0162.5 1.257c.773-.449.09-1.616-.683-1.167-2.774 1.572-5.504 3.278-8.096 5.164-.682.494-.046 1.662.682 1.168z"/><path d="M61.407.988v39.97c0 .854 1.365.854 1.365 0V.988c0-.853-1.365-.853-1.365 0z"/><path d="M53.629 40.24c1.547.493 3.048.987 4.594 1.526 1.592.54 3.412.898 4.776 1.797.728.494 1.41-.674.682-1.168-1.319-.853-2.91-1.213-4.412-1.707-1.774-.584-3.502-1.167-5.276-1.751-.864-.27-1.228 1.033-.364 1.302zM10.234 5.48A94.658 94.658 0 002.138.313c-.774-.449-1.456.719-.683 1.168a79.44 79.44 0 018.097 5.165c.728.494 1.41-.674.682-1.168z"/><path d="M1.183 1.213v39.97c0 .853 1.364.853 1.364 0V1.213c0-.854-1.364-.854-1.364 0z"/><path d="M10.008 39.161c-1.774.584-3.503 1.168-5.277 1.752-1.5.494-3.093.853-4.412 1.707-.728.449-.046 1.616.682 1.167 1.41-.898 3.23-1.302 4.776-1.796 1.547-.494 3.048-.988 4.595-1.527.818-.27.454-1.572-.364-1.303zM9.552 45H54.13c.864 0 .864-1.347 0-1.347H9.552c-.864 0-.864 1.347 0 1.347zM5.049 7.05v17.067c0 .224.364.224.364 0V7.05c0-.225-.364-.225-.364 0zm1.138.225v22.23c0 .225.363.225.363 0V7.276c0-.224-.363-.224-.363 0zm2.273.45v25.598c0 .225.365.225.365 0V7.725c0-.225-.364-.225-.364 0zm-1.364.225v21.556c0 .225.364.225.364 0V7.95c0-.224-.364-.224-.364 0zm47.761-.225v22.23c0 .225.364.225.364 0V7.725c0-.225-.364-.225-.364 0zm1.82-.899v19.985c0 .225.364.225.364 0V6.826c0-.224-.364-.224-.364 0zm1.364-.449V19.85c0 .225.364.225.364 0V6.377c0-.224-.364-.224-.364 0zM47.852 35.659c-2.547-4.312-6.822-7.366-11.78-8.399-1.183-.27-2.411-.359-3.64-.359-1.41 0-2.456.314-3.911-.763-.546-.405-.956-1.078-1.456-1.527-1.865-1.617-4.185-2.336-6.596-2.38-.227 0-.227.314 0 .359 1.82-.045 3.457.314 5.004 1.212 1.365.809 2.092 2.156 3.366 3.01 1.456.942 3.593.314 5.231.448 5.595.54 10.598 3.773 13.464 8.533.136.18.41.045.319-.134z"/><path d="M38.482 27.665c.5-4.536-6.823-7.456-.819-11.453.182-.134 0-.404-.182-.269-1.683 1.123-3.047 2.65-2.502 4.76.637 2.56 3.503 4.132 3.185 6.962-.046.224.318.224.318 0zm.408-4.671c-.045-1.123 1.41-1.662 2.366-1.662 1.274.045.455 1.168-.09 1.482-.592.36-1.365.494-2.048.54-.227 0-.227.358 0 .358.91-.09 2.047-.314 2.73-.988.409-.404.682-1.167.09-1.572-.59-.404-1.546-.09-2.138.135-.727.315-1.319.854-1.273 1.662.045.27.364.27.364.045zm-9.323 5.569c-1.774-.224-3.503.988-3.866 2.74-.046.18.136.27.272.18 1.092-1.034 2.184-2.111 3.276-3.144.136-.135-.091-.405-.228-.225-1.092 1.033-2.183 2.11-3.275 3.144.09.045.182.09.273.18a3.202 3.202 0 013.548-2.47c.182-.046.182-.36 0-.405zm-4.687-7.321c.228 1.258 1.047 2.246 2.23 2.74.09.045.182.045.227-.045 1.046-1.752-2.32-2.2-2.365-3.548a.797.797 0 00-.228.18c2.138.314 3.821 2.11 3.867 4.266 0 .225.364.225.364 0a4.741 4.741 0 00-4.094-4.58c-.091 0-.228.044-.228.179.046.943.865 1.302 1.592 1.752.273.18.683.449.82.763.5 1.302-.592.36-.82.135a3.408 3.408 0 01-1.046-1.886c-.045-.27-.364-.18-.318.044zm12.738 8.174a1.722 1.722 0 00-1.593.404c-.318.27-.682.898-.272 1.258.409.404 1.046.045 1.455-.135.864-.45 1.683-1.033 2.456-1.617.182-.135-.09-.36-.227-.224-.728.538-1.456.988-2.229 1.437-.136.09-.318.18-.455.27-.09.044-.182.089-.318.134-.137-.18-.273-.404-.41-.584.046-.539 1.138-.629 1.456-.584.273 0 .364-.314.137-.359zm-15.375-7.814c-.5-2.425-3.138-2.605-5.185-2.515-.091 0-.182.09-.182.18-.273 3.412 5.276 2.963 7.232 2.245.228-.09.137-.404-.09-.315-1.775.63-4.095.899-5.777-.134-.455-.27-1.274-.898-.82-1.392.32-.36.729-.27 1.183-.225 1.502.09 2.957.674 3.276 2.29.045.18.409.09.363-.134z"/><path d="M36.617 16.976c-.637-.09.91-1.392 1.046-1.482.228-.18 1.092-1.033 1.365-1.078 1.319-.18.591 2.111.364 2.785-.91 2.38-3.184 3.727-5.686 3.682-.228 0-.228.315 0 .36 1.82 0 3.593-.629 4.867-2.021 1-1.078 2.138-3.503 1.455-4.985-.545-1.213-1.683.314-2.365.853-.273.225-2.73 1.976-1.092 2.245.182 0 .273-.314.046-.359z"/></g><defs><clipPath id="clip0"><path fill="#fff" d="M0 0h64v45H0z"/></clipPath></defs></svg>