<svg width="79" height="56" fill="none" xmlns="http://www.w3.org/2000/svg"><g clip-path="url(#clip0)" fill="#FF9103"><path d="M13.476 7.657v39.121c0 1.062 1.684 1.062 1.684 0v-3.353c0-1.062-1.684-1.062-1.684 0v3.354c0 1.061 1.684 1.061 1.684 0V7.657c0-1.062-1.684-1.062-1.684 0zm50.533 1.676v34.763c0 1.062 1.684 1.062 1.684 0v-2.068c0-1.062-1.684-1.062-1.684 0v2.068c0 1.062 1.684 1.062 1.684 0V9.333c0-1.062-1.684-1.062-1.684 0z"/><path d="M15.777 7.489a943.328 943.328 0 0125.098-1.341c4.099-.168 8.198-.28 12.297-.391 2.02-.056 4.098-.112 6.12-.112 1.179 0 5.053-.67 5.951.112-.056-.336-.112-.671-.112-1.006l.056-.056c.337.111.618.28.955.39-.056-.055-.056-.11-.113-.223-.449-.95-1.909-.111-1.46.839.057.056.057.111.113.223.168.336.617.447.954.391.506-.111.73-.223.955-.726.168-.335.168-.727-.112-1.006-.843-.783-1.516-.615-2.64-.67-2.245-.057-4.491.055-6.68.111a582.92 582.92 0 00-14.094.335c-9.096.336-18.248.783-27.344 1.398-1.067.111-1.067 1.788.056 1.732zM15.16 51.25l48.848-1.174c1.067 0 1.067-1.677 0-1.677L15.16 49.573c-1.067.056-1.067 1.732 0 1.676zM67.153 7.992a116.72 116.72 0 019.994-6.427c.954-.559.112-2.012-.842-1.453-3.425 1.956-6.794 4.08-9.995 6.427-.842.615-.056 2.068.843 1.453z"/><path d="M75.8 1.23v49.74c0 1.062 1.684 1.062 1.684 0V1.23c0-1.062-1.684-1.062-1.684 0z"/><path d="M66.198 50.076a227.19 227.19 0 015.67 1.9c1.966.67 4.212 1.118 5.896 2.236.899.614 1.74-.839.843-1.454-1.629-1.061-3.594-1.509-5.447-2.123-2.19-.727-4.323-1.453-6.513-2.18-1.067-.335-1.516 1.285-.45 1.62zM12.633 6.818C9.433 4.527 6.064 2.348 2.64.391c-.954-.559-1.797.894-.842 1.453a97.965 97.965 0 019.994 6.427c.899.615 1.74-.838.842-1.453z"/><path d="M1.46 1.509v49.74c0 1.062 1.684 1.062 1.684 0V1.51c0-1.062-1.684-1.062-1.684 0z"/><path d="M12.352 48.734c-2.19.727-4.323 1.454-6.513 2.18-1.853.615-3.818 1.062-5.446 2.124-.899.559-.056 2.012.842 1.453 1.74-1.118 3.987-1.62 5.896-2.236 1.909-.614 3.761-1.23 5.67-1.9 1.011-.335.562-1.956-.449-1.62zM11.791 56h55.025c1.067 0 1.067-1.677 0-1.677H11.791c-1.066 0-1.066 1.677 0 1.677zM6.232 8.774v21.238c0 .28.45.28.45 0V8.774c0-.279-.45-.279-.45 0zm1.404.28v27.665c0 .279.449.279.449 0V9.054c0-.28-.45-.28-.45 0zm2.807.559v31.856c0 .28.45.28.45 0V9.613c0-.28-.45-.28-.45 0zm-1.684.279v26.826c0 .28.449.28.449 0V9.892c0-.28-.45-.28-.45 0zm58.955-.279v27.664c0 .28.45.28.45 0V9.613c0-.28-.45-.28-.45 0zm2.246-1.118v24.87c0 .28.45.28.45 0V8.495c0-.28-.45-.28-.45 0zm1.684-.559v16.767c0 .279.45.279.45 0V7.936c0-.28-.45-.28-.45 0zM59.067 44.375a22.117 22.117 0 00-14.542-10.45c-1.46-.336-2.976-.448-4.492-.448-1.74 0-3.032.391-4.829-.95-.673-.503-1.179-1.341-1.796-1.9-2.302-2.012-5.166-2.906-8.142-2.962-.28 0-.28.39 0 .447 2.246-.056 4.268.391 6.177 1.509 1.684 1.006 2.582 2.682 4.154 3.744 1.797 1.174 4.436.392 6.457.56 6.907.67 13.083 4.694 16.62 10.618.169.224.505.056.393-.168z"/><path d="M47.501 34.427c.618-5.645-8.422-9.277-1.01-14.251.224-.168 0-.503-.225-.336-2.077 1.398-3.762 3.298-3.088 5.925.786 3.185 4.323 5.141 3.93 8.662-.056.28.393.28.393 0zm.505-5.812c-.056-1.397 1.74-2.068 2.92-2.068 1.572.056.561 1.453-.113 1.844-.73.447-1.684.615-2.526.67-.281 0-.281.448 0 .448 1.123-.112 2.526-.391 3.369-1.23.505-.503.842-1.453.112-1.956-.73-.503-1.91-.111-2.64.168-.898.391-1.627 1.062-1.571 2.068.056.335.449.335.449.056zm-11.51 6.93c-2.19-.28-4.323 1.23-4.772 3.41-.056.223.168.334.336.223 1.348-1.286 2.696-2.627 4.043-3.913.169-.167-.112-.503-.28-.279-1.348 1.285-2.696 2.627-4.043 3.912.112.056.224.112.337.224.449-2.012 2.358-3.354 4.38-3.074.224-.056.224-.447 0-.503zm-5.784-9.11c.281 1.565 1.292 2.795 2.752 3.41.112.055.224.055.28-.056 1.292-2.18-2.863-2.74-2.92-4.416-.112.056-.168.112-.28.224 2.639.391 4.716 2.627 4.772 5.31 0 .279.45.279.45 0-.056-2.851-2.19-5.31-5.054-5.701-.112 0-.28.056-.28.223.056 1.174 1.066 1.62 1.965 2.18.337.223.842.559 1.01.95.618 1.62-.73.447-1.01.168a4.252 4.252 0 01-1.292-2.348c-.056-.335-.449-.223-.393.056zm15.722 10.172c-.73-.168-1.403 0-1.965.503-.393.335-.842 1.118-.337 1.565.506.503 1.292.056 1.797-.168 1.067-.559 2.077-1.285 3.032-2.012.224-.168-.112-.447-.28-.28-.9.671-1.797 1.23-2.752 1.789-.169.112-.393.224-.562.335a2.746 2.746 0 01-.392.168c-.169-.224-.337-.503-.506-.727.056-.67 1.404-.782 1.797-.726.337 0 .449-.391.168-.447zm-18.977-9.725c-.618-3.018-3.874-3.241-6.401-3.13-.112 0-.225.112-.225.224-.337 4.248 6.514 3.689 8.928 2.794.28-.111.168-.503-.113-.39-2.19.782-5.053 1.117-7.13-.168-.562-.336-1.572-1.118-1.01-1.733.392-.447.898-.335 1.459-.28 1.853.112 3.65.839 4.043 2.85.056.224.505.113.449-.167z"/><path d="M45.199 21.126c-.786-.112 1.123-1.733 1.291-1.845.28-.223 1.347-1.285 1.684-1.34 1.629-.224.73 2.626.45 3.464-1.123 2.962-3.93 4.639-7.019 4.583-.28 0-.28.391 0 .447 2.246 0 4.436-.782 6.008-2.515 1.235-1.341 2.639-4.36 1.797-6.203-.674-1.51-2.078.39-2.92 1.061-.337.28-3.369 2.46-1.348 2.795.225 0 .337-.391.057-.447z"/></g><defs><clipPath id="clip0"><path fill="#fff" d="M0 0h79v56H0z"/></clipPath></defs></svg>