<svg width="48" height="34" fill="none" xmlns="http://www.w3.org/2000/svg"><g clip-path="url(#clip0)" fill="#F25384"><path d="M8.188 4.649V28.4c0 .645 1.023.645 1.023 0v-2.036c0-.644-1.024-.644-1.024 0V28.4c0 .645 1.024.645 1.024 0V4.65c0-.645-1.024-.645-1.024 0zm30.703 1.018v21.105c0 .645 1.024.645 1.024 0v-1.255c0-.645-1.024-.645-1.024 0v1.255c0 .645 1.024.645 1.024 0V5.667c0-.645-1.024-.645-1.024 0z"/><path d="M9.586 4.547a572.47 572.47 0 0115.25-.814c2.49-.102 4.98-.17 7.471-.238a135.6 135.6 0 013.719-.068c.716 0 3.07-.407 3.616.068-.034-.204-.068-.407-.068-.61l.034-.035c.204.068.375.17.58.238-.035-.034-.035-.068-.069-.136-.273-.577-1.16-.068-.887.509.035.034.035.068.069.136.102.203.375.271.58.237.307-.068.443-.135.58-.44.102-.204.102-.442-.069-.612-.511-.475-.92-.373-1.603-.407-1.365-.034-2.73.034-4.06.068-2.9.034-5.731.102-8.563.204-5.526.203-11.087.475-16.614.848-.648.068-.648 1.086.034 1.052zM9.21 31.116l29.68-.713c.65 0 .65-1.018 0-1.018l-29.68.713c-.647.034-.647 1.052 0 1.018zM40.802 4.852A70.93 70.93 0 0146.874.95c.58-.34.069-1.221-.511-.882-2.081 1.188-4.128 2.477-6.073 3.902-.512.373-.034 1.256.512.882z"/><path d="M46.056.746v30.2c0 .645 1.023.645 1.023 0V.746c0-.644-1.023-.644-1.023 0z"/><path d="M40.222 30.403c1.16.373 2.285.747 3.445 1.154 1.194.407 2.559.679 3.582 1.357.546.373 1.058-.509.512-.882-.99-.645-2.183-.916-3.309-1.29-1.33-.44-2.627-.882-3.957-1.323-.649-.203-.921.78-.273.984zM7.676 4.14A70.92 70.92 0 001.603.238c-.58-.34-1.091.542-.511.882a59.524 59.524 0 016.072 3.902c.546.373 1.058-.509.512-.882z"/><path d="M.887.916v30.2c0 .645 1.023.645 1.023 0V.916C1.91.271.887.271.887.916z"/><path d="M7.505 29.589c-1.33.44-2.627.882-3.957 1.323-1.126.373-2.32.645-3.31 1.29-.545.339-.033 1.221.512.882 1.058-.679 2.423-.984 3.583-1.358 1.16-.373 2.285-.746 3.445-1.153.614-.204.341-1.188-.273-.984zM7.164 34h33.433c.648 0 .648-1.018 0-1.018H7.164c-.648 0-.648 1.018 0 1.018zM3.787 5.327v12.894c0 .17.273.17.273 0V5.327c0-.17-.273-.17-.273 0zm.853.17v16.796c0 .17.273.17.273 0V5.497c0-.17-.273-.17-.273 0zm1.705.339v19.341c0 .17.273.17.273 0V5.837c0-.17-.273-.17-.273 0zm-1.023.17v16.288c0 .17.273.17.273 0V6.006c0-.17-.273-.17-.273 0zm35.821-.17v16.797c0 .17.273.17.273 0V5.836c0-.17-.273-.17-.273 0zm1.364-.678v15.1c0 .17.273.17.273 0v-15.1c0-.17-.273-.17-.273 0zm1.023-.34v10.18c0 .17.274.17.274 0V4.818c0-.17-.273-.17-.273 0zm-7.641 22.124a13.437 13.437 0 00-8.836-6.345c-.887-.204-1.808-.272-2.73-.272-1.057 0-1.841.238-2.933-.576-.41-.306-.716-.815-1.092-1.154-1.398-1.222-3.138-1.765-4.946-1.799-.171 0-.171.238 0 .272 1.364-.034 2.592.237 3.752.916 1.024.61 1.57 1.629 2.525 2.273 1.091.713 2.695.238 3.923.34 4.196.407 7.949 2.85 10.098 6.447.102.136.307.034.239-.102z"/><path d="M28.861 20.902c.376-3.427-5.117-5.633-.614-8.653.137-.101 0-.305-.136-.203-1.262.848-2.286 2.002-1.876 3.597.477 1.934 2.627 3.122 2.388 5.26-.034.169.238.169.238 0zm.307-3.529c-.034-.848 1.058-1.255 1.774-1.255.956.034.341.882-.068 1.12-.443.271-1.023.373-1.535.407-.17 0-.17.271 0 .271.682-.068 1.535-.237 2.047-.746.307-.306.512-.883.068-1.188-.444-.305-1.16-.068-1.603.102-.546.237-.99.645-.956 1.255.035.204.273.204.273.034zm-6.993 4.207c-1.33-.169-2.627.747-2.9 2.07-.034.137.102.204.205.137.818-.78 1.637-1.595 2.456-2.376.102-.102-.068-.305-.17-.17-.82.781-1.638 1.595-2.457 2.376.068.034.136.068.205.136a2.403 2.403 0 012.66-1.867c.137-.034.137-.271 0-.305zm-3.515-5.53c.171.95.785 1.697 1.672 2.07.069.034.137.034.171-.034.785-1.324-1.74-1.663-1.774-2.68a.6.6 0 00-.17.135c1.603.237 2.865 1.595 2.9 3.223 0 .17.272.17.272 0-.034-1.73-1.33-3.223-3.07-3.46-.068 0-.17.033-.17.135.033.713.647.984 1.193 1.323.205.136.512.34.614.577.376.984-.443.272-.614.102a2.581 2.581 0 01-.784-1.425c-.034-.204-.273-.136-.24.034zm9.553 6.176c-.443-.102-.853 0-1.194.305-.239.203-.512.678-.204.95.306.305.784.034 1.091-.102.648-.34 1.262-.78 1.842-1.221.137-.102-.068-.272-.17-.17a17.75 17.75 0 01-1.672 1.086c-.102.068-.239.135-.341.203a1.657 1.657 0 01-.239.102c-.102-.136-.204-.305-.307-.441.034-.407.853-.475 1.092-.441.204 0 .273-.238.102-.271zm-11.531-5.905c-.375-1.832-2.354-1.968-3.889-1.9a.146.146 0 00-.136.136c-.205 2.579 3.957 2.24 5.424 1.696.17-.067.102-.305-.068-.237-1.33.475-3.07.679-4.333-.102-.341-.203-.955-.678-.614-1.052.239-.271.546-.203.887-.17 1.126.069 2.218.51 2.456 1.731.035.136.307.068.273-.102z"/><path d="M27.463 12.826c-.478-.068.682-1.052.784-1.12.17-.135.82-.78 1.024-.814.99-.135.443 1.595.273 2.104-.683 1.798-2.388 2.816-4.265 2.782-.17 0-.17.238 0 .272 1.365 0 2.695-.475 3.65-1.527.751-.814 1.604-2.647 1.092-3.766-.41-.917-1.262.237-1.774.644-.204.17-2.047 1.493-.818 1.697.136 0 .204-.238.034-.272z"/></g><defs><clipPath id="clip0"><path fill="#fff" d="M0 0h48v34H0z"/></clipPath></defs></svg>