<svg width="46" height="34" fill="none" xmlns="http://www.w3.org/2000/svg"><g clip-path="url(#clip0)" fill="#FF9103"><path d="M7.847 5.342v23.054c0 .626.98.626.98 0V26.42c0-.626-.98-.626-.98 0v1.976c0 .626.98.626.98 0V5.342c0-.626-.98-.626-.98 0zm29.424.988v20.485c0 .626.98.626.98 0v-1.218c0-.626-.98-.626-.98 0v1.218c0 .626.98.626.98 0V6.33c0-.625-.98-.625-.98 0z"/><path d="M9.187 5.243a545.84 545.84 0 0114.614-.79c2.387-.099 4.773-.165 7.16-.23 1.177-.033 2.387-.066 3.564-.066.686 0 2.942-.396 3.465.066a3.654 3.654 0 01-.065-.593l.032-.033c.197.066.36.164.556.23-.032-.033-.032-.066-.065-.131-.262-.56-1.112-.066-.85.494.032.033.032.065.065.131.098.198.36.264.556.23.294-.065.425-.13.556-.427.098-.198.098-.428-.066-.593-.49-.461-.882-.362-1.536-.395-1.308-.033-2.616.033-3.89.066-2.78.032-5.493.098-8.207.197-5.296.198-10.625.461-15.922.824-.62.065-.62 1.053.033 1.02zm-.36 25.788l28.444-.692c.62 0 .62-.988 0-.988l-28.444.692c-.621.033-.621 1.02 0 .988zM39.102 5.54a67.861 67.861 0 015.819-3.788c.556-.33.065-1.185-.49-.856-1.995 1.153-3.956 2.404-5.82 3.787-.49.363-.033 1.219.49.857z"/><path d="M44.136 1.555v29.311c0 .626.981.626.981 0V1.555c0-.626-.98-.626-.98 0z"/><path d="M38.546 30.34a127.1 127.1 0 013.302 1.119c1.144.395 2.452.659 3.433 1.317.523.363 1.013-.494.49-.856-.948-.626-2.093-.89-3.171-1.251-1.275-.428-2.518-.857-3.793-1.285-.621-.197-.883.758-.261.955zM7.356 4.848a67.866 67.866 0 00-5.82-3.787c-.555-.33-1.046.527-.49.856a56.96 56.96 0 015.82 3.788c.523.362 1.013-.494.49-.857z"/><path d="M.85 1.72v29.31c0 .627.98.627.98 0V1.72c0-.626-.98-.626-.98 0z"/><path d="M7.193 29.549c-1.275.428-2.518.856-3.793 1.284-1.079.363-2.223.626-3.171 1.252-.523.33-.033 1.185.49.856 1.014-.659 2.322-.955 3.433-1.317 1.112-.363 2.19-.725 3.302-1.12.589-.198.327-1.153-.261-.955zm-.327 4.281h32.04c.62 0 .62-.988 0-.988H6.866c-.621 0-.621.988 0 .988zM3.629 6v12.516c0 .165.261.165.261 0V6c0-.165-.261-.165-.261 0zm.817.166v16.302c0 .165.262.165.262 0V6.166c0-.165-.262-.165-.262 0zm1.635.329v18.772c0 .165.262.165.262 0V6.495c0-.165-.262-.165-.262 0zM5.1 6.66v15.808c0 .165.262.165.262 0V6.66c0-.165-.262-.165-.262 0zm34.329-.165v16.302c0 .165.261.165.261 0V6.495c0-.165-.261-.165-.261 0zm1.307-.659v14.656c0 .165.262.165.262 0V5.836c0-.164-.262-.164-.262 0zm.981-.329v9.88c0 .165.262.165.262 0v-9.88c0-.165-.262-.165-.262 0zM34.394 26.98a12.887 12.887 0 00-8.468-6.159c-.85-.197-1.733-.263-2.616-.263-1.013 0-1.765.23-2.811-.56-.393-.296-.687-.79-1.046-1.12-1.34-1.185-3.008-1.712-4.741-1.745-.163 0-.163.23 0 .263 1.308-.033 2.485.23 3.596.89.981.592 1.504 1.58 2.42 2.206 1.046.692 2.582.23 3.76.33 4.02.395 7.617 2.766 9.677 6.257.098.131.294.033.229-.099z"/><path d="M27.659 21.118c.36-3.327-4.904-5.467-.589-8.398.131-.1 0-.297-.13-.198-1.21.823-2.19 1.943-1.799 3.49.458 1.878 2.518 3.03 2.289 5.106-.033.164.229.164.229 0zm.294-3.425c-.033-.824 1.013-1.219 1.7-1.219.915.033.327.856-.066 1.087-.425.263-.98.362-1.47.395-.164 0-.164.264 0 .264.653-.066 1.47-.231 1.96-.725.295-.296.491-.856.066-1.153-.425-.296-1.111-.066-1.536.1-.523.23-.948.625-.916 1.218.033.197.262.197.262.033zm-6.703 4.083c-1.274-.164-2.517.725-2.778 2.01-.033.131.098.197.196.131.785-.757 1.57-1.548 2.354-2.305.098-.1-.065-.297-.163-.165-.785.758-1.57 1.548-2.354 2.306.065.032.13.065.196.131.261-1.185 1.373-1.976 2.55-1.811.13-.033.13-.264 0-.297zm-3.367-5.368a2.65 2.65 0 001.602 2.01c.066.032.131.032.164-.034.752-1.284-1.668-1.614-1.7-2.602a.563.563 0 00-.164.132c1.537.23 2.746 1.548 2.78 3.129 0 .165.26.165.26 0-.032-1.68-1.274-3.129-2.942-3.36-.065 0-.163.034-.163.132.032.692.62.955 1.144 1.285.196.131.49.33.588.56.36.955-.425.263-.588.098a2.513 2.513 0 01-.752-1.383c-.033-.197-.261-.131-.229.033zm9.155 5.994a1.22 1.22 0 00-1.144.297c-.23.197-.49.658-.197.922.295.296.752.033 1.047-.099.62-.33 1.21-.757 1.765-1.186.13-.098-.065-.263-.163-.164-.523.395-1.047.724-1.602 1.054-.099.066-.23.131-.327.197-.066.033-.131.066-.23.099-.097-.132-.195-.296-.293-.428.032-.395.817-.461 1.046-.428.196 0 .261-.23.098-.264zm-11.051-5.73c-.36-1.779-2.255-1.91-3.727-1.845-.065 0-.13.066-.13.132-.197 2.503 3.792 2.174 5.198 1.647.163-.066.098-.297-.066-.23-1.275.46-2.942.658-4.152-.1-.327-.197-.915-.658-.588-1.02.229-.264.523-.198.85-.165 1.079.066 2.125.494 2.354 1.68.032.131.294.065.261-.1z"/><path d="M26.319 13.28c-.458-.066.653-1.021.752-1.087.163-.132.784-.758.98-.79.948-.133.425 1.547.262 2.041-.654 1.746-2.289 2.734-4.087 2.7-.163 0-.163.231 0 .264 1.308 0 2.583-.46 3.498-1.482.72-.79 1.537-2.569 1.046-3.655-.392-.89-1.21.23-1.7.625-.196.165-1.961 1.45-.784 1.647.13 0 .196-.23.032-.263z"/></g><defs><clipPath id="clip0"><path fill="#fff" transform="translate(0 .83)" d="M0 0h46v33H0z"/></clipPath></defs></svg>